<?xml version="1.0" encoding="utf-8"?>
<svg xmlns="http://www.w3.org/2000/svg" xmlns:xlink="http://www.w3.org/1999/xlink" width="600" height="400" viewBox="0 0 2400 1600">
<defs>
  <clipPath id="clip910">
    <rect x="0" y="0" width="2400" height="1600"/>
  </clipPath>
</defs>
<path clip-path="url(#clip910)" d="M0 1600 L2400 1600 L2400 0 L0 0  Z" fill="#ffffff" fill-rule="evenodd" fill-opacity="1"/>
<defs>
  <clipPath id="clip911">
    <rect x="480" y="0" width="1681" height="1600"/>
  </clipPath>
</defs>
<path clip-path="url(#clip910)" d="M234.125 1423.18 L2352.76 1423.18 L2352.76 123.472 L234.125 123.472  Z" fill="#ffffff" fill-rule="evenodd" fill-opacity="1"/>
<defs>
  <clipPath id="clip912">
    <rect x="234" y="123" width="2120" height="1301"/>
  </clipPath>
</defs>
<polyline clip-path="url(#clip912)" style="stroke:#000000; stroke-linecap:round; stroke-linejoin:round; stroke-width:2; stroke-opacity:0.1; fill:none" points="294.087,1423.18 294.087,123.472 "/>
<polyline clip-path="url(#clip912)" style="stroke:#000000; stroke-linecap:round; stroke-linejoin:round; stroke-width:2; stroke-opacity:0.1; fill:none" points="865.146,1423.18 865.146,123.472 "/>
<polyline clip-path="url(#clip912)" style="stroke:#000000; stroke-linecap:round; stroke-linejoin:round; stroke-width:2; stroke-opacity:0.1; fill:none" points="1436.21,1423.18 1436.21,123.472 "/>
<polyline clip-path="url(#clip912)" style="stroke:#000000; stroke-linecap:round; stroke-linejoin:round; stroke-width:2; stroke-opacity:0.1; fill:none" points="2007.26,1423.18 2007.26,123.472 "/>
<polyline clip-path="url(#clip910)" style="stroke:#000000; stroke-linecap:round; stroke-linejoin:round; stroke-width:4; stroke-opacity:1; fill:none" points="234.125,1423.18 2352.76,1423.18 "/>
<polyline clip-path="url(#clip910)" style="stroke:#000000; stroke-linecap:round; stroke-linejoin:round; stroke-width:4; stroke-opacity:1; fill:none" points="294.087,1423.18 294.087,1404.28 "/>
<polyline clip-path="url(#clip910)" style="stroke:#000000; stroke-linecap:round; stroke-linejoin:round; stroke-width:4; stroke-opacity:1; fill:none" points="865.146,1423.18 865.146,1404.28 "/>
<polyline clip-path="url(#clip910)" style="stroke:#000000; stroke-linecap:round; stroke-linejoin:round; stroke-width:4; stroke-opacity:1; fill:none" points="1436.21,1423.18 1436.21,1404.28 "/>
<polyline clip-path="url(#clip910)" style="stroke:#000000; stroke-linecap:round; stroke-linejoin:round; stroke-width:4; stroke-opacity:1; fill:none" points="2007.26,1423.18 2007.26,1404.28 "/>
<path clip-path="url(#clip910)" d="M294.087 1454.1 Q290.476 1454.1 288.647 1457.66 Q286.841 1461.2 286.841 1468.33 Q286.841 1475.44 288.647 1479.01 Q290.476 1482.55 294.087 1482.55 Q297.721 1482.55 299.526 1479.01 Q301.355 1475.44 301.355 1468.33 Q301.355 1461.2 299.526 1457.66 Q297.721 1454.1 294.087 1454.1 M294.087 1450.39 Q299.897 1450.39 302.952 1455 Q306.031 1459.58 306.031 1468.33 Q306.031 1477.06 302.952 1481.67 Q299.897 1486.25 294.087 1486.25 Q288.277 1486.25 285.198 1481.67 Q282.142 1477.06 282.142 1468.33 Q282.142 1459.58 285.198 1455 Q288.277 1450.39 294.087 1450.39 Z" fill="#000000" fill-rule="nonzero" fill-opacity="1" /><path clip-path="url(#clip910)" d="M839.834 1481.64 L847.473 1481.64 L847.473 1455.28 L839.162 1456.95 L839.162 1452.69 L847.426 1451.02 L852.102 1451.02 L852.102 1481.64 L859.741 1481.64 L859.741 1485.58 L839.834 1485.58 L839.834 1481.64 Z" fill="#000000" fill-rule="nonzero" fill-opacity="1" /><path clip-path="url(#clip910)" d="M879.185 1454.1 Q875.574 1454.1 873.746 1457.66 Q871.94 1461.2 871.94 1468.33 Q871.94 1475.44 873.746 1479.01 Q875.574 1482.55 879.185 1482.55 Q882.82 1482.55 884.625 1479.01 Q886.454 1475.44 886.454 1468.33 Q886.454 1461.2 884.625 1457.66 Q882.82 1454.1 879.185 1454.1 M879.185 1450.39 Q884.996 1450.39 888.051 1455 Q891.13 1459.58 891.13 1468.33 Q891.13 1477.06 888.051 1481.67 Q884.996 1486.25 879.185 1486.25 Q873.375 1486.25 870.297 1481.67 Q867.241 1477.06 867.241 1468.33 Q867.241 1459.58 870.297 1455 Q873.375 1450.39 879.185 1450.39 Z" fill="#000000" fill-rule="nonzero" fill-opacity="1" /><path clip-path="url(#clip910)" d="M1414.98 1481.64 L1431.3 1481.64 L1431.3 1485.58 L1409.35 1485.58 L1409.35 1481.64 Q1412.02 1478.89 1416.6 1474.26 Q1421.21 1469.61 1422.39 1468.27 Q1424.63 1465.74 1425.51 1464.01 Q1426.41 1462.25 1426.41 1460.56 Q1426.41 1457.8 1424.47 1456.07 Q1422.55 1454.33 1419.45 1454.33 Q1417.25 1454.33 1414.79 1455.09 Q1412.36 1455.86 1409.59 1457.41 L1409.59 1452.69 Q1412.41 1451.55 1414.86 1450.97 Q1417.32 1450.39 1419.35 1450.39 Q1424.72 1450.39 1427.92 1453.08 Q1431.11 1455.77 1431.11 1460.26 Q1431.11 1462.39 1430.3 1464.31 Q1429.52 1466.2 1427.41 1468.8 Q1426.83 1469.47 1423.73 1472.69 Q1420.63 1475.88 1414.98 1481.64 Z" fill="#000000" fill-rule="nonzero" fill-opacity="1" /><path clip-path="url(#clip910)" d="M1451.11 1454.1 Q1447.5 1454.1 1445.67 1457.66 Q1443.87 1461.2 1443.87 1468.33 Q1443.87 1475.44 1445.67 1479.01 Q1447.5 1482.55 1451.11 1482.55 Q1454.75 1482.55 1456.55 1479.01 Q1458.38 1475.44 1458.38 1468.33 Q1458.38 1461.2 1456.55 1457.66 Q1454.75 1454.1 1451.11 1454.1 M1451.11 1450.39 Q1456.92 1450.39 1459.98 1455 Q1463.06 1459.58 1463.06 1468.33 Q1463.06 1477.06 1459.98 1481.67 Q1456.92 1486.25 1451.11 1486.25 Q1445.3 1486.25 1442.22 1481.67 Q1439.17 1477.06 1439.17 1468.33 Q1439.17 1459.58 1442.22 1455 Q1445.3 1450.39 1451.11 1450.39 Z" fill="#000000" fill-rule="nonzero" fill-opacity="1" /><path clip-path="url(#clip910)" d="M1996.11 1466.95 Q1999.46 1467.66 2001.34 1469.93 Q2003.24 1472.2 2003.24 1475.53 Q2003.24 1480.65 1999.72 1483.45 Q1996.2 1486.25 1989.72 1486.25 Q1987.54 1486.25 1985.23 1485.81 Q1982.94 1485.39 1980.48 1484.54 L1980.48 1480.02 Q1982.43 1481.16 1984.74 1481.74 Q1987.06 1482.32 1989.58 1482.32 Q1993.98 1482.32 1996.27 1480.58 Q1998.58 1478.84 1998.58 1475.53 Q1998.58 1472.48 1996.43 1470.77 Q1994.3 1469.03 1990.48 1469.03 L1986.45 1469.03 L1986.45 1465.19 L1990.67 1465.19 Q1994.12 1465.19 1995.95 1463.82 Q1997.77 1462.43 1997.77 1459.84 Q1997.77 1457.18 1995.88 1455.77 Q1994 1454.33 1990.48 1454.33 Q1988.56 1454.33 1986.36 1454.75 Q1984.16 1455.16 1981.52 1456.04 L1981.52 1451.88 Q1984.19 1451.14 1986.5 1450.77 Q1988.84 1450.39 1990.9 1450.39 Q1996.22 1450.39 1999.33 1452.83 Q2002.43 1455.23 2002.43 1459.35 Q2002.43 1462.22 2000.78 1464.21 Q1999.14 1466.18 1996.11 1466.95 Z" fill="#000000" fill-rule="nonzero" fill-opacity="1" /><path clip-path="url(#clip910)" d="M2022.1 1454.1 Q2018.49 1454.1 2016.66 1457.66 Q2014.86 1461.2 2014.86 1468.33 Q2014.86 1475.44 2016.66 1479.01 Q2018.49 1482.55 2022.1 1482.55 Q2025.74 1482.55 2027.54 1479.01 Q2029.37 1475.44 2029.37 1468.33 Q2029.37 1461.2 2027.54 1457.66 Q2025.74 1454.1 2022.1 1454.1 M2022.1 1450.39 Q2027.91 1450.39 2030.97 1455 Q2034.05 1459.58 2034.05 1468.33 Q2034.05 1477.06 2030.97 1481.67 Q2027.91 1486.25 2022.1 1486.25 Q2016.29 1486.25 2013.21 1481.67 Q2010.16 1477.06 2010.16 1468.33 Q2010.16 1459.58 2013.21 1455 Q2016.29 1450.39 2022.1 1450.39 Z" fill="#000000" fill-rule="nonzero" fill-opacity="1" /><path clip-path="url(#clip910)" d="M1039.39 1533.45 L1039.39 1538.98 Q1036.9 1537.71 1034.23 1537.07 Q1031.56 1536.44 1028.69 1536.44 Q1024.33 1536.44 1022.13 1537.77 Q1019.97 1539.11 1019.97 1541.79 Q1019.97 1543.82 1021.53 1545 Q1023.09 1546.15 1027.8 1547.2 L1029.8 1547.64 Q1036.04 1548.98 1038.65 1551.43 Q1041.3 1553.85 1041.3 1558.21 Q1041.3 1563.17 1037.35 1566.07 Q1033.43 1568.97 1026.56 1568.97 Q1023.69 1568.97 1020.57 1568.39 Q1017.49 1567.85 1014.05 1566.74 L1014.05 1560.69 Q1017.3 1562.38 1020.45 1563.24 Q1023.6 1564.07 1026.69 1564.07 Q1030.82 1564.07 1033.05 1562.66 Q1035.28 1561.23 1035.28 1558.65 Q1035.28 1556.27 1033.66 1554.99 Q1032.06 1553.72 1026.62 1552.54 L1024.59 1552.07 Q1019.14 1550.92 1016.72 1548.56 Q1014.3 1546.18 1014.3 1542.04 Q1014.3 1537.01 1017.87 1534.27 Q1021.43 1531.54 1027.99 1531.54 Q1031.24 1531.54 1034.1 1532.01 Q1036.97 1532.49 1039.39 1533.45 Z" fill="#000000" fill-rule="nonzero" fill-opacity="1" /><path clip-path="url(#clip910)" d="M1081.11 1548.76 L1081.11 1551.62 L1054.19 1551.62 Q1054.57 1557.67 1057.81 1560.85 Q1061.09 1564 1066.92 1564 Q1070.29 1564 1073.44 1563.17 Q1076.62 1562.35 1079.74 1560.69 L1079.74 1566.23 Q1076.59 1567.57 1073.28 1568.27 Q1069.97 1568.97 1066.57 1568.97 Q1058.04 1568.97 1053.04 1564 Q1048.07 1559.04 1048.07 1550.57 Q1048.07 1541.82 1052.79 1536.69 Q1057.53 1531.54 1065.55 1531.54 Q1072.74 1531.54 1076.91 1536.18 Q1081.11 1540.8 1081.11 1548.76 M1075.26 1547.04 Q1075.19 1542.23 1072.55 1539.37 Q1069.94 1536.5 1065.61 1536.5 Q1060.71 1536.5 1057.75 1539.27 Q1054.82 1542.04 1054.38 1547.07 L1075.26 1547.04 Z" fill="#000000" fill-rule="nonzero" fill-opacity="1" /><path clip-path="url(#clip910)" d="M1090.72 1532.4 L1096.58 1532.4 L1096.58 1568.68 Q1096.58 1575.49 1093.97 1578.55 Q1091.39 1581.6 1085.63 1581.6 L1083.4 1581.6 L1083.4 1576.64 L1084.96 1576.64 Q1088.31 1576.64 1089.52 1575.08 Q1090.72 1573.55 1090.72 1568.68 L1090.72 1532.4 M1090.72 1518.52 L1096.58 1518.52 L1096.58 1525.93 L1090.72 1525.93 L1090.72 1518.52 Z" fill="#000000" fill-rule="nonzero" fill-opacity="1" /><path clip-path="url(#clip910)" d="M1125.04 1550.12 Q1117.94 1550.12 1115.2 1551.75 Q1112.46 1553.37 1112.46 1557.29 Q1112.46 1560.4 1114.5 1562.25 Q1116.57 1564.07 1120.1 1564.07 Q1124.97 1564.07 1127.9 1560.63 Q1130.86 1557.16 1130.86 1551.43 L1130.86 1550.12 L1125.04 1550.12 M1136.72 1547.71 L1136.72 1568.04 L1130.86 1568.04 L1130.86 1562.63 Q1128.86 1565.88 1125.86 1567.44 Q1122.87 1568.97 1118.54 1568.97 Q1113.07 1568.97 1109.82 1565.91 Q1106.61 1562.82 1106.61 1557.67 Q1106.61 1551.65 1110.62 1548.6 Q1114.66 1545.54 1122.65 1545.54 L1130.86 1545.54 L1130.86 1544.97 Q1130.86 1540.93 1128.19 1538.73 Q1125.55 1536.5 1120.74 1536.5 Q1117.68 1536.5 1114.79 1537.23 Q1111.89 1537.97 1109.22 1539.43 L1109.22 1534.02 Q1112.43 1532.78 1115.46 1532.17 Q1118.48 1531.54 1121.34 1531.54 Q1129.08 1531.54 1132.9 1535.55 Q1136.72 1539.56 1136.72 1547.71 Z" fill="#000000" fill-rule="nonzero" fill-opacity="1" /><path clip-path="url(#clip910)" d="M1148.56 1518.52 L1154.45 1518.52 L1154.45 1547.77 L1171.92 1532.4 L1179.4 1532.4 L1160.49 1549.07 L1180.19 1568.04 L1172.56 1568.04 L1154.45 1550.63 L1154.45 1568.04 L1148.56 1568.04 L1148.56 1518.52 Z" fill="#000000" fill-rule="nonzero" fill-opacity="1" /><path clip-path="url(#clip910)" d="M1213.04 1522.27 L1213.04 1532.4 L1225.1 1532.4 L1225.1 1536.95 L1213.04 1536.95 L1213.04 1556.3 Q1213.04 1560.66 1214.22 1561.9 Q1215.43 1563.14 1219.09 1563.14 L1225.1 1563.14 L1225.1 1568.04 L1219.09 1568.04 Q1212.31 1568.04 1209.73 1565.53 Q1207.15 1562.98 1207.15 1556.3 L1207.15 1536.95 L1202.86 1536.95 L1202.86 1532.4 L1207.15 1532.4 L1207.15 1522.27 L1213.04 1522.27 Z" fill="#000000" fill-rule="nonzero" fill-opacity="1" /><path clip-path="url(#clip910)" d="M1249.01 1550.12 Q1241.91 1550.12 1239.17 1551.75 Q1236.44 1553.37 1236.44 1557.29 Q1236.44 1560.4 1238.47 1562.25 Q1240.54 1564.07 1244.07 1564.07 Q1248.94 1564.07 1251.87 1560.63 Q1254.83 1557.16 1254.83 1551.43 L1254.83 1550.12 L1249.01 1550.12 M1260.69 1547.71 L1260.69 1568.04 L1254.83 1568.04 L1254.83 1562.63 Q1252.83 1565.88 1249.84 1567.44 Q1246.84 1568.97 1242.52 1568.97 Q1237.04 1568.97 1233.79 1565.91 Q1230.58 1562.82 1230.58 1557.67 Q1230.58 1551.65 1234.59 1548.6 Q1238.63 1545.54 1246.62 1545.54 L1254.83 1545.54 L1254.83 1544.97 Q1254.83 1540.93 1252.16 1538.73 Q1249.52 1536.5 1244.71 1536.5 Q1241.66 1536.5 1238.76 1537.23 Q1235.86 1537.97 1233.19 1539.43 L1233.19 1534.02 Q1236.4 1532.78 1239.43 1532.17 Q1242.45 1531.54 1245.32 1531.54 Q1253.05 1531.54 1256.87 1535.55 Q1260.69 1539.56 1260.69 1547.71 Z" fill="#000000" fill-rule="nonzero" fill-opacity="1" /><path clip-path="url(#clip910)" d="M1302.38 1546.53 L1302.38 1568.04 L1296.53 1568.04 L1296.53 1546.72 Q1296.53 1541.66 1294.55 1539.14 Q1292.58 1536.63 1288.63 1536.63 Q1283.89 1536.63 1281.15 1539.65 Q1278.42 1542.68 1278.42 1547.9 L1278.42 1568.04 L1272.53 1568.04 L1272.53 1518.52 L1278.42 1518.52 L1278.42 1537.93 Q1280.52 1534.72 1283.35 1533.13 Q1286.22 1531.54 1289.94 1531.54 Q1296.08 1531.54 1299.23 1535.36 Q1302.38 1539.14 1302.38 1546.53 Z" fill="#000000" fill-rule="nonzero" fill-opacity="1" /><path clip-path="url(#clip910)" d="M1313.46 1553.98 L1313.46 1532.4 L1319.32 1532.4 L1319.32 1553.75 Q1319.32 1558.81 1321.29 1561.36 Q1323.26 1563.87 1327.21 1563.87 Q1331.95 1563.87 1334.69 1560.85 Q1337.46 1557.83 1337.46 1552.61 L1337.46 1532.4 L1343.32 1532.4 L1343.32 1568.04 L1337.46 1568.04 L1337.46 1562.57 Q1335.33 1565.82 1332.49 1567.41 Q1329.69 1568.97 1325.97 1568.97 Q1319.83 1568.97 1316.64 1565.15 Q1313.46 1561.33 1313.46 1553.98 M1328.2 1531.54 L1328.2 1531.54 Z" fill="#000000" fill-rule="nonzero" fill-opacity="1" /><path clip-path="url(#clip910)" d="M1385.01 1546.53 L1385.01 1568.04 L1379.15 1568.04 L1379.15 1546.72 Q1379.15 1541.66 1377.18 1539.14 Q1375.21 1536.63 1371.26 1536.63 Q1366.52 1536.63 1363.78 1539.65 Q1361.04 1542.68 1361.04 1547.9 L1361.04 1568.04 L1355.16 1568.04 L1355.16 1532.4 L1361.04 1532.4 L1361.04 1537.93 Q1363.15 1534.72 1365.98 1533.13 Q1368.84 1531.54 1372.57 1531.54 Q1378.71 1531.54 1381.86 1535.36 Q1385.01 1539.14 1385.01 1546.53 Z" fill="#000000" fill-rule="nonzero" fill-opacity="1" /><path clip-path="url(#clip910)" d="M1419.35 1562.63 L1429.86 1562.63 L1429.86 1526.38 L1418.43 1528.67 L1418.43 1522.82 L1429.79 1520.52 L1436.22 1520.52 L1436.22 1562.63 L1446.73 1562.63 L1446.73 1568.04 L1419.35 1568.04 L1419.35 1562.63 Z" fill="#000000" fill-rule="nonzero" fill-opacity="1" /><path clip-path="url(#clip910)" d="M1459.9 1567.06 L1459.9 1561.2 Q1462.32 1562.35 1464.81 1562.95 Q1467.29 1563.56 1469.68 1563.56 Q1476.04 1563.56 1479.38 1559.29 Q1482.76 1554.99 1483.23 1546.27 Q1481.39 1549.01 1478.56 1550.47 Q1475.72 1551.94 1472.29 1551.94 Q1465.16 1551.94 1460.99 1547.64 Q1456.85 1543.31 1456.85 1535.83 Q1456.85 1528.51 1461.18 1524.09 Q1465.51 1519.66 1472.7 1519.66 Q1480.94 1519.66 1485.27 1526 Q1489.63 1532.3 1489.63 1544.33 Q1489.63 1555.57 1484.28 1562.28 Q1478.97 1568.97 1469.96 1568.97 Q1467.54 1568.97 1465.06 1568.49 Q1462.58 1568.01 1459.9 1567.06 M1472.7 1546.91 Q1477.03 1546.91 1479.54 1543.95 Q1482.09 1540.99 1482.09 1535.83 Q1482.09 1530.71 1479.54 1527.75 Q1477.03 1524.76 1472.7 1524.76 Q1468.37 1524.76 1465.82 1527.75 Q1463.31 1530.71 1463.31 1535.83 Q1463.31 1540.99 1465.82 1543.95 Q1468.37 1546.91 1472.7 1546.91 Z" fill="#000000" fill-rule="nonzero" fill-opacity="1" /><path clip-path="url(#clip910)" d="M1514.94 1545.48 Q1510.35 1545.48 1507.71 1547.93 Q1505.1 1550.38 1505.1 1554.68 Q1505.1 1558.97 1507.71 1561.42 Q1510.35 1563.87 1514.94 1563.87 Q1519.52 1563.87 1522.16 1561.42 Q1524.8 1558.94 1524.8 1554.68 Q1524.8 1550.38 1522.16 1547.93 Q1519.55 1545.48 1514.94 1545.48 M1508.51 1542.74 Q1504.37 1541.72 1502.04 1538.89 Q1499.75 1536.06 1499.75 1531.98 Q1499.75 1526.28 1503.8 1522.97 Q1507.87 1519.66 1514.94 1519.66 Q1522.03 1519.66 1526.08 1522.97 Q1530.12 1526.28 1530.12 1531.98 Q1530.12 1536.06 1527.79 1538.89 Q1525.5 1541.72 1521.4 1542.74 Q1526.04 1543.82 1528.62 1546.97 Q1531.23 1550.12 1531.23 1554.68 Q1531.23 1561.58 1527 1565.27 Q1522.8 1568.97 1514.94 1568.97 Q1507.07 1568.97 1502.84 1565.27 Q1498.64 1561.58 1498.64 1554.68 Q1498.64 1550.12 1501.25 1546.97 Q1503.86 1543.82 1508.51 1542.74 M1506.15 1532.59 Q1506.15 1536.28 1508.44 1538.35 Q1510.77 1540.42 1514.94 1540.42 Q1519.07 1540.42 1521.4 1538.35 Q1523.75 1536.28 1523.75 1532.59 Q1523.75 1528.89 1521.4 1526.83 Q1519.07 1524.76 1514.94 1524.76 Q1510.77 1524.76 1508.44 1526.83 Q1506.15 1528.89 1506.15 1532.59 Z" fill="#000000" fill-rule="nonzero" fill-opacity="1" /><path clip-path="url(#clip910)" d="M1556.41 1524.76 Q1551.44 1524.76 1548.93 1529.66 Q1546.45 1534.53 1546.45 1544.33 Q1546.45 1554.1 1548.93 1559 Q1551.44 1563.87 1556.41 1563.87 Q1561.41 1563.87 1563.89 1559 Q1566.4 1554.1 1566.4 1544.33 Q1566.4 1534.53 1563.89 1529.66 Q1561.41 1524.76 1556.41 1524.76 M1556.41 1519.66 Q1564.4 1519.66 1568.6 1526 Q1572.83 1532.3 1572.83 1544.33 Q1572.83 1556.33 1568.6 1562.66 Q1564.4 1568.97 1556.41 1568.97 Q1548.42 1568.97 1544.19 1562.66 Q1539.98 1556.33 1539.98 1544.33 Q1539.98 1532.3 1544.19 1526 Q1548.42 1519.66 1556.41 1519.66 Z" fill="#000000" fill-rule="nonzero" fill-opacity="1" /><polyline clip-path="url(#clip912)" style="stroke:#000000; stroke-linecap:round; stroke-linejoin:round; stroke-width:2; stroke-opacity:0.1; fill:none" points="234.125,1258.24 2352.76,1258.24 "/>
<polyline clip-path="url(#clip912)" style="stroke:#000000; stroke-linecap:round; stroke-linejoin:round; stroke-width:2; stroke-opacity:0.1; fill:none" points="234.125,950.161 2352.76,950.161 "/>
<polyline clip-path="url(#clip912)" style="stroke:#000000; stroke-linecap:round; stroke-linejoin:round; stroke-width:2; stroke-opacity:0.1; fill:none" points="234.125,642.086 2352.76,642.086 "/>
<polyline clip-path="url(#clip912)" style="stroke:#000000; stroke-linecap:round; stroke-linejoin:round; stroke-width:2; stroke-opacity:0.1; fill:none" points="234.125,334.011 2352.76,334.011 "/>
<polyline clip-path="url(#clip910)" style="stroke:#000000; stroke-linecap:round; stroke-linejoin:round; stroke-width:4; stroke-opacity:1; fill:none" points="234.125,1423.18 234.125,123.472 "/>
<polyline clip-path="url(#clip910)" style="stroke:#000000; stroke-linecap:round; stroke-linejoin:round; stroke-width:4; stroke-opacity:1; fill:none" points="234.125,1258.24 253.023,1258.24 "/>
<polyline clip-path="url(#clip910)" style="stroke:#000000; stroke-linecap:round; stroke-linejoin:round; stroke-width:4; stroke-opacity:1; fill:none" points="234.125,950.161 253.023,950.161 "/>
<polyline clip-path="url(#clip910)" style="stroke:#000000; stroke-linecap:round; stroke-linejoin:round; stroke-width:4; stroke-opacity:1; fill:none" points="234.125,642.086 253.023,642.086 "/>
<polyline clip-path="url(#clip910)" style="stroke:#000000; stroke-linecap:round; stroke-linejoin:round; stroke-width:4; stroke-opacity:1; fill:none" points="234.125,334.011 253.023,334.011 "/>
<path clip-path="url(#clip910)" d="M116.668 1271.58 L124.306 1271.58 L124.306 1245.22 L115.996 1246.88 L115.996 1242.62 L124.26 1240.96 L128.936 1240.96 L128.936 1271.58 L136.575 1271.58 L136.575 1275.52 L116.668 1275.52 L116.668 1271.58 Z" fill="#000000" fill-rule="nonzero" fill-opacity="1" /><path clip-path="url(#clip910)" d="M156.019 1244.04 Q152.408 1244.04 150.579 1247.6 Q148.774 1251.14 148.774 1258.27 Q148.774 1265.38 150.579 1268.94 Q152.408 1272.48 156.019 1272.48 Q159.653 1272.48 161.459 1268.94 Q163.288 1265.38 163.288 1258.27 Q163.288 1251.14 161.459 1247.6 Q159.653 1244.04 156.019 1244.04 M156.019 1240.33 Q161.829 1240.33 164.885 1244.94 Q167.964 1249.52 167.964 1258.27 Q167.964 1267 164.885 1271.6 Q161.829 1276.19 156.019 1276.19 Q150.209 1276.19 147.13 1271.6 Q144.075 1267 144.075 1258.27 Q144.075 1249.52 147.13 1244.94 Q150.209 1240.33 156.019 1240.33 Z" fill="#000000" fill-rule="nonzero" fill-opacity="1" /><path clip-path="url(#clip910)" d="M186.181 1244.04 Q182.57 1244.04 180.741 1247.6 Q178.936 1251.14 178.936 1258.27 Q178.936 1265.38 180.741 1268.94 Q182.57 1272.48 186.181 1272.48 Q189.815 1272.48 191.621 1268.94 Q193.45 1265.38 193.45 1258.27 Q193.45 1251.14 191.621 1247.6 Q189.815 1244.04 186.181 1244.04 M186.181 1240.33 Q191.991 1240.33 195.047 1244.94 Q198.125 1249.52 198.125 1258.27 Q198.125 1267 195.047 1271.6 Q191.991 1276.19 186.181 1276.19 Q180.371 1276.19 177.292 1271.6 Q174.237 1267 174.237 1258.27 Q174.237 1249.52 177.292 1244.94 Q180.371 1240.33 186.181 1240.33 Z" fill="#000000" fill-rule="nonzero" fill-opacity="1" /><path clip-path="url(#clip910)" d="M116.668 963.506 L124.306 963.506 L124.306 937.14 L115.996 938.807 L115.996 934.548 L124.26 932.881 L128.936 932.881 L128.936 963.506 L136.575 963.506 L136.575 967.441 L116.668 967.441 L116.668 963.506 Z" fill="#000000" fill-rule="nonzero" fill-opacity="1" /><path clip-path="url(#clip910)" d="M146.066 932.881 L164.422 932.881 L164.422 936.816 L150.348 936.816 L150.348 945.288 Q151.366 944.941 152.385 944.779 Q153.403 944.594 154.422 944.594 Q160.209 944.594 163.589 947.765 Q166.968 950.937 166.968 956.353 Q166.968 961.932 163.496 965.034 Q160.024 968.112 153.704 968.112 Q151.528 968.112 149.26 967.742 Q147.015 967.372 144.607 966.631 L144.607 961.932 Q146.691 963.066 148.913 963.622 Q151.135 964.177 153.612 964.177 Q157.616 964.177 159.954 962.071 Q162.292 959.964 162.292 956.353 Q162.292 952.742 159.954 950.636 Q157.616 948.529 153.612 948.529 Q151.737 948.529 149.862 948.946 Q148.01 949.363 146.066 950.242 L146.066 932.881 Z" fill="#000000" fill-rule="nonzero" fill-opacity="1" /><path clip-path="url(#clip910)" d="M186.181 935.96 Q182.57 935.96 180.741 939.525 Q178.936 943.066 178.936 950.196 Q178.936 957.302 180.741 960.867 Q182.57 964.409 186.181 964.409 Q189.815 964.409 191.621 960.867 Q193.45 957.302 193.45 950.196 Q193.45 943.066 191.621 939.525 Q189.815 935.96 186.181 935.96 M186.181 932.256 Q191.991 932.256 195.047 936.863 Q198.125 941.446 198.125 950.196 Q198.125 958.923 195.047 963.529 Q191.991 968.112 186.181 968.112 Q180.371 968.112 177.292 963.529 Q174.237 958.923 174.237 950.196 Q174.237 941.446 177.292 936.863 Q180.371 932.256 186.181 932.256 Z" fill="#000000" fill-rule="nonzero" fill-opacity="1" /><path clip-path="url(#clip910)" d="M119.885 655.431 L136.204 655.431 L136.204 659.366 L114.26 659.366 L114.26 655.431 Q116.922 652.676 121.505 648.047 Q126.112 643.394 127.292 642.051 Q129.538 639.528 130.417 637.792 Q131.32 636.033 131.32 634.343 Q131.32 631.588 129.376 629.852 Q127.455 628.116 124.353 628.116 Q122.154 628.116 119.7 628.88 Q117.269 629.644 114.492 631.195 L114.492 626.473 Q117.316 625.338 119.769 624.76 Q122.223 624.181 124.26 624.181 Q129.63 624.181 132.825 626.866 Q136.019 629.551 136.019 634.042 Q136.019 636.172 135.209 638.093 Q134.422 639.991 132.316 642.584 Q131.737 643.255 128.635 646.472 Q125.533 649.667 119.885 655.431 Z" fill="#000000" fill-rule="nonzero" fill-opacity="1" /><path clip-path="url(#clip910)" d="M156.019 627.885 Q152.408 627.885 150.579 631.449 Q148.774 634.991 148.774 642.121 Q148.774 649.227 150.579 652.792 Q152.408 656.334 156.019 656.334 Q159.653 656.334 161.459 652.792 Q163.288 649.227 163.288 642.121 Q163.288 634.991 161.459 631.449 Q159.653 627.885 156.019 627.885 M156.019 624.181 Q161.829 624.181 164.885 628.787 Q167.964 633.371 167.964 642.121 Q167.964 650.847 164.885 655.454 Q161.829 660.037 156.019 660.037 Q150.209 660.037 147.13 655.454 Q144.075 650.847 144.075 642.121 Q144.075 633.371 147.13 628.787 Q150.209 624.181 156.019 624.181 Z" fill="#000000" fill-rule="nonzero" fill-opacity="1" /><path clip-path="url(#clip910)" d="M186.181 627.885 Q182.57 627.885 180.741 631.449 Q178.936 634.991 178.936 642.121 Q178.936 649.227 180.741 652.792 Q182.57 656.334 186.181 656.334 Q189.815 656.334 191.621 652.792 Q193.45 649.227 193.45 642.121 Q193.45 634.991 191.621 631.449 Q189.815 627.885 186.181 627.885 M186.181 624.181 Q191.991 624.181 195.047 628.787 Q198.125 633.371 198.125 642.121 Q198.125 650.847 195.047 655.454 Q191.991 660.037 186.181 660.037 Q180.371 660.037 177.292 655.454 Q174.237 650.847 174.237 642.121 Q174.237 633.371 177.292 628.787 Q180.371 624.181 186.181 624.181 Z" fill="#000000" fill-rule="nonzero" fill-opacity="1" /><path clip-path="url(#clip910)" d="M119.885 347.356 L136.204 347.356 L136.204 351.291 L114.26 351.291 L114.26 347.356 Q116.922 344.601 121.505 339.971 Q126.112 335.319 127.292 333.976 Q129.538 331.453 130.417 329.717 Q131.32 327.958 131.32 326.268 Q131.32 323.513 129.376 321.777 Q127.455 320.041 124.353 320.041 Q122.154 320.041 119.7 320.805 Q117.269 321.569 114.492 323.12 L114.492 318.397 Q117.316 317.263 119.769 316.684 Q122.223 316.106 124.26 316.106 Q129.63 316.106 132.825 318.791 Q136.019 321.476 136.019 325.967 Q136.019 328.096 135.209 330.018 Q134.422 331.916 132.316 334.508 Q131.737 335.18 128.635 338.397 Q125.533 341.592 119.885 347.356 Z" fill="#000000" fill-rule="nonzero" fill-opacity="1" /><path clip-path="url(#clip910)" d="M146.066 316.731 L164.422 316.731 L164.422 320.666 L150.348 320.666 L150.348 329.138 Q151.366 328.791 152.385 328.629 Q153.403 328.444 154.422 328.444 Q160.209 328.444 163.589 331.615 Q166.968 334.786 166.968 340.203 Q166.968 345.781 163.496 348.883 Q160.024 351.962 153.704 351.962 Q151.528 351.962 149.26 351.592 Q147.015 351.221 144.607 350.481 L144.607 345.781 Q146.691 346.916 148.913 347.471 Q151.135 348.027 153.612 348.027 Q157.616 348.027 159.954 345.92 Q162.292 343.814 162.292 340.203 Q162.292 336.592 159.954 334.485 Q157.616 332.379 153.612 332.379 Q151.737 332.379 149.862 332.795 Q148.01 333.212 146.066 334.092 L146.066 316.731 Z" fill="#000000" fill-rule="nonzero" fill-opacity="1" /><path clip-path="url(#clip910)" d="M186.181 319.809 Q182.57 319.809 180.741 323.374 Q178.936 326.916 178.936 334.045 Q178.936 341.152 180.741 344.717 Q182.57 348.258 186.181 348.258 Q189.815 348.258 191.621 344.717 Q193.45 341.152 193.45 334.045 Q193.45 326.916 191.621 323.374 Q189.815 319.809 186.181 319.809 M186.181 316.106 Q191.991 316.106 195.047 320.712 Q198.125 325.295 198.125 334.045 Q198.125 342.772 195.047 347.379 Q191.991 351.962 186.181 351.962 Q180.371 351.962 177.292 347.379 Q174.237 342.772 174.237 334.045 Q174.237 325.295 177.292 320.712 Q180.371 316.106 186.181 316.106 Z" fill="#000000" fill-rule="nonzero" fill-opacity="1" /><path clip-path="url(#clip910)" d="M28.3562 1146.52 L28.3562 1140.66 L64.6407 1140.66 Q71.452 1140.66 74.5076 1143.27 Q77.5631 1145.85 77.5631 1151.61 L77.5631 1153.84 L72.5979 1153.84 L72.5979 1152.28 Q72.5979 1148.93 71.0383 1147.73 Q69.5105 1146.52 64.6407 1146.52 L28.3562 1146.52 M14.479 1146.52 L14.479 1140.66 L21.895 1140.66 L21.895 1146.52 L14.479 1146.52 Z" fill="#000000" fill-rule="nonzero" fill-opacity="1" /><path clip-path="url(#clip910)" d="M49.9359 1129.01 L28.3562 1129.01 L28.3562 1123.15 L49.7131 1123.15 Q54.7739 1123.15 57.3202 1121.18 Q59.8346 1119.21 59.8346 1115.26 Q59.8346 1110.52 56.8109 1107.78 Q53.7872 1105.01 48.5673 1105.01 L28.3562 1105.01 L28.3562 1099.15 L64.0042 1099.15 L64.0042 1105.01 L58.5296 1105.01 Q61.7762 1107.14 63.3676 1109.98 Q64.9272 1112.78 64.9272 1116.5 Q64.9272 1122.64 61.1078 1125.83 Q57.2883 1129.01 49.9359 1129.01 M27.4968 1114.27 L27.4968 1114.27 Z" fill="#000000" fill-rule="nonzero" fill-opacity="1" /><path clip-path="url(#clip910)" d="M35.1993 1059.34 Q31.2526 1057.14 29.3747 1054.09 Q27.4968 1051.03 27.4968 1046.89 Q27.4968 1041.32 31.4117 1038.3 Q35.2948 1035.27 42.4881 1035.27 L64.0042 1035.27 L64.0042 1041.16 L42.679 1041.16 Q37.5546 1041.16 35.072 1042.98 Q32.5894 1044.79 32.5894 1048.52 Q32.5894 1053.07 35.6131 1055.71 Q38.6368 1058.35 43.8567 1058.35 L64.0042 1058.35 L64.0042 1064.24 L42.679 1064.24 Q37.5228 1064.24 35.072 1066.05 Q32.5894 1067.87 32.5894 1071.65 Q32.5894 1076.14 35.6449 1078.78 Q38.6686 1081.43 43.8567 1081.43 L64.0042 1081.43 L64.0042 1087.31 L28.3562 1087.31 L28.3562 1081.43 L33.8944 1081.43 Q30.616 1079.42 29.0564 1076.62 Q27.4968 1073.82 27.4968 1069.97 Q27.4968 1066.08 29.4702 1063.38 Q31.4436 1060.64 35.1993 1059.34 Z" fill="#000000" fill-rule="nonzero" fill-opacity="1" /><path clip-path="url(#clip910)" d="M14.479 1023.59 L14.479 1017.74 L64.0042 1017.74 L64.0042 1023.59 L14.479 1023.59 Z" fill="#000000" fill-rule="nonzero" fill-opacity="1" /><path clip-path="url(#clip910)" d="M46.0847 989.283 Q46.0847 996.38 47.7079 999.118 Q49.3312 1001.85 53.2461 1001.85 Q56.3653 1001.85 58.2114 999.818 Q60.0256 997.749 60.0256 994.216 Q60.0256 989.346 56.5881 986.418 Q53.1188 983.458 47.3897 983.458 L46.0847 983.458 L46.0847 989.283 M43.6657 977.602 L64.0042 977.602 L64.0042 983.458 L58.5933 983.458 Q61.8398 985.463 63.3994 988.455 Q64.9272 991.447 64.9272 995.776 Q64.9272 1001.25 61.8716 1004.5 Q58.7843 1007.71 53.6281 1007.71 Q47.6125 1007.71 44.5569 1003.7 Q41.5014 999.659 41.5014 991.67 L41.5014 983.458 L40.9285 983.458 Q36.8862 983.458 34.6901 986.132 Q32.4621 988.773 32.4621 993.579 Q32.4621 996.635 33.1941 999.531 Q33.9262 1002.43 35.3903 1005.1 L29.9795 1005.1 Q28.7381 1001.89 28.1334 998.863 Q27.4968 995.839 27.4968 992.975 Q27.4968 985.24 31.5072 981.421 Q35.5176 977.602 43.6657 977.602 Z" fill="#000000" fill-rule="nonzero" fill-opacity="1" /><path clip-path="url(#clip910)" d="M42.4881 935.906 L64.0042 935.906 L64.0042 941.763 L42.679 941.763 Q37.6183 941.763 35.1038 943.736 Q32.5894 945.709 32.5894 949.656 Q32.5894 954.399 35.6131 957.136 Q38.6368 959.873 43.8567 959.873 L64.0042 959.873 L64.0042 965.761 L14.479 965.761 L14.479 959.873 L33.8944 959.873 Q30.6797 957.772 29.0883 954.94 Q27.4968 952.075 27.4968 948.351 Q27.4968 942.208 31.3163 939.057 Q35.1038 935.906 42.4881 935.906 Z" fill="#000000" fill-rule="nonzero" fill-opacity="1" /><path clip-path="url(#clip910)" d="M58.657 897.839 L77.5631 897.839 L77.5631 903.727 L28.3562 903.727 L28.3562 897.839 L33.7671 897.839 Q30.5842 895.993 29.0564 893.192 Q27.4968 890.36 27.4968 886.445 Q27.4968 879.952 32.6531 875.909 Q37.8093 871.835 46.212 871.835 Q54.6147 871.835 59.771 875.909 Q64.9272 879.952 64.9272 886.445 Q64.9272 890.36 63.3994 893.192 Q61.8398 895.993 58.657 897.839 M46.212 877.915 Q39.7508 877.915 36.0905 880.588 Q32.3984 883.23 32.3984 887.877 Q32.3984 892.524 36.0905 895.197 Q39.7508 897.839 46.212 897.839 Q52.6732 897.839 56.3653 895.197 Q60.0256 892.524 60.0256 887.877 Q60.0256 883.23 56.3653 880.588 Q52.6732 877.915 46.212 877.915 Z" fill="#000000" fill-rule="nonzero" fill-opacity="1" /><path clip-path="url(#clip910)" d="M44.7161 831.636 L47.5806 831.636 L47.5806 858.563 Q53.6281 858.181 56.8109 854.934 Q59.9619 851.656 59.9619 845.831 Q59.9619 842.458 59.1344 839.307 Q58.3069 836.124 56.6518 833.004 L62.1899 833.004 Q63.5267 836.156 64.227 839.466 Q64.9272 842.776 64.9272 846.181 Q64.9272 854.712 59.9619 859.709 Q54.9967 864.674 46.5303 864.674 Q37.7774 864.674 32.6531 859.963 Q27.4968 855.221 27.4968 847.2 Q27.4968 840.007 32.1438 835.837 Q36.7589 831.636 44.7161 831.636 M42.9973 837.492 Q38.1912 837.556 35.3266 840.198 Q32.4621 842.808 32.4621 847.136 Q32.4621 852.038 35.2312 854.998 Q38.0002 857.926 43.0292 858.372 L42.9973 837.492 Z" fill="#000000" fill-rule="nonzero" fill-opacity="1" /><path clip-path="url(#clip910)" d="M42.4881 792.391 L64.0042 792.391 L64.0042 798.248 L42.679 798.248 Q37.6183 798.248 35.1038 800.221 Q32.5894 802.194 32.5894 806.141 Q32.5894 810.884 35.6131 813.621 Q38.6368 816.358 43.8567 816.358 L64.0042 816.358 L64.0042 822.246 L28.3562 822.246 L28.3562 816.358 L33.8944 816.358 Q30.6797 814.257 29.0883 811.425 Q27.4968 808.56 27.4968 804.836 Q27.4968 798.693 31.3163 795.542 Q35.1038 792.391 42.4881 792.391 Z" fill="#000000" fill-rule="nonzero" fill-opacity="1" /><path clip-path="url(#clip910)" d="M33.7671 757.253 L14.479 757.253 L14.479 751.396 L64.0042 751.396 L64.0042 757.253 L58.657 757.253 Q61.8398 759.099 63.3994 761.931 Q64.9272 764.732 64.9272 768.679 Q64.9272 775.14 59.771 779.214 Q54.6147 783.256 46.212 783.256 Q37.8093 783.256 32.6531 779.214 Q27.4968 775.14 27.4968 768.679 Q27.4968 764.732 29.0564 761.931 Q30.5842 759.099 33.7671 757.253 M46.212 777.209 Q52.6732 777.209 56.3653 774.567 Q60.0256 771.894 60.0256 767.247 Q60.0256 762.6 56.3653 759.926 Q52.6732 757.253 46.212 757.253 Q39.7508 757.253 36.0905 759.926 Q32.3984 762.6 32.3984 767.247 Q32.3984 771.894 36.0905 774.567 Q39.7508 777.209 46.212 777.209 Z" fill="#000000" fill-rule="nonzero" fill-opacity="1" /><path clip-path="url(#clip910)" d="M49.9359 739.938 L28.3562 739.938 L28.3562 734.081 L49.7131 734.081 Q54.7739 734.081 57.3202 732.108 Q59.8346 730.135 59.8346 726.188 Q59.8346 721.445 56.8109 718.708 Q53.7872 715.939 48.5673 715.939 L28.3562 715.939 L28.3562 710.083 L64.0042 710.083 L64.0042 715.939 L58.5296 715.939 Q61.7762 718.072 63.3676 720.904 Q64.9272 723.705 64.9272 727.429 Q64.9272 733.572 61.1078 736.755 Q57.2883 739.938 49.9359 739.938 M27.4968 725.201 L27.4968 725.201 Z" fill="#000000" fill-rule="nonzero" fill-opacity="1" /><path clip-path="url(#clip910)" d="M33.7671 674.562 L14.479 674.562 L14.479 668.706 L64.0042 668.706 L64.0042 674.562 L58.657 674.562 Q61.8398 676.408 63.3994 679.241 Q64.9272 682.042 64.9272 685.988 Q64.9272 692.45 59.771 696.524 Q54.6147 700.566 46.212 700.566 Q37.8093 700.566 32.6531 696.524 Q27.4968 692.45 27.4968 685.988 Q27.4968 682.042 29.0564 679.241 Q30.5842 676.408 33.7671 674.562 M46.212 694.519 Q52.6732 694.519 56.3653 691.877 Q60.0256 689.203 60.0256 684.556 Q60.0256 679.909 56.3653 677.236 Q52.6732 674.562 46.212 674.562 Q39.7508 674.562 36.0905 677.236 Q32.3984 679.909 32.3984 684.556 Q32.3984 689.203 36.0905 691.877 Q39.7508 694.519 46.212 694.519 Z" fill="#000000" fill-rule="nonzero" fill-opacity="1" /><path clip-path="url(#clip910)" d="M49.9359 657.247 L28.3562 657.247 L28.3562 651.391 L49.7131 651.391 Q54.7739 651.391 57.3202 649.418 Q59.8346 647.444 59.8346 643.497 Q59.8346 638.755 56.8109 636.018 Q53.7872 633.249 48.5673 633.249 L28.3562 633.249 L28.3562 627.392 L64.0042 627.392 L64.0042 633.249 L58.5296 633.249 Q61.7762 635.381 63.3676 638.214 Q64.9272 641.015 64.9272 644.739 Q64.9272 650.882 61.1078 654.064 Q57.2883 657.247 49.9359 657.247 M27.4968 642.511 L27.4968 642.511 Z" fill="#000000" fill-rule="nonzero" fill-opacity="1" /><path clip-path="url(#clip910)" d="M14.479 615.552 L14.479 609.664 L43.7294 609.664 L28.3562 592.19 L28.3562 584.71 L45.0344 603.616 L64.0042 583.914 L64.0042 591.553 L46.5939 609.664 L64.0042 609.664 L64.0042 615.552 L14.479 615.552 Z" fill="#000000" fill-rule="nonzero" fill-opacity="1" /><path clip-path="url(#clip910)" d="M14.5426 542.792 Q21.8632 547.057 29.0246 549.126 Q36.186 551.195 43.5384 551.195 Q50.8908 551.195 58.1159 549.126 Q65.3091 547.025 72.5979 542.792 L72.5979 547.884 Q65.1182 552.659 57.8931 555.046 Q50.668 557.401 43.5384 557.401 Q36.4406 557.401 29.2474 555.046 Q22.0542 552.691 14.5426 547.884 L14.5426 542.792 Z" fill="#000000" fill-rule="nonzero" fill-opacity="1" /><path clip-path="url(#clip910)" d="M28.3562 531.429 L28.3562 525.573 L64.6407 525.573 Q71.452 525.573 74.5076 528.183 Q77.5631 530.761 77.5631 536.522 L77.5631 538.75 L72.5979 538.75 L72.5979 537.19 Q72.5979 533.848 71.0383 532.639 Q69.5105 531.429 64.6407 531.429 L28.3562 531.429 M14.479 531.429 L14.479 525.573 L21.895 525.573 L21.895 531.429 L14.479 531.429 Z" fill="#000000" fill-rule="nonzero" fill-opacity="1" /><path clip-path="url(#clip910)" d="M49.9359 513.923 L28.3562 513.923 L28.3562 508.067 L49.7131 508.067 Q54.7739 508.067 57.3202 506.094 Q59.8346 504.12 59.8346 500.174 Q59.8346 495.431 56.8109 492.694 Q53.7872 489.925 48.5673 489.925 L28.3562 489.925 L28.3562 484.068 L64.0042 484.068 L64.0042 489.925 L58.5296 489.925 Q61.7762 492.057 63.3676 494.89 Q64.9272 497.691 64.9272 501.415 Q64.9272 507.558 61.1078 510.741 Q57.2883 513.923 49.9359 513.923 M27.4968 499.187 L27.4968 499.187 Z" fill="#000000" fill-rule="nonzero" fill-opacity="1" /><path clip-path="url(#clip910)" d="M18.2347 466.212 L28.3562 466.212 L28.3562 454.149 L32.9077 454.149 L32.9077 466.212 L52.2594 466.212 Q56.6199 466.212 57.8613 465.035 Q59.1026 463.825 59.1026 460.165 L59.1026 454.149 L64.0042 454.149 L64.0042 460.165 Q64.0042 466.945 61.4897 469.523 Q58.9434 472.101 52.2594 472.101 L32.9077 472.101 L32.9077 476.398 L28.3562 476.398 L28.3562 472.101 L18.2347 472.101 L18.2347 466.212 Z" fill="#000000" fill-rule="nonzero" fill-opacity="1" /><path clip-path="url(#clip910)" d="M46.0847 430.246 Q46.0847 437.344 47.7079 440.081 Q49.3312 442.818 53.2461 442.818 Q56.3653 442.818 58.2114 440.781 Q60.0256 438.713 60.0256 435.18 Q60.0256 430.31 56.5881 427.382 Q53.1188 424.422 47.3897 424.422 L46.0847 424.422 L46.0847 430.246 M43.6657 418.565 L64.0042 418.565 L64.0042 424.422 L58.5933 424.422 Q61.8398 426.427 63.3994 429.419 Q64.9272 432.411 64.9272 436.739 Q64.9272 442.214 61.8716 445.46 Q58.7843 448.675 53.6281 448.675 Q47.6125 448.675 44.5569 444.665 Q41.5014 440.622 41.5014 432.633 L41.5014 424.422 L40.9285 424.422 Q36.8862 424.422 34.6901 427.095 Q32.4621 429.737 32.4621 434.543 Q32.4621 437.599 33.1941 440.495 Q33.9262 443.391 35.3903 446.065 L29.9795 446.065 Q28.7381 442.85 28.1334 439.827 Q27.4968 436.803 27.4968 433.938 Q27.4968 426.204 31.5072 422.385 Q35.5176 418.565 43.6657 418.565 Z" fill="#000000" fill-rule="nonzero" fill-opacity="1" /><path clip-path="url(#clip910)" d="M14.5426 407.425 L14.5426 402.333 Q22.0542 397.558 29.2474 395.203 Q36.4406 392.816 43.5384 392.816 Q50.668 392.816 57.8931 395.203 Q65.1182 397.558 72.5979 402.333 L72.5979 407.425 Q65.3091 403.192 58.1159 401.123 Q50.8908 399.022 43.5384 399.022 Q36.186 399.022 29.0246 401.123 Q21.8632 403.192 14.5426 407.425 Z" fill="#000000" fill-rule="nonzero" fill-opacity="1" /><path clip-path="url(#clip910)" d="M652.426 18.8205 L652.426 41.5461 L662.715 41.5461 Q668.427 41.5461 671.546 38.5889 Q674.665 35.6318 674.665 30.163 Q674.665 24.7348 671.546 21.7777 Q668.427 18.8205 662.715 18.8205 L652.426 18.8205 M644.243 12.096 L662.715 12.096 Q672.883 12.096 678.068 16.714 Q683.293 21.2916 683.293 30.163 Q683.293 39.1155 678.068 43.6931 Q672.883 48.2706 662.715 48.2706 L652.426 48.2706 L652.426 72.576 L644.243 72.576 L644.243 12.096 Z" fill="#000000" fill-rule="nonzero" fill-opacity="1" /><path clip-path="url(#clip910)" d="M708.571 32.4315 Q702.576 32.4315 699.092 37.1306 Q695.608 41.7891 695.608 49.9314 Q695.608 58.0738 699.052 62.7728 Q702.535 67.4314 708.571 67.4314 Q714.526 67.4314 718.01 62.7323 Q721.494 58.0333 721.494 49.9314 Q721.494 41.8701 718.01 37.1711 Q714.526 32.4315 708.571 32.4315 M708.571 26.1121 Q718.293 26.1121 723.843 32.4315 Q729.393 38.7509 729.393 49.9314 Q729.393 61.0714 723.843 67.4314 Q718.293 73.7508 708.571 73.7508 Q698.808 73.7508 693.259 67.4314 Q687.749 61.0714 687.749 49.9314 Q687.749 38.7509 693.259 32.4315 Q698.808 26.1121 708.571 26.1121 Z" fill="#000000" fill-rule="nonzero" fill-opacity="1" /><path clip-path="url(#clip910)" d="M748.959 65.7705 L748.959 89.8329 L741.464 89.8329 L741.464 27.2059 L748.959 27.2059 L748.959 34.0924 Q751.308 30.0415 754.873 28.0971 Q758.478 26.1121 763.461 26.1121 Q771.725 26.1121 776.869 32.6746 Q782.055 39.2371 782.055 49.9314 Q782.055 60.6258 776.869 67.1883 Q771.725 73.7508 763.461 73.7508 Q758.478 73.7508 754.873 71.8063 Q751.308 69.8214 748.959 65.7705 M774.317 49.9314 Q774.317 41.7081 770.915 37.0496 Q767.552 32.3505 761.638 32.3505 Q755.724 32.3505 752.321 37.0496 Q748.959 41.7081 748.959 49.9314 Q748.959 58.1548 752.321 62.8538 Q755.724 67.5124 761.638 67.5124 Q767.552 67.5124 770.915 62.8538 Q774.317 58.1548 774.317 49.9314 Z" fill="#000000" fill-rule="nonzero" fill-opacity="1" /><path clip-path="url(#clip910)" d="M793.64 54.671 L793.64 27.2059 L801.094 27.2059 L801.094 54.3874 Q801.094 60.8284 803.605 64.0691 Q806.117 67.2693 811.14 67.2693 Q817.176 67.2693 820.66 63.421 Q824.184 59.5726 824.184 52.9291 L824.184 27.2059 L831.638 27.2059 L831.638 72.576 L824.184 72.576 L824.184 65.6084 Q821.47 69.7404 817.865 71.7658 Q814.3 73.7508 809.56 73.7508 Q801.742 73.7508 797.691 68.8897 Q793.64 64.0286 793.64 54.671 M812.396 26.1121 L812.396 26.1121 Z" fill="#000000" fill-rule="nonzero" fill-opacity="1" /><path clip-path="url(#clip910)" d="M846.991 9.54393 L854.444 9.54393 L854.444 72.576 L846.991 72.576 L846.991 9.54393 Z" fill="#000000" fill-rule="nonzero" fill-opacity="1" /><path clip-path="url(#clip910)" d="M890.659 49.7694 Q881.626 49.7694 878.142 51.8354 Q874.658 53.9013 874.658 58.8839 Q874.658 62.8538 877.251 65.2034 Q879.884 67.5124 884.38 67.5124 Q890.578 67.5124 894.305 63.1374 Q898.072 58.7219 898.072 51.4303 L898.072 49.7694 L890.659 49.7694 M905.526 46.6907 L905.526 72.576 L898.072 72.576 L898.072 65.6895 Q895.52 69.8214 891.713 71.8063 Q887.905 73.7508 882.395 73.7508 Q875.428 73.7508 871.296 69.8619 Q867.205 65.9325 867.205 59.3701 Q867.205 51.7138 872.309 47.825 Q877.453 43.9361 887.621 43.9361 L898.072 43.9361 L898.072 43.2069 Q898.072 38.0623 894.67 35.2672 Q891.307 32.4315 885.191 32.4315 Q881.302 32.4315 877.615 33.3632 Q873.929 34.295 870.526 36.1584 L870.526 29.2718 Q874.618 27.692 878.466 26.9223 Q882.314 26.1121 885.96 26.1121 Q895.804 26.1121 900.665 31.2163 Q905.526 36.3204 905.526 46.6907 Z" fill="#000000" fill-rule="nonzero" fill-opacity="1" /><path clip-path="url(#clip910)" d="M949.802 28.5427 L949.802 35.5912 Q946.643 33.9709 943.24 33.1607 Q939.837 32.3505 936.191 32.3505 Q930.642 32.3505 927.847 34.0519 Q925.092 35.7533 925.092 39.156 Q925.092 41.7486 927.077 43.2475 Q929.062 44.7058 935.057 46.0426 L937.609 46.6097 Q945.549 48.3111 948.871 51.4303 Q952.233 54.509 952.233 60.0587 Q952.233 66.3781 947.21 70.0644 Q942.227 73.7508 933.477 73.7508 Q929.832 73.7508 925.862 73.0216 Q921.932 72.3329 917.557 70.9151 L917.557 63.2184 Q921.689 65.3654 925.7 66.4591 Q929.71 67.5124 933.639 67.5124 Q938.906 67.5124 941.741 65.73 Q944.577 63.9071 944.577 60.6258 Q944.577 57.5877 942.511 55.9673 Q940.485 54.3469 933.558 52.8481 L930.966 52.2405 Q924.039 50.7821 920.96 47.7845 Q917.881 44.7463 917.881 39.4801 Q917.881 33.0797 922.418 29.5959 Q926.955 26.1121 935.3 26.1121 Q939.432 26.1121 943.078 26.7198 Q946.724 27.3274 949.802 28.5427 Z" fill="#000000" fill-rule="nonzero" fill-opacity="1" /><path clip-path="url(#clip910)" d="M964.102 27.2059 L971.556 27.2059 L971.556 72.576 L964.102 72.576 L964.102 27.2059 M964.102 9.54393 L971.556 9.54393 L971.556 18.9825 L964.102 18.9825 L964.102 9.54393 Z" fill="#000000" fill-rule="nonzero" fill-opacity="1" /><path clip-path="url(#clip910)" d="M1020.73 65.7705 L1020.73 89.8329 L1013.24 89.8329 L1013.24 27.2059 L1020.73 27.2059 L1020.73 34.0924 Q1023.08 30.0415 1026.65 28.0971 Q1030.25 26.1121 1035.24 26.1121 Q1043.5 26.1121 1048.64 32.6746 Q1053.83 39.2371 1053.83 49.9314 Q1053.83 60.6258 1048.64 67.1883 Q1043.5 73.7508 1035.24 73.7508 Q1030.25 73.7508 1026.65 71.8063 Q1023.08 69.8214 1020.73 65.7705 M1046.09 49.9314 Q1046.09 41.7081 1042.69 37.0496 Q1039.33 32.3505 1033.41 32.3505 Q1027.5 32.3505 1024.1 37.0496 Q1020.73 41.7081 1020.73 49.9314 Q1020.73 58.1548 1024.1 62.8538 Q1027.5 67.5124 1033.41 67.5124 Q1039.33 67.5124 1042.69 62.8538 Q1046.09 58.1548 1046.09 49.9314 Z" fill="#000000" fill-rule="nonzero" fill-opacity="1" /><path clip-path="url(#clip910)" d="M1104.99 48.0275 L1104.99 51.6733 L1070.72 51.6733 Q1071.21 59.3701 1075.34 63.421 Q1079.51 67.4314 1086.93 67.4314 Q1091.22 67.4314 1095.23 66.3781 Q1099.28 65.3249 1103.25 63.2184 L1103.25 70.267 Q1099.24 71.9684 1095.03 72.8596 Q1090.81 73.7508 1086.48 73.7508 Q1075.62 73.7508 1069.26 67.4314 Q1062.94 61.1119 1062.94 50.3365 Q1062.94 39.1965 1068.94 32.6746 Q1074.98 26.1121 1085.18 26.1121 Q1094.34 26.1121 1099.65 32.0264 Q1104.99 37.9003 1104.99 48.0275 M1097.54 45.84 Q1097.46 39.7232 1094.1 36.0774 Q1090.77 32.4315 1085.26 32.4315 Q1079.03 32.4315 1075.26 35.9558 Q1071.53 39.4801 1070.97 45.8805 L1097.54 45.84 Z" fill="#000000" fill-rule="nonzero" fill-opacity="1" /><path clip-path="url(#clip910)" d="M1154.94 45.1919 L1154.94 72.576 L1147.49 72.576 L1147.49 45.4349 Q1147.49 38.994 1144.98 35.7938 Q1142.46 32.5936 1137.44 32.5936 Q1131.4 32.5936 1127.92 36.4419 Q1124.44 40.2903 1124.44 46.9338 L1124.44 72.576 L1116.94 72.576 L1116.94 27.2059 L1124.44 27.2059 L1124.44 34.2544 Q1127.11 30.163 1130.72 28.1376 Q1134.36 26.1121 1139.1 26.1121 Q1146.92 26.1121 1150.93 30.9732 Q1154.94 35.7938 1154.94 45.1919 Z" fill="#000000" fill-rule="nonzero" fill-opacity="1" /><path clip-path="url(#clip910)" d="M1199.66 34.0924 L1199.66 9.54393 L1207.12 9.54393 L1207.12 72.576 L1199.66 72.576 L1199.66 65.7705 Q1197.31 69.8214 1193.71 71.8063 Q1190.14 73.7508 1185.12 73.7508 Q1176.9 73.7508 1171.71 67.1883 Q1166.57 60.6258 1166.57 49.9314 Q1166.57 39.2371 1171.71 32.6746 Q1176.9 26.1121 1185.12 26.1121 Q1190.14 26.1121 1193.71 28.0971 Q1197.31 30.0415 1199.66 34.0924 M1174.26 49.9314 Q1174.26 58.1548 1177.63 62.8538 Q1181.03 67.5124 1186.94 67.5124 Q1192.86 67.5124 1196.26 62.8538 Q1199.66 58.1548 1199.66 49.9314 Q1199.66 41.7081 1196.26 37.0496 Q1192.86 32.3505 1186.94 32.3505 Q1181.03 32.3505 1177.63 37.0496 Q1174.26 41.7081 1174.26 49.9314 Z" fill="#000000" fill-rule="nonzero" fill-opacity="1" /><path clip-path="url(#clip910)" d="M1221.7 54.671 L1221.7 27.2059 L1229.15 27.2059 L1229.15 54.3874 Q1229.15 60.8284 1231.66 64.0691 Q1234.18 67.2693 1239.2 67.2693 Q1245.23 67.2693 1248.72 63.421 Q1252.24 59.5726 1252.24 52.9291 L1252.24 27.2059 L1259.7 27.2059 L1259.7 72.576 L1252.24 72.576 L1252.24 65.6084 Q1249.53 69.7404 1245.92 71.7658 Q1242.36 73.7508 1237.62 73.7508 Q1229.8 73.7508 1225.75 68.8897 Q1221.7 64.0286 1221.7 54.671 M1240.45 26.1121 L1240.45 26.1121 Z" fill="#000000" fill-rule="nonzero" fill-opacity="1" /><path clip-path="url(#clip910)" d="M1304.9 34.0924 L1304.9 9.54393 L1312.36 9.54393 L1312.36 72.576 L1304.9 72.576 L1304.9 65.7705 Q1302.56 69.8214 1298.95 71.8063 Q1295.39 73.7508 1290.36 73.7508 Q1282.14 73.7508 1276.95 67.1883 Q1271.81 60.6258 1271.81 49.9314 Q1271.81 39.2371 1276.95 32.6746 Q1282.14 26.1121 1290.36 26.1121 Q1295.39 26.1121 1298.95 28.0971 Q1302.56 30.0415 1304.9 34.0924 M1279.51 49.9314 Q1279.51 58.1548 1282.87 62.8538 Q1286.27 67.5124 1292.18 67.5124 Q1298.1 67.5124 1301.5 62.8538 Q1304.9 58.1548 1304.9 49.9314 Q1304.9 41.7081 1301.5 37.0496 Q1298.1 32.3505 1292.18 32.3505 Q1286.27 32.3505 1282.87 37.0496 Q1279.51 41.7081 1279.51 49.9314 Z" fill="#000000" fill-rule="nonzero" fill-opacity="1" /><path clip-path="url(#clip910)" d="M1326.94 54.671 L1326.94 27.2059 L1334.4 27.2059 L1334.4 54.3874 Q1334.4 60.8284 1336.91 64.0691 Q1339.42 67.2693 1344.44 67.2693 Q1350.48 67.2693 1353.96 63.421 Q1357.49 59.5726 1357.49 52.9291 L1357.49 27.2059 L1364.94 27.2059 L1364.94 72.576 L1357.49 72.576 L1357.49 65.6084 Q1354.77 69.7404 1351.17 71.7658 Q1347.6 73.7508 1342.86 73.7508 Q1335.04 73.7508 1330.99 68.8897 Q1326.94 64.0286 1326.94 54.671 M1345.7 26.1121 L1345.7 26.1121 Z" fill="#000000" fill-rule="nonzero" fill-opacity="1" /><path clip-path="url(#clip910)" d="M1380.01 9.54393 L1387.5 9.54393 L1387.5 46.7717 L1409.74 27.2059 L1419.26 27.2059 L1395.2 48.4326 L1420.27 72.576 L1410.55 72.576 L1387.5 50.4176 L1387.5 72.576 L1380.01 72.576 L1380.01 9.54393 Z" fill="#000000" fill-rule="nonzero" fill-opacity="1" /><path clip-path="url(#clip910)" d="M1484.56 34.0924 L1484.56 9.54393 L1492.02 9.54393 L1492.02 72.576 L1484.56 72.576 L1484.56 65.7705 Q1482.21 69.8214 1478.61 71.8063 Q1475.04 73.7508 1470.02 73.7508 Q1461.8 73.7508 1456.61 67.1883 Q1451.47 60.6258 1451.47 49.9314 Q1451.47 39.2371 1456.61 32.6746 Q1461.8 26.1121 1470.02 26.1121 Q1475.04 26.1121 1478.61 28.0971 Q1482.21 30.0415 1484.56 34.0924 M1459.16 49.9314 Q1459.16 58.1548 1462.53 62.8538 Q1465.93 67.5124 1471.84 67.5124 Q1477.76 67.5124 1481.16 62.8538 Q1484.56 58.1548 1484.56 49.9314 Q1484.56 41.7081 1481.16 37.0496 Q1477.76 32.3505 1471.84 32.3505 Q1465.93 32.3505 1462.53 37.0496 Q1459.16 41.7081 1459.16 49.9314 Z" fill="#000000" fill-rule="nonzero" fill-opacity="1" /><path clip-path="url(#clip910)" d="M1507.37 27.2059 L1514.82 27.2059 L1514.82 72.576 L1507.37 72.576 L1507.37 27.2059 M1507.37 9.54393 L1514.82 9.54393 L1514.82 18.9825 L1507.37 18.9825 L1507.37 9.54393 Z" fill="#000000" fill-rule="nonzero" fill-opacity="1" /><path clip-path="url(#clip910)" d="M1557.11 12.096 L1565.3 12.096 L1565.3 72.576 L1557.11 72.576 L1557.11 12.096 Z" fill="#000000" fill-rule="nonzero" fill-opacity="1" /><path clip-path="url(#clip910)" d="M1618.97 45.1919 L1618.97 72.576 L1611.52 72.576 L1611.52 45.4349 Q1611.52 38.994 1609.01 35.7938 Q1606.49 32.5936 1601.47 32.5936 Q1595.44 32.5936 1591.95 36.4419 Q1588.47 40.2903 1588.47 46.9338 L1588.47 72.576 L1580.97 72.576 L1580.97 27.2059 L1588.47 27.2059 L1588.47 34.2544 Q1591.14 30.163 1594.75 28.1376 Q1598.39 26.1121 1603.13 26.1121 Q1610.95 26.1121 1614.96 30.9732 Q1618.97 35.7938 1618.97 45.1919 Z" fill="#000000" fill-rule="nonzero" fill-opacity="1" /><path clip-path="url(#clip910)" d="M1663.69 34.0924 L1663.69 9.54393 L1671.15 9.54393 L1671.15 72.576 L1663.69 72.576 L1663.69 65.7705 Q1661.34 69.8214 1657.74 71.8063 Q1654.17 73.7508 1649.15 73.7508 Q1640.93 73.7508 1635.74 67.1883 Q1630.6 60.6258 1630.6 49.9314 Q1630.6 39.2371 1635.74 32.6746 Q1640.93 26.1121 1649.15 26.1121 Q1654.17 26.1121 1657.74 28.0971 Q1661.34 30.0415 1663.69 34.0924 M1638.29 49.9314 Q1638.29 58.1548 1641.66 62.8538 Q1645.06 67.5124 1650.97 67.5124 Q1656.89 67.5124 1660.29 62.8538 Q1663.69 58.1548 1663.69 49.9314 Q1663.69 41.7081 1660.29 37.0496 Q1656.89 32.3505 1650.97 32.3505 Q1645.06 32.3505 1641.66 37.0496 Q1638.29 41.7081 1638.29 49.9314 Z" fill="#000000" fill-rule="nonzero" fill-opacity="1" /><path clip-path="url(#clip910)" d="M1704.08 32.4315 Q1698.09 32.4315 1694.6 37.1306 Q1691.12 41.7891 1691.12 49.9314 Q1691.12 58.0738 1694.56 62.7728 Q1698.04 67.4314 1704.08 67.4314 Q1710.04 67.4314 1713.52 62.7323 Q1717 58.0333 1717 49.9314 Q1717 41.8701 1713.52 37.1711 Q1710.04 32.4315 1704.08 32.4315 M1704.08 26.1121 Q1713.8 26.1121 1719.35 32.4315 Q1724.9 38.7509 1724.9 49.9314 Q1724.9 61.0714 1719.35 67.4314 Q1713.8 73.7508 1704.08 73.7508 Q1694.32 73.7508 1688.77 67.4314 Q1683.26 61.0714 1683.26 49.9314 Q1683.26 38.7509 1688.77 32.4315 Q1694.32 26.1121 1704.08 26.1121 Z" fill="#000000" fill-rule="nonzero" fill-opacity="1" /><path clip-path="url(#clip910)" d="M1774.97 45.1919 L1774.97 72.576 L1767.52 72.576 L1767.52 45.4349 Q1767.52 38.994 1765.01 35.7938 Q1762.49 32.5936 1757.47 32.5936 Q1751.44 32.5936 1747.95 36.4419 Q1744.47 40.2903 1744.47 46.9338 L1744.47 72.576 L1736.97 72.576 L1736.97 27.2059 L1744.47 27.2059 L1744.47 34.2544 Q1747.14 30.163 1750.75 28.1376 Q1754.39 26.1121 1759.13 26.1121 Q1766.95 26.1121 1770.96 30.9732 Q1774.97 35.7938 1774.97 45.1919 Z" fill="#000000" fill-rule="nonzero" fill-opacity="1" /><path clip-path="url(#clip910)" d="M1828.65 48.0275 L1828.65 51.6733 L1794.38 51.6733 Q1794.86 59.3701 1798.99 63.421 Q1803.17 67.4314 1810.58 67.4314 Q1814.87 67.4314 1818.88 66.3781 Q1822.93 65.3249 1826.9 63.2184 L1826.9 70.267 Q1822.89 71.9684 1818.68 72.8596 Q1814.47 73.7508 1810.13 73.7508 Q1799.28 73.7508 1792.92 67.4314 Q1786.6 61.1119 1786.6 50.3365 Q1786.6 39.1965 1792.59 32.6746 Q1798.63 26.1121 1808.84 26.1121 Q1817.99 26.1121 1823.3 32.0264 Q1828.65 37.9003 1828.65 48.0275 M1821.19 45.84 Q1821.11 39.7232 1817.75 36.0774 Q1814.43 32.4315 1808.92 32.4315 Q1802.68 32.4315 1798.91 35.9558 Q1795.19 39.4801 1794.62 45.8805 L1821.19 45.84 Z" fill="#000000" fill-rule="nonzero" fill-opacity="1" /><path clip-path="url(#clip910)" d="M1869.8 28.5427 L1869.8 35.5912 Q1866.64 33.9709 1863.24 33.1607 Q1859.84 32.3505 1856.19 32.3505 Q1850.64 32.3505 1847.85 34.0519 Q1845.09 35.7533 1845.09 39.156 Q1845.09 41.7486 1847.08 43.2475 Q1849.06 44.7058 1855.06 46.0426 L1857.61 46.6097 Q1865.55 48.3111 1868.87 51.4303 Q1872.23 54.509 1872.23 60.0587 Q1872.23 66.3781 1867.21 70.0644 Q1862.23 73.7508 1853.48 73.7508 Q1849.83 73.7508 1845.86 73.0216 Q1841.93 72.3329 1837.56 70.9151 L1837.56 63.2184 Q1841.69 65.3654 1845.7 66.4591 Q1849.71 67.5124 1853.64 67.5124 Q1858.91 67.5124 1861.74 65.73 Q1864.58 63.9071 1864.58 60.6258 Q1864.58 57.5877 1862.51 55.9673 Q1860.49 54.3469 1853.56 52.8481 L1850.97 52.2405 Q1844.04 50.7821 1840.96 47.7845 Q1837.88 44.7463 1837.88 39.4801 Q1837.88 33.0797 1842.42 29.5959 Q1846.96 26.1121 1855.3 26.1121 Q1859.43 26.1121 1863.08 26.7198 Q1866.72 27.3274 1869.8 28.5427 Z" fill="#000000" fill-rule="nonzero" fill-opacity="1" /><path clip-path="url(#clip910)" d="M1884.1 27.2059 L1891.56 27.2059 L1891.56 72.576 L1884.1 72.576 L1884.1 27.2059 M1884.1 9.54393 L1891.56 9.54393 L1891.56 18.9825 L1884.1 18.9825 L1884.1 9.54393 Z" fill="#000000" fill-rule="nonzero" fill-opacity="1" /><path clip-path="url(#clip910)" d="M1927.77 49.7694 Q1918.74 49.7694 1915.25 51.8354 Q1911.77 53.9013 1911.77 58.8839 Q1911.77 62.8538 1914.36 65.2034 Q1917 67.5124 1921.49 67.5124 Q1927.69 67.5124 1931.42 63.1374 Q1935.18 58.7219 1935.18 51.4303 L1935.18 49.7694 L1927.77 49.7694 M1942.64 46.6907 L1942.64 72.576 L1935.18 72.576 L1935.18 65.6895 Q1932.63 69.8214 1928.83 71.8063 Q1925.02 73.7508 1919.51 73.7508 Q1912.54 73.7508 1908.41 69.8619 Q1904.32 65.9325 1904.32 59.3701 Q1904.32 51.7138 1909.42 47.825 Q1914.57 43.9361 1924.73 43.9361 L1935.18 43.9361 L1935.18 43.2069 Q1935.18 38.0623 1931.78 35.2672 Q1928.42 32.4315 1922.3 32.4315 Q1918.41 32.4315 1914.73 33.3632 Q1911.04 34.295 1907.64 36.1584 L1907.64 29.2718 Q1911.73 27.692 1915.58 26.9223 Q1919.43 26.1121 1923.07 26.1121 Q1932.92 26.1121 1937.78 31.2163 Q1942.64 36.3204 1942.64 46.6907 Z" fill="#000000" fill-rule="nonzero" fill-opacity="1" /><circle clip-path="url(#clip912)" cx="294.087" cy="1386.4" r="14.4" fill="#009af9" fill-rule="evenodd" fill-opacity="1" stroke="#000000" stroke-opacity="1" stroke-width="3.2"/>
<circle clip-path="url(#clip912)" cx="1436.21" cy="496.674" r="14.4" fill="#009af9" fill-rule="evenodd" fill-opacity="1" stroke="#000000" stroke-opacity="1" stroke-width="3.2"/>
<circle clip-path="url(#clip912)" cx="2007.26" cy="271.163" r="14.4" fill="#009af9" fill-rule="evenodd" fill-opacity="1" stroke="#000000" stroke-opacity="1" stroke-width="3.2"/>
<circle clip-path="url(#clip912)" cx="2292.79" cy="160.256" r="14.4" fill="#009af9" fill-rule="evenodd" fill-opacity="1" stroke="#000000" stroke-opacity="1" stroke-width="3.2"/>
<polyline clip-path="url(#clip912)" style="stroke:#e26f46; stroke-linecap:round; stroke-linejoin:round; stroke-width:4; stroke-opacity:1; fill:none" points="294.087,1386.4 314.276,1361.43 334.465,1336.9 354.654,1312.79 374.843,1289.1 395.032,1265.83 415.221,1242.96 435.409,1220.49 455.598,1198.43 475.787,1176.75 495.976,1155.47 516.165,1134.56 536.354,1114.03 556.543,1093.87 576.732,1074.08 596.921,1054.64 617.11,1035.56 637.299,1016.84 657.488,998.451 677.677,980.404 697.866,962.691 718.055,945.306 738.244,928.244 758.433,911.499 778.622,895.066 798.811,878.94 819,863.115 839.189,847.586 859.378,832.347 879.567,817.394 899.756,802.721 919.945,788.322 940.134,774.192 960.323,760.326 980.512,746.719 1000.7,733.364 1020.89,720.258 1041.08,707.393 1061.27,694.766 1081.46,682.371 1101.65,670.202 1121.83,658.254 1142.02,646.521 1162.21,634.999 1182.4,623.682 1202.59,612.564 1222.78,601.641 1242.97,590.907 1263.16,580.356 1283.35,569.983 1303.54,559.783 1323.72,549.751 1343.91,539.88 1364.1,530.167 1384.29,520.605 1404.48,511.189 1424.67,501.913 1444.86,492.774 1465.05,483.764 1485.24,474.878 1505.42,466.113 1525.61,457.461 1545.8,448.917 1565.99,440.477 1586.18,432.135 1606.37,423.885 1626.56,415.723 1646.75,407.642 1666.94,399.638 1687.13,391.705 1707.31,383.838 1727.5,376.032 1747.69,368.28 1767.88,360.578 1788.07,352.921 1808.26,345.302 1828.45,337.718 1848.64,330.161 1868.83,322.628 1889.02,315.112 1909.2,307.608 1929.39,300.112 1949.58,292.617 1969.77,285.118 1989.96,277.61 2010.15,270.088 2030.34,262.545 2050.53,254.978 2070.72,247.38 2090.9,239.746 2111.09,232.071 2131.28,224.349 2151.47,216.576 2171.66,208.745 2191.85,200.851 2212.04,192.89 2232.23,184.855 2252.42,176.741 2272.61,168.543 2292.79,160.256 "/>
<path clip-path="url(#clip910)" d="M304.746 322.316 L771.423 322.316 L771.423 166.796 L304.746 166.796  Z" fill="#ffffff" fill-rule="evenodd" fill-opacity="1"/>
<polyline clip-path="url(#clip910)" style="stroke:#000000; stroke-linecap:round; stroke-linejoin:round; stroke-width:4; stroke-opacity:1; fill:none" points="304.746,322.316 771.423,322.316 771.423,166.796 304.746,166.796 304.746,322.316 "/>
<circle clip-path="url(#clip910)" cx="398.908" cy="218.636" r="20.48" fill="#009af9" fill-rule="evenodd" fill-opacity="1" stroke="#000000" stroke-opacity="1" stroke-width="4.55111"/>
<path clip-path="url(#clip910)" d="M506.472 222.883 Q501.31 222.883 499.319 224.064 Q497.328 225.244 497.328 228.092 Q497.328 230.36 498.81 231.703 Q500.315 233.022 502.884 233.022 Q506.426 233.022 508.555 230.522 Q510.708 227.999 510.708 223.832 L510.708 222.883 L506.472 222.883 M514.967 221.124 L514.967 235.916 L510.708 235.916 L510.708 231.981 Q509.25 234.342 507.074 235.476 Q504.898 236.587 501.75 236.587 Q497.768 236.587 495.407 234.365 Q493.069 232.119 493.069 228.369 Q493.069 223.994 495.986 221.772 Q498.926 219.55 504.736 219.55 L510.708 219.55 L510.708 219.133 Q510.708 216.194 508.764 214.596 Q506.842 212.976 503.347 212.976 Q501.125 212.976 499.018 213.508 Q496.912 214.041 494.967 215.106 L494.967 211.17 Q497.305 210.268 499.504 209.828 Q501.703 209.365 503.787 209.365 Q509.412 209.365 512.189 212.282 Q514.967 215.198 514.967 221.124 Z" fill="#000000" fill-rule="nonzero" fill-opacity="1" /><path clip-path="url(#clip910)" d="M523.578 199.897 L527.861 199.897 L527.861 221.17 L540.569 209.99 L546.009 209.99 L532.259 222.119 L546.587 235.916 L541.032 235.916 L527.861 223.254 L527.861 235.916 L523.578 235.916 L523.578 199.897 Z" fill="#000000" fill-rule="nonzero" fill-opacity="1" /><path clip-path="url(#clip910)" d="M555.407 202.629 L555.407 209.99 L564.18 209.99 L564.18 213.3 L555.407 213.3 L555.407 227.374 Q555.407 230.545 556.263 231.448 Q557.143 232.351 559.805 232.351 L564.18 232.351 L564.18 235.916 L559.805 235.916 Q554.874 235.916 552.999 234.087 Q551.124 232.235 551.124 227.374 L551.124 213.3 L547.999 213.3 L547.999 209.99 L551.124 209.99 L551.124 202.629 L555.407 202.629 Z" fill="#000000" fill-rule="nonzero" fill-opacity="1" /><path clip-path="url(#clip910)" d="M569.342 225.684 L569.342 209.99 L573.601 209.99 L573.601 225.522 Q573.601 229.203 575.036 231.055 Q576.472 232.883 579.342 232.883 Q582.791 232.883 584.782 230.684 Q586.796 228.485 586.796 224.689 L586.796 209.99 L591.055 209.99 L591.055 235.916 L586.796 235.916 L586.796 231.934 Q585.245 234.295 583.184 235.453 Q581.147 236.587 578.439 236.587 Q573.972 236.587 571.657 233.809 Q569.342 231.031 569.342 225.684 M580.059 209.365 L580.059 209.365 Z" fill="#000000" fill-rule="nonzero" fill-opacity="1" /><path clip-path="url(#clip910)" d="M611.61 222.883 Q606.448 222.883 604.457 224.064 Q602.467 225.244 602.467 228.092 Q602.467 230.36 603.948 231.703 Q605.453 233.022 608.022 233.022 Q611.564 233.022 613.694 230.522 Q615.846 227.999 615.846 223.832 L615.846 222.883 L611.61 222.883 M620.106 221.124 L620.106 235.916 L615.846 235.916 L615.846 231.981 Q614.388 234.342 612.212 235.476 Q610.036 236.587 606.888 236.587 Q602.907 236.587 600.545 234.365 Q598.207 232.119 598.207 228.369 Q598.207 223.994 601.124 221.772 Q604.064 219.55 609.874 219.55 L615.846 219.55 L615.846 219.133 Q615.846 216.194 613.902 214.596 Q611.981 212.976 608.485 212.976 Q606.263 212.976 604.157 213.508 Q602.05 214.041 600.106 215.106 L600.106 211.17 Q602.444 210.268 604.643 209.828 Q606.842 209.365 608.925 209.365 Q614.55 209.365 617.328 212.282 Q620.106 215.198 620.106 221.124 Z" fill="#000000" fill-rule="nonzero" fill-opacity="1" /><path clip-path="url(#clip910)" d="M628.879 199.897 L633.138 199.897 L633.138 235.916 L628.879 235.916 L628.879 199.897 Z" fill="#000000" fill-rule="nonzero" fill-opacity="1" /><polyline clip-path="url(#clip910)" style="stroke:#e26f46; stroke-linecap:round; stroke-linejoin:round; stroke-width:4; stroke-opacity:1; fill:none" points="328.287,270.476 469.529,270.476 "/>
<path clip-path="url(#clip910)" d="M493.069 261.83 L497.328 261.83 L497.328 287.756 L493.069 287.756 L493.069 261.83 M493.069 251.737 L497.328 251.737 L497.328 257.131 L493.069 257.131 L493.069 251.737 Z" fill="#000000" fill-rule="nonzero" fill-opacity="1" /><path clip-path="url(#clip910)" d="M527.791 272.108 L527.791 287.756 L523.532 287.756 L523.532 272.247 Q523.532 268.566 522.097 266.737 Q520.662 264.909 517.791 264.909 Q514.342 264.909 512.351 267.108 Q510.361 269.307 510.361 273.103 L510.361 287.756 L506.078 287.756 L506.078 261.83 L510.361 261.83 L510.361 265.858 Q511.889 263.52 513.949 262.362 Q516.032 261.205 518.74 261.205 Q523.208 261.205 525.5 263.983 Q527.791 266.737 527.791 272.108 Z" fill="#000000" fill-rule="nonzero" fill-opacity="1" /><path clip-path="url(#clip910)" d="M540.499 254.469 L540.499 261.83 L549.273 261.83 L549.273 265.14 L540.499 265.14 L540.499 279.214 Q540.499 282.385 541.356 283.288 Q542.236 284.191 544.898 284.191 L549.273 284.191 L549.273 287.756 L544.898 287.756 Q539.967 287.756 538.092 285.927 Q536.217 284.075 536.217 279.214 L536.217 265.14 L533.092 265.14 L533.092 261.83 L536.217 261.83 L536.217 254.469 L540.499 254.469 Z" fill="#000000" fill-rule="nonzero" fill-opacity="1" /><path clip-path="url(#clip910)" d="M577.05 273.728 L577.05 275.811 L557.467 275.811 Q557.745 280.209 560.106 282.524 Q562.49 284.816 566.726 284.816 Q569.18 284.816 571.472 284.214 Q573.786 283.612 576.055 282.409 L576.055 286.436 Q573.763 287.408 571.356 287.918 Q568.948 288.427 566.472 288.427 Q560.268 288.427 556.634 284.816 Q553.023 281.205 553.023 275.047 Q553.023 268.682 556.448 264.955 Q559.898 261.205 565.731 261.205 Q570.962 261.205 573.995 264.585 Q577.05 267.941 577.05 273.728 M572.791 272.478 Q572.745 268.983 570.823 266.899 Q568.925 264.816 565.777 264.816 Q562.212 264.816 560.06 266.83 Q557.93 268.844 557.606 272.501 L572.791 272.478 Z" fill="#000000" fill-rule="nonzero" fill-opacity="1" /><path clip-path="url(#clip910)" d="M599.064 265.811 Q598.346 265.395 597.49 265.21 Q596.657 265.001 595.638 265.001 Q592.027 265.001 590.083 267.362 Q588.161 269.7 588.161 274.098 L588.161 287.756 L583.879 287.756 L583.879 261.83 L588.161 261.83 L588.161 265.858 Q589.504 263.497 591.657 262.362 Q593.809 261.205 596.888 261.205 Q597.328 261.205 597.86 261.274 Q598.393 261.321 599.041 261.436 L599.064 265.811 Z" fill="#000000" fill-rule="nonzero" fill-opacity="1" /><path clip-path="url(#clip910)" d="M607.652 283.867 L607.652 297.617 L603.37 297.617 L603.37 261.83 L607.652 261.83 L607.652 265.765 Q608.994 263.45 611.032 262.339 Q613.092 261.205 615.939 261.205 Q620.661 261.205 623.601 264.955 Q626.564 268.705 626.564 274.816 Q626.564 280.927 623.601 284.677 Q620.661 288.427 615.939 288.427 Q613.092 288.427 611.032 287.316 Q608.994 286.182 607.652 283.867 M622.143 274.816 Q622.143 270.117 620.198 267.455 Q618.277 264.77 614.897 264.77 Q611.518 264.77 609.573 267.455 Q607.652 270.117 607.652 274.816 Q607.652 279.515 609.573 282.2 Q611.518 284.862 614.897 284.862 Q618.277 284.862 620.198 282.2 Q622.143 279.515 622.143 274.816 Z" fill="#000000" fill-rule="nonzero" fill-opacity="1" /><path clip-path="url(#clip910)" d="M643.67 264.816 Q640.244 264.816 638.254 267.501 Q636.263 270.163 636.263 274.816 Q636.263 279.469 638.23 282.154 Q640.221 284.816 643.67 284.816 Q647.073 284.816 649.064 282.131 Q651.054 279.446 651.054 274.816 Q651.054 270.21 649.064 267.524 Q647.073 264.816 643.67 264.816 M643.67 261.205 Q649.226 261.205 652.397 264.816 Q655.568 268.427 655.568 274.816 Q655.568 281.182 652.397 284.816 Q649.226 288.427 643.67 288.427 Q638.092 288.427 634.92 284.816 Q631.772 281.182 631.772 274.816 Q631.772 268.427 634.92 264.816 Q638.092 261.205 643.67 261.205 Z" fill="#000000" fill-rule="nonzero" fill-opacity="1" /><path clip-path="url(#clip910)" d="M662.628 251.737 L666.888 251.737 L666.888 287.756 L662.628 287.756 L662.628 251.737 Z" fill="#000000" fill-rule="nonzero" fill-opacity="1" /><path clip-path="url(#clip910)" d="M687.582 274.723 Q682.42 274.723 680.429 275.904 Q678.439 277.084 678.439 279.932 Q678.439 282.2 679.92 283.543 Q681.425 284.862 683.994 284.862 Q687.536 284.862 689.665 282.362 Q691.818 279.839 691.818 275.672 L691.818 274.723 L687.582 274.723 M696.077 272.964 L696.077 287.756 L691.818 287.756 L691.818 283.821 Q690.36 286.182 688.184 287.316 Q686.008 288.427 682.86 288.427 Q678.878 288.427 676.517 286.205 Q674.179 283.959 674.179 280.209 Q674.179 275.834 677.096 273.612 Q680.036 271.39 685.846 271.39 L691.818 271.39 L691.818 270.973 Q691.818 268.034 689.874 266.436 Q687.952 264.816 684.457 264.816 Q682.235 264.816 680.128 265.348 Q678.022 265.881 676.077 266.946 L676.077 263.01 Q678.415 262.108 680.614 261.668 Q682.814 261.205 684.897 261.205 Q690.522 261.205 693.3 264.122 Q696.077 267.038 696.077 272.964 Z" fill="#000000" fill-rule="nonzero" fill-opacity="1" /><path clip-path="url(#clip910)" d="M726.401 272.108 L726.401 287.756 L722.142 287.756 L722.142 272.247 Q722.142 268.566 720.707 266.737 Q719.272 264.909 716.401 264.909 Q712.952 264.909 710.962 267.108 Q708.971 269.307 708.971 273.103 L708.971 287.756 L704.688 287.756 L704.688 261.83 L708.971 261.83 L708.971 265.858 Q710.499 263.52 712.559 262.362 Q714.642 261.205 717.35 261.205 Q721.818 261.205 724.11 263.983 Q726.401 266.737 726.401 272.108 Z" fill="#000000" fill-rule="nonzero" fill-opacity="1" /><path clip-path="url(#clip910)" d="M739.11 254.469 L739.11 261.83 L747.883 261.83 L747.883 265.14 L739.11 265.14 L739.11 279.214 Q739.11 282.385 739.966 283.288 Q740.846 284.191 743.508 284.191 L747.883 284.191 L747.883 287.756 L743.508 287.756 Q738.577 287.756 736.702 285.927 Q734.827 284.075 734.827 279.214 L734.827 265.14 L731.702 265.14 L731.702 261.83 L734.827 261.83 L734.827 254.469 L739.11 254.469 Z" fill="#000000" fill-rule="nonzero" fill-opacity="1" /></svg>
