<?xml version="1.0" encoding="utf-8"?>
<svg xmlns="http://www.w3.org/2000/svg" xmlns:xlink="http://www.w3.org/1999/xlink" width="600" height="400" viewBox="0 0 2400 1600">
<defs>
  <clipPath id="clip960">
    <rect x="0" y="0" width="2400" height="1600"/>
  </clipPath>
</defs>
<path clip-path="url(#clip960)" d="M0 1600 L2400 1600 L2400 0 L0 0  Z" fill="#ffffff" fill-rule="evenodd" fill-opacity="1"/>
<defs>
  <clipPath id="clip961">
    <rect x="480" y="0" width="1681" height="1600"/>
  </clipPath>
</defs>
<path clip-path="url(#clip960)" d="M210.746 1423.18 L2352.76 1423.18 L2352.76 47.2441 L210.746 47.2441  Z" fill="#ffffff" fill-rule="evenodd" fill-opacity="1"/>
<defs>
  <clipPath id="clip962">
    <rect x="210" y="47" width="2143" height="1377"/>
  </clipPath>
</defs>
<polyline clip-path="url(#clip962)" style="stroke:#000000; stroke-linecap:round; stroke-linejoin:round; stroke-width:2; stroke-opacity:0.1; fill:none" points="271.369,1423.18 271.369,47.2441 "/>
<polyline clip-path="url(#clip962)" style="stroke:#000000; stroke-linecap:round; stroke-linejoin:round; stroke-width:2; stroke-opacity:0.1; fill:none" points="632.22,1423.18 632.22,47.2441 "/>
<polyline clip-path="url(#clip962)" style="stroke:#000000; stroke-linecap:round; stroke-linejoin:round; stroke-width:2; stroke-opacity:0.1; fill:none" points="993.07,1423.18 993.07,47.2441 "/>
<polyline clip-path="url(#clip962)" style="stroke:#000000; stroke-linecap:round; stroke-linejoin:round; stroke-width:2; stroke-opacity:0.1; fill:none" points="1353.92,1423.18 1353.92,47.2441 "/>
<polyline clip-path="url(#clip962)" style="stroke:#000000; stroke-linecap:round; stroke-linejoin:round; stroke-width:2; stroke-opacity:0.1; fill:none" points="1714.77,1423.18 1714.77,47.2441 "/>
<polyline clip-path="url(#clip962)" style="stroke:#000000; stroke-linecap:round; stroke-linejoin:round; stroke-width:2; stroke-opacity:0.1; fill:none" points="2075.62,1423.18 2075.62,47.2441 "/>
<polyline clip-path="url(#clip960)" style="stroke:#000000; stroke-linecap:round; stroke-linejoin:round; stroke-width:4; stroke-opacity:1; fill:none" points="210.746,1423.18 2352.76,1423.18 "/>
<polyline clip-path="url(#clip960)" style="stroke:#000000; stroke-linecap:round; stroke-linejoin:round; stroke-width:4; stroke-opacity:1; fill:none" points="271.369,1423.18 271.369,1404.28 "/>
<polyline clip-path="url(#clip960)" style="stroke:#000000; stroke-linecap:round; stroke-linejoin:round; stroke-width:4; stroke-opacity:1; fill:none" points="632.22,1423.18 632.22,1404.28 "/>
<polyline clip-path="url(#clip960)" style="stroke:#000000; stroke-linecap:round; stroke-linejoin:round; stroke-width:4; stroke-opacity:1; fill:none" points="993.07,1423.18 993.07,1404.28 "/>
<polyline clip-path="url(#clip960)" style="stroke:#000000; stroke-linecap:round; stroke-linejoin:round; stroke-width:4; stroke-opacity:1; fill:none" points="1353.92,1423.18 1353.92,1404.28 "/>
<polyline clip-path="url(#clip960)" style="stroke:#000000; stroke-linecap:round; stroke-linejoin:round; stroke-width:4; stroke-opacity:1; fill:none" points="1714.77,1423.18 1714.77,1404.28 "/>
<polyline clip-path="url(#clip960)" style="stroke:#000000; stroke-linecap:round; stroke-linejoin:round; stroke-width:4; stroke-opacity:1; fill:none" points="2075.62,1423.18 2075.62,1404.28 "/>
<path clip-path="url(#clip960)" d="M248.753 1454.1 Q245.142 1454.1 243.313 1457.66 Q241.508 1461.2 241.508 1468.33 Q241.508 1475.44 243.313 1479.01 Q245.142 1482.55 248.753 1482.55 Q252.387 1482.55 254.193 1479.01 Q256.022 1475.44 256.022 1468.33 Q256.022 1461.2 254.193 1457.66 Q252.387 1454.1 248.753 1454.1 M248.753 1450.39 Q254.563 1450.39 257.619 1455 Q260.698 1459.58 260.698 1468.33 Q260.698 1477.06 257.619 1481.67 Q254.563 1486.25 248.753 1486.25 Q242.943 1486.25 239.864 1481.67 Q236.809 1477.06 236.809 1468.33 Q236.809 1459.58 239.864 1455 Q242.943 1450.39 248.753 1450.39 Z" fill="#000000" fill-rule="nonzero" fill-opacity="1" /><path clip-path="url(#clip960)" d="M268.915 1479.7 L273.799 1479.7 L273.799 1485.58 L268.915 1485.58 L268.915 1479.7 Z" fill="#000000" fill-rule="nonzero" fill-opacity="1" /><path clip-path="url(#clip960)" d="M293.984 1454.1 Q290.373 1454.1 288.545 1457.66 Q286.739 1461.2 286.739 1468.33 Q286.739 1475.44 288.545 1479.01 Q290.373 1482.55 293.984 1482.55 Q297.619 1482.55 299.424 1479.01 Q301.253 1475.44 301.253 1468.33 Q301.253 1461.2 299.424 1457.66 Q297.619 1454.1 293.984 1454.1 M293.984 1450.39 Q299.795 1450.39 302.85 1455 Q305.929 1459.58 305.929 1468.33 Q305.929 1477.06 302.85 1481.67 Q299.795 1486.25 293.984 1486.25 Q288.174 1486.25 285.096 1481.67 Q282.04 1477.06 282.04 1468.33 Q282.04 1459.58 285.096 1455 Q288.174 1450.39 293.984 1450.39 Z" fill="#000000" fill-rule="nonzero" fill-opacity="1" /><path clip-path="url(#clip960)" d="M603.956 1481.64 L620.275 1481.64 L620.275 1485.58 L598.331 1485.58 L598.331 1481.64 Q600.993 1478.89 605.576 1474.26 Q610.183 1469.61 611.363 1468.27 Q613.609 1465.74 614.488 1464.01 Q615.391 1462.25 615.391 1460.56 Q615.391 1457.8 613.447 1456.07 Q611.525 1454.33 608.423 1454.33 Q606.224 1454.33 603.771 1455.09 Q601.34 1455.86 598.562 1457.41 L598.562 1452.69 Q601.386 1451.55 603.84 1450.97 Q606.294 1450.39 608.331 1450.39 Q613.701 1450.39 616.896 1453.08 Q620.09 1455.77 620.09 1460.26 Q620.09 1462.39 619.28 1464.31 Q618.493 1466.2 616.386 1468.8 Q615.808 1469.47 612.706 1472.69 Q609.604 1475.88 603.956 1481.64 Z" fill="#000000" fill-rule="nonzero" fill-opacity="1" /><path clip-path="url(#clip960)" d="M630.09 1479.7 L634.974 1479.7 L634.974 1485.58 L630.09 1485.58 L630.09 1479.7 Z" fill="#000000" fill-rule="nonzero" fill-opacity="1" /><path clip-path="url(#clip960)" d="M645.206 1451.02 L663.562 1451.02 L663.562 1454.96 L649.488 1454.96 L649.488 1463.43 Q650.507 1463.08 651.525 1462.92 Q652.544 1462.73 653.562 1462.73 Q659.349 1462.73 662.729 1465.9 Q666.108 1469.08 666.108 1474.49 Q666.108 1480.07 662.636 1483.17 Q659.164 1486.25 652.844 1486.25 Q650.669 1486.25 648.4 1485.88 Q646.155 1485.51 643.747 1484.77 L643.747 1480.07 Q645.831 1481.2 648.053 1481.76 Q650.275 1482.32 652.752 1482.32 Q656.757 1482.32 659.094 1480.21 Q661.432 1478.1 661.432 1474.49 Q661.432 1470.88 659.094 1468.77 Q656.757 1466.67 652.752 1466.67 Q650.877 1466.67 649.002 1467.08 Q647.15 1467.5 645.206 1468.38 L645.206 1451.02 Z" fill="#000000" fill-rule="nonzero" fill-opacity="1" /><path clip-path="url(#clip960)" d="M960.235 1451.02 L978.591 1451.02 L978.591 1454.96 L964.517 1454.96 L964.517 1463.43 Q965.536 1463.08 966.554 1462.92 Q967.573 1462.73 968.591 1462.73 Q974.378 1462.73 977.758 1465.9 Q981.138 1469.08 981.138 1474.49 Q981.138 1480.07 977.665 1483.17 Q974.193 1486.25 967.874 1486.25 Q965.698 1486.25 963.429 1485.88 Q961.184 1485.51 958.777 1484.77 L958.777 1480.07 Q960.86 1481.2 963.082 1481.76 Q965.304 1482.32 967.781 1482.32 Q971.786 1482.32 974.124 1480.21 Q976.462 1478.1 976.462 1474.49 Q976.462 1470.88 974.124 1468.77 Q971.786 1466.67 967.781 1466.67 Q965.906 1466.67 964.031 1467.08 Q962.179 1467.5 960.235 1468.38 L960.235 1451.02 Z" fill="#000000" fill-rule="nonzero" fill-opacity="1" /><path clip-path="url(#clip960)" d="M990.35 1479.7 L995.235 1479.7 L995.235 1485.58 L990.35 1485.58 L990.35 1479.7 Z" fill="#000000" fill-rule="nonzero" fill-opacity="1" /><path clip-path="url(#clip960)" d="M1015.42 1454.1 Q1011.81 1454.1 1009.98 1457.66 Q1008.17 1461.2 1008.17 1468.33 Q1008.17 1475.44 1009.98 1479.01 Q1011.81 1482.55 1015.42 1482.55 Q1019.05 1482.55 1020.86 1479.01 Q1022.69 1475.44 1022.69 1468.33 Q1022.69 1461.2 1020.86 1457.66 Q1019.05 1454.1 1015.42 1454.1 M1015.42 1450.39 Q1021.23 1450.39 1024.29 1455 Q1027.36 1459.58 1027.36 1468.33 Q1027.36 1477.06 1024.29 1481.67 Q1021.23 1486.25 1015.42 1486.25 Q1009.61 1486.25 1006.53 1481.67 Q1003.48 1477.06 1003.48 1468.33 Q1003.48 1459.58 1006.53 1455 Q1009.61 1450.39 1015.42 1450.39 Z" fill="#000000" fill-rule="nonzero" fill-opacity="1" /><path clip-path="url(#clip960)" d="M1320.24 1451.02 L1342.46 1451.02 L1342.46 1453.01 L1329.92 1485.58 L1325.03 1485.58 L1336.84 1454.96 L1320.24 1454.96 L1320.24 1451.02 Z" fill="#000000" fill-rule="nonzero" fill-opacity="1" /><path clip-path="url(#clip960)" d="M1351.58 1479.7 L1356.47 1479.7 L1356.47 1485.58 L1351.58 1485.58 L1351.58 1479.7 Z" fill="#000000" fill-rule="nonzero" fill-opacity="1" /><path clip-path="url(#clip960)" d="M1366.7 1451.02 L1385.06 1451.02 L1385.06 1454.96 L1370.98 1454.96 L1370.98 1463.43 Q1372 1463.08 1373.02 1462.92 Q1374.04 1462.73 1375.06 1462.73 Q1380.84 1462.73 1384.22 1465.9 Q1387.6 1469.08 1387.6 1474.49 Q1387.6 1480.07 1384.13 1483.17 Q1380.66 1486.25 1374.34 1486.25 Q1372.16 1486.25 1369.89 1485.88 Q1367.65 1485.51 1365.24 1484.77 L1365.24 1480.07 Q1367.32 1481.2 1369.55 1481.76 Q1371.77 1482.32 1374.25 1482.32 Q1378.25 1482.32 1380.59 1480.21 Q1382.93 1478.1 1382.93 1474.49 Q1382.93 1470.88 1380.59 1468.77 Q1378.25 1466.67 1374.25 1466.67 Q1372.37 1466.67 1370.5 1467.08 Q1368.64 1467.5 1366.7 1468.38 L1366.7 1451.02 Z" fill="#000000" fill-rule="nonzero" fill-opacity="1" /><path clip-path="url(#clip960)" d="M1666.84 1481.64 L1674.48 1481.64 L1674.48 1455.28 L1666.17 1456.95 L1666.17 1452.69 L1674.44 1451.02 L1679.11 1451.02 L1679.11 1481.64 L1686.75 1481.64 L1686.75 1485.58 L1666.84 1485.58 L1666.84 1481.64 Z" fill="#000000" fill-rule="nonzero" fill-opacity="1" /><path clip-path="url(#clip960)" d="M1706.2 1454.1 Q1702.58 1454.1 1700.76 1457.66 Q1698.95 1461.2 1698.95 1468.33 Q1698.95 1475.44 1700.76 1479.01 Q1702.58 1482.55 1706.2 1482.55 Q1709.83 1482.55 1711.64 1479.01 Q1713.46 1475.44 1713.46 1468.33 Q1713.46 1461.2 1711.64 1457.66 Q1709.83 1454.1 1706.2 1454.1 M1706.2 1450.39 Q1712.01 1450.39 1715.06 1455 Q1718.14 1459.58 1718.14 1468.33 Q1718.14 1477.06 1715.06 1481.67 Q1712.01 1486.25 1706.2 1486.25 Q1700.39 1486.25 1697.31 1481.67 Q1694.25 1477.06 1694.25 1468.33 Q1694.25 1459.58 1697.31 1455 Q1700.39 1450.39 1706.2 1450.39 Z" fill="#000000" fill-rule="nonzero" fill-opacity="1" /><path clip-path="url(#clip960)" d="M1726.36 1479.7 L1731.24 1479.7 L1731.24 1485.58 L1726.36 1485.58 L1726.36 1479.7 Z" fill="#000000" fill-rule="nonzero" fill-opacity="1" /><path clip-path="url(#clip960)" d="M1751.43 1454.1 Q1747.82 1454.1 1745.99 1457.66 Q1744.18 1461.2 1744.18 1468.33 Q1744.18 1475.44 1745.99 1479.01 Q1747.82 1482.55 1751.43 1482.55 Q1755.06 1482.55 1756.87 1479.01 Q1758.7 1475.44 1758.7 1468.33 Q1758.7 1461.2 1756.87 1457.66 Q1755.06 1454.1 1751.43 1454.1 M1751.43 1450.39 Q1757.24 1450.39 1760.29 1455 Q1763.37 1459.58 1763.37 1468.33 Q1763.37 1477.06 1760.29 1481.67 Q1757.24 1486.25 1751.43 1486.25 Q1745.62 1486.25 1742.54 1481.67 Q1739.48 1477.06 1739.48 1468.33 Q1739.48 1459.58 1742.54 1455 Q1745.62 1450.39 1751.43 1450.39 Z" fill="#000000" fill-rule="nonzero" fill-opacity="1" /><path clip-path="url(#clip960)" d="M2028.19 1481.64 L2035.83 1481.64 L2035.83 1455.28 L2027.52 1456.95 L2027.52 1452.69 L2035.78 1451.02 L2040.46 1451.02 L2040.46 1481.64 L2048.1 1481.64 L2048.1 1485.58 L2028.19 1485.58 L2028.19 1481.64 Z" fill="#000000" fill-rule="nonzero" fill-opacity="1" /><path clip-path="url(#clip960)" d="M2061.57 1481.64 L2077.89 1481.64 L2077.89 1485.58 L2055.95 1485.58 L2055.95 1481.64 Q2058.61 1478.89 2063.19 1474.26 Q2067.8 1469.61 2068.98 1468.27 Q2071.22 1465.74 2072.1 1464.01 Q2073.01 1462.25 2073.01 1460.56 Q2073.01 1457.8 2071.06 1456.07 Q2069.14 1454.33 2066.04 1454.33 Q2063.84 1454.33 2061.39 1455.09 Q2058.96 1455.86 2056.18 1457.41 L2056.18 1452.69 Q2059 1451.55 2061.46 1450.97 Q2063.91 1450.39 2065.95 1450.39 Q2071.32 1450.39 2074.51 1453.08 Q2077.71 1455.77 2077.71 1460.26 Q2077.71 1462.39 2076.9 1464.31 Q2076.11 1466.2 2074 1468.8 Q2073.42 1469.47 2070.32 1472.69 Q2067.22 1475.88 2061.57 1481.64 Z" fill="#000000" fill-rule="nonzero" fill-opacity="1" /><path clip-path="url(#clip960)" d="M2087.71 1479.7 L2092.59 1479.7 L2092.59 1485.58 L2087.71 1485.58 L2087.71 1479.7 Z" fill="#000000" fill-rule="nonzero" fill-opacity="1" /><path clip-path="url(#clip960)" d="M2102.82 1451.02 L2121.18 1451.02 L2121.18 1454.96 L2107.1 1454.96 L2107.1 1463.43 Q2108.12 1463.08 2109.14 1462.92 Q2110.16 1462.73 2111.18 1462.73 Q2116.96 1462.73 2120.34 1465.9 Q2123.72 1469.08 2123.72 1474.49 Q2123.72 1480.07 2120.25 1483.17 Q2116.78 1486.25 2110.46 1486.25 Q2108.28 1486.25 2106.02 1485.88 Q2103.77 1485.51 2101.36 1484.77 L2101.36 1480.07 Q2103.45 1481.2 2105.67 1481.76 Q2107.89 1482.32 2110.37 1482.32 Q2114.37 1482.32 2116.71 1480.21 Q2119.05 1478.1 2119.05 1474.49 Q2119.05 1470.88 2116.71 1468.77 Q2114.37 1466.67 2110.37 1466.67 Q2108.49 1466.67 2106.62 1467.08 Q2104.77 1467.5 2102.82 1468.38 L2102.82 1451.02 Z" fill="#000000" fill-rule="nonzero" fill-opacity="1" /><path clip-path="url(#clip960)" d="M1298.37 1532.4 L1285.47 1549.74 L1299.03 1568.04 L1292.13 1568.04 L1281.75 1554.04 L1271.37 1568.04 L1264.47 1568.04 L1278.31 1549.39 L1265.65 1532.4 L1272.55 1532.4 L1282.01 1545.1 L1291.46 1532.4 L1298.37 1532.4 Z" fill="#000000" fill-rule="nonzero" fill-opacity="1" /><polyline clip-path="url(#clip962)" style="stroke:#000000; stroke-linecap:round; stroke-linejoin:round; stroke-width:2; stroke-opacity:0.1; fill:none" points="210.746,1423.18 2352.76,1423.18 "/>
<polyline clip-path="url(#clip962)" style="stroke:#000000; stroke-linecap:round; stroke-linejoin:round; stroke-width:2; stroke-opacity:0.1; fill:none" points="210.746,1193.86 2352.76,1193.86 "/>
<polyline clip-path="url(#clip962)" style="stroke:#000000; stroke-linecap:round; stroke-linejoin:round; stroke-width:2; stroke-opacity:0.1; fill:none" points="210.746,964.535 2352.76,964.535 "/>
<polyline clip-path="url(#clip962)" style="stroke:#000000; stroke-linecap:round; stroke-linejoin:round; stroke-width:2; stroke-opacity:0.1; fill:none" points="210.746,735.212 2352.76,735.212 "/>
<polyline clip-path="url(#clip962)" style="stroke:#000000; stroke-linecap:round; stroke-linejoin:round; stroke-width:2; stroke-opacity:0.1; fill:none" points="210.746,505.889 2352.76,505.889 "/>
<polyline clip-path="url(#clip962)" style="stroke:#000000; stroke-linecap:round; stroke-linejoin:round; stroke-width:2; stroke-opacity:0.1; fill:none" points="210.746,276.567 2352.76,276.567 "/>
<polyline clip-path="url(#clip962)" style="stroke:#000000; stroke-linecap:round; stroke-linejoin:round; stroke-width:2; stroke-opacity:0.1; fill:none" points="210.746,47.2441 2352.76,47.2441 "/>
<polyline clip-path="url(#clip960)" style="stroke:#000000; stroke-linecap:round; stroke-linejoin:round; stroke-width:4; stroke-opacity:1; fill:none" points="210.746,1423.18 210.746,47.2441 "/>
<polyline clip-path="url(#clip960)" style="stroke:#000000; stroke-linecap:round; stroke-linejoin:round; stroke-width:4; stroke-opacity:1; fill:none" points="210.746,1423.18 229.644,1423.18 "/>
<polyline clip-path="url(#clip960)" style="stroke:#000000; stroke-linecap:round; stroke-linejoin:round; stroke-width:4; stroke-opacity:1; fill:none" points="210.746,1193.86 229.644,1193.86 "/>
<polyline clip-path="url(#clip960)" style="stroke:#000000; stroke-linecap:round; stroke-linejoin:round; stroke-width:4; stroke-opacity:1; fill:none" points="210.746,964.535 229.644,964.535 "/>
<polyline clip-path="url(#clip960)" style="stroke:#000000; stroke-linecap:round; stroke-linejoin:round; stroke-width:4; stroke-opacity:1; fill:none" points="210.746,735.212 229.644,735.212 "/>
<polyline clip-path="url(#clip960)" style="stroke:#000000; stroke-linecap:round; stroke-linejoin:round; stroke-width:4; stroke-opacity:1; fill:none" points="210.746,505.889 229.644,505.889 "/>
<polyline clip-path="url(#clip960)" style="stroke:#000000; stroke-linecap:round; stroke-linejoin:round; stroke-width:4; stroke-opacity:1; fill:none" points="210.746,276.567 229.644,276.567 "/>
<polyline clip-path="url(#clip960)" style="stroke:#000000; stroke-linecap:round; stroke-linejoin:round; stroke-width:4; stroke-opacity:1; fill:none" points="210.746,47.2441 229.644,47.2441 "/>
<path clip-path="url(#clip960)" d="M114.631 1423.63 L144.306 1423.63 L144.306 1427.57 L114.631 1427.57 L114.631 1423.63 Z" fill="#000000" fill-rule="nonzero" fill-opacity="1" /><path clip-path="url(#clip960)" d="M158.427 1436.52 L174.746 1436.52 L174.746 1440.46 L152.802 1440.46 L152.802 1436.52 Q155.464 1433.77 160.047 1429.14 Q164.653 1424.49 165.834 1423.15 Q168.079 1420.62 168.959 1418.89 Q169.862 1417.13 169.862 1415.44 Q169.862 1412.68 167.917 1410.95 Q165.996 1409.21 162.894 1409.21 Q160.695 1409.21 158.241 1409.97 Q155.811 1410.74 153.033 1412.29 L153.033 1407.57 Q155.857 1406.43 158.311 1405.85 Q160.765 1405.27 162.802 1405.27 Q168.172 1405.27 171.366 1407.96 Q174.561 1410.65 174.561 1415.14 Q174.561 1417.27 173.751 1419.19 Q172.964 1421.08 170.857 1423.68 Q170.278 1424.35 167.177 1427.57 Q164.075 1430.76 158.427 1436.52 Z" fill="#000000" fill-rule="nonzero" fill-opacity="1" /><path clip-path="url(#clip960)" d="M114.26 1194.31 L143.936 1194.31 L143.936 1198.24 L114.26 1198.24 L114.26 1194.31 Z" fill="#000000" fill-rule="nonzero" fill-opacity="1" /><path clip-path="url(#clip960)" d="M154.839 1207.2 L162.477 1207.2 L162.477 1180.84 L154.167 1182.5 L154.167 1178.24 L162.431 1176.58 L167.107 1176.58 L167.107 1207.2 L174.746 1207.2 L174.746 1211.14 L154.839 1211.14 L154.839 1207.2 Z" fill="#000000" fill-rule="nonzero" fill-opacity="1" /><path clip-path="url(#clip960)" d="M162.802 950.333 Q159.19 950.333 157.362 953.898 Q155.556 957.44 155.556 964.569 Q155.556 971.676 157.362 975.241 Q159.19 978.782 162.802 978.782 Q166.436 978.782 168.241 975.241 Q170.07 971.676 170.07 964.569 Q170.07 957.44 168.241 953.898 Q166.436 950.333 162.802 950.333 M162.802 946.63 Q168.612 946.63 171.667 951.236 Q174.746 955.819 174.746 964.569 Q174.746 973.296 171.667 977.903 Q168.612 982.486 162.802 982.486 Q156.991 982.486 153.913 977.903 Q150.857 973.296 150.857 964.569 Q150.857 955.819 153.913 951.236 Q156.991 946.63 162.802 946.63 Z" fill="#000000" fill-rule="nonzero" fill-opacity="1" /><path clip-path="url(#clip960)" d="M154.839 748.557 L162.477 748.557 L162.477 722.191 L154.167 723.858 L154.167 719.599 L162.431 717.932 L167.107 717.932 L167.107 748.557 L174.746 748.557 L174.746 752.492 L154.839 752.492 L154.839 748.557 Z" fill="#000000" fill-rule="nonzero" fill-opacity="1" /><path clip-path="url(#clip960)" d="M158.427 519.234 L174.746 519.234 L174.746 523.169 L152.802 523.169 L152.802 519.234 Q155.464 516.48 160.047 511.85 Q164.653 507.197 165.834 505.855 Q168.079 503.331 168.959 501.595 Q169.862 499.836 169.862 498.146 Q169.862 495.392 167.917 493.656 Q165.996 491.92 162.894 491.92 Q160.695 491.92 158.241 492.683 Q155.811 493.447 153.033 494.998 L153.033 490.276 Q155.857 489.142 158.311 488.563 Q160.765 487.984 162.802 487.984 Q168.172 487.984 171.366 490.67 Q174.561 493.355 174.561 497.845 Q174.561 499.975 173.751 501.896 Q172.964 503.794 170.857 506.387 Q170.278 507.058 167.177 510.276 Q164.075 513.47 158.427 519.234 Z" fill="#000000" fill-rule="nonzero" fill-opacity="1" /><path clip-path="url(#clip960)" d="M167.616 275.213 Q170.973 275.93 172.848 278.199 Q174.746 280.467 174.746 283.8 Q174.746 288.916 171.227 291.717 Q167.709 294.518 161.227 294.518 Q159.052 294.518 156.737 294.078 Q154.445 293.662 151.991 292.805 L151.991 288.291 Q153.936 289.425 156.251 290.004 Q158.565 290.583 161.089 290.583 Q165.487 290.583 167.778 288.847 Q170.093 287.111 170.093 283.8 Q170.093 280.745 167.94 279.032 Q165.811 277.296 161.991 277.296 L157.964 277.296 L157.964 273.453 L162.177 273.453 Q165.626 273.453 167.454 272.088 Q169.283 270.699 169.283 268.106 Q169.283 265.444 167.385 264.032 Q165.51 262.597 161.991 262.597 Q160.07 262.597 157.871 263.014 Q155.672 263.43 153.033 264.31 L153.033 260.143 Q155.695 259.402 158.01 259.032 Q160.348 258.662 162.408 258.662 Q167.732 258.662 170.834 261.092 Q173.936 263.5 173.936 267.62 Q173.936 270.49 172.292 272.481 Q170.649 274.449 167.616 275.213 Z" fill="#000000" fill-rule="nonzero" fill-opacity="1" /><path clip-path="url(#clip960)" d="M165.163 34.0381 L153.357 52.4871 L165.163 52.4871 L165.163 34.0381 M163.936 29.9641 L169.815 29.9641 L169.815 52.4871 L174.746 52.4871 L174.746 56.376 L169.815 56.376 L169.815 64.5241 L165.163 64.5241 L165.163 56.376 L149.561 56.376 L149.561 51.8621 L163.936 29.9641 Z" fill="#000000" fill-rule="nonzero" fill-opacity="1" /><path clip-path="url(#clip960)" d="M67.3143 733.525 Q73.68 736.008 75.6216 738.363 Q77.5631 740.718 77.5631 744.665 L77.5631 749.344 L72.6615 749.344 L72.6615 745.906 Q72.6615 743.487 71.5157 742.151 Q70.3699 740.814 66.1048 739.191 L63.4312 738.14 L28.3562 752.559 L28.3562 746.352 L56.238 735.212 L28.3562 724.072 L28.3562 717.865 L67.3143 733.525 Z" fill="#000000" fill-rule="nonzero" fill-opacity="1" /><circle clip-path="url(#clip962)" cx="401.275" cy="666.415" r="14.4" fill="#009af9" fill-rule="evenodd" fill-opacity="1" stroke="#000000" stroke-opacity="1" stroke-width="3.2"/>
<circle clip-path="url(#clip962)" cx="459.011" cy="620.551" r="14.4" fill="#009af9" fill-rule="evenodd" fill-opacity="1" stroke="#000000" stroke-opacity="1" stroke-width="3.2"/>
<circle clip-path="url(#clip962)" cx="545.615" cy="540.288" r="14.4" fill="#009af9" fill-rule="evenodd" fill-opacity="1" stroke="#000000" stroke-opacity="1" stroke-width="3.2"/>
<circle clip-path="url(#clip962)" cx="574.483" cy="478.371" r="14.4" fill="#009af9" fill-rule="evenodd" fill-opacity="1" stroke="#000000" stroke-opacity="1" stroke-width="3.2"/>
<circle clip-path="url(#clip962)" cx="646.654" cy="368.296" r="14.4" fill="#009af9" fill-rule="evenodd" fill-opacity="1" stroke="#000000" stroke-opacity="1" stroke-width="3.2"/>
<circle clip-path="url(#clip962)" cx="704.39" cy="345.364" r="14.4" fill="#009af9" fill-rule="evenodd" fill-opacity="1" stroke="#000000" stroke-opacity="1" stroke-width="3.2"/>
<circle clip-path="url(#clip962)" cx="834.296" cy="414.16" r="14.4" fill="#009af9" fill-rule="evenodd" fill-opacity="1" stroke="#000000" stroke-opacity="1" stroke-width="3.2"/>
<circle clip-path="url(#clip962)" cx="906.466" cy="471.491" r="14.4" fill="#009af9" fill-rule="evenodd" fill-opacity="1" stroke="#000000" stroke-opacity="1" stroke-width="3.2"/>
<circle clip-path="url(#clip962)" cx="949.768" cy="494.423" r="14.4" fill="#009af9" fill-rule="evenodd" fill-opacity="1" stroke="#000000" stroke-opacity="1" stroke-width="3.2"/>
<circle clip-path="url(#clip962)" cx="993.07" cy="480.664" r="14.4" fill="#009af9" fill-rule="evenodd" fill-opacity="1" stroke="#000000" stroke-opacity="1" stroke-width="3.2"/>
<circle clip-path="url(#clip962)" cx="1137.41" cy="448.559" r="14.4" fill="#009af9" fill-rule="evenodd" fill-opacity="1" stroke="#000000" stroke-opacity="1" stroke-width="3.2"/>
<circle clip-path="url(#clip962)" cx="1281.75" cy="437.093" r="14.4" fill="#009af9" fill-rule="evenodd" fill-opacity="1" stroke="#000000" stroke-opacity="1" stroke-width="3.2"/>
<circle clip-path="url(#clip962)" cx="1426.09" cy="446.265" r="14.4" fill="#009af9" fill-rule="evenodd" fill-opacity="1" stroke="#000000" stroke-opacity="1" stroke-width="3.2"/>
<circle clip-path="url(#clip962)" cx="1599.3" cy="517.355" r="14.4" fill="#009af9" fill-rule="evenodd" fill-opacity="1" stroke="#000000" stroke-opacity="1" stroke-width="3.2"/>
<circle clip-path="url(#clip962)" cx="1786.94" cy="643.483" r="14.4" fill="#009af9" fill-rule="evenodd" fill-opacity="1" stroke="#000000" stroke-opacity="1" stroke-width="3.2"/>
<circle clip-path="url(#clip962)" cx="1902.41" cy="758.144" r="14.4" fill="#009af9" fill-rule="evenodd" fill-opacity="1" stroke="#000000" stroke-opacity="1" stroke-width="3.2"/>
<circle clip-path="url(#clip962)" cx="1945.72" cy="804.009" r="14.4" fill="#009af9" fill-rule="evenodd" fill-opacity="1" stroke="#000000" stroke-opacity="1" stroke-width="3.2"/>
<circle clip-path="url(#clip962)" cx="2003.45" cy="826.941" r="14.4" fill="#009af9" fill-rule="evenodd" fill-opacity="1" stroke="#000000" stroke-opacity="1" stroke-width="3.2"/>
<circle clip-path="url(#clip962)" cx="2090.06" cy="849.873" r="14.4" fill="#009af9" fill-rule="evenodd" fill-opacity="1" stroke="#000000" stroke-opacity="1" stroke-width="3.2"/>
<circle clip-path="url(#clip962)" cx="2147.79" cy="872.806" r="14.4" fill="#009af9" fill-rule="evenodd" fill-opacity="1" stroke="#000000" stroke-opacity="1" stroke-width="3.2"/>
<circle clip-path="url(#clip962)" cx="2191.09" cy="907.204" r="14.4" fill="#009af9" fill-rule="evenodd" fill-opacity="1" stroke="#000000" stroke-opacity="1" stroke-width="3.2"/>
<polyline clip-path="url(#clip962)" style="stroke:#e26f46; stroke-linecap:round; stroke-linejoin:round; stroke-width:8; stroke-opacity:1; fill:none" points="271.369,1.11161e+07 273.392,4.1943e+06 275.414,4.1943e+06 277.437,4.1943e+06 279.46,4.1943e+06 281.483,4.1943e+06 283.506,4.1943e+06 285.528,4.1943e+06 287.551,4.1943e+06 289.574,4.1943e+06 291.597,4.1943e+06 293.62,4.1943e+06 295.642,4.1943e+06 297.665,3.93147e+06 299.688,3.61161e+06 301.711,3.31513e+06 303.733,3.04049e+06 305.756,2.78624e+06 307.779,2.55103e+06 309.802,2.33358e+06 311.825,2.13269e+06 313.847,1.94723e+06 315.87,1.77614e+06 317.893,1.61842e+06 319.916,1.47315e+06 321.939,1.33944e+06 323.961,1.21648e+06 325.984,1.1035e+06 328.007,999786 330.03,904657 332.052,817486 334.075,737685 336.098,664705 338.121,598031 340.144,537184 342.166,481717 344.189,431214 346.212,385285 348.235,343570 350.258,305731 352.28,271456 354.303,240454 356.326,212455 358.349,187209 360.371,164482 362.394,144060 364.417,125742 366.44,109346 368.463,94699.7 370.485,81646.3 372.508,70040.2 374.531,59747.7 376.554,50645.4 378.577,42619.7 380.599,35566.3 382.622,29389.4 384.645,24001.2 386.668,19321.2 388.691,15275.8 390.713,11797.8 392.736,8825.7 394.759,6303.6 396.782,4180.61 398.804,2410.51 400.827,951.342 402.85,-234.847 404.873,-1182.37 406.896,-1922.18 408.918,-2482.13 410.941,-2887.23 412.964,-3159.89 414.987,-3320.15 417.01,-3385.83 419.032,-3372.81 421.055,-3295.1 423.078,-3165.1 425.101,-2993.68 427.123,-2790.36 429.146,-2563.43 431.169,-2320.05 433.192,-2066.38 435.215,-1807.7 437.237,-1548.44 439.26,-1292.33 441.283,-1042.45 443.306,-801.309 445.329,-570.897 447.351,-352.764 449.374,-148.063 451.397,42.3959 453.42,218.1 455.442,378.795 457.465,524.446 459.488,655.205 461.511,771.382 463.534,873.416 465.556,961.849 467.579,1037.31 469.602,1100.49 471.625,1152.13 473.648,1193 475.67,1223.91 477.693,1245.64 479.716,1258.99 481.739,1264.77 483.761,1263.75 485.784,1256.67 487.807,1244.27 489.83,1227.24 491.853,1206.23 493.875,1181.87 495.898,1154.74 497.921,1125.39 499.944,1094.32 501.967,1061.99 503.989,1028.84 506.012,995.233 508.035,961.528 510.058,928.029 512.081,895.008 514.103,862.702 516.126,831.315 518.149,801.021 520.172,771.961 522.194,744.252 524.217,717.984 526.24,693.224 528.263,670.016 530.286,648.383 532.308,628.334 534.331,609.857 536.354,592.929 538.377,577.512 540.4,563.558 542.422,551.01 544.445,539.801 546.468,529.858 548.491,521.103 550.513,513.455 552.536,506.827 554.559,501.133 556.582,496.284 558.605,492.193 560.627,488.771 562.65,485.933 564.673,483.594 566.696,481.674 568.719,480.095 570.741,478.783 572.764,477.666 574.787,476.679 576.81,475.762 578.832,474.857 580.855,473.912 582.878,472.881 584.901,471.722 586.924,470.399 588.946,468.879 590.969,467.137 592.992,465.15 595.015,462.901 597.038,460.377 599.06,457.57 601.083,454.476 603.106,451.093 605.129,447.426 607.151,443.481 609.174,439.269 611.197,434.801 613.22,430.094 615.243,425.165 617.265,420.034 619.288,414.724 621.311,409.257 623.334,403.659 625.357,397.955 627.379,392.172 629.402,386.337 631.425,380.478 633.448,374.622 635.471,368.798 637.493,363.032 639.516,357.351 641.539,351.783 643.562,346.352 645.584,341.082 647.607,335.998 649.63,331.122 651.653,326.474 653.676,322.074 655.698,317.94 657.721,314.089 659.744,310.534 661.767,307.29 663.79,304.368 665.812,301.776 667.835,299.524 669.858,297.617 671.881,296.059 673.903,294.853 675.926,294 677.949,293.498 679.972,293.347 681.995,293.54 684.017,294.073 686.04,294.939 688.063,296.129 690.086,297.633 692.109,299.441 694.131,301.54 696.154,303.916 698.177,306.555 700.2,309.443 702.222,312.562 704.245,315.897 706.268,319.43 708.291,323.143 710.314,327.018 712.336,331.036 714.359,335.178 716.382,339.425 718.405,343.758 720.428,348.158 722.45,352.606 724.473,357.084 726.496,361.573 728.519,366.054 730.541,370.51 732.564,374.925 734.587,379.281 736.61,383.563 738.633,387.755 740.655,391.843 742.678,395.813 744.701,399.652 746.724,403.348 748.747,406.891 750.769,410.27 752.792,413.476 754.815,416.5 756.838,419.336 758.861,421.978 760.883,424.419 762.906,426.657 764.929,428.689 766.952,430.511 768.974,432.123 770.997,433.525 773.02,434.718 775.043,435.704 777.066,436.485 779.088,437.065 781.111,437.449 783.134,437.642 785.157,437.651 787.18,437.481 789.202,437.142 791.225,436.64 793.248,435.986 795.271,435.188 797.293,434.258 799.316,433.204 801.339,432.038 803.362,430.772 805.385,429.417 807.407,427.985 809.43,426.488 811.453,424.938 813.476,423.348 815.499,421.73 817.521,420.097 819.544,418.461 821.567,416.833 823.59,415.227 825.612,413.654 827.635,412.126 829.658,410.654 831.681,409.249 833.704,407.922 835.726,406.682 837.749,405.54 839.772,404.506 841.795,403.586 843.818,402.791 845.84,402.126 847.863,401.6 849.886,401.218 851.909,400.986 853.931,400.909 855.954,400.992 857.977,401.237 860,401.647 862.023,402.225 864.045,402.972 866.068,403.888 868.091,404.974 870.114,406.227 872.137,407.648 874.159,409.232 876.182,410.978 878.205,412.881 880.228,414.937 882.251,417.14 884.273,419.485 886.296,421.966 888.319,424.575 890.342,427.304 892.364,430.146 894.387,433.09 896.41,436.13 898.433,439.254 900.456,442.453 902.478,445.715 904.501,449.03 906.524,452.387 908.547,455.775 910.57,459.181 912.592,462.593 914.615,466 916.638,469.388 918.661,472.747 920.683,476.062 922.706,479.323 924.729,482.516 926.752,485.63 928.775,488.652 930.797,491.571 932.82,494.373 934.843,497.049 936.866,499.587 938.889,501.975 940.911,504.204 942.934,506.263 944.957,508.142 946.98,509.832 949.002,511.325 951.025,512.612 953.048,513.685 955.071,514.538 957.094,515.164 959.116,515.557 961.139,515.712 963.162,515.624 965.185,515.29 967.208,514.706 969.23,513.87 971.253,512.782 973.276,511.438 975.299,509.84 977.321,507.988 979.344,505.884 981.367,503.53 983.39,500.928 985.413,498.083 987.435,494.998 989.458,491.68 991.481,488.135 993.504,484.368 995.527,480.388 997.549,476.203 999.572,471.821 1001.59,467.253 1003.62,462.508 1005.64,457.597 1007.66,452.533 1009.69,447.326 1011.71,441.989 1013.73,436.537 1015.75,430.981 1017.78,425.338 1019.8,419.619 1021.82,413.843 1023.85,408.021 1025.87,402.172 1027.89,396.31 1029.91,390.452 1031.94,384.615 1033.96,378.813 1035.98,373.066 1038.01,367.387 1040.03,361.794 1042.05,356.308 1044.07,350.939 1046.1,345.706 1048.12,340.627 1050.14,335.717 1052.16,330.992 1054.19,326.469 1056.21,322.162 1058.23,318.086 1060.26,314.254 1062.28,310.685 1064.3,307.39 1066.32,304.382 1068.35,301.675 1070.37,299.279 1072.39,297.206 1074.42,295.468 1076.44,294.076 1078.46,293.037 1080.48,292.361 1082.51,292.057 1084.53,292.128 1086.55,292.584 1088.57,293.429 1090.6,294.668 1092.62,296.307 1094.64,298.343 1096.67,300.782 1098.69,303.624 1100.71,306.866 1102.73,310.509 1104.76,314.553 1106.78,318.991 1108.8,323.82 1110.83,329.036 1112.85,334.634 1114.87,340.605 1116.89,346.938 1118.92,353.63 1120.94,360.672 1122.96,368.046 1124.98,375.742 1127.01,383.749 1129.03,392.056 1131.05,400.64 1133.08,409.497 1135.1,418.601 1137.12,427.937 1139.14,437.492 1141.17,447.246 1143.19,457.173 1145.21,467.265 1147.24,477.492 1149.26,487.832 1151.28,498.27 1153.3,508.78 1155.33,519.337 1157.35,529.925 1159.37,540.512 1161.4,551.084 1163.42,561.611 1165.44,572.066 1167.46,582.432 1169.49,592.678 1171.51,602.78 1173.53,612.716 1175.55,622.461 1177.58,631.993 1179.6,641.278 1181.62,650.305 1183.65,659.035 1185.67,667.46 1187.69,675.549 1189.71,683.276 1191.74,690.615 1193.76,697.557 1195.78,704.084 1197.81,710.151 1199.83,715.759 1201.85,720.88 1203.87,725.513 1205.9,729.61 1207.92,733.163 1209.94,736.165 1211.96,738.608 1213.99,740.468 1216.01,741.726 1218.03,742.386 1220.06,742.409 1222.08,741.821 1224.1,740.589 1226.12,738.706 1228.15,736.203 1230.17,733.007 1232.19,729.185 1234.22,724.683 1236.24,719.54 1238.26,713.721 1240.28,707.255 1242.31,700.139 1244.33,692.366 1246.35,683.945 1248.37,674.887 1250.4,665.205 1252.42,654.928 1254.44,644.026 1256.47,632.549 1258.49,620.478 1260.51,607.856 1262.53,594.699 1264.56,581.022 1266.58,566.837 1268.6,552.176 1270.63,537.043 1272.65,521.503 1274.67,505.527 1276.69,489.184 1278.72,472.472 1280.74,455.435 1282.76,438.107 1284.79,420.512 1286.81,402.683 1288.83,384.69 1290.85,366.481 1292.88,348.143 1294.9,329.72 1296.92,311.237 1298.94,292.728 1300.97,274.241 1302.99,255.779 1305.01,237.434 1307.04,219.206 1309.06,201.14 1311.08,183.239 1313.1,165.624 1315.13,148.299 1317.15,131.278 1319.17,114.621 1321.2,98.357 1323.22,82.5463 1325.24,67.2299 1327.26,52.3908 1329.29,38.1592 1331.31,24.4982 1333.33,11.4014 1335.35,-0.938923 1337.38,-12.5942 1339.4,-23.5283 1341.42,-33.7017 1343.45,-43.0925 1345.47,-51.6015 1347.49,-59.2548 1349.51,-66.0091 1351.54,-71.865 1353.56,-76.7733 1355.58,-80.6361 1357.61,-83.541 1359.63,-85.4262 1361.65,-86.2848 1363.67,-86.0814 1365.7,-84.7642 1367.72,-82.3286 1369.74,-78.8253 1371.76,-74.2178 1373.79,-68.372 1375.81,-61.4178 1377.83,-53.3777 1379.86,-44.1272 1381.88,-33.7065 1383.9,-22.163 1385.92,-9.37057 1387.95,4.46648 1389.97,19.5208 1391.99,35.672 1394.02,53.0379 1396.04,71.4458 1398.06,91.0412 1400.08,111.635 1402.11,133.396 1404.13,156.192 1406.15,179.896 1408.18,204.705 1410.2,230.528 1412.22,257.258 1414.24,284.916 1416.27,313.475 1418.29,342.816 1420.31,373.097 1422.33,404.07 1424.36,435.741 1426.38,468.13 1428.4,501.135 1430.43,534.843 1432.45,569.009 1434.47,603.694 1436.49,638.795 1438.52,674.351 1440.54,710.136 1442.56,746.355 1444.59,782.686 1446.61,819.424 1448.63,856.059 1450.65,892.795 1452.68,929.515 1454.7,966.123 1456.72,1002.73 1458.74,1039.08 1460.77,1075.12 1462.79,1110.88 1464.81,1146.21 1466.84,1181.24 1468.86,1215.47 1470.88,1249.58 1472.9,1282.79 1474.93,1315.29 1476.95,1347.06 1478.97,1377.98 1481,1408.1 1483.02,1437.19 1485.04,1465.22 1487.06,1492.2 1489.09,1518.12 1491.11,1542.92 1493.13,1566.41 1495.15,1588.59 1497.18,1609.3 1499.2,1628.84 1501.22,1646.81 1503.25,1663.22 1505.27,1678.19 1507.29,1691.54 1509.31,1703.34 1511.34,1713.57 1513.36,1721.82 1515.38,1728.69 1517.41,1733.52 1519.43,1736.57 1521.45,1737.94 1523.47,1737.58 1525.5,1735.18 1527.52,1730.67 1529.54,1724.66 1531.57,1716.53 1533.59,1706.53 1535.61,1694.29 1537.63,1680.51 1539.66,1664.67 1541.68,1646.94 1543.7,1627.4 1545.72,1605.98 1547.75,1582.29 1549.77,1557.15 1551.79,1530.03 1553.82,1500.69 1555.84,1470.18 1557.86,1437.27 1559.88,1403.1 1561.91,1367.16 1563.93,1329.13 1565.95,1289.87 1567.98,1249.11 1570,1206.5 1572.02,1162.76 1574.04,1117.17 1576.07,1070.58 1578.09,1022.51 1580.11,972.92 1582.13,922.391 1584.16,870.889 1586.18,818.118 1588.2,764.517 1590.23,710.048 1592.25,654.615 1594.27,598.295 1596.29,541.085 1598.32,484.413 1600.34,426.188 1602.36,368.303 1604.39,309.935 1606.41,251.015 1608.43,192.122 1610.45,132.698 1612.48,73.7462 1614.5,14.6955 1616.52,-44.0924 1618.54,-102.296 1620.57,-159.96 1622.59,-217.898 1624.61,-274.012 1626.64,-330.902 1628.66,-386.582 1630.68,-441.099 1632.7,-495.397 1634.73,-547.114 1636.75,-598.779 1638.77,-649.517 1640.8,-697.82 1642.82,-746.417 1644.84,-791.937 1646.86,-836.902 1648.89,-880.127 1650.91,-921.861 1652.93,-960.965 1654.96,-999.909 1656.98,-1035.71 1659,-1069.33 1661.02,-1101.7 1663.05,-1131.51 1665.07,-1159.32 1667.09,-1186.01 1669.11,-1208.92 1671.14,-1229.33 1673.16,-1249.58 1675.18,-1266.74 1677.21,-1280.67 1679.23,-1291.87 1681.25,-1302.07 1683.27,-1309.91 1685.3,-1314.92 1687.32,-1317.24 1689.34,-1316.97 1691.37,-1315.05 1693.39,-1310.45 1695.41,-1302.91 1697.43,-1292.65 1699.46,-1280.64 1701.48,-1265.78 1703.5,-1249.24 1705.52,-1231.08 1707.55,-1209.99 1709.57,-1185.34 1711.59,-1159.98 1713.62,-1132.82 1715.64,-1101.77 1717.66,-1069.64 1719.68,-1035.9 1721.71,-1000.32 1723.73,-962.83 1725.75,-924.842 1727.78,-882.298 1729.8,-839.941 1731.82,-795.211 1733.84,-749.169 1735.87,-702.91 1737.89,-655.689 1739.91,-604.859 1741.93,-554.57 1743.96,-503.696 1745.98,-450.549 1748,-397.939 1750.03,-342.891 1752.05,-288.117 1754.07,-232.785 1756.09,-179.869 1758.12,-123.536 1760.14,-65.5076 1762.16,-10.4419 1764.19,44.9828 1766.21,98.8006 1768.23,156.318 1770.25,208.405 1772.28,263.353 1774.3,316.469 1776.32,371.689 1778.35,423.493 1780.37,477.441 1782.39,525.842 1784.41,578.419 1786.44,626.086 1788.46,670.179 1790.48,719.303 1792.5,761.549 1794.53,805.776 1796.55,851.781 1798.57,891.295 1800.6,926.978 1802.62,963.298 1804.64,999.435 1806.66,1033.79 1808.69,1063.26 1810.71,1092.88 1812.73,1120.37 1814.76,1144.98 1816.78,1170.36 1818.8,1189.77 1820.82,1213.28 1822.85,1229.99 1824.87,1242.61 1826.89,1257.91 1828.91,1266.03 1830.94,1276.38 1832.96,1287.61 1834.98,1292.86 1837.01,1297.8 1839.03,1300.61 1841.05,1293.9 1843.07,1295.93 1845.1,1293.61 1847.12,1286.84 1849.14,1281.84 1851.17,1274.76 1853.19,1266.45 1855.21,1252.71 1857.23,1240.16 1859.26,1229.1 1861.28,1217.07 1863.3,1194.82 1865.32,1181.29 1867.35,1161.38 1869.37,1142.26 1871.39,1127.94 1873.42,1107.47 1875.44,1089.91 1877.46,1065.29 1879.48,1044.72 1881.51,1024.49 1883.53,998.556 1885.55,982.505 1887.58,958.836 1889.6,937.681 1891.62,920.983 1893.64,897.868 1895.67,882.826 1897.69,863.327 1899.71,842.185 1901.74,821.13 1903.76,804.637 1905.78,789.554 1907.8,768.961 1909.83,757.222 1911.85,742.682 1913.87,729.519 1915.89,719.531 1917.92,704.105 1919.94,703.563 1921.96,690.425 1923.99,684.926 1926.01,679.332 1928.03,670.634 1930.05,664.043 1932.08,665.155 1934.1,658.171 1936.12,662.788 1938.15,667.252 1940.17,669.573 1942.19,673.536 1944.21,664.484 1946.24,685.142 1948.26,685.114 1950.28,694.885 1952.3,692.324 1954.33,702.891 1956.35,712.649 1958.37,723.231 1960.4,732.084 1962.42,743.528 1964.44,743.641 1966.46,755.107 1968.49,761.662 1970.51,776.904 1972.53,783.739 1974.56,793.308 1976.58,796.468 1978.6,805.598 1980.62,820.238 1982.65,809.511 1984.67,816.385 1986.69,816.707 1988.71,823.178 1990.74,824.57 1992.76,823.165 1994.78,814.923 1996.81,810.168 1998.83,810.294 2000.85,805.751 2002.87,793.895 2004.9,772.223 2006.92,765.175 2008.94,761.748 2010.97,748.709 2012.99,727.352 2015.01,704.601 2017.03,688.869 2019.06,655.964 2021.08,639.402 2023.1,631.886 2025.13,612.752 2027.15,567.838 2029.17,559.787 2031.19,523.18 2033.22,496.357 2035.24,492.266 2037.26,451.599 2039.28,447.529 2041.31,404.172 2043.33,385.246 2045.35,378.3 2047.38,343.566 2049.4,347.742 2051.42,328.55 2053.44,312.661 2055.47,306.761 2057.49,318.629 2059.51,299.511 2061.54,302.445 2063.56,309.004 2065.58,321.009 2067.6,355.579 2069.63,365.414 2071.65,387.898 2073.67,407.599 2075.69,463.685 2077.72,488.236 2079.74,542.503 2081.76,578.528 2083.79,670.108 2085.81,719.015 2087.83,774.346 2089.85,872.175 2091.88,940.567 2093.9,1016.7 2095.92,1087.89 2097.95,1192.78 2099.97,1251.71 2101.99,1354.18 2104.01,1424.48 2106.04,1557.92 2108.06,1629 2110.08,1700.83 2112.1,1779.35 2114.13,1880.59 2116.15,1929.05 2118.17,2014.4 2120.2,2044.94 2122.22,2070.73 2124.24,2071.56 2126.26,2127.75 2128.29,2124.01 2130.31,2105.93 2132.33,2050.65 2134.36,1981.17 2136.38,1888.95 2138.4,1829 2140.42,1708.97 2142.45,1542.96 2144.47,1333.57 2146.49,1100.24 2148.52,901.323 2150.54,672.898 2152.56,388.481 2154.58,97.7101 2156.61,-205.986 2158.63,-531.435 2160.65,-886.284 2162.67,-1223.08 2164.7,-1567.3 2166.72,-1943.96 2168.74,-2226.91 2170.77,-2521.28 2172.79,-2722.2 2174.81,-2942.59 2176.83,-3018.68 2178.86,-3047.65 2180.88,-2858.8 2182.9,-2625.89 2184.93,-2133.17 2186.95,-1429.82 2188.97,-481.09 2190.99,699.923 2193.02,2252.67 2195.04,4237.1 2197.06,6641.93 2199.08,9636.49 2201.11,13155.9 2203.13,17275.3 2205.15,22316.2 2207.18,28133.4 2209.2,34966.9 2211.22,42814 2213.24,51967.2 2215.27,62404.6 2217.29,74376.9 2219.31,88022.4 2221.34,103579 2223.36,121085 2225.38,140960 2227.4,163383 2229.43,188505 2231.45,216697 2233.47,248166 2235.49,283400 2237.52,322627 2239.54,366331 2241.56,414698 2243.59,468483 2245.61,527827 2247.63,593652 2249.65,665979 2251.68,745901 2253.7,833773 2255.72,930428 2257.75,1.03646e+06 2259.77,1.1527e+06 2261.79,1.28009e+06 2263.81,1.41938e+06 2265.84,1.57165e+06 2267.86,1.73791e+06 2269.88,1.91934e+06 2271.91,2.11701e+06 2273.93,2.33203e+06 2275.95,2.56607e+06 2277.97,2.82041e+06 2280,3.09668e+06 2282.02,3.39632e+06 2284.04,3.72121e+06 2286.06,4.07325e+06 2288.09,4.1943e+06 2290.11,4.1943e+06 2292.13,4.1943e+06 "/>
<path clip-path="url(#clip960)" d="M1550.4 248.629 L2281.36 248.629 L2281.36 93.1086 L1550.4 93.1086  Z" fill="#ffffff" fill-rule="evenodd" fill-opacity="1"/>
<polyline clip-path="url(#clip960)" style="stroke:#000000; stroke-linecap:round; stroke-linejoin:round; stroke-width:4; stroke-opacity:1; fill:none" points="1550.4,248.629 2281.36,248.629 2281.36,93.1086 1550.4,93.1086 1550.4,248.629 "/>
<circle clip-path="url(#clip960)" cx="1645.6" cy="144.949" r="20.48" fill="#009af9" fill-rule="evenodd" fill-opacity="1" stroke="#000000" stroke-opacity="1" stroke-width="4.55111"/>
<path clip-path="url(#clip960)" d="M1748.21 128.942 L1748.21 136.303 L1756.98 136.303 L1756.98 139.613 L1748.21 139.613 L1748.21 153.687 Q1748.21 156.858 1749.06 157.761 Q1749.94 158.664 1752.6 158.664 L1756.98 158.664 L1756.98 162.229 L1752.6 162.229 Q1747.67 162.229 1745.8 160.4 Q1743.92 158.548 1743.92 153.687 L1743.92 139.613 L1740.8 139.613 L1740.8 136.303 L1743.92 136.303 L1743.92 128.942 L1748.21 128.942 Z" fill="#000000" fill-rule="nonzero" fill-opacity="1" /><path clip-path="url(#clip960)" d="M1762.58 136.303 L1766.84 136.303 L1766.84 162.229 L1762.58 162.229 L1762.58 136.303 M1762.58 126.21 L1766.84 126.21 L1766.84 131.604 L1762.58 131.604 L1762.58 126.21 Z" fill="#000000" fill-rule="nonzero" fill-opacity="1" /><path clip-path="url(#clip960)" d="M1779.97 128.942 L1779.97 136.303 L1788.74 136.303 L1788.74 139.613 L1779.97 139.613 L1779.97 153.687 Q1779.97 156.858 1780.82 157.761 Q1781.7 158.664 1784.36 158.664 L1788.74 158.664 L1788.74 162.229 L1784.36 162.229 Q1779.43 162.229 1777.56 160.4 Q1775.68 158.548 1775.68 153.687 L1775.68 139.613 L1772.56 139.613 L1772.56 136.303 L1775.68 136.303 L1775.68 128.942 L1779.97 128.942 Z" fill="#000000" fill-rule="nonzero" fill-opacity="1" /><path clip-path="url(#clip960)" d="M1794.34 136.303 L1798.6 136.303 L1798.6 162.229 L1794.34 162.229 L1794.34 136.303 M1794.34 126.21 L1798.6 126.21 L1798.6 131.604 L1794.34 131.604 L1794.34 126.21 Z" fill="#000000" fill-rule="nonzero" fill-opacity="1" /><path clip-path="url(#clip960)" d="M1807.35 126.21 L1811.63 126.21 L1811.63 147.483 L1824.34 136.303 L1829.78 136.303 L1816.03 148.432 L1830.36 162.229 L1824.8 162.229 L1811.63 149.567 L1811.63 162.229 L1807.35 162.229 L1807.35 126.21 Z" fill="#000000" fill-rule="nonzero" fill-opacity="1" /><path clip-path="url(#clip960)" d="M1867.09 140.238 L1867.09 126.21 L1871.35 126.21 L1871.35 162.229 L1867.09 162.229 L1867.09 158.34 Q1865.75 160.655 1863.69 161.789 Q1861.65 162.9 1858.78 162.9 Q1854.09 162.9 1851.12 159.15 Q1848.18 155.4 1848.18 149.289 Q1848.18 143.178 1851.12 139.428 Q1854.09 135.678 1858.78 135.678 Q1861.65 135.678 1863.69 136.812 Q1865.75 137.923 1867.09 140.238 M1852.58 149.289 Q1852.58 153.988 1854.5 156.673 Q1856.45 159.335 1859.83 159.335 Q1863.21 159.335 1865.15 156.673 Q1867.09 153.988 1867.09 149.289 Q1867.09 144.59 1865.15 141.928 Q1863.21 139.243 1859.83 139.243 Q1856.45 139.243 1854.5 141.928 Q1852.58 144.59 1852.58 149.289 Z" fill="#000000" fill-rule="nonzero" fill-opacity="1" /><path clip-path="url(#clip960)" d="M1891.91 149.196 Q1886.75 149.196 1884.76 150.377 Q1882.77 151.557 1882.77 154.405 Q1882.77 156.673 1884.25 158.016 Q1885.75 159.335 1888.32 159.335 Q1891.86 159.335 1893.99 156.835 Q1896.15 154.312 1896.15 150.145 L1896.15 149.196 L1891.91 149.196 M1900.4 147.437 L1900.4 162.229 L1896.15 162.229 L1896.15 158.293 Q1894.69 160.655 1892.51 161.789 Q1890.34 162.9 1887.19 162.9 Q1883.21 162.9 1880.84 160.678 Q1878.51 158.432 1878.51 154.682 Q1878.51 150.307 1881.42 148.085 Q1884.36 145.863 1890.17 145.863 L1896.15 145.863 L1896.15 145.446 Q1896.15 142.507 1894.2 140.909 Q1892.28 139.289 1888.78 139.289 Q1886.56 139.289 1884.46 139.821 Q1882.35 140.354 1880.4 141.419 L1880.4 137.483 Q1882.74 136.581 1884.94 136.141 Q1887.14 135.678 1889.22 135.678 Q1894.85 135.678 1897.63 138.594 Q1900.4 141.511 1900.4 147.437 Z" fill="#000000" fill-rule="nonzero" fill-opacity="1" /><path clip-path="url(#clip960)" d="M1913.39 128.942 L1913.39 136.303 L1922.16 136.303 L1922.16 139.613 L1913.39 139.613 L1913.39 153.687 Q1913.39 156.858 1914.25 157.761 Q1915.13 158.664 1917.79 158.664 L1922.16 158.664 L1922.16 162.229 L1917.79 162.229 Q1912.86 162.229 1910.98 160.4 Q1909.11 158.548 1909.11 153.687 L1909.11 139.613 L1905.98 139.613 L1905.98 136.303 L1909.11 136.303 L1909.11 128.942 L1913.39 128.942 Z" fill="#000000" fill-rule="nonzero" fill-opacity="1" /><path clip-path="url(#clip960)" d="M1939.55 149.196 Q1934.39 149.196 1932.4 150.377 Q1930.4 151.557 1930.4 154.405 Q1930.4 156.673 1931.89 158.016 Q1933.39 159.335 1935.96 159.335 Q1939.5 159.335 1941.63 156.835 Q1943.78 154.312 1943.78 150.145 L1943.78 149.196 L1939.55 149.196 M1948.04 147.437 L1948.04 162.229 L1943.78 162.229 L1943.78 158.293 Q1942.33 160.655 1940.15 161.789 Q1937.97 162.9 1934.83 162.9 Q1930.84 162.9 1928.48 160.678 Q1926.15 158.432 1926.15 154.682 Q1926.15 150.307 1929.06 148.085 Q1932 145.863 1937.81 145.863 L1943.78 145.863 L1943.78 145.446 Q1943.78 142.507 1941.84 140.909 Q1939.92 139.289 1936.42 139.289 Q1934.2 139.289 1932.09 139.821 Q1929.99 140.354 1928.04 141.419 L1928.04 137.483 Q1930.38 136.581 1932.58 136.141 Q1934.78 135.678 1936.86 135.678 Q1942.49 135.678 1945.27 138.594 Q1948.04 141.511 1948.04 147.437 Z" fill="#000000" fill-rule="nonzero" fill-opacity="1" /><polyline clip-path="url(#clip960)" style="stroke:#e26f46; stroke-linecap:round; stroke-linejoin:round; stroke-width:8; stroke-opacity:1; fill:none" points="1574.2,196.789 1717,196.789 "/>
<path clip-path="url(#clip960)" d="M1740.8 188.143 L1745.06 188.143 L1745.06 214.069 L1740.8 214.069 L1740.8 188.143 M1740.8 178.05 L1745.06 178.05 L1745.06 183.444 L1740.8 183.444 L1740.8 178.05 Z" fill="#000000" fill-rule="nonzero" fill-opacity="1" /><path clip-path="url(#clip960)" d="M1775.52 198.421 L1775.52 214.069 L1771.26 214.069 L1771.26 198.559 Q1771.26 194.879 1769.83 193.05 Q1768.39 191.222 1765.52 191.222 Q1762.07 191.222 1760.08 193.421 Q1758.09 195.62 1758.09 199.416 L1758.09 214.069 L1753.81 214.069 L1753.81 188.143 L1758.09 188.143 L1758.09 192.171 Q1759.62 189.833 1761.68 188.675 Q1763.76 187.518 1766.47 187.518 Q1770.94 187.518 1773.23 190.296 Q1775.52 193.05 1775.52 198.421 Z" fill="#000000" fill-rule="nonzero" fill-opacity="1" /><path clip-path="url(#clip960)" d="M1788.23 180.782 L1788.23 188.143 L1797 188.143 L1797 191.453 L1788.23 191.453 L1788.23 205.527 Q1788.23 208.698 1789.09 209.601 Q1789.97 210.504 1792.63 210.504 L1797 210.504 L1797 214.069 L1792.63 214.069 Q1787.7 214.069 1785.82 212.24 Q1783.95 210.388 1783.95 205.527 L1783.95 191.453 L1780.82 191.453 L1780.82 188.143 L1783.95 188.143 L1783.95 180.782 L1788.23 180.782 Z" fill="#000000" fill-rule="nonzero" fill-opacity="1" /><path clip-path="url(#clip960)" d="M1824.78 200.041 L1824.78 202.124 L1805.2 202.124 Q1805.47 206.522 1807.84 208.837 Q1810.22 211.129 1814.46 211.129 Q1816.91 211.129 1819.2 210.527 Q1821.52 209.925 1823.78 208.721 L1823.78 212.749 Q1821.49 213.721 1819.09 214.231 Q1816.68 214.74 1814.2 214.74 Q1808 214.74 1804.36 211.129 Q1800.75 207.518 1800.75 201.36 Q1800.75 194.995 1804.18 191.268 Q1807.63 187.518 1813.46 187.518 Q1818.69 187.518 1821.72 190.897 Q1824.78 194.254 1824.78 200.041 M1820.52 198.791 Q1820.47 195.296 1818.55 193.212 Q1816.66 191.129 1813.51 191.129 Q1809.94 191.129 1807.79 193.143 Q1805.66 195.157 1805.34 198.814 L1820.52 198.791 Z" fill="#000000" fill-rule="nonzero" fill-opacity="1" /><path clip-path="url(#clip960)" d="M1846.79 192.124 Q1846.08 191.708 1845.22 191.522 Q1844.39 191.314 1843.37 191.314 Q1839.76 191.314 1837.81 193.675 Q1835.89 196.013 1835.89 200.411 L1835.89 214.069 L1831.61 214.069 L1831.61 188.143 L1835.89 188.143 L1835.89 192.171 Q1837.23 189.809 1839.39 188.675 Q1841.54 187.518 1844.62 187.518 Q1845.06 187.518 1845.59 187.587 Q1846.12 187.634 1846.77 187.749 L1846.79 192.124 Z" fill="#000000" fill-rule="nonzero" fill-opacity="1" /><path clip-path="url(#clip960)" d="M1855.38 210.18 L1855.38 223.93 L1851.1 223.93 L1851.1 188.143 L1855.38 188.143 L1855.38 192.078 Q1856.72 189.763 1858.76 188.652 Q1860.82 187.518 1863.67 187.518 Q1868.39 187.518 1871.33 191.268 Q1874.29 195.018 1874.29 201.129 Q1874.29 207.24 1871.33 210.99 Q1868.39 214.74 1863.67 214.74 Q1860.82 214.74 1858.76 213.629 Q1856.72 212.495 1855.38 210.18 M1869.87 201.129 Q1869.87 196.43 1867.93 193.768 Q1866.01 191.083 1862.63 191.083 Q1859.25 191.083 1857.3 193.768 Q1855.38 196.43 1855.38 201.129 Q1855.38 205.828 1857.3 208.513 Q1859.25 211.175 1862.63 211.175 Q1866.01 211.175 1867.93 208.513 Q1869.87 205.828 1869.87 201.129 Z" fill="#000000" fill-rule="nonzero" fill-opacity="1" /><path clip-path="url(#clip960)" d="M1891.4 191.129 Q1887.97 191.129 1885.98 193.814 Q1883.99 196.476 1883.99 201.129 Q1883.99 205.782 1885.96 208.467 Q1887.95 211.129 1891.4 211.129 Q1894.8 211.129 1896.79 208.444 Q1898.78 205.758 1898.78 201.129 Q1898.78 196.522 1896.79 193.837 Q1894.8 191.129 1891.4 191.129 M1891.4 187.518 Q1896.96 187.518 1900.13 191.129 Q1903.3 194.74 1903.3 201.129 Q1903.3 207.495 1900.13 211.129 Q1896.96 214.74 1891.4 214.74 Q1885.82 214.74 1882.65 211.129 Q1879.5 207.495 1879.5 201.129 Q1879.5 194.74 1882.65 191.129 Q1885.82 187.518 1891.4 187.518 Z" fill="#000000" fill-rule="nonzero" fill-opacity="1" /><path clip-path="url(#clip960)" d="M1910.36 178.05 L1914.62 178.05 L1914.62 214.069 L1910.36 214.069 L1910.36 178.05 Z" fill="#000000" fill-rule="nonzero" fill-opacity="1" /><path clip-path="url(#clip960)" d="M1935.31 201.036 Q1930.15 201.036 1928.16 202.217 Q1926.17 203.397 1926.17 206.245 Q1926.17 208.513 1927.65 209.856 Q1929.15 211.175 1931.72 211.175 Q1935.27 211.175 1937.4 208.675 Q1939.55 206.152 1939.55 201.985 L1939.55 201.036 L1935.31 201.036 M1943.81 199.277 L1943.81 214.069 L1939.55 214.069 L1939.55 210.133 Q1938.09 212.495 1935.91 213.629 Q1933.74 214.74 1930.59 214.74 Q1926.61 214.74 1924.25 212.518 Q1921.91 210.272 1921.91 206.522 Q1921.91 202.147 1924.83 199.925 Q1927.77 197.703 1933.58 197.703 L1939.55 197.703 L1939.55 197.286 Q1939.55 194.347 1937.6 192.749 Q1935.68 191.129 1932.19 191.129 Q1929.96 191.129 1927.86 191.661 Q1925.75 192.194 1923.81 193.259 L1923.81 189.323 Q1926.15 188.421 1928.34 187.981 Q1930.54 187.518 1932.63 187.518 Q1938.25 187.518 1941.03 190.434 Q1943.81 193.351 1943.81 199.277 Z" fill="#000000" fill-rule="nonzero" fill-opacity="1" /><path clip-path="url(#clip960)" d="M1969.11 188.907 L1969.11 192.934 Q1967.3 192.009 1965.36 191.546 Q1963.41 191.083 1961.33 191.083 Q1958.16 191.083 1956.56 192.055 Q1954.99 193.027 1954.99 194.971 Q1954.99 196.453 1956.12 197.309 Q1957.26 198.143 1960.68 198.907 L1962.14 199.231 Q1966.68 200.203 1968.58 201.985 Q1970.5 203.745 1970.5 206.916 Q1970.5 210.527 1967.63 212.633 Q1964.78 214.74 1959.78 214.74 Q1957.7 214.74 1955.43 214.323 Q1953.18 213.93 1950.68 213.12 L1950.68 208.721 Q1953.04 209.948 1955.33 210.573 Q1957.63 211.175 1959.87 211.175 Q1962.88 211.175 1964.5 210.157 Q1966.12 209.115 1966.12 207.24 Q1966.12 205.504 1964.94 204.578 Q1963.78 203.652 1959.83 202.796 L1958.34 202.448 Q1954.39 201.615 1952.63 199.902 Q1950.87 198.166 1950.87 195.157 Q1950.87 191.499 1953.46 189.509 Q1956.05 187.518 1960.82 187.518 Q1963.18 187.518 1965.27 187.865 Q1967.35 188.212 1969.11 188.907 Z" fill="#000000" fill-rule="nonzero" fill-opacity="1" /><path clip-path="url(#clip960)" d="M1977.28 188.143 L1981.54 188.143 L1981.54 214.069 L1977.28 214.069 L1977.28 188.143 M1977.28 178.05 L1981.54 178.05 L1981.54 183.444 L1977.28 183.444 L1977.28 178.05 Z" fill="#000000" fill-rule="nonzero" fill-opacity="1" /><path clip-path="url(#clip960)" d="M2009.64 210.18 L2009.64 223.93 L2005.36 223.93 L2005.36 188.143 L2009.64 188.143 L2009.64 192.078 Q2010.98 189.763 2013.02 188.652 Q2015.08 187.518 2017.93 187.518 Q2022.65 187.518 2025.59 191.268 Q2028.55 195.018 2028.55 201.129 Q2028.55 207.24 2025.59 210.99 Q2022.65 214.74 2017.93 214.74 Q2015.08 214.74 2013.02 213.629 Q2010.98 212.495 2009.64 210.18 M2024.13 201.129 Q2024.13 196.43 2022.19 193.768 Q2020.27 191.083 2016.89 191.083 Q2013.51 191.083 2011.56 193.768 Q2009.64 196.43 2009.64 201.129 Q2009.64 205.828 2011.56 208.513 Q2013.51 211.175 2016.89 211.175 Q2020.27 211.175 2022.19 208.513 Q2024.13 205.828 2024.13 201.129 Z" fill="#000000" fill-rule="nonzero" fill-opacity="1" /><path clip-path="url(#clip960)" d="M2045.66 191.129 Q2042.23 191.129 2040.24 193.814 Q2038.25 196.476 2038.25 201.129 Q2038.25 205.782 2040.22 208.467 Q2042.21 211.129 2045.66 211.129 Q2049.06 211.129 2051.05 208.444 Q2053.04 205.758 2053.04 201.129 Q2053.04 196.522 2051.05 193.837 Q2049.06 191.129 2045.66 191.129 M2045.66 187.518 Q2051.21 187.518 2054.39 191.129 Q2057.56 194.74 2057.56 201.129 Q2057.56 207.495 2054.39 211.129 Q2051.21 214.74 2045.66 214.74 Q2040.08 214.74 2036.91 211.129 Q2033.76 207.495 2033.76 201.129 Q2033.76 194.74 2036.91 191.129 Q2040.08 187.518 2045.66 187.518 Z" fill="#000000" fill-rule="nonzero" fill-opacity="1" /><path clip-path="url(#clip960)" d="M2064.62 178.05 L2068.88 178.05 L2068.88 214.069 L2064.62 214.069 L2064.62 178.05 Z" fill="#000000" fill-rule="nonzero" fill-opacity="1" /><path clip-path="url(#clip960)" d="M2088.57 216.476 Q2086.77 221.106 2085.06 222.518 Q2083.34 223.93 2080.47 223.93 L2077.07 223.93 L2077.07 220.365 L2079.57 220.365 Q2081.33 220.365 2082.3 219.532 Q2083.27 218.698 2084.45 215.596 L2085.22 213.652 L2074.73 188.143 L2079.25 188.143 L2087.35 208.421 L2095.45 188.143 L2099.96 188.143 L2088.57 216.476 Z" fill="#000000" fill-rule="nonzero" fill-opacity="1" /><path clip-path="url(#clip960)" d="M2127.39 198.421 L2127.39 214.069 L2123.13 214.069 L2123.13 198.559 Q2123.13 194.879 2121.7 193.05 Q2120.26 191.222 2117.39 191.222 Q2113.95 191.222 2111.95 193.421 Q2109.96 195.62 2109.96 199.416 L2109.96 214.069 L2105.68 214.069 L2105.68 188.143 L2109.96 188.143 L2109.96 192.171 Q2111.49 189.833 2113.55 188.675 Q2115.63 187.518 2118.34 187.518 Q2122.81 187.518 2125.1 190.296 Q2127.39 193.05 2127.39 198.421 Z" fill="#000000" fill-rule="nonzero" fill-opacity="1" /><path clip-path="url(#clip960)" d="M2145.94 191.129 Q2142.51 191.129 2140.52 193.814 Q2138.53 196.476 2138.53 201.129 Q2138.53 205.782 2140.5 208.467 Q2142.49 211.129 2145.94 211.129 Q2149.34 211.129 2151.33 208.444 Q2153.32 205.758 2153.32 201.129 Q2153.32 196.522 2151.33 193.837 Q2149.34 191.129 2145.94 191.129 M2145.94 187.518 Q2151.49 187.518 2154.66 191.129 Q2157.83 194.74 2157.83 201.129 Q2157.83 207.495 2154.66 211.129 Q2151.49 214.74 2145.94 214.74 Q2140.36 214.74 2137.19 211.129 Q2134.04 207.495 2134.04 201.129 Q2134.04 194.74 2137.19 191.129 Q2140.36 187.518 2145.94 187.518 Z" fill="#000000" fill-rule="nonzero" fill-opacity="1" /><path clip-path="url(#clip960)" d="M2185.08 193.12 Q2186.68 190.249 2188.9 188.884 Q2191.12 187.518 2194.13 187.518 Q2198.18 187.518 2200.38 190.365 Q2202.58 193.189 2202.58 198.421 L2202.58 214.069 L2198.3 214.069 L2198.3 198.559 Q2198.3 194.833 2196.98 193.027 Q2195.66 191.222 2192.95 191.222 Q2189.64 191.222 2187.72 193.421 Q2185.8 195.62 2185.8 199.416 L2185.8 214.069 L2181.51 214.069 L2181.51 198.559 Q2181.51 194.809 2180.19 193.027 Q2178.88 191.222 2176.12 191.222 Q2172.86 191.222 2170.94 193.444 Q2169.01 195.643 2169.01 199.416 L2169.01 214.069 L2164.73 214.069 L2164.73 188.143 L2169.01 188.143 L2169.01 192.171 Q2170.47 189.786 2172.51 188.652 Q2174.55 187.518 2177.35 187.518 Q2180.17 187.518 2182.14 188.953 Q2184.13 190.388 2185.08 193.12 Z" fill="#000000" fill-rule="nonzero" fill-opacity="1" /><path clip-path="url(#clip960)" d="M2211.07 188.143 L2215.33 188.143 L2215.33 214.069 L2211.07 214.069 L2211.07 188.143 M2211.07 178.05 L2215.33 178.05 L2215.33 183.444 L2211.07 183.444 L2211.07 178.05 Z" fill="#000000" fill-rule="nonzero" fill-opacity="1" /><path clip-path="url(#clip960)" d="M2236.03 201.036 Q2230.87 201.036 2228.88 202.217 Q2226.88 203.397 2226.88 206.245 Q2226.88 208.513 2228.37 209.856 Q2229.87 211.175 2232.44 211.175 Q2235.98 211.175 2238.11 208.675 Q2240.26 206.152 2240.26 201.985 L2240.26 201.036 L2236.03 201.036 M2244.52 199.277 L2244.52 214.069 L2240.26 214.069 L2240.26 210.133 Q2238.81 212.495 2236.63 213.629 Q2234.45 214.74 2231.31 214.74 Q2227.32 214.74 2224.96 212.518 Q2222.63 210.272 2222.63 206.522 Q2222.63 202.147 2225.54 199.925 Q2228.48 197.703 2234.29 197.703 L2240.26 197.703 L2240.26 197.286 Q2240.26 194.347 2238.32 192.749 Q2236.4 191.129 2232.9 191.129 Q2230.68 191.129 2228.57 191.661 Q2226.47 192.194 2224.52 193.259 L2224.52 189.323 Q2226.86 188.421 2229.06 187.981 Q2231.26 187.518 2233.34 187.518 Q2238.97 187.518 2241.75 190.434 Q2244.52 193.351 2244.52 199.277 Z" fill="#000000" fill-rule="nonzero" fill-opacity="1" /><path clip-path="url(#clip960)" d="M2253.3 178.05 L2257.56 178.05 L2257.56 214.069 L2253.3 214.069 L2253.3 178.05 Z" fill="#000000" fill-rule="nonzero" fill-opacity="1" /></svg>
