<?xml version="1.0" encoding="utf-8"?>
<svg xmlns="http://www.w3.org/2000/svg" xmlns:xlink="http://www.w3.org/1999/xlink" width="600" height="400" viewBox="0 0 2400 1600">
<defs>
  <clipPath id="clip600">
    <rect x="0" y="0" width="2400" height="1600"/>
  </clipPath>
</defs>
<path clip-path="url(#clip600)" d="M0 1600 L2400 1600 L2400 0 L0 0  Z" fill="#ffffff" fill-rule="evenodd" fill-opacity="1"/>
<defs>
  <clipPath id="clip601">
    <rect x="480" y="0" width="1681" height="1600"/>
  </clipPath>
</defs>
<path clip-path="url(#clip600)" d="M219.866 1423.18 L2352.76 1423.18 L2352.76 47.2441 L219.866 47.2441  Z" fill="#ffffff" fill-rule="evenodd" fill-opacity="1"/>
<defs>
  <clipPath id="clip602">
    <rect x="219" y="47" width="2134" height="1377"/>
  </clipPath>
</defs>
<polyline clip-path="url(#clip602)" style="stroke:#000000; stroke-linecap:round; stroke-linejoin:round; stroke-width:2; stroke-opacity:0.1; fill:none" points="703.844,1423.18 703.844,47.2441 "/>
<polyline clip-path="url(#clip602)" style="stroke:#000000; stroke-linecap:round; stroke-linejoin:round; stroke-width:2; stroke-opacity:0.1; fill:none" points="1233.36,1423.18 1233.36,47.2441 "/>
<polyline clip-path="url(#clip602)" style="stroke:#000000; stroke-linecap:round; stroke-linejoin:round; stroke-width:2; stroke-opacity:0.1; fill:none" points="1762.88,1423.18 1762.88,47.2441 "/>
<polyline clip-path="url(#clip602)" style="stroke:#000000; stroke-linecap:round; stroke-linejoin:round; stroke-width:2; stroke-opacity:0.1; fill:none" points="2292.39,1423.18 2292.39,47.2441 "/>
<polyline clip-path="url(#clip600)" style="stroke:#000000; stroke-linecap:round; stroke-linejoin:round; stroke-width:4; stroke-opacity:1; fill:none" points="219.866,1423.18 2352.76,1423.18 "/>
<polyline clip-path="url(#clip600)" style="stroke:#000000; stroke-linecap:round; stroke-linejoin:round; stroke-width:4; stroke-opacity:1; fill:none" points="703.844,1423.18 703.844,1404.28 "/>
<polyline clip-path="url(#clip600)" style="stroke:#000000; stroke-linecap:round; stroke-linejoin:round; stroke-width:4; stroke-opacity:1; fill:none" points="1233.36,1423.18 1233.36,1404.28 "/>
<polyline clip-path="url(#clip600)" style="stroke:#000000; stroke-linecap:round; stroke-linejoin:round; stroke-width:4; stroke-opacity:1; fill:none" points="1762.88,1423.18 1762.88,1404.28 "/>
<polyline clip-path="url(#clip600)" style="stroke:#000000; stroke-linecap:round; stroke-linejoin:round; stroke-width:4; stroke-opacity:1; fill:none" points="2292.39,1423.18 2292.39,1404.28 "/>
<path clip-path="url(#clip600)" d="M650.869 1468.75 L680.545 1468.75 L680.545 1472.69 L650.869 1472.69 L650.869 1468.75 Z" fill="#000000" fill-rule="nonzero" fill-opacity="1" /><path clip-path="url(#clip600)" d="M700.638 1454.1 Q697.027 1454.1 695.198 1457.66 Q693.392 1461.2 693.392 1468.33 Q693.392 1475.44 695.198 1479.01 Q697.027 1482.55 700.638 1482.55 Q704.272 1482.55 706.077 1479.01 Q707.906 1475.44 707.906 1468.33 Q707.906 1461.2 706.077 1457.66 Q704.272 1454.1 700.638 1454.1 M700.638 1450.39 Q706.448 1450.39 709.503 1455 Q712.582 1459.58 712.582 1468.33 Q712.582 1477.06 709.503 1481.67 Q706.448 1486.25 700.638 1486.25 Q694.828 1486.25 691.749 1481.67 Q688.693 1477.06 688.693 1468.33 Q688.693 1459.58 691.749 1455 Q694.828 1450.39 700.638 1450.39 Z" fill="#000000" fill-rule="nonzero" fill-opacity="1" /><path clip-path="url(#clip600)" d="M720.8 1479.7 L725.684 1479.7 L725.684 1485.58 L720.8 1485.58 L720.8 1479.7 Z" fill="#000000" fill-rule="nonzero" fill-opacity="1" /><path clip-path="url(#clip600)" d="M735.915 1451.02 L754.272 1451.02 L754.272 1454.96 L740.198 1454.96 L740.198 1463.43 Q741.216 1463.08 742.235 1462.92 Q743.253 1462.73 744.272 1462.73 Q750.059 1462.73 753.438 1465.9 Q756.818 1469.08 756.818 1474.49 Q756.818 1480.07 753.346 1483.17 Q749.874 1486.25 743.554 1486.25 Q741.378 1486.25 739.11 1485.88 Q736.864 1485.51 734.457 1484.77 L734.457 1480.07 Q736.54 1481.2 738.763 1481.76 Q740.985 1482.32 743.462 1482.32 Q747.466 1482.32 749.804 1480.21 Q752.142 1478.1 752.142 1474.49 Q752.142 1470.88 749.804 1468.77 Q747.466 1466.67 743.462 1466.67 Q741.587 1466.67 739.712 1467.08 Q737.86 1467.5 735.915 1468.38 L735.915 1451.02 Z" fill="#000000" fill-rule="nonzero" fill-opacity="1" /><path clip-path="url(#clip600)" d="M1210.74 1454.1 Q1207.13 1454.1 1205.3 1457.66 Q1203.5 1461.2 1203.5 1468.33 Q1203.5 1475.44 1205.3 1479.01 Q1207.13 1482.55 1210.74 1482.55 Q1214.38 1482.55 1216.18 1479.01 Q1218.01 1475.44 1218.01 1468.33 Q1218.01 1461.2 1216.18 1457.66 Q1214.38 1454.1 1210.74 1454.1 M1210.74 1450.39 Q1216.55 1450.39 1219.61 1455 Q1222.69 1459.58 1222.69 1468.33 Q1222.69 1477.06 1219.61 1481.67 Q1216.55 1486.25 1210.74 1486.25 Q1204.93 1486.25 1201.86 1481.67 Q1198.8 1477.06 1198.8 1468.33 Q1198.8 1459.58 1201.86 1455 Q1204.93 1450.39 1210.74 1450.39 Z" fill="#000000" fill-rule="nonzero" fill-opacity="1" /><path clip-path="url(#clip600)" d="M1230.91 1479.7 L1235.79 1479.7 L1235.79 1485.58 L1230.91 1485.58 L1230.91 1479.7 Z" fill="#000000" fill-rule="nonzero" fill-opacity="1" /><path clip-path="url(#clip600)" d="M1255.98 1454.1 Q1252.36 1454.1 1250.54 1457.66 Q1248.73 1461.2 1248.73 1468.33 Q1248.73 1475.44 1250.54 1479.01 Q1252.36 1482.55 1255.98 1482.55 Q1259.61 1482.55 1261.41 1479.01 Q1263.24 1475.44 1263.24 1468.33 Q1263.24 1461.2 1261.41 1457.66 Q1259.61 1454.1 1255.98 1454.1 M1255.98 1450.39 Q1261.79 1450.39 1264.84 1455 Q1267.92 1459.58 1267.92 1468.33 Q1267.92 1477.06 1264.84 1481.67 Q1261.79 1486.25 1255.98 1486.25 Q1250.16 1486.25 1247.09 1481.67 Q1244.03 1477.06 1244.03 1468.33 Q1244.03 1459.58 1247.09 1455 Q1250.16 1450.39 1255.98 1450.39 Z" fill="#000000" fill-rule="nonzero" fill-opacity="1" /><path clip-path="url(#clip600)" d="M1740.76 1454.1 Q1737.15 1454.1 1735.32 1457.66 Q1733.51 1461.2 1733.51 1468.33 Q1733.51 1475.44 1735.32 1479.01 Q1737.15 1482.55 1740.76 1482.55 Q1744.39 1482.55 1746.2 1479.01 Q1748.03 1475.44 1748.03 1468.33 Q1748.03 1461.2 1746.2 1457.66 Q1744.39 1454.1 1740.76 1454.1 M1740.76 1450.39 Q1746.57 1450.39 1749.62 1455 Q1752.7 1459.58 1752.7 1468.33 Q1752.7 1477.06 1749.62 1481.67 Q1746.57 1486.25 1740.76 1486.25 Q1734.95 1486.25 1731.87 1481.67 Q1728.81 1477.06 1728.81 1468.33 Q1728.81 1459.58 1731.87 1455 Q1734.95 1450.39 1740.76 1450.39 Z" fill="#000000" fill-rule="nonzero" fill-opacity="1" /><path clip-path="url(#clip600)" d="M1760.92 1479.7 L1765.8 1479.7 L1765.8 1485.58 L1760.92 1485.58 L1760.92 1479.7 Z" fill="#000000" fill-rule="nonzero" fill-opacity="1" /><path clip-path="url(#clip600)" d="M1776.03 1451.02 L1794.39 1451.02 L1794.39 1454.96 L1780.32 1454.96 L1780.32 1463.43 Q1781.34 1463.08 1782.35 1462.92 Q1783.37 1462.73 1784.39 1462.73 Q1790.18 1462.73 1793.56 1465.9 Q1796.94 1469.08 1796.94 1474.49 Q1796.94 1480.07 1793.47 1483.17 Q1789.99 1486.25 1783.67 1486.25 Q1781.5 1486.25 1779.23 1485.88 Q1776.98 1485.51 1774.58 1484.77 L1774.58 1480.07 Q1776.66 1481.2 1778.88 1481.76 Q1781.1 1482.32 1783.58 1482.32 Q1787.59 1482.32 1789.92 1480.21 Q1792.26 1478.1 1792.26 1474.49 Q1792.26 1470.88 1789.92 1468.77 Q1787.59 1466.67 1783.58 1466.67 Q1781.71 1466.67 1779.83 1467.08 Q1777.98 1467.5 1776.03 1468.38 L1776.03 1451.02 Z" fill="#000000" fill-rule="nonzero" fill-opacity="1" /><path clip-path="url(#clip600)" d="M2259.54 1481.64 L2267.18 1481.64 L2267.18 1455.28 L2258.87 1456.95 L2258.87 1452.69 L2267.14 1451.02 L2271.81 1451.02 L2271.81 1481.64 L2279.45 1481.64 L2279.45 1485.58 L2259.54 1485.58 L2259.54 1481.64 Z" fill="#000000" fill-rule="nonzero" fill-opacity="1" /><path clip-path="url(#clip600)" d="M2288.9 1479.7 L2293.78 1479.7 L2293.78 1485.58 L2288.9 1485.58 L2288.9 1479.7 Z" fill="#000000" fill-rule="nonzero" fill-opacity="1" /><path clip-path="url(#clip600)" d="M2313.97 1454.1 Q2310.35 1454.1 2308.53 1457.66 Q2306.72 1461.2 2306.72 1468.33 Q2306.72 1475.44 2308.53 1479.01 Q2310.35 1482.55 2313.97 1482.55 Q2317.6 1482.55 2319.4 1479.01 Q2321.23 1475.44 2321.23 1468.33 Q2321.23 1461.2 2319.4 1457.66 Q2317.6 1454.1 2313.97 1454.1 M2313.97 1450.39 Q2319.78 1450.39 2322.83 1455 Q2325.91 1459.58 2325.91 1468.33 Q2325.91 1477.06 2322.83 1481.67 Q2319.78 1486.25 2313.97 1486.25 Q2308.15 1486.25 2305.08 1481.67 Q2302.02 1477.06 2302.02 1468.33 Q2302.02 1459.58 2305.08 1455 Q2308.15 1450.39 2313.97 1450.39 Z" fill="#000000" fill-rule="nonzero" fill-opacity="1" /><path clip-path="url(#clip600)" d="M1302.93 1532.4 L1290.04 1549.74 L1303.59 1568.04 L1296.69 1568.04 L1286.31 1554.04 L1275.93 1568.04 L1269.03 1568.04 L1282.87 1549.39 L1270.21 1532.4 L1277.11 1532.4 L1286.57 1545.1 L1296.02 1532.4 L1302.93 1532.4 Z" fill="#000000" fill-rule="nonzero" fill-opacity="1" /><polyline clip-path="url(#clip602)" style="stroke:#000000; stroke-linecap:round; stroke-linejoin:round; stroke-width:2; stroke-opacity:0.1; fill:none" points="219.866,1166.17 2352.76,1166.17 "/>
<polyline clip-path="url(#clip602)" style="stroke:#000000; stroke-linecap:round; stroke-linejoin:round; stroke-width:2; stroke-opacity:0.1; fill:none" points="219.866,896.17 2352.76,896.17 "/>
<polyline clip-path="url(#clip602)" style="stroke:#000000; stroke-linecap:round; stroke-linejoin:round; stroke-width:2; stroke-opacity:0.1; fill:none" points="219.866,626.176 2352.76,626.176 "/>
<polyline clip-path="url(#clip602)" style="stroke:#000000; stroke-linecap:round; stroke-linejoin:round; stroke-width:2; stroke-opacity:0.1; fill:none" points="219.866,356.181 2352.76,356.181 "/>
<polyline clip-path="url(#clip602)" style="stroke:#000000; stroke-linecap:round; stroke-linejoin:round; stroke-width:2; stroke-opacity:0.1; fill:none" points="219.866,86.1857 2352.76,86.1857 "/>
<polyline clip-path="url(#clip600)" style="stroke:#000000; stroke-linecap:round; stroke-linejoin:round; stroke-width:4; stroke-opacity:1; fill:none" points="219.866,1423.18 219.866,47.2441 "/>
<polyline clip-path="url(#clip600)" style="stroke:#000000; stroke-linecap:round; stroke-linejoin:round; stroke-width:4; stroke-opacity:1; fill:none" points="219.866,1166.17 238.764,1166.17 "/>
<polyline clip-path="url(#clip600)" style="stroke:#000000; stroke-linecap:round; stroke-linejoin:round; stroke-width:4; stroke-opacity:1; fill:none" points="219.866,896.17 238.764,896.17 "/>
<polyline clip-path="url(#clip600)" style="stroke:#000000; stroke-linecap:round; stroke-linejoin:round; stroke-width:4; stroke-opacity:1; fill:none" points="219.866,626.176 238.764,626.176 "/>
<polyline clip-path="url(#clip600)" style="stroke:#000000; stroke-linecap:round; stroke-linejoin:round; stroke-width:4; stroke-opacity:1; fill:none" points="219.866,356.181 238.764,356.181 "/>
<polyline clip-path="url(#clip600)" style="stroke:#000000; stroke-linecap:round; stroke-linejoin:round; stroke-width:4; stroke-opacity:1; fill:none" points="219.866,86.1857 238.764,86.1857 "/>
<path clip-path="url(#clip600)" d="M128.288 1151.96 Q124.677 1151.96 122.848 1155.53 Q121.043 1159.07 121.043 1166.2 Q121.043 1173.31 122.848 1176.87 Q124.677 1180.41 128.288 1180.41 Q131.922 1180.41 133.728 1176.87 Q135.556 1173.31 135.556 1166.2 Q135.556 1159.07 133.728 1155.53 Q131.922 1151.96 128.288 1151.96 M128.288 1148.26 Q134.098 1148.26 137.154 1152.87 Q140.232 1157.45 140.232 1166.2 Q140.232 1174.93 137.154 1179.53 Q134.098 1184.12 128.288 1184.12 Q122.478 1184.12 119.399 1179.53 Q116.343 1174.93 116.343 1166.2 Q116.343 1157.45 119.399 1152.87 Q122.478 1148.26 128.288 1148.26 Z" fill="#000000" fill-rule="nonzero" fill-opacity="1" /><path clip-path="url(#clip600)" d="M148.45 1177.57 L153.334 1177.57 L153.334 1183.45 L148.45 1183.45 L148.45 1177.57 Z" fill="#000000" fill-rule="nonzero" fill-opacity="1" /><path clip-path="url(#clip600)" d="M167.547 1179.51 L183.866 1179.51 L183.866 1183.45 L161.922 1183.45 L161.922 1179.51 Q164.584 1176.76 169.167 1172.13 Q173.774 1167.47 174.954 1166.13 Q177.2 1163.61 178.079 1161.87 Q178.982 1160.11 178.982 1158.42 Q178.982 1155.67 177.038 1153.93 Q175.116 1152.2 172.014 1152.2 Q169.815 1152.2 167.362 1152.96 Q164.931 1153.72 162.153 1155.27 L162.153 1150.55 Q164.977 1149.42 167.431 1148.84 Q169.885 1148.26 171.922 1148.26 Q177.292 1148.26 180.487 1150.95 Q183.681 1153.63 183.681 1158.12 Q183.681 1160.25 182.871 1162.17 Q182.084 1164.07 179.977 1166.66 Q179.399 1167.33 176.297 1170.55 Q173.195 1173.75 167.547 1179.51 Z" fill="#000000" fill-rule="nonzero" fill-opacity="1" /><path clip-path="url(#clip600)" d="M126.205 881.969 Q122.593 881.969 120.765 885.534 Q118.959 889.076 118.959 896.205 Q118.959 903.312 120.765 906.876 Q122.593 910.418 126.205 910.418 Q129.839 910.418 131.644 906.876 Q133.473 903.312 133.473 896.205 Q133.473 889.076 131.644 885.534 Q129.839 881.969 126.205 881.969 M126.205 878.265 Q132.015 878.265 135.07 882.872 Q138.149 887.455 138.149 896.205 Q138.149 904.932 135.07 909.538 Q132.015 914.122 126.205 914.122 Q120.394 914.122 117.316 909.538 Q114.26 904.932 114.26 896.205 Q114.26 887.455 117.316 882.872 Q120.394 878.265 126.205 878.265 Z" fill="#000000" fill-rule="nonzero" fill-opacity="1" /><path clip-path="url(#clip600)" d="M146.366 907.571 L151.251 907.571 L151.251 913.45 L146.366 913.45 L146.366 907.571 Z" fill="#000000" fill-rule="nonzero" fill-opacity="1" /><path clip-path="url(#clip600)" d="M174.283 882.965 L162.477 901.414 L174.283 901.414 L174.283 882.965 M173.056 878.89 L178.936 878.89 L178.936 901.414 L183.866 901.414 L183.866 905.302 L178.936 905.302 L178.936 913.45 L174.283 913.45 L174.283 905.302 L158.681 905.302 L158.681 900.789 L173.056 878.89 Z" fill="#000000" fill-rule="nonzero" fill-opacity="1" /><path clip-path="url(#clip600)" d="M126.529 611.974 Q122.918 611.974 121.089 615.539 Q119.283 619.081 119.283 626.21 Q119.283 633.317 121.089 636.882 Q122.918 640.423 126.529 640.423 Q130.163 640.423 131.968 636.882 Q133.797 633.317 133.797 626.21 Q133.797 619.081 131.968 615.539 Q130.163 611.974 126.529 611.974 M126.529 608.271 Q132.339 608.271 135.394 612.877 Q138.473 617.46 138.473 626.21 Q138.473 634.937 135.394 639.544 Q132.339 644.127 126.529 644.127 Q120.718 644.127 117.64 639.544 Q114.584 634.937 114.584 626.21 Q114.584 617.46 117.64 612.877 Q120.718 608.271 126.529 608.271 Z" fill="#000000" fill-rule="nonzero" fill-opacity="1" /><path clip-path="url(#clip600)" d="M146.691 637.576 L151.575 637.576 L151.575 643.456 L146.691 643.456 L146.691 637.576 Z" fill="#000000" fill-rule="nonzero" fill-opacity="1" /><path clip-path="url(#clip600)" d="M172.339 624.312 Q169.19 624.312 167.339 626.465 Q165.51 628.618 165.51 632.368 Q165.51 636.094 167.339 638.27 Q169.19 640.423 172.339 640.423 Q175.487 640.423 177.315 638.27 Q179.167 636.094 179.167 632.368 Q179.167 628.618 177.315 626.465 Q175.487 624.312 172.339 624.312 M181.621 609.659 L181.621 613.919 Q179.862 613.085 178.056 612.646 Q176.274 612.206 174.514 612.206 Q169.885 612.206 167.431 615.331 Q165.001 618.456 164.653 624.775 Q166.019 622.761 168.079 621.696 Q170.139 620.608 172.616 620.608 Q177.825 620.608 180.834 623.78 Q183.866 626.928 183.866 632.368 Q183.866 637.692 180.718 640.909 Q177.57 644.127 172.339 644.127 Q166.343 644.127 163.172 639.544 Q160.001 634.937 160.001 626.21 Q160.001 618.016 163.89 613.155 Q167.778 608.271 174.329 608.271 Q176.089 608.271 177.871 608.618 Q179.676 608.965 181.621 609.659 Z" fill="#000000" fill-rule="nonzero" fill-opacity="1" /><path clip-path="url(#clip600)" d="M126.783 341.979 Q123.172 341.979 121.343 345.544 Q119.538 349.086 119.538 356.215 Q119.538 363.322 121.343 366.887 Q123.172 370.428 126.783 370.428 Q130.417 370.428 132.223 366.887 Q134.052 363.322 134.052 356.215 Q134.052 349.086 132.223 345.544 Q130.417 341.979 126.783 341.979 M126.783 338.276 Q132.593 338.276 135.649 342.882 Q138.728 347.465 138.728 356.215 Q138.728 364.942 135.649 369.549 Q132.593 374.132 126.783 374.132 Q120.973 374.132 117.894 369.549 Q114.839 364.942 114.839 356.215 Q114.839 347.465 117.894 342.882 Q120.973 338.276 126.783 338.276 Z" fill="#000000" fill-rule="nonzero" fill-opacity="1" /><path clip-path="url(#clip600)" d="M146.945 367.581 L151.829 367.581 L151.829 373.461 L146.945 373.461 L146.945 367.581 Z" fill="#000000" fill-rule="nonzero" fill-opacity="1" /><path clip-path="url(#clip600)" d="M172.014 357.049 Q168.681 357.049 166.76 358.831 Q164.862 360.613 164.862 363.738 Q164.862 366.863 166.76 368.646 Q168.681 370.428 172.014 370.428 Q175.348 370.428 177.269 368.646 Q179.19 366.84 179.19 363.738 Q179.19 360.613 177.269 358.831 Q175.371 357.049 172.014 357.049 M167.339 355.058 Q164.329 354.317 162.64 352.257 Q160.973 350.197 160.973 347.234 Q160.973 343.09 163.913 340.683 Q166.876 338.276 172.014 338.276 Q177.176 338.276 180.116 340.683 Q183.056 343.09 183.056 347.234 Q183.056 350.197 181.366 352.257 Q179.7 354.317 176.714 355.058 Q180.093 355.845 181.968 358.137 Q183.866 360.428 183.866 363.738 Q183.866 368.762 180.788 371.447 Q177.732 374.132 172.014 374.132 Q166.297 374.132 163.218 371.447 Q160.163 368.762 160.163 363.738 Q160.163 360.428 162.061 358.137 Q163.959 355.845 167.339 355.058 M165.626 347.674 Q165.626 350.359 167.292 351.864 Q168.982 353.368 172.014 353.368 Q175.024 353.368 176.714 351.864 Q178.426 350.359 178.426 347.674 Q178.426 344.989 176.714 343.484 Q175.024 341.979 172.014 341.979 Q168.982 341.979 167.292 343.484 Q165.626 344.989 165.626 347.674 Z" fill="#000000" fill-rule="nonzero" fill-opacity="1" /><path clip-path="url(#clip600)" d="M117.501 99.5305 L125.14 99.5305 L125.14 73.1649 L116.83 74.8316 L116.83 70.5723 L125.093 68.9057 L129.769 68.9057 L129.769 99.5305 L137.408 99.5305 L137.408 103.466 L117.501 103.466 L117.501 99.5305 Z" fill="#000000" fill-rule="nonzero" fill-opacity="1" /><path clip-path="url(#clip600)" d="M146.853 97.5861 L151.737 97.5861 L151.737 103.466 L146.853 103.466 L146.853 97.5861 Z" fill="#000000" fill-rule="nonzero" fill-opacity="1" /><path clip-path="url(#clip600)" d="M171.922 71.9844 Q168.311 71.9844 166.482 75.5492 Q164.677 79.0908 164.677 86.2204 Q164.677 93.3268 166.482 96.8916 Q168.311 100.433 171.922 100.433 Q175.556 100.433 177.362 96.8916 Q179.19 93.3268 179.19 86.2204 Q179.19 79.0908 177.362 75.5492 Q175.556 71.9844 171.922 71.9844 M171.922 68.2807 Q177.732 68.2807 180.788 72.8871 Q183.866 77.4704 183.866 86.2204 Q183.866 94.9472 180.788 99.5537 Q177.732 104.137 171.922 104.137 Q166.112 104.137 163.033 99.5537 Q159.978 94.9472 159.978 86.2204 Q159.978 77.4704 163.033 72.8871 Q166.112 68.2807 171.922 68.2807 Z" fill="#000000" fill-rule="nonzero" fill-opacity="1" /><path clip-path="url(#clip600)" d="M67.3143 733.525 Q73.68 736.008 75.6216 738.363 Q77.5631 740.718 77.5631 744.665 L77.5631 749.344 L72.6615 749.344 L72.6615 745.906 Q72.6615 743.487 71.5157 742.151 Q70.3699 740.814 66.1048 739.191 L63.4312 738.14 L28.3562 752.559 L28.3562 746.352 L56.238 735.212 L28.3562 724.072 L28.3562 717.865 L67.3143 733.525 Z" fill="#000000" fill-rule="nonzero" fill-opacity="1" /><circle clip-path="url(#clip602)" cx="280.231" cy="1372.63" r="14.4" fill="#009af9" fill-rule="evenodd" fill-opacity="1" stroke="#000000" stroke-opacity="1" stroke-width="3.2"/>
<circle clip-path="url(#clip602)" cx="386.134" cy="1356.75" r="14.4" fill="#009af9" fill-rule="evenodd" fill-opacity="1" stroke="#000000" stroke-opacity="1" stroke-width="3.2"/>
<circle clip-path="url(#clip602)" cx="492.037" cy="1334.28" r="14.4" fill="#009af9" fill-rule="evenodd" fill-opacity="1" stroke="#000000" stroke-opacity="1" stroke-width="3.2"/>
<circle clip-path="url(#clip602)" cx="597.941" cy="1301.16" r="14.4" fill="#009af9" fill-rule="evenodd" fill-opacity="1" stroke="#000000" stroke-opacity="1" stroke-width="3.2"/>
<circle clip-path="url(#clip602)" cx="703.844" cy="1249.96" r="14.4" fill="#009af9" fill-rule="evenodd" fill-opacity="1" stroke="#000000" stroke-opacity="1" stroke-width="3.2"/>
<circle clip-path="url(#clip602)" cx="809.747" cy="1166.17" r="14.4" fill="#009af9" fill-rule="evenodd" fill-opacity="1" stroke="#000000" stroke-opacity="1" stroke-width="3.2"/>
<circle clip-path="url(#clip602)" cx="915.65" cy="1020.78" r="14.4" fill="#009af9" fill-rule="evenodd" fill-opacity="1" stroke="#000000" stroke-opacity="1" stroke-width="3.2"/>
<circle clip-path="url(#clip602)" cx="1021.55" cy="761.173" r="14.4" fill="#009af9" fill-rule="evenodd" fill-opacity="1" stroke="#000000" stroke-opacity="1" stroke-width="3.2"/>
<circle clip-path="url(#clip602)" cx="1127.46" cy="356.181" r="14.4" fill="#009af9" fill-rule="evenodd" fill-opacity="1" stroke="#000000" stroke-opacity="1" stroke-width="3.2"/>
<circle clip-path="url(#clip602)" cx="1233.36" cy="86.1857" r="14.4" fill="#009af9" fill-rule="evenodd" fill-opacity="1" stroke="#000000" stroke-opacity="1" stroke-width="3.2"/>
<circle clip-path="url(#clip602)" cx="1339.26" cy="356.181" r="14.4" fill="#009af9" fill-rule="evenodd" fill-opacity="1" stroke="#000000" stroke-opacity="1" stroke-width="3.2"/>
<circle clip-path="url(#clip602)" cx="1445.17" cy="761.173" r="14.4" fill="#009af9" fill-rule="evenodd" fill-opacity="1" stroke="#000000" stroke-opacity="1" stroke-width="3.2"/>
<circle clip-path="url(#clip602)" cx="1551.07" cy="1020.78" r="14.4" fill="#009af9" fill-rule="evenodd" fill-opacity="1" stroke="#000000" stroke-opacity="1" stroke-width="3.2"/>
<circle clip-path="url(#clip602)" cx="1656.97" cy="1166.17" r="14.4" fill="#009af9" fill-rule="evenodd" fill-opacity="1" stroke="#000000" stroke-opacity="1" stroke-width="3.2"/>
<circle clip-path="url(#clip602)" cx="1762.88" cy="1249.96" r="14.4" fill="#009af9" fill-rule="evenodd" fill-opacity="1" stroke="#000000" stroke-opacity="1" stroke-width="3.2"/>
<circle clip-path="url(#clip602)" cx="1868.78" cy="1301.16" r="14.4" fill="#009af9" fill-rule="evenodd" fill-opacity="1" stroke="#000000" stroke-opacity="1" stroke-width="3.2"/>
<circle clip-path="url(#clip602)" cx="1974.68" cy="1334.28" r="14.4" fill="#009af9" fill-rule="evenodd" fill-opacity="1" stroke="#000000" stroke-opacity="1" stroke-width="3.2"/>
<circle clip-path="url(#clip602)" cx="2080.58" cy="1356.75" r="14.4" fill="#009af9" fill-rule="evenodd" fill-opacity="1" stroke="#000000" stroke-opacity="1" stroke-width="3.2"/>
<circle clip-path="url(#clip602)" cx="2186.49" cy="1372.63" r="14.4" fill="#009af9" fill-rule="evenodd" fill-opacity="1" stroke="#000000" stroke-opacity="1" stroke-width="3.2"/>
<circle clip-path="url(#clip602)" cx="2292.39" cy="1384.24" r="14.4" fill="#009af9" fill-rule="evenodd" fill-opacity="1" stroke="#000000" stroke-opacity="1" stroke-width="3.2"/>
<path clip-path="url(#clip600)" d="M1861.13 196.789 L2281.66 196.789 L2281.66 93.1086 L1861.13 93.1086  Z" fill="#ffffff" fill-rule="evenodd" fill-opacity="1"/>
<polyline clip-path="url(#clip600)" style="stroke:#000000; stroke-linecap:round; stroke-linejoin:round; stroke-width:4; stroke-opacity:1; fill:none" points="1861.13,196.789 2281.66,196.789 2281.66,93.1086 1861.13,93.1086 1861.13,196.789 "/>
<circle clip-path="url(#clip600)" cx="1955.92" cy="144.949" r="20.48" fill="#009af9" fill-rule="evenodd" fill-opacity="1" stroke="#000000" stroke-opacity="1" stroke-width="4.55111"/>
<path clip-path="url(#clip600)" d="M2058.12 128.942 L2058.12 136.303 L2066.9 136.303 L2066.9 139.613 L2058.12 139.613 L2058.12 153.687 Q2058.12 156.858 2058.98 157.761 Q2059.86 158.664 2062.52 158.664 L2066.9 158.664 L2066.9 162.229 L2062.52 162.229 Q2057.59 162.229 2055.72 160.4 Q2053.84 158.548 2053.84 153.687 L2053.84 139.613 L2050.72 139.613 L2050.72 136.303 L2053.84 136.303 L2053.84 128.942 L2058.12 128.942 Z" fill="#000000" fill-rule="nonzero" fill-opacity="1" /><path clip-path="url(#clip600)" d="M2072.5 136.303 L2076.76 136.303 L2076.76 162.229 L2072.5 162.229 L2072.5 136.303 M2072.5 126.21 L2076.76 126.21 L2076.76 131.604 L2072.5 131.604 L2072.5 126.21 Z" fill="#000000" fill-rule="nonzero" fill-opacity="1" /><path clip-path="url(#clip600)" d="M2089.88 128.942 L2089.88 136.303 L2098.66 136.303 L2098.66 139.613 L2089.88 139.613 L2089.88 153.687 Q2089.88 156.858 2090.74 157.761 Q2091.62 158.664 2094.28 158.664 L2098.66 158.664 L2098.66 162.229 L2094.28 162.229 Q2089.35 162.229 2087.48 160.4 Q2085.6 158.548 2085.6 153.687 L2085.6 139.613 L2082.48 139.613 L2082.48 136.303 L2085.6 136.303 L2085.6 128.942 L2089.88 128.942 Z" fill="#000000" fill-rule="nonzero" fill-opacity="1" /><path clip-path="url(#clip600)" d="M2104.26 136.303 L2108.52 136.303 L2108.52 162.229 L2104.26 162.229 L2104.26 136.303 M2104.26 126.21 L2108.52 126.21 L2108.52 131.604 L2104.26 131.604 L2104.26 126.21 Z" fill="#000000" fill-rule="nonzero" fill-opacity="1" /><path clip-path="url(#clip600)" d="M2117.27 126.21 L2121.55 126.21 L2121.55 147.483 L2134.26 136.303 L2139.7 136.303 L2125.95 148.432 L2140.28 162.229 L2134.72 162.229 L2121.55 149.567 L2121.55 162.229 L2117.27 162.229 L2117.27 126.21 Z" fill="#000000" fill-rule="nonzero" fill-opacity="1" /><path clip-path="url(#clip600)" d="M2177.01 140.238 L2177.01 126.21 L2181.27 126.21 L2181.27 162.229 L2177.01 162.229 L2177.01 158.34 Q2175.67 160.655 2173.61 161.789 Q2171.57 162.9 2168.7 162.9 Q2164 162.9 2161.04 159.15 Q2158.1 155.4 2158.1 149.289 Q2158.1 143.178 2161.04 139.428 Q2164 135.678 2168.7 135.678 Q2171.57 135.678 2173.61 136.812 Q2175.67 137.923 2177.01 140.238 M2162.5 149.289 Q2162.5 153.988 2164.42 156.673 Q2166.36 159.335 2169.74 159.335 Q2173.12 159.335 2175.07 156.673 Q2177.01 153.988 2177.01 149.289 Q2177.01 144.59 2175.07 141.928 Q2173.12 139.243 2169.74 139.243 Q2166.36 139.243 2164.42 141.928 Q2162.5 144.59 2162.5 149.289 Z" fill="#000000" fill-rule="nonzero" fill-opacity="1" /><path clip-path="url(#clip600)" d="M2201.83 149.196 Q2196.66 149.196 2194.67 150.377 Q2192.68 151.557 2192.68 154.405 Q2192.68 156.673 2194.16 158.016 Q2195.67 159.335 2198.24 159.335 Q2201.78 159.335 2203.91 156.835 Q2206.06 154.312 2206.06 150.145 L2206.06 149.196 L2201.83 149.196 M2210.32 147.437 L2210.32 162.229 L2206.06 162.229 L2206.06 158.293 Q2204.6 160.655 2202.43 161.789 Q2200.25 162.9 2197.1 162.9 Q2193.12 162.9 2190.76 160.678 Q2188.42 158.432 2188.42 154.682 Q2188.42 150.307 2191.34 148.085 Q2194.28 145.863 2200.09 145.863 L2206.06 145.863 L2206.06 145.446 Q2206.06 142.507 2204.12 140.909 Q2202.2 139.289 2198.7 139.289 Q2196.48 139.289 2194.37 139.821 Q2192.27 140.354 2190.32 141.419 L2190.32 137.483 Q2192.66 136.581 2194.86 136.141 Q2197.06 135.678 2199.14 135.678 Q2204.77 135.678 2207.54 138.594 Q2210.32 141.511 2210.32 147.437 Z" fill="#000000" fill-rule="nonzero" fill-opacity="1" /><path clip-path="url(#clip600)" d="M2223.31 128.942 L2223.31 136.303 L2232.08 136.303 L2232.08 139.613 L2223.31 139.613 L2223.31 153.687 Q2223.31 156.858 2224.16 157.761 Q2225.04 158.664 2227.71 158.664 L2232.08 158.664 L2232.08 162.229 L2227.71 162.229 Q2222.78 162.229 2220.9 160.4 Q2219.03 158.548 2219.03 153.687 L2219.03 139.613 L2215.9 139.613 L2215.9 136.303 L2219.03 136.303 L2219.03 128.942 L2223.31 128.942 Z" fill="#000000" fill-rule="nonzero" fill-opacity="1" /><path clip-path="url(#clip600)" d="M2249.47 149.196 Q2244.3 149.196 2242.31 150.377 Q2240.32 151.557 2240.32 154.405 Q2240.32 156.673 2241.8 158.016 Q2243.31 159.335 2245.88 159.335 Q2249.42 159.335 2251.55 156.835 Q2253.7 154.312 2253.7 150.145 L2253.7 149.196 L2249.47 149.196 M2257.96 147.437 L2257.96 162.229 L2253.7 162.229 L2253.7 158.293 Q2252.24 160.655 2250.07 161.789 Q2247.89 162.9 2244.74 162.9 Q2240.76 162.9 2238.4 160.678 Q2236.06 158.432 2236.06 154.682 Q2236.06 150.307 2238.98 148.085 Q2241.92 145.863 2247.73 145.863 L2253.7 145.863 L2253.7 145.446 Q2253.7 142.507 2251.76 140.909 Q2249.84 139.289 2246.34 139.289 Q2244.12 139.289 2242.01 139.821 Q2239.91 140.354 2237.96 141.419 L2237.96 137.483 Q2240.3 136.581 2242.5 136.141 Q2244.7 135.678 2246.78 135.678 Q2252.41 135.678 2255.18 138.594 Q2257.96 141.511 2257.96 147.437 Z" fill="#000000" fill-rule="nonzero" fill-opacity="1" /></svg>
