<?xml version="1.0" encoding="utf-8"?>
<svg xmlns="http://www.w3.org/2000/svg" xmlns:xlink="http://www.w3.org/1999/xlink" width="600" height="400" viewBox="0 0 2400 1600">
<defs>
  <clipPath id="clip420">
    <rect x="0" y="0" width="2400" height="1600"/>
  </clipPath>
</defs>
<path clip-path="url(#clip420)" d="M0 1600 L2400 1600 L2400 0 L0 0  Z" fill="#ffffff" fill-rule="evenodd" fill-opacity="1"/>
<defs>
  <clipPath id="clip421">
    <rect x="480" y="0" width="1681" height="1600"/>
  </clipPath>
</defs>
<path clip-path="url(#clip420)" d="M257.204 1423.18 L2352.76 1423.18 L2352.76 47.2441 L257.204 47.2441  Z" fill="#ffffff" fill-rule="evenodd" fill-opacity="1"/>
<defs>
  <clipPath id="clip422">
    <rect x="257" y="47" width="2097" height="1377"/>
  </clipPath>
</defs>
<polyline clip-path="url(#clip422)" style="stroke:#000000; stroke-linecap:round; stroke-linejoin:round; stroke-width:2; stroke-opacity:0.1; fill:none" points="316.512,1423.18 316.512,47.2441 "/>
<polyline clip-path="url(#clip422)" style="stroke:#000000; stroke-linecap:round; stroke-linejoin:round; stroke-width:2; stroke-opacity:0.1; fill:none" points="711.899,1423.18 711.899,47.2441 "/>
<polyline clip-path="url(#clip422)" style="stroke:#000000; stroke-linecap:round; stroke-linejoin:round; stroke-width:2; stroke-opacity:0.1; fill:none" points="1107.29,1423.18 1107.29,47.2441 "/>
<polyline clip-path="url(#clip422)" style="stroke:#000000; stroke-linecap:round; stroke-linejoin:round; stroke-width:2; stroke-opacity:0.1; fill:none" points="1502.67,1423.18 1502.67,47.2441 "/>
<polyline clip-path="url(#clip422)" style="stroke:#000000; stroke-linecap:round; stroke-linejoin:round; stroke-width:2; stroke-opacity:0.1; fill:none" points="1898.06,1423.18 1898.06,47.2441 "/>
<polyline clip-path="url(#clip422)" style="stroke:#000000; stroke-linecap:round; stroke-linejoin:round; stroke-width:2; stroke-opacity:0.1; fill:none" points="2293.45,1423.18 2293.45,47.2441 "/>
<polyline clip-path="url(#clip420)" style="stroke:#000000; stroke-linecap:round; stroke-linejoin:round; stroke-width:4; stroke-opacity:1; fill:none" points="257.204,1423.18 2352.76,1423.18 "/>
<polyline clip-path="url(#clip420)" style="stroke:#000000; stroke-linecap:round; stroke-linejoin:round; stroke-width:4; stroke-opacity:1; fill:none" points="316.512,1423.18 316.512,1404.28 "/>
<polyline clip-path="url(#clip420)" style="stroke:#000000; stroke-linecap:round; stroke-linejoin:round; stroke-width:4; stroke-opacity:1; fill:none" points="711.899,1423.18 711.899,1404.28 "/>
<polyline clip-path="url(#clip420)" style="stroke:#000000; stroke-linecap:round; stroke-linejoin:round; stroke-width:4; stroke-opacity:1; fill:none" points="1107.29,1423.18 1107.29,1404.28 "/>
<polyline clip-path="url(#clip420)" style="stroke:#000000; stroke-linecap:round; stroke-linejoin:round; stroke-width:4; stroke-opacity:1; fill:none" points="1502.67,1423.18 1502.67,1404.28 "/>
<polyline clip-path="url(#clip420)" style="stroke:#000000; stroke-linecap:round; stroke-linejoin:round; stroke-width:4; stroke-opacity:1; fill:none" points="1898.06,1423.18 1898.06,1404.28 "/>
<polyline clip-path="url(#clip420)" style="stroke:#000000; stroke-linecap:round; stroke-linejoin:round; stroke-width:4; stroke-opacity:1; fill:none" points="2293.45,1423.18 2293.45,1404.28 "/>
<path clip-path="url(#clip420)" d="M316.512 1454.1 Q312.901 1454.1 311.072 1457.66 Q309.267 1461.2 309.267 1468.33 Q309.267 1475.44 311.072 1479.01 Q312.901 1482.55 316.512 1482.55 Q320.146 1482.55 321.952 1479.01 Q323.781 1475.44 323.781 1468.33 Q323.781 1461.2 321.952 1457.66 Q320.146 1454.1 316.512 1454.1 M316.512 1450.39 Q322.322 1450.39 325.378 1455 Q328.456 1459.58 328.456 1468.33 Q328.456 1477.06 325.378 1481.67 Q322.322 1486.25 316.512 1486.25 Q310.702 1486.25 307.623 1481.67 Q304.568 1477.06 304.568 1468.33 Q304.568 1459.58 307.623 1455 Q310.702 1450.39 316.512 1450.39 Z" fill="#000000" fill-rule="nonzero" fill-opacity="1" /><path clip-path="url(#clip420)" d="M702.281 1481.64 L709.92 1481.64 L709.92 1455.28 L701.61 1456.95 L701.61 1452.69 L709.874 1451.02 L714.55 1451.02 L714.55 1481.64 L722.189 1481.64 L722.189 1485.58 L702.281 1485.58 L702.281 1481.64 Z" fill="#000000" fill-rule="nonzero" fill-opacity="1" /><path clip-path="url(#clip420)" d="M1101.94 1481.64 L1118.26 1481.64 L1118.26 1485.58 L1096.31 1485.58 L1096.31 1481.64 Q1098.98 1478.89 1103.56 1474.26 Q1108.17 1469.61 1109.35 1468.27 Q1111.59 1465.74 1112.47 1464.01 Q1113.37 1462.25 1113.37 1460.56 Q1113.37 1457.8 1111.43 1456.07 Q1109.51 1454.33 1106.41 1454.33 Q1104.21 1454.33 1101.75 1455.09 Q1099.32 1455.86 1096.55 1457.41 L1096.55 1452.69 Q1099.37 1451.55 1101.82 1450.97 Q1104.28 1450.39 1106.31 1450.39 Q1111.68 1450.39 1114.88 1453.08 Q1118.07 1455.77 1118.07 1460.26 Q1118.07 1462.39 1117.26 1464.31 Q1116.48 1466.2 1114.37 1468.8 Q1113.79 1469.47 1110.69 1472.69 Q1107.59 1475.88 1101.94 1481.64 Z" fill="#000000" fill-rule="nonzero" fill-opacity="1" /><path clip-path="url(#clip420)" d="M1506.92 1466.95 Q1510.28 1467.66 1512.15 1469.93 Q1514.05 1472.2 1514.05 1475.53 Q1514.05 1480.65 1510.53 1483.45 Q1507.01 1486.25 1500.53 1486.25 Q1498.36 1486.25 1496.04 1485.81 Q1493.75 1485.39 1491.3 1484.54 L1491.3 1480.02 Q1493.24 1481.16 1495.56 1481.74 Q1497.87 1482.32 1500.39 1482.32 Q1504.79 1482.32 1507.08 1480.58 Q1509.4 1478.84 1509.4 1475.53 Q1509.4 1472.48 1507.25 1470.77 Q1505.12 1469.03 1501.3 1469.03 L1497.27 1469.03 L1497.27 1465.19 L1501.48 1465.19 Q1504.93 1465.19 1506.76 1463.82 Q1508.59 1462.43 1508.59 1459.84 Q1508.59 1457.18 1506.69 1455.77 Q1504.81 1454.33 1501.3 1454.33 Q1499.37 1454.33 1497.18 1454.75 Q1494.98 1455.16 1492.34 1456.04 L1492.34 1451.88 Q1495 1451.14 1497.31 1450.77 Q1499.65 1450.39 1501.71 1450.39 Q1507.04 1450.39 1510.14 1452.83 Q1513.24 1455.23 1513.24 1459.35 Q1513.24 1462.22 1511.6 1464.21 Q1509.95 1466.18 1506.92 1466.95 Z" fill="#000000" fill-rule="nonzero" fill-opacity="1" /><path clip-path="url(#clip420)" d="M1901.07 1455.09 L1889.26 1473.54 L1901.07 1473.54 L1901.07 1455.09 M1899.84 1451.02 L1905.72 1451.02 L1905.72 1473.54 L1910.65 1473.54 L1910.65 1477.43 L1905.72 1477.43 L1905.72 1485.58 L1901.07 1485.58 L1901.07 1477.43 L1885.47 1477.43 L1885.47 1472.92 L1899.84 1451.02 Z" fill="#000000" fill-rule="nonzero" fill-opacity="1" /><path clip-path="url(#clip420)" d="M2283.73 1451.02 L2302.08 1451.02 L2302.08 1454.96 L2288.01 1454.96 L2288.01 1463.43 Q2289.03 1463.08 2290.05 1462.92 Q2291.06 1462.73 2292.08 1462.73 Q2297.87 1462.73 2301.25 1465.9 Q2304.63 1469.08 2304.63 1474.49 Q2304.63 1480.07 2301.16 1483.17 Q2297.68 1486.25 2291.36 1486.25 Q2289.19 1486.25 2286.92 1485.88 Q2284.67 1485.51 2282.27 1484.77 L2282.27 1480.07 Q2284.35 1481.2 2286.57 1481.76 Q2288.8 1482.32 2291.27 1482.32 Q2295.28 1482.32 2297.61 1480.21 Q2299.95 1478.1 2299.95 1474.49 Q2299.95 1470.88 2297.61 1468.77 Q2295.28 1466.67 2291.27 1466.67 Q2289.4 1466.67 2287.52 1467.08 Q2285.67 1467.5 2283.73 1468.38 L2283.73 1451.02 Z" fill="#000000" fill-rule="nonzero" fill-opacity="1" /><path clip-path="url(#clip420)" d="M1321.59 1532.4 L1308.7 1549.74 L1322.26 1568.04 L1315.36 1568.04 L1304.98 1554.04 L1294.6 1568.04 L1287.7 1568.04 L1301.54 1549.39 L1288.87 1532.4 L1295.78 1532.4 L1305.23 1545.1 L1314.69 1532.4 L1321.59 1532.4 Z" fill="#000000" fill-rule="nonzero" fill-opacity="1" /><polyline clip-path="url(#clip422)" style="stroke:#000000; stroke-linecap:round; stroke-linejoin:round; stroke-width:2; stroke-opacity:0.1; fill:none" points="257.204,1384.97 2352.76,1384.97 "/>
<polyline clip-path="url(#clip422)" style="stroke:#000000; stroke-linecap:round; stroke-linejoin:round; stroke-width:2; stroke-opacity:0.1; fill:none" points="257.204,1060.26 2352.76,1060.26 "/>
<polyline clip-path="url(#clip422)" style="stroke:#000000; stroke-linecap:round; stroke-linejoin:round; stroke-width:2; stroke-opacity:0.1; fill:none" points="257.204,735.539 2352.76,735.539 "/>
<polyline clip-path="url(#clip422)" style="stroke:#000000; stroke-linecap:round; stroke-linejoin:round; stroke-width:2; stroke-opacity:0.1; fill:none" points="257.204,410.821 2352.76,410.821 "/>
<polyline clip-path="url(#clip422)" style="stroke:#000000; stroke-linecap:round; stroke-linejoin:round; stroke-width:2; stroke-opacity:0.1; fill:none" points="257.204,86.1037 2352.76,86.1037 "/>
<polyline clip-path="url(#clip420)" style="stroke:#000000; stroke-linecap:round; stroke-linejoin:round; stroke-width:4; stroke-opacity:1; fill:none" points="257.204,1423.18 257.204,47.2441 "/>
<polyline clip-path="url(#clip420)" style="stroke:#000000; stroke-linecap:round; stroke-linejoin:round; stroke-width:4; stroke-opacity:1; fill:none" points="257.204,1384.97 276.102,1384.97 "/>
<polyline clip-path="url(#clip420)" style="stroke:#000000; stroke-linecap:round; stroke-linejoin:round; stroke-width:4; stroke-opacity:1; fill:none" points="257.204,1060.26 276.102,1060.26 "/>
<polyline clip-path="url(#clip420)" style="stroke:#000000; stroke-linecap:round; stroke-linejoin:round; stroke-width:4; stroke-opacity:1; fill:none" points="257.204,735.539 276.102,735.539 "/>
<polyline clip-path="url(#clip420)" style="stroke:#000000; stroke-linecap:round; stroke-linejoin:round; stroke-width:4; stroke-opacity:1; fill:none" points="257.204,410.821 276.102,410.821 "/>
<polyline clip-path="url(#clip420)" style="stroke:#000000; stroke-linecap:round; stroke-linejoin:round; stroke-width:4; stroke-opacity:1; fill:none" points="257.204,86.1037 276.102,86.1037 "/>
<path clip-path="url(#clip420)" d="M114.26 1385.43 L143.936 1385.43 L143.936 1389.36 L114.26 1389.36 L114.26 1385.43 Z" fill="#000000" fill-rule="nonzero" fill-opacity="1" /><path clip-path="url(#clip420)" d="M154.839 1398.32 L162.477 1398.32 L162.477 1371.95 L154.167 1373.62 L154.167 1369.36 L162.431 1367.69 L167.107 1367.69 L167.107 1398.32 L174.746 1398.32 L174.746 1402.25 L154.839 1402.25 L154.839 1398.32 Z" fill="#000000" fill-rule="nonzero" fill-opacity="1" /><path clip-path="url(#clip420)" d="M184.19 1396.37 L189.075 1396.37 L189.075 1402.25 L184.19 1402.25 L184.19 1396.37 Z" fill="#000000" fill-rule="nonzero" fill-opacity="1" /><path clip-path="url(#clip420)" d="M209.26 1370.77 Q205.649 1370.77 203.82 1374.34 Q202.014 1377.88 202.014 1385.01 Q202.014 1392.12 203.82 1395.68 Q205.649 1399.22 209.26 1399.22 Q212.894 1399.22 214.699 1395.68 Q216.528 1392.12 216.528 1385.01 Q216.528 1377.88 214.699 1374.34 Q212.894 1370.77 209.26 1370.77 M209.26 1367.07 Q215.07 1367.07 218.125 1371.68 Q221.204 1376.26 221.204 1385.01 Q221.204 1393.74 218.125 1398.34 Q215.07 1402.93 209.26 1402.93 Q203.449 1402.93 200.371 1398.34 Q197.315 1393.74 197.315 1385.01 Q197.315 1376.26 200.371 1371.68 Q203.449 1367.07 209.26 1367.07 Z" fill="#000000" fill-rule="nonzero" fill-opacity="1" /><path clip-path="url(#clip420)" d="M115.256 1060.71 L144.931 1060.71 L144.931 1064.64 L115.256 1064.64 L115.256 1060.71 Z" fill="#000000" fill-rule="nonzero" fill-opacity="1" /><path clip-path="url(#clip420)" d="M165.024 1046.06 Q161.413 1046.06 159.584 1049.62 Q157.778 1053.16 157.778 1060.29 Q157.778 1067.4 159.584 1070.96 Q161.413 1074.5 165.024 1074.5 Q168.658 1074.5 170.464 1070.96 Q172.292 1067.4 172.292 1060.29 Q172.292 1053.16 170.464 1049.62 Q168.658 1046.06 165.024 1046.06 M165.024 1042.35 Q170.834 1042.35 173.889 1046.96 Q176.968 1051.54 176.968 1060.29 Q176.968 1069.02 173.889 1073.62 Q170.834 1078.21 165.024 1078.21 Q159.214 1078.21 156.135 1073.62 Q153.079 1069.02 153.079 1060.29 Q153.079 1051.54 156.135 1046.96 Q159.214 1042.35 165.024 1042.35 Z" fill="#000000" fill-rule="nonzero" fill-opacity="1" /><path clip-path="url(#clip420)" d="M185.186 1071.66 L190.07 1071.66 L190.07 1077.54 L185.186 1077.54 L185.186 1071.66 Z" fill="#000000" fill-rule="nonzero" fill-opacity="1" /><path clip-path="url(#clip420)" d="M200.301 1042.98 L218.658 1042.98 L218.658 1046.91 L204.584 1046.91 L204.584 1055.38 Q205.602 1055.04 206.621 1054.87 Q207.639 1054.69 208.658 1054.69 Q214.445 1054.69 217.824 1057.86 Q221.204 1061.03 221.204 1066.45 Q221.204 1072.03 217.732 1075.13 Q214.26 1078.21 207.94 1078.21 Q205.764 1078.21 203.496 1077.84 Q201.25 1077.47 198.843 1076.73 L198.843 1072.03 Q200.926 1073.16 203.149 1073.72 Q205.371 1074.27 207.848 1074.27 Q211.852 1074.27 214.19 1072.17 Q216.528 1070.06 216.528 1066.45 Q216.528 1062.84 214.19 1060.73 Q211.852 1058.62 207.848 1058.62 Q205.973 1058.62 204.098 1059.04 Q202.246 1059.46 200.301 1060.34 L200.301 1042.98 Z" fill="#000000" fill-rule="nonzero" fill-opacity="1" /><path clip-path="url(#clip420)" d="M164.028 721.337 Q160.417 721.337 158.589 724.902 Q156.783 728.444 156.783 735.574 Q156.783 742.68 158.589 746.245 Q160.417 749.786 164.028 749.786 Q167.663 749.786 169.468 746.245 Q171.297 742.68 171.297 735.574 Q171.297 728.444 169.468 724.902 Q167.663 721.337 164.028 721.337 M164.028 717.634 Q169.839 717.634 172.894 722.24 Q175.973 726.824 175.973 735.574 Q175.973 744.3 172.894 748.907 Q169.839 753.49 164.028 753.49 Q158.218 753.49 155.14 748.907 Q152.084 744.3 152.084 735.574 Q152.084 726.824 155.14 722.24 Q158.218 717.634 164.028 717.634 Z" fill="#000000" fill-rule="nonzero" fill-opacity="1" /><path clip-path="url(#clip420)" d="M184.19 746.939 L189.075 746.939 L189.075 752.819 L184.19 752.819 L184.19 746.939 Z" fill="#000000" fill-rule="nonzero" fill-opacity="1" /><path clip-path="url(#clip420)" d="M209.26 721.337 Q205.649 721.337 203.82 724.902 Q202.014 728.444 202.014 735.574 Q202.014 742.68 203.82 746.245 Q205.649 749.786 209.26 749.786 Q212.894 749.786 214.699 746.245 Q216.528 742.68 216.528 735.574 Q216.528 728.444 214.699 724.902 Q212.894 721.337 209.26 721.337 M209.26 717.634 Q215.07 717.634 218.125 722.24 Q221.204 726.824 221.204 735.574 Q221.204 744.3 218.125 748.907 Q215.07 753.49 209.26 753.49 Q203.449 753.49 200.371 748.907 Q197.315 744.3 197.315 735.574 Q197.315 726.824 200.371 722.24 Q203.449 717.634 209.26 717.634 Z" fill="#000000" fill-rule="nonzero" fill-opacity="1" /><path clip-path="url(#clip420)" d="M165.024 396.62 Q161.413 396.62 159.584 400.185 Q157.778 403.726 157.778 410.856 Q157.778 417.962 159.584 421.527 Q161.413 425.069 165.024 425.069 Q168.658 425.069 170.464 421.527 Q172.292 417.962 172.292 410.856 Q172.292 403.726 170.464 400.185 Q168.658 396.62 165.024 396.62 M165.024 392.916 Q170.834 392.916 173.889 397.523 Q176.968 402.106 176.968 410.856 Q176.968 419.583 173.889 424.189 Q170.834 428.773 165.024 428.773 Q159.214 428.773 156.135 424.189 Q153.079 419.583 153.079 410.856 Q153.079 402.106 156.135 397.523 Q159.214 392.916 165.024 392.916 Z" fill="#000000" fill-rule="nonzero" fill-opacity="1" /><path clip-path="url(#clip420)" d="M185.186 422.222 L190.07 422.222 L190.07 428.101 L185.186 428.101 L185.186 422.222 Z" fill="#000000" fill-rule="nonzero" fill-opacity="1" /><path clip-path="url(#clip420)" d="M200.301 393.541 L218.658 393.541 L218.658 397.476 L204.584 397.476 L204.584 405.949 Q205.602 405.601 206.621 405.439 Q207.639 405.254 208.658 405.254 Q214.445 405.254 217.824 408.425 Q221.204 411.597 221.204 417.013 Q221.204 422.592 217.732 425.694 Q214.26 428.773 207.94 428.773 Q205.764 428.773 203.496 428.402 Q201.25 428.032 198.843 427.291 L198.843 422.592 Q200.926 423.726 203.149 424.282 Q205.371 424.837 207.848 424.837 Q211.852 424.837 214.19 422.731 Q216.528 420.624 216.528 417.013 Q216.528 413.402 214.19 411.296 Q211.852 409.189 207.848 409.189 Q205.973 409.189 204.098 409.606 Q202.246 410.023 200.301 410.902 L200.301 393.541 Z" fill="#000000" fill-rule="nonzero" fill-opacity="1" /><path clip-path="url(#clip420)" d="M154.839 99.4486 L162.477 99.4486 L162.477 73.083 L154.167 74.7496 L154.167 70.4904 L162.431 68.8237 L167.107 68.8237 L167.107 99.4486 L174.746 99.4486 L174.746 103.384 L154.839 103.384 L154.839 99.4486 Z" fill="#000000" fill-rule="nonzero" fill-opacity="1" /><path clip-path="url(#clip420)" d="M184.19 97.5041 L189.075 97.5041 L189.075 103.384 L184.19 103.384 L184.19 97.5041 Z" fill="#000000" fill-rule="nonzero" fill-opacity="1" /><path clip-path="url(#clip420)" d="M209.26 71.9024 Q205.649 71.9024 203.82 75.4672 Q202.014 79.0089 202.014 86.1385 Q202.014 93.2449 203.82 96.8097 Q205.649 100.351 209.26 100.351 Q212.894 100.351 214.699 96.8097 Q216.528 93.2449 216.528 86.1385 Q216.528 79.0089 214.699 75.4672 Q212.894 71.9024 209.26 71.9024 M209.26 68.1987 Q215.07 68.1987 218.125 72.8052 Q221.204 77.3885 221.204 86.1385 Q221.204 94.8653 218.125 99.4717 Q215.07 104.055 209.26 104.055 Q203.449 104.055 200.371 99.4717 Q197.315 94.8653 197.315 86.1385 Q197.315 77.3885 200.371 72.8052 Q203.449 68.1987 209.26 68.1987 Z" fill="#000000" fill-rule="nonzero" fill-opacity="1" /><path clip-path="url(#clip420)" d="M67.3143 733.525 Q73.68 736.008 75.6216 738.363 Q77.5631 740.718 77.5631 744.665 L77.5631 749.344 L72.6615 749.344 L72.6615 745.906 Q72.6615 743.487 71.5157 742.151 Q70.3699 740.814 66.1048 739.191 L63.4312 738.14 L28.3562 752.559 L28.3562 746.352 L56.238 735.212 L28.3562 724.072 L28.3562 717.865 L67.3143 733.525 Z" fill="#000000" fill-rule="nonzero" fill-opacity="1" /><circle clip-path="url(#clip422)" cx="316.512" cy="735.539" r="14.4" fill="#009af9" fill-rule="evenodd" fill-opacity="1" stroke="#000000" stroke-opacity="1" stroke-width="3.2"/>
<circle clip-path="url(#clip422)" cx="420.561" cy="257.734" r="14.4" fill="#009af9" fill-rule="evenodd" fill-opacity="1" stroke="#000000" stroke-opacity="1" stroke-width="3.2"/>
<circle clip-path="url(#clip422)" cx="524.611" cy="88.3219" r="14.4" fill="#009af9" fill-rule="evenodd" fill-opacity="1" stroke="#000000" stroke-opacity="1" stroke-width="3.2"/>
<circle clip-path="url(#clip422)" cx="628.66" cy="336.648" r="14.4" fill="#009af9" fill-rule="evenodd" fill-opacity="1" stroke="#000000" stroke-opacity="1" stroke-width="3.2"/>
<circle clip-path="url(#clip422)" cx="732.709" cy="842.432" r="14.4" fill="#009af9" fill-rule="evenodd" fill-opacity="1" stroke="#000000" stroke-opacity="1" stroke-width="3.2"/>
<circle clip-path="url(#clip422)" cx="836.758" cy="1279.22" r="14.4" fill="#009af9" fill-rule="evenodd" fill-opacity="1" stroke="#000000" stroke-opacity="1" stroke-width="3.2"/>
<circle clip-path="url(#clip422)" cx="940.808" cy="1365.1" r="14.4" fill="#009af9" fill-rule="evenodd" fill-opacity="1" stroke="#000000" stroke-opacity="1" stroke-width="3.2"/>
<circle clip-path="url(#clip422)" cx="1044.86" cy="1044.64" r="14.4" fill="#009af9" fill-rule="evenodd" fill-opacity="1" stroke="#000000" stroke-opacity="1" stroke-width="3.2"/>
<circle clip-path="url(#clip422)" cx="1148.91" cy="524.668" r="14.4" fill="#009af9" fill-rule="evenodd" fill-opacity="1" stroke="#000000" stroke-opacity="1" stroke-width="3.2"/>
<circle clip-path="url(#clip422)" cx="1252.96" cy="140.803" r="14.4" fill="#009af9" fill-rule="evenodd" fill-opacity="1" stroke="#000000" stroke-opacity="1" stroke-width="3.2"/>
<circle clip-path="url(#clip422)" cx="1357" cy="140.803" r="14.4" fill="#009af9" fill-rule="evenodd" fill-opacity="1" stroke="#000000" stroke-opacity="1" stroke-width="3.2"/>
<circle clip-path="url(#clip422)" cx="1461.05" cy="524.668" r="14.4" fill="#009af9" fill-rule="evenodd" fill-opacity="1" stroke="#000000" stroke-opacity="1" stroke-width="3.2"/>
<circle clip-path="url(#clip422)" cx="1565.1" cy="1044.64" r="14.4" fill="#009af9" fill-rule="evenodd" fill-opacity="1" stroke="#000000" stroke-opacity="1" stroke-width="3.2"/>
<circle clip-path="url(#clip422)" cx="1669.15" cy="1365.1" r="14.4" fill="#009af9" fill-rule="evenodd" fill-opacity="1" stroke="#000000" stroke-opacity="1" stroke-width="3.2"/>
<circle clip-path="url(#clip422)" cx="1773.2" cy="1279.22" r="14.4" fill="#009af9" fill-rule="evenodd" fill-opacity="1" stroke="#000000" stroke-opacity="1" stroke-width="3.2"/>
<circle clip-path="url(#clip422)" cx="1877.25" cy="842.432" r="14.4" fill="#009af9" fill-rule="evenodd" fill-opacity="1" stroke="#000000" stroke-opacity="1" stroke-width="3.2"/>
<circle clip-path="url(#clip422)" cx="1981.3" cy="336.648" r="14.4" fill="#009af9" fill-rule="evenodd" fill-opacity="1" stroke="#000000" stroke-opacity="1" stroke-width="3.2"/>
<circle clip-path="url(#clip422)" cx="2085.35" cy="88.3219" r="14.4" fill="#009af9" fill-rule="evenodd" fill-opacity="1" stroke="#000000" stroke-opacity="1" stroke-width="3.2"/>
<circle clip-path="url(#clip422)" cx="2189.4" cy="257.734" r="14.4" fill="#009af9" fill-rule="evenodd" fill-opacity="1" stroke="#000000" stroke-opacity="1" stroke-width="3.2"/>
<circle clip-path="url(#clip422)" cx="2293.45" cy="735.539" r="14.4" fill="#009af9" fill-rule="evenodd" fill-opacity="1" stroke="#000000" stroke-opacity="1" stroke-width="3.2"/>
<polyline clip-path="url(#clip422)" style="stroke:#e26f46; stroke-linecap:round; stroke-linejoin:round; stroke-width:8; stroke-opacity:1; fill:none" points="316.512,735.539 336.481,632.895 356.45,532.864 376.419,437.933 396.388,350.477 416.357,272.689 436.326,206.526 456.295,153.651 476.264,115.393 496.234,92.7149 516.203,86.1857 536.172,95.9699 556.141,121.822 576.11,163.092 596.079,218.743 616.048,287.377 636.017,367.27 655.986,456.415 675.955,552.572 695.924,653.325 715.893,756.144 735.862,858.445 755.831,957.659 775.8,1051.29 795.769,1136.99 815.738,1212.61 835.707,1276.24 855.676,1326.29 875.645,1361.49 895.614,1380.97 915.584,1384.24 935.553,1371.21 955.522,1342.21 975.491,1297.97 995.46,1239.6 1015.43,1168.56 1035.4,1086.65 1055.37,995.917 1075.34,898.643 1095.3,797.272 1115.27,694.349 1135.24,592.461 1155.21,494.168 1175.18,401.939 1195.15,318.09 1215.12,244.729 1235.09,183.697 1255.06,136.53 1275.03,104.41 1295,88.1464 1314.96,88.1464 1334.93,104.41 1354.9,136.53 1374.87,183.697 1394.84,244.729 1414.81,318.09 1434.78,401.939 1454.75,494.168 1474.72,592.461 1494.69,694.349 1514.65,797.272 1534.62,898.643 1554.59,995.917 1574.56,1086.65 1594.53,1168.56 1614.5,1239.6 1634.47,1297.97 1654.44,1342.21 1674.41,1371.21 1694.38,1384.24 1714.35,1380.97 1734.31,1361.49 1754.28,1326.29 1774.25,1276.24 1794.22,1212.61 1814.19,1136.99 1834.16,1051.29 1854.13,957.659 1874.1,858.445 1894.07,756.144 1914.04,653.325 1934,552.572 1953.97,456.415 1973.94,367.27 1993.91,287.377 2013.88,218.743 2033.85,163.092 2053.82,121.822 2073.79,95.9699 2093.76,86.1857 2113.73,92.7152 2133.7,115.394 2153.66,153.652 2173.63,206.527 2193.6,272.689 2213.57,350.475 2233.54,437.928 2253.51,532.856 2273.48,632.886 2293.45,735.539 "/>
<path clip-path="url(#clip420)" d="M1556.59 1377.32 L2282.9 1377.32 L2282.9 1221.8 L1556.59 1221.8  Z" fill="#ffffff" fill-rule="evenodd" fill-opacity="1"/>
<polyline clip-path="url(#clip420)" style="stroke:#000000; stroke-linecap:round; stroke-linejoin:round; stroke-width:4; stroke-opacity:1; fill:none" points="1556.59,1377.32 2282.9,1377.32 2282.9,1221.8 1556.59,1221.8 1556.59,1377.32 "/>
<circle clip-path="url(#clip420)" cx="1649.73" cy="1273.64" r="20.48" fill="#009af9" fill-rule="evenodd" fill-opacity="1" stroke="#000000" stroke-opacity="1" stroke-width="4.55111"/>
<path clip-path="url(#clip420)" d="M1750.27 1257.63 L1750.27 1264.99 L1759.04 1264.99 L1759.04 1268.3 L1750.27 1268.3 L1750.27 1282.37 Q1750.27 1285.54 1751.13 1286.45 Q1752.01 1287.35 1754.67 1287.35 L1759.04 1287.35 L1759.04 1290.92 L1754.67 1290.92 Q1749.74 1290.92 1747.86 1289.09 Q1745.99 1287.23 1745.99 1282.37 L1745.99 1268.3 L1742.86 1268.3 L1742.86 1264.99 L1745.99 1264.99 L1745.99 1257.63 L1750.27 1257.63 Z" fill="#000000" fill-rule="nonzero" fill-opacity="1" /><path clip-path="url(#clip420)" d="M1764.65 1264.99 L1768.91 1264.99 L1768.91 1290.92 L1764.65 1290.92 L1764.65 1264.99 M1764.65 1254.9 L1768.91 1254.9 L1768.91 1260.29 L1764.65 1260.29 L1764.65 1254.9 Z" fill="#000000" fill-rule="nonzero" fill-opacity="1" /><path clip-path="url(#clip420)" d="M1782.03 1257.63 L1782.03 1264.99 L1790.8 1264.99 L1790.8 1268.3 L1782.03 1268.3 L1782.03 1282.37 Q1782.03 1285.54 1782.89 1286.45 Q1783.77 1287.35 1786.43 1287.35 L1790.8 1287.35 L1790.8 1290.92 L1786.43 1290.92 Q1781.5 1290.92 1779.62 1289.09 Q1777.75 1287.23 1777.75 1282.37 L1777.75 1268.3 L1774.62 1268.3 L1774.62 1264.99 L1777.75 1264.99 L1777.75 1257.63 L1782.03 1257.63 Z" fill="#000000" fill-rule="nonzero" fill-opacity="1" /><path clip-path="url(#clip420)" d="M1796.41 1264.99 L1800.66 1264.99 L1800.66 1290.92 L1796.41 1290.92 L1796.41 1264.99 M1796.41 1254.9 L1800.66 1254.9 L1800.66 1260.29 L1796.41 1260.29 L1796.41 1254.9 Z" fill="#000000" fill-rule="nonzero" fill-opacity="1" /><path clip-path="url(#clip420)" d="M1809.41 1254.9 L1813.7 1254.9 L1813.7 1276.17 L1826.4 1264.99 L1831.84 1264.99 L1818.09 1277.12 L1832.42 1290.92 L1826.87 1290.92 L1813.7 1278.25 L1813.7 1290.92 L1809.41 1290.92 L1809.41 1254.9 Z" fill="#000000" fill-rule="nonzero" fill-opacity="1" /><path clip-path="url(#clip420)" d="M1869.16 1268.92 L1869.16 1254.9 L1873.42 1254.9 L1873.42 1290.92 L1869.16 1290.92 L1869.16 1287.03 Q1867.82 1289.34 1865.76 1290.48 Q1863.72 1291.59 1860.85 1291.59 Q1856.15 1291.59 1853.19 1287.84 Q1850.25 1284.09 1850.25 1277.98 Q1850.25 1271.86 1853.19 1268.11 Q1856.15 1264.36 1860.85 1264.36 Q1863.72 1264.36 1865.76 1265.5 Q1867.82 1266.61 1869.16 1268.92 M1854.65 1277.98 Q1854.65 1282.67 1856.57 1285.36 Q1858.51 1288.02 1861.89 1288.02 Q1865.27 1288.02 1867.21 1285.36 Q1869.16 1282.67 1869.16 1277.98 Q1869.16 1273.28 1867.21 1270.61 Q1865.27 1267.93 1861.89 1267.93 Q1858.51 1267.93 1856.57 1270.61 Q1854.65 1273.28 1854.65 1277.98 Z" fill="#000000" fill-rule="nonzero" fill-opacity="1" /><path clip-path="url(#clip420)" d="M1893.97 1277.88 Q1888.81 1277.88 1886.82 1279.06 Q1884.83 1280.24 1884.83 1283.09 Q1884.83 1285.36 1886.31 1286.7 Q1887.82 1288.02 1890.39 1288.02 Q1893.93 1288.02 1896.06 1285.52 Q1898.21 1283 1898.21 1278.83 L1898.21 1277.88 L1893.97 1277.88 M1902.47 1276.12 L1902.47 1290.92 L1898.21 1290.92 L1898.21 1286.98 Q1896.75 1289.34 1894.58 1290.48 Q1892.4 1291.59 1889.25 1291.59 Q1885.27 1291.59 1882.91 1289.36 Q1880.57 1287.12 1880.57 1283.37 Q1880.57 1278.99 1883.49 1276.77 Q1886.43 1274.55 1892.24 1274.55 L1898.21 1274.55 L1898.21 1274.13 Q1898.21 1271.19 1896.27 1269.6 Q1894.34 1267.98 1890.85 1267.98 Q1888.63 1267.98 1886.52 1268.51 Q1884.41 1269.04 1882.47 1270.11 L1882.47 1266.17 Q1884.81 1265.27 1887.01 1264.83 Q1889.21 1264.36 1891.29 1264.36 Q1896.91 1264.36 1899.69 1267.28 Q1902.47 1270.2 1902.47 1276.12 Z" fill="#000000" fill-rule="nonzero" fill-opacity="1" /><path clip-path="url(#clip420)" d="M1915.46 1257.63 L1915.46 1264.99 L1924.23 1264.99 L1924.23 1268.3 L1915.46 1268.3 L1915.46 1282.37 Q1915.46 1285.54 1916.31 1286.45 Q1917.19 1287.35 1919.85 1287.35 L1924.23 1287.35 L1924.23 1290.92 L1919.85 1290.92 Q1914.92 1290.92 1913.05 1289.09 Q1911.17 1287.23 1911.17 1282.37 L1911.17 1268.3 L1908.05 1268.3 L1908.05 1264.99 L1911.17 1264.99 L1911.17 1257.63 L1915.46 1257.63 Z" fill="#000000" fill-rule="nonzero" fill-opacity="1" /><path clip-path="url(#clip420)" d="M1941.61 1277.88 Q1936.45 1277.88 1934.46 1279.06 Q1932.47 1280.24 1932.47 1283.09 Q1932.47 1285.36 1933.95 1286.7 Q1935.46 1288.02 1938.02 1288.02 Q1941.57 1288.02 1943.7 1285.52 Q1945.85 1283 1945.85 1278.83 L1945.85 1277.88 L1941.61 1277.88 M1950.11 1276.12 L1950.11 1290.92 L1945.85 1290.92 L1945.85 1286.98 Q1944.39 1289.34 1942.21 1290.48 Q1940.04 1291.59 1936.89 1291.59 Q1932.91 1291.59 1930.55 1289.36 Q1928.21 1287.12 1928.21 1283.37 Q1928.21 1278.99 1931.13 1276.77 Q1934.07 1274.55 1939.88 1274.55 L1945.85 1274.55 L1945.85 1274.13 Q1945.85 1271.19 1943.9 1269.6 Q1941.98 1267.98 1938.49 1267.98 Q1936.27 1267.98 1934.16 1268.51 Q1932.05 1269.04 1930.11 1270.11 L1930.11 1266.17 Q1932.45 1265.27 1934.65 1264.83 Q1936.84 1264.36 1938.93 1264.36 Q1944.55 1264.36 1947.33 1267.28 Q1950.11 1270.2 1950.11 1276.12 Z" fill="#000000" fill-rule="nonzero" fill-opacity="1" /><polyline clip-path="url(#clip420)" style="stroke:#e26f46; stroke-linecap:round; stroke-linejoin:round; stroke-width:8; stroke-opacity:1; fill:none" points="1579.88,1325.48 1719.58,1325.48 "/>
<path clip-path="url(#clip420)" d="M1742.86 1316.83 L1747.12 1316.83 L1747.12 1342.76 L1742.86 1342.76 L1742.86 1316.83 M1742.86 1306.74 L1747.12 1306.74 L1747.12 1312.13 L1742.86 1312.13 L1742.86 1306.74 Z" fill="#000000" fill-rule="nonzero" fill-opacity="1" /><path clip-path="url(#clip420)" d="M1777.59 1327.11 L1777.59 1342.76 L1773.33 1342.76 L1773.33 1327.25 Q1773.33 1323.57 1771.89 1321.74 Q1770.46 1319.91 1767.59 1319.91 Q1764.14 1319.91 1762.15 1322.11 Q1760.16 1324.31 1760.16 1328.1 L1760.16 1342.76 L1755.87 1342.76 L1755.87 1316.83 L1760.16 1316.83 L1760.16 1320.86 Q1761.68 1318.52 1763.74 1317.36 Q1765.83 1316.2 1768.53 1316.2 Q1773 1316.2 1775.29 1318.98 Q1777.59 1321.74 1777.59 1327.11 Z" fill="#000000" fill-rule="nonzero" fill-opacity="1" /><path clip-path="url(#clip420)" d="M1790.29 1309.47 L1790.29 1316.83 L1799.07 1316.83 L1799.07 1320.14 L1790.29 1320.14 L1790.29 1334.21 Q1790.29 1337.38 1791.15 1338.29 Q1792.03 1339.19 1794.69 1339.19 L1799.07 1339.19 L1799.07 1342.76 L1794.69 1342.76 Q1789.76 1342.76 1787.89 1340.93 Q1786.01 1339.07 1786.01 1334.21 L1786.01 1320.14 L1782.89 1320.14 L1782.89 1316.83 L1786.01 1316.83 L1786.01 1309.47 L1790.29 1309.47 Z" fill="#000000" fill-rule="nonzero" fill-opacity="1" /><path clip-path="url(#clip420)" d="M1826.84 1328.73 L1826.84 1330.81 L1807.26 1330.81 Q1807.54 1335.21 1809.9 1337.52 Q1812.28 1339.82 1816.52 1339.82 Q1818.97 1339.82 1821.27 1339.21 Q1823.58 1338.61 1825.85 1337.41 L1825.85 1341.44 Q1823.56 1342.41 1821.15 1342.92 Q1818.74 1343.43 1816.27 1343.43 Q1810.06 1343.43 1806.43 1339.82 Q1802.82 1336.2 1802.82 1330.05 Q1802.82 1323.68 1806.24 1319.95 Q1809.69 1316.2 1815.53 1316.2 Q1820.76 1316.2 1823.79 1319.58 Q1826.84 1322.94 1826.84 1328.73 M1822.59 1327.48 Q1822.54 1323.98 1820.62 1321.9 Q1818.72 1319.82 1815.57 1319.82 Q1812.01 1319.82 1809.85 1321.83 Q1807.72 1323.84 1807.4 1327.5 L1822.59 1327.48 Z" fill="#000000" fill-rule="nonzero" fill-opacity="1" /><path clip-path="url(#clip420)" d="M1848.86 1320.81 Q1848.14 1320.39 1847.28 1320.21 Q1846.45 1320 1845.43 1320 Q1841.82 1320 1839.88 1322.36 Q1837.96 1324.7 1837.96 1329.1 L1837.96 1342.76 L1833.67 1342.76 L1833.67 1316.83 L1837.96 1316.83 L1837.96 1320.86 Q1839.3 1318.5 1841.45 1317.36 Q1843.6 1316.2 1846.68 1316.2 Q1847.12 1316.2 1847.65 1316.27 Q1848.19 1316.32 1848.84 1316.44 L1848.86 1320.81 Z" fill="#000000" fill-rule="nonzero" fill-opacity="1" /><path clip-path="url(#clip420)" d="M1857.45 1338.87 L1857.45 1352.62 L1853.16 1352.62 L1853.16 1316.83 L1857.45 1316.83 L1857.45 1320.76 Q1858.79 1318.45 1860.83 1317.34 Q1862.89 1316.2 1865.73 1316.2 Q1870.46 1316.2 1873.4 1319.95 Q1876.36 1323.7 1876.36 1329.82 Q1876.36 1335.93 1873.4 1339.68 Q1870.46 1343.43 1865.73 1343.43 Q1862.89 1343.43 1860.83 1342.32 Q1858.79 1341.18 1857.45 1338.87 M1871.94 1329.82 Q1871.94 1325.12 1869.99 1322.45 Q1868.07 1319.77 1864.69 1319.77 Q1861.31 1319.77 1859.37 1322.45 Q1857.45 1325.12 1857.45 1329.82 Q1857.45 1334.51 1859.37 1337.2 Q1861.31 1339.86 1864.69 1339.86 Q1868.07 1339.86 1869.99 1337.2 Q1871.94 1334.51 1871.94 1329.82 Z" fill="#000000" fill-rule="nonzero" fill-opacity="1" /><path clip-path="url(#clip420)" d="M1893.46 1319.82 Q1890.04 1319.82 1888.05 1322.5 Q1886.06 1325.16 1886.06 1329.82 Q1886.06 1334.47 1888.03 1337.15 Q1890.02 1339.82 1893.46 1339.82 Q1896.87 1339.82 1898.86 1337.13 Q1900.85 1334.45 1900.85 1329.82 Q1900.85 1325.21 1898.86 1322.52 Q1896.87 1319.82 1893.46 1319.82 M1893.46 1316.2 Q1899.02 1316.2 1902.19 1319.82 Q1905.36 1323.43 1905.36 1329.82 Q1905.36 1336.18 1902.19 1339.82 Q1899.02 1343.43 1893.46 1343.43 Q1887.89 1343.43 1884.71 1339.82 Q1881.57 1336.18 1881.57 1329.82 Q1881.57 1323.43 1884.71 1319.82 Q1887.89 1316.2 1893.46 1316.2 Z" fill="#000000" fill-rule="nonzero" fill-opacity="1" /><path clip-path="url(#clip420)" d="M1912.42 1306.74 L1916.68 1306.74 L1916.68 1342.76 L1912.42 1342.76 L1912.42 1306.74 Z" fill="#000000" fill-rule="nonzero" fill-opacity="1" /><path clip-path="url(#clip420)" d="M1937.38 1329.72 Q1932.21 1329.72 1930.22 1330.9 Q1928.23 1332.08 1928.23 1334.93 Q1928.23 1337.2 1929.71 1338.54 Q1931.22 1339.86 1933.79 1339.86 Q1937.33 1339.86 1939.46 1337.36 Q1941.61 1334.84 1941.61 1330.67 L1941.61 1329.72 L1937.38 1329.72 M1945.87 1327.96 L1945.87 1342.76 L1941.61 1342.76 L1941.61 1338.82 Q1940.15 1341.18 1937.98 1342.32 Q1935.8 1343.43 1932.65 1343.43 Q1928.67 1343.43 1926.31 1341.2 Q1923.97 1338.96 1923.97 1335.21 Q1923.97 1330.83 1926.89 1328.61 Q1929.83 1326.39 1935.64 1326.39 L1941.61 1326.39 L1941.61 1325.97 Q1941.61 1323.03 1939.67 1321.44 Q1937.75 1319.82 1934.25 1319.82 Q1932.03 1319.82 1929.92 1320.35 Q1927.82 1320.88 1925.87 1321.95 L1925.87 1318.01 Q1928.21 1317.11 1930.41 1316.67 Q1932.61 1316.2 1934.69 1316.2 Q1940.32 1316.2 1943.09 1319.12 Q1945.87 1322.04 1945.87 1327.96 Z" fill="#000000" fill-rule="nonzero" fill-opacity="1" /><path clip-path="url(#clip420)" d="M1971.17 1317.59 L1971.17 1321.62 Q1969.37 1320.7 1967.42 1320.23 Q1965.48 1319.77 1963.4 1319.77 Q1960.22 1319.77 1958.63 1320.74 Q1957.05 1321.71 1957.05 1323.66 Q1957.05 1325.14 1958.19 1326 Q1959.32 1326.83 1962.75 1327.59 L1964.21 1327.92 Q1968.74 1328.89 1970.64 1330.67 Q1972.56 1332.43 1972.56 1335.6 Q1972.56 1339.21 1969.69 1341.32 Q1966.84 1343.43 1961.84 1343.43 Q1959.76 1343.43 1957.49 1343.01 Q1955.25 1342.62 1952.75 1341.81 L1952.75 1337.41 Q1955.11 1338.63 1957.4 1339.26 Q1959.69 1339.86 1961.94 1339.86 Q1964.95 1339.86 1966.57 1338.84 Q1968.19 1337.8 1968.19 1335.93 Q1968.19 1334.19 1967.01 1333.26 Q1965.85 1332.34 1961.89 1331.48 L1960.41 1331.14 Q1956.45 1330.3 1954.69 1328.59 Q1952.93 1326.85 1952.93 1323.84 Q1952.93 1320.19 1955.52 1318.2 Q1958.12 1316.2 1962.89 1316.2 Q1965.25 1316.2 1967.33 1316.55 Q1969.41 1316.9 1971.17 1317.59 Z" fill="#000000" fill-rule="nonzero" fill-opacity="1" /><path clip-path="url(#clip420)" d="M1979.34 1316.83 L1983.6 1316.83 L1983.6 1342.76 L1979.34 1342.76 L1979.34 1316.83 M1979.34 1306.74 L1983.6 1306.74 L1983.6 1312.13 L1979.34 1312.13 L1979.34 1306.74 Z" fill="#000000" fill-rule="nonzero" fill-opacity="1" /><path clip-path="url(#clip420)" d="M2011.7 1338.87 L2011.7 1352.62 L2007.42 1352.62 L2007.42 1316.83 L2011.7 1316.83 L2011.7 1320.76 Q2013.05 1318.45 2015.08 1317.34 Q2017.14 1316.2 2019.99 1316.2 Q2024.71 1316.2 2027.65 1319.95 Q2030.62 1323.7 2030.62 1329.82 Q2030.62 1335.93 2027.65 1339.68 Q2024.71 1343.43 2019.99 1343.43 Q2017.14 1343.43 2015.08 1342.32 Q2013.05 1341.18 2011.7 1338.87 M2026.2 1329.82 Q2026.2 1325.12 2024.25 1322.45 Q2022.33 1319.77 2018.95 1319.77 Q2015.57 1319.77 2013.63 1322.45 Q2011.7 1325.12 2011.7 1329.82 Q2011.7 1334.51 2013.63 1337.2 Q2015.57 1339.86 2018.95 1339.86 Q2022.33 1339.86 2024.25 1337.2 Q2026.2 1334.51 2026.2 1329.82 Z" fill="#000000" fill-rule="nonzero" fill-opacity="1" /><path clip-path="url(#clip420)" d="M2047.72 1319.82 Q2044.3 1319.82 2042.31 1322.5 Q2040.32 1325.16 2040.32 1329.82 Q2040.32 1334.47 2042.28 1337.15 Q2044.27 1339.82 2047.72 1339.82 Q2051.13 1339.82 2053.12 1337.13 Q2055.11 1334.45 2055.11 1329.82 Q2055.11 1325.21 2053.12 1322.52 Q2051.13 1319.82 2047.72 1319.82 M2047.72 1316.2 Q2053.28 1316.2 2056.45 1319.82 Q2059.62 1323.43 2059.62 1329.82 Q2059.62 1336.18 2056.45 1339.82 Q2053.28 1343.43 2047.72 1343.43 Q2042.14 1343.43 2038.97 1339.82 Q2035.83 1336.18 2035.83 1329.82 Q2035.83 1323.43 2038.97 1319.82 Q2042.14 1316.2 2047.72 1316.2 Z" fill="#000000" fill-rule="nonzero" fill-opacity="1" /><path clip-path="url(#clip420)" d="M2066.68 1306.74 L2070.94 1306.74 L2070.94 1342.76 L2066.68 1342.76 L2066.68 1306.74 Z" fill="#000000" fill-rule="nonzero" fill-opacity="1" /><path clip-path="url(#clip420)" d="M2090.64 1345.16 Q2088.83 1349.79 2087.12 1351.2 Q2085.41 1352.62 2082.54 1352.62 L2079.14 1352.62 L2079.14 1349.05 L2081.64 1349.05 Q2083.39 1349.05 2084.37 1348.22 Q2085.34 1347.38 2086.52 1344.28 L2087.28 1342.34 L2076.8 1316.83 L2081.31 1316.83 L2089.41 1337.11 L2097.51 1316.83 L2102.03 1316.83 L2090.64 1345.16 Z" fill="#000000" fill-rule="nonzero" fill-opacity="1" /><path clip-path="url(#clip420)" d="M2129.46 1327.11 L2129.46 1342.76 L2125.2 1342.76 L2125.2 1327.25 Q2125.2 1323.57 2123.76 1321.74 Q2122.33 1319.91 2119.46 1319.91 Q2116.01 1319.91 2114.02 1322.11 Q2112.03 1324.31 2112.03 1328.1 L2112.03 1342.76 L2107.75 1342.76 L2107.75 1316.83 L2112.03 1316.83 L2112.03 1320.86 Q2113.56 1318.52 2115.62 1317.36 Q2117.7 1316.2 2120.41 1316.2 Q2124.88 1316.2 2127.17 1318.98 Q2129.46 1321.74 2129.46 1327.11 Z" fill="#000000" fill-rule="nonzero" fill-opacity="1" /><path clip-path="url(#clip420)" d="M2148 1319.82 Q2144.57 1319.82 2142.58 1322.5 Q2140.59 1325.16 2140.59 1329.82 Q2140.59 1334.47 2142.56 1337.15 Q2144.55 1339.82 2148 1339.82 Q2151.4 1339.82 2153.39 1337.13 Q2155.38 1334.45 2155.38 1329.82 Q2155.38 1325.21 2153.39 1322.52 Q2151.4 1319.82 2148 1319.82 M2148 1316.2 Q2153.56 1316.2 2156.73 1319.82 Q2159.9 1323.43 2159.9 1329.82 Q2159.9 1336.18 2156.73 1339.82 Q2153.56 1343.43 2148 1343.43 Q2142.42 1343.43 2139.25 1339.82 Q2136.1 1336.18 2136.1 1329.82 Q2136.1 1323.43 2139.25 1319.82 Q2142.42 1316.2 2148 1316.2 Z" fill="#000000" fill-rule="nonzero" fill-opacity="1" /><path clip-path="url(#clip420)" d="M2187.14 1321.81 Q2188.74 1318.94 2190.96 1317.57 Q2193.19 1316.2 2196.19 1316.2 Q2200.25 1316.2 2202.44 1319.05 Q2204.64 1321.88 2204.64 1327.11 L2204.64 1342.76 L2200.36 1342.76 L2200.36 1327.25 Q2200.36 1323.52 2199.04 1321.71 Q2197.72 1319.91 2195.01 1319.91 Q2191.7 1319.91 2189.78 1322.11 Q2187.86 1324.31 2187.86 1328.1 L2187.86 1342.76 L2183.58 1342.76 L2183.58 1327.25 Q2183.58 1323.5 2182.26 1321.71 Q2180.94 1319.91 2178.19 1319.91 Q2174.92 1319.91 2173 1322.13 Q2171.08 1324.33 2171.08 1328.1 L2171.08 1342.76 L2166.8 1342.76 L2166.8 1316.83 L2171.08 1316.83 L2171.08 1320.86 Q2172.54 1318.47 2174.57 1317.34 Q2176.61 1316.2 2179.41 1316.2 Q2182.24 1316.2 2184.2 1317.64 Q2186.19 1319.07 2187.14 1321.81 Z" fill="#000000" fill-rule="nonzero" fill-opacity="1" /><path clip-path="url(#clip420)" d="M2213.14 1316.83 L2217.4 1316.83 L2217.4 1342.76 L2213.14 1342.76 L2213.14 1316.83 M2213.14 1306.74 L2217.4 1306.74 L2217.4 1312.13 L2213.14 1312.13 L2213.14 1306.74 Z" fill="#000000" fill-rule="nonzero" fill-opacity="1" /><path clip-path="url(#clip420)" d="M2238.09 1329.72 Q2232.93 1329.72 2230.94 1330.9 Q2228.95 1332.08 2228.95 1334.93 Q2228.95 1337.2 2230.43 1338.54 Q2231.94 1339.86 2234.5 1339.86 Q2238.05 1339.86 2240.18 1337.36 Q2242.33 1334.84 2242.33 1330.67 L2242.33 1329.72 L2238.09 1329.72 M2246.59 1327.96 L2246.59 1342.76 L2242.33 1342.76 L2242.33 1338.82 Q2240.87 1341.18 2238.69 1342.32 Q2236.52 1343.43 2233.37 1343.43 Q2229.39 1343.43 2227.03 1341.2 Q2224.69 1338.96 2224.69 1335.21 Q2224.69 1330.83 2227.61 1328.61 Q2230.55 1326.39 2236.36 1326.39 L2242.33 1326.39 L2242.33 1325.97 Q2242.33 1323.03 2240.38 1321.44 Q2238.46 1319.82 2234.97 1319.82 Q2232.75 1319.82 2230.64 1320.35 Q2228.53 1320.88 2226.59 1321.95 L2226.59 1318.01 Q2228.93 1317.11 2231.13 1316.67 Q2233.32 1316.2 2235.41 1316.2 Q2241.03 1316.2 2243.81 1319.12 Q2246.59 1322.04 2246.59 1327.96 Z" fill="#000000" fill-rule="nonzero" fill-opacity="1" /><path clip-path="url(#clip420)" d="M2255.36 1306.74 L2259.62 1306.74 L2259.62 1342.76 L2255.36 1342.76 L2255.36 1306.74 Z" fill="#000000" fill-rule="nonzero" fill-opacity="1" /></svg>
