<?xml version="1.0" encoding="utf-8"?>
<svg xmlns="http://www.w3.org/2000/svg" xmlns:xlink="http://www.w3.org/1999/xlink" width="600" height="400" viewBox="0 0 2400 1600">
<defs>
  <clipPath id="clip780">
    <rect x="0" y="0" width="2400" height="1600"/>
  </clipPath>
</defs>
<path clip-path="url(#clip780)" d="M0 1600 L2400 1600 L2400 0 L0 0  Z" fill="#ffffff" fill-rule="evenodd" fill-opacity="1"/>
<defs>
  <clipPath id="clip781">
    <rect x="480" y="0" width="1681" height="1600"/>
  </clipPath>
</defs>
<path clip-path="url(#clip780)" d="M219.542 1423.18 L2352.76 1423.18 L2352.76 47.2441 L219.542 47.2441  Z" fill="#ffffff" fill-rule="evenodd" fill-opacity="1"/>
<defs>
  <clipPath id="clip782">
    <rect x="219" y="47" width="2134" height="1377"/>
  </clipPath>
</defs>
<polyline clip-path="url(#clip782)" style="stroke:#000000; stroke-linecap:round; stroke-linejoin:round; stroke-width:2; stroke-opacity:0.1; fill:none" points="279.916,1423.18 279.916,47.2441 "/>
<polyline clip-path="url(#clip782)" style="stroke:#000000; stroke-linecap:round; stroke-linejoin:round; stroke-width:2; stroke-opacity:0.1; fill:none" points="783.033,1423.18 783.033,47.2441 "/>
<polyline clip-path="url(#clip782)" style="stroke:#000000; stroke-linecap:round; stroke-linejoin:round; stroke-width:2; stroke-opacity:0.1; fill:none" points="1286.15,1423.18 1286.15,47.2441 "/>
<polyline clip-path="url(#clip782)" style="stroke:#000000; stroke-linecap:round; stroke-linejoin:round; stroke-width:2; stroke-opacity:0.1; fill:none" points="1789.27,1423.18 1789.27,47.2441 "/>
<polyline clip-path="url(#clip782)" style="stroke:#000000; stroke-linecap:round; stroke-linejoin:round; stroke-width:2; stroke-opacity:0.1; fill:none" points="2292.38,1423.18 2292.38,47.2441 "/>
<polyline clip-path="url(#clip780)" style="stroke:#000000; stroke-linecap:round; stroke-linejoin:round; stroke-width:4; stroke-opacity:1; fill:none" points="219.542,1423.18 2352.76,1423.18 "/>
<polyline clip-path="url(#clip780)" style="stroke:#000000; stroke-linecap:round; stroke-linejoin:round; stroke-width:4; stroke-opacity:1; fill:none" points="279.916,1423.18 279.916,1404.28 "/>
<polyline clip-path="url(#clip780)" style="stroke:#000000; stroke-linecap:round; stroke-linejoin:round; stroke-width:4; stroke-opacity:1; fill:none" points="783.033,1423.18 783.033,1404.28 "/>
<polyline clip-path="url(#clip780)" style="stroke:#000000; stroke-linecap:round; stroke-linejoin:round; stroke-width:4; stroke-opacity:1; fill:none" points="1286.15,1423.18 1286.15,1404.28 "/>
<polyline clip-path="url(#clip780)" style="stroke:#000000; stroke-linecap:round; stroke-linejoin:round; stroke-width:4; stroke-opacity:1; fill:none" points="1789.27,1423.18 1789.27,1404.28 "/>
<polyline clip-path="url(#clip780)" style="stroke:#000000; stroke-linecap:round; stroke-linejoin:round; stroke-width:4; stroke-opacity:1; fill:none" points="2292.38,1423.18 2292.38,1404.28 "/>
<path clip-path="url(#clip780)" d="M226.444 1468.75 L256.12 1468.75 L256.12 1472.69 L226.444 1472.69 L226.444 1468.75 Z" fill="#000000" fill-rule="nonzero" fill-opacity="1" /><path clip-path="url(#clip780)" d="M267.023 1481.64 L274.662 1481.64 L274.662 1455.28 L266.351 1456.95 L266.351 1452.69 L274.615 1451.02 L279.291 1451.02 L279.291 1481.64 L286.93 1481.64 L286.93 1485.58 L267.023 1485.58 L267.023 1481.64 Z" fill="#000000" fill-rule="nonzero" fill-opacity="1" /><path clip-path="url(#clip780)" d="M296.374 1479.7 L301.259 1479.7 L301.259 1485.58 L296.374 1485.58 L296.374 1479.7 Z" fill="#000000" fill-rule="nonzero" fill-opacity="1" /><path clip-path="url(#clip780)" d="M321.444 1454.1 Q317.833 1454.1 316.004 1457.66 Q314.198 1461.2 314.198 1468.33 Q314.198 1475.44 316.004 1479.01 Q317.833 1482.55 321.444 1482.55 Q325.078 1482.55 326.884 1479.01 Q328.712 1475.44 328.712 1468.33 Q328.712 1461.2 326.884 1457.66 Q325.078 1454.1 321.444 1454.1 M321.444 1450.39 Q327.254 1450.39 330.309 1455 Q333.388 1459.58 333.388 1468.33 Q333.388 1477.06 330.309 1481.67 Q327.254 1486.25 321.444 1486.25 Q315.634 1486.25 312.555 1481.67 Q309.499 1477.06 309.499 1468.33 Q309.499 1459.58 312.555 1455 Q315.634 1450.39 321.444 1450.39 Z" fill="#000000" fill-rule="nonzero" fill-opacity="1" /><path clip-path="url(#clip780)" d="M730.058 1468.75 L759.734 1468.75 L759.734 1472.69 L730.058 1472.69 L730.058 1468.75 Z" fill="#000000" fill-rule="nonzero" fill-opacity="1" /><path clip-path="url(#clip780)" d="M779.827 1454.1 Q776.216 1454.1 774.387 1457.66 Q772.581 1461.2 772.581 1468.33 Q772.581 1475.44 774.387 1479.01 Q776.216 1482.55 779.827 1482.55 Q783.461 1482.55 785.266 1479.01 Q787.095 1475.44 787.095 1468.33 Q787.095 1461.2 785.266 1457.66 Q783.461 1454.1 779.827 1454.1 M779.827 1450.39 Q785.637 1450.39 788.692 1455 Q791.771 1459.58 791.771 1468.33 Q791.771 1477.06 788.692 1481.67 Q785.637 1486.25 779.827 1486.25 Q774.016 1486.25 770.938 1481.67 Q767.882 1477.06 767.882 1468.33 Q767.882 1459.58 770.938 1455 Q774.016 1450.39 779.827 1450.39 Z" fill="#000000" fill-rule="nonzero" fill-opacity="1" /><path clip-path="url(#clip780)" d="M799.989 1479.7 L804.873 1479.7 L804.873 1485.58 L799.989 1485.58 L799.989 1479.7 Z" fill="#000000" fill-rule="nonzero" fill-opacity="1" /><path clip-path="url(#clip780)" d="M815.104 1451.02 L833.461 1451.02 L833.461 1454.96 L819.387 1454.96 L819.387 1463.43 Q820.405 1463.08 821.424 1462.92 Q822.442 1462.73 823.461 1462.73 Q829.248 1462.73 832.627 1465.9 Q836.007 1469.08 836.007 1474.49 Q836.007 1480.07 832.535 1483.17 Q829.062 1486.25 822.743 1486.25 Q820.567 1486.25 818.299 1485.88 Q816.053 1485.51 813.646 1484.77 L813.646 1480.07 Q815.729 1481.2 817.951 1481.76 Q820.174 1482.32 822.65 1482.32 Q826.655 1482.32 828.993 1480.21 Q831.331 1478.1 831.331 1474.49 Q831.331 1470.88 828.993 1468.77 Q826.655 1466.67 822.65 1466.67 Q820.775 1466.67 818.9 1467.08 Q817.049 1467.5 815.104 1468.38 L815.104 1451.02 Z" fill="#000000" fill-rule="nonzero" fill-opacity="1" /><path clip-path="url(#clip780)" d="M1263.53 1454.1 Q1259.92 1454.1 1258.09 1457.66 Q1256.29 1461.2 1256.29 1468.33 Q1256.29 1475.44 1258.09 1479.01 Q1259.92 1482.55 1263.53 1482.55 Q1267.17 1482.55 1268.97 1479.01 Q1270.8 1475.44 1270.8 1468.33 Q1270.8 1461.2 1268.97 1457.66 Q1267.17 1454.1 1263.53 1454.1 M1263.53 1450.39 Q1269.34 1450.39 1272.4 1455 Q1275.48 1459.58 1275.48 1468.33 Q1275.48 1477.06 1272.4 1481.67 Q1269.34 1486.25 1263.53 1486.25 Q1257.72 1486.25 1254.64 1481.67 Q1251.59 1477.06 1251.59 1468.33 Q1251.59 1459.58 1254.64 1455 Q1257.72 1450.39 1263.53 1450.39 Z" fill="#000000" fill-rule="nonzero" fill-opacity="1" /><path clip-path="url(#clip780)" d="M1283.7 1479.7 L1288.58 1479.7 L1288.58 1485.58 L1283.7 1485.58 L1283.7 1479.7 Z" fill="#000000" fill-rule="nonzero" fill-opacity="1" /><path clip-path="url(#clip780)" d="M1308.76 1454.1 Q1305.15 1454.1 1303.32 1457.66 Q1301.52 1461.2 1301.52 1468.33 Q1301.52 1475.44 1303.32 1479.01 Q1305.15 1482.55 1308.76 1482.55 Q1312.4 1482.55 1314.2 1479.01 Q1316.03 1475.44 1316.03 1468.33 Q1316.03 1461.2 1314.2 1457.66 Q1312.4 1454.1 1308.76 1454.1 M1308.76 1450.39 Q1314.57 1450.39 1317.63 1455 Q1320.71 1459.58 1320.71 1468.33 Q1320.71 1477.06 1317.63 1481.67 Q1314.57 1486.25 1308.76 1486.25 Q1302.95 1486.25 1299.88 1481.67 Q1296.82 1477.06 1296.82 1468.33 Q1296.82 1459.58 1299.88 1455 Q1302.95 1450.39 1308.76 1450.39 Z" fill="#000000" fill-rule="nonzero" fill-opacity="1" /><path clip-path="url(#clip780)" d="M1767.15 1454.1 Q1763.54 1454.1 1761.71 1457.66 Q1759.9 1461.2 1759.9 1468.33 Q1759.9 1475.44 1761.71 1479.01 Q1763.54 1482.55 1767.15 1482.55 Q1770.78 1482.55 1772.59 1479.01 Q1774.42 1475.44 1774.42 1468.33 Q1774.42 1461.2 1772.59 1457.66 Q1770.78 1454.1 1767.15 1454.1 M1767.15 1450.39 Q1772.96 1450.39 1776.01 1455 Q1779.09 1459.58 1779.09 1468.33 Q1779.09 1477.06 1776.01 1481.67 Q1772.96 1486.25 1767.15 1486.25 Q1761.34 1486.25 1758.26 1481.67 Q1755.2 1477.06 1755.2 1468.33 Q1755.2 1459.58 1758.26 1455 Q1761.34 1450.39 1767.15 1450.39 Z" fill="#000000" fill-rule="nonzero" fill-opacity="1" /><path clip-path="url(#clip780)" d="M1787.31 1479.7 L1792.19 1479.7 L1792.19 1485.58 L1787.31 1485.58 L1787.31 1479.7 Z" fill="#000000" fill-rule="nonzero" fill-opacity="1" /><path clip-path="url(#clip780)" d="M1802.43 1451.02 L1820.78 1451.02 L1820.78 1454.96 L1806.71 1454.96 L1806.71 1463.43 Q1807.73 1463.08 1808.74 1462.92 Q1809.76 1462.73 1810.78 1462.73 Q1816.57 1462.73 1819.95 1465.9 Q1823.33 1469.08 1823.33 1474.49 Q1823.33 1480.07 1819.86 1483.17 Q1816.38 1486.25 1810.06 1486.25 Q1807.89 1486.25 1805.62 1485.88 Q1803.37 1485.51 1800.97 1484.77 L1800.97 1480.07 Q1803.05 1481.2 1805.27 1481.76 Q1807.49 1482.32 1809.97 1482.32 Q1813.98 1482.32 1816.31 1480.21 Q1818.65 1478.1 1818.65 1474.49 Q1818.65 1470.88 1816.31 1468.77 Q1813.98 1466.67 1809.97 1466.67 Q1808.1 1466.67 1806.22 1467.08 Q1804.37 1467.5 1802.43 1468.38 L1802.43 1451.02 Z" fill="#000000" fill-rule="nonzero" fill-opacity="1" /><path clip-path="url(#clip780)" d="M2259.53 1481.64 L2267.17 1481.64 L2267.17 1455.28 L2258.86 1456.95 L2258.86 1452.69 L2267.13 1451.02 L2271.8 1451.02 L2271.8 1481.64 L2279.44 1481.64 L2279.44 1485.58 L2259.53 1485.58 L2259.53 1481.64 Z" fill="#000000" fill-rule="nonzero" fill-opacity="1" /><path clip-path="url(#clip780)" d="M2288.89 1479.7 L2293.77 1479.7 L2293.77 1485.58 L2288.89 1485.58 L2288.89 1479.7 Z" fill="#000000" fill-rule="nonzero" fill-opacity="1" /><path clip-path="url(#clip780)" d="M2313.96 1454.1 Q2310.34 1454.1 2308.52 1457.66 Q2306.71 1461.2 2306.71 1468.33 Q2306.71 1475.44 2308.52 1479.01 Q2310.34 1482.55 2313.96 1482.55 Q2317.59 1482.55 2319.4 1479.01 Q2321.22 1475.44 2321.22 1468.33 Q2321.22 1461.2 2319.4 1457.66 Q2317.59 1454.1 2313.96 1454.1 M2313.96 1450.39 Q2319.77 1450.39 2322.82 1455 Q2325.9 1459.58 2325.9 1468.33 Q2325.9 1477.06 2322.82 1481.67 Q2319.77 1486.25 2313.96 1486.25 Q2308.15 1486.25 2305.07 1481.67 Q2302.01 1477.06 2302.01 1468.33 Q2302.01 1459.58 2305.07 1455 Q2308.15 1450.39 2313.96 1450.39 Z" fill="#000000" fill-rule="nonzero" fill-opacity="1" /><path clip-path="url(#clip780)" d="M1302.76 1532.4 L1289.87 1549.74 L1303.43 1568.04 L1296.53 1568.04 L1286.15 1554.04 L1275.77 1568.04 L1268.87 1568.04 L1282.71 1549.39 L1270.04 1532.4 L1276.95 1532.4 L1286.4 1545.1 L1295.86 1532.4 L1302.76 1532.4 Z" fill="#000000" fill-rule="nonzero" fill-opacity="1" /><polyline clip-path="url(#clip782)" style="stroke:#000000; stroke-linecap:round; stroke-linejoin:round; stroke-width:2; stroke-opacity:0.1; fill:none" points="219.542,1261.31 2352.76,1261.31 "/>
<polyline clip-path="url(#clip782)" style="stroke:#000000; stroke-linecap:round; stroke-linejoin:round; stroke-width:2; stroke-opacity:0.1; fill:none" points="219.542,1018.49 2352.76,1018.49 "/>
<polyline clip-path="url(#clip782)" style="stroke:#000000; stroke-linecap:round; stroke-linejoin:round; stroke-width:2; stroke-opacity:0.1; fill:none" points="219.542,775.681 2352.76,775.681 "/>
<polyline clip-path="url(#clip782)" style="stroke:#000000; stroke-linecap:round; stroke-linejoin:round; stroke-width:2; stroke-opacity:0.1; fill:none" points="219.542,532.868 2352.76,532.868 "/>
<polyline clip-path="url(#clip782)" style="stroke:#000000; stroke-linecap:round; stroke-linejoin:round; stroke-width:2; stroke-opacity:0.1; fill:none" points="219.542,290.056 2352.76,290.056 "/>
<polyline clip-path="url(#clip780)" style="stroke:#000000; stroke-linecap:round; stroke-linejoin:round; stroke-width:4; stroke-opacity:1; fill:none" points="219.542,1423.18 219.542,47.2441 "/>
<polyline clip-path="url(#clip780)" style="stroke:#000000; stroke-linecap:round; stroke-linejoin:round; stroke-width:4; stroke-opacity:1; fill:none" points="219.542,1261.31 238.44,1261.31 "/>
<polyline clip-path="url(#clip780)" style="stroke:#000000; stroke-linecap:round; stroke-linejoin:round; stroke-width:4; stroke-opacity:1; fill:none" points="219.542,1018.49 238.44,1018.49 "/>
<polyline clip-path="url(#clip780)" style="stroke:#000000; stroke-linecap:round; stroke-linejoin:round; stroke-width:4; stroke-opacity:1; fill:none" points="219.542,775.681 238.44,775.681 "/>
<polyline clip-path="url(#clip780)" style="stroke:#000000; stroke-linecap:round; stroke-linejoin:round; stroke-width:4; stroke-opacity:1; fill:none" points="219.542,532.868 238.44,532.868 "/>
<polyline clip-path="url(#clip780)" style="stroke:#000000; stroke-linecap:round; stroke-linejoin:round; stroke-width:4; stroke-opacity:1; fill:none" points="219.542,290.056 238.44,290.056 "/>
<path clip-path="url(#clip780)" d="M126.367 1247.1 Q122.755 1247.1 120.927 1250.67 Q119.121 1254.21 119.121 1261.34 Q119.121 1268.45 120.927 1272.01 Q122.755 1275.55 126.367 1275.55 Q130.001 1275.55 131.806 1272.01 Q133.635 1268.45 133.635 1261.34 Q133.635 1254.21 131.806 1250.67 Q130.001 1247.1 126.367 1247.1 M126.367 1243.4 Q132.177 1243.4 135.232 1248.01 Q138.311 1252.59 138.311 1261.34 Q138.311 1270.07 135.232 1274.67 Q132.177 1279.26 126.367 1279.26 Q120.556 1279.26 117.478 1274.67 Q114.422 1270.07 114.422 1261.34 Q114.422 1252.59 117.478 1248.01 Q120.556 1243.4 126.367 1243.4 Z" fill="#000000" fill-rule="nonzero" fill-opacity="1" /><path clip-path="url(#clip780)" d="M146.529 1272.71 L151.413 1272.71 L151.413 1278.59 L146.529 1278.59 L146.529 1272.71 Z" fill="#000000" fill-rule="nonzero" fill-opacity="1" /><path clip-path="url(#clip780)" d="M171.598 1247.1 Q167.987 1247.1 166.158 1250.67 Q164.352 1254.21 164.352 1261.34 Q164.352 1268.45 166.158 1272.01 Q167.987 1275.55 171.598 1275.55 Q175.232 1275.55 177.038 1272.01 Q178.866 1268.45 178.866 1261.34 Q178.866 1254.21 177.038 1250.67 Q175.232 1247.1 171.598 1247.1 M171.598 1243.4 Q177.408 1243.4 180.464 1248.01 Q183.542 1252.59 183.542 1261.34 Q183.542 1270.07 180.464 1274.67 Q177.408 1279.26 171.598 1279.26 Q165.788 1279.26 162.709 1274.67 Q159.653 1270.07 159.653 1261.34 Q159.653 1252.59 162.709 1248.01 Q165.788 1243.4 171.598 1243.4 Z" fill="#000000" fill-rule="nonzero" fill-opacity="1" /><path clip-path="url(#clip780)" d="M127.015 1004.29 Q123.404 1004.29 121.575 1007.86 Q119.769 1011.4 119.769 1018.53 Q119.769 1025.63 121.575 1029.2 Q123.404 1032.74 127.015 1032.74 Q130.649 1032.74 132.455 1029.2 Q134.283 1025.63 134.283 1018.53 Q134.283 1011.4 132.455 1007.86 Q130.649 1004.29 127.015 1004.29 M127.015 1000.59 Q132.825 1000.59 135.88 1005.19 Q138.959 1009.78 138.959 1018.53 Q138.959 1027.25 135.88 1031.86 Q132.825 1036.44 127.015 1036.44 Q121.205 1036.44 118.126 1031.86 Q115.07 1027.25 115.07 1018.53 Q115.07 1009.78 118.126 1005.19 Q121.205 1000.59 127.015 1000.59 Z" fill="#000000" fill-rule="nonzero" fill-opacity="1" /><path clip-path="url(#clip780)" d="M147.177 1029.89 L152.061 1029.89 L152.061 1035.77 L147.177 1035.77 L147.177 1029.89 Z" fill="#000000" fill-rule="nonzero" fill-opacity="1" /><path clip-path="url(#clip780)" d="M176.413 1017.14 Q179.769 1017.86 181.644 1020.12 Q183.542 1022.39 183.542 1025.73 Q183.542 1030.84 180.024 1033.64 Q176.505 1036.44 170.024 1036.44 Q167.848 1036.44 165.533 1036 Q163.241 1035.59 160.788 1034.73 L160.788 1030.22 Q162.732 1031.35 165.047 1031.93 Q167.362 1032.51 169.885 1032.51 Q174.283 1032.51 176.575 1030.77 Q178.889 1029.04 178.889 1025.73 Q178.889 1022.67 176.737 1020.96 Q174.607 1019.22 170.788 1019.22 L166.76 1019.22 L166.76 1015.38 L170.973 1015.38 Q174.422 1015.38 176.251 1014.01 Q178.079 1012.62 178.079 1010.03 Q178.079 1007.37 176.181 1005.96 Q174.306 1004.52 170.788 1004.52 Q168.866 1004.52 166.667 1004.94 Q164.468 1005.36 161.829 1006.24 L161.829 1002.07 Q164.491 1001.33 166.806 1000.96 Q169.144 1000.59 171.204 1000.59 Q176.528 1000.59 179.63 1003.02 Q182.732 1005.43 182.732 1009.55 Q182.732 1012.42 181.089 1014.41 Q179.445 1016.37 176.413 1017.14 Z" fill="#000000" fill-rule="nonzero" fill-opacity="1" /><path clip-path="url(#clip780)" d="M126.205 761.479 Q122.593 761.479 120.765 765.044 Q118.959 768.586 118.959 775.715 Q118.959 782.822 120.765 786.387 Q122.593 789.928 126.205 789.928 Q129.839 789.928 131.644 786.387 Q133.473 782.822 133.473 775.715 Q133.473 768.586 131.644 765.044 Q129.839 761.479 126.205 761.479 M126.205 757.776 Q132.015 757.776 135.07 762.382 Q138.149 766.965 138.149 775.715 Q138.149 784.442 135.07 789.049 Q132.015 793.632 126.205 793.632 Q120.394 793.632 117.316 789.049 Q114.26 784.442 114.26 775.715 Q114.26 766.965 117.316 762.382 Q120.394 757.776 126.205 757.776 Z" fill="#000000" fill-rule="nonzero" fill-opacity="1" /><path clip-path="url(#clip780)" d="M146.366 787.081 L151.251 787.081 L151.251 792.961 L146.366 792.961 L146.366 787.081 Z" fill="#000000" fill-rule="nonzero" fill-opacity="1" /><path clip-path="url(#clip780)" d="M172.014 773.817 Q168.866 773.817 167.015 775.97 Q165.186 778.123 165.186 781.873 Q165.186 785.6 167.015 787.776 Q168.866 789.928 172.014 789.928 Q175.163 789.928 176.991 787.776 Q178.843 785.6 178.843 781.873 Q178.843 778.123 176.991 775.97 Q175.163 773.817 172.014 773.817 M181.297 759.165 L181.297 763.424 Q179.538 762.59 177.732 762.151 Q175.95 761.711 174.19 761.711 Q169.561 761.711 167.107 764.836 Q164.677 767.961 164.329 774.28 Q165.695 772.266 167.755 771.202 Q169.815 770.114 172.292 770.114 Q177.501 770.114 180.51 773.285 Q183.542 776.433 183.542 781.873 Q183.542 787.197 180.394 790.414 Q177.246 793.632 172.014 793.632 Q166.019 793.632 162.848 789.049 Q159.677 784.442 159.677 775.715 Q159.677 767.521 163.565 762.66 Q167.454 757.776 174.005 757.776 Q175.764 757.776 177.547 758.123 Q179.352 758.47 181.297 759.165 Z" fill="#000000" fill-rule="nonzero" fill-opacity="1" /><path clip-path="url(#clip780)" d="M126.552 518.667 Q122.941 518.667 121.112 522.232 Q119.306 525.774 119.306 532.903 Q119.306 540.01 121.112 543.574 Q122.941 547.116 126.552 547.116 Q130.186 547.116 131.992 543.574 Q133.82 540.01 133.82 532.903 Q133.82 525.774 131.992 522.232 Q130.186 518.667 126.552 518.667 M126.552 514.963 Q132.362 514.963 135.417 519.57 Q138.496 524.153 138.496 532.903 Q138.496 541.63 135.417 546.236 Q132.362 550.82 126.552 550.82 Q120.742 550.82 117.663 546.236 Q114.607 541.63 114.607 532.903 Q114.607 524.153 117.663 519.57 Q120.742 514.963 126.552 514.963 Z" fill="#000000" fill-rule="nonzero" fill-opacity="1" /><path clip-path="url(#clip780)" d="M146.714 544.269 L151.598 544.269 L151.598 550.148 L146.714 550.148 L146.714 544.269 Z" fill="#000000" fill-rule="nonzero" fill-opacity="1" /><path clip-path="url(#clip780)" d="M161.922 549.431 L161.922 545.172 Q163.681 546.005 165.487 546.445 Q167.292 546.885 169.028 546.885 Q173.658 546.885 176.089 543.783 Q178.542 540.658 178.889 534.315 Q177.547 536.306 175.487 537.371 Q173.427 538.436 170.927 538.436 Q165.741 538.436 162.709 535.311 Q159.7 532.162 159.7 526.723 Q159.7 521.399 162.848 518.181 Q165.996 514.963 171.227 514.963 Q177.223 514.963 180.371 519.57 Q183.542 524.153 183.542 532.903 Q183.542 541.074 179.653 545.959 Q175.788 550.82 169.237 550.82 Q167.477 550.82 165.672 550.473 Q163.866 550.125 161.922 549.431 M171.227 534.778 Q174.376 534.778 176.204 532.625 Q178.056 530.473 178.056 526.723 Q178.056 522.996 176.204 520.843 Q174.376 518.667 171.227 518.667 Q168.079 518.667 166.227 520.843 Q164.399 522.996 164.399 526.723 Q164.399 530.473 166.227 532.625 Q168.079 534.778 171.227 534.778 Z" fill="#000000" fill-rule="nonzero" fill-opacity="1" /><path clip-path="url(#clip780)" d="M118.774 303.401 L126.413 303.401 L126.413 277.036 L118.103 278.702 L118.103 274.443 L126.367 272.776 L131.042 272.776 L131.042 303.401 L138.681 303.401 L138.681 307.336 L118.774 307.336 L118.774 303.401 Z" fill="#000000" fill-rule="nonzero" fill-opacity="1" /><path clip-path="url(#clip780)" d="M148.126 301.457 L153.01 301.457 L153.01 307.336 L148.126 307.336 L148.126 301.457 Z" fill="#000000" fill-rule="nonzero" fill-opacity="1" /><path clip-path="url(#clip780)" d="M167.223 303.401 L183.542 303.401 L183.542 307.336 L161.598 307.336 L161.598 303.401 Q164.26 300.647 168.843 296.017 Q173.45 291.364 174.63 290.022 Q176.876 287.498 177.755 285.762 Q178.658 284.003 178.658 282.313 Q178.658 279.559 176.714 277.823 Q174.792 276.086 171.69 276.086 Q169.491 276.086 167.038 276.85 Q164.607 277.614 161.829 279.165 L161.829 274.443 Q164.653 273.309 167.107 272.73 Q169.561 272.151 171.598 272.151 Q176.968 272.151 180.163 274.836 Q183.357 277.522 183.357 282.012 Q183.357 284.142 182.547 286.063 Q181.76 287.961 179.653 290.554 Q179.075 291.225 175.973 294.443 Q172.871 297.637 167.223 303.401 Z" fill="#000000" fill-rule="nonzero" fill-opacity="1" /><path clip-path="url(#clip780)" d="M67.3143 733.525 Q73.68 736.008 75.6216 738.363 Q77.5631 740.718 77.5631 744.665 L77.5631 749.344 L72.6615 749.344 L72.6615 745.906 Q72.6615 743.487 71.5157 742.151 Q70.3699 740.814 66.1048 739.191 L63.4312 738.14 L28.3562 752.559 L28.3562 746.352 L56.238 735.212 L28.3562 724.072 L28.3562 717.865 L67.3143 733.525 Z" fill="#000000" fill-rule="nonzero" fill-opacity="1" /><circle clip-path="url(#clip782)" cx="380.539" cy="1223.22" r="14.4" fill="#009af9" fill-rule="evenodd" fill-opacity="1" stroke="#000000" stroke-opacity="1" stroke-width="3.2"/>
<circle clip-path="url(#clip782)" cx="481.163" cy="1213.69" r="14.4" fill="#009af9" fill-rule="evenodd" fill-opacity="1" stroke="#000000" stroke-opacity="1" stroke-width="3.2"/>
<circle clip-path="url(#clip782)" cx="581.786" cy="1200.22" r="14.4" fill="#009af9" fill-rule="evenodd" fill-opacity="1" stroke="#000000" stroke-opacity="1" stroke-width="3.2"/>
<circle clip-path="url(#clip782)" cx="682.409" cy="1180.37" r="14.4" fill="#009af9" fill-rule="evenodd" fill-opacity="1" stroke="#000000" stroke-opacity="1" stroke-width="3.2"/>
<circle clip-path="url(#clip782)" cx="783.033" cy="1149.67" r="14.4" fill="#009af9" fill-rule="evenodd" fill-opacity="1" stroke="#000000" stroke-opacity="1" stroke-width="3.2"/>
<circle clip-path="url(#clip782)" cx="883.656" cy="1099.43" r="14.4" fill="#009af9" fill-rule="evenodd" fill-opacity="1" stroke="#000000" stroke-opacity="1" stroke-width="3.2"/>
<circle clip-path="url(#clip782)" cx="984.279" cy="1012.27" r="14.4" fill="#009af9" fill-rule="evenodd" fill-opacity="1" stroke="#000000" stroke-opacity="1" stroke-width="3.2"/>
<circle clip-path="url(#clip782)" cx="1084.9" cy="856.618" r="14.4" fill="#009af9" fill-rule="evenodd" fill-opacity="1" stroke="#000000" stroke-opacity="1" stroke-width="3.2"/>
<circle clip-path="url(#clip782)" cx="1185.53" cy="613.806" r="14.4" fill="#009af9" fill-rule="evenodd" fill-opacity="1" stroke="#000000" stroke-opacity="1" stroke-width="3.2"/>
<circle clip-path="url(#clip782)" cx="1286.15" cy="451.931" r="14.4" fill="#009af9" fill-rule="evenodd" fill-opacity="1" stroke="#000000" stroke-opacity="1" stroke-width="3.2"/>
<circle clip-path="url(#clip782)" cx="1386.77" cy="613.806" r="14.4" fill="#009af9" fill-rule="evenodd" fill-opacity="1" stroke="#000000" stroke-opacity="1" stroke-width="3.2"/>
<circle clip-path="url(#clip782)" cx="1487.4" cy="856.618" r="14.4" fill="#009af9" fill-rule="evenodd" fill-opacity="1" stroke="#000000" stroke-opacity="1" stroke-width="3.2"/>
<circle clip-path="url(#clip782)" cx="1588.02" cy="1012.27" r="14.4" fill="#009af9" fill-rule="evenodd" fill-opacity="1" stroke="#000000" stroke-opacity="1" stroke-width="3.2"/>
<circle clip-path="url(#clip782)" cx="1688.64" cy="1099.43" r="14.4" fill="#009af9" fill-rule="evenodd" fill-opacity="1" stroke="#000000" stroke-opacity="1" stroke-width="3.2"/>
<circle clip-path="url(#clip782)" cx="1789.27" cy="1149.67" r="14.4" fill="#009af9" fill-rule="evenodd" fill-opacity="1" stroke="#000000" stroke-opacity="1" stroke-width="3.2"/>
<circle clip-path="url(#clip782)" cx="1889.89" cy="1180.37" r="14.4" fill="#009af9" fill-rule="evenodd" fill-opacity="1" stroke="#000000" stroke-opacity="1" stroke-width="3.2"/>
<circle clip-path="url(#clip782)" cx="1990.51" cy="1200.22" r="14.4" fill="#009af9" fill-rule="evenodd" fill-opacity="1" stroke="#000000" stroke-opacity="1" stroke-width="3.2"/>
<circle clip-path="url(#clip782)" cx="2091.14" cy="1213.69" r="14.4" fill="#009af9" fill-rule="evenodd" fill-opacity="1" stroke="#000000" stroke-opacity="1" stroke-width="3.2"/>
<circle clip-path="url(#clip782)" cx="2191.76" cy="1223.22" r="14.4" fill="#009af9" fill-rule="evenodd" fill-opacity="1" stroke="#000000" stroke-opacity="1" stroke-width="3.2"/>
<circle clip-path="url(#clip782)" cx="2292.38" cy="1230.18" r="14.4" fill="#009af9" fill-rule="evenodd" fill-opacity="1" stroke="#000000" stroke-opacity="1" stroke-width="3.2"/>
<polyline clip-path="url(#clip782)" style="stroke:#e26f46; stroke-linecap:round; stroke-linejoin:round; stroke-width:8; stroke-opacity:1; fill:none" points="279.916,5.12448e+06 281.931,4.1943e+06 283.945,4.1943e+06 285.96,4.14054e+06 287.974,3.85123e+06 289.989,3.57955e+06 292.003,3.32456e+06 294.018,3.08535e+06 296.032,2.86107e+06 298.046,2.65088e+06 300.061,2.45403e+06 302.075,2.26975e+06 304.09,2.09736e+06 306.104,1.93619e+06 308.119,1.78558e+06 310.133,1.64495e+06 312.148,1.51372e+06 314.162,1.39134e+06 316.177,1.2773e+06 318.191,1.17111e+06 320.206,1.07229e+06 322.22,980413 324.235,895058 326.249,815829 328.264,742349 330.278,674264 332.293,611238 334.307,552952 336.322,499107 338.336,449417 340.351,403614 342.365,361445 344.38,322670 346.394,287063 348.408,254411 350.423,224513 352.437,197180 354.452,172234 356.466,149507 358.481,128841 360.495,110088 362.51,93107.9 364.524,77770.1 366.539,63951.6 368.553,51537.2 370.568,40418.8 372.582,30495 374.597,21671.1 376.611,13858.5 378.626,6974.1 380.64,940.615 382.655,-4314.26 384.669,-8857.92 386.684,-12753.2 388.698,-16058.5 390.713,-18828.2 392.727,-21112.8 394.742,-22959.3 396.756,-24411.1 398.771,-25508.5 400.785,-26288.8 402.799,-26786.3 404.814,-27032.7 406.828,-27057.5 408.843,-26887.4 410.857,-26547.3 412.872,-26059.7 414.886,-25445.5 416.901,-24723.7 418.915,-23911.4 420.93,-23024.4 422.944,-22077 424.959,-21082.2 426.973,-20051.6 428.988,-18995.6 431.002,-17923.7 433.017,-16844.2 435.031,-15764.7 437.046,-14691.7 439.06,-13631 441.075,-12587.8 443.089,-11566.3 445.104,-10570.4 447.118,-9603.32 449.133,-8667.7 451.147,-7765.76 453.161,-6899.28 455.176,-6069.66 457.19,-5277.92 459.205,-4524.77 461.219,-3810.64 463.234,-3135.67 465.248,-2499.79 467.263,-1902.72 469.277,-1344 471.292,-823.005 473.306,-338.963 475.321,109.01 477.335,521.906 479.35,900.804 481.364,1246.86 483.379,1561.28 485.393,1845.32 487.408,2100.3 489.422,2327.52 491.437,2528.33 493.451,2704.07 495.466,2856.1 497.48,2985.76 499.495,3094.38 501.509,3183.28 503.523,3253.74 505.538,3307.04 507.552,3344.41 509.567,3367.05 511.581,3376.14 513.596,3372.8 515.61,3358.12 517.625,3333.15 519.639,3298.91 521.654,3256.34 523.668,3206.38 525.683,3149.89 527.697,3087.71 529.712,3020.63 531.726,2949.38 533.741,2874.67 535.755,2797.16 537.77,2717.46 539.784,2636.14 541.799,2553.73 543.813,2470.74 545.828,2387.61 547.842,2304.76 549.857,2222.59 551.871,2141.43 553.885,2061.6 555.9,1983.39 557.914,1907.06 559.929,1832.82 561.943,1760.87 563.958,1691.38 565.972,1624.51 567.987,1560.37 570.001,1499.06 572.016,1440.67 574.03,1385.25 576.045,1332.85 578.059,1283.49 580.074,1237.19 582.088,1193.92 584.103,1153.69 586.117,1116.46 588.132,1082.18 590.146,1050.81 592.161,1022.28 594.175,996.52 596.19,973.459 598.204,953.013 600.219,935.091 602.233,919.6 604.247,906.443 606.262,895.519 608.276,886.724 610.291,879.952 612.305,875.095 614.32,872.046 616.334,870.697 618.349,870.937 620.363,872.66 622.378,875.758 624.392,880.126 626.407,885.659 628.421,892.255 630.436,899.813 632.45,908.237 634.465,917.431 636.479,927.305 638.494,937.767 640.508,948.734 642.523,960.123 644.537,971.856 646.552,983.856 648.566,996.053 650.581,1008.38 652.595,1020.77 654.609,1033.16 656.624,1045.51 658.638,1057.74 660.653,1069.83 662.667,1081.71 664.682,1093.35 666.696,1104.71 668.711,1115.75 670.725,1126.44 672.74,1136.76 674.754,1146.68 676.769,1156.18 678.783,1165.23 680.798,1173.83 682.812,1181.95 684.827,1189.6 686.841,1196.75 688.856,1203.41 690.87,1209.57 692.885,1215.23 694.899,1220.39 696.914,1225.05 698.928,1229.22 700.943,1232.91 702.957,1236.12 704.971,1238.86 706.986,1241.15 709,1242.99 711.015,1244.4 713.029,1245.39 715.044,1245.98 717.058,1246.19 719.073,1246.02 721.087,1245.5 723.102,1244.64 725.116,1243.47 727.131,1241.99 729.145,1240.24 731.16,1238.22 733.174,1235.96 735.189,1233.47 737.203,1230.77 739.218,1227.89 741.232,1224.83 743.247,1221.63 745.261,1218.28 747.276,1214.82 749.29,1211.26 751.305,1207.62 753.319,1203.9 755.334,1200.13 757.348,1196.32 759.362,1192.49 761.377,1188.65 763.391,1184.81 765.406,1180.98 767.42,1177.18 769.435,1173.41 771.449,1169.69 773.464,1166.03 775.478,1162.44 777.493,1158.91 779.507,1155.47 781.522,1152.12 783.536,1148.86 785.551,1145.7 787.565,1142.65 789.58,1139.7 791.594,1136.87 793.609,1134.15 795.623,1131.55 797.638,1129.07 799.652,1126.71 801.667,1124.47 803.681,1122.36 805.696,1120.36 807.71,1118.48 809.724,1116.73 811.739,1115.09 813.753,1113.56 815.768,1112.15 817.782,1110.84 819.797,1109.65 821.811,1108.55 823.826,1107.56 825.84,1106.66 827.855,1105.85 829.869,1105.12 831.884,1104.48 833.898,1103.91 835.913,1103.42 837.927,1102.99 839.942,1102.62 841.956,1102.31 843.971,1102.04 845.985,1101.83 848,1101.65 850.014,1101.5 852.029,1101.39 854.043,1101.29 856.058,1101.22 858.072,1101.16 860.086,1101.1 862.101,1101.05 864.115,1100.99 866.13,1100.93 868.144,1100.86 870.159,1100.77 872.173,1100.66 874.188,1100.52 876.202,1100.35 878.217,1100.16 880.231,1099.92 882.246,1099.65 884.26,1099.33 886.275,1098.97 888.289,1098.56 890.304,1098.09 892.318,1097.57 894.333,1097 896.347,1096.37 898.362,1095.68 900.376,1094.92 902.391,1094.11 904.405,1093.23 906.42,1092.29 908.434,1091.28 910.448,1090.2 912.463,1089.06 914.477,1087.85 916.492,1086.57 918.506,1085.23 920.521,1083.82 922.535,1082.35 924.55,1080.81 926.564,1079.2 928.579,1077.53 930.593,1075.8 932.608,1074.01 934.622,1072.16 936.637,1070.25 938.651,1068.28 940.666,1066.26 942.68,1064.18 944.695,1062.05 946.709,1059.87 948.724,1057.64 950.738,1055.37 952.753,1053.04 954.767,1050.68 956.782,1048.27 958.796,1045.83 960.81,1043.34 962.825,1040.83 964.839,1038.27 966.854,1035.69 968.868,1033.07 970.883,1030.43 972.897,1027.76 974.912,1025.07 976.926,1022.35 978.941,1019.61 980.955,1016.86 982.97,1014.08 984.984,1011.29 986.999,1008.48 989.013,1005.66 991.028,1002.82 993.042,999.972 995.057,997.113 997.071,994.243 999.086,991.364 1001.1,988.477 1003.11,985.581 1005.13,982.678 1007.14,979.767 1009.16,976.849 1011.17,973.925 1013.19,970.994 1015.2,968.057 1017.22,965.112 1019.23,962.161 1021.24,959.203 1023.26,956.237 1025.27,953.262 1027.29,950.279 1029.3,947.287 1031.32,944.284 1033.33,941.271 1035.35,938.246 1037.36,935.207 1039.38,932.155 1041.39,929.089 1043.4,926.006 1045.42,922.905 1047.43,919.786 1049.45,916.647 1051.46,913.487 1053.48,910.304 1055.49,907.098 1057.51,903.865 1059.52,900.606 1061.53,897.318 1063.55,894 1065.56,890.651 1067.58,887.269 1069.59,883.853 1071.61,880.4 1073.62,876.911 1075.64,873.383 1077.65,869.815 1079.66,866.205 1081.68,862.553 1083.69,858.857 1085.71,855.116 1087.72,851.329 1089.74,847.494 1091.75,843.611 1093.77,839.679 1095.78,835.697 1097.8,831.664 1099.81,827.58 1101.82,823.444 1103.84,819.254 1105.85,815.012 1107.87,810.717 1109.88,806.368 1111.9,801.966 1113.91,797.51 1115.93,793 1117.94,788.438 1119.95,783.823 1121.97,779.155 1123.98,774.436 1126,769.666 1128.01,764.845 1130.03,759.976 1132.04,755.059 1134.06,750.094 1136.07,745.085 1138.08,740.031 1140.1,734.935 1142.11,729.798 1144.13,724.622 1146.14,719.41 1148.16,714.162 1150.17,708.882 1152.19,703.572 1154.2,698.234 1156.22,692.87 1158.23,687.484 1160.24,682.078 1162.26,676.654 1164.27,671.217 1166.29,665.768 1168.3,660.311 1170.32,654.849 1172.33,649.386 1174.35,643.924 1176.36,638.468 1178.37,633.02 1180.39,627.585 1182.4,622.166 1184.42,616.766 1186.43,611.39 1188.45,606.041 1190.46,600.722 1192.48,595.439 1194.49,590.195 1196.5,584.993 1198.52,579.837 1200.53,574.732 1202.55,569.681 1204.56,564.689 1206.58,559.759 1208.59,554.895 1210.61,550.101 1212.62,545.381 1214.64,540.739 1216.65,536.178 1218.66,531.702 1220.68,527.316 1222.69,523.022 1224.71,518.825 1226.72,514.727 1228.74,510.733 1230.75,506.845 1232.77,503.068 1234.78,499.404 1236.79,495.856 1238.81,492.428 1240.82,489.122 1242.84,485.941 1244.85,482.889 1246.87,479.968 1248.88,477.179 1250.9,474.527 1252.91,472.012 1254.92,469.638 1256.94,467.406 1258.95,465.318 1260.97,463.376 1262.98,461.582 1265,459.937 1267.01,458.442 1269.03,457.099 1271.04,455.909 1273.05,454.873 1275.07,453.992 1277.08,453.266 1279.1,452.695 1281.11,452.281 1283.13,452.024 1285.14,451.923 1287.16,451.978 1289.17,452.19 1291.19,452.558 1293.2,453.081 1295.21,453.759 1297.23,454.591 1299.24,455.576 1301.26,456.713 1303.27,458.001 1305.29,459.439 1307.3,461.025 1309.32,462.757 1311.33,464.634 1313.34,466.653 1315.36,468.814 1317.37,471.114 1319.39,473.55 1321.4,476.121 1323.42,478.824 1325.43,481.656 1327.45,484.615 1329.46,487.699 1331.47,490.903 1333.49,494.227 1335.5,497.666 1337.52,501.217 1339.53,504.878 1341.55,508.645 1343.56,512.515 1345.58,516.485 1347.59,520.551 1349.61,524.71 1351.62,528.959 1353.63,533.294 1355.65,537.711 1357.66,542.207 1359.68,546.779 1361.69,551.422 1363.71,556.134 1365.72,560.911 1367.74,565.748 1369.75,570.643 1371.76,575.592 1373.78,580.592 1375.79,585.638 1377.81,590.727 1379.82,595.856 1381.84,601.02 1383.85,606.218 1385.87,611.445 1387.88,616.698 1389.89,621.973 1391.91,627.268 1393.92,632.579 1395.94,637.903 1397.95,643.236 1399.97,648.577 1401.98,653.921 1404,659.266 1406.01,664.609 1408.03,669.947 1410.04,675.278 1412.05,680.6 1414.07,685.908 1416.08,691.202 1418.1,696.479 1420.11,701.736 1422.13,706.971 1424.14,712.183 1426.16,717.369 1428.17,722.528 1430.18,727.657 1432.2,732.755 1434.21,737.821 1436.23,742.853 1438.24,747.849 1440.26,752.808 1442.27,757.729 1444.29,762.611 1446.3,767.453 1448.31,772.254 1450.33,777.013 1452.34,781.73 1454.36,786.403 1456.37,791.032 1458.39,795.616 1460.4,800.156 1462.42,804.651 1464.43,809.1 1466.45,813.504 1468.46,817.862 1470.47,822.174 1472.49,826.441 1474.5,830.662 1476.52,834.838 1478.53,838.969 1480.55,843.055 1482.56,847.097 1484.58,851.095 1486.59,855.049 1488.6,858.959 1490.62,862.828 1492.63,866.654 1494.65,870.439 1496.66,874.184 1498.68,877.888 1500.69,881.553 1502.71,885.18 1504.72,888.769 1506.73,892.32 1508.75,895.835 1510.76,899.315 1512.78,902.76 1514.79,906.171 1516.81,909.548 1518.82,912.894 1520.84,916.207 1522.85,919.49 1524.86,922.742 1526.88,925.965 1528.89,929.16 1530.91,932.326 1532.92,935.465 1534.94,938.577 1536.95,941.664 1538.97,944.724 1540.98,947.76 1543,950.771 1545.01,953.759 1547.02,956.722 1549.04,959.663 1551.05,962.581 1553.07,965.476 1555.08,968.35 1557.1,971.201 1559.11,974.031 1561.13,976.84 1563.14,979.627 1565.15,982.392 1567.17,985.137 1569.18,987.86 1571.2,990.562 1573.21,993.242 1575.23,995.901 1577.24,998.538 1579.26,1001.15 1581.27,1003.75 1583.28,1006.32 1585.3,1008.86 1587.31,1011.39 1589.33,1013.89 1591.34,1016.37 1593.36,1018.82 1595.37,1021.25 1597.39,1023.65 1599.4,1026.03 1601.42,1028.38 1603.43,1030.7 1605.44,1033 1607.46,1035.27 1609.47,1037.51 1611.49,1039.72 1613.5,1041.9 1615.52,1044.05 1617.53,1046.17 1619.55,1048.26 1621.56,1050.32 1623.57,1052.35 1625.59,1054.34 1627.6,1056.3 1629.62,1058.23 1631.63,1060.12 1633.65,1061.98 1635.66,1063.8 1637.68,1065.59 1639.69,1067.35 1641.7,1069.07 1643.72,1070.75 1645.73,1072.4 1647.75,1074.01 1649.76,1075.58 1651.78,1077.12 1653.79,1078.63 1655.81,1080.1 1657.82,1081.53 1659.84,1082.93 1661.85,1084.29 1663.86,1085.62 1665.88,1086.92 1667.89,1088.18 1669.91,1089.41 1671.92,1090.61 1673.94,1091.77 1675.95,1092.91 1677.97,1094.02 1679.98,1095.09 1681.99,1096.14 1684.01,1097.17 1686.02,1098.17 1688.04,1099.14 1690.05,1100.09 1692.07,1101.02 1694.08,1101.93 1696.1,1102.82 1698.11,1103.7 1700.12,1104.56 1702.14,1105.4 1704.15,1106.23 1706.17,1107.05 1708.18,1107.86 1710.2,1108.66 1712.21,1109.46 1714.23,1110.25 1716.24,1111.04 1718.26,1111.82 1720.27,1112.61 1722.28,1113.4 1724.3,1114.2 1726.31,1115 1728.33,1115.81 1730.34,1116.63 1732.36,1117.46 1734.37,1118.3 1736.39,1119.15 1738.4,1120.02 1740.41,1120.91 1742.43,1121.82 1744.44,1122.74 1746.46,1123.69 1748.47,1124.66 1750.49,1125.65 1752.5,1126.66 1754.52,1127.7 1756.53,1128.76 1758.54,1129.85 1760.56,1130.97 1762.57,1132.11 1764.59,1133.28 1766.6,1134.48 1768.62,1135.7 1770.63,1136.95 1772.65,1138.23 1774.66,1139.53 1776.67,1140.86 1778.69,1142.21 1780.7,1143.58 1782.72,1144.98 1784.73,1146.4 1786.75,1147.84 1788.76,1149.3 1790.78,1150.77 1792.79,1152.26 1794.81,1153.76 1796.82,1155.28 1798.83,1156.79 1800.85,1158.32 1802.86,1159.85 1804.88,1161.37 1806.89,1162.9 1808.91,1164.42 1810.92,1165.92 1812.94,1167.42 1814.95,1168.9 1816.96,1170.36 1818.98,1171.8 1820.99,1173.21 1823.01,1174.59 1825.02,1175.93 1827.04,1177.24 1829.05,1178.5 1831.07,1179.72 1833.08,1180.89 1835.09,1182.01 1837.11,1183.06 1839.12,1184.06 1841.14,1184.99 1843.15,1185.85 1845.17,1186.64 1847.18,1187.35 1849.2,1187.98 1851.21,1188.53 1853.23,1188.99 1855.24,1189.37 1857.25,1189.65 1859.27,1189.84 1861.28,1189.93 1863.3,1189.93 1865.31,1189.82 1867.33,1189.62 1869.34,1189.31 1871.36,1188.9 1873.37,1188.38 1875.38,1187.76 1877.4,1187.04 1879.41,1186.22 1881.43,1185.3 1883.44,1184.28 1885.46,1183.16 1887.47,1181.94 1889.49,1180.64 1891.5,1179.25 1893.51,1177.77 1895.53,1176.22 1897.54,1174.59 1899.56,1172.89 1901.57,1171.14 1903.59,1169.32 1905.6,1167.46 1907.62,1165.56 1909.63,1163.63 1911.65,1161.68 1913.66,1159.71 1915.67,1157.74 1917.69,1155.78 1919.7,1153.83 1921.72,1151.92 1923.73,1150.04 1925.75,1148.22 1927.76,1146.47 1929.78,1144.8 1931.79,1143.22 1933.8,1141.74 1935.82,1140.39 1937.83,1139.17 1939.85,1138.11 1941.86,1137.2 1943.88,1136.48 1945.89,1135.94 1947.91,1135.62 1949.92,1135.52 1951.93,1135.66 1953.95,1136.05 1955.96,1136.7 1957.98,1137.64 1959.99,1138.86 1962.01,1140.4 1964.02,1142.25 1966.04,1144.43 1968.05,1146.95 1970.07,1149.82 1972.08,1153.05 1974.09,1156.65 1976.11,1160.62 1978.12,1164.97 1980.14,1169.7 1982.15,1174.83 1984.17,1180.34 1986.18,1186.23 1988.2,1192.52 1990.21,1199.19 1992.22,1206.23 1994.24,1213.65 1996.25,1221.42 1998.27,1229.54 2000.28,1237.99 2002.3,1246.76 2004.31,1255.83 2006.33,1265.18 2008.34,1274.77 2010.35,1284.59 2012.37,1294.6 2014.38,1304.78 2016.4,1315.08 2018.41,1325.47 2020.43,1335.9 2022.44,1346.33 2024.46,1356.72 2026.47,1367.01 2028.49,1377.15 2030.5,1387.08 2032.51,1396.74 2034.53,1406.08 2036.54,1415.01 2038.56,1423.48 2040.57,1431.42 2042.59,1438.75 2044.6,1445.39 2046.62,1451.27 2048.63,1456.31 2050.64,1460.41 2052.66,1463.51 2054.67,1465.51 2056.69,1466.33 2058.7,1465.88 2060.72,1464.06 2062.73,1460.8 2064.75,1456.01 2066.76,1449.59 2068.77,1441.46 2070.79,1431.53 2072.8,1419.73 2074.82,1405.97 2076.83,1390.17 2078.85,1372.26 2080.86,1352.17 2082.88,1329.84 2084.89,1305.21 2086.9,1278.22 2088.92,1248.83 2090.93,1217.01 2092.95,1182.73 2094.96,1145.97 2096.98,1106.72 2098.99,1064.98 2101.01,1020.79 2103.02,974.158 2105.04,925.142 2107.05,873.8 2109.06,820.212 2111.08,764.475 2113.09,706.704 2115.11,647.035 2117.12,585.627 2119.14,522.66 2121.15,458.337 2123.17,392.888 2125.18,326.568 2127.19,259.658 2129.21,192.471 2131.22,125.346 2133.24,58.6529 2135.25,-7.20496 2137.27,-71.7931 2139.28,-134.643 2141.3,-195.253 2143.31,-253.085 2145.32,-307.566 2147.34,-358.086 2149.35,-403.999 2151.37,-444.622 2153.38,-479.235 2155.4,-507.08 2157.41,-527.363 2159.43,-539.252 2161.44,-541.882 2163.46,-534.351 2165.47,-515.722 2167.48,-485.03 2169.5,-441.274 2171.51,-383.43 2173.53,-310.443 2175.54,-221.24 2177.56,-114.726 2179.57,10.2108 2181.59,154.69 2183.6,319.841 2185.61,506.79 2187.63,716.661 2189.64,950.563 2191.66,1209.59 2193.67,1494.79 2195.69,1807.2 2197.7,2147.8 2199.72,2517.48 2201.73,2917.11 2203.74,3347.43 2205.76,3809.11 2207.77,4302.69 2209.79,4828.59 2211.8,5387.05 2213.82,5978.17 2215.83,6601.84 2217.85,7257.76 2219.86,7945.34 2221.88,8663.78 2223.89,9411.93 2225.9,10188.4 2227.92,10991.2 2229.93,11818.3 2231.95,12667 2233.96,13534.2 2235.98,14416.2 2237.99,15308.8 2240.01,16207.3 2242.02,17106 2244.03,17998.8 2246.05,18878.7 2248.06,19737.9 2250.08,20567.5 2252.09,21357.8 2254.11,22098.1 2256.12,22776.4 2258.14,23379.4 2260.15,23892.7 2262.16,24300.3 2264.18,24584.9 2266.19,24727.4 2268.21,24706.9 2270.22,24500.8 2272.24,24084.5 2274.25,23431.3 2276.27,22512 2278.28,21295.4 2280.3,19747.3 2282.31,17831.1 2284.32,15507.3 2286.34,12733 2288.35,9462.3 2290.37,5645.75 2292.38,1230.18 "/>
<path clip-path="url(#clip780)" d="M290.649 248.629 L985.727 248.629 L985.727 93.1086 L290.649 93.1086  Z" fill="#ffffff" fill-rule="evenodd" fill-opacity="1"/>
<polyline clip-path="url(#clip780)" style="stroke:#000000; stroke-linecap:round; stroke-linejoin:round; stroke-width:4; stroke-opacity:1; fill:none" points="290.649,248.629 985.727,248.629 985.727,93.1086 290.649,93.1086 290.649,248.629 "/>
<circle clip-path="url(#clip780)" cx="385.459" cy="144.949" r="20.48" fill="#009af9" fill-rule="evenodd" fill-opacity="1" stroke="#000000" stroke-opacity="1" stroke-width="4.55111"/>
<path clip-path="url(#clip780)" d="M487.676 128.942 L487.676 136.303 L496.449 136.303 L496.449 139.613 L487.676 139.613 L487.676 153.687 Q487.676 156.858 488.532 157.761 Q489.412 158.664 492.074 158.664 L496.449 158.664 L496.449 162.229 L492.074 162.229 Q487.143 162.229 485.268 160.4 Q483.393 158.548 483.393 153.687 L483.393 139.613 L480.268 139.613 L480.268 136.303 L483.393 136.303 L483.393 128.942 L487.676 128.942 Z" fill="#000000" fill-rule="nonzero" fill-opacity="1" /><path clip-path="url(#clip780)" d="M502.051 136.303 L506.31 136.303 L506.31 162.229 L502.051 162.229 L502.051 136.303 M502.051 126.21 L506.31 126.21 L506.31 131.604 L502.051 131.604 L502.051 126.21 Z" fill="#000000" fill-rule="nonzero" fill-opacity="1" /><path clip-path="url(#clip780)" d="M519.435 128.942 L519.435 136.303 L528.208 136.303 L528.208 139.613 L519.435 139.613 L519.435 153.687 Q519.435 156.858 520.291 157.761 Q521.171 158.664 523.833 158.664 L528.208 158.664 L528.208 162.229 L523.833 162.229 Q518.902 162.229 517.027 160.4 Q515.152 158.548 515.152 153.687 L515.152 139.613 L512.027 139.613 L512.027 136.303 L515.152 136.303 L515.152 128.942 L519.435 128.942 Z" fill="#000000" fill-rule="nonzero" fill-opacity="1" /><path clip-path="url(#clip780)" d="M533.81 136.303 L538.069 136.303 L538.069 162.229 L533.81 162.229 L533.81 136.303 M533.81 126.21 L538.069 126.21 L538.069 131.604 L533.81 131.604 L533.81 126.21 Z" fill="#000000" fill-rule="nonzero" fill-opacity="1" /><path clip-path="url(#clip780)" d="M546.819 126.21 L551.101 126.21 L551.101 147.483 L563.81 136.303 L569.249 136.303 L555.499 148.432 L569.828 162.229 L564.272 162.229 L551.101 149.567 L551.101 162.229 L546.819 162.229 L546.819 126.21 Z" fill="#000000" fill-rule="nonzero" fill-opacity="1" /><path clip-path="url(#clip780)" d="M606.564 140.238 L606.564 126.21 L610.823 126.21 L610.823 162.229 L606.564 162.229 L606.564 158.34 Q605.221 160.655 603.161 161.789 Q601.124 162.9 598.254 162.9 Q593.555 162.9 590.592 159.15 Q587.652 155.4 587.652 149.289 Q587.652 143.178 590.592 139.428 Q593.555 135.678 598.254 135.678 Q601.124 135.678 603.161 136.812 Q605.221 137.923 606.564 140.238 M592.05 149.289 Q592.05 153.988 593.971 156.673 Q595.916 159.335 599.295 159.335 Q602.675 159.335 604.619 156.673 Q606.564 153.988 606.564 149.289 Q606.564 144.59 604.619 141.928 Q602.675 139.243 599.295 139.243 Q595.916 139.243 593.971 141.928 Q592.05 144.59 592.05 149.289 Z" fill="#000000" fill-rule="nonzero" fill-opacity="1" /><path clip-path="url(#clip780)" d="M631.379 149.196 Q626.217 149.196 624.226 150.377 Q622.235 151.557 622.235 154.405 Q622.235 156.673 623.717 158.016 Q625.221 159.335 627.791 159.335 Q631.332 159.335 633.462 156.835 Q635.615 154.312 635.615 150.145 L635.615 149.196 L631.379 149.196 M639.874 147.437 L639.874 162.229 L635.615 162.229 L635.615 158.293 Q634.156 160.655 631.98 161.789 Q629.805 162.9 626.656 162.9 Q622.675 162.9 620.314 160.678 Q617.976 158.432 617.976 154.682 Q617.976 150.307 620.893 148.085 Q623.832 145.863 629.643 145.863 L635.615 145.863 L635.615 145.446 Q635.615 142.507 633.67 140.909 Q631.749 139.289 628.254 139.289 Q626.031 139.289 623.925 139.821 Q621.818 140.354 619.874 141.419 L619.874 137.483 Q622.212 136.581 624.411 136.141 Q626.61 135.678 628.693 135.678 Q634.318 135.678 637.096 138.594 Q639.874 141.511 639.874 147.437 Z" fill="#000000" fill-rule="nonzero" fill-opacity="1" /><path clip-path="url(#clip780)" d="M652.86 128.942 L652.86 136.303 L661.633 136.303 L661.633 139.613 L652.86 139.613 L652.86 153.687 Q652.86 156.858 653.716 157.761 Q654.596 158.664 657.258 158.664 L661.633 158.664 L661.633 162.229 L657.258 162.229 Q652.328 162.229 650.453 160.4 Q648.578 158.548 648.578 153.687 L648.578 139.613 L645.453 139.613 L645.453 136.303 L648.578 136.303 L648.578 128.942 L652.86 128.942 Z" fill="#000000" fill-rule="nonzero" fill-opacity="1" /><path clip-path="url(#clip780)" d="M679.017 149.196 Q673.855 149.196 671.865 150.377 Q669.874 151.557 669.874 154.405 Q669.874 156.673 671.355 158.016 Q672.86 159.335 675.429 159.335 Q678.971 159.335 681.101 156.835 Q683.253 154.312 683.253 150.145 L683.253 149.196 L679.017 149.196 M687.513 147.437 L687.513 162.229 L683.253 162.229 L683.253 158.293 Q681.795 160.655 679.619 161.789 Q677.443 162.9 674.295 162.9 Q670.314 162.9 667.952 160.678 Q665.615 158.432 665.615 154.682 Q665.615 150.307 668.531 148.085 Q671.471 145.863 677.281 145.863 L683.253 145.863 L683.253 145.446 Q683.253 142.507 681.309 140.909 Q679.388 139.289 675.892 139.289 Q673.67 139.289 671.564 139.821 Q669.457 140.354 667.513 141.419 L667.513 137.483 Q669.851 136.581 672.05 136.141 Q674.249 135.678 676.332 135.678 Q681.957 135.678 684.735 138.594 Q687.513 141.511 687.513 147.437 Z" fill="#000000" fill-rule="nonzero" fill-opacity="1" /><polyline clip-path="url(#clip780)" style="stroke:#e26f46; stroke-linecap:round; stroke-linejoin:round; stroke-width:8; stroke-opacity:1; fill:none" points="314.352,196.789 456.566,196.789 "/>
<path clip-path="url(#clip780)" d="M480.268 179.509 L484.944 179.509 L484.944 214.069 L480.268 214.069 L480.268 179.509 Z" fill="#000000" fill-rule="nonzero" fill-opacity="1" /><path clip-path="url(#clip780)" d="M515.615 198.421 L515.615 214.069 L511.356 214.069 L511.356 198.559 Q511.356 194.879 509.921 193.05 Q508.486 191.222 505.615 191.222 Q502.166 191.222 500.176 193.421 Q498.185 195.62 498.185 199.416 L498.185 214.069 L493.903 214.069 L493.903 188.143 L498.185 188.143 L498.185 192.171 Q499.713 189.833 501.773 188.675 Q503.856 187.518 506.564 187.518 Q511.032 187.518 513.324 190.296 Q515.615 193.05 515.615 198.421 Z" fill="#000000" fill-rule="nonzero" fill-opacity="1" /><path clip-path="url(#clip780)" d="M528.324 180.782 L528.324 188.143 L537.097 188.143 L537.097 191.453 L528.324 191.453 L528.324 205.527 Q528.324 208.698 529.18 209.601 Q530.06 210.504 532.722 210.504 L537.097 210.504 L537.097 214.069 L532.722 214.069 Q527.791 214.069 525.916 212.24 Q524.041 210.388 524.041 205.527 L524.041 191.453 L520.916 191.453 L520.916 188.143 L524.041 188.143 L524.041 180.782 L528.324 180.782 Z" fill="#000000" fill-rule="nonzero" fill-opacity="1" /><path clip-path="url(#clip780)" d="M564.874 200.041 L564.874 202.124 L545.291 202.124 Q545.569 206.522 547.93 208.837 Q550.314 211.129 554.55 211.129 Q557.004 211.129 559.296 210.527 Q561.61 209.925 563.879 208.721 L563.879 212.749 Q561.587 213.721 559.18 214.231 Q556.773 214.74 554.296 214.74 Q548.092 214.74 544.458 211.129 Q540.847 207.518 540.847 201.36 Q540.847 194.995 544.273 191.268 Q547.722 187.518 553.555 187.518 Q558.786 187.518 561.819 190.897 Q564.874 194.254 564.874 200.041 M560.615 198.791 Q560.569 195.296 558.648 193.212 Q556.749 191.129 553.601 191.129 Q550.036 191.129 547.884 193.143 Q545.754 195.157 545.43 198.814 L560.615 198.791 Z" fill="#000000" fill-rule="nonzero" fill-opacity="1" /><path clip-path="url(#clip780)" d="M586.888 192.124 Q586.171 191.708 585.314 191.522 Q584.481 191.314 583.462 191.314 Q579.851 191.314 577.907 193.675 Q575.985 196.013 575.985 200.411 L575.985 214.069 L571.703 214.069 L571.703 188.143 L575.985 188.143 L575.985 192.171 Q577.328 189.809 579.481 188.675 Q581.634 187.518 584.712 187.518 Q585.152 187.518 585.684 187.587 Q586.217 187.634 586.865 187.749 L586.888 192.124 Z" fill="#000000" fill-rule="nonzero" fill-opacity="1" /><path clip-path="url(#clip780)" d="M595.476 210.18 L595.476 223.93 L591.194 223.93 L591.194 188.143 L595.476 188.143 L595.476 192.078 Q596.819 189.763 598.856 188.652 Q600.916 187.518 603.763 187.518 Q608.485 187.518 611.425 191.268 Q614.388 195.018 614.388 201.129 Q614.388 207.24 611.425 210.99 Q608.485 214.74 603.763 214.74 Q600.916 214.74 598.856 213.629 Q596.819 212.495 595.476 210.18 M609.967 201.129 Q609.967 196.43 608.022 193.768 Q606.101 191.083 602.721 191.083 Q599.342 191.083 597.397 193.768 Q595.476 196.43 595.476 201.129 Q595.476 205.828 597.397 208.513 Q599.342 211.175 602.721 211.175 Q606.101 211.175 608.022 208.513 Q609.967 205.828 609.967 201.129 Z" fill="#000000" fill-rule="nonzero" fill-opacity="1" /><path clip-path="url(#clip780)" d="M631.494 191.129 Q628.068 191.129 626.078 193.814 Q624.087 196.476 624.087 201.129 Q624.087 205.782 626.055 208.467 Q628.045 211.129 631.494 211.129 Q634.897 211.129 636.888 208.444 Q638.879 205.758 638.879 201.129 Q638.879 196.522 636.888 193.837 Q634.897 191.129 631.494 191.129 M631.494 187.518 Q637.05 187.518 640.221 191.129 Q643.392 194.74 643.392 201.129 Q643.392 207.495 640.221 211.129 Q637.05 214.74 631.494 214.74 Q625.916 214.74 622.744 211.129 Q619.596 207.495 619.596 201.129 Q619.596 194.74 622.744 191.129 Q625.916 187.518 631.494 187.518 Z" fill="#000000" fill-rule="nonzero" fill-opacity="1" /><path clip-path="url(#clip780)" d="M650.453 178.05 L654.712 178.05 L654.712 214.069 L650.453 214.069 L650.453 178.05 Z" fill="#000000" fill-rule="nonzero" fill-opacity="1" /><path clip-path="url(#clip780)" d="M675.406 201.036 Q670.244 201.036 668.253 202.217 Q666.263 203.397 666.263 206.245 Q666.263 208.513 667.744 209.856 Q669.249 211.175 671.818 211.175 Q675.36 211.175 677.489 208.675 Q679.642 206.152 679.642 201.985 L679.642 201.036 L675.406 201.036 M683.901 199.277 L683.901 214.069 L679.642 214.069 L679.642 210.133 Q678.184 212.495 676.008 213.629 Q673.832 214.74 670.684 214.74 Q666.703 214.74 664.341 212.518 Q662.003 210.272 662.003 206.522 Q662.003 202.147 664.92 199.925 Q667.86 197.703 673.67 197.703 L679.642 197.703 L679.642 197.286 Q679.642 194.347 677.698 192.749 Q675.777 191.129 672.281 191.129 Q670.059 191.129 667.952 191.661 Q665.846 192.194 663.902 193.259 L663.902 189.323 Q666.24 188.421 668.439 187.981 Q670.638 187.518 672.721 187.518 Q678.346 187.518 681.124 190.434 Q683.901 193.351 683.901 199.277 Z" fill="#000000" fill-rule="nonzero" fill-opacity="1" /><path clip-path="url(#clip780)" d="M709.202 188.907 L709.202 192.934 Q707.397 192.009 705.452 191.546 Q703.508 191.083 701.425 191.083 Q698.253 191.083 696.656 192.055 Q695.082 193.027 695.082 194.971 Q695.082 196.453 696.216 197.309 Q697.35 198.143 700.776 198.907 L702.235 199.231 Q706.772 200.203 708.67 201.985 Q710.591 203.745 710.591 206.916 Q710.591 210.527 707.721 212.633 Q704.874 214.74 699.874 214.74 Q697.79 214.74 695.522 214.323 Q693.276 213.93 690.776 213.12 L690.776 208.721 Q693.138 209.948 695.429 210.573 Q697.721 211.175 699.966 211.175 Q702.975 211.175 704.596 210.157 Q706.216 209.115 706.216 207.24 Q706.216 205.504 705.036 204.578 Q703.878 203.652 699.92 202.796 L698.438 202.448 Q694.48 201.615 692.721 199.902 Q690.962 198.166 690.962 195.157 Q690.962 191.499 693.554 189.509 Q696.147 187.518 700.915 187.518 Q703.276 187.518 705.36 187.865 Q707.443 188.212 709.202 188.907 Z" fill="#000000" fill-rule="nonzero" fill-opacity="1" /><path clip-path="url(#clip780)" d="M717.374 188.143 L721.633 188.143 L721.633 214.069 L717.374 214.069 L717.374 188.143 M717.374 178.05 L721.633 178.05 L721.633 183.444 L717.374 183.444 L717.374 178.05 Z" fill="#000000" fill-rule="nonzero" fill-opacity="1" /><path clip-path="url(#clip780)" d="M745.799 179.509 L750.475 179.509 L750.475 210.133 L767.304 210.133 L767.304 214.069 L745.799 214.069 L745.799 179.509 Z" fill="#000000" fill-rule="nonzero" fill-opacity="1" /><path clip-path="url(#clip780)" d="M783.808 201.036 Q778.646 201.036 776.656 202.217 Q774.665 203.397 774.665 206.245 Q774.665 208.513 776.146 209.856 Q777.651 211.175 780.22 211.175 Q783.762 211.175 785.892 208.675 Q788.044 206.152 788.044 201.985 L788.044 201.036 L783.808 201.036 M792.304 199.277 L792.304 214.069 L788.044 214.069 L788.044 210.133 Q786.586 212.495 784.41 213.629 Q782.234 214.74 779.086 214.74 Q775.105 214.74 772.744 212.518 Q770.406 210.272 770.406 206.522 Q770.406 202.147 773.322 199.925 Q776.262 197.703 782.072 197.703 L788.044 197.703 L788.044 197.286 Q788.044 194.347 786.1 192.749 Q784.179 191.129 780.683 191.129 Q778.461 191.129 776.355 191.661 Q774.248 192.194 772.304 193.259 L772.304 189.323 Q774.642 188.421 776.841 187.981 Q779.04 187.518 781.123 187.518 Q786.748 187.518 789.526 190.434 Q792.304 193.351 792.304 199.277 Z" fill="#000000" fill-rule="nonzero" fill-opacity="1" /><path clip-path="url(#clip780)" d="M818.137 200.805 Q818.137 196.175 816.216 193.629 Q814.317 191.083 810.868 191.083 Q807.442 191.083 805.521 193.629 Q803.623 196.175 803.623 200.805 Q803.623 205.411 805.521 207.958 Q807.442 210.504 810.868 210.504 Q814.317 210.504 816.216 207.958 Q818.137 205.411 818.137 200.805 M822.396 210.851 Q822.396 217.471 819.456 220.689 Q816.517 223.93 810.452 223.93 Q808.206 223.93 806.216 223.582 Q804.225 223.258 802.35 222.564 L802.35 218.42 Q804.225 219.439 806.054 219.925 Q807.882 220.411 809.78 220.411 Q813.97 220.411 816.054 218.212 Q818.137 216.036 818.137 211.615 L818.137 209.508 Q816.817 211.8 814.757 212.934 Q812.697 214.069 809.827 214.069 Q805.058 214.069 802.142 210.434 Q799.225 206.8 799.225 200.805 Q799.225 194.786 802.142 191.152 Q805.058 187.518 809.827 187.518 Q812.697 187.518 814.757 188.652 Q816.817 189.786 818.137 192.078 L818.137 188.143 L822.396 188.143 L822.396 210.851 Z" fill="#000000" fill-rule="nonzero" fill-opacity="1" /><path clip-path="url(#clip780)" d="M846.192 192.124 Q845.475 191.708 844.618 191.522 Q843.785 191.314 842.766 191.314 Q839.155 191.314 837.211 193.675 Q835.29 196.013 835.29 200.411 L835.29 214.069 L831.007 214.069 L831.007 188.143 L835.29 188.143 L835.29 192.171 Q836.632 189.809 838.785 188.675 Q840.938 187.518 844.016 187.518 Q844.456 187.518 844.989 187.587 Q845.521 187.634 846.169 187.749 L846.192 192.124 Z" fill="#000000" fill-rule="nonzero" fill-opacity="1" /><path clip-path="url(#clip780)" d="M862.442 201.036 Q857.28 201.036 855.289 202.217 Q853.299 203.397 853.299 206.245 Q853.299 208.513 854.78 209.856 Q856.285 211.175 858.854 211.175 Q862.396 211.175 864.526 208.675 Q866.678 206.152 866.678 201.985 L866.678 201.036 L862.442 201.036 M870.938 199.277 L870.938 214.069 L866.678 214.069 L866.678 210.133 Q865.22 212.495 863.044 213.629 Q860.868 214.74 857.72 214.74 Q853.739 214.74 851.377 212.518 Q849.039 210.272 849.039 206.522 Q849.039 202.147 851.956 199.925 Q854.896 197.703 860.706 197.703 L866.678 197.703 L866.678 197.286 Q866.678 194.347 864.734 192.749 Q862.813 191.129 859.317 191.129 Q857.095 191.129 854.989 191.661 Q852.882 192.194 850.938 193.259 L850.938 189.323 Q853.276 188.421 855.475 187.981 Q857.674 187.518 859.757 187.518 Q865.382 187.518 868.16 190.434 Q870.938 193.351 870.938 199.277 Z" fill="#000000" fill-rule="nonzero" fill-opacity="1" /><path clip-path="url(#clip780)" d="M901.261 198.421 L901.261 214.069 L897.002 214.069 L897.002 198.559 Q897.002 194.879 895.567 193.05 Q894.132 191.222 891.261 191.222 Q887.812 191.222 885.822 193.421 Q883.831 195.62 883.831 199.416 L883.831 214.069 L879.549 214.069 L879.549 188.143 L883.831 188.143 L883.831 192.171 Q885.359 189.833 887.419 188.675 Q889.502 187.518 892.211 187.518 Q896.678 187.518 898.97 190.296 Q901.261 193.05 901.261 198.421 Z" fill="#000000" fill-rule="nonzero" fill-opacity="1" /><path clip-path="url(#clip780)" d="M926.817 200.805 Q926.817 196.175 924.896 193.629 Q922.997 191.083 919.548 191.083 Q916.122 191.083 914.201 193.629 Q912.303 196.175 912.303 200.805 Q912.303 205.411 914.201 207.958 Q916.122 210.504 919.548 210.504 Q922.997 210.504 924.896 207.958 Q926.817 205.411 926.817 200.805 M931.076 210.851 Q931.076 217.471 928.136 220.689 Q925.196 223.93 919.132 223.93 Q916.886 223.93 914.896 223.582 Q912.905 223.258 911.03 222.564 L911.03 218.42 Q912.905 219.439 914.734 219.925 Q916.562 220.411 918.46 220.411 Q922.65 220.411 924.734 218.212 Q926.817 216.036 926.817 211.615 L926.817 209.508 Q925.497 211.8 923.437 212.934 Q921.377 214.069 918.507 214.069 Q913.738 214.069 910.822 210.434 Q907.905 206.8 907.905 200.805 Q907.905 194.786 910.822 191.152 Q913.738 187.518 918.507 187.518 Q921.377 187.518 923.437 188.652 Q925.497 189.786 926.817 192.078 L926.817 188.143 L931.076 188.143 L931.076 210.851 Z" fill="#000000" fill-rule="nonzero" fill-opacity="1" /><path clip-path="url(#clip780)" d="M962.025 200.041 L962.025 202.124 L942.442 202.124 Q942.72 206.522 945.081 208.837 Q947.465 211.129 951.701 211.129 Q954.155 211.129 956.446 210.527 Q958.761 209.925 961.03 208.721 L961.03 212.749 Q958.738 213.721 956.331 214.231 Q953.923 214.74 951.446 214.74 Q945.243 214.74 941.608 211.129 Q937.997 207.518 937.997 201.36 Q937.997 194.995 941.423 191.268 Q944.872 187.518 950.706 187.518 Q955.937 187.518 958.969 190.897 Q962.025 194.254 962.025 200.041 M957.766 198.791 Q957.719 195.296 955.798 193.212 Q953.9 191.129 950.752 191.129 Q947.187 191.129 945.034 193.143 Q942.905 195.157 942.581 198.814 L957.766 198.791 Z" fill="#000000" fill-rule="nonzero" fill-opacity="1" /></svg>
