<?xml version="1.0" encoding="utf-8"?>
<svg xmlns="http://www.w3.org/2000/svg" xmlns:xlink="http://www.w3.org/1999/xlink" width="600" height="400" viewBox="0 0 2400 1600">
<defs>
  <clipPath id="clip330">
    <rect x="0" y="0" width="2400" height="1600"/>
  </clipPath>
</defs>
<path clip-path="url(#clip330)" d="M0 1600 L2400 1600 L2400 0 L0 0  Z" fill="#ffffff" fill-rule="evenodd" fill-opacity="1"/>
<defs>
  <clipPath id="clip331">
    <rect x="480" y="0" width="1681" height="1600"/>
  </clipPath>
</defs>
<path clip-path="url(#clip330)" d="M257.204 1423.18 L2352.76 1423.18 L2352.76 47.2441 L257.204 47.2441  Z" fill="#ffffff" fill-rule="evenodd" fill-opacity="1"/>
<defs>
  <clipPath id="clip332">
    <rect x="257" y="47" width="2097" height="1377"/>
  </clipPath>
</defs>
<polyline clip-path="url(#clip332)" style="stroke:#000000; stroke-linecap:round; stroke-linejoin:round; stroke-width:2; stroke-opacity:0.1; fill:none" points="316.512,1423.18 316.512,47.2441 "/>
<polyline clip-path="url(#clip332)" style="stroke:#000000; stroke-linecap:round; stroke-linejoin:round; stroke-width:2; stroke-opacity:0.1; fill:none" points="711.899,1423.18 711.899,47.2441 "/>
<polyline clip-path="url(#clip332)" style="stroke:#000000; stroke-linecap:round; stroke-linejoin:round; stroke-width:2; stroke-opacity:0.1; fill:none" points="1107.29,1423.18 1107.29,47.2441 "/>
<polyline clip-path="url(#clip332)" style="stroke:#000000; stroke-linecap:round; stroke-linejoin:round; stroke-width:2; stroke-opacity:0.1; fill:none" points="1502.67,1423.18 1502.67,47.2441 "/>
<polyline clip-path="url(#clip332)" style="stroke:#000000; stroke-linecap:round; stroke-linejoin:round; stroke-width:2; stroke-opacity:0.1; fill:none" points="1898.06,1423.18 1898.06,47.2441 "/>
<polyline clip-path="url(#clip332)" style="stroke:#000000; stroke-linecap:round; stroke-linejoin:round; stroke-width:2; stroke-opacity:0.1; fill:none" points="2293.45,1423.18 2293.45,47.2441 "/>
<polyline clip-path="url(#clip330)" style="stroke:#000000; stroke-linecap:round; stroke-linejoin:round; stroke-width:4; stroke-opacity:1; fill:none" points="257.204,1423.18 2352.76,1423.18 "/>
<polyline clip-path="url(#clip330)" style="stroke:#000000; stroke-linecap:round; stroke-linejoin:round; stroke-width:4; stroke-opacity:1; fill:none" points="316.512,1423.18 316.512,1404.28 "/>
<polyline clip-path="url(#clip330)" style="stroke:#000000; stroke-linecap:round; stroke-linejoin:round; stroke-width:4; stroke-opacity:1; fill:none" points="711.899,1423.18 711.899,1404.28 "/>
<polyline clip-path="url(#clip330)" style="stroke:#000000; stroke-linecap:round; stroke-linejoin:round; stroke-width:4; stroke-opacity:1; fill:none" points="1107.29,1423.18 1107.29,1404.28 "/>
<polyline clip-path="url(#clip330)" style="stroke:#000000; stroke-linecap:round; stroke-linejoin:round; stroke-width:4; stroke-opacity:1; fill:none" points="1502.67,1423.18 1502.67,1404.28 "/>
<polyline clip-path="url(#clip330)" style="stroke:#000000; stroke-linecap:round; stroke-linejoin:round; stroke-width:4; stroke-opacity:1; fill:none" points="1898.06,1423.18 1898.06,1404.28 "/>
<polyline clip-path="url(#clip330)" style="stroke:#000000; stroke-linecap:round; stroke-linejoin:round; stroke-width:4; stroke-opacity:1; fill:none" points="2293.45,1423.18 2293.45,1404.28 "/>
<path clip-path="url(#clip330)" d="M316.512 1454.1 Q312.901 1454.1 311.072 1457.66 Q309.267 1461.2 309.267 1468.33 Q309.267 1475.44 311.072 1479.01 Q312.901 1482.55 316.512 1482.55 Q320.146 1482.55 321.952 1479.01 Q323.781 1475.44 323.781 1468.33 Q323.781 1461.2 321.952 1457.66 Q320.146 1454.1 316.512 1454.1 M316.512 1450.39 Q322.322 1450.39 325.378 1455 Q328.456 1459.58 328.456 1468.33 Q328.456 1477.06 325.378 1481.67 Q322.322 1486.25 316.512 1486.25 Q310.702 1486.25 307.623 1481.67 Q304.568 1477.06 304.568 1468.33 Q304.568 1459.58 307.623 1455 Q310.702 1450.39 316.512 1450.39 Z" fill="#000000" fill-rule="nonzero" fill-opacity="1" /><path clip-path="url(#clip330)" d="M702.281 1481.64 L709.92 1481.64 L709.92 1455.28 L701.61 1456.95 L701.61 1452.69 L709.874 1451.02 L714.55 1451.02 L714.55 1481.64 L722.189 1481.64 L722.189 1485.58 L702.281 1485.58 L702.281 1481.64 Z" fill="#000000" fill-rule="nonzero" fill-opacity="1" /><path clip-path="url(#clip330)" d="M1101.94 1481.64 L1118.26 1481.64 L1118.26 1485.58 L1096.31 1485.58 L1096.31 1481.64 Q1098.98 1478.89 1103.56 1474.26 Q1108.17 1469.61 1109.35 1468.27 Q1111.59 1465.74 1112.47 1464.01 Q1113.37 1462.25 1113.37 1460.56 Q1113.37 1457.8 1111.43 1456.07 Q1109.51 1454.33 1106.41 1454.33 Q1104.21 1454.33 1101.75 1455.09 Q1099.32 1455.86 1096.55 1457.41 L1096.55 1452.69 Q1099.37 1451.55 1101.82 1450.97 Q1104.28 1450.39 1106.31 1450.39 Q1111.68 1450.39 1114.88 1453.08 Q1118.07 1455.77 1118.07 1460.26 Q1118.07 1462.39 1117.26 1464.31 Q1116.48 1466.2 1114.37 1468.8 Q1113.79 1469.47 1110.69 1472.69 Q1107.59 1475.88 1101.94 1481.64 Z" fill="#000000" fill-rule="nonzero" fill-opacity="1" /><path clip-path="url(#clip330)" d="M1506.92 1466.95 Q1510.28 1467.66 1512.15 1469.93 Q1514.05 1472.2 1514.05 1475.53 Q1514.05 1480.65 1510.53 1483.45 Q1507.01 1486.25 1500.53 1486.25 Q1498.36 1486.25 1496.04 1485.81 Q1493.75 1485.39 1491.3 1484.54 L1491.3 1480.02 Q1493.24 1481.16 1495.56 1481.74 Q1497.87 1482.32 1500.39 1482.32 Q1504.79 1482.32 1507.08 1480.58 Q1509.4 1478.84 1509.4 1475.53 Q1509.4 1472.48 1507.25 1470.77 Q1505.12 1469.03 1501.3 1469.03 L1497.27 1469.03 L1497.27 1465.19 L1501.48 1465.19 Q1504.93 1465.19 1506.76 1463.82 Q1508.59 1462.43 1508.59 1459.84 Q1508.59 1457.18 1506.69 1455.77 Q1504.81 1454.33 1501.3 1454.33 Q1499.37 1454.33 1497.18 1454.75 Q1494.98 1455.16 1492.34 1456.04 L1492.34 1451.88 Q1495 1451.14 1497.31 1450.77 Q1499.65 1450.39 1501.71 1450.39 Q1507.04 1450.39 1510.14 1452.83 Q1513.24 1455.23 1513.24 1459.35 Q1513.24 1462.22 1511.6 1464.21 Q1509.95 1466.18 1506.92 1466.95 Z" fill="#000000" fill-rule="nonzero" fill-opacity="1" /><path clip-path="url(#clip330)" d="M1901.07 1455.09 L1889.26 1473.54 L1901.07 1473.54 L1901.07 1455.09 M1899.84 1451.02 L1905.72 1451.02 L1905.72 1473.54 L1910.65 1473.54 L1910.65 1477.43 L1905.72 1477.43 L1905.72 1485.58 L1901.07 1485.58 L1901.07 1477.43 L1885.47 1477.43 L1885.47 1472.92 L1899.84 1451.02 Z" fill="#000000" fill-rule="nonzero" fill-opacity="1" /><path clip-path="url(#clip330)" d="M2283.73 1451.02 L2302.08 1451.02 L2302.08 1454.96 L2288.01 1454.96 L2288.01 1463.43 Q2289.03 1463.08 2290.05 1462.92 Q2291.06 1462.73 2292.08 1462.73 Q2297.87 1462.73 2301.25 1465.9 Q2304.63 1469.08 2304.63 1474.49 Q2304.63 1480.07 2301.16 1483.17 Q2297.68 1486.25 2291.36 1486.25 Q2289.19 1486.25 2286.92 1485.88 Q2284.67 1485.51 2282.27 1484.77 L2282.27 1480.07 Q2284.35 1481.2 2286.57 1481.76 Q2288.8 1482.32 2291.27 1482.32 Q2295.28 1482.32 2297.61 1480.21 Q2299.95 1478.1 2299.95 1474.49 Q2299.95 1470.88 2297.61 1468.77 Q2295.28 1466.67 2291.27 1466.67 Q2289.4 1466.67 2287.52 1467.08 Q2285.67 1467.5 2283.73 1468.38 L2283.73 1451.02 Z" fill="#000000" fill-rule="nonzero" fill-opacity="1" /><path clip-path="url(#clip330)" d="M1321.59 1532.4 L1308.7 1549.74 L1322.26 1568.04 L1315.36 1568.04 L1304.98 1554.04 L1294.6 1568.04 L1287.7 1568.04 L1301.54 1549.39 L1288.87 1532.4 L1295.78 1532.4 L1305.23 1545.1 L1314.69 1532.4 L1321.59 1532.4 Z" fill="#000000" fill-rule="nonzero" fill-opacity="1" /><polyline clip-path="url(#clip332)" style="stroke:#000000; stroke-linecap:round; stroke-linejoin:round; stroke-width:2; stroke-opacity:0.1; fill:none" points="257.204,1404.44 2352.76,1404.44 "/>
<polyline clip-path="url(#clip332)" style="stroke:#000000; stroke-linecap:round; stroke-linejoin:round; stroke-width:2; stroke-opacity:0.1; fill:none" points="257.204,1074.31 2352.76,1074.31 "/>
<polyline clip-path="url(#clip332)" style="stroke:#000000; stroke-linecap:round; stroke-linejoin:round; stroke-width:2; stroke-opacity:0.1; fill:none" points="257.204,744.186 2352.76,744.186 "/>
<polyline clip-path="url(#clip332)" style="stroke:#000000; stroke-linecap:round; stroke-linejoin:round; stroke-width:2; stroke-opacity:0.1; fill:none" points="257.204,414.058 2352.76,414.058 "/>
<polyline clip-path="url(#clip332)" style="stroke:#000000; stroke-linecap:round; stroke-linejoin:round; stroke-width:2; stroke-opacity:0.1; fill:none" points="257.204,83.9306 2352.76,83.9306 "/>
<polyline clip-path="url(#clip330)" style="stroke:#000000; stroke-linecap:round; stroke-linejoin:round; stroke-width:4; stroke-opacity:1; fill:none" points="257.204,1423.18 257.204,47.2441 "/>
<polyline clip-path="url(#clip330)" style="stroke:#000000; stroke-linecap:round; stroke-linejoin:round; stroke-width:4; stroke-opacity:1; fill:none" points="257.204,1404.44 276.102,1404.44 "/>
<polyline clip-path="url(#clip330)" style="stroke:#000000; stroke-linecap:round; stroke-linejoin:round; stroke-width:4; stroke-opacity:1; fill:none" points="257.204,1074.31 276.102,1074.31 "/>
<polyline clip-path="url(#clip330)" style="stroke:#000000; stroke-linecap:round; stroke-linejoin:round; stroke-width:4; stroke-opacity:1; fill:none" points="257.204,744.186 276.102,744.186 "/>
<polyline clip-path="url(#clip330)" style="stroke:#000000; stroke-linecap:round; stroke-linejoin:round; stroke-width:4; stroke-opacity:1; fill:none" points="257.204,414.058 276.102,414.058 "/>
<polyline clip-path="url(#clip330)" style="stroke:#000000; stroke-linecap:round; stroke-linejoin:round; stroke-width:4; stroke-opacity:1; fill:none" points="257.204,83.9306 276.102,83.9306 "/>
<path clip-path="url(#clip330)" d="M114.26 1404.89 L143.936 1404.89 L143.936 1408.83 L114.26 1408.83 L114.26 1404.89 Z" fill="#000000" fill-rule="nonzero" fill-opacity="1" /><path clip-path="url(#clip330)" d="M154.839 1417.79 L162.477 1417.79 L162.477 1391.42 L154.167 1393.09 L154.167 1388.83 L162.431 1387.16 L167.107 1387.16 L167.107 1417.79 L174.746 1417.79 L174.746 1421.72 L154.839 1421.72 L154.839 1417.79 Z" fill="#000000" fill-rule="nonzero" fill-opacity="1" /><path clip-path="url(#clip330)" d="M184.19 1415.84 L189.075 1415.84 L189.075 1421.72 L184.19 1421.72 L184.19 1415.84 Z" fill="#000000" fill-rule="nonzero" fill-opacity="1" /><path clip-path="url(#clip330)" d="M209.26 1390.24 Q205.649 1390.24 203.82 1393.81 Q202.014 1397.35 202.014 1404.48 Q202.014 1411.58 203.82 1415.15 Q205.649 1418.69 209.26 1418.69 Q212.894 1418.69 214.699 1415.15 Q216.528 1411.58 216.528 1404.48 Q216.528 1397.35 214.699 1393.81 Q212.894 1390.24 209.26 1390.24 M209.26 1386.54 Q215.07 1386.54 218.125 1391.14 Q221.204 1395.73 221.204 1404.48 Q221.204 1413.2 218.125 1417.81 Q215.07 1422.39 209.26 1422.39 Q203.449 1422.39 200.371 1417.81 Q197.315 1413.2 197.315 1404.48 Q197.315 1395.73 200.371 1391.14 Q203.449 1386.54 209.26 1386.54 Z" fill="#000000" fill-rule="nonzero" fill-opacity="1" /><path clip-path="url(#clip330)" d="M115.256 1074.77 L144.931 1074.77 L144.931 1078.7 L115.256 1078.7 L115.256 1074.77 Z" fill="#000000" fill-rule="nonzero" fill-opacity="1" /><path clip-path="url(#clip330)" d="M165.024 1060.11 Q161.413 1060.11 159.584 1063.68 Q157.778 1067.22 157.778 1074.35 Q157.778 1081.46 159.584 1085.02 Q161.413 1088.56 165.024 1088.56 Q168.658 1088.56 170.464 1085.02 Q172.292 1081.46 172.292 1074.35 Q172.292 1067.22 170.464 1063.68 Q168.658 1060.11 165.024 1060.11 M165.024 1056.41 Q170.834 1056.41 173.889 1061.02 Q176.968 1065.6 176.968 1074.35 Q176.968 1083.08 173.889 1087.68 Q170.834 1092.27 165.024 1092.27 Q159.214 1092.27 156.135 1087.68 Q153.079 1083.08 153.079 1074.35 Q153.079 1065.6 156.135 1061.02 Q159.214 1056.41 165.024 1056.41 Z" fill="#000000" fill-rule="nonzero" fill-opacity="1" /><path clip-path="url(#clip330)" d="M185.186 1085.71 L190.07 1085.71 L190.07 1091.59 L185.186 1091.59 L185.186 1085.71 Z" fill="#000000" fill-rule="nonzero" fill-opacity="1" /><path clip-path="url(#clip330)" d="M200.301 1057.03 L218.658 1057.03 L218.658 1060.97 L204.584 1060.97 L204.584 1069.44 Q205.602 1069.09 206.621 1068.93 Q207.639 1068.75 208.658 1068.75 Q214.445 1068.75 217.824 1071.92 Q221.204 1075.09 221.204 1080.51 Q221.204 1086.08 217.732 1089.19 Q214.26 1092.27 207.94 1092.27 Q205.764 1092.27 203.496 1091.9 Q201.25 1091.52 198.843 1090.78 L198.843 1086.08 Q200.926 1087.22 203.149 1087.77 Q205.371 1088.33 207.848 1088.33 Q211.852 1088.33 214.19 1086.22 Q216.528 1084.12 216.528 1080.51 Q216.528 1076.9 214.19 1074.79 Q211.852 1072.68 207.848 1072.68 Q205.973 1072.68 204.098 1073.1 Q202.246 1073.52 200.301 1074.4 L200.301 1057.03 Z" fill="#000000" fill-rule="nonzero" fill-opacity="1" /><path clip-path="url(#clip330)" d="M164.028 729.985 Q160.417 729.985 158.589 733.55 Q156.783 737.091 156.783 744.221 Q156.783 751.327 158.589 754.892 Q160.417 758.434 164.028 758.434 Q167.663 758.434 169.468 754.892 Q171.297 751.327 171.297 744.221 Q171.297 737.091 169.468 733.55 Q167.663 729.985 164.028 729.985 M164.028 726.281 Q169.839 726.281 172.894 730.888 Q175.973 735.471 175.973 744.221 Q175.973 752.948 172.894 757.554 Q169.839 762.138 164.028 762.138 Q158.218 762.138 155.14 757.554 Q152.084 752.948 152.084 744.221 Q152.084 735.471 155.14 730.888 Q158.218 726.281 164.028 726.281 Z" fill="#000000" fill-rule="nonzero" fill-opacity="1" /><path clip-path="url(#clip330)" d="M184.19 755.587 L189.075 755.587 L189.075 761.466 L184.19 761.466 L184.19 755.587 Z" fill="#000000" fill-rule="nonzero" fill-opacity="1" /><path clip-path="url(#clip330)" d="M209.26 729.985 Q205.649 729.985 203.82 733.55 Q202.014 737.091 202.014 744.221 Q202.014 751.327 203.82 754.892 Q205.649 758.434 209.26 758.434 Q212.894 758.434 214.699 754.892 Q216.528 751.327 216.528 744.221 Q216.528 737.091 214.699 733.55 Q212.894 729.985 209.26 729.985 M209.26 726.281 Q215.07 726.281 218.125 730.888 Q221.204 735.471 221.204 744.221 Q221.204 752.948 218.125 757.554 Q215.07 762.138 209.26 762.138 Q203.449 762.138 200.371 757.554 Q197.315 752.948 197.315 744.221 Q197.315 735.471 200.371 730.888 Q203.449 726.281 209.26 726.281 Z" fill="#000000" fill-rule="nonzero" fill-opacity="1" /><path clip-path="url(#clip330)" d="M165.024 399.857 Q161.413 399.857 159.584 403.422 Q157.778 406.964 157.778 414.093 Q157.778 421.2 159.584 424.764 Q161.413 428.306 165.024 428.306 Q168.658 428.306 170.464 424.764 Q172.292 421.2 172.292 414.093 Q172.292 406.964 170.464 403.422 Q168.658 399.857 165.024 399.857 M165.024 396.153 Q170.834 396.153 173.889 400.76 Q176.968 405.343 176.968 414.093 Q176.968 422.82 173.889 427.426 Q170.834 432.01 165.024 432.01 Q159.214 432.01 156.135 427.426 Q153.079 422.82 153.079 414.093 Q153.079 405.343 156.135 400.76 Q159.214 396.153 165.024 396.153 Z" fill="#000000" fill-rule="nonzero" fill-opacity="1" /><path clip-path="url(#clip330)" d="M185.186 425.459 L190.07 425.459 L190.07 431.338 L185.186 431.338 L185.186 425.459 Z" fill="#000000" fill-rule="nonzero" fill-opacity="1" /><path clip-path="url(#clip330)" d="M200.301 396.778 L218.658 396.778 L218.658 400.714 L204.584 400.714 L204.584 409.186 Q205.602 408.839 206.621 408.676 Q207.639 408.491 208.658 408.491 Q214.445 408.491 217.824 411.663 Q221.204 414.834 221.204 420.25 Q221.204 425.829 217.732 428.931 Q214.26 432.01 207.94 432.01 Q205.764 432.01 203.496 431.639 Q201.25 431.269 198.843 430.528 L198.843 425.829 Q200.926 426.963 203.149 427.519 Q205.371 428.075 207.848 428.075 Q211.852 428.075 214.19 425.968 Q216.528 423.862 216.528 420.25 Q216.528 416.639 214.19 414.533 Q211.852 412.426 207.848 412.426 Q205.973 412.426 204.098 412.843 Q202.246 413.26 200.301 414.139 L200.301 396.778 Z" fill="#000000" fill-rule="nonzero" fill-opacity="1" /><path clip-path="url(#clip330)" d="M154.839 97.2754 L162.477 97.2754 L162.477 70.9098 L154.167 72.5765 L154.167 68.3172 L162.431 66.6506 L167.107 66.6506 L167.107 97.2754 L174.746 97.2754 L174.746 101.211 L154.839 101.211 L154.839 97.2754 Z" fill="#000000" fill-rule="nonzero" fill-opacity="1" /><path clip-path="url(#clip330)" d="M184.19 95.331 L189.075 95.331 L189.075 101.211 L184.19 101.211 L184.19 95.331 Z" fill="#000000" fill-rule="nonzero" fill-opacity="1" /><path clip-path="url(#clip330)" d="M209.26 69.7293 Q205.649 69.7293 203.82 73.294 Q202.014 76.8357 202.014 83.9653 Q202.014 91.0717 203.82 94.6365 Q205.649 98.1782 209.26 98.1782 Q212.894 98.1782 214.699 94.6365 Q216.528 91.0717 216.528 83.9653 Q216.528 76.8357 214.699 73.294 Q212.894 69.7293 209.26 69.7293 M209.26 66.0256 Q215.07 66.0256 218.125 70.632 Q221.204 75.2153 221.204 83.9653 Q221.204 92.6921 218.125 97.2985 Q215.07 101.882 209.26 101.882 Q203.449 101.882 200.371 97.2985 Q197.315 92.6921 197.315 83.9653 Q197.315 75.2153 200.371 70.632 Q203.449 66.0256 209.26 66.0256 Z" fill="#000000" fill-rule="nonzero" fill-opacity="1" /><path clip-path="url(#clip330)" d="M67.3143 733.525 Q73.68 736.008 75.6216 738.363 Q77.5631 740.718 77.5631 744.665 L77.5631 749.344 L72.6615 749.344 L72.6615 745.906 Q72.6615 743.487 71.5157 742.151 Q70.3699 740.814 66.1048 739.191 L63.4312 738.14 L28.3562 752.559 L28.3562 746.352 L56.238 735.212 L28.3562 724.072 L28.3562 717.865 L67.3143 733.525 Z" fill="#000000" fill-rule="nonzero" fill-opacity="1" /><circle clip-path="url(#clip332)" cx="316.512" cy="744.186" r="14.4" fill="#009af9" fill-rule="evenodd" fill-opacity="1" stroke="#000000" stroke-opacity="1" stroke-width="3.2"/>
<circle clip-path="url(#clip332)" cx="420.561" cy="258.42" r="14.4" fill="#009af9" fill-rule="evenodd" fill-opacity="1" stroke="#000000" stroke-opacity="1" stroke-width="3.2"/>
<circle clip-path="url(#clip332)" cx="524.611" cy="86.1857" r="14.4" fill="#009af9" fill-rule="evenodd" fill-opacity="1" stroke="#000000" stroke-opacity="1" stroke-width="3.2"/>
<circle clip-path="url(#clip332)" cx="628.66" cy="338.649" r="14.4" fill="#009af9" fill-rule="evenodd" fill-opacity="1" stroke="#000000" stroke-opacity="1" stroke-width="3.2"/>
<circle clip-path="url(#clip332)" cx="732.709" cy="852.861" r="14.4" fill="#009af9" fill-rule="evenodd" fill-opacity="1" stroke="#000000" stroke-opacity="1" stroke-width="3.2"/>
<circle clip-path="url(#clip332)" cx="836.758" cy="1296.93" r="14.4" fill="#009af9" fill-rule="evenodd" fill-opacity="1" stroke="#000000" stroke-opacity="1" stroke-width="3.2"/>
<circle clip-path="url(#clip332)" cx="940.808" cy="1384.24" r="14.4" fill="#009af9" fill-rule="evenodd" fill-opacity="1" stroke="#000000" stroke-opacity="1" stroke-width="3.2"/>
<circle clip-path="url(#clip332)" cx="1044.86" cy="1058.43" r="14.4" fill="#009af9" fill-rule="evenodd" fill-opacity="1" stroke="#000000" stroke-opacity="1" stroke-width="3.2"/>
<circle clip-path="url(#clip332)" cx="1148.91" cy="529.802" r="14.4" fill="#009af9" fill-rule="evenodd" fill-opacity="1" stroke="#000000" stroke-opacity="1" stroke-width="3.2"/>
<circle clip-path="url(#clip332)" cx="1252.96" cy="139.542" r="14.4" fill="#009af9" fill-rule="evenodd" fill-opacity="1" stroke="#000000" stroke-opacity="1" stroke-width="3.2"/>
<circle clip-path="url(#clip332)" cx="1357" cy="139.542" r="14.4" fill="#009af9" fill-rule="evenodd" fill-opacity="1" stroke="#000000" stroke-opacity="1" stroke-width="3.2"/>
<circle clip-path="url(#clip332)" cx="1461.05" cy="529.802" r="14.4" fill="#009af9" fill-rule="evenodd" fill-opacity="1" stroke="#000000" stroke-opacity="1" stroke-width="3.2"/>
<circle clip-path="url(#clip332)" cx="1565.1" cy="1058.43" r="14.4" fill="#009af9" fill-rule="evenodd" fill-opacity="1" stroke="#000000" stroke-opacity="1" stroke-width="3.2"/>
<circle clip-path="url(#clip332)" cx="1669.15" cy="1384.24" r="14.4" fill="#009af9" fill-rule="evenodd" fill-opacity="1" stroke="#000000" stroke-opacity="1" stroke-width="3.2"/>
<circle clip-path="url(#clip332)" cx="1773.2" cy="1296.93" r="14.4" fill="#009af9" fill-rule="evenodd" fill-opacity="1" stroke="#000000" stroke-opacity="1" stroke-width="3.2"/>
<circle clip-path="url(#clip332)" cx="1877.25" cy="852.861" r="14.4" fill="#009af9" fill-rule="evenodd" fill-opacity="1" stroke="#000000" stroke-opacity="1" stroke-width="3.2"/>
<circle clip-path="url(#clip332)" cx="1981.3" cy="338.649" r="14.4" fill="#009af9" fill-rule="evenodd" fill-opacity="1" stroke="#000000" stroke-opacity="1" stroke-width="3.2"/>
<circle clip-path="url(#clip332)" cx="2085.35" cy="86.1857" r="14.4" fill="#009af9" fill-rule="evenodd" fill-opacity="1" stroke="#000000" stroke-opacity="1" stroke-width="3.2"/>
<circle clip-path="url(#clip332)" cx="2189.4" cy="258.42" r="14.4" fill="#009af9" fill-rule="evenodd" fill-opacity="1" stroke="#000000" stroke-opacity="1" stroke-width="3.2"/>
<circle clip-path="url(#clip332)" cx="2293.45" cy="744.186" r="14.4" fill="#009af9" fill-rule="evenodd" fill-opacity="1" stroke="#000000" stroke-opacity="1" stroke-width="3.2"/>
<path clip-path="url(#clip330)" d="M1866.1 1377.32 L2282.9 1377.32 L2282.9 1273.64 L1866.1 1273.64  Z" fill="#ffffff" fill-rule="evenodd" fill-opacity="1"/>
<polyline clip-path="url(#clip330)" style="stroke:#000000; stroke-linecap:round; stroke-linejoin:round; stroke-width:4; stroke-opacity:1; fill:none" points="1866.1,1377.32 2282.9,1377.32 2282.9,1273.64 1866.1,1273.64 1866.1,1377.32 "/>
<circle clip-path="url(#clip330)" cx="1959.24" cy="1325.48" r="20.48" fill="#009af9" fill-rule="evenodd" fill-opacity="1" stroke="#000000" stroke-opacity="1" stroke-width="4.55111"/>
<path clip-path="url(#clip330)" d="M2059.78 1309.47 L2059.78 1316.83 L2068.56 1316.83 L2068.56 1320.14 L2059.78 1320.14 L2059.78 1334.21 Q2059.78 1337.38 2060.64 1338.29 Q2061.52 1339.19 2064.18 1339.19 L2068.56 1339.19 L2068.56 1342.76 L2064.18 1342.76 Q2059.25 1342.76 2057.38 1340.93 Q2055.5 1339.07 2055.5 1334.21 L2055.5 1320.14 L2052.38 1320.14 L2052.38 1316.83 L2055.5 1316.83 L2055.5 1309.47 L2059.78 1309.47 Z" fill="#000000" fill-rule="nonzero" fill-opacity="1" /><path clip-path="url(#clip330)" d="M2074.16 1316.83 L2078.42 1316.83 L2078.42 1342.76 L2074.16 1342.76 L2074.16 1316.83 M2074.16 1306.74 L2078.42 1306.74 L2078.42 1312.13 L2074.16 1312.13 L2074.16 1306.74 Z" fill="#000000" fill-rule="nonzero" fill-opacity="1" /><path clip-path="url(#clip330)" d="M2091.54 1309.47 L2091.54 1316.83 L2100.32 1316.83 L2100.32 1320.14 L2091.54 1320.14 L2091.54 1334.21 Q2091.54 1337.38 2092.4 1338.29 Q2093.28 1339.19 2095.94 1339.19 L2100.32 1339.19 L2100.32 1342.76 L2095.94 1342.76 Q2091.01 1342.76 2089.14 1340.93 Q2087.26 1339.07 2087.26 1334.21 L2087.26 1320.14 L2084.14 1320.14 L2084.14 1316.83 L2087.26 1316.83 L2087.26 1309.47 L2091.54 1309.47 Z" fill="#000000" fill-rule="nonzero" fill-opacity="1" /><path clip-path="url(#clip330)" d="M2105.92 1316.83 L2110.18 1316.83 L2110.18 1342.76 L2105.92 1342.76 L2105.92 1316.83 M2105.92 1306.74 L2110.18 1306.74 L2110.18 1312.13 L2105.92 1312.13 L2105.92 1306.74 Z" fill="#000000" fill-rule="nonzero" fill-opacity="1" /><path clip-path="url(#clip330)" d="M2118.93 1306.74 L2123.21 1306.74 L2123.21 1328.01 L2135.92 1316.83 L2141.36 1316.83 L2127.61 1328.96 L2141.94 1342.76 L2136.38 1342.76 L2123.21 1330.09 L2123.21 1342.76 L2118.93 1342.76 L2118.93 1306.74 Z" fill="#000000" fill-rule="nonzero" fill-opacity="1" /><path clip-path="url(#clip330)" d="M2178.67 1320.76 L2178.67 1306.74 L2182.93 1306.74 L2182.93 1342.76 L2178.67 1342.76 L2178.67 1338.87 Q2177.33 1341.18 2175.27 1342.32 Q2173.23 1343.43 2170.36 1343.43 Q2165.66 1343.43 2162.7 1339.68 Q2159.76 1335.93 2159.76 1329.82 Q2159.76 1323.7 2162.7 1319.95 Q2165.66 1316.2 2170.36 1316.2 Q2173.23 1316.2 2175.27 1317.34 Q2177.33 1318.45 2178.67 1320.76 M2164.16 1329.82 Q2164.16 1334.51 2166.08 1337.2 Q2168.02 1339.86 2171.4 1339.86 Q2174.78 1339.86 2176.73 1337.2 Q2178.67 1334.51 2178.67 1329.82 Q2178.67 1325.12 2176.73 1322.45 Q2174.78 1319.77 2171.4 1319.77 Q2168.02 1319.77 2166.08 1322.45 Q2164.16 1325.12 2164.16 1329.82 Z" fill="#000000" fill-rule="nonzero" fill-opacity="1" /><path clip-path="url(#clip330)" d="M2203.49 1329.72 Q2198.32 1329.72 2196.33 1330.9 Q2194.34 1332.08 2194.34 1334.93 Q2194.34 1337.2 2195.82 1338.54 Q2197.33 1339.86 2199.9 1339.86 Q2203.44 1339.86 2205.57 1337.36 Q2207.72 1334.84 2207.72 1330.67 L2207.72 1329.72 L2203.49 1329.72 M2211.98 1327.96 L2211.98 1342.76 L2207.72 1342.76 L2207.72 1338.82 Q2206.26 1341.18 2204.09 1342.32 Q2201.91 1343.43 2198.76 1343.43 Q2194.78 1343.43 2192.42 1341.2 Q2190.08 1338.96 2190.08 1335.21 Q2190.08 1330.83 2193 1328.61 Q2195.94 1326.39 2201.75 1326.39 L2207.72 1326.39 L2207.72 1325.97 Q2207.72 1323.03 2205.78 1321.44 Q2203.86 1319.82 2200.36 1319.82 Q2198.14 1319.82 2196.03 1320.35 Q2193.93 1320.88 2191.98 1321.95 L2191.98 1318.01 Q2194.32 1317.11 2196.52 1316.67 Q2198.72 1316.2 2200.8 1316.2 Q2206.43 1316.2 2209.2 1319.12 Q2211.98 1322.04 2211.98 1327.96 Z" fill="#000000" fill-rule="nonzero" fill-opacity="1" /><path clip-path="url(#clip330)" d="M2224.97 1309.47 L2224.97 1316.83 L2233.74 1316.83 L2233.74 1320.14 L2224.97 1320.14 L2224.97 1334.21 Q2224.97 1337.38 2225.82 1338.29 Q2226.7 1339.19 2229.37 1339.19 L2233.74 1339.19 L2233.74 1342.76 L2229.37 1342.76 Q2224.44 1342.76 2222.56 1340.93 Q2220.69 1339.07 2220.69 1334.21 L2220.69 1320.14 L2217.56 1320.14 L2217.56 1316.83 L2220.69 1316.83 L2220.69 1309.47 L2224.97 1309.47 Z" fill="#000000" fill-rule="nonzero" fill-opacity="1" /><path clip-path="url(#clip330)" d="M2251.12 1329.72 Q2245.96 1329.72 2243.97 1330.9 Q2241.98 1332.08 2241.98 1334.93 Q2241.98 1337.2 2243.46 1338.54 Q2244.97 1339.86 2247.54 1339.86 Q2251.08 1339.86 2253.21 1337.36 Q2255.36 1334.84 2255.36 1330.67 L2255.36 1329.72 L2251.12 1329.72 M2259.62 1327.96 L2259.62 1342.76 L2255.36 1342.76 L2255.36 1338.82 Q2253.9 1341.18 2251.73 1342.32 Q2249.55 1343.43 2246.4 1343.43 Q2242.42 1343.43 2240.06 1341.2 Q2237.72 1338.96 2237.72 1335.21 Q2237.72 1330.83 2240.64 1328.61 Q2243.58 1326.39 2249.39 1326.39 L2255.36 1326.39 L2255.36 1325.97 Q2255.36 1323.03 2253.42 1321.44 Q2251.5 1319.82 2248 1319.82 Q2245.78 1319.82 2243.67 1320.35 Q2241.56 1320.88 2239.62 1321.95 L2239.62 1318.01 Q2241.96 1317.11 2244.16 1316.67 Q2246.36 1316.2 2248.44 1316.2 Q2254.06 1316.2 2256.84 1319.12 Q2259.62 1322.04 2259.62 1327.96 Z" fill="#000000" fill-rule="nonzero" fill-opacity="1" /></svg>
