<?xml version="1.0" encoding="utf-8"?>
<svg xmlns="http://www.w3.org/2000/svg" xmlns:xlink="http://www.w3.org/1999/xlink" width="600" height="400" viewBox="0 0 2400 1600">
<defs>
  <clipPath id="clip470">
    <rect x="0" y="0" width="2400" height="1600"/>
  </clipPath>
</defs>
<path clip-path="url(#clip470)" d="M0 1600 L2400 1600 L2400 0 L0 0  Z" fill="#ffffff" fill-rule="evenodd" fill-opacity="1"/>
<defs>
  <clipPath id="clip471">
    <rect x="480" y="0" width="1681" height="1600"/>
  </clipPath>
</defs>
<path clip-path="url(#clip470)" d="M242.135 1423.18 L2352.76 1423.18 L2352.76 47.2441 L242.135 47.2441  Z" fill="#ffffff" fill-rule="evenodd" fill-opacity="1"/>
<defs>
  <clipPath id="clip472">
    <rect x="242" y="47" width="2112" height="1377"/>
  </clipPath>
</defs>
<polyline clip-path="url(#clip472)" style="stroke:#000000; stroke-linecap:round; stroke-linejoin:round; stroke-width:2; stroke-opacity:0.1; fill:none" points="301.869,1423.18 301.869,47.2441 "/>
<polyline clip-path="url(#clip472)" style="stroke:#000000; stroke-linecap:round; stroke-linejoin:round; stroke-width:2; stroke-opacity:0.1; fill:none" points="700.1,1423.18 700.1,47.2441 "/>
<polyline clip-path="url(#clip472)" style="stroke:#000000; stroke-linecap:round; stroke-linejoin:round; stroke-width:2; stroke-opacity:0.1; fill:none" points="1098.33,1423.18 1098.33,47.2441 "/>
<polyline clip-path="url(#clip472)" style="stroke:#000000; stroke-linecap:round; stroke-linejoin:round; stroke-width:2; stroke-opacity:0.1; fill:none" points="1496.56,1423.18 1496.56,47.2441 "/>
<polyline clip-path="url(#clip472)" style="stroke:#000000; stroke-linecap:round; stroke-linejoin:round; stroke-width:2; stroke-opacity:0.1; fill:none" points="1894.79,1423.18 1894.79,47.2441 "/>
<polyline clip-path="url(#clip472)" style="stroke:#000000; stroke-linecap:round; stroke-linejoin:round; stroke-width:2; stroke-opacity:0.1; fill:none" points="2293.02,1423.18 2293.02,47.2441 "/>
<polyline clip-path="url(#clip470)" style="stroke:#000000; stroke-linecap:round; stroke-linejoin:round; stroke-width:4; stroke-opacity:1; fill:none" points="242.135,1423.18 2352.76,1423.18 "/>
<polyline clip-path="url(#clip470)" style="stroke:#000000; stroke-linecap:round; stroke-linejoin:round; stroke-width:4; stroke-opacity:1; fill:none" points="301.869,1423.18 301.869,1404.28 "/>
<polyline clip-path="url(#clip470)" style="stroke:#000000; stroke-linecap:round; stroke-linejoin:round; stroke-width:4; stroke-opacity:1; fill:none" points="700.1,1423.18 700.1,1404.28 "/>
<polyline clip-path="url(#clip470)" style="stroke:#000000; stroke-linecap:round; stroke-linejoin:round; stroke-width:4; stroke-opacity:1; fill:none" points="1098.33,1423.18 1098.33,1404.28 "/>
<polyline clip-path="url(#clip470)" style="stroke:#000000; stroke-linecap:round; stroke-linejoin:round; stroke-width:4; stroke-opacity:1; fill:none" points="1496.56,1423.18 1496.56,1404.28 "/>
<polyline clip-path="url(#clip470)" style="stroke:#000000; stroke-linecap:round; stroke-linejoin:round; stroke-width:4; stroke-opacity:1; fill:none" points="1894.79,1423.18 1894.79,1404.28 "/>
<polyline clip-path="url(#clip470)" style="stroke:#000000; stroke-linecap:round; stroke-linejoin:round; stroke-width:4; stroke-opacity:1; fill:none" points="2293.02,1423.18 2293.02,1404.28 "/>
<path clip-path="url(#clip470)" d="M301.869 1454.1 Q298.258 1454.1 296.429 1457.66 Q294.624 1461.2 294.624 1468.33 Q294.624 1475.44 296.429 1479.01 Q298.258 1482.55 301.869 1482.55 Q305.503 1482.55 307.309 1479.01 Q309.138 1475.44 309.138 1468.33 Q309.138 1461.2 307.309 1457.66 Q305.503 1454.1 301.869 1454.1 M301.869 1450.39 Q307.679 1450.39 310.735 1455 Q313.814 1459.58 313.814 1468.33 Q313.814 1477.06 310.735 1481.67 Q307.679 1486.25 301.869 1486.25 Q296.059 1486.25 292.98 1481.67 Q289.925 1477.06 289.925 1468.33 Q289.925 1459.58 292.98 1455 Q296.059 1450.39 301.869 1450.39 Z" fill="#000000" fill-rule="nonzero" fill-opacity="1" /><path clip-path="url(#clip470)" d="M690.482 1481.64 L698.12 1481.64 L698.12 1455.28 L689.81 1456.95 L689.81 1452.69 L698.074 1451.02 L702.75 1451.02 L702.75 1481.64 L710.389 1481.64 L710.389 1485.58 L690.482 1485.58 L690.482 1481.64 Z" fill="#000000" fill-rule="nonzero" fill-opacity="1" /><path clip-path="url(#clip470)" d="M1092.98 1481.64 L1109.3 1481.64 L1109.3 1485.58 L1087.36 1485.58 L1087.36 1481.64 Q1090.02 1478.89 1094.6 1474.26 Q1099.21 1469.61 1100.39 1468.27 Q1102.64 1465.74 1103.52 1464.01 Q1104.42 1462.25 1104.42 1460.56 Q1104.42 1457.8 1102.47 1456.07 Q1100.55 1454.33 1097.45 1454.33 Q1095.25 1454.33 1092.8 1455.09 Q1090.37 1455.86 1087.59 1457.41 L1087.59 1452.69 Q1090.41 1451.55 1092.87 1450.97 Q1095.32 1450.39 1097.36 1450.39 Q1102.73 1450.39 1105.92 1453.08 Q1109.12 1455.77 1109.12 1460.26 Q1109.12 1462.39 1108.31 1464.31 Q1107.52 1466.2 1105.41 1468.8 Q1104.83 1469.47 1101.73 1472.69 Q1098.63 1475.88 1092.98 1481.64 Z" fill="#000000" fill-rule="nonzero" fill-opacity="1" /><path clip-path="url(#clip470)" d="M1500.81 1466.95 Q1504.16 1467.66 1506.04 1469.93 Q1507.94 1472.2 1507.94 1475.53 Q1507.94 1480.65 1504.42 1483.45 Q1500.9 1486.25 1494.42 1486.25 Q1492.24 1486.25 1489.93 1485.81 Q1487.64 1485.39 1485.18 1484.54 L1485.18 1480.02 Q1487.13 1481.16 1489.44 1481.74 Q1491.76 1482.32 1494.28 1482.32 Q1498.68 1482.32 1500.97 1480.58 Q1503.28 1478.84 1503.28 1475.53 Q1503.28 1472.48 1501.13 1470.77 Q1499 1469.03 1495.18 1469.03 L1491.16 1469.03 L1491.16 1465.19 L1495.37 1465.19 Q1498.82 1465.19 1500.65 1463.82 Q1502.47 1462.43 1502.47 1459.84 Q1502.47 1457.18 1500.58 1455.77 Q1498.7 1454.33 1495.18 1454.33 Q1493.26 1454.33 1491.06 1454.75 Q1488.86 1455.16 1486.22 1456.04 L1486.22 1451.88 Q1488.89 1451.14 1491.2 1450.77 Q1493.54 1450.39 1495.6 1450.39 Q1500.92 1450.39 1504.03 1452.83 Q1507.13 1455.23 1507.13 1459.35 Q1507.13 1462.22 1505.48 1464.21 Q1503.84 1466.18 1500.81 1466.95 Z" fill="#000000" fill-rule="nonzero" fill-opacity="1" /><path clip-path="url(#clip470)" d="M1897.8 1455.09 L1885.99 1473.54 L1897.8 1473.54 L1897.8 1455.09 M1896.57 1451.02 L1902.45 1451.02 L1902.45 1473.54 L1907.38 1473.54 L1907.38 1477.43 L1902.45 1477.43 L1902.45 1485.58 L1897.8 1485.58 L1897.8 1477.43 L1882.2 1477.43 L1882.2 1472.92 L1896.57 1451.02 Z" fill="#000000" fill-rule="nonzero" fill-opacity="1" /><path clip-path="url(#clip470)" d="M2283.3 1451.02 L2301.66 1451.02 L2301.66 1454.96 L2287.58 1454.96 L2287.58 1463.43 Q2288.6 1463.08 2289.62 1462.92 Q2290.64 1462.73 2291.66 1462.73 Q2297.44 1462.73 2300.82 1465.9 Q2304.2 1469.08 2304.2 1474.49 Q2304.2 1480.07 2300.73 1483.17 Q2297.26 1486.25 2290.94 1486.25 Q2288.76 1486.25 2286.49 1485.88 Q2284.25 1485.51 2281.84 1484.77 L2281.84 1480.07 Q2283.92 1481.2 2286.15 1481.76 Q2288.37 1482.32 2290.85 1482.32 Q2294.85 1482.32 2297.19 1480.21 Q2299.53 1478.1 2299.53 1474.49 Q2299.53 1470.88 2297.19 1468.77 Q2294.85 1466.67 2290.85 1466.67 Q2288.97 1466.67 2287.1 1467.08 Q2285.24 1467.5 2283.3 1468.38 L2283.3 1451.02 Z" fill="#000000" fill-rule="nonzero" fill-opacity="1" /><path clip-path="url(#clip470)" d="M1314.06 1532.4 L1301.17 1549.74 L1314.73 1568.04 L1307.82 1568.04 L1297.45 1554.04 L1287.07 1568.04 L1280.16 1568.04 L1294.01 1549.39 L1281.34 1532.4 L1288.25 1532.4 L1297.7 1545.1 L1307.15 1532.4 L1314.06 1532.4 Z" fill="#000000" fill-rule="nonzero" fill-opacity="1" /><polyline clip-path="url(#clip472)" style="stroke:#000000; stroke-linecap:round; stroke-linejoin:round; stroke-width:2; stroke-opacity:0.1; fill:none" points="242.135,1108 2352.76,1108 "/>
<polyline clip-path="url(#clip472)" style="stroke:#000000; stroke-linecap:round; stroke-linejoin:round; stroke-width:2; stroke-opacity:0.1; fill:none" points="242.135,773.745 2352.76,773.745 "/>
<polyline clip-path="url(#clip472)" style="stroke:#000000; stroke-linecap:round; stroke-linejoin:round; stroke-width:2; stroke-opacity:0.1; fill:none" points="242.135,439.494 2352.76,439.494 "/>
<polyline clip-path="url(#clip472)" style="stroke:#000000; stroke-linecap:round; stroke-linejoin:round; stroke-width:2; stroke-opacity:0.1; fill:none" points="242.135,105.243 2352.76,105.243 "/>
<polyline clip-path="url(#clip470)" style="stroke:#000000; stroke-linecap:round; stroke-linejoin:round; stroke-width:4; stroke-opacity:1; fill:none" points="242.135,1423.18 242.135,47.2441 "/>
<polyline clip-path="url(#clip470)" style="stroke:#000000; stroke-linecap:round; stroke-linejoin:round; stroke-width:4; stroke-opacity:1; fill:none" points="242.135,1108 261.032,1108 "/>
<polyline clip-path="url(#clip470)" style="stroke:#000000; stroke-linecap:round; stroke-linejoin:round; stroke-width:4; stroke-opacity:1; fill:none" points="242.135,773.745 261.032,773.745 "/>
<polyline clip-path="url(#clip470)" style="stroke:#000000; stroke-linecap:round; stroke-linejoin:round; stroke-width:4; stroke-opacity:1; fill:none" points="242.135,439.494 261.032,439.494 "/>
<polyline clip-path="url(#clip470)" style="stroke:#000000; stroke-linecap:round; stroke-linejoin:round; stroke-width:4; stroke-opacity:1; fill:none" points="242.135,105.243 261.032,105.243 "/>
<path clip-path="url(#clip470)" d="M114.26 1108.45 L143.936 1108.45 L143.936 1112.38 L114.26 1112.38 L114.26 1108.45 Z" fill="#000000" fill-rule="nonzero" fill-opacity="1" /><path clip-path="url(#clip470)" d="M158.056 1121.34 L174.376 1121.34 L174.376 1125.28 L152.431 1125.28 L152.431 1121.34 Q155.093 1118.59 159.677 1113.96 Q164.283 1109.3 165.464 1107.96 Q167.709 1105.44 168.589 1103.7 Q169.491 1101.94 169.491 1100.25 Q169.491 1097.5 167.547 1095.76 Q165.626 1094.03 162.524 1094.03 Q160.325 1094.03 157.871 1094.79 Q155.44 1095.55 152.663 1097.11 L152.663 1092.38 Q155.487 1091.25 157.94 1090.67 Q160.394 1090.09 162.431 1090.09 Q167.802 1090.09 170.996 1092.78 Q174.19 1095.46 174.19 1099.95 Q174.19 1102.08 173.38 1104 Q172.593 1105.9 170.487 1108.49 Q169.908 1109.17 166.806 1112.38 Q163.704 1115.58 158.056 1121.34 Z" fill="#000000" fill-rule="nonzero" fill-opacity="1" /><path clip-path="url(#clip470)" d="M194.19 1093.8 Q190.579 1093.8 188.75 1097.36 Q186.945 1100.9 186.945 1108.03 Q186.945 1115.14 188.75 1118.7 Q190.579 1122.24 194.19 1122.24 Q197.825 1122.24 199.63 1118.7 Q201.459 1115.14 201.459 1108.03 Q201.459 1100.9 199.63 1097.36 Q197.825 1093.8 194.19 1093.8 M194.19 1090.09 Q200 1090.09 203.056 1094.7 Q206.135 1099.28 206.135 1108.03 Q206.135 1116.76 203.056 1121.36 Q200 1125.95 194.19 1125.95 Q188.38 1125.95 185.301 1121.36 Q182.246 1116.76 182.246 1108.03 Q182.246 1099.28 185.301 1094.7 Q188.38 1090.09 194.19 1090.09 Z" fill="#000000" fill-rule="nonzero" fill-opacity="1" /><path clip-path="url(#clip470)" d="M194.19 759.544 Q190.579 759.544 188.75 763.109 Q186.945 766.65 186.945 773.78 Q186.945 780.886 188.75 784.451 Q190.579 787.993 194.19 787.993 Q197.825 787.993 199.63 784.451 Q201.459 780.886 201.459 773.78 Q201.459 766.65 199.63 763.109 Q197.825 759.544 194.19 759.544 M194.19 755.84 Q200 755.84 203.056 760.447 Q206.135 765.03 206.135 773.78 Q206.135 782.507 203.056 787.113 Q200 791.696 194.19 791.696 Q188.38 791.696 185.301 787.113 Q182.246 782.507 182.246 773.78 Q182.246 765.03 185.301 760.447 Q188.38 755.84 194.19 755.84 Z" fill="#000000" fill-rule="nonzero" fill-opacity="1" /><path clip-path="url(#clip470)" d="M158.056 452.839 L174.376 452.839 L174.376 456.774 L152.431 456.774 L152.431 452.839 Q155.093 450.084 159.677 445.455 Q164.283 440.802 165.464 439.459 Q167.709 436.936 168.589 435.2 Q169.491 433.441 169.491 431.751 Q169.491 428.996 167.547 427.26 Q165.626 425.524 162.524 425.524 Q160.325 425.524 157.871 426.288 Q155.44 427.052 152.663 428.603 L152.663 423.881 Q155.487 422.746 157.94 422.168 Q160.394 421.589 162.431 421.589 Q167.802 421.589 170.996 424.274 Q174.19 426.959 174.19 431.45 Q174.19 433.58 173.38 435.501 Q172.593 437.399 170.487 439.992 Q169.908 440.663 166.806 443.88 Q163.704 447.075 158.056 452.839 Z" fill="#000000" fill-rule="nonzero" fill-opacity="1" /><path clip-path="url(#clip470)" d="M194.19 425.293 Q190.579 425.293 188.75 428.857 Q186.945 432.399 186.945 439.529 Q186.945 446.635 188.75 450.2 Q190.579 453.742 194.19 453.742 Q197.825 453.742 199.63 450.2 Q201.459 446.635 201.459 439.529 Q201.459 432.399 199.63 428.857 Q197.825 425.293 194.19 425.293 M194.19 421.589 Q200 421.589 203.056 426.195 Q206.135 430.779 206.135 439.529 Q206.135 448.255 203.056 452.862 Q200 457.445 194.19 457.445 Q188.38 457.445 185.301 452.862 Q182.246 448.255 182.246 439.529 Q182.246 430.779 185.301 426.195 Q188.38 421.589 194.19 421.589 Z" fill="#000000" fill-rule="nonzero" fill-opacity="1" /><path clip-path="url(#clip470)" d="M166.876 92.0367 L155.07 110.486 L166.876 110.486 L166.876 92.0367 M165.649 87.9626 L171.528 87.9626 L171.528 110.486 L176.459 110.486 L176.459 114.375 L171.528 114.375 L171.528 122.523 L166.876 122.523 L166.876 114.375 L151.274 114.375 L151.274 109.861 L165.649 87.9626 Z" fill="#000000" fill-rule="nonzero" fill-opacity="1" /><path clip-path="url(#clip470)" d="M194.19 91.0413 Q190.579 91.0413 188.75 94.6061 Q186.945 98.1478 186.945 105.277 Q186.945 112.384 188.75 115.949 Q190.579 119.49 194.19 119.49 Q197.825 119.49 199.63 115.949 Q201.459 112.384 201.459 105.277 Q201.459 98.1478 199.63 94.6061 Q197.825 91.0413 194.19 91.0413 M194.19 87.3376 Q200 87.3376 203.056 91.9441 Q206.135 96.5274 206.135 105.277 Q206.135 114.004 203.056 118.611 Q200 123.194 194.19 123.194 Q188.38 123.194 185.301 118.611 Q182.246 114.004 182.246 105.277 Q182.246 96.5274 185.301 91.9441 Q188.38 87.3376 194.19 87.3376 Z" fill="#000000" fill-rule="nonzero" fill-opacity="1" /><path clip-path="url(#clip470)" d="M67.3143 733.525 Q73.68 736.008 75.6216 738.363 Q77.5631 740.718 77.5631 744.665 L77.5631 749.344 L72.6615 749.344 L72.6615 745.906 Q72.6615 743.487 71.5157 742.151 Q70.3699 740.814 66.1048 739.191 L63.4312 738.14 L28.3562 752.559 L28.3562 746.352 L56.238 735.212 L28.3562 724.072 L28.3562 717.865 L67.3143 733.525 Z" fill="#000000" fill-rule="nonzero" fill-opacity="1" /><circle clip-path="url(#clip472)" cx="301.869" cy="757.033" r="14.4" fill="#009af9" fill-rule="evenodd" fill-opacity="1" stroke="#000000" stroke-opacity="1" stroke-width="3.2"/>
<circle clip-path="url(#clip472)" cx="342.505" cy="753.631" r="14.4" fill="#009af9" fill-rule="evenodd" fill-opacity="1" stroke="#000000" stroke-opacity="1" stroke-width="3.2"/>
<circle clip-path="url(#clip472)" cx="383.141" cy="750.287" r="14.4" fill="#009af9" fill-rule="evenodd" fill-opacity="1" stroke="#000000" stroke-opacity="1" stroke-width="3.2"/>
<circle clip-path="url(#clip472)" cx="423.777" cy="747.066" r="14.4" fill="#009af9" fill-rule="evenodd" fill-opacity="1" stroke="#000000" stroke-opacity="1" stroke-width="3.2"/>
<circle clip-path="url(#clip472)" cx="464.412" cy="744.04" r="14.4" fill="#009af9" fill-rule="evenodd" fill-opacity="1" stroke="#000000" stroke-opacity="1" stroke-width="3.2"/>
<circle clip-path="url(#clip472)" cx="505.048" cy="741.292" r="14.4" fill="#009af9" fill-rule="evenodd" fill-opacity="1" stroke="#000000" stroke-opacity="1" stroke-width="3.2"/>
<circle clip-path="url(#clip472)" cx="545.684" cy="738.912" r="14.4" fill="#009af9" fill-rule="evenodd" fill-opacity="1" stroke="#000000" stroke-opacity="1" stroke-width="3.2"/>
<circle clip-path="url(#clip472)" cx="586.32" cy="737.003" r="14.4" fill="#009af9" fill-rule="evenodd" fill-opacity="1" stroke="#000000" stroke-opacity="1" stroke-width="3.2"/>
<circle clip-path="url(#clip472)" cx="626.955" cy="735.674" r="14.4" fill="#009af9" fill-rule="evenodd" fill-opacity="1" stroke="#000000" stroke-opacity="1" stroke-width="3.2"/>
<circle clip-path="url(#clip472)" cx="667.591" cy="735.046" r="14.4" fill="#009af9" fill-rule="evenodd" fill-opacity="1" stroke="#000000" stroke-opacity="1" stroke-width="3.2"/>
<circle clip-path="url(#clip472)" cx="708.227" cy="735.25" r="14.4" fill="#009af9" fill-rule="evenodd" fill-opacity="1" stroke="#000000" stroke-opacity="1" stroke-width="3.2"/>
<circle clip-path="url(#clip472)" cx="748.863" cy="736.427" r="14.4" fill="#009af9" fill-rule="evenodd" fill-opacity="1" stroke="#000000" stroke-opacity="1" stroke-width="3.2"/>
<circle clip-path="url(#clip472)" cx="789.498" cy="738.724" r="14.4" fill="#009af9" fill-rule="evenodd" fill-opacity="1" stroke="#000000" stroke-opacity="1" stroke-width="3.2"/>
<circle clip-path="url(#clip472)" cx="830.134" cy="742.299" r="14.4" fill="#009af9" fill-rule="evenodd" fill-opacity="1" stroke="#000000" stroke-opacity="1" stroke-width="3.2"/>
<circle clip-path="url(#clip472)" cx="870.77" cy="747.316" r="14.4" fill="#009af9" fill-rule="evenodd" fill-opacity="1" stroke="#000000" stroke-opacity="1" stroke-width="3.2"/>
<circle clip-path="url(#clip472)" cx="911.406" cy="753.944" r="14.4" fill="#009af9" fill-rule="evenodd" fill-opacity="1" stroke="#000000" stroke-opacity="1" stroke-width="3.2"/>
<circle clip-path="url(#clip472)" cx="952.041" cy="762.352" r="14.4" fill="#009af9" fill-rule="evenodd" fill-opacity="1" stroke="#000000" stroke-opacity="1" stroke-width="3.2"/>
<circle clip-path="url(#clip472)" cx="992.677" cy="772.71" r="14.4" fill="#009af9" fill-rule="evenodd" fill-opacity="1" stroke="#000000" stroke-opacity="1" stroke-width="3.2"/>
<circle clip-path="url(#clip472)" cx="1033.31" cy="785.186" r="14.4" fill="#009af9" fill-rule="evenodd" fill-opacity="1" stroke="#000000" stroke-opacity="1" stroke-width="3.2"/>
<circle clip-path="url(#clip472)" cx="1073.95" cy="799.936" r="14.4" fill="#009af9" fill-rule="evenodd" fill-opacity="1" stroke="#000000" stroke-opacity="1" stroke-width="3.2"/>
<circle clip-path="url(#clip472)" cx="1114.58" cy="817.104" r="14.4" fill="#009af9" fill-rule="evenodd" fill-opacity="1" stroke="#000000" stroke-opacity="1" stroke-width="3.2"/>
<circle clip-path="url(#clip472)" cx="1155.22" cy="836.813" r="14.4" fill="#009af9" fill-rule="evenodd" fill-opacity="1" stroke="#000000" stroke-opacity="1" stroke-width="3.2"/>
<circle clip-path="url(#clip472)" cx="1195.86" cy="859.16" r="14.4" fill="#009af9" fill-rule="evenodd" fill-opacity="1" stroke="#000000" stroke-opacity="1" stroke-width="3.2"/>
<circle clip-path="url(#clip472)" cx="1236.49" cy="884.205" r="14.4" fill="#009af9" fill-rule="evenodd" fill-opacity="1" stroke="#000000" stroke-opacity="1" stroke-width="3.2"/>
<circle clip-path="url(#clip472)" cx="1277.13" cy="911.967" r="14.4" fill="#009af9" fill-rule="evenodd" fill-opacity="1" stroke="#000000" stroke-opacity="1" stroke-width="3.2"/>
<circle clip-path="url(#clip472)" cx="1317.76" cy="942.407" r="14.4" fill="#009af9" fill-rule="evenodd" fill-opacity="1" stroke="#000000" stroke-opacity="1" stroke-width="3.2"/>
<circle clip-path="url(#clip472)" cx="1358.4" cy="975.421" r="14.4" fill="#009af9" fill-rule="evenodd" fill-opacity="1" stroke="#000000" stroke-opacity="1" stroke-width="3.2"/>
<circle clip-path="url(#clip472)" cx="1399.03" cy="1010.83" r="14.4" fill="#009af9" fill-rule="evenodd" fill-opacity="1" stroke="#000000" stroke-opacity="1" stroke-width="3.2"/>
<circle clip-path="url(#clip472)" cx="1439.67" cy="1048.36" r="14.4" fill="#009af9" fill-rule="evenodd" fill-opacity="1" stroke="#000000" stroke-opacity="1" stroke-width="3.2"/>
<circle clip-path="url(#clip472)" cx="1480.31" cy="1087.62" r="14.4" fill="#009af9" fill-rule="evenodd" fill-opacity="1" stroke="#000000" stroke-opacity="1" stroke-width="3.2"/>
<circle clip-path="url(#clip472)" cx="1520.94" cy="1128.13" r="14.4" fill="#009af9" fill-rule="evenodd" fill-opacity="1" stroke="#000000" stroke-opacity="1" stroke-width="3.2"/>
<circle clip-path="url(#clip472)" cx="1561.58" cy="1169.23" r="14.4" fill="#009af9" fill-rule="evenodd" fill-opacity="1" stroke="#000000" stroke-opacity="1" stroke-width="3.2"/>
<circle clip-path="url(#clip472)" cx="1602.21" cy="1210.13" r="14.4" fill="#009af9" fill-rule="evenodd" fill-opacity="1" stroke="#000000" stroke-opacity="1" stroke-width="3.2"/>
<circle clip-path="url(#clip472)" cx="1642.85" cy="1249.88" r="14.4" fill="#009af9" fill-rule="evenodd" fill-opacity="1" stroke="#000000" stroke-opacity="1" stroke-width="3.2"/>
<circle clip-path="url(#clip472)" cx="1683.48" cy="1287.3" r="14.4" fill="#009af9" fill-rule="evenodd" fill-opacity="1" stroke="#000000" stroke-opacity="1" stroke-width="3.2"/>
<circle clip-path="url(#clip472)" cx="1724.12" cy="1321.06" r="14.4" fill="#009af9" fill-rule="evenodd" fill-opacity="1" stroke="#000000" stroke-opacity="1" stroke-width="3.2"/>
<circle clip-path="url(#clip472)" cx="1764.76" cy="1349.56" r="14.4" fill="#009af9" fill-rule="evenodd" fill-opacity="1" stroke="#000000" stroke-opacity="1" stroke-width="3.2"/>
<circle clip-path="url(#clip472)" cx="1805.39" cy="1371.01" r="14.4" fill="#009af9" fill-rule="evenodd" fill-opacity="1" stroke="#000000" stroke-opacity="1" stroke-width="3.2"/>
<circle clip-path="url(#clip472)" cx="1846.03" cy="1383.33" r="14.4" fill="#009af9" fill-rule="evenodd" fill-opacity="1" stroke="#000000" stroke-opacity="1" stroke-width="3.2"/>
<circle clip-path="url(#clip472)" cx="1886.66" cy="1384.24" r="14.4" fill="#009af9" fill-rule="evenodd" fill-opacity="1" stroke="#000000" stroke-opacity="1" stroke-width="3.2"/>
<circle clip-path="url(#clip472)" cx="1927.3" cy="1371.15" r="14.4" fill="#009af9" fill-rule="evenodd" fill-opacity="1" stroke="#000000" stroke-opacity="1" stroke-width="3.2"/>
<circle clip-path="url(#clip472)" cx="1967.94" cy="1341.25" r="14.4" fill="#009af9" fill-rule="evenodd" fill-opacity="1" stroke="#000000" stroke-opacity="1" stroke-width="3.2"/>
<circle clip-path="url(#clip472)" cx="2008.57" cy="1291.47" r="14.4" fill="#009af9" fill-rule="evenodd" fill-opacity="1" stroke="#000000" stroke-opacity="1" stroke-width="3.2"/>
<circle clip-path="url(#clip472)" cx="2049.21" cy="1218.49" r="14.4" fill="#009af9" fill-rule="evenodd" fill-opacity="1" stroke="#000000" stroke-opacity="1" stroke-width="3.2"/>
<circle clip-path="url(#clip472)" cx="2089.84" cy="1118.79" r="14.4" fill="#009af9" fill-rule="evenodd" fill-opacity="1" stroke="#000000" stroke-opacity="1" stroke-width="3.2"/>
<circle clip-path="url(#clip472)" cx="2130.48" cy="988.66" r="14.4" fill="#009af9" fill-rule="evenodd" fill-opacity="1" stroke="#000000" stroke-opacity="1" stroke-width="3.2"/>
<circle clip-path="url(#clip472)" cx="2171.11" cy="824.26" r="14.4" fill="#009af9" fill-rule="evenodd" fill-opacity="1" stroke="#000000" stroke-opacity="1" stroke-width="3.2"/>
<circle clip-path="url(#clip472)" cx="2211.75" cy="621.659" r="14.4" fill="#009af9" fill-rule="evenodd" fill-opacity="1" stroke="#000000" stroke-opacity="1" stroke-width="3.2"/>
<circle clip-path="url(#clip472)" cx="2252.39" cy="376.921" r="14.4" fill="#009af9" fill-rule="evenodd" fill-opacity="1" stroke="#000000" stroke-opacity="1" stroke-width="3.2"/>
<circle clip-path="url(#clip472)" cx="2293.02" cy="86.1857" r="14.4" fill="#009af9" fill-rule="evenodd" fill-opacity="1" stroke="#000000" stroke-opacity="1" stroke-width="3.2"/>
<path clip-path="url(#clip470)" d="M312.489 196.789 L730.795 196.789 L730.795 93.1086 L312.489 93.1086  Z" fill="#ffffff" fill-rule="evenodd" fill-opacity="1"/>
<polyline clip-path="url(#clip470)" style="stroke:#000000; stroke-linecap:round; stroke-linejoin:round; stroke-width:4; stroke-opacity:1; fill:none" points="312.489,196.789 730.795,196.789 730.795,93.1086 312.489,93.1086 312.489,196.789 "/>
<circle clip-path="url(#clip470)" cx="406.294" cy="144.949" r="20.48" fill="#009af9" fill-rule="evenodd" fill-opacity="1" stroke="#000000" stroke-opacity="1" stroke-width="4.55111"/>
<path clip-path="url(#clip470)" d="M507.507 128.942 L507.507 136.303 L516.28 136.303 L516.28 139.613 L507.507 139.613 L507.507 153.687 Q507.507 156.858 508.363 157.761 Q509.243 158.664 511.905 158.664 L516.28 158.664 L516.28 162.229 L511.905 162.229 Q506.974 162.229 505.099 160.4 Q503.224 158.548 503.224 153.687 L503.224 139.613 L500.099 139.613 L500.099 136.303 L503.224 136.303 L503.224 128.942 L507.507 128.942 Z" fill="#000000" fill-rule="nonzero" fill-opacity="1" /><path clip-path="url(#clip470)" d="M521.882 136.303 L526.141 136.303 L526.141 162.229 L521.882 162.229 L521.882 136.303 M521.882 126.21 L526.141 126.21 L526.141 131.604 L521.882 131.604 L521.882 126.21 Z" fill="#000000" fill-rule="nonzero" fill-opacity="1" /><path clip-path="url(#clip470)" d="M539.266 128.942 L539.266 136.303 L548.039 136.303 L548.039 139.613 L539.266 139.613 L539.266 153.687 Q539.266 156.858 540.122 157.761 Q541.002 158.664 543.664 158.664 L548.039 158.664 L548.039 162.229 L543.664 162.229 Q538.734 162.229 536.859 160.4 Q534.984 158.548 534.984 153.687 L534.984 139.613 L531.859 139.613 L531.859 136.303 L534.984 136.303 L534.984 128.942 L539.266 128.942 Z" fill="#000000" fill-rule="nonzero" fill-opacity="1" /><path clip-path="url(#clip470)" d="M553.641 136.303 L557.9 136.303 L557.9 162.229 L553.641 162.229 L553.641 136.303 M553.641 126.21 L557.9 126.21 L557.9 131.604 L553.641 131.604 L553.641 126.21 Z" fill="#000000" fill-rule="nonzero" fill-opacity="1" /><path clip-path="url(#clip470)" d="M566.65 126.21 L570.932 126.21 L570.932 147.483 L583.641 136.303 L589.08 136.303 L575.331 148.432 L589.659 162.229 L584.104 162.229 L570.932 149.567 L570.932 162.229 L566.65 162.229 L566.65 126.21 Z" fill="#000000" fill-rule="nonzero" fill-opacity="1" /><path clip-path="url(#clip470)" d="M626.395 140.238 L626.395 126.21 L630.654 126.21 L630.654 162.229 L626.395 162.229 L626.395 158.34 Q625.053 160.655 622.992 161.789 Q620.955 162.9 618.085 162.9 Q613.386 162.9 610.423 159.15 Q607.483 155.4 607.483 149.289 Q607.483 143.178 610.423 139.428 Q613.386 135.678 618.085 135.678 Q620.955 135.678 622.992 136.812 Q625.053 137.923 626.395 140.238 M611.881 149.289 Q611.881 153.988 613.803 156.673 Q615.747 159.335 619.127 159.335 Q622.506 159.335 624.451 156.673 Q626.395 153.988 626.395 149.289 Q626.395 144.59 624.451 141.928 Q622.506 139.243 619.127 139.243 Q615.747 139.243 613.803 141.928 Q611.881 144.59 611.881 149.289 Z" fill="#000000" fill-rule="nonzero" fill-opacity="1" /><path clip-path="url(#clip470)" d="M651.21 149.196 Q646.048 149.196 644.057 150.377 Q642.066 151.557 642.066 154.405 Q642.066 156.673 643.548 158.016 Q645.052 159.335 647.622 159.335 Q651.163 159.335 653.293 156.835 Q655.446 154.312 655.446 150.145 L655.446 149.196 L651.21 149.196 M659.705 147.437 L659.705 162.229 L655.446 162.229 L655.446 158.293 Q653.988 160.655 651.812 161.789 Q649.636 162.9 646.488 162.9 Q642.506 162.9 640.145 160.678 Q637.807 158.432 637.807 154.682 Q637.807 150.307 640.724 148.085 Q643.664 145.863 649.474 145.863 L655.446 145.863 L655.446 145.446 Q655.446 142.507 653.501 140.909 Q651.58 139.289 648.085 139.289 Q645.863 139.289 643.756 139.821 Q641.65 140.354 639.705 141.419 L639.705 137.483 Q642.043 136.581 644.242 136.141 Q646.441 135.678 648.525 135.678 Q654.15 135.678 656.927 138.594 Q659.705 141.511 659.705 147.437 Z" fill="#000000" fill-rule="nonzero" fill-opacity="1" /><path clip-path="url(#clip470)" d="M672.691 128.942 L672.691 136.303 L681.464 136.303 L681.464 139.613 L672.691 139.613 L672.691 153.687 Q672.691 156.858 673.548 157.761 Q674.427 158.664 677.089 158.664 L681.464 158.664 L681.464 162.229 L677.089 162.229 Q672.159 162.229 670.284 160.4 Q668.409 158.548 668.409 153.687 L668.409 139.613 L665.284 139.613 L665.284 136.303 L668.409 136.303 L668.409 128.942 L672.691 128.942 Z" fill="#000000" fill-rule="nonzero" fill-opacity="1" /><path clip-path="url(#clip470)" d="M698.848 149.196 Q693.686 149.196 691.696 150.377 Q689.705 151.557 689.705 154.405 Q689.705 156.673 691.186 158.016 Q692.691 159.335 695.26 159.335 Q698.802 159.335 700.932 156.835 Q703.085 154.312 703.085 150.145 L703.085 149.196 L698.848 149.196 M707.344 147.437 L707.344 162.229 L703.085 162.229 L703.085 158.293 Q701.626 160.655 699.45 161.789 Q697.274 162.9 694.126 162.9 Q690.145 162.9 687.784 160.678 Q685.446 158.432 685.446 154.682 Q685.446 150.307 688.362 148.085 Q691.302 145.863 697.112 145.863 L703.085 145.863 L703.085 145.446 Q703.085 142.507 701.14 140.909 Q699.219 139.289 695.723 139.289 Q693.501 139.289 691.395 139.821 Q689.288 140.354 687.344 141.419 L687.344 137.483 Q689.682 136.581 691.881 136.141 Q694.08 135.678 696.163 135.678 Q701.788 135.678 704.566 138.594 Q707.344 141.511 707.344 147.437 Z" fill="#000000" fill-rule="nonzero" fill-opacity="1" /></svg>
