<?xml version="1.0" encoding="utf-8"?>
<svg xmlns="http://www.w3.org/2000/svg" xmlns:xlink="http://www.w3.org/1999/xlink" width="600" height="400" viewBox="0 0 2400 1600">
<defs>
  <clipPath id="clip870">
    <rect x="0" y="0" width="2400" height="1600"/>
  </clipPath>
</defs>
<path clip-path="url(#clip870)" d="M0 1600 L2400 1600 L2400 0 L0 0  Z" fill="#ffffff" fill-rule="evenodd" fill-opacity="1"/>
<defs>
  <clipPath id="clip871">
    <rect x="480" y="0" width="1681" height="1600"/>
  </clipPath>
</defs>
<path clip-path="url(#clip870)" d="M219.033 1423.18 L2352.76 1423.18 L2352.76 47.2441 L219.033 47.2441  Z" fill="#ffffff" fill-rule="evenodd" fill-opacity="1"/>
<defs>
  <clipPath id="clip872">
    <rect x="219" y="47" width="2135" height="1377"/>
  </clipPath>
</defs>
<polyline clip-path="url(#clip872)" style="stroke:#000000; stroke-linecap:round; stroke-linejoin:round; stroke-width:2; stroke-opacity:0.1; fill:none" points="539.156,1423.18 539.156,47.2441 "/>
<polyline clip-path="url(#clip872)" style="stroke:#000000; stroke-linecap:round; stroke-linejoin:round; stroke-width:2; stroke-opacity:0.1; fill:none" points="944.992,1423.18 944.992,47.2441 "/>
<polyline clip-path="url(#clip872)" style="stroke:#000000; stroke-linecap:round; stroke-linejoin:round; stroke-width:2; stroke-opacity:0.1; fill:none" points="1350.83,1423.18 1350.83,47.2441 "/>
<polyline clip-path="url(#clip872)" style="stroke:#000000; stroke-linecap:round; stroke-linejoin:round; stroke-width:2; stroke-opacity:0.1; fill:none" points="1756.66,1423.18 1756.66,47.2441 "/>
<polyline clip-path="url(#clip872)" style="stroke:#000000; stroke-linecap:round; stroke-linejoin:round; stroke-width:2; stroke-opacity:0.1; fill:none" points="2162.5,1423.18 2162.5,47.2441 "/>
<polyline clip-path="url(#clip870)" style="stroke:#000000; stroke-linecap:round; stroke-linejoin:round; stroke-width:4; stroke-opacity:1; fill:none" points="219.033,1423.18 2352.76,1423.18 "/>
<polyline clip-path="url(#clip870)" style="stroke:#000000; stroke-linecap:round; stroke-linejoin:round; stroke-width:4; stroke-opacity:1; fill:none" points="539.156,1423.18 539.156,1404.28 "/>
<polyline clip-path="url(#clip870)" style="stroke:#000000; stroke-linecap:round; stroke-linejoin:round; stroke-width:4; stroke-opacity:1; fill:none" points="944.992,1423.18 944.992,1404.28 "/>
<polyline clip-path="url(#clip870)" style="stroke:#000000; stroke-linecap:round; stroke-linejoin:round; stroke-width:4; stroke-opacity:1; fill:none" points="1350.83,1423.18 1350.83,1404.28 "/>
<polyline clip-path="url(#clip870)" style="stroke:#000000; stroke-linecap:round; stroke-linejoin:round; stroke-width:4; stroke-opacity:1; fill:none" points="1756.66,1423.18 1756.66,1404.28 "/>
<polyline clip-path="url(#clip870)" style="stroke:#000000; stroke-linecap:round; stroke-linejoin:round; stroke-width:4; stroke-opacity:1; fill:none" points="2162.5,1423.18 2162.5,1404.28 "/>
<path clip-path="url(#clip870)" d="M510.893 1481.64 L527.212 1481.64 L527.212 1485.58 L505.268 1485.58 L505.268 1481.64 Q507.93 1478.89 512.513 1474.26 Q517.119 1469.61 518.3 1468.27 Q520.545 1465.74 521.425 1464.01 Q522.328 1462.25 522.328 1460.56 Q522.328 1457.8 520.383 1456.07 Q518.462 1454.33 515.36 1454.33 Q513.161 1454.33 510.707 1455.09 Q508.277 1455.86 505.499 1457.41 L505.499 1452.69 Q508.323 1451.55 510.777 1450.97 Q513.231 1450.39 515.268 1450.39 Q520.638 1450.39 523.832 1453.08 Q527.027 1455.77 527.027 1460.26 Q527.027 1462.39 526.217 1464.31 Q525.43 1466.2 523.323 1468.8 Q522.744 1469.47 519.643 1472.69 Q516.541 1475.88 510.893 1481.64 Z" fill="#000000" fill-rule="nonzero" fill-opacity="1" /><path clip-path="url(#clip870)" d="M537.027 1479.7 L541.911 1479.7 L541.911 1485.58 L537.027 1485.58 L537.027 1479.7 Z" fill="#000000" fill-rule="nonzero" fill-opacity="1" /><path clip-path="url(#clip870)" d="M552.142 1451.02 L570.499 1451.02 L570.499 1454.96 L556.425 1454.96 L556.425 1463.43 Q557.443 1463.08 558.462 1462.92 Q559.48 1462.73 560.499 1462.73 Q566.286 1462.73 569.665 1465.9 Q573.045 1469.08 573.045 1474.49 Q573.045 1480.07 569.573 1483.17 Q566.101 1486.25 559.781 1486.25 Q557.605 1486.25 555.337 1485.88 Q553.091 1485.51 550.684 1484.77 L550.684 1480.07 Q552.767 1481.2 554.99 1481.76 Q557.212 1482.32 559.689 1482.32 Q563.693 1482.32 566.031 1480.21 Q568.369 1478.1 568.369 1474.49 Q568.369 1470.88 566.031 1468.77 Q563.693 1466.67 559.689 1466.67 Q557.814 1466.67 555.939 1467.08 Q554.087 1467.5 552.142 1468.38 L552.142 1451.02 Z" fill="#000000" fill-rule="nonzero" fill-opacity="1" /><path clip-path="url(#clip870)" d="M912.157 1451.02 L930.513 1451.02 L930.513 1454.96 L916.439 1454.96 L916.439 1463.43 Q917.458 1463.08 918.476 1462.92 Q919.495 1462.73 920.513 1462.73 Q926.3 1462.73 929.68 1465.9 Q933.059 1469.08 933.059 1474.49 Q933.059 1480.07 929.587 1483.17 Q926.115 1486.25 919.796 1486.25 Q917.62 1486.25 915.351 1485.88 Q913.106 1485.51 910.698 1484.77 L910.698 1480.07 Q912.782 1481.2 915.004 1481.76 Q917.226 1482.32 919.703 1482.32 Q923.708 1482.32 926.046 1480.21 Q928.384 1478.1 928.384 1474.49 Q928.384 1470.88 926.046 1468.77 Q923.708 1466.67 919.703 1466.67 Q917.828 1466.67 915.953 1467.08 Q914.101 1467.5 912.157 1468.38 L912.157 1451.02 Z" fill="#000000" fill-rule="nonzero" fill-opacity="1" /><path clip-path="url(#clip870)" d="M942.272 1479.7 L947.157 1479.7 L947.157 1485.58 L942.272 1485.58 L942.272 1479.7 Z" fill="#000000" fill-rule="nonzero" fill-opacity="1" /><path clip-path="url(#clip870)" d="M967.342 1454.1 Q963.731 1454.1 961.902 1457.66 Q960.096 1461.2 960.096 1468.33 Q960.096 1475.44 961.902 1479.01 Q963.731 1482.55 967.342 1482.55 Q970.976 1482.55 972.781 1479.01 Q974.61 1475.44 974.61 1468.33 Q974.61 1461.2 972.781 1457.66 Q970.976 1454.1 967.342 1454.1 M967.342 1450.39 Q973.152 1450.39 976.207 1455 Q979.286 1459.58 979.286 1468.33 Q979.286 1477.06 976.207 1481.67 Q973.152 1486.25 967.342 1486.25 Q961.532 1486.25 958.453 1481.67 Q955.397 1477.06 955.397 1468.33 Q955.397 1459.58 958.453 1455 Q961.532 1450.39 967.342 1450.39 Z" fill="#000000" fill-rule="nonzero" fill-opacity="1" /><path clip-path="url(#clip870)" d="M1317.15 1451.02 L1339.37 1451.02 L1339.37 1453.01 L1326.82 1485.58 L1321.94 1485.58 L1333.74 1454.96 L1317.15 1454.96 L1317.15 1451.02 Z" fill="#000000" fill-rule="nonzero" fill-opacity="1" /><path clip-path="url(#clip870)" d="M1348.49 1479.7 L1353.37 1479.7 L1353.37 1485.58 L1348.49 1485.58 L1348.49 1479.7 Z" fill="#000000" fill-rule="nonzero" fill-opacity="1" /><path clip-path="url(#clip870)" d="M1363.61 1451.02 L1381.96 1451.02 L1381.96 1454.96 L1367.89 1454.96 L1367.89 1463.43 Q1368.91 1463.08 1369.93 1462.92 Q1370.94 1462.73 1371.96 1462.73 Q1377.75 1462.73 1381.13 1465.9 Q1384.51 1469.08 1384.51 1474.49 Q1384.51 1480.07 1381.04 1483.17 Q1377.56 1486.25 1371.24 1486.25 Q1369.07 1486.25 1366.8 1485.88 Q1364.55 1485.51 1362.15 1484.77 L1362.15 1480.07 Q1364.23 1481.2 1366.45 1481.76 Q1368.68 1482.32 1371.15 1482.32 Q1375.16 1482.32 1377.49 1480.21 Q1379.83 1478.1 1379.83 1474.49 Q1379.83 1470.88 1377.49 1468.77 Q1375.16 1466.67 1371.15 1466.67 Q1369.28 1466.67 1367.4 1467.08 Q1365.55 1467.5 1363.61 1468.38 L1363.61 1451.02 Z" fill="#000000" fill-rule="nonzero" fill-opacity="1" /><path clip-path="url(#clip870)" d="M1708.74 1481.64 L1716.37 1481.64 L1716.37 1455.28 L1708.06 1456.95 L1708.06 1452.69 L1716.33 1451.02 L1721 1451.02 L1721 1481.64 L1728.64 1481.64 L1728.64 1485.58 L1708.74 1485.58 L1708.74 1481.64 Z" fill="#000000" fill-rule="nonzero" fill-opacity="1" /><path clip-path="url(#clip870)" d="M1748.09 1454.1 Q1744.48 1454.1 1742.65 1457.66 Q1740.84 1461.2 1740.84 1468.33 Q1740.84 1475.44 1742.65 1479.01 Q1744.48 1482.55 1748.09 1482.55 Q1751.72 1482.55 1753.53 1479.01 Q1755.36 1475.44 1755.36 1468.33 Q1755.36 1461.2 1753.53 1457.66 Q1751.72 1454.1 1748.09 1454.1 M1748.09 1450.39 Q1753.9 1450.39 1756.95 1455 Q1760.03 1459.58 1760.03 1468.33 Q1760.03 1477.06 1756.95 1481.67 Q1753.9 1486.25 1748.09 1486.25 Q1742.28 1486.25 1739.2 1481.67 Q1736.14 1477.06 1736.14 1468.33 Q1736.14 1459.58 1739.2 1455 Q1742.28 1450.39 1748.09 1450.39 Z" fill="#000000" fill-rule="nonzero" fill-opacity="1" /><path clip-path="url(#clip870)" d="M1768.25 1479.7 L1773.13 1479.7 L1773.13 1485.58 L1768.25 1485.58 L1768.25 1479.7 Z" fill="#000000" fill-rule="nonzero" fill-opacity="1" /><path clip-path="url(#clip870)" d="M1793.32 1454.1 Q1789.71 1454.1 1787.88 1457.66 Q1786.07 1461.2 1786.07 1468.33 Q1786.07 1475.44 1787.88 1479.01 Q1789.71 1482.55 1793.32 1482.55 Q1796.95 1482.55 1798.76 1479.01 Q1800.59 1475.44 1800.59 1468.33 Q1800.59 1461.2 1798.76 1457.66 Q1796.95 1454.1 1793.32 1454.1 M1793.32 1450.39 Q1799.13 1450.39 1802.18 1455 Q1805.26 1459.58 1805.26 1468.33 Q1805.26 1477.06 1802.18 1481.67 Q1799.13 1486.25 1793.32 1486.25 Q1787.51 1486.25 1784.43 1481.67 Q1781.37 1477.06 1781.37 1468.33 Q1781.37 1459.58 1784.43 1455 Q1787.51 1450.39 1793.32 1450.39 Z" fill="#000000" fill-rule="nonzero" fill-opacity="1" /><path clip-path="url(#clip870)" d="M2115.07 1481.64 L2122.71 1481.64 L2122.71 1455.28 L2114.4 1456.95 L2114.4 1452.69 L2122.66 1451.02 L2127.34 1451.02 L2127.34 1481.64 L2134.98 1481.64 L2134.98 1485.58 L2115.07 1485.58 L2115.07 1481.64 Z" fill="#000000" fill-rule="nonzero" fill-opacity="1" /><path clip-path="url(#clip870)" d="M2148.45 1481.64 L2164.77 1481.64 L2164.77 1485.58 L2142.82 1485.58 L2142.82 1481.64 Q2145.49 1478.89 2150.07 1474.26 Q2154.68 1469.61 2155.86 1468.27 Q2158.1 1465.74 2158.98 1464.01 Q2159.88 1462.25 2159.88 1460.56 Q2159.88 1457.8 2157.94 1456.07 Q2156.02 1454.33 2152.92 1454.33 Q2150.72 1454.33 2148.26 1455.09 Q2145.83 1455.86 2143.06 1457.41 L2143.06 1452.69 Q2145.88 1451.55 2148.33 1450.97 Q2150.79 1450.39 2152.82 1450.39 Q2158.19 1450.39 2161.39 1453.08 Q2164.58 1455.77 2164.58 1460.26 Q2164.58 1462.39 2163.77 1464.31 Q2162.99 1466.2 2160.88 1468.8 Q2160.3 1469.47 2157.2 1472.69 Q2154.1 1475.88 2148.45 1481.64 Z" fill="#000000" fill-rule="nonzero" fill-opacity="1" /><path clip-path="url(#clip870)" d="M2174.58 1479.7 L2179.47 1479.7 L2179.47 1485.58 L2174.58 1485.58 L2174.58 1479.7 Z" fill="#000000" fill-rule="nonzero" fill-opacity="1" /><path clip-path="url(#clip870)" d="M2189.7 1451.02 L2208.06 1451.02 L2208.06 1454.96 L2193.98 1454.96 L2193.98 1463.43 Q2195 1463.08 2196.02 1462.92 Q2197.04 1462.73 2198.06 1462.73 Q2203.84 1462.73 2207.22 1465.9 Q2210.6 1469.08 2210.6 1474.49 Q2210.6 1480.07 2207.13 1483.17 Q2203.66 1486.25 2197.34 1486.25 Q2195.16 1486.25 2192.89 1485.88 Q2190.65 1485.51 2188.24 1484.77 L2188.24 1480.07 Q2190.32 1481.2 2192.55 1481.76 Q2194.77 1482.32 2197.25 1482.32 Q2201.25 1482.32 2203.59 1480.21 Q2205.93 1478.1 2205.93 1474.49 Q2205.93 1470.88 2203.59 1468.77 Q2201.25 1466.67 2197.25 1466.67 Q2195.37 1466.67 2193.5 1467.08 Q2191.64 1467.5 2189.7 1468.38 L2189.7 1451.02 Z" fill="#000000" fill-rule="nonzero" fill-opacity="1" /><path clip-path="url(#clip870)" d="M1302.51 1532.4 L1289.62 1549.74 L1303.18 1568.04 L1296.27 1568.04 L1285.89 1554.04 L1275.52 1568.04 L1268.61 1568.04 L1282.46 1549.39 L1269.79 1532.4 L1276.7 1532.4 L1286.15 1545.1 L1295.6 1532.4 L1302.51 1532.4 Z" fill="#000000" fill-rule="nonzero" fill-opacity="1" /><polyline clip-path="url(#clip872)" style="stroke:#000000; stroke-linecap:round; stroke-linejoin:round; stroke-width:2; stroke-opacity:0.1; fill:none" points="219.033,1251.78 2352.76,1251.78 "/>
<polyline clip-path="url(#clip872)" style="stroke:#000000; stroke-linecap:round; stroke-linejoin:round; stroke-width:2; stroke-opacity:0.1; fill:none" points="219.033,986.875 2352.76,986.875 "/>
<polyline clip-path="url(#clip872)" style="stroke:#000000; stroke-linecap:round; stroke-linejoin:round; stroke-width:2; stroke-opacity:0.1; fill:none" points="219.033,721.967 2352.76,721.967 "/>
<polyline clip-path="url(#clip872)" style="stroke:#000000; stroke-linecap:round; stroke-linejoin:round; stroke-width:2; stroke-opacity:0.1; fill:none" points="219.033,457.058 2352.76,457.058 "/>
<polyline clip-path="url(#clip872)" style="stroke:#000000; stroke-linecap:round; stroke-linejoin:round; stroke-width:2; stroke-opacity:0.1; fill:none" points="219.033,192.149 2352.76,192.149 "/>
<polyline clip-path="url(#clip870)" style="stroke:#000000; stroke-linecap:round; stroke-linejoin:round; stroke-width:4; stroke-opacity:1; fill:none" points="219.033,1423.18 219.033,47.2441 "/>
<polyline clip-path="url(#clip870)" style="stroke:#000000; stroke-linecap:round; stroke-linejoin:round; stroke-width:4; stroke-opacity:1; fill:none" points="219.033,1251.78 237.931,1251.78 "/>
<polyline clip-path="url(#clip870)" style="stroke:#000000; stroke-linecap:round; stroke-linejoin:round; stroke-width:4; stroke-opacity:1; fill:none" points="219.033,986.875 237.931,986.875 "/>
<polyline clip-path="url(#clip870)" style="stroke:#000000; stroke-linecap:round; stroke-linejoin:round; stroke-width:4; stroke-opacity:1; fill:none" points="219.033,721.967 237.931,721.967 "/>
<polyline clip-path="url(#clip870)" style="stroke:#000000; stroke-linecap:round; stroke-linejoin:round; stroke-width:4; stroke-opacity:1; fill:none" points="219.033,457.058 237.931,457.058 "/>
<polyline clip-path="url(#clip870)" style="stroke:#000000; stroke-linecap:round; stroke-linejoin:round; stroke-width:4; stroke-opacity:1; fill:none" points="219.033,192.149 237.931,192.149 "/>
<path clip-path="url(#clip870)" d="M126.853 1237.58 Q123.242 1237.58 121.413 1241.15 Q119.607 1244.69 119.607 1251.82 Q119.607 1258.93 121.413 1262.49 Q123.242 1266.03 126.853 1266.03 Q130.487 1266.03 132.292 1262.49 Q134.121 1258.93 134.121 1251.82 Q134.121 1244.69 132.292 1241.15 Q130.487 1237.58 126.853 1237.58 M126.853 1233.88 Q132.663 1233.88 135.718 1238.49 Q138.797 1243.07 138.797 1251.82 Q138.797 1260.55 135.718 1265.15 Q132.663 1269.74 126.853 1269.74 Q121.043 1269.74 117.964 1265.15 Q114.908 1260.55 114.908 1251.82 Q114.908 1243.07 117.964 1238.49 Q121.043 1233.88 126.853 1233.88 Z" fill="#000000" fill-rule="nonzero" fill-opacity="1" /><path clip-path="url(#clip870)" d="M147.015 1263.18 L151.899 1263.18 L151.899 1269.06 L147.015 1269.06 L147.015 1263.18 Z" fill="#000000" fill-rule="nonzero" fill-opacity="1" /><path clip-path="url(#clip870)" d="M162.13 1234.5 L180.487 1234.5 L180.487 1238.44 L166.413 1238.44 L166.413 1246.91 Q167.431 1246.56 168.45 1246.4 Q169.468 1246.22 170.487 1246.22 Q176.274 1246.22 179.653 1249.39 Q183.033 1252.56 183.033 1257.98 Q183.033 1263.55 179.561 1266.66 Q176.089 1269.74 169.769 1269.74 Q167.593 1269.74 165.325 1269.36 Q163.079 1268.99 160.672 1268.25 L160.672 1263.55 Q162.755 1264.69 164.977 1265.24 Q167.2 1265.8 169.677 1265.8 Q173.681 1265.8 176.019 1263.69 Q178.357 1261.59 178.357 1257.98 Q178.357 1254.36 176.019 1252.26 Q173.681 1250.15 169.677 1250.15 Q167.802 1250.15 165.927 1250.57 Q164.075 1250.99 162.13 1251.86 L162.13 1234.5 Z" fill="#000000" fill-rule="nonzero" fill-opacity="1" /><path clip-path="url(#clip870)" d="M116.668 1000.22 L124.306 1000.22 L124.306 973.854 L115.996 975.521 L115.996 971.262 L124.26 969.595 L128.936 969.595 L128.936 1000.22 L136.575 1000.22 L136.575 1004.16 L116.668 1004.16 L116.668 1000.22 Z" fill="#000000" fill-rule="nonzero" fill-opacity="1" /><path clip-path="url(#clip870)" d="M146.019 998.276 L150.903 998.276 L150.903 1004.16 L146.019 1004.16 L146.019 998.276 Z" fill="#000000" fill-rule="nonzero" fill-opacity="1" /><path clip-path="url(#clip870)" d="M171.089 972.674 Q167.477 972.674 165.649 976.239 Q163.843 979.78 163.843 986.91 Q163.843 994.016 165.649 997.581 Q167.477 1001.12 171.089 1001.12 Q174.723 1001.12 176.528 997.581 Q178.357 994.016 178.357 986.91 Q178.357 979.78 176.528 976.239 Q174.723 972.674 171.089 972.674 M171.089 968.97 Q176.899 968.97 179.954 973.577 Q183.033 978.16 183.033 986.91 Q183.033 995.637 179.954 1000.24 Q176.899 1004.83 171.089 1004.83 Q165.278 1004.83 162.2 1000.24 Q159.144 995.637 159.144 986.91 Q159.144 978.16 162.2 973.577 Q165.278 968.97 171.089 968.97 Z" fill="#000000" fill-rule="nonzero" fill-opacity="1" /><path clip-path="url(#clip870)" d="M117.663 735.311 L125.302 735.311 L125.302 708.946 L116.992 710.612 L116.992 706.353 L125.255 704.687 L129.931 704.687 L129.931 735.311 L137.57 735.311 L137.57 739.247 L117.663 739.247 L117.663 735.311 Z" fill="#000000" fill-rule="nonzero" fill-opacity="1" /><path clip-path="url(#clip870)" d="M147.015 733.367 L151.899 733.367 L151.899 739.247 L147.015 739.247 L147.015 733.367 Z" fill="#000000" fill-rule="nonzero" fill-opacity="1" /><path clip-path="url(#clip870)" d="M162.13 704.687 L180.487 704.687 L180.487 708.622 L166.413 708.622 L166.413 717.094 Q167.431 716.747 168.45 716.585 Q169.468 716.399 170.487 716.399 Q176.274 716.399 179.653 719.571 Q183.033 722.742 183.033 728.159 Q183.033 733.737 179.561 736.839 Q176.089 739.918 169.769 739.918 Q167.593 739.918 165.325 739.547 Q163.079 739.177 160.672 738.436 L160.672 733.737 Q162.755 734.872 164.977 735.427 Q167.2 735.983 169.677 735.983 Q173.681 735.983 176.019 733.876 Q178.357 731.77 178.357 728.159 Q178.357 724.548 176.019 722.441 Q173.681 720.335 169.677 720.335 Q167.802 720.335 165.927 720.751 Q164.075 721.168 162.13 722.048 L162.13 704.687 Z" fill="#000000" fill-rule="nonzero" fill-opacity="1" /><path clip-path="url(#clip870)" d="M119.885 470.403 L136.204 470.403 L136.204 474.338 L114.26 474.338 L114.26 470.403 Q116.922 467.648 121.505 463.018 Q126.112 458.366 127.292 457.023 Q129.538 454.5 130.417 452.764 Q131.32 451.005 131.32 449.315 Q131.32 446.56 129.376 444.824 Q127.455 443.088 124.353 443.088 Q122.154 443.088 119.7 443.852 Q117.269 444.616 114.492 446.167 L114.492 441.444 Q117.316 440.31 119.769 439.732 Q122.223 439.153 124.26 439.153 Q129.63 439.153 132.825 441.838 Q136.019 444.523 136.019 449.014 Q136.019 451.144 135.209 453.065 Q134.422 454.963 132.316 457.556 Q131.737 458.227 128.635 461.444 Q125.533 464.639 119.885 470.403 Z" fill="#000000" fill-rule="nonzero" fill-opacity="1" /><path clip-path="url(#clip870)" d="M146.019 468.458 L150.903 468.458 L150.903 474.338 L146.019 474.338 L146.019 468.458 Z" fill="#000000" fill-rule="nonzero" fill-opacity="1" /><path clip-path="url(#clip870)" d="M171.089 442.857 Q167.477 442.857 165.649 446.421 Q163.843 449.963 163.843 457.093 Q163.843 464.199 165.649 467.764 Q167.477 471.305 171.089 471.305 Q174.723 471.305 176.528 467.764 Q178.357 464.199 178.357 457.093 Q178.357 449.963 176.528 446.421 Q174.723 442.857 171.089 442.857 M171.089 439.153 Q176.899 439.153 179.954 443.759 Q183.033 448.343 183.033 457.093 Q183.033 465.819 179.954 470.426 Q176.899 475.009 171.089 475.009 Q165.278 475.009 162.2 470.426 Q159.144 465.819 159.144 457.093 Q159.144 448.343 162.2 443.759 Q165.278 439.153 171.089 439.153 Z" fill="#000000" fill-rule="nonzero" fill-opacity="1" /><path clip-path="url(#clip870)" d="M120.88 205.494 L137.2 205.494 L137.2 209.429 L115.256 209.429 L115.256 205.494 Q117.918 202.739 122.501 198.11 Q127.107 193.457 128.288 192.114 Q130.533 189.591 131.413 187.855 Q132.316 186.096 132.316 184.406 Q132.316 181.652 130.371 179.915 Q128.45 178.179 125.348 178.179 Q123.149 178.179 120.695 178.943 Q118.265 179.707 115.487 181.258 L115.487 176.536 Q118.311 175.402 120.765 174.823 Q123.218 174.244 125.255 174.244 Q130.626 174.244 133.82 176.929 Q137.015 179.614 137.015 184.105 Q137.015 186.235 136.204 188.156 Q135.417 190.054 133.311 192.647 Q132.732 193.318 129.63 196.536 Q126.529 199.73 120.88 205.494 Z" fill="#000000" fill-rule="nonzero" fill-opacity="1" /><path clip-path="url(#clip870)" d="M147.015 203.55 L151.899 203.55 L151.899 209.429 L147.015 209.429 L147.015 203.55 Z" fill="#000000" fill-rule="nonzero" fill-opacity="1" /><path clip-path="url(#clip870)" d="M162.13 174.869 L180.487 174.869 L180.487 178.804 L166.413 178.804 L166.413 187.276 Q167.431 186.929 168.45 186.767 Q169.468 186.582 170.487 186.582 Q176.274 186.582 179.653 189.753 Q183.033 192.925 183.033 198.341 Q183.033 203.92 179.561 207.022 Q176.089 210.1 169.769 210.1 Q167.593 210.1 165.325 209.73 Q163.079 209.36 160.672 208.619 L160.672 203.92 Q162.755 205.054 164.977 205.61 Q167.2 206.165 169.677 206.165 Q173.681 206.165 176.019 204.059 Q178.357 201.952 178.357 198.341 Q178.357 194.73 176.019 192.624 Q173.681 190.517 169.677 190.517 Q167.802 190.517 165.927 190.934 Q164.075 191.351 162.13 192.23 L162.13 174.869 Z" fill="#000000" fill-rule="nonzero" fill-opacity="1" /><path clip-path="url(#clip870)" d="M67.3143 733.525 Q73.68 736.008 75.6216 738.363 Q77.5631 740.718 77.5631 744.665 L77.5631 749.344 L72.6615 749.344 L72.6615 745.906 Q72.6615 743.487 71.5157 742.151 Q70.3699 740.814 66.1048 739.191 L63.4312 738.14 L28.3562 752.559 L28.3562 746.352 L56.238 735.212 L28.3562 724.072 L28.3562 717.865 L67.3143 733.525 Z" fill="#000000" fill-rule="nonzero" fill-opacity="1" /><circle clip-path="url(#clip872)" cx="279.421" cy="827.93" r="14.4" fill="#009af9" fill-rule="evenodd" fill-opacity="1" stroke="#000000" stroke-opacity="1" stroke-width="3.2"/>
<circle clip-path="url(#clip872)" cx="344.355" cy="721.967" r="14.4" fill="#009af9" fill-rule="evenodd" fill-opacity="1" stroke="#000000" stroke-opacity="1" stroke-width="3.2"/>
<circle clip-path="url(#clip872)" cx="441.756" cy="536.53" r="14.4" fill="#009af9" fill-rule="evenodd" fill-opacity="1" stroke="#000000" stroke-opacity="1" stroke-width="3.2"/>
<circle clip-path="url(#clip872)" cx="474.223" cy="393.48" r="14.4" fill="#009af9" fill-rule="evenodd" fill-opacity="1" stroke="#000000" stroke-opacity="1" stroke-width="3.2"/>
<circle clip-path="url(#clip872)" cx="555.39" cy="139.167" r="14.4" fill="#009af9" fill-rule="evenodd" fill-opacity="1" stroke="#000000" stroke-opacity="1" stroke-width="3.2"/>
<circle clip-path="url(#clip872)" cx="620.324" cy="86.1857" r="14.4" fill="#009af9" fill-rule="evenodd" fill-opacity="1" stroke="#000000" stroke-opacity="1" stroke-width="3.2"/>
<circle clip-path="url(#clip872)" cx="766.424" cy="245.131" r="14.4" fill="#009af9" fill-rule="evenodd" fill-opacity="1" stroke="#000000" stroke-opacity="1" stroke-width="3.2"/>
<circle clip-path="url(#clip872)" cx="847.592" cy="377.585" r="14.4" fill="#009af9" fill-rule="evenodd" fill-opacity="1" stroke="#000000" stroke-opacity="1" stroke-width="3.2"/>
<circle clip-path="url(#clip872)" cx="896.292" cy="430.567" r="14.4" fill="#009af9" fill-rule="evenodd" fill-opacity="1" stroke="#000000" stroke-opacity="1" stroke-width="3.2"/>
<circle clip-path="url(#clip872)" cx="944.992" cy="398.778" r="14.4" fill="#009af9" fill-rule="evenodd" fill-opacity="1" stroke="#000000" stroke-opacity="1" stroke-width="3.2"/>
<circle clip-path="url(#clip872)" cx="1107.33" cy="324.603" r="14.4" fill="#009af9" fill-rule="evenodd" fill-opacity="1" stroke="#000000" stroke-opacity="1" stroke-width="3.2"/>
<circle clip-path="url(#clip872)" cx="1269.66" cy="298.113" r="14.4" fill="#009af9" fill-rule="evenodd" fill-opacity="1" stroke="#000000" stroke-opacity="1" stroke-width="3.2"/>
<circle clip-path="url(#clip872)" cx="1432" cy="319.305" r="14.4" fill="#009af9" fill-rule="evenodd" fill-opacity="1" stroke="#000000" stroke-opacity="1" stroke-width="3.2"/>
<circle clip-path="url(#clip872)" cx="1626.8" cy="483.549" r="14.4" fill="#009af9" fill-rule="evenodd" fill-opacity="1" stroke="#000000" stroke-opacity="1" stroke-width="3.2"/>
<circle clip-path="url(#clip872)" cx="1837.83" cy="774.948" r="14.4" fill="#009af9" fill-rule="evenodd" fill-opacity="1" stroke="#000000" stroke-opacity="1" stroke-width="3.2"/>
<circle clip-path="url(#clip872)" cx="1967.7" cy="1039.86" r="14.4" fill="#009af9" fill-rule="evenodd" fill-opacity="1" stroke="#000000" stroke-opacity="1" stroke-width="3.2"/>
<circle clip-path="url(#clip872)" cx="2016.4" cy="1145.82" r="14.4" fill="#009af9" fill-rule="evenodd" fill-opacity="1" stroke="#000000" stroke-opacity="1" stroke-width="3.2"/>
<circle clip-path="url(#clip872)" cx="2081.33" cy="1198.8" r="14.4" fill="#009af9" fill-rule="evenodd" fill-opacity="1" stroke="#000000" stroke-opacity="1" stroke-width="3.2"/>
<circle clip-path="url(#clip872)" cx="2178.73" cy="1251.78" r="14.4" fill="#009af9" fill-rule="evenodd" fill-opacity="1" stroke="#000000" stroke-opacity="1" stroke-width="3.2"/>
<circle clip-path="url(#clip872)" cx="2243.67" cy="1304.77" r="14.4" fill="#009af9" fill-rule="evenodd" fill-opacity="1" stroke="#000000" stroke-opacity="1" stroke-width="3.2"/>
<circle clip-path="url(#clip872)" cx="2292.37" cy="1384.24" r="14.4" fill="#009af9" fill-rule="evenodd" fill-opacity="1" stroke="#000000" stroke-opacity="1" stroke-width="3.2"/>
<path clip-path="url(#clip870)" d="M1861.02 196.789 L2281.63 196.789 L2281.63 93.1086 L1861.02 93.1086  Z" fill="#ffffff" fill-rule="evenodd" fill-opacity="1"/>
<polyline clip-path="url(#clip870)" style="stroke:#000000; stroke-linecap:round; stroke-linejoin:round; stroke-width:4; stroke-opacity:1; fill:none" points="1861.02,196.789 2281.63,196.789 2281.63,93.1086 1861.02,93.1086 1861.02,196.789 "/>
<circle clip-path="url(#clip870)" cx="1955.85" cy="144.949" r="20.48" fill="#009af9" fill-rule="evenodd" fill-opacity="1" stroke="#000000" stroke-opacity="1" stroke-width="4.55111"/>
<path clip-path="url(#clip870)" d="M2058.09 128.942 L2058.09 136.303 L2066.86 136.303 L2066.86 139.613 L2058.09 139.613 L2058.09 153.687 Q2058.09 156.858 2058.94 157.761 Q2059.82 158.664 2062.49 158.664 L2066.86 158.664 L2066.86 162.229 L2062.49 162.229 Q2057.55 162.229 2055.68 160.4 Q2053.8 158.548 2053.8 153.687 L2053.8 139.613 L2050.68 139.613 L2050.68 136.303 L2053.8 136.303 L2053.8 128.942 L2058.09 128.942 Z" fill="#000000" fill-rule="nonzero" fill-opacity="1" /><path clip-path="url(#clip870)" d="M2072.46 136.303 L2076.72 136.303 L2076.72 162.229 L2072.46 162.229 L2072.46 136.303 M2072.46 126.21 L2076.72 126.21 L2076.72 131.604 L2072.46 131.604 L2072.46 126.21 Z" fill="#000000" fill-rule="nonzero" fill-opacity="1" /><path clip-path="url(#clip870)" d="M2089.85 128.942 L2089.85 136.303 L2098.62 136.303 L2098.62 139.613 L2089.85 139.613 L2089.85 153.687 Q2089.85 156.858 2090.7 157.761 Q2091.58 158.664 2094.24 158.664 L2098.62 158.664 L2098.62 162.229 L2094.24 162.229 Q2089.31 162.229 2087.44 160.4 Q2085.56 158.548 2085.56 153.687 L2085.56 139.613 L2082.44 139.613 L2082.44 136.303 L2085.56 136.303 L2085.56 128.942 L2089.85 128.942 Z" fill="#000000" fill-rule="nonzero" fill-opacity="1" /><path clip-path="url(#clip870)" d="M2104.22 136.303 L2108.48 136.303 L2108.48 162.229 L2104.22 162.229 L2104.22 136.303 M2104.22 126.21 L2108.48 126.21 L2108.48 131.604 L2104.22 131.604 L2104.22 126.21 Z" fill="#000000" fill-rule="nonzero" fill-opacity="1" /><path clip-path="url(#clip870)" d="M2117.23 126.21 L2121.51 126.21 L2121.51 147.483 L2134.22 136.303 L2139.66 136.303 L2125.91 148.432 L2140.24 162.229 L2134.68 162.229 L2121.51 149.567 L2121.51 162.229 L2117.23 162.229 L2117.23 126.21 Z" fill="#000000" fill-rule="nonzero" fill-opacity="1" /><path clip-path="url(#clip870)" d="M2176.98 140.238 L2176.98 126.21 L2181.23 126.21 L2181.23 162.229 L2176.98 162.229 L2176.98 158.34 Q2175.63 160.655 2173.57 161.789 Q2171.54 162.9 2168.66 162.9 Q2163.97 162.9 2161 159.15 Q2158.06 155.4 2158.06 149.289 Q2158.06 143.178 2161 139.428 Q2163.97 135.678 2168.66 135.678 Q2171.54 135.678 2173.57 136.812 Q2175.63 137.923 2176.98 140.238 M2162.46 149.289 Q2162.46 153.988 2164.38 156.673 Q2166.33 159.335 2169.71 159.335 Q2173.09 159.335 2175.03 156.673 Q2176.98 153.988 2176.98 149.289 Q2176.98 144.59 2175.03 141.928 Q2173.09 139.243 2169.71 139.243 Q2166.33 139.243 2164.38 141.928 Q2162.46 144.59 2162.46 149.289 Z" fill="#000000" fill-rule="nonzero" fill-opacity="1" /><path clip-path="url(#clip870)" d="M2201.79 149.196 Q2196.63 149.196 2194.64 150.377 Q2192.65 151.557 2192.65 154.405 Q2192.65 156.673 2194.13 158.016 Q2195.63 159.335 2198.2 159.335 Q2201.74 159.335 2203.87 156.835 Q2206.03 154.312 2206.03 150.145 L2206.03 149.196 L2201.79 149.196 M2210.29 147.437 L2210.29 162.229 L2206.03 162.229 L2206.03 158.293 Q2204.57 160.655 2202.39 161.789 Q2200.22 162.9 2197.07 162.9 Q2193.09 162.9 2190.73 160.678 Q2188.39 158.432 2188.39 154.682 Q2188.39 150.307 2191.3 148.085 Q2194.24 145.863 2200.05 145.863 L2206.03 145.863 L2206.03 145.446 Q2206.03 142.507 2204.08 140.909 Q2202.16 139.289 2198.66 139.289 Q2196.44 139.289 2194.34 139.821 Q2192.23 140.354 2190.29 141.419 L2190.29 137.483 Q2192.62 136.581 2194.82 136.141 Q2197.02 135.678 2199.1 135.678 Q2204.73 135.678 2207.51 138.594 Q2210.29 141.511 2210.29 147.437 Z" fill="#000000" fill-rule="nonzero" fill-opacity="1" /><path clip-path="url(#clip870)" d="M2223.27 128.942 L2223.27 136.303 L2232.04 136.303 L2232.04 139.613 L2223.27 139.613 L2223.27 153.687 Q2223.27 156.858 2224.13 157.761 Q2225.01 158.664 2227.67 158.664 L2232.04 158.664 L2232.04 162.229 L2227.67 162.229 Q2222.74 162.229 2220.86 160.4 Q2218.99 158.548 2218.99 153.687 L2218.99 139.613 L2215.86 139.613 L2215.86 136.303 L2218.99 136.303 L2218.99 128.942 L2223.27 128.942 Z" fill="#000000" fill-rule="nonzero" fill-opacity="1" /><path clip-path="url(#clip870)" d="M2249.43 149.196 Q2244.27 149.196 2242.28 150.377 Q2240.28 151.557 2240.28 154.405 Q2240.28 156.673 2241.77 158.016 Q2243.27 159.335 2245.84 159.335 Q2249.38 159.335 2251.51 156.835 Q2253.66 154.312 2253.66 150.145 L2253.66 149.196 L2249.43 149.196 M2257.92 147.437 L2257.92 162.229 L2253.66 162.229 L2253.66 158.293 Q2252.21 160.655 2250.03 161.789 Q2247.85 162.9 2244.71 162.9 Q2240.72 162.9 2238.36 160.678 Q2236.03 158.432 2236.03 154.682 Q2236.03 150.307 2238.94 148.085 Q2241.88 145.863 2247.69 145.863 L2253.66 145.863 L2253.66 145.446 Q2253.66 142.507 2251.72 140.909 Q2249.8 139.289 2246.3 139.289 Q2244.08 139.289 2241.97 139.821 Q2239.87 140.354 2237.92 141.419 L2237.92 137.483 Q2240.26 136.581 2242.46 136.141 Q2244.66 135.678 2246.74 135.678 Q2252.37 135.678 2255.15 138.594 Q2257.92 141.511 2257.92 147.437 Z" fill="#000000" fill-rule="nonzero" fill-opacity="1" /></svg>
