<?xml version="1.0" encoding="utf-8"?>
<svg xmlns="http://www.w3.org/2000/svg" xmlns:xlink="http://www.w3.org/1999/xlink" width="600" height="400" viewBox="0 0 2400 1600">
<defs>
  <clipPath id="clip330">
    <rect x="0" y="0" width="2400" height="1600"/>
  </clipPath>
</defs>
<path clip-path="url(#clip330)" d="M0 1600 L2400 1600 L2400 0 L0 0  Z" fill="#ffffff" fill-rule="evenodd" fill-opacity="1"/>
<defs>
  <clipPath id="clip331">
    <rect x="480" y="0" width="1681" height="1600"/>
  </clipPath>
</defs>
<path clip-path="url(#clip330)" d="M219.542 1423.18 L2352.76 1423.18 L2352.76 47.2441 L219.542 47.2441  Z" fill="#ffffff" fill-rule="evenodd" fill-opacity="1"/>
<defs>
  <clipPath id="clip332">
    <rect x="219" y="47" width="2134" height="1377"/>
  </clipPath>
</defs>
<polyline clip-path="url(#clip332)" style="stroke:#000000; stroke-linecap:round; stroke-linejoin:round; stroke-width:2; stroke-opacity:0.1; fill:none" points="279.916,1423.18 279.916,47.2441 "/>
<polyline clip-path="url(#clip332)" style="stroke:#000000; stroke-linecap:round; stroke-linejoin:round; stroke-width:2; stroke-opacity:0.1; fill:none" points="783.033,1423.18 783.033,47.2441 "/>
<polyline clip-path="url(#clip332)" style="stroke:#000000; stroke-linecap:round; stroke-linejoin:round; stroke-width:2; stroke-opacity:0.1; fill:none" points="1286.15,1423.18 1286.15,47.2441 "/>
<polyline clip-path="url(#clip332)" style="stroke:#000000; stroke-linecap:round; stroke-linejoin:round; stroke-width:2; stroke-opacity:0.1; fill:none" points="1789.27,1423.18 1789.27,47.2441 "/>
<polyline clip-path="url(#clip332)" style="stroke:#000000; stroke-linecap:round; stroke-linejoin:round; stroke-width:2; stroke-opacity:0.1; fill:none" points="2292.38,1423.18 2292.38,47.2441 "/>
<polyline clip-path="url(#clip330)" style="stroke:#000000; stroke-linecap:round; stroke-linejoin:round; stroke-width:4; stroke-opacity:1; fill:none" points="219.542,1423.18 2352.76,1423.18 "/>
<polyline clip-path="url(#clip330)" style="stroke:#000000; stroke-linecap:round; stroke-linejoin:round; stroke-width:4; stroke-opacity:1; fill:none" points="279.916,1423.18 279.916,1404.28 "/>
<polyline clip-path="url(#clip330)" style="stroke:#000000; stroke-linecap:round; stroke-linejoin:round; stroke-width:4; stroke-opacity:1; fill:none" points="783.033,1423.18 783.033,1404.28 "/>
<polyline clip-path="url(#clip330)" style="stroke:#000000; stroke-linecap:round; stroke-linejoin:round; stroke-width:4; stroke-opacity:1; fill:none" points="1286.15,1423.18 1286.15,1404.28 "/>
<polyline clip-path="url(#clip330)" style="stroke:#000000; stroke-linecap:round; stroke-linejoin:round; stroke-width:4; stroke-opacity:1; fill:none" points="1789.27,1423.18 1789.27,1404.28 "/>
<polyline clip-path="url(#clip330)" style="stroke:#000000; stroke-linecap:round; stroke-linejoin:round; stroke-width:4; stroke-opacity:1; fill:none" points="2292.38,1423.18 2292.38,1404.28 "/>
<path clip-path="url(#clip330)" d="M226.444 1468.75 L256.12 1468.75 L256.12 1472.69 L226.444 1472.69 L226.444 1468.75 Z" fill="#000000" fill-rule="nonzero" fill-opacity="1" /><path clip-path="url(#clip330)" d="M267.023 1481.64 L274.662 1481.64 L274.662 1455.28 L266.351 1456.95 L266.351 1452.69 L274.615 1451.02 L279.291 1451.02 L279.291 1481.64 L286.93 1481.64 L286.93 1485.58 L267.023 1485.58 L267.023 1481.64 Z" fill="#000000" fill-rule="nonzero" fill-opacity="1" /><path clip-path="url(#clip330)" d="M296.374 1479.7 L301.259 1479.7 L301.259 1485.58 L296.374 1485.58 L296.374 1479.7 Z" fill="#000000" fill-rule="nonzero" fill-opacity="1" /><path clip-path="url(#clip330)" d="M321.444 1454.1 Q317.833 1454.1 316.004 1457.66 Q314.198 1461.2 314.198 1468.33 Q314.198 1475.44 316.004 1479.01 Q317.833 1482.55 321.444 1482.55 Q325.078 1482.55 326.884 1479.01 Q328.712 1475.44 328.712 1468.33 Q328.712 1461.2 326.884 1457.66 Q325.078 1454.1 321.444 1454.1 M321.444 1450.39 Q327.254 1450.39 330.309 1455 Q333.388 1459.58 333.388 1468.33 Q333.388 1477.06 330.309 1481.67 Q327.254 1486.25 321.444 1486.25 Q315.634 1486.25 312.555 1481.67 Q309.499 1477.06 309.499 1468.33 Q309.499 1459.58 312.555 1455 Q315.634 1450.39 321.444 1450.39 Z" fill="#000000" fill-rule="nonzero" fill-opacity="1" /><path clip-path="url(#clip330)" d="M730.058 1468.75 L759.734 1468.75 L759.734 1472.69 L730.058 1472.69 L730.058 1468.75 Z" fill="#000000" fill-rule="nonzero" fill-opacity="1" /><path clip-path="url(#clip330)" d="M779.827 1454.1 Q776.216 1454.1 774.387 1457.66 Q772.581 1461.2 772.581 1468.33 Q772.581 1475.44 774.387 1479.01 Q776.216 1482.55 779.827 1482.55 Q783.461 1482.55 785.266 1479.01 Q787.095 1475.44 787.095 1468.33 Q787.095 1461.2 785.266 1457.66 Q783.461 1454.1 779.827 1454.1 M779.827 1450.39 Q785.637 1450.39 788.692 1455 Q791.771 1459.58 791.771 1468.33 Q791.771 1477.06 788.692 1481.67 Q785.637 1486.25 779.827 1486.25 Q774.016 1486.25 770.938 1481.67 Q767.882 1477.06 767.882 1468.33 Q767.882 1459.58 770.938 1455 Q774.016 1450.39 779.827 1450.39 Z" fill="#000000" fill-rule="nonzero" fill-opacity="1" /><path clip-path="url(#clip330)" d="M799.989 1479.7 L804.873 1479.7 L804.873 1485.58 L799.989 1485.58 L799.989 1479.7 Z" fill="#000000" fill-rule="nonzero" fill-opacity="1" /><path clip-path="url(#clip330)" d="M815.104 1451.02 L833.461 1451.02 L833.461 1454.96 L819.387 1454.96 L819.387 1463.43 Q820.405 1463.08 821.424 1462.92 Q822.442 1462.73 823.461 1462.73 Q829.248 1462.73 832.627 1465.9 Q836.007 1469.08 836.007 1474.49 Q836.007 1480.07 832.535 1483.17 Q829.062 1486.25 822.743 1486.25 Q820.567 1486.25 818.299 1485.88 Q816.053 1485.51 813.646 1484.77 L813.646 1480.07 Q815.729 1481.2 817.951 1481.76 Q820.174 1482.32 822.65 1482.32 Q826.655 1482.32 828.993 1480.21 Q831.331 1478.1 831.331 1474.49 Q831.331 1470.88 828.993 1468.77 Q826.655 1466.67 822.65 1466.67 Q820.775 1466.67 818.9 1467.08 Q817.049 1467.5 815.104 1468.38 L815.104 1451.02 Z" fill="#000000" fill-rule="nonzero" fill-opacity="1" /><path clip-path="url(#clip330)" d="M1263.53 1454.1 Q1259.92 1454.1 1258.09 1457.66 Q1256.29 1461.2 1256.29 1468.33 Q1256.29 1475.44 1258.09 1479.01 Q1259.92 1482.55 1263.53 1482.55 Q1267.17 1482.55 1268.97 1479.01 Q1270.8 1475.44 1270.8 1468.33 Q1270.8 1461.2 1268.97 1457.66 Q1267.17 1454.1 1263.53 1454.1 M1263.53 1450.39 Q1269.34 1450.39 1272.4 1455 Q1275.48 1459.58 1275.48 1468.33 Q1275.48 1477.06 1272.4 1481.67 Q1269.34 1486.25 1263.53 1486.25 Q1257.72 1486.25 1254.64 1481.67 Q1251.59 1477.06 1251.59 1468.33 Q1251.59 1459.58 1254.64 1455 Q1257.72 1450.39 1263.53 1450.39 Z" fill="#000000" fill-rule="nonzero" fill-opacity="1" /><path clip-path="url(#clip330)" d="M1283.7 1479.7 L1288.58 1479.7 L1288.58 1485.58 L1283.7 1485.58 L1283.7 1479.7 Z" fill="#000000" fill-rule="nonzero" fill-opacity="1" /><path clip-path="url(#clip330)" d="M1308.76 1454.1 Q1305.15 1454.1 1303.32 1457.66 Q1301.52 1461.2 1301.52 1468.33 Q1301.52 1475.44 1303.32 1479.01 Q1305.15 1482.55 1308.76 1482.55 Q1312.4 1482.55 1314.2 1479.01 Q1316.03 1475.44 1316.03 1468.33 Q1316.03 1461.2 1314.2 1457.66 Q1312.4 1454.1 1308.76 1454.1 M1308.76 1450.39 Q1314.57 1450.39 1317.63 1455 Q1320.71 1459.58 1320.71 1468.33 Q1320.71 1477.06 1317.63 1481.67 Q1314.57 1486.25 1308.76 1486.25 Q1302.95 1486.25 1299.88 1481.67 Q1296.82 1477.06 1296.82 1468.33 Q1296.82 1459.58 1299.88 1455 Q1302.95 1450.39 1308.76 1450.39 Z" fill="#000000" fill-rule="nonzero" fill-opacity="1" /><path clip-path="url(#clip330)" d="M1767.15 1454.1 Q1763.54 1454.1 1761.71 1457.66 Q1759.9 1461.2 1759.9 1468.33 Q1759.9 1475.44 1761.71 1479.01 Q1763.54 1482.55 1767.15 1482.55 Q1770.78 1482.55 1772.59 1479.01 Q1774.42 1475.44 1774.42 1468.33 Q1774.42 1461.2 1772.59 1457.66 Q1770.78 1454.1 1767.15 1454.1 M1767.15 1450.39 Q1772.96 1450.39 1776.01 1455 Q1779.09 1459.58 1779.09 1468.33 Q1779.09 1477.06 1776.01 1481.67 Q1772.96 1486.25 1767.15 1486.25 Q1761.34 1486.25 1758.26 1481.67 Q1755.2 1477.06 1755.2 1468.33 Q1755.2 1459.58 1758.26 1455 Q1761.34 1450.39 1767.15 1450.39 Z" fill="#000000" fill-rule="nonzero" fill-opacity="1" /><path clip-path="url(#clip330)" d="M1787.31 1479.7 L1792.19 1479.7 L1792.19 1485.58 L1787.31 1485.58 L1787.31 1479.7 Z" fill="#000000" fill-rule="nonzero" fill-opacity="1" /><path clip-path="url(#clip330)" d="M1802.43 1451.02 L1820.78 1451.02 L1820.78 1454.96 L1806.71 1454.96 L1806.71 1463.43 Q1807.73 1463.08 1808.74 1462.92 Q1809.76 1462.73 1810.78 1462.73 Q1816.57 1462.73 1819.95 1465.9 Q1823.33 1469.08 1823.33 1474.49 Q1823.33 1480.07 1819.86 1483.17 Q1816.38 1486.25 1810.06 1486.25 Q1807.89 1486.25 1805.62 1485.88 Q1803.37 1485.51 1800.97 1484.77 L1800.97 1480.07 Q1803.05 1481.2 1805.27 1481.76 Q1807.49 1482.32 1809.97 1482.32 Q1813.98 1482.32 1816.31 1480.21 Q1818.65 1478.1 1818.65 1474.49 Q1818.65 1470.88 1816.31 1468.77 Q1813.98 1466.67 1809.97 1466.67 Q1808.1 1466.67 1806.22 1467.08 Q1804.37 1467.5 1802.43 1468.38 L1802.43 1451.02 Z" fill="#000000" fill-rule="nonzero" fill-opacity="1" /><path clip-path="url(#clip330)" d="M2259.53 1481.64 L2267.17 1481.64 L2267.17 1455.28 L2258.86 1456.95 L2258.86 1452.69 L2267.13 1451.02 L2271.8 1451.02 L2271.8 1481.64 L2279.44 1481.64 L2279.44 1485.58 L2259.53 1485.58 L2259.53 1481.64 Z" fill="#000000" fill-rule="nonzero" fill-opacity="1" /><path clip-path="url(#clip330)" d="M2288.89 1479.7 L2293.77 1479.7 L2293.77 1485.58 L2288.89 1485.58 L2288.89 1479.7 Z" fill="#000000" fill-rule="nonzero" fill-opacity="1" /><path clip-path="url(#clip330)" d="M2313.96 1454.1 Q2310.34 1454.1 2308.52 1457.66 Q2306.71 1461.2 2306.71 1468.33 Q2306.71 1475.44 2308.52 1479.01 Q2310.34 1482.55 2313.96 1482.55 Q2317.59 1482.55 2319.4 1479.01 Q2321.22 1475.44 2321.22 1468.33 Q2321.22 1461.2 2319.4 1457.66 Q2317.59 1454.1 2313.96 1454.1 M2313.96 1450.39 Q2319.77 1450.39 2322.82 1455 Q2325.9 1459.58 2325.9 1468.33 Q2325.9 1477.06 2322.82 1481.67 Q2319.77 1486.25 2313.96 1486.25 Q2308.15 1486.25 2305.07 1481.67 Q2302.01 1477.06 2302.01 1468.33 Q2302.01 1459.58 2305.07 1455 Q2308.15 1450.39 2313.96 1450.39 Z" fill="#000000" fill-rule="nonzero" fill-opacity="1" /><path clip-path="url(#clip330)" d="M1302.76 1532.4 L1289.87 1549.74 L1303.43 1568.04 L1296.53 1568.04 L1286.15 1554.04 L1275.77 1568.04 L1268.87 1568.04 L1282.71 1549.39 L1270.04 1532.4 L1276.95 1532.4 L1286.4 1545.1 L1295.86 1532.4 L1302.76 1532.4 Z" fill="#000000" fill-rule="nonzero" fill-opacity="1" /><polyline clip-path="url(#clip332)" style="stroke:#000000; stroke-linecap:round; stroke-linejoin:round; stroke-width:2; stroke-opacity:0.1; fill:none" points="219.542,1261.31 2352.76,1261.31 "/>
<polyline clip-path="url(#clip332)" style="stroke:#000000; stroke-linecap:round; stroke-linejoin:round; stroke-width:2; stroke-opacity:0.1; fill:none" points="219.542,1018.49 2352.76,1018.49 "/>
<polyline clip-path="url(#clip332)" style="stroke:#000000; stroke-linecap:round; stroke-linejoin:round; stroke-width:2; stroke-opacity:0.1; fill:none" points="219.542,775.681 2352.76,775.681 "/>
<polyline clip-path="url(#clip332)" style="stroke:#000000; stroke-linecap:round; stroke-linejoin:round; stroke-width:2; stroke-opacity:0.1; fill:none" points="219.542,532.868 2352.76,532.868 "/>
<polyline clip-path="url(#clip332)" style="stroke:#000000; stroke-linecap:round; stroke-linejoin:round; stroke-width:2; stroke-opacity:0.1; fill:none" points="219.542,290.056 2352.76,290.056 "/>
<polyline clip-path="url(#clip330)" style="stroke:#000000; stroke-linecap:round; stroke-linejoin:round; stroke-width:4; stroke-opacity:1; fill:none" points="219.542,1423.18 219.542,47.2441 "/>
<polyline clip-path="url(#clip330)" style="stroke:#000000; stroke-linecap:round; stroke-linejoin:round; stroke-width:4; stroke-opacity:1; fill:none" points="219.542,1261.31 238.44,1261.31 "/>
<polyline clip-path="url(#clip330)" style="stroke:#000000; stroke-linecap:round; stroke-linejoin:round; stroke-width:4; stroke-opacity:1; fill:none" points="219.542,1018.49 238.44,1018.49 "/>
<polyline clip-path="url(#clip330)" style="stroke:#000000; stroke-linecap:round; stroke-linejoin:round; stroke-width:4; stroke-opacity:1; fill:none" points="219.542,775.681 238.44,775.681 "/>
<polyline clip-path="url(#clip330)" style="stroke:#000000; stroke-linecap:round; stroke-linejoin:round; stroke-width:4; stroke-opacity:1; fill:none" points="219.542,532.868 238.44,532.868 "/>
<polyline clip-path="url(#clip330)" style="stroke:#000000; stroke-linecap:round; stroke-linejoin:round; stroke-width:4; stroke-opacity:1; fill:none" points="219.542,290.056 238.44,290.056 "/>
<path clip-path="url(#clip330)" d="M126.367 1247.1 Q122.755 1247.1 120.927 1250.67 Q119.121 1254.21 119.121 1261.34 Q119.121 1268.45 120.927 1272.01 Q122.755 1275.55 126.367 1275.55 Q130.001 1275.55 131.806 1272.01 Q133.635 1268.45 133.635 1261.34 Q133.635 1254.21 131.806 1250.67 Q130.001 1247.1 126.367 1247.1 M126.367 1243.4 Q132.177 1243.4 135.232 1248.01 Q138.311 1252.59 138.311 1261.34 Q138.311 1270.07 135.232 1274.67 Q132.177 1279.26 126.367 1279.26 Q120.556 1279.26 117.478 1274.67 Q114.422 1270.07 114.422 1261.34 Q114.422 1252.59 117.478 1248.01 Q120.556 1243.4 126.367 1243.4 Z" fill="#000000" fill-rule="nonzero" fill-opacity="1" /><path clip-path="url(#clip330)" d="M146.529 1272.71 L151.413 1272.71 L151.413 1278.59 L146.529 1278.59 L146.529 1272.71 Z" fill="#000000" fill-rule="nonzero" fill-opacity="1" /><path clip-path="url(#clip330)" d="M171.598 1247.1 Q167.987 1247.1 166.158 1250.67 Q164.352 1254.21 164.352 1261.34 Q164.352 1268.45 166.158 1272.01 Q167.987 1275.55 171.598 1275.55 Q175.232 1275.55 177.038 1272.01 Q178.866 1268.45 178.866 1261.34 Q178.866 1254.21 177.038 1250.67 Q175.232 1247.1 171.598 1247.1 M171.598 1243.4 Q177.408 1243.4 180.464 1248.01 Q183.542 1252.59 183.542 1261.34 Q183.542 1270.07 180.464 1274.67 Q177.408 1279.26 171.598 1279.26 Q165.788 1279.26 162.709 1274.67 Q159.653 1270.07 159.653 1261.34 Q159.653 1252.59 162.709 1248.01 Q165.788 1243.4 171.598 1243.4 Z" fill="#000000" fill-rule="nonzero" fill-opacity="1" /><path clip-path="url(#clip330)" d="M127.015 1004.29 Q123.404 1004.29 121.575 1007.86 Q119.769 1011.4 119.769 1018.53 Q119.769 1025.63 121.575 1029.2 Q123.404 1032.74 127.015 1032.74 Q130.649 1032.74 132.455 1029.2 Q134.283 1025.63 134.283 1018.53 Q134.283 1011.4 132.455 1007.86 Q130.649 1004.29 127.015 1004.29 M127.015 1000.59 Q132.825 1000.59 135.88 1005.19 Q138.959 1009.78 138.959 1018.53 Q138.959 1027.25 135.88 1031.86 Q132.825 1036.44 127.015 1036.44 Q121.205 1036.44 118.126 1031.86 Q115.07 1027.25 115.07 1018.53 Q115.07 1009.78 118.126 1005.19 Q121.205 1000.59 127.015 1000.59 Z" fill="#000000" fill-rule="nonzero" fill-opacity="1" /><path clip-path="url(#clip330)" d="M147.177 1029.89 L152.061 1029.89 L152.061 1035.77 L147.177 1035.77 L147.177 1029.89 Z" fill="#000000" fill-rule="nonzero" fill-opacity="1" /><path clip-path="url(#clip330)" d="M176.413 1017.14 Q179.769 1017.86 181.644 1020.12 Q183.542 1022.39 183.542 1025.73 Q183.542 1030.84 180.024 1033.64 Q176.505 1036.44 170.024 1036.44 Q167.848 1036.44 165.533 1036 Q163.241 1035.59 160.788 1034.73 L160.788 1030.22 Q162.732 1031.35 165.047 1031.93 Q167.362 1032.51 169.885 1032.51 Q174.283 1032.51 176.575 1030.77 Q178.889 1029.04 178.889 1025.73 Q178.889 1022.67 176.737 1020.96 Q174.607 1019.22 170.788 1019.22 L166.76 1019.22 L166.76 1015.38 L170.973 1015.38 Q174.422 1015.38 176.251 1014.01 Q178.079 1012.62 178.079 1010.03 Q178.079 1007.37 176.181 1005.96 Q174.306 1004.52 170.788 1004.52 Q168.866 1004.52 166.667 1004.94 Q164.468 1005.36 161.829 1006.24 L161.829 1002.07 Q164.491 1001.33 166.806 1000.96 Q169.144 1000.59 171.204 1000.59 Q176.528 1000.59 179.63 1003.02 Q182.732 1005.43 182.732 1009.55 Q182.732 1012.42 181.089 1014.41 Q179.445 1016.37 176.413 1017.14 Z" fill="#000000" fill-rule="nonzero" fill-opacity="1" /><path clip-path="url(#clip330)" d="M126.205 761.479 Q122.593 761.479 120.765 765.044 Q118.959 768.586 118.959 775.715 Q118.959 782.822 120.765 786.387 Q122.593 789.928 126.205 789.928 Q129.839 789.928 131.644 786.387 Q133.473 782.822 133.473 775.715 Q133.473 768.586 131.644 765.044 Q129.839 761.479 126.205 761.479 M126.205 757.776 Q132.015 757.776 135.07 762.382 Q138.149 766.965 138.149 775.715 Q138.149 784.442 135.07 789.049 Q132.015 793.632 126.205 793.632 Q120.394 793.632 117.316 789.049 Q114.26 784.442 114.26 775.715 Q114.26 766.965 117.316 762.382 Q120.394 757.776 126.205 757.776 Z" fill="#000000" fill-rule="nonzero" fill-opacity="1" /><path clip-path="url(#clip330)" d="M146.366 787.081 L151.251 787.081 L151.251 792.961 L146.366 792.961 L146.366 787.081 Z" fill="#000000" fill-rule="nonzero" fill-opacity="1" /><path clip-path="url(#clip330)" d="M172.014 773.817 Q168.866 773.817 167.015 775.97 Q165.186 778.123 165.186 781.873 Q165.186 785.6 167.015 787.776 Q168.866 789.928 172.014 789.928 Q175.163 789.928 176.991 787.776 Q178.843 785.6 178.843 781.873 Q178.843 778.123 176.991 775.97 Q175.163 773.817 172.014 773.817 M181.297 759.165 L181.297 763.424 Q179.538 762.59 177.732 762.151 Q175.95 761.711 174.19 761.711 Q169.561 761.711 167.107 764.836 Q164.677 767.961 164.329 774.28 Q165.695 772.266 167.755 771.202 Q169.815 770.114 172.292 770.114 Q177.501 770.114 180.51 773.285 Q183.542 776.433 183.542 781.873 Q183.542 787.197 180.394 790.414 Q177.246 793.632 172.014 793.632 Q166.019 793.632 162.848 789.049 Q159.677 784.442 159.677 775.715 Q159.677 767.521 163.565 762.66 Q167.454 757.776 174.005 757.776 Q175.764 757.776 177.547 758.123 Q179.352 758.47 181.297 759.165 Z" fill="#000000" fill-rule="nonzero" fill-opacity="1" /><path clip-path="url(#clip330)" d="M126.552 518.667 Q122.941 518.667 121.112 522.232 Q119.306 525.774 119.306 532.903 Q119.306 540.01 121.112 543.574 Q122.941 547.116 126.552 547.116 Q130.186 547.116 131.992 543.574 Q133.82 540.01 133.82 532.903 Q133.82 525.774 131.992 522.232 Q130.186 518.667 126.552 518.667 M126.552 514.963 Q132.362 514.963 135.417 519.57 Q138.496 524.153 138.496 532.903 Q138.496 541.63 135.417 546.236 Q132.362 550.82 126.552 550.82 Q120.742 550.82 117.663 546.236 Q114.607 541.63 114.607 532.903 Q114.607 524.153 117.663 519.57 Q120.742 514.963 126.552 514.963 Z" fill="#000000" fill-rule="nonzero" fill-opacity="1" /><path clip-path="url(#clip330)" d="M146.714 544.269 L151.598 544.269 L151.598 550.148 L146.714 550.148 L146.714 544.269 Z" fill="#000000" fill-rule="nonzero" fill-opacity="1" /><path clip-path="url(#clip330)" d="M161.922 549.431 L161.922 545.172 Q163.681 546.005 165.487 546.445 Q167.292 546.885 169.028 546.885 Q173.658 546.885 176.089 543.783 Q178.542 540.658 178.889 534.315 Q177.547 536.306 175.487 537.371 Q173.427 538.436 170.927 538.436 Q165.741 538.436 162.709 535.311 Q159.7 532.162 159.7 526.723 Q159.7 521.399 162.848 518.181 Q165.996 514.963 171.227 514.963 Q177.223 514.963 180.371 519.57 Q183.542 524.153 183.542 532.903 Q183.542 541.074 179.653 545.959 Q175.788 550.82 169.237 550.82 Q167.477 550.82 165.672 550.473 Q163.866 550.125 161.922 549.431 M171.227 534.778 Q174.376 534.778 176.204 532.625 Q178.056 530.473 178.056 526.723 Q178.056 522.996 176.204 520.843 Q174.376 518.667 171.227 518.667 Q168.079 518.667 166.227 520.843 Q164.399 522.996 164.399 526.723 Q164.399 530.473 166.227 532.625 Q168.079 534.778 171.227 534.778 Z" fill="#000000" fill-rule="nonzero" fill-opacity="1" /><path clip-path="url(#clip330)" d="M118.774 303.401 L126.413 303.401 L126.413 277.036 L118.103 278.702 L118.103 274.443 L126.367 272.776 L131.042 272.776 L131.042 303.401 L138.681 303.401 L138.681 307.336 L118.774 307.336 L118.774 303.401 Z" fill="#000000" fill-rule="nonzero" fill-opacity="1" /><path clip-path="url(#clip330)" d="M148.126 301.457 L153.01 301.457 L153.01 307.336 L148.126 307.336 L148.126 301.457 Z" fill="#000000" fill-rule="nonzero" fill-opacity="1" /><path clip-path="url(#clip330)" d="M167.223 303.401 L183.542 303.401 L183.542 307.336 L161.598 307.336 L161.598 303.401 Q164.26 300.647 168.843 296.017 Q173.45 291.364 174.63 290.022 Q176.876 287.498 177.755 285.762 Q178.658 284.003 178.658 282.313 Q178.658 279.559 176.714 277.823 Q174.792 276.086 171.69 276.086 Q169.491 276.086 167.038 276.85 Q164.607 277.614 161.829 279.165 L161.829 274.443 Q164.653 273.309 167.107 272.73 Q169.561 272.151 171.598 272.151 Q176.968 272.151 180.163 274.836 Q183.357 277.522 183.357 282.012 Q183.357 284.142 182.547 286.063 Q181.76 287.961 179.653 290.554 Q179.075 291.225 175.973 294.443 Q172.871 297.637 167.223 303.401 Z" fill="#000000" fill-rule="nonzero" fill-opacity="1" /><path clip-path="url(#clip330)" d="M67.3143 733.525 Q73.68 736.008 75.6216 738.363 Q77.5631 740.718 77.5631 744.665 L77.5631 749.344 L72.6615 749.344 L72.6615 745.906 Q72.6615 743.487 71.5157 742.151 Q70.3699 740.814 66.1048 739.191 L63.4312 738.14 L28.3562 752.559 L28.3562 746.352 L56.238 735.212 L28.3562 724.072 L28.3562 717.865 L67.3143 733.525 Z" fill="#000000" fill-rule="nonzero" fill-opacity="1" /><circle clip-path="url(#clip332)" cx="279.916" cy="1230.18" r="14.4" fill="#009af9" fill-rule="evenodd" fill-opacity="1" stroke="#000000" stroke-opacity="1" stroke-width="3.2"/>
<circle clip-path="url(#clip332)" cx="346.998" cy="1225.77" r="14.4" fill="#009af9" fill-rule="evenodd" fill-opacity="1" stroke="#000000" stroke-opacity="1" stroke-width="3.2"/>
<circle clip-path="url(#clip332)" cx="414.081" cy="1220.38" r="14.4" fill="#009af9" fill-rule="evenodd" fill-opacity="1" stroke="#000000" stroke-opacity="1" stroke-width="3.2"/>
<circle clip-path="url(#clip332)" cx="481.163" cy="1213.69" r="14.4" fill="#009af9" fill-rule="evenodd" fill-opacity="1" stroke="#000000" stroke-opacity="1" stroke-width="3.2"/>
<circle clip-path="url(#clip332)" cx="548.245" cy="1205.27" r="14.4" fill="#009af9" fill-rule="evenodd" fill-opacity="1" stroke="#000000" stroke-opacity="1" stroke-width="3.2"/>
<circle clip-path="url(#clip332)" cx="615.327" cy="1194.48" r="14.4" fill="#009af9" fill-rule="evenodd" fill-opacity="1" stroke="#000000" stroke-opacity="1" stroke-width="3.2"/>
<circle clip-path="url(#clip332)" cx="682.409" cy="1180.37" r="14.4" fill="#009af9" fill-rule="evenodd" fill-opacity="1" stroke="#000000" stroke-opacity="1" stroke-width="3.2"/>
<circle clip-path="url(#clip332)" cx="749.492" cy="1161.52" r="14.4" fill="#009af9" fill-rule="evenodd" fill-opacity="1" stroke="#000000" stroke-opacity="1" stroke-width="3.2"/>
<circle clip-path="url(#clip332)" cx="816.574" cy="1135.71" r="14.4" fill="#009af9" fill-rule="evenodd" fill-opacity="1" stroke="#000000" stroke-opacity="1" stroke-width="3.2"/>
<circle clip-path="url(#clip332)" cx="883.656" cy="1099.43" r="14.4" fill="#009af9" fill-rule="evenodd" fill-opacity="1" stroke="#000000" stroke-opacity="1" stroke-width="3.2"/>
<circle clip-path="url(#clip332)" cx="950.738" cy="1047.06" r="14.4" fill="#009af9" fill-rule="evenodd" fill-opacity="1" stroke="#000000" stroke-opacity="1" stroke-width="3.2"/>
<circle clip-path="url(#clip332)" cx="1017.82" cy="969.93" r="14.4" fill="#009af9" fill-rule="evenodd" fill-opacity="1" stroke="#000000" stroke-opacity="1" stroke-width="3.2"/>
<circle clip-path="url(#clip332)" cx="1084.9" cy="856.618" r="14.4" fill="#009af9" fill-rule="evenodd" fill-opacity="1" stroke="#000000" stroke-opacity="1" stroke-width="3.2"/>
<circle clip-path="url(#clip332)" cx="1151.98" cy="700.969" r="14.4" fill="#009af9" fill-rule="evenodd" fill-opacity="1" stroke="#000000" stroke-opacity="1" stroke-width="3.2"/>
<circle clip-path="url(#clip332)" cx="1219.07" cy="532.868" r="14.4" fill="#009af9" fill-rule="evenodd" fill-opacity="1" stroke="#000000" stroke-opacity="1" stroke-width="3.2"/>
<circle clip-path="url(#clip332)" cx="1286.15" cy="451.931" r="14.4" fill="#009af9" fill-rule="evenodd" fill-opacity="1" stroke="#000000" stroke-opacity="1" stroke-width="3.2"/>
<circle clip-path="url(#clip332)" cx="1353.23" cy="532.868" r="14.4" fill="#009af9" fill-rule="evenodd" fill-opacity="1" stroke="#000000" stroke-opacity="1" stroke-width="3.2"/>
<circle clip-path="url(#clip332)" cx="1420.31" cy="700.969" r="14.4" fill="#009af9" fill-rule="evenodd" fill-opacity="1" stroke="#000000" stroke-opacity="1" stroke-width="3.2"/>
<circle clip-path="url(#clip332)" cx="1487.4" cy="856.618" r="14.4" fill="#009af9" fill-rule="evenodd" fill-opacity="1" stroke="#000000" stroke-opacity="1" stroke-width="3.2"/>
<circle clip-path="url(#clip332)" cx="1554.48" cy="969.93" r="14.4" fill="#009af9" fill-rule="evenodd" fill-opacity="1" stroke="#000000" stroke-opacity="1" stroke-width="3.2"/>
<circle clip-path="url(#clip332)" cx="1621.56" cy="1047.06" r="14.4" fill="#009af9" fill-rule="evenodd" fill-opacity="1" stroke="#000000" stroke-opacity="1" stroke-width="3.2"/>
<circle clip-path="url(#clip332)" cx="1688.64" cy="1099.43" r="14.4" fill="#009af9" fill-rule="evenodd" fill-opacity="1" stroke="#000000" stroke-opacity="1" stroke-width="3.2"/>
<circle clip-path="url(#clip332)" cx="1755.72" cy="1135.71" r="14.4" fill="#009af9" fill-rule="evenodd" fill-opacity="1" stroke="#000000" stroke-opacity="1" stroke-width="3.2"/>
<circle clip-path="url(#clip332)" cx="1822.81" cy="1161.52" r="14.4" fill="#009af9" fill-rule="evenodd" fill-opacity="1" stroke="#000000" stroke-opacity="1" stroke-width="3.2"/>
<circle clip-path="url(#clip332)" cx="1889.89" cy="1180.37" r="14.4" fill="#009af9" fill-rule="evenodd" fill-opacity="1" stroke="#000000" stroke-opacity="1" stroke-width="3.2"/>
<circle clip-path="url(#clip332)" cx="1956.97" cy="1194.48" r="14.4" fill="#009af9" fill-rule="evenodd" fill-opacity="1" stroke="#000000" stroke-opacity="1" stroke-width="3.2"/>
<circle clip-path="url(#clip332)" cx="2024.05" cy="1205.27" r="14.4" fill="#009af9" fill-rule="evenodd" fill-opacity="1" stroke="#000000" stroke-opacity="1" stroke-width="3.2"/>
<circle clip-path="url(#clip332)" cx="2091.14" cy="1213.69" r="14.4" fill="#009af9" fill-rule="evenodd" fill-opacity="1" stroke="#000000" stroke-opacity="1" stroke-width="3.2"/>
<circle clip-path="url(#clip332)" cx="2158.22" cy="1220.38" r="14.4" fill="#009af9" fill-rule="evenodd" fill-opacity="1" stroke="#000000" stroke-opacity="1" stroke-width="3.2"/>
<circle clip-path="url(#clip332)" cx="2225.3" cy="1225.77" r="14.4" fill="#009af9" fill-rule="evenodd" fill-opacity="1" stroke="#000000" stroke-opacity="1" stroke-width="3.2"/>
<circle clip-path="url(#clip332)" cx="2292.38" cy="1230.18" r="14.4" fill="#009af9" fill-rule="evenodd" fill-opacity="1" stroke="#000000" stroke-opacity="1" stroke-width="3.2"/>
<polyline clip-path="url(#clip332)" style="stroke:#e26f46; stroke-linecap:round; stroke-linejoin:round; stroke-width:8; stroke-opacity:1; fill:none" points="279.916,1230.18 281.931,1230.06 283.945,1229.93 285.96,1229.81 287.974,1229.69 289.989,1229.57 292.003,1229.44 294.018,1229.32 296.032,1229.19 298.046,1229.07 300.061,1228.94 302.075,1228.81 304.09,1228.69 306.104,1228.56 308.119,1228.43 310.133,1228.3 312.148,1228.17 314.162,1228.03 316.177,1227.9 318.191,1227.77 320.206,1227.63 322.22,1227.5 324.235,1227.36 326.249,1227.23 328.264,1227.09 330.278,1226.95 332.293,1226.81 334.307,1226.67 336.322,1226.53 338.336,1226.39 340.351,1226.25 342.365,1226.1 344.38,1225.96 346.394,1225.82 348.408,1225.67 350.423,1225.52 352.437,1225.37 354.452,1225.23 356.466,1225.08 358.481,1224.93 360.495,1224.77 362.51,1224.62 364.524,1224.47 366.539,1224.31 368.553,1224.16 370.568,1224 372.582,1223.85 374.597,1223.69 376.611,1223.53 378.626,1223.37 380.64,1223.21 382.655,1223.05 384.669,1222.88 386.684,1222.72 388.698,1222.56 390.713,1222.39 392.727,1222.22 394.742,1222.05 396.756,1221.88 398.771,1221.71 400.785,1221.54 402.799,1221.37 404.814,1221.2 406.828,1221.02 408.843,1220.84 410.857,1220.67 412.872,1220.49 414.886,1220.31 416.901,1220.13 418.915,1219.95 420.93,1219.76 422.944,1219.58 424.959,1219.39 426.973,1219.21 428.988,1219.02 431.002,1218.83 433.017,1218.64 435.031,1218.45 437.046,1218.25 439.06,1218.06 441.075,1217.86 443.089,1217.67 445.104,1217.47 447.118,1217.27 449.133,1217.07 451.147,1216.86 453.161,1216.66 455.176,1216.46 457.19,1216.25 459.205,1216.04 461.219,1215.83 463.234,1215.62 465.248,1215.41 467.263,1215.2 469.277,1214.98 471.292,1214.77 473.306,1214.55 475.321,1214.33 477.335,1214.11 479.35,1213.89 481.364,1213.67 483.379,1213.44 485.393,1213.22 487.408,1212.99 489.422,1212.76 491.437,1212.53 493.451,1212.3 495.466,1212.06 497.48,1211.83 499.495,1211.59 501.509,1211.35 503.523,1211.11 505.538,1210.87 507.552,1210.62 509.567,1210.38 511.581,1210.13 513.596,1209.88 515.61,1209.63 517.625,1209.37 519.639,1209.12 521.654,1208.86 523.668,1208.6 525.683,1208.34 527.697,1208.08 529.712,1207.81 531.726,1207.54 533.741,1207.27 535.755,1207 537.77,1206.73 539.784,1206.45 541.799,1206.18 543.813,1205.9 545.828,1205.61 547.842,1205.33 549.857,1205.04 551.871,1204.76 553.885,1204.47 555.9,1204.17 557.914,1203.88 559.929,1203.58 561.943,1203.28 563.958,1202.98 565.972,1202.68 567.987,1202.37 570.001,1202.06 572.016,1201.75 574.03,1201.44 576.045,1201.12 578.059,1200.8 580.074,1200.48 582.088,1200.16 584.103,1199.84 586.117,1199.51 588.132,1199.18 590.146,1198.85 592.161,1198.51 594.175,1198.17 596.19,1197.84 598.204,1197.49 600.219,1197.15 602.233,1196.8 604.247,1196.45 606.262,1196.1 608.276,1195.74 610.291,1195.39 612.305,1195.02 614.32,1194.66 616.334,1194.29 618.349,1193.93 620.363,1193.55 622.378,1193.18 624.392,1192.8 626.407,1192.42 628.421,1192.04 630.436,1191.65 632.45,1191.26 634.465,1190.87 636.479,1190.47 638.494,1190.07 640.508,1189.67 642.523,1189.26 644.537,1188.85 646.552,1188.44 648.566,1188.02 650.581,1187.6 652.595,1187.18 654.609,1186.75 656.624,1186.32 658.638,1185.88 660.653,1185.44 662.667,1185 664.682,1184.55 666.696,1184.1 668.711,1183.65 670.725,1183.19 672.74,1182.72 674.754,1182.26 676.769,1181.78 678.783,1181.31 680.798,1180.83 682.812,1180.34 684.827,1179.85 686.841,1179.36 688.856,1178.86 690.87,1178.36 692.885,1177.85 694.899,1177.34 696.914,1176.82 698.928,1176.3 700.943,1175.77 702.957,1175.24 704.971,1174.7 706.986,1174.16 709,1173.61 711.015,1173.06 713.029,1172.5 715.044,1171.94 717.058,1171.37 719.073,1170.8 721.087,1170.22 723.102,1169.64 725.116,1169.05 727.131,1168.46 729.145,1167.86 731.16,1167.25 733.174,1166.64 735.189,1166.02 737.203,1165.4 739.218,1164.77 741.232,1164.14 743.247,1163.5 745.261,1162.86 747.276,1162.21 749.29,1161.55 751.305,1160.89 753.319,1160.22 755.334,1159.55 757.348,1158.86 759.362,1158.18 761.377,1157.48 763.391,1156.79 765.406,1156.08 767.42,1155.37 769.435,1154.65 771.449,1153.92 773.464,1153.19 775.478,1152.45 777.493,1151.71 779.507,1150.95 781.522,1150.2 783.536,1149.43 785.551,1148.66 787.565,1147.87 789.58,1147.09 791.594,1146.29 793.609,1145.49 795.623,1144.68 797.638,1143.86 799.652,1143.03 801.667,1142.19 803.681,1141.35 805.696,1140.5 807.71,1139.64 809.724,1138.77 811.739,1137.89 813.753,1137 815.768,1136.11 817.782,1135.2 819.797,1134.29 821.811,1133.36 823.826,1132.43 825.84,1131.49 827.855,1130.53 829.869,1129.57 831.884,1128.59 833.898,1127.61 835.913,1126.61 837.927,1125.61 839.942,1124.59 841.956,1123.56 843.971,1122.52 845.985,1121.47 848,1120.4 850.014,1119.33 852.029,1118.24 854.043,1117.14 856.058,1116.02 858.072,1114.9 860.086,1113.76 862.101,1112.61 864.115,1111.44 866.13,1110.26 868.144,1109.07 870.159,1107.86 872.173,1106.64 874.188,1105.41 876.202,1104.16 878.217,1102.9 880.231,1101.62 882.246,1100.33 884.26,1099.02 886.275,1097.7 888.289,1096.36 890.304,1095 892.318,1093.63 894.333,1092.25 896.347,1090.85 898.362,1089.43 900.376,1087.99 902.391,1086.54 904.405,1085.08 906.42,1083.59 908.434,1082.09 910.448,1080.57 912.463,1079.04 914.477,1077.49 916.492,1075.92 918.506,1074.33 920.521,1072.72 922.535,1071.1 924.55,1069.46 926.564,1067.8 928.579,1066.12 930.593,1064.42 932.608,1062.7 934.622,1060.97 936.637,1059.21 938.651,1057.44 940.666,1055.65 942.68,1053.83 944.695,1052 946.709,1050.15 948.724,1048.28 950.738,1046.38 952.753,1044.47 954.767,1042.53 956.782,1040.58 958.796,1038.6 960.81,1036.6 962.825,1034.58 964.839,1032.54 966.854,1030.47 968.868,1028.38 970.883,1026.27 972.897,1024.14 974.912,1021.98 976.926,1019.8 978.941,1017.6 980.955,1015.37 982.97,1013.12 984.984,1010.84 986.999,1008.53 989.013,1006.2 991.028,1003.85 993.042,1001.46 995.057,999.053 997.071,996.616 999.086,994.152 1001.1,991.659 1003.11,989.138 1005.13,986.588 1007.14,984.008 1009.16,981.398 1011.17,978.758 1013.19,976.088 1015.2,973.385 1017.22,970.652 1019.23,967.885 1021.24,965.087 1023.26,962.254 1025.27,959.389 1027.29,956.488 1029.3,953.554 1031.32,950.584 1033.33,947.578 1035.35,944.536 1037.36,941.457 1039.38,938.341 1041.39,935.188 1043.4,931.996 1045.42,928.765 1047.43,925.496 1049.45,922.187 1051.46,918.838 1053.48,915.449 1055.49,912.018 1057.51,908.547 1059.52,905.034 1061.53,901.479 1063.55,897.882 1065.56,894.243 1067.58,890.56 1069.59,886.835 1071.61,883.066 1073.62,879.253 1075.64,875.397 1077.65,871.497 1079.66,867.553 1081.68,863.565 1083.69,859.533 1085.71,855.457 1087.72,851.337 1089.74,847.173 1091.75,842.965 1093.77,838.713 1095.78,834.419 1097.8,830.081 1099.81,825.7 1101.82,821.277 1103.84,816.812 1105.85,812.306 1107.87,807.758 1109.88,803.17 1111.9,798.543 1113.91,793.876 1115.93,789.172 1117.94,784.43 1119.95,779.651 1121.97,774.838 1123.98,769.989 1126,765.107 1128.01,760.193 1130.03,755.249 1132.04,750.274 1134.06,745.271 1136.07,740.241 1138.08,735.186 1140.1,730.106 1142.11,725.005 1144.13,719.883 1146.14,714.742 1148.16,709.584 1150.17,704.411 1152.19,699.225 1154.2,694.028 1156.22,688.822 1158.23,683.609 1160.24,678.391 1162.26,673.17 1164.27,667.95 1166.29,662.732 1168.3,657.518 1170.32,652.312 1172.33,647.116 1174.35,641.931 1176.36,636.762 1178.37,631.611 1180.39,626.479 1182.4,621.371 1184.42,616.289 1186.43,611.236 1188.45,606.214 1190.46,601.228 1192.48,596.278 1194.49,591.369 1196.5,586.504 1198.52,581.685 1200.53,576.916 1202.55,572.2 1204.56,567.539 1206.58,562.936 1208.59,558.396 1210.61,553.92 1212.62,549.513 1214.64,545.176 1216.65,540.913 1218.66,536.727 1220.68,532.621 1222.69,528.598 1224.71,524.661 1226.72,520.813 1228.74,517.057 1230.75,513.395 1232.77,509.831 1234.78,506.366 1236.79,503.005 1238.81,499.749 1240.82,496.601 1242.84,493.564 1244.85,490.64 1246.87,487.832 1248.88,485.141 1250.9,482.571 1252.91,480.123 1254.92,477.8 1256.94,475.603 1258.95,473.534 1260.97,471.596 1262.98,469.79 1265,468.118 1267.01,466.581 1269.03,465.18 1271.04,463.918 1273.05,462.795 1275.07,461.813 1277.08,460.972 1279.1,460.273 1281.11,459.718 1283.13,459.307 1285.14,459.04 1287.16,458.918 1289.17,458.942 1291.19,459.11 1293.2,459.425 1295.21,459.885 1297.23,460.491 1299.24,461.241 1301.26,462.137 1303.27,463.176 1305.29,464.359 1307.3,465.685 1309.32,467.153 1311.33,468.762 1313.34,470.511 1315.36,472.398 1317.37,474.422 1319.39,476.583 1321.4,478.877 1323.42,481.303 1325.43,483.86 1327.45,486.546 1329.46,489.359 1331.47,492.296 1333.49,495.355 1335.5,498.534 1337.52,501.831 1339.53,505.242 1341.55,508.766 1343.56,512.4 1345.58,516.14 1347.59,519.985 1349.61,523.931 1351.62,527.975 1353.63,532.114 1355.65,536.345 1357.66,540.664 1359.68,545.069 1361.69,549.557 1363.71,554.123 1365.72,558.765 1367.74,563.479 1369.75,568.262 1371.76,573.11 1373.78,578.019 1375.79,582.987 1377.81,588.01 1379.82,593.084 1381.84,598.205 1383.85,603.371 1385.87,608.577 1387.88,613.82 1389.89,619.097 1391.91,624.404 1393.92,629.738 1395.94,635.095 1397.95,640.471 1399.97,645.865 1401.98,651.271 1404,656.687 1406.01,662.111 1408.03,667.537 1410.04,672.964 1412.05,678.389 1414.07,683.808 1416.08,689.218 1418.1,694.617 1420.11,700.002 1422.13,705.37 1424.14,710.719 1426.16,716.046 1428.17,721.349 1430.18,726.625 1432.2,731.872 1434.21,737.087 1436.23,742.27 1438.24,747.417 1440.26,752.528 1442.27,757.599 1444.29,762.63 1446.3,767.619 1448.31,772.564 1450.33,777.464 1452.34,782.318 1454.36,787.124 1456.37,791.882 1458.39,796.59 1460.4,801.248 1462.42,805.854 1464.43,810.409 1466.45,814.911 1468.46,819.36 1470.47,823.756 1472.49,828.098 1474.5,832.386 1476.52,836.62 1478.53,840.8 1480.55,844.926 1482.56,848.998 1484.58,853.016 1486.59,856.981 1488.6,860.893 1490.62,864.752 1492.63,868.559 1494.65,872.315 1496.66,876.019 1498.68,879.673 1500.69,883.278 1502.71,886.834 1504.72,890.342 1506.73,893.803 1508.75,897.217 1510.76,900.587 1512.78,903.912 1514.79,907.195 1516.81,910.435 1518.82,913.634 1520.84,916.794 1522.85,919.914 1524.86,922.997 1526.88,926.043 1528.89,929.054 1530.91,932.03 1532.92,934.973 1534.94,937.884 1536.95,940.764 1538.97,943.614 1540.98,946.436 1543,949.229 1545.01,951.996 1547.02,954.737 1549.04,957.453 1551.05,960.146 1553.07,962.815 1555.08,965.463 1557.1,968.089 1559.11,970.695 1561.13,973.282 1563.14,975.85 1565.15,978.399 1567.17,980.931 1569.18,983.446 1571.2,985.944 1573.21,988.427 1575.23,990.894 1577.24,993.346 1579.26,995.784 1581.27,998.206 1583.28,1000.62 1585.3,1003.01 1587.31,1005.39 1589.33,1007.76 1591.34,1010.11 1593.36,1012.45 1595.37,1014.78 1597.39,1017.09 1599.4,1019.39 1601.42,1021.67 1603.43,1023.94 1605.44,1026.19 1607.46,1028.43 1609.47,1030.66 1611.49,1032.87 1613.5,1035.06 1615.52,1037.24 1617.53,1039.4 1619.55,1041.54 1621.56,1043.67 1623.57,1045.78 1625.59,1047.86 1627.6,1049.93 1629.62,1051.98 1631.63,1054.01 1633.65,1056.02 1635.66,1058.01 1637.68,1059.98 1639.69,1061.92 1641.7,1063.84 1643.72,1065.74 1645.73,1067.61 1647.75,1069.46 1649.76,1071.29 1651.78,1073.09 1653.79,1074.86 1655.81,1076.61 1657.82,1078.33 1659.84,1080.03 1661.85,1081.7 1663.86,1083.34 1665.88,1084.96 1667.89,1086.54 1669.91,1088.1 1671.92,1089.64 1673.94,1091.14 1675.95,1092.62 1677.97,1094.07 1679.98,1095.49 1681.99,1096.89 1684.01,1098.26 1686.02,1099.6 1688.04,1100.92 1690.05,1102.21 1692.07,1103.47 1694.08,1104.71 1696.1,1105.92 1698.11,1107.11 1700.12,1108.28 1702.14,1109.42 1704.15,1110.54 1706.17,1111.64 1708.18,1112.72 1710.2,1113.78 1712.21,1114.82 1714.23,1115.83 1716.24,1116.84 1718.26,1117.82 1720.27,1118.79 1722.28,1119.74 1724.3,1120.68 1726.31,1121.6 1728.33,1122.52 1730.34,1123.42 1732.36,1124.31 1734.37,1125.19 1736.39,1126.06 1738.4,1126.93 1740.41,1127.78 1742.43,1128.64 1744.44,1129.48 1746.46,1130.32 1748.47,1131.16 1750.49,1132 1752.5,1132.84 1754.52,1133.67 1756.53,1134.51 1758.54,1135.34 1760.56,1136.18 1762.57,1137.01 1764.59,1137.85 1766.6,1138.7 1768.62,1139.54 1770.63,1140.39 1772.65,1141.24 1774.66,1142.1 1776.67,1142.96 1778.69,1143.83 1780.7,1144.7 1782.72,1145.58 1784.73,1146.46 1786.75,1147.35 1788.76,1148.24 1790.78,1149.13 1792.79,1150.03 1794.81,1150.93 1796.82,1151.84 1798.83,1152.75 1800.85,1153.66 1802.86,1154.58 1804.88,1155.49 1806.89,1156.41 1808.91,1157.32 1810.92,1158.24 1812.94,1159.15 1814.95,1160.06 1816.96,1160.97 1818.98,1161.88 1820.99,1162.78 1823.01,1163.67 1825.02,1164.56 1827.04,1165.44 1829.05,1166.31 1831.07,1167.17 1833.08,1168.02 1835.09,1168.86 1837.11,1169.69 1839.12,1170.51 1841.14,1171.31 1843.15,1172.09 1845.17,1172.86 1847.18,1173.62 1849.2,1174.35 1851.21,1175.07 1853.23,1175.77 1855.24,1176.45 1857.25,1177.11 1859.27,1177.75 1861.28,1178.37 1863.3,1178.97 1865.31,1179.54 1867.33,1180.1 1869.34,1180.63 1871.36,1181.14 1873.37,1181.63 1875.38,1182.1 1877.4,1182.54 1879.41,1182.97 1881.43,1183.37 1883.44,1183.75 1885.46,1184.12 1887.47,1184.46 1889.49,1184.78 1891.5,1185.09 1893.51,1185.38 1895.53,1185.65 1897.54,1185.91 1899.56,1186.15 1901.57,1186.38 1903.59,1186.6 1905.6,1186.81 1907.62,1187 1909.63,1187.19 1911.65,1187.37 1913.66,1187.55 1915.67,1187.72 1917.69,1187.89 1919.7,1188.05 1921.72,1188.22 1923.73,1188.39 1925.75,1188.56 1927.76,1188.73 1929.78,1188.91 1931.79,1189.1 1933.8,1189.29 1935.82,1189.49 1937.83,1189.7 1939.85,1189.93 1941.86,1190.16 1943.88,1190.41 1945.89,1190.68 1947.91,1190.95 1949.92,1191.25 1951.93,1191.56 1953.95,1191.88 1955.96,1192.22 1957.98,1192.58 1959.99,1192.96 1962.01,1193.35 1964.02,1193.75 1966.04,1194.18 1968.05,1194.62 1970.07,1195.07 1972.08,1195.54 1974.09,1196.02 1976.11,1196.51 1978.12,1197.01 1980.14,1197.52 1982.15,1198.05 1984.17,1198.57 1986.18,1199.11 1988.2,1199.64 1990.21,1200.18 1992.22,1200.72 1994.24,1201.25 1996.25,1201.79 1998.27,1202.31 2000.28,1202.83 2002.3,1203.34 2004.31,1203.83 2006.33,1204.31 2008.34,1204.78 2010.35,1205.23 2012.37,1205.65 2014.38,1206.06 2016.4,1206.44 2018.41,1206.79 2020.43,1207.12 2022.44,1207.43 2024.46,1207.7 2026.47,1207.94 2028.49,1208.15 2030.5,1208.33 2032.51,1208.48 2034.53,1208.59 2036.54,1208.67 2038.56,1208.72 2040.57,1208.74 2042.59,1208.72 2044.6,1208.68 2046.62,1208.61 2048.63,1208.51 2050.64,1208.38 2052.66,1208.23 2054.67,1208.06 2056.69,1207.88 2058.7,1207.67 2060.72,1207.45 2062.73,1207.22 2064.75,1206.99 2066.76,1206.75 2068.77,1206.51 2070.79,1206.28 2072.8,1206.06 2074.82,1205.84 2076.83,1205.65 2078.85,1205.47 2080.86,1205.32 2082.88,1205.19 2084.89,1205.1 2086.9,1205.04 2088.92,1205.02 2090.93,1205.04 2092.95,1205.11 2094.96,1205.22 2096.98,1205.39 2098.99,1205.6 2101.01,1205.87 2103.02,1206.19 2105.04,1206.57 2107.05,1207 2109.06,1207.48 2111.08,1208.02 2113.09,1208.61 2115.11,1209.25 2117.12,1209.94 2119.14,1210.67 2121.15,1211.43 2123.17,1212.23 2125.18,1213.07 2127.19,1213.92 2129.21,1214.79 2131.22,1215.67 2133.24,1216.56 2135.25,1217.44 2137.27,1218.31 2139.28,1219.16 2141.3,1219.98 2143.31,1220.77 2145.32,1221.51 2147.34,1222.2 2149.35,1222.83 2151.37,1223.39 2153.38,1223.88 2155.4,1224.29 2157.41,1224.61 2159.43,1224.85 2161.44,1224.99 2163.46,1225.04 2165.47,1224.99 2167.48,1224.85 2169.5,1224.62 2171.51,1224.3 2173.53,1223.91 2175.54,1223.43 2177.56,1222.9 2179.57,1222.31 2181.59,1221.69 2183.6,1221.04 2185.61,1220.39 2187.63,1219.75 2189.64,1219.15 2191.66,1218.61 2193.67,1218.15 2195.69,1217.8 2197.7,1217.58 2199.72,1217.52 2201.73,1217.64 2203.74,1217.96 2205.76,1218.52 2207.77,1219.32 2209.79,1220.39 2211.8,1221.74 2213.82,1223.39 2215.83,1225.33 2217.85,1227.56 2219.86,1230.08 2221.88,1232.87 2223.89,1235.9 2225.9,1239.14 2227.92,1242.55 2229.93,1246.06 2231.95,1249.61 2233.96,1253.12 2235.98,1256.49 2237.99,1259.63 2240.01,1262.4 2242.02,1264.7 2244.03,1266.38 2246.05,1267.29 2248.06,1267.3 2250.08,1266.25 2252.09,1264.01 2254.11,1260.44 2256.12,1255.44 2258.14,1248.91 2260.15,1240.81 2262.16,1231.16 2264.18,1220.01 2266.19,1207.54 2268.21,1194 2270.22,1179.8 2272.24,1165.5 2274.25,1151.83 2276.27,1139.79 2278.28,1130.64 2280.3,1125.96 2282.31,1127.71 2284.32,1138.31 2286.34,1160.67 2288.35,1198.34 2290.37,1255.52 2292.38,1337.24 "/>
<polyline clip-path="url(#clip332)" style="stroke:#3da44d; stroke-linecap:round; stroke-linejoin:round; stroke-width:8; stroke-opacity:1; fill:none" stroke-dasharray="32, 20" points="279.916,1230.18 281.931,-579975 283.945,-1.02935e+06 285.96,-1.36713e+06 287.974,-1.61106e+06 289.989,-1.7766e+06 292.003,-1.87723e+06 294.018,-1.92463e+06 296.032,-1.92891e+06 298.046,-1.89876e+06 300.061,-1.84163e+06 302.075,-1.76389e+06 304.09,-1.67091e+06 306.104,-1.56723e+06 308.119,-1.45666e+06 310.133,-1.34233e+06 312.148,-1.22684e+06 314.162,-1.11226e+06 316.177,-1.00028e+06 318.191,-892191 320.206,-788989 322.22,-691401 324.235,-599931 326.249,-514895 328.264,-436453 330.278,-364634 332.293,-299363 334.307,-240482 336.322,-187765 338.336,-140938 340.351,-99686.7 342.365,-63673.5 344.38,-32542.9 346.394,-5931.24 348.408,16527.1 350.423,35194 352.437,50423.5 354.452,62558.1 356.466,71926.3 358.481,78840.1 360.495,83594.1 362.51,86464.1 364.524,87706.6 366.539,87558.9 368.553,86238.7 370.568,83945 372.582,80858 374.597,77140.1 376.611,72936.7 378.626,68376.9 380.64,63574.6 382.655,58629.3 384.669,53627.2 386.684,48642.1 388.698,43736.6 390.713,38962.7 392.727,34363.1 394.742,29972.1 396.756,25816.1 398.771,21914.7 400.785,18281.6 402.799,14925.1 404.814,11848.9 406.828,9052.71 408.843,6532.81 410.857,4282.64 412.872,2293.27 414.886,553.846 416.901,-947.992 418.915,-2225.77 420.93,-3293.85 422.944,-4167.12 424.959,-4860.8 426.973,-5390.14 428.988,-5770.32 431.002,-6016.24 433.017,-6142.37 435.031,-6162.7 437.046,-6090.59 439.06,-5938.73 441.075,-5719.07 443.089,-5442.81 445.104,-5120.35 447.118,-4761.26 449.133,-4374.34 451.147,-3967.57 453.161,-3548.15 455.176,-3122.51 457.19,-2696.35 459.205,-2274.67 461.219,-1861.78 463.234,-1461.37 465.248,-1076.54 467.263,-709.837 469.277,-363.281 471.292,-38.4373 473.306,263.563 475.321,541.978 477.335,796.412 479.35,1026.78 481.364,1233.28 483.379,1416.33 485.393,1576.58 487.408,1714.83 489.422,1832.03 491.437,1929.25 493.451,2007.67 495.466,2068.52 497.48,2113.07 499.495,2142.64 501.509,2158.56 503.523,2162.15 505.538,2154.7 507.552,2137.51 509.567,2111.8 511.581,2078.77 513.596,2039.57 515.61,1995.26 517.625,1946.87 519.639,1895.35 521.654,1841.57 523.668,1786.35 525.683,1730.41 527.697,1674.44 529.712,1619.02 531.726,1564.69 533.741,1511.89 535.755,1461.05 537.77,1412.48 539.784,1366.46 541.799,1323.23 543.813,1282.95 545.828,1245.75 547.842,1211.7 549.857,1180.85 551.871,1153.2 553.885,1128.72 555.9,1107.35 557.914,1089.01 559.929,1073.6 561.943,1060.98 563.958,1051.01 565.972,1043.55 567.987,1038.43 570.001,1035.47 572.016,1034.5 574.03,1035.34 576.045,1037.81 578.059,1041.72 580.074,1046.91 582.088,1053.2 584.103,1060.42 586.117,1068.41 588.132,1077.01 590.146,1086.08 592.161,1095.49 594.175,1105.1 596.19,1114.79 598.204,1124.47 600.219,1134.02 602.233,1143.37 604.247,1152.42 606.262,1161.12 608.276,1169.4 610.291,1177.22 612.305,1184.53 614.32,1191.3 616.334,1197.51 618.349,1203.13 620.363,1208.16 622.378,1212.59 624.392,1216.43 626.407,1219.69 628.421,1222.37 630.436,1224.49 632.45,1226.08 634.465,1227.16 636.479,1227.75 638.494,1227.89 640.508,1227.61 642.523,1226.93 644.537,1225.89 646.552,1224.54 648.566,1222.89 650.581,1220.99 652.595,1218.86 654.609,1216.55 656.624,1214.09 658.638,1211.5 660.653,1208.81 662.667,1206.06 664.682,1203.28 666.696,1200.47 668.711,1197.68 670.725,1194.92 672.74,1192.21 674.754,1189.56 676.769,1187 678.783,1184.53 680.798,1182.17 682.812,1179.93 684.827,1177.81 686.841,1175.82 688.856,1173.97 690.87,1172.26 692.885,1170.69 694.899,1169.25 696.914,1167.95 698.928,1166.79 700.943,1165.75 702.957,1164.85 704.971,1164.06 706.986,1163.39 709,1162.82 711.015,1162.36 713.029,1161.98 715.044,1161.69 717.058,1161.48 719.073,1161.33 721.087,1161.24 723.102,1161.19 725.116,1161.19 727.131,1161.22 729.145,1161.27 731.16,1161.34 733.174,1161.41 735.189,1161.49 737.203,1161.56 739.218,1161.62 741.232,1161.66 743.247,1161.67 745.261,1161.66 747.276,1161.61 749.29,1161.53 751.305,1161.41 753.319,1161.24 755.334,1161.03 757.348,1160.77 759.362,1160.46 761.377,1160.1 763.391,1159.69 765.406,1159.23 767.42,1158.72 769.435,1158.16 771.449,1157.55 773.464,1156.9 775.478,1156.2 777.493,1155.45 779.507,1154.67 781.522,1153.84 783.536,1152.98 785.551,1152.08 787.565,1151.15 789.58,1150.19 791.594,1149.2 793.609,1148.19 795.623,1147.16 797.638,1146.1 799.652,1145.04 801.667,1143.95 803.681,1142.86 805.696,1141.75 807.71,1140.64 809.724,1139.52 811.739,1138.4 813.753,1137.28 815.768,1136.16 817.782,1135.04 819.797,1133.92 821.811,1132.81 823.826,1131.7 825.84,1130.59 827.855,1129.49 829.869,1128.4 831.884,1127.31 833.898,1126.23 835.913,1125.15 837.927,1124.08 839.942,1123.02 841.956,1121.96 843.971,1120.9 845.985,1119.85 848,1118.8 850.014,1117.75 852.029,1116.7 854.043,1115.66 856.058,1114.61 858.072,1113.55 860.086,1112.5 862.101,1111.44 864.115,1110.37 866.13,1109.29 868.144,1108.21 870.159,1107.11 872.173,1106.01 874.188,1104.89 876.202,1103.76 878.217,1102.61 880.231,1101.45 882.246,1100.27 884.26,1099.07 886.275,1097.85 888.289,1096.62 890.304,1095.36 892.318,1094.09 894.333,1092.79 896.347,1091.47 898.362,1090.12 900.376,1088.76 902.391,1087.37 904.405,1085.96 906.42,1084.52 908.434,1083.06 910.448,1081.58 912.463,1080.07 914.477,1078.54 916.492,1076.98 918.506,1075.4 920.521,1073.8 922.535,1072.18 924.55,1070.53 926.564,1068.85 928.579,1067.16 930.593,1065.44 932.608,1063.7 934.622,1061.93 936.637,1060.15 938.651,1058.34 940.666,1056.51 942.68,1054.66 944.695,1052.79 946.709,1050.9 948.724,1048.99 950.738,1047.06 952.753,1045.11 954.767,1043.13 956.782,1041.14 958.796,1039.13 960.81,1037.09 962.825,1035.04 964.839,1032.97 966.854,1030.87 968.868,1028.76 970.883,1026.62 972.897,1024.46 974.912,1022.29 976.926,1020.09 978.941,1017.86 980.955,1015.62 982.97,1013.35 984.984,1011.06 986.999,1008.74 989.013,1006.4 991.028,1004.04 993.042,1001.65 995.057,999.233 997.071,996.79 999.086,994.32 1001.1,991.822 1003.11,989.295 1005.13,986.74 1007.14,984.155 1009.16,981.539 1011.17,978.892 1013.19,976.214 1015.2,973.503 1017.22,970.76 1019.23,967.983 1021.24,965.172 1023.26,962.327 1025.27,959.446 1027.29,956.53 1029.3,953.578 1031.32,950.589 1033.33,947.563 1035.35,944.499 1037.36,941.398 1039.38,938.258 1041.39,935.079 1043.4,931.862 1045.42,928.605 1047.43,925.309 1049.45,921.973 1051.46,918.597 1053.48,915.18 1055.49,911.724 1057.51,908.226 1059.52,904.688 1061.53,901.11 1063.55,897.49 1065.56,893.83 1067.58,890.129 1069.59,886.387 1071.61,882.604 1073.62,878.781 1075.64,874.916 1077.65,871.011 1079.66,867.066 1081.68,863.08 1083.69,859.053 1085.71,854.987 1087.72,850.88 1089.74,846.734 1091.75,842.548 1093.77,838.322 1095.78,834.057 1097.8,829.754 1099.81,825.411 1101.82,821.031 1103.84,816.612 1105.85,812.155 1107.87,807.661 1109.88,803.13 1111.9,798.563 1113.91,793.959 1115.93,789.319 1117.94,784.644 1119.95,779.935 1121.97,775.191 1123.98,770.414 1126,765.603 1128.01,760.761 1130.03,755.887 1132.04,750.982 1134.06,746.047 1136.07,741.083 1138.08,736.091 1140.1,731.072 1142.11,726.027 1144.13,720.957 1146.14,715.863 1148.16,710.747 1150.17,705.61 1152.19,700.453 1154.2,695.278 1156.22,690.086 1158.23,684.88 1160.24,679.66 1162.26,674.429 1164.27,669.189 1166.29,663.942 1168.3,658.689 1170.32,653.434 1172.33,648.178 1174.35,642.923 1176.36,637.673 1178.37,632.43 1180.39,627.197 1182.4,621.975 1184.42,616.769 1186.43,611.581 1188.45,606.415 1190.46,601.272 1192.48,596.157 1194.49,591.073 1196.5,586.023 1198.52,581.01 1200.53,576.039 1202.55,571.112 1204.56,566.234 1206.58,561.407 1208.59,556.636 1210.61,551.924 1212.62,547.276 1214.64,542.694 1216.65,538.183 1218.66,533.746 1220.68,529.389 1222.69,525.113 1224.71,520.923 1226.72,516.824 1228.74,512.818 1230.75,508.91 1232.77,505.103 1234.78,501.401 1236.79,497.808 1238.81,494.327 1240.82,490.962 1242.84,487.716 1244.85,484.592 1246.87,481.594 1248.88,478.725 1250.9,475.988 1252.91,473.386 1254.92,470.922 1256.94,468.598 1258.95,466.417 1260.97,464.381 1262.98,462.493 1265,460.754 1267.01,459.168 1269.03,457.734 1271.04,456.456 1273.05,455.334 1275.07,454.371 1277.08,453.566 1279.1,452.921 1281.11,452.436 1283.13,452.113 1285.14,451.951 1287.16,451.951 1289.17,452.113 1291.19,452.436 1293.2,452.921 1295.21,453.566 1297.23,454.371 1299.24,455.334 1301.26,456.456 1303.27,457.734 1305.29,459.168 1307.3,460.754 1309.32,462.493 1311.33,464.381 1313.34,466.417 1315.36,468.598 1317.37,470.922 1319.39,473.386 1321.4,475.988 1323.42,478.725 1325.43,481.594 1327.45,484.592 1329.46,487.716 1331.47,490.962 1333.49,494.327 1335.5,497.808 1337.52,501.401 1339.53,505.103 1341.55,508.91 1343.56,512.818 1345.58,516.824 1347.59,520.923 1349.61,525.113 1351.62,529.389 1353.63,533.746 1355.65,538.183 1357.66,542.694 1359.68,547.276 1361.69,551.924 1363.71,556.636 1365.72,561.407 1367.74,566.234 1369.75,571.112 1371.76,576.039 1373.78,581.01 1375.79,586.023 1377.81,591.073 1379.82,596.157 1381.84,601.272 1383.85,606.415 1385.87,611.581 1387.88,616.769 1389.89,621.975 1391.91,627.197 1393.92,632.43 1395.94,637.673 1397.95,642.923 1399.97,648.178 1401.98,653.434 1404,658.689 1406.01,663.942 1408.03,669.189 1410.04,674.429 1412.05,679.66 1414.07,684.88 1416.08,690.086 1418.1,695.278 1420.11,700.453 1422.13,705.61 1424.14,710.747 1426.16,715.863 1428.17,720.957 1430.18,726.027 1432.2,731.072 1434.21,736.091 1436.23,741.083 1438.24,746.047 1440.26,750.982 1442.27,755.887 1444.29,760.761 1446.3,765.603 1448.31,770.414 1450.33,775.191 1452.34,779.935 1454.36,784.644 1456.37,789.319 1458.39,793.959 1460.4,798.563 1462.42,803.13 1464.43,807.661 1466.45,812.155 1468.46,816.612 1470.47,821.031 1472.49,825.411 1474.5,829.754 1476.52,834.057 1478.53,838.322 1480.55,842.548 1482.56,846.734 1484.58,850.88 1486.59,854.987 1488.6,859.053 1490.62,863.08 1492.63,867.066 1494.65,871.011 1496.66,874.916 1498.68,878.781 1500.69,882.604 1502.71,886.387 1504.72,890.129 1506.73,893.83 1508.75,897.49 1510.76,901.11 1512.78,904.688 1514.79,908.226 1516.81,911.724 1518.82,915.18 1520.84,918.597 1522.85,921.973 1524.86,925.309 1526.88,928.605 1528.89,931.862 1530.91,935.079 1532.92,938.258 1534.94,941.398 1536.95,944.499 1538.97,947.563 1540.98,950.589 1543,953.578 1545.01,956.53 1547.02,959.446 1549.04,962.327 1551.05,965.172 1553.07,967.983 1555.08,970.76 1557.1,973.503 1559.11,976.214 1561.13,978.892 1563.14,981.539 1565.15,984.155 1567.17,986.74 1569.18,989.295 1571.2,991.822 1573.21,994.32 1575.23,996.79 1577.24,999.233 1579.26,1001.65 1581.27,1004.04 1583.28,1006.4 1585.3,1008.74 1587.31,1011.06 1589.33,1013.35 1591.34,1015.62 1593.36,1017.86 1595.37,1020.09 1597.39,1022.29 1599.4,1024.46 1601.42,1026.62 1603.43,1028.76 1605.44,1030.87 1607.46,1032.97 1609.47,1035.04 1611.49,1037.09 1613.5,1039.13 1615.52,1041.14 1617.53,1043.13 1619.55,1045.11 1621.56,1047.06 1623.57,1048.99 1625.59,1050.9 1627.6,1052.79 1629.62,1054.66 1631.63,1056.51 1633.65,1058.34 1635.66,1060.15 1637.68,1061.93 1639.69,1063.7 1641.7,1065.44 1643.72,1067.16 1645.73,1068.85 1647.75,1070.53 1649.76,1072.18 1651.78,1073.8 1653.79,1075.4 1655.81,1076.98 1657.82,1078.54 1659.84,1080.07 1661.85,1081.58 1663.86,1083.06 1665.88,1084.52 1667.89,1085.96 1669.91,1087.37 1671.92,1088.76 1673.94,1090.12 1675.95,1091.47 1677.97,1092.79 1679.98,1094.09 1681.99,1095.36 1684.01,1096.62 1686.02,1097.85 1688.04,1099.07 1690.05,1100.27 1692.07,1101.45 1694.08,1102.61 1696.1,1103.76 1698.11,1104.89 1700.12,1106.01 1702.14,1107.11 1704.15,1108.21 1706.17,1109.29 1708.18,1110.37 1710.2,1111.44 1712.21,1112.5 1714.23,1113.55 1716.24,1114.61 1718.26,1115.66 1720.27,1116.7 1722.28,1117.75 1724.3,1118.8 1726.31,1119.85 1728.33,1120.9 1730.34,1121.96 1732.36,1123.02 1734.37,1124.08 1736.39,1125.15 1738.4,1126.23 1740.41,1127.31 1742.43,1128.4 1744.44,1129.49 1746.46,1130.59 1748.47,1131.7 1750.49,1132.81 1752.5,1133.92 1754.52,1135.04 1756.53,1136.16 1758.54,1137.28 1760.56,1138.4 1762.57,1139.52 1764.59,1140.64 1766.6,1141.75 1768.62,1142.86 1770.63,1143.95 1772.65,1145.04 1774.66,1146.1 1776.67,1147.16 1778.69,1148.19 1780.7,1149.2 1782.72,1150.19 1784.73,1151.15 1786.75,1152.08 1788.76,1152.98 1790.78,1153.84 1792.79,1154.67 1794.81,1155.45 1796.82,1156.2 1798.83,1156.9 1800.85,1157.55 1802.86,1158.16 1804.88,1158.72 1806.89,1159.23 1808.91,1159.69 1810.92,1160.1 1812.94,1160.46 1814.95,1160.77 1816.96,1161.03 1818.98,1161.24 1820.99,1161.41 1823.01,1161.53 1825.02,1161.61 1827.04,1161.66 1829.05,1161.67 1831.07,1161.66 1833.08,1161.62 1835.09,1161.56 1837.11,1161.49 1839.12,1161.41 1841.14,1161.34 1843.15,1161.27 1845.17,1161.22 1847.18,1161.19 1849.2,1161.19 1851.21,1161.24 1853.23,1161.33 1855.24,1161.48 1857.25,1161.69 1859.27,1161.98 1861.28,1162.36 1863.3,1162.82 1865.31,1163.39 1867.33,1164.06 1869.34,1164.85 1871.36,1165.75 1873.37,1166.79 1875.38,1167.95 1877.4,1169.25 1879.41,1170.69 1881.43,1172.26 1883.44,1173.97 1885.46,1175.82 1887.47,1177.81 1889.49,1179.93 1891.5,1182.17 1893.51,1184.53 1895.53,1187 1897.54,1189.56 1899.56,1192.21 1901.57,1194.92 1903.59,1197.68 1905.6,1200.47 1907.62,1203.28 1909.63,1206.06 1911.65,1208.81 1913.66,1211.5 1915.67,1214.09 1917.69,1216.55 1919.7,1218.86 1921.72,1220.99 1923.73,1222.89 1925.75,1224.54 1927.76,1225.89 1929.78,1226.93 1931.79,1227.61 1933.8,1227.89 1935.82,1227.75 1937.83,1227.16 1939.85,1226.08 1941.86,1224.49 1943.88,1222.37 1945.89,1219.69 1947.91,1216.43 1949.92,1212.59 1951.93,1208.16 1953.95,1203.13 1955.96,1197.51 1957.98,1191.3 1959.99,1184.53 1962.01,1177.22 1964.02,1169.4 1966.04,1161.12 1968.05,1152.42 1970.07,1143.37 1972.08,1134.02 1974.09,1124.47 1976.11,1114.79 1978.12,1105.1 1980.14,1095.49 1982.15,1086.08 1984.17,1077.01 1986.18,1068.41 1988.2,1060.42 1990.21,1053.2 1992.22,1046.91 1994.24,1041.72 1996.25,1037.81 1998.27,1035.34 2000.28,1034.5 2002.3,1035.47 2004.31,1038.43 2006.33,1043.55 2008.34,1051.01 2010.35,1060.98 2012.37,1073.6 2014.38,1089.01 2016.4,1107.35 2018.41,1128.72 2020.43,1153.2 2022.44,1180.85 2024.46,1211.7 2026.47,1245.75 2028.49,1282.95 2030.5,1323.23 2032.51,1366.46 2034.53,1412.48 2036.54,1461.05 2038.56,1511.89 2040.57,1564.69 2042.59,1619.02 2044.6,1674.44 2046.62,1730.41 2048.63,1786.35 2050.64,1841.57 2052.66,1895.35 2054.67,1946.87 2056.69,1995.26 2058.7,2039.57 2060.72,2078.77 2062.73,2111.8 2064.75,2137.51 2066.76,2154.7 2068.77,2162.15 2070.79,2158.56 2072.8,2142.64 2074.82,2113.07 2076.83,2068.52 2078.85,2007.67 2080.86,1929.25 2082.88,1832.03 2084.89,1714.83 2086.9,1576.58 2088.92,1416.33 2090.93,1233.28 2092.95,1026.78 2094.96,796.412 2096.98,541.978 2098.99,263.563 2101.01,-38.4373 2103.02,-363.281 2105.04,-709.837 2107.05,-1076.54 2109.06,-1461.37 2111.08,-1861.78 2113.09,-2274.67 2115.11,-2696.35 2117.12,-3122.51 2119.14,-3548.15 2121.15,-3967.57 2123.17,-4374.34 2125.18,-4761.26 2127.19,-5120.35 2129.21,-5442.81 2131.22,-5719.07 2133.24,-5938.73 2135.25,-6090.59 2137.27,-6162.7 2139.28,-6142.37 2141.3,-6016.24 2143.31,-5770.32 2145.32,-5390.14 2147.34,-4860.8 2149.35,-4167.12 2151.37,-3293.85 2153.38,-2225.77 2155.4,-947.992 2157.41,553.846 2159.43,2293.27 2161.44,4282.64 2163.46,6532.81 2165.47,9052.71 2167.48,11848.9 2169.5,14925.1 2171.51,18281.6 2173.53,21914.7 2175.54,25816.1 2177.56,29972.1 2179.57,34363.1 2181.59,38962.7 2183.6,43736.6 2185.61,48642.1 2187.63,53627.2 2189.64,58629.3 2191.66,63574.6 2193.67,68376.9 2195.69,72936.7 2197.7,77140.1 2199.72,80858 2201.73,83945 2203.74,86238.7 2205.76,87558.9 2207.77,87706.6 2209.79,86464.1 2211.8,83594.1 2213.82,78840.1 2215.83,71926.3 2217.85,62558.1 2219.86,50423.5 2221.88,35194 2223.89,16527.1 2225.9,-5931.24 2227.92,-32542.9 2229.93,-63673.5 2231.95,-99686.7 2233.96,-140938 2235.98,-187765 2237.99,-240482 2240.01,-299363 2242.02,-364634 2244.03,-436453 2246.05,-514895 2248.06,-599931 2250.08,-691401 2252.09,-788989 2254.11,-892191 2256.12,-1.00028e+06 2258.14,-1.11226e+06 2260.15,-1.22684e+06 2262.16,-1.34233e+06 2264.18,-1.45666e+06 2266.19,-1.56723e+06 2268.21,-1.67091e+06 2270.22,-1.76389e+06 2272.24,-1.84163e+06 2274.25,-1.89876e+06 2276.27,-1.92891e+06 2278.28,-1.92463e+06 2280.3,-1.87723e+06 2282.31,-1.7766e+06 2284.32,-1.61106e+06 2286.34,-1.36713e+06 2288.35,-1.02935e+06 2290.37,-579975 2292.38,1230.18 "/>
<path clip-path="url(#clip330)" d="M1547.06 300.469 L2281.65 300.469 L2281.65 93.1086 L1547.06 93.1086  Z" fill="#ffffff" fill-rule="evenodd" fill-opacity="1"/>
<polyline clip-path="url(#clip330)" style="stroke:#000000; stroke-linecap:round; stroke-linejoin:round; stroke-width:4; stroke-opacity:1; fill:none" points="1547.06,300.469 2281.65,300.469 2281.65,93.1086 1547.06,93.1086 1547.06,300.469 "/>
<circle clip-path="url(#clip330)" cx="1641.87" cy="144.949" r="20.48" fill="#009af9" fill-rule="evenodd" fill-opacity="1" stroke="#000000" stroke-opacity="1" stroke-width="4.55111"/>
<path clip-path="url(#clip330)" d="M1744.08 128.942 L1744.08 136.303 L1752.86 136.303 L1752.86 139.613 L1744.08 139.613 L1744.08 153.687 Q1744.08 156.858 1744.94 157.761 Q1745.82 158.664 1748.48 158.664 L1752.86 158.664 L1752.86 162.229 L1748.48 162.229 Q1743.55 162.229 1741.68 160.4 Q1739.8 158.548 1739.8 153.687 L1739.8 139.613 L1736.68 139.613 L1736.68 136.303 L1739.8 136.303 L1739.8 128.942 L1744.08 128.942 Z" fill="#000000" fill-rule="nonzero" fill-opacity="1" /><path clip-path="url(#clip330)" d="M1758.46 136.303 L1762.72 136.303 L1762.72 162.229 L1758.46 162.229 L1758.46 136.303 M1758.46 126.21 L1762.72 126.21 L1762.72 131.604 L1758.46 131.604 L1758.46 126.21 Z" fill="#000000" fill-rule="nonzero" fill-opacity="1" /><path clip-path="url(#clip330)" d="M1775.84 128.942 L1775.84 136.303 L1784.62 136.303 L1784.62 139.613 L1775.84 139.613 L1775.84 153.687 Q1775.84 156.858 1776.7 157.761 Q1777.58 158.664 1780.24 158.664 L1784.62 158.664 L1784.62 162.229 L1780.24 162.229 Q1775.31 162.229 1773.44 160.4 Q1771.56 158.548 1771.56 153.687 L1771.56 139.613 L1768.44 139.613 L1768.44 136.303 L1771.56 136.303 L1771.56 128.942 L1775.84 128.942 Z" fill="#000000" fill-rule="nonzero" fill-opacity="1" /><path clip-path="url(#clip330)" d="M1790.22 136.303 L1794.48 136.303 L1794.48 162.229 L1790.22 162.229 L1790.22 136.303 M1790.22 126.21 L1794.48 126.21 L1794.48 131.604 L1790.22 131.604 L1790.22 126.21 Z" fill="#000000" fill-rule="nonzero" fill-opacity="1" /><path clip-path="url(#clip330)" d="M1803.23 126.21 L1807.51 126.21 L1807.51 147.483 L1820.22 136.303 L1825.66 136.303 L1811.91 148.432 L1826.24 162.229 L1820.68 162.229 L1807.51 149.567 L1807.51 162.229 L1803.23 162.229 L1803.23 126.21 Z" fill="#000000" fill-rule="nonzero" fill-opacity="1" /><path clip-path="url(#clip330)" d="M1862.97 140.238 L1862.97 126.21 L1867.23 126.21 L1867.23 162.229 L1862.97 162.229 L1862.97 158.34 Q1861.63 160.655 1859.57 161.789 Q1857.53 162.9 1854.66 162.9 Q1849.96 162.9 1847 159.15 Q1844.06 155.4 1844.06 149.289 Q1844.06 143.178 1847 139.428 Q1849.96 135.678 1854.66 135.678 Q1857.53 135.678 1859.57 136.812 Q1861.63 137.923 1862.97 140.238 M1848.46 149.289 Q1848.46 153.988 1850.38 156.673 Q1852.32 159.335 1855.7 159.335 Q1859.08 159.335 1861.03 156.673 Q1862.97 153.988 1862.97 149.289 Q1862.97 144.59 1861.03 141.928 Q1859.08 139.243 1855.7 139.243 Q1852.32 139.243 1850.38 141.928 Q1848.46 144.59 1848.46 149.289 Z" fill="#000000" fill-rule="nonzero" fill-opacity="1" /><path clip-path="url(#clip330)" d="M1887.79 149.196 Q1882.62 149.196 1880.63 150.377 Q1878.64 151.557 1878.64 154.405 Q1878.64 156.673 1880.12 158.016 Q1881.63 159.335 1884.2 159.335 Q1887.74 159.335 1889.87 156.835 Q1892.02 154.312 1892.02 150.145 L1892.02 149.196 L1887.79 149.196 M1896.28 147.437 L1896.28 162.229 L1892.02 162.229 L1892.02 158.293 Q1890.56 160.655 1888.39 161.789 Q1886.21 162.9 1883.06 162.9 Q1879.08 162.9 1876.72 160.678 Q1874.38 158.432 1874.38 154.682 Q1874.38 150.307 1877.3 148.085 Q1880.24 145.863 1886.05 145.863 L1892.02 145.863 L1892.02 145.446 Q1892.02 142.507 1890.08 140.909 Q1888.16 139.289 1884.66 139.289 Q1882.44 139.289 1880.33 139.821 Q1878.23 140.354 1876.28 141.419 L1876.28 137.483 Q1878.62 136.581 1880.82 136.141 Q1883.02 135.678 1885.1 135.678 Q1890.73 135.678 1893.5 138.594 Q1896.28 141.511 1896.28 147.437 Z" fill="#000000" fill-rule="nonzero" fill-opacity="1" /><path clip-path="url(#clip330)" d="M1909.27 128.942 L1909.27 136.303 L1918.04 136.303 L1918.04 139.613 L1909.27 139.613 L1909.27 153.687 Q1909.27 156.858 1910.12 157.761 Q1911 158.664 1913.67 158.664 L1918.04 158.664 L1918.04 162.229 L1913.67 162.229 Q1908.74 162.229 1906.86 160.4 Q1904.99 158.548 1904.99 153.687 L1904.99 139.613 L1901.86 139.613 L1901.86 136.303 L1904.99 136.303 L1904.99 128.942 L1909.27 128.942 Z" fill="#000000" fill-rule="nonzero" fill-opacity="1" /><path clip-path="url(#clip330)" d="M1935.42 149.196 Q1930.26 149.196 1928.27 150.377 Q1926.28 151.557 1926.28 154.405 Q1926.28 156.673 1927.76 158.016 Q1929.27 159.335 1931.84 159.335 Q1935.38 159.335 1937.51 156.835 Q1939.66 154.312 1939.66 150.145 L1939.66 149.196 L1935.42 149.196 M1943.92 147.437 L1943.92 162.229 L1939.66 162.229 L1939.66 158.293 Q1938.2 160.655 1936.03 161.789 Q1933.85 162.9 1930.7 162.9 Q1926.72 162.9 1924.36 160.678 Q1922.02 158.432 1922.02 154.682 Q1922.02 150.307 1924.94 148.085 Q1927.88 145.863 1933.69 145.863 L1939.66 145.863 L1939.66 145.446 Q1939.66 142.507 1937.72 140.909 Q1935.8 139.289 1932.3 139.289 Q1930.08 139.289 1927.97 139.821 Q1925.86 140.354 1923.92 141.419 L1923.92 137.483 Q1926.26 136.581 1928.46 136.141 Q1930.66 135.678 1932.74 135.678 Q1938.36 135.678 1941.14 138.594 Q1943.92 141.511 1943.92 147.437 Z" fill="#000000" fill-rule="nonzero" fill-opacity="1" /><polyline clip-path="url(#clip330)" style="stroke:#e26f46; stroke-linecap:round; stroke-linejoin:round; stroke-width:8; stroke-opacity:1; fill:none" points="1570.76,196.789 1712.97,196.789 "/>
<path clip-path="url(#clip330)" d="M1736.68 188.143 L1740.94 188.143 L1740.94 214.069 L1736.68 214.069 L1736.68 188.143 M1736.68 178.05 L1740.94 178.05 L1740.94 183.444 L1736.68 183.444 L1736.68 178.05 Z" fill="#000000" fill-rule="nonzero" fill-opacity="1" /><path clip-path="url(#clip330)" d="M1771.4 198.421 L1771.4 214.069 L1767.14 214.069 L1767.14 198.559 Q1767.14 194.879 1765.7 193.05 Q1764.27 191.222 1761.4 191.222 Q1757.95 191.222 1755.96 193.421 Q1753.97 195.62 1753.97 199.416 L1753.97 214.069 L1749.69 214.069 L1749.69 188.143 L1753.97 188.143 L1753.97 192.171 Q1755.5 189.833 1757.56 188.675 Q1759.64 187.518 1762.35 187.518 Q1766.81 187.518 1769.11 190.296 Q1771.4 193.05 1771.4 198.421 Z" fill="#000000" fill-rule="nonzero" fill-opacity="1" /><path clip-path="url(#clip330)" d="M1784.11 180.782 L1784.11 188.143 L1792.88 188.143 L1792.88 191.453 L1784.11 191.453 L1784.11 205.527 Q1784.11 208.698 1784.96 209.601 Q1785.84 210.504 1788.5 210.504 L1792.88 210.504 L1792.88 214.069 L1788.5 214.069 Q1783.57 214.069 1781.7 212.24 Q1779.82 210.388 1779.82 205.527 L1779.82 191.453 L1776.7 191.453 L1776.7 188.143 L1779.82 188.143 L1779.82 180.782 L1784.11 180.782 Z" fill="#000000" fill-rule="nonzero" fill-opacity="1" /><path clip-path="url(#clip330)" d="M1820.66 200.041 L1820.66 202.124 L1801.07 202.124 Q1801.35 206.522 1803.71 208.837 Q1806.1 211.129 1810.33 211.129 Q1812.79 211.129 1815.08 210.527 Q1817.39 209.925 1819.66 208.721 L1819.66 212.749 Q1817.37 213.721 1814.96 214.231 Q1812.56 214.74 1810.08 214.74 Q1803.87 214.74 1800.24 211.129 Q1796.63 207.518 1796.63 201.36 Q1796.63 194.995 1800.06 191.268 Q1803.5 187.518 1809.34 187.518 Q1814.57 187.518 1817.6 190.897 Q1820.66 194.254 1820.66 200.041 M1816.4 198.791 Q1816.35 195.296 1814.43 193.212 Q1812.53 191.129 1809.38 191.129 Q1805.82 191.129 1803.67 193.143 Q1801.54 195.157 1801.21 198.814 L1816.4 198.791 Z" fill="#000000" fill-rule="nonzero" fill-opacity="1" /><path clip-path="url(#clip330)" d="M1842.67 192.124 Q1841.95 191.708 1841.1 191.522 Q1840.26 191.314 1839.24 191.314 Q1835.63 191.314 1833.69 193.675 Q1831.77 196.013 1831.77 200.411 L1831.77 214.069 L1827.49 214.069 L1827.49 188.143 L1831.77 188.143 L1831.77 192.171 Q1833.11 189.809 1835.26 188.675 Q1837.42 187.518 1840.49 187.518 Q1840.93 187.518 1841.47 187.587 Q1842 187.634 1842.65 187.749 L1842.67 192.124 Z" fill="#000000" fill-rule="nonzero" fill-opacity="1" /><path clip-path="url(#clip330)" d="M1851.26 210.18 L1851.26 223.93 L1846.98 223.93 L1846.98 188.143 L1851.26 188.143 L1851.26 192.078 Q1852.6 189.763 1854.64 188.652 Q1856.7 187.518 1859.55 187.518 Q1864.27 187.518 1867.21 191.268 Q1870.17 195.018 1870.17 201.129 Q1870.17 207.24 1867.21 210.99 Q1864.27 214.74 1859.55 214.74 Q1856.7 214.74 1854.64 213.629 Q1852.6 212.495 1851.26 210.18 M1865.75 201.129 Q1865.75 196.43 1863.81 193.768 Q1861.88 191.083 1858.5 191.083 Q1855.12 191.083 1853.18 193.768 Q1851.26 196.43 1851.26 201.129 Q1851.26 205.828 1853.18 208.513 Q1855.12 211.175 1858.5 211.175 Q1861.88 211.175 1863.81 208.513 Q1865.75 205.828 1865.75 201.129 Z" fill="#000000" fill-rule="nonzero" fill-opacity="1" /><path clip-path="url(#clip330)" d="M1887.28 191.129 Q1883.85 191.129 1881.86 193.814 Q1879.87 196.476 1879.87 201.129 Q1879.87 205.782 1881.84 208.467 Q1883.83 211.129 1887.28 211.129 Q1890.68 211.129 1892.67 208.444 Q1894.66 205.758 1894.66 201.129 Q1894.66 196.522 1892.67 193.837 Q1890.68 191.129 1887.28 191.129 M1887.28 187.518 Q1892.83 187.518 1896 191.129 Q1899.18 194.74 1899.18 201.129 Q1899.18 207.495 1896 211.129 Q1892.83 214.74 1887.28 214.74 Q1881.7 214.74 1878.53 211.129 Q1875.38 207.495 1875.38 201.129 Q1875.38 194.74 1878.53 191.129 Q1881.7 187.518 1887.28 187.518 Z" fill="#000000" fill-rule="nonzero" fill-opacity="1" /><path clip-path="url(#clip330)" d="M1906.24 178.05 L1910.49 178.05 L1910.49 214.069 L1906.24 214.069 L1906.24 178.05 Z" fill="#000000" fill-rule="nonzero" fill-opacity="1" /><path clip-path="url(#clip330)" d="M1931.19 201.036 Q1926.03 201.036 1924.04 202.217 Q1922.05 203.397 1922.05 206.245 Q1922.05 208.513 1923.53 209.856 Q1925.03 211.175 1927.6 211.175 Q1931.14 211.175 1933.27 208.675 Q1935.42 206.152 1935.42 201.985 L1935.42 201.036 L1931.19 201.036 M1939.68 199.277 L1939.68 214.069 L1935.42 214.069 L1935.42 210.133 Q1933.97 212.495 1931.79 213.629 Q1929.61 214.74 1926.47 214.74 Q1922.49 214.74 1920.12 212.518 Q1917.79 210.272 1917.79 206.522 Q1917.79 202.147 1920.7 199.925 Q1923.64 197.703 1929.45 197.703 L1935.42 197.703 L1935.42 197.286 Q1935.42 194.347 1933.48 192.749 Q1931.56 191.129 1928.06 191.129 Q1925.84 191.129 1923.74 191.661 Q1921.63 192.194 1919.68 193.259 L1919.68 189.323 Q1922.02 188.421 1924.22 187.981 Q1926.42 187.518 1928.5 187.518 Q1934.13 187.518 1936.91 190.434 Q1939.68 193.351 1939.68 199.277 Z" fill="#000000" fill-rule="nonzero" fill-opacity="1" /><path clip-path="url(#clip330)" d="M1964.99 188.907 L1964.99 192.934 Q1963.18 192.009 1961.24 191.546 Q1959.29 191.083 1957.21 191.083 Q1954.04 191.083 1952.44 192.055 Q1950.86 193.027 1950.86 194.971 Q1950.86 196.453 1952 197.309 Q1953.13 198.143 1956.56 198.907 L1958.02 199.231 Q1962.55 200.203 1964.45 201.985 Q1966.37 203.745 1966.37 206.916 Q1966.37 210.527 1963.5 212.633 Q1960.66 214.74 1955.66 214.74 Q1953.57 214.74 1951.3 214.323 Q1949.06 213.93 1946.56 213.12 L1946.56 208.721 Q1948.92 209.948 1951.21 210.573 Q1953.5 211.175 1955.75 211.175 Q1958.76 211.175 1960.38 210.157 Q1962 209.115 1962 207.24 Q1962 205.504 1960.82 204.578 Q1959.66 203.652 1955.7 202.796 L1954.22 202.448 Q1950.26 201.615 1948.5 199.902 Q1946.74 198.166 1946.74 195.157 Q1946.74 191.499 1949.34 189.509 Q1951.93 187.518 1956.7 187.518 Q1959.06 187.518 1961.14 187.865 Q1963.23 188.212 1964.99 188.907 Z" fill="#000000" fill-rule="nonzero" fill-opacity="1" /><path clip-path="url(#clip330)" d="M1973.16 188.143 L1977.42 188.143 L1977.42 214.069 L1973.16 214.069 L1973.16 188.143 M1973.16 178.05 L1977.42 178.05 L1977.42 183.444 L1973.16 183.444 L1973.16 178.05 Z" fill="#000000" fill-rule="nonzero" fill-opacity="1" /><path clip-path="url(#clip330)" d="M2027.46 182.171 L2027.46 187.101 Q2025.1 184.902 2022.42 183.814 Q2019.75 182.726 2016.74 182.726 Q2010.82 182.726 2007.67 186.36 Q2004.52 189.972 2004.52 196.823 Q2004.52 203.652 2007.67 207.286 Q2010.82 210.897 2016.74 210.897 Q2019.75 210.897 2022.42 209.809 Q2025.1 208.721 2027.46 206.522 L2027.46 211.407 Q2025.01 213.073 2022.25 213.907 Q2019.52 214.74 2016.47 214.74 Q2008.62 214.74 2004.11 209.948 Q1999.59 205.133 1999.59 196.823 Q1999.59 188.49 2004.11 183.698 Q2008.62 178.884 2016.47 178.884 Q2019.57 178.884 2022.3 179.717 Q2025.05 180.527 2027.46 182.171 Z" fill="#000000" fill-rule="nonzero" fill-opacity="1" /><path clip-path="url(#clip330)" d="M2056.05 198.421 L2056.05 214.069 L2051.79 214.069 L2051.79 198.559 Q2051.79 194.879 2050.35 193.05 Q2048.92 191.222 2046.05 191.222 Q2042.6 191.222 2040.61 193.421 Q2038.62 195.62 2038.62 199.416 L2038.62 214.069 L2034.34 214.069 L2034.34 178.05 L2038.62 178.05 L2038.62 192.171 Q2040.15 189.833 2042.21 188.675 Q2044.29 187.518 2047 187.518 Q2051.47 187.518 2053.76 190.296 Q2056.05 193.05 2056.05 198.421 Z" fill="#000000" fill-rule="nonzero" fill-opacity="1" /><path clip-path="url(#clip330)" d="M2086.72 200.041 L2086.72 202.124 L2067.14 202.124 Q2067.42 206.522 2069.78 208.837 Q2072.16 211.129 2076.4 211.129 Q2078.85 211.129 2081.14 210.527 Q2083.46 209.925 2085.73 208.721 L2085.73 212.749 Q2083.43 213.721 2081.03 214.231 Q2078.62 214.74 2076.14 214.74 Q2069.94 214.74 2066.3 211.129 Q2062.69 207.518 2062.69 201.36 Q2062.69 194.995 2066.12 191.268 Q2069.57 187.518 2075.4 187.518 Q2080.63 187.518 2083.66 190.897 Q2086.72 194.254 2086.72 200.041 M2082.46 198.791 Q2082.41 195.296 2080.49 193.212 Q2078.6 191.129 2075.45 191.129 Q2071.88 191.129 2069.73 193.143 Q2067.6 195.157 2067.28 198.814 L2082.46 198.791 Z" fill="#000000" fill-rule="nonzero" fill-opacity="1" /><path clip-path="url(#clip330)" d="M2112.32 201.129 Q2112.32 196.43 2110.38 193.768 Q2108.46 191.083 2105.08 191.083 Q2101.7 191.083 2099.75 193.768 Q2097.83 196.43 2097.83 201.129 Q2097.83 205.828 2099.75 208.513 Q2101.7 211.175 2105.08 211.175 Q2108.46 211.175 2110.38 208.513 Q2112.32 205.828 2112.32 201.129 M2097.83 192.078 Q2099.17 189.763 2101.21 188.652 Q2103.27 187.518 2106.12 187.518 Q2110.84 187.518 2113.78 191.268 Q2116.74 195.018 2116.74 201.129 Q2116.74 207.24 2113.78 210.99 Q2110.84 214.74 2106.12 214.74 Q2103.27 214.74 2101.21 213.629 Q2099.17 212.495 2097.83 210.18 L2097.83 214.069 L2093.55 214.069 L2093.55 178.05 L2097.83 178.05 L2097.83 192.078 Z" fill="#000000" fill-rule="nonzero" fill-opacity="1" /><path clip-path="url(#clip330)" d="M2134.59 216.476 Q2132.79 221.106 2131.07 222.518 Q2129.36 223.93 2126.49 223.93 L2123.09 223.93 L2123.09 220.365 L2125.59 220.365 Q2127.35 220.365 2128.32 219.532 Q2129.29 218.698 2130.47 215.596 L2131.23 213.652 L2120.75 188.143 L2125.26 188.143 L2133.36 208.421 L2141.47 188.143 L2145.98 188.143 L2134.59 216.476 Z" fill="#000000" fill-rule="nonzero" fill-opacity="1" /><path clip-path="url(#clip330)" d="M2168.39 188.907 L2168.39 192.934 Q2166.58 192.009 2164.64 191.546 Q2162.69 191.083 2160.61 191.083 Q2157.44 191.083 2155.84 192.055 Q2154.27 193.027 2154.27 194.971 Q2154.27 196.453 2155.4 197.309 Q2156.53 198.143 2159.96 198.907 L2161.42 199.231 Q2165.96 200.203 2167.85 201.985 Q2169.78 203.745 2169.78 206.916 Q2169.78 210.527 2166.91 212.633 Q2164.06 214.74 2159.06 214.74 Q2156.97 214.74 2154.71 214.323 Q2152.46 213.93 2149.96 213.12 L2149.96 208.721 Q2152.32 209.948 2154.61 210.573 Q2156.91 211.175 2159.15 211.175 Q2162.16 211.175 2163.78 210.157 Q2165.4 209.115 2165.4 207.24 Q2165.4 205.504 2164.22 204.578 Q2163.06 203.652 2159.1 202.796 L2157.62 202.448 Q2153.66 201.615 2151.91 199.902 Q2150.15 198.166 2150.15 195.157 Q2150.15 191.499 2152.74 189.509 Q2155.33 187.518 2160.1 187.518 Q2162.46 187.518 2164.54 187.865 Q2166.63 188.212 2168.39 188.907 Z" fill="#000000" fill-rule="nonzero" fill-opacity="1" /><path clip-path="url(#clip330)" d="M2198.11 198.421 L2198.11 214.069 L2193.85 214.069 L2193.85 198.559 Q2193.85 194.879 2192.41 193.05 Q2190.98 191.222 2188.11 191.222 Q2184.66 191.222 2182.67 193.421 Q2180.68 195.62 2180.68 199.416 L2180.68 214.069 L2176.4 214.069 L2176.4 178.05 L2180.68 178.05 L2180.68 192.171 Q2182.21 189.833 2184.27 188.675 Q2186.35 187.518 2189.06 187.518 Q2193.53 187.518 2195.82 190.296 Q2198.11 193.05 2198.11 198.421 Z" fill="#000000" fill-rule="nonzero" fill-opacity="1" /><path clip-path="url(#clip330)" d="M2228.78 200.041 L2228.78 202.124 L2209.2 202.124 Q2209.47 206.522 2211.84 208.837 Q2214.22 211.129 2218.46 211.129 Q2220.91 211.129 2223.2 210.527 Q2225.52 209.925 2227.78 208.721 L2227.78 212.749 Q2225.49 213.721 2223.09 214.231 Q2220.68 214.74 2218.2 214.74 Q2212 214.74 2208.36 211.129 Q2204.75 207.518 2204.75 201.36 Q2204.75 194.995 2208.18 191.268 Q2211.63 187.518 2217.46 187.518 Q2222.69 187.518 2225.72 190.897 Q2228.78 194.254 2228.78 200.041 M2224.52 198.791 Q2224.47 195.296 2222.55 193.212 Q2220.65 191.129 2217.51 191.129 Q2213.94 191.129 2211.79 193.143 Q2209.66 195.157 2209.34 198.814 L2224.52 198.791 Z" fill="#000000" fill-rule="nonzero" fill-opacity="1" /><path clip-path="url(#clip330)" d="M2232.72 188.143 L2237.23 188.143 L2245.33 209.902 L2253.43 188.143 L2257.95 188.143 L2248.22 214.069 L2242.44 214.069 L2232.72 188.143 Z" fill="#000000" fill-rule="nonzero" fill-opacity="1" /><polyline clip-path="url(#clip330)" style="stroke:#3da44d; stroke-linecap:round; stroke-linejoin:round; stroke-width:8; stroke-opacity:1; fill:none" stroke-dasharray="32, 20" points="1570.76,248.629 1712.97,248.629 "/>
<path clip-path="url(#clip330)" d="M1736.68 239.983 L1740.94 239.983 L1740.94 265.909 L1736.68 265.909 L1736.68 239.983 M1736.68 229.89 L1740.94 229.89 L1740.94 235.284 L1736.68 235.284 L1736.68 229.89 Z" fill="#000000" fill-rule="nonzero" fill-opacity="1" /><path clip-path="url(#clip330)" d="M1771.4 250.261 L1771.4 265.909 L1767.14 265.909 L1767.14 250.399 Q1767.14 246.719 1765.7 244.89 Q1764.27 243.062 1761.4 243.062 Q1757.95 243.062 1755.96 245.261 Q1753.97 247.46 1753.97 251.256 L1753.97 265.909 L1749.69 265.909 L1749.69 239.983 L1753.97 239.983 L1753.97 244.011 Q1755.5 241.673 1757.56 240.515 Q1759.64 239.358 1762.35 239.358 Q1766.81 239.358 1769.11 242.136 Q1771.4 244.89 1771.4 250.261 Z" fill="#000000" fill-rule="nonzero" fill-opacity="1" /><path clip-path="url(#clip330)" d="M1784.11 232.622 L1784.11 239.983 L1792.88 239.983 L1792.88 243.293 L1784.11 243.293 L1784.11 257.367 Q1784.11 260.538 1784.96 261.441 Q1785.84 262.344 1788.5 262.344 L1792.88 262.344 L1792.88 265.909 L1788.5 265.909 Q1783.57 265.909 1781.7 264.08 Q1779.82 262.228 1779.82 257.367 L1779.82 243.293 L1776.7 243.293 L1776.7 239.983 L1779.82 239.983 L1779.82 232.622 L1784.11 232.622 Z" fill="#000000" fill-rule="nonzero" fill-opacity="1" /><path clip-path="url(#clip330)" d="M1820.66 251.881 L1820.66 253.964 L1801.07 253.964 Q1801.35 258.362 1803.71 260.677 Q1806.1 262.969 1810.33 262.969 Q1812.79 262.969 1815.08 262.367 Q1817.39 261.765 1819.66 260.561 L1819.66 264.589 Q1817.37 265.561 1814.96 266.071 Q1812.56 266.58 1810.08 266.58 Q1803.87 266.58 1800.24 262.969 Q1796.63 259.358 1796.63 253.2 Q1796.63 246.835 1800.06 243.108 Q1803.5 239.358 1809.34 239.358 Q1814.57 239.358 1817.6 242.737 Q1820.66 246.094 1820.66 251.881 M1816.4 250.631 Q1816.35 247.136 1814.43 245.052 Q1812.53 242.969 1809.38 242.969 Q1805.82 242.969 1803.67 244.983 Q1801.54 246.997 1801.21 250.654 L1816.4 250.631 Z" fill="#000000" fill-rule="nonzero" fill-opacity="1" /><path clip-path="url(#clip330)" d="M1842.67 243.964 Q1841.95 243.548 1841.1 243.362 Q1840.26 243.154 1839.24 243.154 Q1835.63 243.154 1833.69 245.515 Q1831.77 247.853 1831.77 252.251 L1831.77 265.909 L1827.49 265.909 L1827.49 239.983 L1831.77 239.983 L1831.77 244.011 Q1833.11 241.649 1835.26 240.515 Q1837.42 239.358 1840.49 239.358 Q1840.93 239.358 1841.47 239.427 Q1842 239.474 1842.65 239.589 L1842.67 243.964 Z" fill="#000000" fill-rule="nonzero" fill-opacity="1" /><path clip-path="url(#clip330)" d="M1851.26 262.02 L1851.26 275.77 L1846.98 275.77 L1846.98 239.983 L1851.26 239.983 L1851.26 243.918 Q1852.6 241.603 1854.64 240.492 Q1856.7 239.358 1859.55 239.358 Q1864.27 239.358 1867.21 243.108 Q1870.17 246.858 1870.17 252.969 Q1870.17 259.08 1867.21 262.83 Q1864.27 266.58 1859.55 266.58 Q1856.7 266.58 1854.64 265.469 Q1852.6 264.335 1851.26 262.02 M1865.75 252.969 Q1865.75 248.27 1863.81 245.608 Q1861.88 242.923 1858.5 242.923 Q1855.12 242.923 1853.18 245.608 Q1851.26 248.27 1851.26 252.969 Q1851.26 257.668 1853.18 260.353 Q1855.12 263.015 1858.5 263.015 Q1861.88 263.015 1863.81 260.353 Q1865.75 257.668 1865.75 252.969 Z" fill="#000000" fill-rule="nonzero" fill-opacity="1" /><path clip-path="url(#clip330)" d="M1887.28 242.969 Q1883.85 242.969 1881.86 245.654 Q1879.87 248.316 1879.87 252.969 Q1879.87 257.622 1881.84 260.307 Q1883.83 262.969 1887.28 262.969 Q1890.68 262.969 1892.67 260.284 Q1894.66 257.598 1894.66 252.969 Q1894.66 248.362 1892.67 245.677 Q1890.68 242.969 1887.28 242.969 M1887.28 239.358 Q1892.83 239.358 1896 242.969 Q1899.18 246.58 1899.18 252.969 Q1899.18 259.335 1896 262.969 Q1892.83 266.58 1887.28 266.58 Q1881.7 266.58 1878.53 262.969 Q1875.38 259.335 1875.38 252.969 Q1875.38 246.58 1878.53 242.969 Q1881.7 239.358 1887.28 239.358 Z" fill="#000000" fill-rule="nonzero" fill-opacity="1" /><path clip-path="url(#clip330)" d="M1906.24 229.89 L1910.49 229.89 L1910.49 265.909 L1906.24 265.909 L1906.24 229.89 Z" fill="#000000" fill-rule="nonzero" fill-opacity="1" /><path clip-path="url(#clip330)" d="M1931.19 252.876 Q1926.03 252.876 1924.04 254.057 Q1922.05 255.237 1922.05 258.085 Q1922.05 260.353 1923.53 261.696 Q1925.03 263.015 1927.6 263.015 Q1931.14 263.015 1933.27 260.515 Q1935.42 257.992 1935.42 253.825 L1935.42 252.876 L1931.19 252.876 M1939.68 251.117 L1939.68 265.909 L1935.42 265.909 L1935.42 261.973 Q1933.97 264.335 1931.79 265.469 Q1929.61 266.58 1926.47 266.58 Q1922.49 266.58 1920.12 264.358 Q1917.79 262.112 1917.79 258.362 Q1917.79 253.987 1920.7 251.765 Q1923.64 249.543 1929.45 249.543 L1935.42 249.543 L1935.42 249.126 Q1935.42 246.187 1933.48 244.589 Q1931.56 242.969 1928.06 242.969 Q1925.84 242.969 1923.74 243.501 Q1921.63 244.034 1919.68 245.099 L1919.68 241.163 Q1922.02 240.261 1924.22 239.821 Q1926.42 239.358 1928.5 239.358 Q1934.13 239.358 1936.91 242.274 Q1939.68 245.191 1939.68 251.117 Z" fill="#000000" fill-rule="nonzero" fill-opacity="1" /><path clip-path="url(#clip330)" d="M1964.99 240.747 L1964.99 244.774 Q1963.18 243.849 1961.24 243.386 Q1959.29 242.923 1957.21 242.923 Q1954.04 242.923 1952.44 243.895 Q1950.86 244.867 1950.86 246.811 Q1950.86 248.293 1952 249.149 Q1953.13 249.983 1956.56 250.747 L1958.02 251.071 Q1962.55 252.043 1964.45 253.825 Q1966.37 255.585 1966.37 258.756 Q1966.37 262.367 1963.5 264.473 Q1960.66 266.58 1955.66 266.58 Q1953.57 266.58 1951.3 266.163 Q1949.06 265.77 1946.56 264.96 L1946.56 260.561 Q1948.92 261.788 1951.21 262.413 Q1953.5 263.015 1955.75 263.015 Q1958.76 263.015 1960.38 261.997 Q1962 260.955 1962 259.08 Q1962 257.344 1960.82 256.418 Q1959.66 255.492 1955.7 254.636 L1954.22 254.288 Q1950.26 253.455 1948.5 251.742 Q1946.74 250.006 1946.74 246.997 Q1946.74 243.339 1949.34 241.349 Q1951.93 239.358 1956.7 239.358 Q1959.06 239.358 1961.14 239.705 Q1963.23 240.052 1964.99 240.747 Z" fill="#000000" fill-rule="nonzero" fill-opacity="1" /><path clip-path="url(#clip330)" d="M1973.16 239.983 L1977.42 239.983 L1977.42 265.909 L1973.16 265.909 L1973.16 239.983 M1973.16 229.89 L1977.42 229.89 L1977.42 235.284 L1973.16 235.284 L1973.16 229.89 Z" fill="#000000" fill-rule="nonzero" fill-opacity="1" /><path clip-path="url(#clip330)" d="M2001.58 231.349 L2006.26 231.349 L2006.26 261.973 L2023.09 261.973 L2023.09 265.909 L2001.58 265.909 L2001.58 231.349 Z" fill="#000000" fill-rule="nonzero" fill-opacity="1" /><path clip-path="url(#clip330)" d="M2039.59 252.876 Q2034.43 252.876 2032.44 254.057 Q2030.45 255.237 2030.45 258.085 Q2030.45 260.353 2031.93 261.696 Q2033.43 263.015 2036 263.015 Q2039.54 263.015 2041.67 260.515 Q2043.83 257.992 2043.83 253.825 L2043.83 252.876 L2039.59 252.876 M2048.09 251.117 L2048.09 265.909 L2043.83 265.909 L2043.83 261.973 Q2042.37 264.335 2040.19 265.469 Q2038.02 266.58 2034.87 266.58 Q2030.89 266.58 2028.53 264.358 Q2026.19 262.112 2026.19 258.362 Q2026.19 253.987 2029.11 251.765 Q2032.04 249.543 2037.85 249.543 L2043.83 249.543 L2043.83 249.126 Q2043.83 246.187 2041.88 244.589 Q2039.96 242.969 2036.47 242.969 Q2034.24 242.969 2032.14 243.501 Q2030.03 244.034 2028.09 245.099 L2028.09 241.163 Q2030.42 240.261 2032.62 239.821 Q2034.82 239.358 2036.91 239.358 Q2042.53 239.358 2045.31 242.274 Q2048.09 245.191 2048.09 251.117 Z" fill="#000000" fill-rule="nonzero" fill-opacity="1" /><path clip-path="url(#clip330)" d="M2073.92 252.645 Q2073.92 248.015 2072 245.469 Q2070.1 242.923 2066.65 242.923 Q2063.23 242.923 2061.3 245.469 Q2059.41 248.015 2059.41 252.645 Q2059.41 257.251 2061.3 259.798 Q2063.23 262.344 2066.65 262.344 Q2070.1 262.344 2072 259.798 Q2073.92 257.251 2073.92 252.645 M2078.18 262.691 Q2078.18 269.311 2075.24 272.529 Q2072.3 275.77 2066.23 275.77 Q2063.99 275.77 2062 275.422 Q2060.01 275.098 2058.13 274.404 L2058.13 270.26 Q2060.01 271.279 2061.84 271.765 Q2063.67 272.251 2065.56 272.251 Q2069.75 272.251 2071.84 270.052 Q2073.92 267.876 2073.92 263.455 L2073.92 261.348 Q2072.6 263.64 2070.54 264.774 Q2068.48 265.909 2065.61 265.909 Q2060.84 265.909 2057.92 262.274 Q2055.01 258.64 2055.01 252.645 Q2055.01 246.626 2057.92 242.992 Q2060.84 239.358 2065.61 239.358 Q2068.48 239.358 2070.54 240.492 Q2072.6 241.626 2073.92 243.918 L2073.92 239.983 L2078.18 239.983 L2078.18 262.691 Z" fill="#000000" fill-rule="nonzero" fill-opacity="1" /><path clip-path="url(#clip330)" d="M2101.98 243.964 Q2101.26 243.548 2100.4 243.362 Q2099.57 243.154 2098.55 243.154 Q2094.94 243.154 2092.99 245.515 Q2091.07 247.853 2091.07 252.251 L2091.07 265.909 L2086.79 265.909 L2086.79 239.983 L2091.07 239.983 L2091.07 244.011 Q2092.41 241.649 2094.57 240.515 Q2096.72 239.358 2099.8 239.358 Q2100.24 239.358 2100.77 239.427 Q2101.3 239.474 2101.95 239.589 L2101.98 243.964 Z" fill="#000000" fill-rule="nonzero" fill-opacity="1" /><path clip-path="url(#clip330)" d="M2118.22 252.876 Q2113.06 252.876 2111.07 254.057 Q2109.08 255.237 2109.08 258.085 Q2109.08 260.353 2110.56 261.696 Q2112.07 263.015 2114.64 263.015 Q2118.18 263.015 2120.31 260.515 Q2122.46 257.992 2122.46 253.825 L2122.46 252.876 L2118.22 252.876 M2126.72 251.117 L2126.72 265.909 L2122.46 265.909 L2122.46 261.973 Q2121 264.335 2118.83 265.469 Q2116.65 266.58 2113.5 266.58 Q2109.52 266.58 2107.16 264.358 Q2104.82 262.112 2104.82 258.362 Q2104.82 253.987 2107.74 251.765 Q2110.68 249.543 2116.49 249.543 L2122.46 249.543 L2122.46 249.126 Q2122.46 246.187 2120.52 244.589 Q2118.6 242.969 2115.1 242.969 Q2112.88 242.969 2110.77 243.501 Q2108.66 244.034 2106.72 245.099 L2106.72 241.163 Q2109.06 240.261 2111.26 239.821 Q2113.46 239.358 2115.54 239.358 Q2121.16 239.358 2123.94 242.274 Q2126.72 245.191 2126.72 251.117 Z" fill="#000000" fill-rule="nonzero" fill-opacity="1" /><path clip-path="url(#clip330)" d="M2157.04 250.261 L2157.04 265.909 L2152.78 265.909 L2152.78 250.399 Q2152.78 246.719 2151.35 244.89 Q2149.91 243.062 2147.04 243.062 Q2143.6 243.062 2141.6 245.261 Q2139.61 247.46 2139.61 251.256 L2139.61 265.909 L2135.33 265.909 L2135.33 239.983 L2139.61 239.983 L2139.61 244.011 Q2141.14 241.673 2143.2 240.515 Q2145.28 239.358 2147.99 239.358 Q2152.46 239.358 2154.75 242.136 Q2157.04 244.89 2157.04 250.261 Z" fill="#000000" fill-rule="nonzero" fill-opacity="1" /><path clip-path="url(#clip330)" d="M2182.6 252.645 Q2182.6 248.015 2180.68 245.469 Q2178.78 242.923 2175.33 242.923 Q2171.91 242.923 2169.98 245.469 Q2168.09 248.015 2168.09 252.645 Q2168.09 257.251 2169.98 259.798 Q2171.91 262.344 2175.33 262.344 Q2178.78 262.344 2180.68 259.798 Q2182.6 257.251 2182.6 252.645 M2186.86 262.691 Q2186.86 269.311 2183.92 272.529 Q2180.98 275.77 2174.91 275.77 Q2172.67 275.77 2170.68 275.422 Q2168.69 275.098 2166.81 274.404 L2166.81 270.26 Q2168.69 271.279 2170.52 271.765 Q2172.35 272.251 2174.24 272.251 Q2178.43 272.251 2180.52 270.052 Q2182.6 267.876 2182.6 263.455 L2182.6 261.348 Q2181.28 263.64 2179.22 264.774 Q2177.16 265.909 2174.29 265.909 Q2169.52 265.909 2166.6 262.274 Q2163.69 258.64 2163.69 252.645 Q2163.69 246.626 2166.6 242.992 Q2169.52 239.358 2174.29 239.358 Q2177.16 239.358 2179.22 240.492 Q2181.28 241.626 2182.6 243.918 L2182.6 239.983 L2186.86 239.983 L2186.86 262.691 Z" fill="#000000" fill-rule="nonzero" fill-opacity="1" /><path clip-path="url(#clip330)" d="M2217.81 251.881 L2217.81 253.964 L2198.22 253.964 Q2198.5 258.362 2200.86 260.677 Q2203.25 262.969 2207.48 262.969 Q2209.94 262.969 2212.23 262.367 Q2214.54 261.765 2216.81 260.561 L2216.81 264.589 Q2214.52 265.561 2212.11 266.071 Q2209.71 266.58 2207.23 266.58 Q2201.03 266.58 2197.39 262.969 Q2193.78 259.358 2193.78 253.2 Q2193.78 246.835 2197.21 243.108 Q2200.66 239.358 2206.49 239.358 Q2211.72 239.358 2214.75 242.737 Q2217.81 246.094 2217.81 251.881 M2213.55 250.631 Q2213.5 247.136 2211.58 245.052 Q2209.68 242.969 2206.53 242.969 Q2202.97 242.969 2200.82 244.983 Q2198.69 246.997 2198.36 250.654 L2213.55 250.631 Z" fill="#000000" fill-rule="nonzero" fill-opacity="1" /></svg>
