<?xml version="1.0" encoding="utf-8"?>
<svg xmlns="http://www.w3.org/2000/svg" xmlns:xlink="http://www.w3.org/1999/xlink" width="600" height="400" viewBox="0 0 2400 1600">
<defs>
  <clipPath id="clip660">
    <rect x="0" y="0" width="2400" height="1600"/>
  </clipPath>
</defs>
<path clip-path="url(#clip660)" d="M0 1600 L2400 1600 L2400 0 L0 0  Z" fill="#ffffff" fill-rule="evenodd" fill-opacity="1"/>
<defs>
  <clipPath id="clip661">
    <rect x="480" y="0" width="1681" height="1600"/>
  </clipPath>
</defs>
<path clip-path="url(#clip660)" d="M210.746 1423.18 L2352.76 1423.18 L2352.76 47.2441 L210.746 47.2441  Z" fill="#ffffff" fill-rule="evenodd" fill-opacity="1"/>
<defs>
  <clipPath id="clip662">
    <rect x="210" y="47" width="2143" height="1377"/>
  </clipPath>
</defs>
<polyline clip-path="url(#clip662)" style="stroke:#000000; stroke-linecap:round; stroke-linejoin:round; stroke-width:2; stroke-opacity:0.1; fill:none" points="271.369,1423.18 271.369,47.2441 "/>
<polyline clip-path="url(#clip662)" style="stroke:#000000; stroke-linecap:round; stroke-linejoin:round; stroke-width:2; stroke-opacity:0.1; fill:none" points="632.22,1423.18 632.22,47.2441 "/>
<polyline clip-path="url(#clip662)" style="stroke:#000000; stroke-linecap:round; stroke-linejoin:round; stroke-width:2; stroke-opacity:0.1; fill:none" points="993.07,1423.18 993.07,47.2441 "/>
<polyline clip-path="url(#clip662)" style="stroke:#000000; stroke-linecap:round; stroke-linejoin:round; stroke-width:2; stroke-opacity:0.1; fill:none" points="1353.92,1423.18 1353.92,47.2441 "/>
<polyline clip-path="url(#clip662)" style="stroke:#000000; stroke-linecap:round; stroke-linejoin:round; stroke-width:2; stroke-opacity:0.1; fill:none" points="1714.77,1423.18 1714.77,47.2441 "/>
<polyline clip-path="url(#clip662)" style="stroke:#000000; stroke-linecap:round; stroke-linejoin:round; stroke-width:2; stroke-opacity:0.1; fill:none" points="2075.62,1423.18 2075.62,47.2441 "/>
<polyline clip-path="url(#clip660)" style="stroke:#000000; stroke-linecap:round; stroke-linejoin:round; stroke-width:4; stroke-opacity:1; fill:none" points="210.746,1423.18 2352.76,1423.18 "/>
<polyline clip-path="url(#clip660)" style="stroke:#000000; stroke-linecap:round; stroke-linejoin:round; stroke-width:4; stroke-opacity:1; fill:none" points="271.369,1423.18 271.369,1404.28 "/>
<polyline clip-path="url(#clip660)" style="stroke:#000000; stroke-linecap:round; stroke-linejoin:round; stroke-width:4; stroke-opacity:1; fill:none" points="632.22,1423.18 632.22,1404.28 "/>
<polyline clip-path="url(#clip660)" style="stroke:#000000; stroke-linecap:round; stroke-linejoin:round; stroke-width:4; stroke-opacity:1; fill:none" points="993.07,1423.18 993.07,1404.28 "/>
<polyline clip-path="url(#clip660)" style="stroke:#000000; stroke-linecap:round; stroke-linejoin:round; stroke-width:4; stroke-opacity:1; fill:none" points="1353.92,1423.18 1353.92,1404.28 "/>
<polyline clip-path="url(#clip660)" style="stroke:#000000; stroke-linecap:round; stroke-linejoin:round; stroke-width:4; stroke-opacity:1; fill:none" points="1714.77,1423.18 1714.77,1404.28 "/>
<polyline clip-path="url(#clip660)" style="stroke:#000000; stroke-linecap:round; stroke-linejoin:round; stroke-width:4; stroke-opacity:1; fill:none" points="2075.62,1423.18 2075.62,1404.28 "/>
<path clip-path="url(#clip660)" d="M248.753 1454.1 Q245.142 1454.1 243.313 1457.66 Q241.508 1461.2 241.508 1468.33 Q241.508 1475.44 243.313 1479.01 Q245.142 1482.55 248.753 1482.55 Q252.387 1482.55 254.193 1479.01 Q256.022 1475.44 256.022 1468.33 Q256.022 1461.2 254.193 1457.66 Q252.387 1454.1 248.753 1454.1 M248.753 1450.39 Q254.563 1450.39 257.619 1455 Q260.698 1459.58 260.698 1468.33 Q260.698 1477.06 257.619 1481.67 Q254.563 1486.25 248.753 1486.25 Q242.943 1486.25 239.864 1481.67 Q236.809 1477.06 236.809 1468.33 Q236.809 1459.58 239.864 1455 Q242.943 1450.39 248.753 1450.39 Z" fill="#000000" fill-rule="nonzero" fill-opacity="1" /><path clip-path="url(#clip660)" d="M268.915 1479.7 L273.799 1479.7 L273.799 1485.58 L268.915 1485.58 L268.915 1479.7 Z" fill="#000000" fill-rule="nonzero" fill-opacity="1" /><path clip-path="url(#clip660)" d="M293.984 1454.1 Q290.373 1454.1 288.545 1457.66 Q286.739 1461.2 286.739 1468.33 Q286.739 1475.44 288.545 1479.01 Q290.373 1482.55 293.984 1482.55 Q297.619 1482.55 299.424 1479.01 Q301.253 1475.44 301.253 1468.33 Q301.253 1461.2 299.424 1457.66 Q297.619 1454.1 293.984 1454.1 M293.984 1450.39 Q299.795 1450.39 302.85 1455 Q305.929 1459.58 305.929 1468.33 Q305.929 1477.06 302.85 1481.67 Q299.795 1486.25 293.984 1486.25 Q288.174 1486.25 285.096 1481.67 Q282.04 1477.06 282.04 1468.33 Q282.04 1459.58 285.096 1455 Q288.174 1450.39 293.984 1450.39 Z" fill="#000000" fill-rule="nonzero" fill-opacity="1" /><path clip-path="url(#clip660)" d="M603.956 1481.64 L620.275 1481.64 L620.275 1485.58 L598.331 1485.58 L598.331 1481.64 Q600.993 1478.89 605.576 1474.26 Q610.183 1469.61 611.363 1468.27 Q613.609 1465.74 614.488 1464.01 Q615.391 1462.25 615.391 1460.56 Q615.391 1457.8 613.447 1456.07 Q611.525 1454.33 608.423 1454.33 Q606.224 1454.33 603.771 1455.09 Q601.34 1455.86 598.562 1457.41 L598.562 1452.69 Q601.386 1451.55 603.84 1450.97 Q606.294 1450.39 608.331 1450.39 Q613.701 1450.39 616.896 1453.08 Q620.09 1455.77 620.09 1460.26 Q620.09 1462.39 619.28 1464.31 Q618.493 1466.2 616.386 1468.8 Q615.808 1469.47 612.706 1472.69 Q609.604 1475.88 603.956 1481.64 Z" fill="#000000" fill-rule="nonzero" fill-opacity="1" /><path clip-path="url(#clip660)" d="M630.09 1479.7 L634.974 1479.7 L634.974 1485.58 L630.09 1485.58 L630.09 1479.7 Z" fill="#000000" fill-rule="nonzero" fill-opacity="1" /><path clip-path="url(#clip660)" d="M645.206 1451.02 L663.562 1451.02 L663.562 1454.96 L649.488 1454.96 L649.488 1463.43 Q650.507 1463.08 651.525 1462.92 Q652.544 1462.73 653.562 1462.73 Q659.349 1462.73 662.729 1465.9 Q666.108 1469.08 666.108 1474.49 Q666.108 1480.07 662.636 1483.17 Q659.164 1486.25 652.844 1486.25 Q650.669 1486.25 648.4 1485.88 Q646.155 1485.51 643.747 1484.77 L643.747 1480.07 Q645.831 1481.2 648.053 1481.76 Q650.275 1482.32 652.752 1482.32 Q656.757 1482.32 659.094 1480.21 Q661.432 1478.1 661.432 1474.49 Q661.432 1470.88 659.094 1468.77 Q656.757 1466.67 652.752 1466.67 Q650.877 1466.67 649.002 1467.08 Q647.15 1467.5 645.206 1468.38 L645.206 1451.02 Z" fill="#000000" fill-rule="nonzero" fill-opacity="1" /><path clip-path="url(#clip660)" d="M960.235 1451.02 L978.591 1451.02 L978.591 1454.96 L964.517 1454.96 L964.517 1463.43 Q965.536 1463.08 966.554 1462.92 Q967.573 1462.73 968.591 1462.73 Q974.378 1462.73 977.758 1465.9 Q981.138 1469.08 981.138 1474.49 Q981.138 1480.07 977.665 1483.17 Q974.193 1486.25 967.874 1486.25 Q965.698 1486.25 963.429 1485.88 Q961.184 1485.51 958.777 1484.77 L958.777 1480.07 Q960.86 1481.2 963.082 1481.76 Q965.304 1482.32 967.781 1482.32 Q971.786 1482.32 974.124 1480.21 Q976.462 1478.1 976.462 1474.49 Q976.462 1470.88 974.124 1468.77 Q971.786 1466.67 967.781 1466.67 Q965.906 1466.67 964.031 1467.08 Q962.179 1467.5 960.235 1468.38 L960.235 1451.02 Z" fill="#000000" fill-rule="nonzero" fill-opacity="1" /><path clip-path="url(#clip660)" d="M990.35 1479.7 L995.235 1479.7 L995.235 1485.58 L990.35 1485.58 L990.35 1479.7 Z" fill="#000000" fill-rule="nonzero" fill-opacity="1" /><path clip-path="url(#clip660)" d="M1015.42 1454.1 Q1011.81 1454.1 1009.98 1457.66 Q1008.17 1461.2 1008.17 1468.33 Q1008.17 1475.44 1009.98 1479.01 Q1011.81 1482.55 1015.42 1482.55 Q1019.05 1482.55 1020.86 1479.01 Q1022.69 1475.44 1022.69 1468.33 Q1022.69 1461.2 1020.86 1457.66 Q1019.05 1454.1 1015.42 1454.1 M1015.42 1450.39 Q1021.23 1450.39 1024.29 1455 Q1027.36 1459.58 1027.36 1468.33 Q1027.36 1477.06 1024.29 1481.67 Q1021.23 1486.25 1015.42 1486.25 Q1009.61 1486.25 1006.53 1481.67 Q1003.48 1477.06 1003.48 1468.33 Q1003.48 1459.58 1006.53 1455 Q1009.61 1450.39 1015.42 1450.39 Z" fill="#000000" fill-rule="nonzero" fill-opacity="1" /><path clip-path="url(#clip660)" d="M1320.24 1451.02 L1342.46 1451.02 L1342.46 1453.01 L1329.92 1485.58 L1325.03 1485.58 L1336.84 1454.96 L1320.24 1454.96 L1320.24 1451.02 Z" fill="#000000" fill-rule="nonzero" fill-opacity="1" /><path clip-path="url(#clip660)" d="M1351.58 1479.7 L1356.47 1479.7 L1356.47 1485.58 L1351.58 1485.58 L1351.58 1479.7 Z" fill="#000000" fill-rule="nonzero" fill-opacity="1" /><path clip-path="url(#clip660)" d="M1366.7 1451.02 L1385.06 1451.02 L1385.06 1454.96 L1370.98 1454.96 L1370.98 1463.43 Q1372 1463.08 1373.02 1462.92 Q1374.04 1462.73 1375.06 1462.73 Q1380.84 1462.73 1384.22 1465.9 Q1387.6 1469.08 1387.6 1474.49 Q1387.6 1480.07 1384.13 1483.17 Q1380.66 1486.25 1374.34 1486.25 Q1372.16 1486.25 1369.89 1485.88 Q1367.65 1485.51 1365.24 1484.77 L1365.24 1480.07 Q1367.32 1481.2 1369.55 1481.76 Q1371.77 1482.32 1374.25 1482.32 Q1378.25 1482.32 1380.59 1480.21 Q1382.93 1478.1 1382.93 1474.49 Q1382.93 1470.88 1380.59 1468.77 Q1378.25 1466.67 1374.25 1466.67 Q1372.37 1466.67 1370.5 1467.08 Q1368.64 1467.5 1366.7 1468.38 L1366.7 1451.02 Z" fill="#000000" fill-rule="nonzero" fill-opacity="1" /><path clip-path="url(#clip660)" d="M1666.84 1481.64 L1674.48 1481.64 L1674.48 1455.28 L1666.17 1456.95 L1666.17 1452.69 L1674.44 1451.02 L1679.11 1451.02 L1679.11 1481.64 L1686.75 1481.64 L1686.75 1485.58 L1666.84 1485.58 L1666.84 1481.64 Z" fill="#000000" fill-rule="nonzero" fill-opacity="1" /><path clip-path="url(#clip660)" d="M1706.2 1454.1 Q1702.58 1454.1 1700.76 1457.66 Q1698.95 1461.2 1698.95 1468.33 Q1698.95 1475.44 1700.76 1479.01 Q1702.58 1482.55 1706.2 1482.55 Q1709.83 1482.55 1711.64 1479.01 Q1713.46 1475.44 1713.46 1468.33 Q1713.46 1461.2 1711.64 1457.66 Q1709.83 1454.1 1706.2 1454.1 M1706.2 1450.39 Q1712.01 1450.39 1715.06 1455 Q1718.14 1459.58 1718.14 1468.33 Q1718.14 1477.06 1715.06 1481.67 Q1712.01 1486.25 1706.2 1486.25 Q1700.39 1486.25 1697.31 1481.67 Q1694.25 1477.06 1694.25 1468.33 Q1694.25 1459.58 1697.31 1455 Q1700.39 1450.39 1706.2 1450.39 Z" fill="#000000" fill-rule="nonzero" fill-opacity="1" /><path clip-path="url(#clip660)" d="M1726.36 1479.7 L1731.24 1479.7 L1731.24 1485.58 L1726.36 1485.58 L1726.36 1479.7 Z" fill="#000000" fill-rule="nonzero" fill-opacity="1" /><path clip-path="url(#clip660)" d="M1751.43 1454.1 Q1747.82 1454.1 1745.99 1457.66 Q1744.18 1461.2 1744.18 1468.33 Q1744.18 1475.44 1745.99 1479.01 Q1747.82 1482.55 1751.43 1482.55 Q1755.06 1482.55 1756.87 1479.01 Q1758.7 1475.44 1758.7 1468.33 Q1758.7 1461.2 1756.87 1457.66 Q1755.06 1454.1 1751.43 1454.1 M1751.43 1450.39 Q1757.24 1450.39 1760.29 1455 Q1763.37 1459.58 1763.37 1468.33 Q1763.37 1477.06 1760.29 1481.67 Q1757.24 1486.25 1751.43 1486.25 Q1745.62 1486.25 1742.54 1481.67 Q1739.48 1477.06 1739.48 1468.33 Q1739.48 1459.58 1742.54 1455 Q1745.62 1450.39 1751.43 1450.39 Z" fill="#000000" fill-rule="nonzero" fill-opacity="1" /><path clip-path="url(#clip660)" d="M2028.19 1481.64 L2035.83 1481.64 L2035.83 1455.28 L2027.52 1456.95 L2027.52 1452.69 L2035.78 1451.02 L2040.46 1451.02 L2040.46 1481.64 L2048.1 1481.64 L2048.1 1485.58 L2028.19 1485.58 L2028.19 1481.64 Z" fill="#000000" fill-rule="nonzero" fill-opacity="1" /><path clip-path="url(#clip660)" d="M2061.57 1481.64 L2077.89 1481.64 L2077.89 1485.58 L2055.95 1485.58 L2055.95 1481.64 Q2058.61 1478.89 2063.19 1474.26 Q2067.8 1469.61 2068.98 1468.27 Q2071.22 1465.74 2072.1 1464.01 Q2073.01 1462.25 2073.01 1460.56 Q2073.01 1457.8 2071.06 1456.07 Q2069.14 1454.33 2066.04 1454.33 Q2063.84 1454.33 2061.39 1455.09 Q2058.96 1455.86 2056.18 1457.41 L2056.18 1452.69 Q2059 1451.55 2061.46 1450.97 Q2063.91 1450.39 2065.95 1450.39 Q2071.32 1450.39 2074.51 1453.08 Q2077.71 1455.77 2077.71 1460.26 Q2077.71 1462.39 2076.9 1464.31 Q2076.11 1466.2 2074 1468.8 Q2073.42 1469.47 2070.32 1472.69 Q2067.22 1475.88 2061.57 1481.64 Z" fill="#000000" fill-rule="nonzero" fill-opacity="1" /><path clip-path="url(#clip660)" d="M2087.71 1479.7 L2092.59 1479.7 L2092.59 1485.58 L2087.71 1485.58 L2087.71 1479.7 Z" fill="#000000" fill-rule="nonzero" fill-opacity="1" /><path clip-path="url(#clip660)" d="M2102.82 1451.02 L2121.18 1451.02 L2121.18 1454.96 L2107.1 1454.96 L2107.1 1463.43 Q2108.12 1463.08 2109.14 1462.92 Q2110.16 1462.73 2111.18 1462.73 Q2116.96 1462.73 2120.34 1465.9 Q2123.72 1469.08 2123.72 1474.49 Q2123.72 1480.07 2120.25 1483.17 Q2116.78 1486.25 2110.46 1486.25 Q2108.28 1486.25 2106.02 1485.88 Q2103.77 1485.51 2101.36 1484.77 L2101.36 1480.07 Q2103.45 1481.2 2105.67 1481.76 Q2107.89 1482.32 2110.37 1482.32 Q2114.37 1482.32 2116.71 1480.21 Q2119.05 1478.1 2119.05 1474.49 Q2119.05 1470.88 2116.71 1468.77 Q2114.37 1466.67 2110.37 1466.67 Q2108.49 1466.67 2106.62 1467.08 Q2104.77 1467.5 2102.82 1468.38 L2102.82 1451.02 Z" fill="#000000" fill-rule="nonzero" fill-opacity="1" /><path clip-path="url(#clip660)" d="M1298.37 1532.4 L1285.47 1549.74 L1299.03 1568.04 L1292.13 1568.04 L1281.75 1554.04 L1271.37 1568.04 L1264.47 1568.04 L1278.31 1549.39 L1265.65 1532.4 L1272.55 1532.4 L1282.01 1545.1 L1291.46 1532.4 L1298.37 1532.4 Z" fill="#000000" fill-rule="nonzero" fill-opacity="1" /><polyline clip-path="url(#clip662)" style="stroke:#000000; stroke-linecap:round; stroke-linejoin:round; stroke-width:2; stroke-opacity:0.1; fill:none" points="210.746,1423.18 2352.76,1423.18 "/>
<polyline clip-path="url(#clip662)" style="stroke:#000000; stroke-linecap:round; stroke-linejoin:round; stroke-width:2; stroke-opacity:0.1; fill:none" points="210.746,1193.86 2352.76,1193.86 "/>
<polyline clip-path="url(#clip662)" style="stroke:#000000; stroke-linecap:round; stroke-linejoin:round; stroke-width:2; stroke-opacity:0.1; fill:none" points="210.746,964.535 2352.76,964.535 "/>
<polyline clip-path="url(#clip662)" style="stroke:#000000; stroke-linecap:round; stroke-linejoin:round; stroke-width:2; stroke-opacity:0.1; fill:none" points="210.746,735.212 2352.76,735.212 "/>
<polyline clip-path="url(#clip662)" style="stroke:#000000; stroke-linecap:round; stroke-linejoin:round; stroke-width:2; stroke-opacity:0.1; fill:none" points="210.746,505.889 2352.76,505.889 "/>
<polyline clip-path="url(#clip662)" style="stroke:#000000; stroke-linecap:round; stroke-linejoin:round; stroke-width:2; stroke-opacity:0.1; fill:none" points="210.746,276.567 2352.76,276.567 "/>
<polyline clip-path="url(#clip662)" style="stroke:#000000; stroke-linecap:round; stroke-linejoin:round; stroke-width:2; stroke-opacity:0.1; fill:none" points="210.746,47.2441 2352.76,47.2441 "/>
<polyline clip-path="url(#clip660)" style="stroke:#000000; stroke-linecap:round; stroke-linejoin:round; stroke-width:4; stroke-opacity:1; fill:none" points="210.746,1423.18 210.746,47.2441 "/>
<polyline clip-path="url(#clip660)" style="stroke:#000000; stroke-linecap:round; stroke-linejoin:round; stroke-width:4; stroke-opacity:1; fill:none" points="210.746,1423.18 229.644,1423.18 "/>
<polyline clip-path="url(#clip660)" style="stroke:#000000; stroke-linecap:round; stroke-linejoin:round; stroke-width:4; stroke-opacity:1; fill:none" points="210.746,1193.86 229.644,1193.86 "/>
<polyline clip-path="url(#clip660)" style="stroke:#000000; stroke-linecap:round; stroke-linejoin:round; stroke-width:4; stroke-opacity:1; fill:none" points="210.746,964.535 229.644,964.535 "/>
<polyline clip-path="url(#clip660)" style="stroke:#000000; stroke-linecap:round; stroke-linejoin:round; stroke-width:4; stroke-opacity:1; fill:none" points="210.746,735.212 229.644,735.212 "/>
<polyline clip-path="url(#clip660)" style="stroke:#000000; stroke-linecap:round; stroke-linejoin:round; stroke-width:4; stroke-opacity:1; fill:none" points="210.746,505.889 229.644,505.889 "/>
<polyline clip-path="url(#clip660)" style="stroke:#000000; stroke-linecap:round; stroke-linejoin:round; stroke-width:4; stroke-opacity:1; fill:none" points="210.746,276.567 229.644,276.567 "/>
<polyline clip-path="url(#clip660)" style="stroke:#000000; stroke-linecap:round; stroke-linejoin:round; stroke-width:4; stroke-opacity:1; fill:none" points="210.746,47.2441 229.644,47.2441 "/>
<path clip-path="url(#clip660)" d="M114.631 1423.63 L144.306 1423.63 L144.306 1427.57 L114.631 1427.57 L114.631 1423.63 Z" fill="#000000" fill-rule="nonzero" fill-opacity="1" /><path clip-path="url(#clip660)" d="M158.427 1436.52 L174.746 1436.52 L174.746 1440.46 L152.802 1440.46 L152.802 1436.52 Q155.464 1433.77 160.047 1429.14 Q164.653 1424.49 165.834 1423.15 Q168.079 1420.62 168.959 1418.89 Q169.862 1417.13 169.862 1415.44 Q169.862 1412.68 167.917 1410.95 Q165.996 1409.21 162.894 1409.21 Q160.695 1409.21 158.241 1409.97 Q155.811 1410.74 153.033 1412.29 L153.033 1407.57 Q155.857 1406.43 158.311 1405.85 Q160.765 1405.27 162.802 1405.27 Q168.172 1405.27 171.366 1407.96 Q174.561 1410.65 174.561 1415.14 Q174.561 1417.27 173.751 1419.19 Q172.964 1421.08 170.857 1423.68 Q170.278 1424.35 167.177 1427.57 Q164.075 1430.76 158.427 1436.52 Z" fill="#000000" fill-rule="nonzero" fill-opacity="1" /><path clip-path="url(#clip660)" d="M114.26 1194.31 L143.936 1194.31 L143.936 1198.24 L114.26 1198.24 L114.26 1194.31 Z" fill="#000000" fill-rule="nonzero" fill-opacity="1" /><path clip-path="url(#clip660)" d="M154.839 1207.2 L162.477 1207.2 L162.477 1180.84 L154.167 1182.5 L154.167 1178.24 L162.431 1176.58 L167.107 1176.58 L167.107 1207.2 L174.746 1207.2 L174.746 1211.14 L154.839 1211.14 L154.839 1207.2 Z" fill="#000000" fill-rule="nonzero" fill-opacity="1" /><path clip-path="url(#clip660)" d="M162.802 950.333 Q159.19 950.333 157.362 953.898 Q155.556 957.44 155.556 964.569 Q155.556 971.676 157.362 975.241 Q159.19 978.782 162.802 978.782 Q166.436 978.782 168.241 975.241 Q170.07 971.676 170.07 964.569 Q170.07 957.44 168.241 953.898 Q166.436 950.333 162.802 950.333 M162.802 946.63 Q168.612 946.63 171.667 951.236 Q174.746 955.819 174.746 964.569 Q174.746 973.296 171.667 977.903 Q168.612 982.486 162.802 982.486 Q156.991 982.486 153.913 977.903 Q150.857 973.296 150.857 964.569 Q150.857 955.819 153.913 951.236 Q156.991 946.63 162.802 946.63 Z" fill="#000000" fill-rule="nonzero" fill-opacity="1" /><path clip-path="url(#clip660)" d="M154.839 748.557 L162.477 748.557 L162.477 722.191 L154.167 723.858 L154.167 719.599 L162.431 717.932 L167.107 717.932 L167.107 748.557 L174.746 748.557 L174.746 752.492 L154.839 752.492 L154.839 748.557 Z" fill="#000000" fill-rule="nonzero" fill-opacity="1" /><path clip-path="url(#clip660)" d="M158.427 519.234 L174.746 519.234 L174.746 523.169 L152.802 523.169 L152.802 519.234 Q155.464 516.48 160.047 511.85 Q164.653 507.197 165.834 505.855 Q168.079 503.331 168.959 501.595 Q169.862 499.836 169.862 498.146 Q169.862 495.392 167.917 493.656 Q165.996 491.92 162.894 491.92 Q160.695 491.92 158.241 492.683 Q155.811 493.447 153.033 494.998 L153.033 490.276 Q155.857 489.142 158.311 488.563 Q160.765 487.984 162.802 487.984 Q168.172 487.984 171.366 490.67 Q174.561 493.355 174.561 497.845 Q174.561 499.975 173.751 501.896 Q172.964 503.794 170.857 506.387 Q170.278 507.058 167.177 510.276 Q164.075 513.47 158.427 519.234 Z" fill="#000000" fill-rule="nonzero" fill-opacity="1" /><path clip-path="url(#clip660)" d="M167.616 275.213 Q170.973 275.93 172.848 278.199 Q174.746 280.467 174.746 283.8 Q174.746 288.916 171.227 291.717 Q167.709 294.518 161.227 294.518 Q159.052 294.518 156.737 294.078 Q154.445 293.662 151.991 292.805 L151.991 288.291 Q153.936 289.425 156.251 290.004 Q158.565 290.583 161.089 290.583 Q165.487 290.583 167.778 288.847 Q170.093 287.111 170.093 283.8 Q170.093 280.745 167.94 279.032 Q165.811 277.296 161.991 277.296 L157.964 277.296 L157.964 273.453 L162.177 273.453 Q165.626 273.453 167.454 272.088 Q169.283 270.699 169.283 268.106 Q169.283 265.444 167.385 264.032 Q165.51 262.597 161.991 262.597 Q160.07 262.597 157.871 263.014 Q155.672 263.43 153.033 264.31 L153.033 260.143 Q155.695 259.402 158.01 259.032 Q160.348 258.662 162.408 258.662 Q167.732 258.662 170.834 261.092 Q173.936 263.5 173.936 267.62 Q173.936 270.49 172.292 272.481 Q170.649 274.449 167.616 275.213 Z" fill="#000000" fill-rule="nonzero" fill-opacity="1" /><path clip-path="url(#clip660)" d="M165.163 34.0381 L153.357 52.4871 L165.163 52.4871 L165.163 34.0381 M163.936 29.9641 L169.815 29.9641 L169.815 52.4871 L174.746 52.4871 L174.746 56.376 L169.815 56.376 L169.815 64.5241 L165.163 64.5241 L165.163 56.376 L149.561 56.376 L149.561 51.8621 L163.936 29.9641 Z" fill="#000000" fill-rule="nonzero" fill-opacity="1" /><path clip-path="url(#clip660)" d="M67.3143 733.525 Q73.68 736.008 75.6216 738.363 Q77.5631 740.718 77.5631 744.665 L77.5631 749.344 L72.6615 749.344 L72.6615 745.906 Q72.6615 743.487 71.5157 742.151 Q70.3699 740.814 66.1048 739.191 L63.4312 738.14 L28.3562 752.559 L28.3562 746.352 L56.238 735.212 L28.3562 724.072 L28.3562 717.865 L67.3143 733.525 Z" fill="#000000" fill-rule="nonzero" fill-opacity="1" /><circle clip-path="url(#clip662)" cx="401.275" cy="666.415" r="14.4" fill="#009af9" fill-rule="evenodd" fill-opacity="1" stroke="#000000" stroke-opacity="1" stroke-width="3.2"/>
<circle clip-path="url(#clip662)" cx="459.011" cy="620.551" r="14.4" fill="#009af9" fill-rule="evenodd" fill-opacity="1" stroke="#000000" stroke-opacity="1" stroke-width="3.2"/>
<circle clip-path="url(#clip662)" cx="545.615" cy="540.288" r="14.4" fill="#009af9" fill-rule="evenodd" fill-opacity="1" stroke="#000000" stroke-opacity="1" stroke-width="3.2"/>
<circle clip-path="url(#clip662)" cx="574.483" cy="478.371" r="14.4" fill="#009af9" fill-rule="evenodd" fill-opacity="1" stroke="#000000" stroke-opacity="1" stroke-width="3.2"/>
<circle clip-path="url(#clip662)" cx="646.654" cy="368.296" r="14.4" fill="#009af9" fill-rule="evenodd" fill-opacity="1" stroke="#000000" stroke-opacity="1" stroke-width="3.2"/>
<circle clip-path="url(#clip662)" cx="704.39" cy="345.364" r="14.4" fill="#009af9" fill-rule="evenodd" fill-opacity="1" stroke="#000000" stroke-opacity="1" stroke-width="3.2"/>
<circle clip-path="url(#clip662)" cx="834.296" cy="414.16" r="14.4" fill="#009af9" fill-rule="evenodd" fill-opacity="1" stroke="#000000" stroke-opacity="1" stroke-width="3.2"/>
<circle clip-path="url(#clip662)" cx="906.466" cy="471.491" r="14.4" fill="#009af9" fill-rule="evenodd" fill-opacity="1" stroke="#000000" stroke-opacity="1" stroke-width="3.2"/>
<circle clip-path="url(#clip662)" cx="949.768" cy="494.423" r="14.4" fill="#009af9" fill-rule="evenodd" fill-opacity="1" stroke="#000000" stroke-opacity="1" stroke-width="3.2"/>
<circle clip-path="url(#clip662)" cx="993.07" cy="480.664" r="14.4" fill="#009af9" fill-rule="evenodd" fill-opacity="1" stroke="#000000" stroke-opacity="1" stroke-width="3.2"/>
<circle clip-path="url(#clip662)" cx="1137.41" cy="448.559" r="14.4" fill="#009af9" fill-rule="evenodd" fill-opacity="1" stroke="#000000" stroke-opacity="1" stroke-width="3.2"/>
<circle clip-path="url(#clip662)" cx="1281.75" cy="437.093" r="14.4" fill="#009af9" fill-rule="evenodd" fill-opacity="1" stroke="#000000" stroke-opacity="1" stroke-width="3.2"/>
<circle clip-path="url(#clip662)" cx="1426.09" cy="446.265" r="14.4" fill="#009af9" fill-rule="evenodd" fill-opacity="1" stroke="#000000" stroke-opacity="1" stroke-width="3.2"/>
<circle clip-path="url(#clip662)" cx="1599.3" cy="517.355" r="14.4" fill="#009af9" fill-rule="evenodd" fill-opacity="1" stroke="#000000" stroke-opacity="1" stroke-width="3.2"/>
<circle clip-path="url(#clip662)" cx="1786.94" cy="643.483" r="14.4" fill="#009af9" fill-rule="evenodd" fill-opacity="1" stroke="#000000" stroke-opacity="1" stroke-width="3.2"/>
<circle clip-path="url(#clip662)" cx="1902.41" cy="758.144" r="14.4" fill="#009af9" fill-rule="evenodd" fill-opacity="1" stroke="#000000" stroke-opacity="1" stroke-width="3.2"/>
<circle clip-path="url(#clip662)" cx="1945.72" cy="804.009" r="14.4" fill="#009af9" fill-rule="evenodd" fill-opacity="1" stroke="#000000" stroke-opacity="1" stroke-width="3.2"/>
<circle clip-path="url(#clip662)" cx="2003.45" cy="826.941" r="14.4" fill="#009af9" fill-rule="evenodd" fill-opacity="1" stroke="#000000" stroke-opacity="1" stroke-width="3.2"/>
<circle clip-path="url(#clip662)" cx="2090.06" cy="849.873" r="14.4" fill="#009af9" fill-rule="evenodd" fill-opacity="1" stroke="#000000" stroke-opacity="1" stroke-width="3.2"/>
<circle clip-path="url(#clip662)" cx="2147.79" cy="872.806" r="14.4" fill="#009af9" fill-rule="evenodd" fill-opacity="1" stroke="#000000" stroke-opacity="1" stroke-width="3.2"/>
<circle clip-path="url(#clip662)" cx="2191.09" cy="907.204" r="14.4" fill="#009af9" fill-rule="evenodd" fill-opacity="1" stroke="#000000" stroke-opacity="1" stroke-width="3.2"/>
<polyline clip-path="url(#clip662)" style="stroke:#e26f46; stroke-linecap:round; stroke-linejoin:round; stroke-width:8; stroke-opacity:1; fill:none" points="271.369,2.67378e+06 273.392,2.47776e+06 275.414,2.2948e+06 277.437,2.1241e+06 279.46,1.96493e+06 281.483,1.81658e+06 283.506,1.67838e+06 285.528,1.54969e+06 287.551,1.42994e+06 289.574,1.31855e+06 291.597,1.21501e+06 293.62,1.1188e+06 295.642,1.02947e+06 297.665,946557 299.688,869661 301.711,798383 303.733,732355 305.756,671228 307.779,614676 309.802,562391 311.825,514085 313.847,469487 315.87,428341 317.893,390409 319.916,355468 321.939,323305 323.961,293725 325.984,266544 328.007,241587 330.03,218695 332.052,197714 334.075,178505 336.098,160935 338.121,144880 340.144,130226 342.166,116865 344.189,104698 346.212,93629.7 348.235,83574.7 350.258,74451.8 352.28,66186 354.303,58707.4 356.326,51951 358.349,45856.9 360.371,40369 362.394,35435.9 364.417,31009.4 366.44,27045.5 368.463,23503 370.485,20344.2 372.508,17534.2 374.531,15040.8 376.554,12834.4 378.577,10887.7 380.599,9175.59 382.622,7675.08 384.645,6365.05 386.668,5226.14 388.691,4240.67 390.713,3392.43 392.736,2666.66 394.759,2049.9 396.782,1529.89 398.804,1095.49 400.827,736.606 402.85,444.077 404.873,209.631 406.896,25.7991 408.918,-114.145 410.941,-216.245 412.964,-285.918 414.987,-328.012 417.01,-346.848 419.032,-346.268 421.055,-329.68 423.078,-300.093 425.101,-260.153 427.123,-212.181 429.146,-158.2 431.169,-99.9626 433.192,-38.9816 435.215,23.4493 437.237,86.2318 439.26,148.443 441.283,209.315 443.306,268.221 445.329,324.656 447.351,378.225 449.374,428.627 451.397,475.646 453.42,519.14 455.442,559.026 457.465,595.28 459.488,627.922 461.511,657.009 463.534,682.633 465.556,704.911 467.579,723.983 469.602,740.003 471.625,753.139 473.648,763.569 475.67,771.475 477.693,777.044 479.716,780.463 481.739,781.915 483.761,781.585 485.784,779.65 487.807,776.281 489.83,771.645 491.853,765.899 493.875,759.193 495.898,751.668 497.921,743.456 499.944,734.681 501.967,725.456 503.989,715.887 506.012,706.069 508.035,696.089 510.058,686.026 512.081,675.951 514.103,665.924 516.126,656 518.149,646.227 520.172,636.645 522.194,627.287 524.217,618.182 526.24,609.351 528.263,600.813 530.286,592.578 532.308,584.655 534.331,577.048 536.354,569.758 538.377,562.782 540.4,556.114 542.422,549.748 544.445,543.674 546.468,537.879 548.491,532.352 550.513,527.077 552.536,522.041 554.559,517.228 556.582,512.621 558.605,508.205 560.627,503.963 562.65,499.88 564.673,495.939 566.696,492.125 568.719,488.424 570.741,484.821 572.764,481.303 574.787,477.858 576.81,474.473 578.832,471.139 580.855,467.844 582.878,464.581 584.901,461.341 586.924,458.117 588.946,454.904 590.969,451.697 592.992,448.492 595.015,445.286 597.038,442.076 599.06,438.862 601.083,435.642 603.106,432.418 605.129,429.19 607.151,425.959 609.174,422.73 611.197,419.503 613.22,416.283 615.243,413.073 617.265,409.878 619.288,406.702 621.311,403.55 623.334,400.428 625.357,397.34 627.379,394.291 629.402,391.289 631.425,388.337 633.448,385.442 635.471,382.608 637.493,379.842 639.516,377.149 641.539,374.533 643.562,371.999 645.584,369.552 647.607,367.197 649.63,364.937 651.653,362.776 653.676,360.718 655.698,358.766 657.721,356.922 659.744,355.189 661.767,353.569 663.79,352.063 665.812,350.673 667.835,349.399 669.858,348.243 671.881,347.204 673.903,346.281 675.926,345.475 677.949,344.785 679.972,344.208 681.995,343.744 684.017,343.391 686.04,343.146 688.063,343.006 690.086,342.97 692.109,343.034 694.131,343.194 696.154,343.447 698.177,343.79 700.2,344.219 702.222,344.73 704.245,345.319 706.268,345.981 708.291,346.712 710.314,347.508 712.336,348.365 714.359,349.279 716.382,350.243 718.405,351.256 720.428,352.311 722.45,353.406 724.473,354.535 726.496,355.694 728.519,356.88 730.541,358.088 732.564,359.315 734.587,360.557 736.61,361.811 738.633,363.073 740.655,364.34 742.678,365.609 744.701,366.878 746.724,368.143 748.747,369.403 750.769,370.655 752.792,371.898 754.815,373.129 756.838,374.347 758.861,375.551 760.883,376.74 762.906,377.912 764.929,379.068 766.952,380.206 768.974,381.326 770.997,382.429 773.02,383.515 775.043,384.583 777.066,385.634 779.088,386.669 781.111,387.689 783.134,388.695 785.157,389.687 787.18,390.667 789.202,391.637 791.225,392.598 793.248,393.551 795.271,394.498 797.293,395.441 799.316,396.381 801.339,397.321 803.362,398.262 805.385,399.207 807.407,400.156 809.43,401.113 811.453,402.079 813.476,403.055 815.499,404.045 817.521,405.049 819.544,406.07 821.567,407.109 823.59,408.167 825.612,409.247 827.635,410.35 829.658,411.478 831.681,412.63 833.704,413.81 835.726,415.017 837.749,416.252 839.772,417.517 841.795,418.812 843.818,420.138 845.84,421.494 847.863,422.88 849.886,424.298 851.909,425.747 853.931,427.225 855.954,428.734 857.977,430.272 860,431.838 862.023,433.432 864.045,435.052 866.068,436.697 868.091,438.365 870.114,440.055 872.137,441.765 874.159,443.493 876.182,445.237 878.205,446.995 880.228,448.764 882.251,450.542 884.273,452.327 886.296,454.115 888.319,455.904 890.342,457.691 892.364,459.473 894.387,461.247 896.41,463.009 898.433,464.757 900.456,466.487 902.478,468.196 904.501,469.881 906.524,471.538 908.547,473.164 910.57,474.755 912.592,476.309 914.615,477.821 916.638,479.289 918.661,480.709 920.683,482.078 922.706,483.393 924.729,484.651 926.752,485.849 928.775,486.984 930.797,488.053 932.82,489.053 934.843,489.982 936.866,490.837 938.889,491.617 940.911,492.318 942.934,492.94 944.957,493.479 946.98,493.935 949.002,494.305 951.025,494.59 953.048,494.786 955.071,494.894 957.094,494.913 959.116,494.841 961.139,494.68 963.162,494.428 965.185,494.085 967.208,493.653 969.23,493.131 971.253,492.52 973.276,491.821 975.299,491.035 977.321,490.163 979.344,489.208 981.367,488.17 983.39,487.052 985.413,485.856 987.435,484.584 989.458,483.239 991.481,481.823 993.504,480.341 995.527,478.793 997.549,477.185 999.572,475.519 1001.59,473.8 1003.62,472.03 1005.64,470.214 1007.66,468.357 1009.69,466.461 1011.71,464.532 1013.73,462.574 1015.75,460.591 1017.78,458.588 1019.8,456.571 1021.82,454.543 1023.85,452.51 1025.87,450.476 1027.89,448.446 1029.91,446.426 1031.94,444.421 1033.96,442.435 1035.98,440.473 1038.01,438.541 1040.03,436.643 1042.05,434.784 1044.07,432.969 1046.1,431.203 1048.12,429.491 1050.14,427.837 1052.16,426.246 1054.19,424.721 1056.21,423.268 1058.23,421.89 1060.26,420.592 1062.28,419.378 1064.3,418.25 1066.32,417.213 1068.35,416.269 1070.37,415.423 1072.39,414.676 1074.42,414.032 1076.44,413.493 1078.46,413.061 1080.48,412.738 1082.51,412.527 1084.53,412.429 1086.55,412.444 1088.57,412.574 1090.6,412.821 1092.62,413.183 1094.64,413.662 1096.67,414.258 1098.69,414.97 1100.71,415.797 1102.73,416.74 1104.76,417.796 1106.78,418.964 1108.8,420.243 1110.83,421.631 1112.85,423.125 1114.87,424.723 1116.89,426.423 1118.92,428.22 1120.94,430.113 1122.96,432.097 1124.98,434.168 1127.01,436.323 1129.03,438.558 1131.05,440.867 1133.08,443.247 1135.1,445.691 1137.12,448.196 1139.14,450.756 1141.17,453.365 1143.19,456.018 1145.21,458.709 1147.24,461.431 1149.26,464.18 1151.28,466.947 1153.3,469.728 1155.33,472.516 1157.35,475.304 1159.37,478.085 1161.4,480.853 1163.42,483.601 1165.44,486.322 1167.46,489.01 1169.49,491.657 1171.51,494.257 1173.53,496.803 1175.55,499.289 1177.58,501.707 1179.6,504.05 1181.62,506.313 1183.65,508.489 1185.67,510.572 1187.69,512.555 1189.71,514.432 1191.74,516.197 1193.76,517.845 1195.78,519.369 1197.81,520.765 1199.83,522.027 1201.85,523.151 1203.87,524.131 1205.9,524.963 1207.92,525.643 1209.94,526.166 1211.96,526.53 1213.99,526.73 1216.01,526.764 1218.03,526.629 1220.06,526.322 1222.08,525.841 1224.1,525.185 1226.12,524.351 1228.15,523.339 1230.17,522.148 1232.19,520.777 1234.22,519.227 1236.24,517.498 1238.26,515.59 1240.28,513.505 1242.31,511.244 1244.33,508.808 1246.35,506.201 1248.37,503.425 1250.4,500.482 1252.42,497.376 1254.44,494.111 1256.47,490.691 1258.49,487.12 1260.51,483.403 1262.53,479.546 1264.56,475.554 1266.58,471.433 1268.6,467.189 1270.63,462.828 1272.65,458.359 1274.67,453.787 1276.69,449.12 1278.72,444.367 1280.74,439.535 1282.76,434.633 1284.79,429.669 1286.81,424.653 1288.83,419.592 1290.85,414.498 1292.88,409.378 1294.9,404.243 1296.92,399.103 1298.94,393.968 1300.97,388.848 1302.99,383.752 1305.01,378.692 1307.04,373.679 1309.06,368.721 1311.08,363.831 1313.1,359.018 1315.13,354.293 1317.15,349.667 1319.17,345.15 1321.2,340.753 1323.22,336.486 1325.24,332.359 1327.26,328.383 1329.29,324.568 1331.31,320.923 1333.33,317.458 1335.35,314.183 1337.38,311.107 1339.4,308.239 1341.42,305.588 1343.45,303.163 1345.47,300.971 1347.49,299.021 1349.51,297.32 1351.54,295.876 1353.56,294.695 1355.58,293.784 1357.61,293.149 1359.63,292.796 1361.65,292.73 1363.67,292.956 1365.7,293.478 1367.72,294.3 1369.74,295.426 1371.76,296.859 1373.79,298.601 1375.81,300.653 1377.83,303.019 1379.86,305.697 1381.88,308.689 1383.9,311.995 1385.92,315.613 1387.95,319.543 1389.97,323.782 1391.99,328.328 1394.02,333.179 1396.04,338.33 1398.06,343.777 1400.08,349.516 1402.11,355.542 1404.13,361.848 1406.15,368.429 1408.18,375.277 1410.2,382.385 1412.22,389.745 1414.24,397.348 1416.27,405.186 1418.29,413.249 1420.31,421.527 1422.33,430.009 1424.36,438.684 1426.38,447.541 1428.4,456.569 1430.43,465.753 1432.45,475.083 1434.47,484.545 1436.49,494.124 1438.52,503.808 1440.54,513.583 1442.56,523.433 1444.59,533.344 1446.61,543.301 1448.63,553.289 1450.65,563.291 1452.68,573.293 1454.7,583.279 1456.72,593.232 1458.74,603.136 1460.77,612.976 1462.79,622.734 1464.81,632.395 1466.84,641.942 1468.86,651.359 1470.88,660.629 1472.9,669.737 1474.93,678.667 1476.95,687.401 1478.97,695.925 1481,704.224 1483.02,712.281 1485.04,720.082 1487.06,727.611 1489.09,734.855 1491.11,741.799 1493.13,748.429 1495.15,754.732 1497.18,760.695 1499.2,766.306 1501.22,771.552 1503.25,776.421 1505.27,780.904 1507.29,784.988 1509.31,788.665 1511.34,791.925 1513.36,794.759 1515.38,797.159 1517.41,799.118 1519.43,800.629 1521.45,801.686 1523.47,802.284 1525.5,802.418 1527.52,802.084 1529.54,801.279 1531.57,800.001 1533.59,798.248 1535.61,796.019 1537.63,793.315 1539.66,790.136 1541.68,786.484 1543.7,782.361 1545.72,777.77 1547.75,772.717 1549.77,767.205 1551.79,761.24 1553.82,754.829 1555.84,747.979 1557.86,740.698 1559.88,732.996 1561.91,724.881 1563.93,716.365 1565.95,707.458 1567.98,698.173 1570,688.523 1572.02,678.52 1574.04,668.18 1576.07,657.516 1578.09,646.545 1580.11,635.282 1582.13,623.744 1584.16,611.949 1586.18,599.914 1588.2,587.659 1590.23,575.201 1592.25,562.56 1594.27,549.756 1596.29,536.809 1598.32,523.741 1600.34,510.571 1602.36,497.322 1604.39,484.014 1606.41,470.67 1608.43,457.311 1610.45,443.96 1612.48,430.639 1614.5,417.37 1616.52,404.176 1618.54,391.078 1620.57,378.1 1622.59,365.264 1624.61,352.591 1626.64,340.103 1628.66,327.823 1630.68,315.772 1632.7,303.971 1634.73,292.44 1636.75,281.201 1638.77,270.273 1640.8,259.676 1642.82,249.429 1644.84,239.55 1646.86,230.058 1648.89,220.969 1650.91,212.301 1652.93,204.07 1654.96,196.291 1656.98,188.978 1659,182.145 1661.02,175.805 1663.05,169.971 1665.07,164.653 1667.09,159.861 1669.11,155.606 1671.14,151.896 1673.16,148.738 1675.18,146.138 1677.21,144.102 1679.23,142.635 1681.25,141.739 1683.27,141.418 1685.3,141.673 1687.32,142.503 1689.34,143.908 1691.37,145.886 1693.39,148.435 1695.41,151.549 1697.43,155.224 1699.46,159.454 1701.48,164.231 1703.5,169.547 1705.52,175.393 1707.55,181.758 1709.57,188.631 1711.59,196 1713.62,203.851 1715.64,212.17 1717.66,220.942 1719.68,230.151 1721.71,239.78 1723.73,249.811 1725.75,260.226 1727.78,271.006 1729.8,282.13 1731.82,293.579 1733.84,305.331 1735.87,317.365 1737.89,329.657 1739.91,342.186 1741.93,354.928 1743.96,367.86 1745.98,380.957 1748,394.197 1750.03,407.554 1752.05,421.004 1754.07,434.523 1756.09,448.085 1758.12,461.667 1760.14,475.244 1762.16,488.792 1764.19,502.286 1766.21,515.703 1768.23,529.019 1770.25,542.211 1772.28,555.256 1774.3,568.132 1776.32,580.818 1778.35,593.292 1780.37,605.533 1782.39,617.523 1784.41,629.242 1786.44,640.673 1788.46,651.797 1790.48,662.599 1792.5,673.063 1794.53,683.175 1796.55,692.922 1798.57,702.291 1800.6,711.272 1802.62,719.854 1804.64,728.029 1806.66,735.788 1808.69,743.127 1810.71,750.04 1812.73,756.522 1814.76,762.572 1816.78,768.188 1818.8,773.371 1820.82,778.121 1822.85,782.441 1824.87,786.336 1826.89,789.81 1828.91,792.871 1830.94,795.525 1832.96,797.781 1834.98,799.651 1837.01,801.144 1839.03,802.275 1841.05,803.055 1843.07,803.5 1845.1,803.625 1847.12,803.447 1849.14,802.983 1851.17,802.251 1853.19,801.271 1855.21,800.062 1857.23,798.644 1859.26,797.038 1861.28,795.266 1863.3,793.349 1865.32,791.31 1867.35,789.17 1869.37,786.952 1871.39,784.679 1873.42,782.373 1875.44,780.057 1877.46,777.752 1879.48,775.48 1881.51,773.262 1883.53,771.12 1885.55,769.074 1887.58,767.144 1889.6,765.347 1891.62,763.702 1893.64,762.226 1895.67,760.935 1897.69,759.844 1899.71,758.965 1901.74,758.311 1903.76,757.893 1905.78,757.721 1907.8,757.801 1909.83,758.14 1911.85,758.743 1913.87,759.612 1915.89,760.749 1917.92,762.152 1919.94,763.82 1921.96,765.748 1923.99,767.929 1926.01,770.356 1928.03,773.019 1930.05,775.905 1932.08,779.002 1934.1,782.294 1936.12,785.763 1938.15,789.39 1940.17,793.156 1942.19,797.038 1944.21,801.012 1946.24,805.053 1948.26,809.135 1950.28,813.23 1952.3,817.309 1954.33,821.343 1956.35,825.302 1958.37,829.153 1960.4,832.867 1962.42,836.41 1964.44,839.751 1966.46,842.858 1968.49,845.7 1970.51,848.244 1972.53,850.461 1974.56,852.32 1976.58,853.795 1978.6,854.857 1980.62,855.481 1982.65,855.643 1984.67,855.323 1986.69,854.5 1988.71,853.159 1990.74,851.286 1992.76,848.87 1994.78,845.904 1996.81,842.383 1998.83,838.308 2000.85,833.683 2002.87,828.516 2004.9,822.818 2006.92,816.606 2008.94,809.903 2010.97,802.733 2012.99,795.128 2015.01,787.124 2017.03,778.761 2019.06,770.085 2021.08,761.147 2023.1,752.003 2025.13,742.714 2027.15,733.343 2029.17,723.963 2031.19,714.646 2033.22,705.47 2035.24,696.52 2037.26,687.879 2039.28,679.637 2041.31,671.885 2043.33,664.717 2045.35,658.229 2047.38,652.516 2049.4,647.674 2051.42,643.801 2053.44,640.991 2055.47,639.337 2057.49,638.929 2059.51,639.853 2061.54,642.19 2063.56,646.016 2065.58,651.399 2067.6,658.398 2069.63,667.065 2071.65,677.439 2073.67,689.548 2075.69,703.408 2077.72,719.017 2079.74,736.361 2081.76,755.407 2083.79,776.105 2085.81,798.382 2087.83,822.148 2089.85,847.289 2091.88,873.667 2093.9,901.123 2095.92,929.469 2097.95,958.494 2099.97,987.96 2101.99,1017.6 2104.01,1047.13 2106.04,1076.22 2108.06,1104.53 2110.08,1131.7 2112.1,1157.32 2114.13,1180.98 2116.15,1202.23 2118.17,1220.64 2120.2,1235.71 2122.22,1246.97 2124.24,1253.93 2126.26,1256.1 2128.29,1252.98 2130.31,1244.11 2132.33,1229.02 2134.36,1207.3 2136.38,1178.55 2138.4,1142.44 2140.42,1098.69 2142.45,1047.12 2144.47,987.629 2146.49,920.236 2148.52,845.096 2150.54,762.52 2152.56,673.001 2154.58,577.241 2156.61,476.184 2158.63,371.044 2160.65,263.344 2162.67,154.954 2164.7,48.1351 2166.72,-54.416 2168.74,-149.515 2170.77,-233.435 2172.79,-301.849 2174.81,-349.762 2176.83,-371.447 2178.86,-360.363 2180.88,-309.08 2182.9,-209.187 2184.93,-51.2029 2186.95,175.531 2188.97,482.953 2190.99,884.403 2193.02,1394.75 2195.04,2030.51 2197.06,2810.01 2199.08,3753.53 2201.11,4883.49 2203.13,6224.58 2205.15,7804 2207.18,9651.61 2209.2,11800.2 2211.22,14285.7 2213.24,17147.3 2215.27,20428 2217.29,24174.5 2219.31,28438 2221.34,33273.8 2223.36,38742.4 2225.38,44909.4 2227.4,51845.8 2229.43,59628.8 2231.45,68341.8 2233.47,78075.1 2235.49,88926.3 2237.52,101001 2239.54,114412 2241.56,129284 2243.59,145746 2245.61,163943 2247.63,184026 2249.65,206161 2251.68,230523 2253.7,257303 2255.72,286703 2257.75,318942 2259.77,354253 2261.79,392887 2263.81,435110 2265.84,481209 2267.86,531491 2269.88,586281 2271.91,645929 2273.93,710808 2275.95,781314 2277.97,857872 2280,940933 2282.02,1.03098e+06 2284.04,1.12852e+06 2286.06,1.2341e+06 2288.09,1.3483e+06 2290.11,1.47173e+06 2292.13,1.60506e+06 "/>
<path clip-path="url(#clip660)" d="M282.146 1377.32 L978.104 1377.32 L978.104 1221.8 L282.146 1221.8  Z" fill="#ffffff" fill-rule="evenodd" fill-opacity="1"/>
<polyline clip-path="url(#clip660)" style="stroke:#000000; stroke-linecap:round; stroke-linejoin:round; stroke-width:4; stroke-opacity:1; fill:none" points="282.146,1377.32 978.104,1377.32 978.104,1221.8 282.146,1221.8 282.146,1377.32 "/>
<circle clip-path="url(#clip660)" cx="377.347" cy="1273.64" r="20.48" fill="#009af9" fill-rule="evenodd" fill-opacity="1" stroke="#000000" stroke-opacity="1" stroke-width="4.55111"/>
<path clip-path="url(#clip660)" d="M479.955 1257.63 L479.955 1264.99 L488.728 1264.99 L488.728 1268.3 L479.955 1268.3 L479.955 1282.37 Q479.955 1285.54 480.811 1286.45 Q481.691 1287.35 484.353 1287.35 L488.728 1287.35 L488.728 1290.92 L484.353 1290.92 Q479.422 1290.92 477.547 1289.09 Q475.672 1287.23 475.672 1282.37 L475.672 1268.3 L472.547 1268.3 L472.547 1264.99 L475.672 1264.99 L475.672 1257.63 L479.955 1257.63 Z" fill="#000000" fill-rule="nonzero" fill-opacity="1" /><path clip-path="url(#clip660)" d="M494.329 1264.99 L498.589 1264.99 L498.589 1290.92 L494.329 1290.92 L494.329 1264.99 M494.329 1254.9 L498.589 1254.9 L498.589 1260.29 L494.329 1260.29 L494.329 1254.9 Z" fill="#000000" fill-rule="nonzero" fill-opacity="1" /><path clip-path="url(#clip660)" d="M511.714 1257.63 L511.714 1264.99 L520.487 1264.99 L520.487 1268.3 L511.714 1268.3 L511.714 1282.37 Q511.714 1285.54 512.57 1286.45 Q513.45 1287.35 516.112 1287.35 L520.487 1287.35 L520.487 1290.92 L516.112 1290.92 Q511.181 1290.92 509.306 1289.09 Q507.431 1287.23 507.431 1282.37 L507.431 1268.3 L504.306 1268.3 L504.306 1264.99 L507.431 1264.99 L507.431 1257.63 L511.714 1257.63 Z" fill="#000000" fill-rule="nonzero" fill-opacity="1" /><path clip-path="url(#clip660)" d="M526.089 1264.99 L530.348 1264.99 L530.348 1290.92 L526.089 1290.92 L526.089 1264.99 M526.089 1254.9 L530.348 1254.9 L530.348 1260.29 L526.089 1260.29 L526.089 1254.9 Z" fill="#000000" fill-rule="nonzero" fill-opacity="1" /><path clip-path="url(#clip660)" d="M539.098 1254.9 L543.38 1254.9 L543.38 1276.17 L556.088 1264.99 L561.528 1264.99 L547.778 1277.12 L562.107 1290.92 L556.551 1290.92 L543.38 1278.25 L543.38 1290.92 L539.098 1290.92 L539.098 1254.9 Z" fill="#000000" fill-rule="nonzero" fill-opacity="1" /><path clip-path="url(#clip660)" d="M598.843 1268.92 L598.843 1254.9 L603.102 1254.9 L603.102 1290.92 L598.843 1290.92 L598.843 1287.03 Q597.5 1289.34 595.44 1290.48 Q593.403 1291.59 590.533 1291.59 Q585.834 1291.59 582.871 1287.84 Q579.931 1284.09 579.931 1277.98 Q579.931 1271.86 582.871 1268.11 Q585.834 1264.36 590.533 1264.36 Q593.403 1264.36 595.44 1265.5 Q597.5 1266.61 598.843 1268.92 M584.329 1277.98 Q584.329 1282.67 586.25 1285.36 Q588.195 1288.02 591.574 1288.02 Q594.954 1288.02 596.898 1285.36 Q598.843 1282.67 598.843 1277.98 Q598.843 1273.28 596.898 1270.61 Q594.954 1267.93 591.574 1267.93 Q588.195 1267.93 586.25 1270.61 Q584.329 1273.28 584.329 1277.98 Z" fill="#000000" fill-rule="nonzero" fill-opacity="1" /><path clip-path="url(#clip660)" d="M623.657 1277.88 Q618.495 1277.88 616.505 1279.06 Q614.514 1280.24 614.514 1283.09 Q614.514 1285.36 615.995 1286.7 Q617.5 1288.02 620.07 1288.02 Q623.611 1288.02 625.741 1285.52 Q627.894 1283 627.894 1278.83 L627.894 1277.88 L623.657 1277.88 M632.153 1276.12 L632.153 1290.92 L627.894 1290.92 L627.894 1286.98 Q626.435 1289.34 624.259 1290.48 Q622.083 1291.59 618.935 1291.59 Q614.954 1291.59 612.593 1289.36 Q610.255 1287.12 610.255 1283.37 Q610.255 1278.99 613.171 1276.77 Q616.111 1274.55 621.921 1274.55 L627.894 1274.55 L627.894 1274.13 Q627.894 1271.19 625.949 1269.6 Q624.028 1267.98 620.532 1267.98 Q618.31 1267.98 616.204 1268.51 Q614.097 1269.04 612.153 1270.11 L612.153 1266.17 Q614.491 1265.27 616.69 1264.83 Q618.889 1264.36 620.972 1264.36 Q626.597 1264.36 629.375 1267.28 Q632.153 1270.2 632.153 1276.12 Z" fill="#000000" fill-rule="nonzero" fill-opacity="1" /><path clip-path="url(#clip660)" d="M645.139 1257.63 L645.139 1264.99 L653.912 1264.99 L653.912 1268.3 L645.139 1268.3 L645.139 1282.37 Q645.139 1285.54 645.995 1286.45 Q646.875 1287.35 649.537 1287.35 L653.912 1287.35 L653.912 1290.92 L649.537 1290.92 Q644.606 1290.92 642.731 1289.09 Q640.856 1287.23 640.856 1282.37 L640.856 1268.3 L637.731 1268.3 L637.731 1264.99 L640.856 1264.99 L640.856 1257.63 L645.139 1257.63 Z" fill="#000000" fill-rule="nonzero" fill-opacity="1" /><path clip-path="url(#clip660)" d="M671.296 1277.88 Q666.134 1277.88 664.143 1279.06 Q662.153 1280.24 662.153 1283.09 Q662.153 1285.36 663.634 1286.7 Q665.139 1288.02 667.708 1288.02 Q671.25 1288.02 673.379 1285.52 Q675.532 1283 675.532 1278.83 L675.532 1277.88 L671.296 1277.88 M679.791 1276.12 L679.791 1290.92 L675.532 1290.92 L675.532 1286.98 Q674.074 1289.34 671.898 1290.48 Q669.722 1291.59 666.574 1291.59 Q662.592 1291.59 660.231 1289.36 Q657.893 1287.12 657.893 1283.37 Q657.893 1278.99 660.81 1276.77 Q663.75 1274.55 669.56 1274.55 L675.532 1274.55 L675.532 1274.13 Q675.532 1271.19 673.588 1269.6 Q671.666 1267.98 668.171 1267.98 Q665.949 1267.98 663.842 1268.51 Q661.736 1269.04 659.792 1270.11 L659.792 1266.17 Q662.129 1265.27 664.329 1264.83 Q666.528 1264.36 668.611 1264.36 Q674.236 1264.36 677.014 1267.28 Q679.791 1270.2 679.791 1276.12 Z" fill="#000000" fill-rule="nonzero" fill-opacity="1" /><polyline clip-path="url(#clip660)" style="stroke:#e26f46; stroke-linecap:round; stroke-linejoin:round; stroke-width:8; stroke-opacity:1; fill:none" points="305.946,1325.48 448.747,1325.48 "/>
<path clip-path="url(#clip660)" d="M472.547 1308.2 L477.223 1308.2 L477.223 1342.76 L472.547 1342.76 L472.547 1308.2 Z" fill="#000000" fill-rule="nonzero" fill-opacity="1" /><path clip-path="url(#clip660)" d="M507.894 1327.11 L507.894 1342.76 L503.635 1342.76 L503.635 1327.25 Q503.635 1323.57 502.2 1321.74 Q500.765 1319.91 497.894 1319.91 Q494.445 1319.91 492.454 1322.11 Q490.464 1324.31 490.464 1328.1 L490.464 1342.76 L486.181 1342.76 L486.181 1316.83 L490.464 1316.83 L490.464 1320.86 Q491.992 1318.52 494.052 1317.36 Q496.135 1316.2 498.843 1316.2 Q503.311 1316.2 505.603 1318.98 Q507.894 1321.74 507.894 1327.11 Z" fill="#000000" fill-rule="nonzero" fill-opacity="1" /><path clip-path="url(#clip660)" d="M520.602 1309.47 L520.602 1316.83 L529.376 1316.83 L529.376 1320.14 L520.602 1320.14 L520.602 1334.21 Q520.602 1337.38 521.459 1338.29 Q522.339 1339.19 525.001 1339.19 L529.376 1339.19 L529.376 1342.76 L525.001 1342.76 Q520.07 1342.76 518.195 1340.93 Q516.32 1339.07 516.32 1334.21 L516.32 1320.14 L513.195 1320.14 L513.195 1316.83 L516.32 1316.83 L516.32 1309.47 L520.602 1309.47 Z" fill="#000000" fill-rule="nonzero" fill-opacity="1" /><path clip-path="url(#clip660)" d="M557.153 1328.73 L557.153 1330.81 L537.57 1330.81 Q537.848 1335.21 540.209 1337.52 Q542.593 1339.82 546.829 1339.82 Q549.283 1339.82 551.575 1339.21 Q553.889 1338.61 556.158 1337.41 L556.158 1341.44 Q553.866 1342.41 551.459 1342.92 Q549.051 1343.43 546.575 1343.43 Q540.371 1343.43 536.737 1339.82 Q533.126 1336.2 533.126 1330.05 Q533.126 1323.68 536.551 1319.95 Q540.001 1316.2 545.834 1316.2 Q551.065 1316.2 554.098 1319.58 Q557.153 1322.94 557.153 1328.73 M552.894 1327.48 Q552.848 1323.98 550.926 1321.9 Q549.028 1319.82 545.88 1319.82 Q542.315 1319.82 540.163 1321.83 Q538.033 1323.84 537.709 1327.5 L552.894 1327.48 Z" fill="#000000" fill-rule="nonzero" fill-opacity="1" /><path clip-path="url(#clip660)" d="M579.167 1320.81 Q578.449 1320.39 577.593 1320.21 Q576.76 1320 575.741 1320 Q572.13 1320 570.186 1322.36 Q568.264 1324.7 568.264 1329.1 L568.264 1342.76 L563.982 1342.76 L563.982 1316.83 L568.264 1316.83 L568.264 1320.86 Q569.607 1318.5 571.76 1317.36 Q573.912 1316.2 576.991 1316.2 Q577.431 1316.2 577.963 1316.27 Q578.496 1316.32 579.144 1316.44 L579.167 1320.81 Z" fill="#000000" fill-rule="nonzero" fill-opacity="1" /><path clip-path="url(#clip660)" d="M587.755 1338.87 L587.755 1352.62 L583.472 1352.62 L583.472 1316.83 L587.755 1316.83 L587.755 1320.76 Q589.097 1318.45 591.134 1317.34 Q593.195 1316.2 596.042 1316.2 Q600.764 1316.2 603.704 1319.95 Q606.667 1323.7 606.667 1329.82 Q606.667 1335.93 603.704 1339.68 Q600.764 1343.43 596.042 1343.43 Q593.195 1343.43 591.134 1342.32 Q589.097 1341.18 587.755 1338.87 M602.246 1329.82 Q602.246 1325.12 600.301 1322.45 Q598.38 1319.77 595 1319.77 Q591.621 1319.77 589.676 1322.45 Q587.755 1325.12 587.755 1329.82 Q587.755 1334.51 589.676 1337.2 Q591.621 1339.86 595 1339.86 Q598.38 1339.86 600.301 1337.2 Q602.246 1334.51 602.246 1329.82 Z" fill="#000000" fill-rule="nonzero" fill-opacity="1" /><path clip-path="url(#clip660)" d="M623.773 1319.82 Q620.347 1319.82 618.357 1322.5 Q616.366 1325.16 616.366 1329.82 Q616.366 1334.47 618.333 1337.15 Q620.324 1339.82 623.773 1339.82 Q627.176 1339.82 629.167 1337.13 Q631.157 1334.45 631.157 1329.82 Q631.157 1325.21 629.167 1322.52 Q627.176 1319.82 623.773 1319.82 M623.773 1316.2 Q629.329 1316.2 632.5 1319.82 Q635.671 1323.43 635.671 1329.82 Q635.671 1336.18 632.5 1339.82 Q629.329 1343.43 623.773 1343.43 Q618.195 1343.43 615.023 1339.82 Q611.875 1336.18 611.875 1329.82 Q611.875 1323.43 615.023 1319.82 Q618.195 1316.2 623.773 1316.2 Z" fill="#000000" fill-rule="nonzero" fill-opacity="1" /><path clip-path="url(#clip660)" d="M642.731 1306.74 L646.991 1306.74 L646.991 1342.76 L642.731 1342.76 L642.731 1306.74 Z" fill="#000000" fill-rule="nonzero" fill-opacity="1" /><path clip-path="url(#clip660)" d="M667.685 1329.72 Q662.523 1329.72 660.532 1330.9 Q658.542 1332.08 658.542 1334.93 Q658.542 1337.2 660.023 1338.54 Q661.528 1339.86 664.097 1339.86 Q667.639 1339.86 669.768 1337.36 Q671.921 1334.84 671.921 1330.67 L671.921 1329.72 L667.685 1329.72 M676.18 1327.96 L676.18 1342.76 L671.921 1342.76 L671.921 1338.82 Q670.463 1341.18 668.287 1342.32 Q666.111 1343.43 662.963 1343.43 Q658.981 1343.43 656.62 1341.2 Q654.282 1338.96 654.282 1335.21 Q654.282 1330.83 657.199 1328.61 Q660.139 1326.39 665.949 1326.39 L671.921 1326.39 L671.921 1325.97 Q671.921 1323.03 669.977 1321.44 Q668.055 1319.82 664.56 1319.82 Q662.338 1319.82 660.231 1320.35 Q658.125 1320.88 656.18 1321.95 L656.18 1318.01 Q658.518 1317.11 660.717 1316.67 Q662.917 1316.2 665 1316.2 Q670.625 1316.2 673.403 1319.12 Q676.18 1322.04 676.18 1327.96 Z" fill="#000000" fill-rule="nonzero" fill-opacity="1" /><path clip-path="url(#clip660)" d="M701.481 1317.59 L701.481 1321.62 Q699.676 1320.7 697.731 1320.23 Q695.787 1319.77 693.703 1319.77 Q690.532 1319.77 688.935 1320.74 Q687.361 1321.71 687.361 1323.66 Q687.361 1325.14 688.495 1326 Q689.629 1326.83 693.055 1327.59 L694.514 1327.92 Q699.051 1328.89 700.949 1330.67 Q702.87 1332.43 702.87 1335.6 Q702.87 1339.21 700 1341.32 Q697.152 1343.43 692.152 1343.43 Q690.069 1343.43 687.801 1343.01 Q685.555 1342.62 683.055 1341.81 L683.055 1337.41 Q685.416 1338.63 687.708 1339.26 Q690 1339.86 692.245 1339.86 Q695.254 1339.86 696.875 1338.84 Q698.495 1337.8 698.495 1335.93 Q698.495 1334.19 697.314 1333.26 Q696.157 1332.34 692.199 1331.48 L690.717 1331.14 Q686.759 1330.3 685 1328.59 Q683.24 1326.85 683.24 1323.84 Q683.24 1320.19 685.833 1318.2 Q688.426 1316.2 693.194 1316.2 Q695.555 1316.2 697.639 1316.55 Q699.722 1316.9 701.481 1317.59 Z" fill="#000000" fill-rule="nonzero" fill-opacity="1" /><path clip-path="url(#clip660)" d="M709.652 1316.83 L713.912 1316.83 L713.912 1342.76 L709.652 1342.76 L709.652 1316.83 M709.652 1306.74 L713.912 1306.74 L713.912 1312.13 L709.652 1312.13 L709.652 1306.74 Z" fill="#000000" fill-rule="nonzero" fill-opacity="1" /><path clip-path="url(#clip660)" d="M738.078 1308.2 L742.754 1308.2 L742.754 1338.82 L759.583 1338.82 L759.583 1342.76 L738.078 1342.76 L738.078 1308.2 Z" fill="#000000" fill-rule="nonzero" fill-opacity="1" /><path clip-path="url(#clip660)" d="M776.087 1329.72 Q770.925 1329.72 768.934 1330.9 Q766.944 1332.08 766.944 1334.93 Q766.944 1337.2 768.425 1338.54 Q769.93 1339.86 772.499 1339.86 Q776.041 1339.86 778.171 1337.36 Q780.323 1334.84 780.323 1330.67 L780.323 1329.72 L776.087 1329.72 M784.583 1327.96 L784.583 1342.76 L780.323 1342.76 L780.323 1338.82 Q778.865 1341.18 776.689 1342.32 Q774.513 1343.43 771.365 1343.43 Q767.384 1343.43 765.022 1341.2 Q762.684 1338.96 762.684 1335.21 Q762.684 1330.83 765.601 1328.61 Q768.541 1326.39 774.351 1326.39 L780.323 1326.39 L780.323 1325.97 Q780.323 1323.03 778.379 1321.44 Q776.458 1319.82 772.962 1319.82 Q770.74 1319.82 768.634 1320.35 Q766.527 1320.88 764.583 1321.95 L764.583 1318.01 Q766.921 1317.11 769.12 1316.67 Q771.319 1316.2 773.402 1316.2 Q779.027 1316.2 781.805 1319.12 Q784.583 1322.04 784.583 1327.96 Z" fill="#000000" fill-rule="nonzero" fill-opacity="1" /><path clip-path="url(#clip660)" d="M810.416 1329.49 Q810.416 1324.86 808.494 1322.32 Q806.596 1319.77 803.147 1319.77 Q799.721 1319.77 797.8 1322.32 Q795.902 1324.86 795.902 1329.49 Q795.902 1334.1 797.8 1336.64 Q799.721 1339.19 803.147 1339.19 Q806.596 1339.19 808.494 1336.64 Q810.416 1334.1 810.416 1329.49 M814.675 1339.54 Q814.675 1346.16 811.735 1349.38 Q808.795 1352.62 802.731 1352.62 Q800.485 1352.62 798.494 1352.27 Q796.504 1351.95 794.629 1351.25 L794.629 1347.11 Q796.504 1348.13 798.332 1348.61 Q800.161 1349.1 802.059 1349.1 Q806.249 1349.1 808.332 1346.9 Q810.416 1344.72 810.416 1340.3 L810.416 1338.2 Q809.096 1340.49 807.036 1341.62 Q804.976 1342.76 802.106 1342.76 Q797.337 1342.76 794.42 1339.12 Q791.504 1335.49 791.504 1329.49 Q791.504 1323.47 794.42 1319.84 Q797.337 1316.2 802.106 1316.2 Q804.976 1316.2 807.036 1317.34 Q809.096 1318.47 810.416 1320.76 L810.416 1316.83 L814.675 1316.83 L814.675 1339.54 Z" fill="#000000" fill-rule="nonzero" fill-opacity="1" /><path clip-path="url(#clip660)" d="M838.471 1320.81 Q837.754 1320.39 836.897 1320.21 Q836.064 1320 835.045 1320 Q831.434 1320 829.49 1322.36 Q827.568 1324.7 827.568 1329.1 L827.568 1342.76 L823.286 1342.76 L823.286 1316.83 L827.568 1316.83 L827.568 1320.86 Q828.911 1318.5 831.064 1317.36 Q833.217 1316.2 836.295 1316.2 Q836.735 1316.2 837.267 1316.27 Q837.8 1316.32 838.448 1316.44 L838.471 1320.81 Z" fill="#000000" fill-rule="nonzero" fill-opacity="1" /><path clip-path="url(#clip660)" d="M854.721 1329.72 Q849.559 1329.72 847.568 1330.9 Q845.578 1332.08 845.578 1334.93 Q845.578 1337.2 847.059 1338.54 Q848.564 1339.86 851.133 1339.86 Q854.675 1339.86 856.804 1337.36 Q858.957 1334.84 858.957 1330.67 L858.957 1329.72 L854.721 1329.72 M863.216 1327.96 L863.216 1342.76 L858.957 1342.76 L858.957 1338.82 Q857.499 1341.18 855.323 1342.32 Q853.147 1343.43 849.999 1343.43 Q846.017 1343.43 843.656 1341.2 Q841.318 1338.96 841.318 1335.21 Q841.318 1330.83 844.235 1328.61 Q847.175 1326.39 852.985 1326.39 L858.957 1326.39 L858.957 1325.97 Q858.957 1323.03 857.013 1321.44 Q855.091 1319.82 851.596 1319.82 Q849.374 1319.82 847.267 1320.35 Q845.161 1320.88 843.216 1321.95 L843.216 1318.01 Q845.554 1317.11 847.753 1316.67 Q849.953 1316.2 852.036 1316.2 Q857.661 1316.2 860.439 1319.12 Q863.216 1322.04 863.216 1327.96 Z" fill="#000000" fill-rule="nonzero" fill-opacity="1" /><path clip-path="url(#clip660)" d="M893.54 1327.11 L893.54 1342.76 L889.281 1342.76 L889.281 1327.25 Q889.281 1323.57 887.846 1321.74 Q886.411 1319.91 883.54 1319.91 Q880.091 1319.91 878.101 1322.11 Q876.11 1324.31 876.11 1328.1 L876.11 1342.76 L871.827 1342.76 L871.827 1316.83 L876.11 1316.83 L876.11 1320.86 Q877.638 1318.52 879.698 1317.36 Q881.781 1316.2 884.489 1316.2 Q888.957 1316.2 891.249 1318.98 Q893.54 1321.74 893.54 1327.11 Z" fill="#000000" fill-rule="nonzero" fill-opacity="1" /><path clip-path="url(#clip660)" d="M919.096 1329.49 Q919.096 1324.86 917.174 1322.32 Q915.276 1319.77 911.827 1319.77 Q908.401 1319.77 906.48 1322.32 Q904.582 1324.86 904.582 1329.49 Q904.582 1334.1 906.48 1336.64 Q908.401 1339.19 911.827 1339.19 Q915.276 1339.19 917.174 1336.64 Q919.096 1334.1 919.096 1329.49 M923.355 1339.54 Q923.355 1346.16 920.415 1349.38 Q917.475 1352.62 911.411 1352.62 Q909.165 1352.62 907.174 1352.27 Q905.184 1351.95 903.309 1351.25 L903.309 1347.11 Q905.184 1348.13 907.012 1348.61 Q908.841 1349.1 910.739 1349.1 Q914.929 1349.1 917.012 1346.9 Q919.096 1344.72 919.096 1340.3 L919.096 1338.2 Q917.776 1340.49 915.716 1341.62 Q913.656 1342.76 910.786 1342.76 Q906.017 1342.76 903.1 1339.12 Q900.184 1335.49 900.184 1329.49 Q900.184 1323.47 903.1 1319.84 Q906.017 1316.2 910.786 1316.2 Q913.656 1316.2 915.716 1317.34 Q917.776 1318.47 919.096 1320.76 L919.096 1316.83 L923.355 1316.83 L923.355 1339.54 Z" fill="#000000" fill-rule="nonzero" fill-opacity="1" /><path clip-path="url(#clip660)" d="M954.304 1328.73 L954.304 1330.81 L934.721 1330.81 Q934.998 1335.21 937.359 1337.52 Q939.744 1339.82 943.98 1339.82 Q946.434 1339.82 948.725 1339.21 Q951.04 1338.61 953.308 1337.41 L953.308 1341.44 Q951.017 1342.41 948.609 1342.92 Q946.202 1343.43 943.725 1343.43 Q937.522 1343.43 933.887 1339.82 Q930.276 1336.2 930.276 1330.05 Q930.276 1323.68 933.702 1319.95 Q937.151 1316.2 942.984 1316.2 Q948.216 1316.2 951.248 1319.58 Q954.304 1322.94 954.304 1328.73 M950.045 1327.48 Q949.998 1323.98 948.077 1321.9 Q946.179 1319.82 943.031 1319.82 Q939.466 1319.82 937.313 1321.83 Q935.184 1323.84 934.859 1327.5 L950.045 1327.48 Z" fill="#000000" fill-rule="nonzero" fill-opacity="1" /></svg>
