<?xml version="1.0" encoding="utf-8"?>
<svg xmlns="http://www.w3.org/2000/svg" xmlns:xlink="http://www.w3.org/1999/xlink" width="600" height="400" viewBox="0 0 2400 1600">
<defs>
  <clipPath id="clip390">
    <rect x="0" y="0" width="2400" height="1600"/>
  </clipPath>
</defs>
<path clip-path="url(#clip390)" d="M0 1600 L2400 1600 L2400 0 L0 0  Z" fill="#ffffff" fill-rule="evenodd" fill-opacity="1"/>
<defs>
  <clipPath id="clip391">
    <rect x="480" y="0" width="1681" height="1600"/>
  </clipPath>
</defs>
<path clip-path="url(#clip390)" d="M242.135 1423.18 L2352.76 1423.18 L2352.76 47.2441 L242.135 47.2441  Z" fill="#ffffff" fill-rule="evenodd" fill-opacity="1"/>
<defs>
  <clipPath id="clip392">
    <rect x="242" y="47" width="2112" height="1377"/>
  </clipPath>
</defs>
<polyline clip-path="url(#clip392)" style="stroke:#000000; stroke-linecap:round; stroke-linejoin:round; stroke-width:2; stroke-opacity:0.1; fill:none" points="301.869,1423.18 301.869,47.2441 "/>
<polyline clip-path="url(#clip392)" style="stroke:#000000; stroke-linecap:round; stroke-linejoin:round; stroke-width:2; stroke-opacity:0.1; fill:none" points="700.1,1423.18 700.1,47.2441 "/>
<polyline clip-path="url(#clip392)" style="stroke:#000000; stroke-linecap:round; stroke-linejoin:round; stroke-width:2; stroke-opacity:0.1; fill:none" points="1098.33,1423.18 1098.33,47.2441 "/>
<polyline clip-path="url(#clip392)" style="stroke:#000000; stroke-linecap:round; stroke-linejoin:round; stroke-width:2; stroke-opacity:0.1; fill:none" points="1496.56,1423.18 1496.56,47.2441 "/>
<polyline clip-path="url(#clip392)" style="stroke:#000000; stroke-linecap:round; stroke-linejoin:round; stroke-width:2; stroke-opacity:0.1; fill:none" points="1894.79,1423.18 1894.79,47.2441 "/>
<polyline clip-path="url(#clip392)" style="stroke:#000000; stroke-linecap:round; stroke-linejoin:round; stroke-width:2; stroke-opacity:0.1; fill:none" points="2293.02,1423.18 2293.02,47.2441 "/>
<polyline clip-path="url(#clip390)" style="stroke:#000000; stroke-linecap:round; stroke-linejoin:round; stroke-width:4; stroke-opacity:1; fill:none" points="242.135,1423.18 2352.76,1423.18 "/>
<polyline clip-path="url(#clip390)" style="stroke:#000000; stroke-linecap:round; stroke-linejoin:round; stroke-width:4; stroke-opacity:1; fill:none" points="301.869,1423.18 301.869,1404.28 "/>
<polyline clip-path="url(#clip390)" style="stroke:#000000; stroke-linecap:round; stroke-linejoin:round; stroke-width:4; stroke-opacity:1; fill:none" points="700.1,1423.18 700.1,1404.28 "/>
<polyline clip-path="url(#clip390)" style="stroke:#000000; stroke-linecap:round; stroke-linejoin:round; stroke-width:4; stroke-opacity:1; fill:none" points="1098.33,1423.18 1098.33,1404.28 "/>
<polyline clip-path="url(#clip390)" style="stroke:#000000; stroke-linecap:round; stroke-linejoin:round; stroke-width:4; stroke-opacity:1; fill:none" points="1496.56,1423.18 1496.56,1404.28 "/>
<polyline clip-path="url(#clip390)" style="stroke:#000000; stroke-linecap:round; stroke-linejoin:round; stroke-width:4; stroke-opacity:1; fill:none" points="1894.79,1423.18 1894.79,1404.28 "/>
<polyline clip-path="url(#clip390)" style="stroke:#000000; stroke-linecap:round; stroke-linejoin:round; stroke-width:4; stroke-opacity:1; fill:none" points="2293.02,1423.18 2293.02,1404.28 "/>
<path clip-path="url(#clip390)" d="M301.869 1454.1 Q298.258 1454.1 296.429 1457.66 Q294.624 1461.2 294.624 1468.33 Q294.624 1475.44 296.429 1479.01 Q298.258 1482.55 301.869 1482.55 Q305.503 1482.55 307.309 1479.01 Q309.138 1475.44 309.138 1468.33 Q309.138 1461.2 307.309 1457.66 Q305.503 1454.1 301.869 1454.1 M301.869 1450.39 Q307.679 1450.39 310.735 1455 Q313.814 1459.58 313.814 1468.33 Q313.814 1477.06 310.735 1481.67 Q307.679 1486.25 301.869 1486.25 Q296.059 1486.25 292.98 1481.67 Q289.925 1477.06 289.925 1468.33 Q289.925 1459.58 292.98 1455 Q296.059 1450.39 301.869 1450.39 Z" fill="#000000" fill-rule="nonzero" fill-opacity="1" /><path clip-path="url(#clip390)" d="M690.482 1481.64 L698.12 1481.64 L698.12 1455.28 L689.81 1456.95 L689.81 1452.69 L698.074 1451.02 L702.75 1451.02 L702.75 1481.64 L710.389 1481.64 L710.389 1485.58 L690.482 1485.58 L690.482 1481.64 Z" fill="#000000" fill-rule="nonzero" fill-opacity="1" /><path clip-path="url(#clip390)" d="M1092.98 1481.64 L1109.3 1481.64 L1109.3 1485.58 L1087.36 1485.58 L1087.36 1481.64 Q1090.02 1478.89 1094.6 1474.26 Q1099.21 1469.61 1100.39 1468.27 Q1102.64 1465.74 1103.52 1464.01 Q1104.42 1462.25 1104.42 1460.56 Q1104.42 1457.8 1102.47 1456.07 Q1100.55 1454.33 1097.45 1454.33 Q1095.25 1454.33 1092.8 1455.09 Q1090.37 1455.86 1087.59 1457.41 L1087.59 1452.69 Q1090.41 1451.55 1092.87 1450.97 Q1095.32 1450.39 1097.36 1450.39 Q1102.73 1450.39 1105.92 1453.08 Q1109.12 1455.77 1109.12 1460.26 Q1109.12 1462.39 1108.31 1464.31 Q1107.52 1466.2 1105.41 1468.8 Q1104.83 1469.47 1101.73 1472.69 Q1098.63 1475.88 1092.98 1481.64 Z" fill="#000000" fill-rule="nonzero" fill-opacity="1" /><path clip-path="url(#clip390)" d="M1500.81 1466.95 Q1504.16 1467.66 1506.04 1469.93 Q1507.94 1472.2 1507.94 1475.53 Q1507.94 1480.65 1504.42 1483.45 Q1500.9 1486.25 1494.42 1486.25 Q1492.24 1486.25 1489.93 1485.81 Q1487.64 1485.39 1485.18 1484.54 L1485.18 1480.02 Q1487.13 1481.16 1489.44 1481.74 Q1491.76 1482.32 1494.28 1482.32 Q1498.68 1482.32 1500.97 1480.58 Q1503.28 1478.84 1503.28 1475.53 Q1503.28 1472.48 1501.13 1470.77 Q1499 1469.03 1495.18 1469.03 L1491.16 1469.03 L1491.16 1465.19 L1495.37 1465.19 Q1498.82 1465.19 1500.65 1463.82 Q1502.47 1462.43 1502.47 1459.84 Q1502.47 1457.18 1500.58 1455.77 Q1498.7 1454.33 1495.18 1454.33 Q1493.26 1454.33 1491.06 1454.75 Q1488.86 1455.16 1486.22 1456.04 L1486.22 1451.88 Q1488.89 1451.14 1491.2 1450.77 Q1493.54 1450.39 1495.6 1450.39 Q1500.92 1450.39 1504.03 1452.83 Q1507.13 1455.23 1507.13 1459.35 Q1507.13 1462.22 1505.48 1464.21 Q1503.84 1466.18 1500.81 1466.95 Z" fill="#000000" fill-rule="nonzero" fill-opacity="1" /><path clip-path="url(#clip390)" d="M1897.8 1455.09 L1885.99 1473.54 L1897.8 1473.54 L1897.8 1455.09 M1896.57 1451.02 L1902.45 1451.02 L1902.45 1473.54 L1907.38 1473.54 L1907.38 1477.43 L1902.45 1477.43 L1902.45 1485.58 L1897.8 1485.58 L1897.8 1477.43 L1882.2 1477.43 L1882.2 1472.92 L1896.57 1451.02 Z" fill="#000000" fill-rule="nonzero" fill-opacity="1" /><path clip-path="url(#clip390)" d="M2283.3 1451.02 L2301.66 1451.02 L2301.66 1454.96 L2287.58 1454.96 L2287.58 1463.43 Q2288.6 1463.08 2289.62 1462.92 Q2290.64 1462.73 2291.66 1462.73 Q2297.44 1462.73 2300.82 1465.9 Q2304.2 1469.08 2304.2 1474.49 Q2304.2 1480.07 2300.73 1483.17 Q2297.26 1486.25 2290.94 1486.25 Q2288.76 1486.25 2286.49 1485.88 Q2284.25 1485.51 2281.84 1484.77 L2281.84 1480.07 Q2283.92 1481.2 2286.15 1481.76 Q2288.37 1482.32 2290.85 1482.32 Q2294.85 1482.32 2297.19 1480.21 Q2299.53 1478.1 2299.53 1474.49 Q2299.53 1470.88 2297.19 1468.77 Q2294.85 1466.67 2290.85 1466.67 Q2288.97 1466.67 2287.1 1467.08 Q2285.24 1467.5 2283.3 1468.38 L2283.3 1451.02 Z" fill="#000000" fill-rule="nonzero" fill-opacity="1" /><path clip-path="url(#clip390)" d="M1314.06 1532.4 L1301.17 1549.74 L1314.73 1568.04 L1307.82 1568.04 L1297.45 1554.04 L1287.07 1568.04 L1280.16 1568.04 L1294.01 1549.39 L1281.34 1532.4 L1288.25 1532.4 L1297.7 1545.1 L1307.15 1532.4 L1314.06 1532.4 Z" fill="#000000" fill-rule="nonzero" fill-opacity="1" /><polyline clip-path="url(#clip392)" style="stroke:#000000; stroke-linecap:round; stroke-linejoin:round; stroke-width:2; stroke-opacity:0.1; fill:none" points="242.135,1107.08 2352.76,1107.08 "/>
<polyline clip-path="url(#clip392)" style="stroke:#000000; stroke-linecap:round; stroke-linejoin:round; stroke-width:2; stroke-opacity:0.1; fill:none" points="242.135,773.128 2352.76,773.128 "/>
<polyline clip-path="url(#clip392)" style="stroke:#000000; stroke-linecap:round; stroke-linejoin:round; stroke-width:2; stroke-opacity:0.1; fill:none" points="242.135,439.177 2352.76,439.177 "/>
<polyline clip-path="url(#clip392)" style="stroke:#000000; stroke-linecap:round; stroke-linejoin:round; stroke-width:2; stroke-opacity:0.1; fill:none" points="242.135,105.226 2352.76,105.226 "/>
<polyline clip-path="url(#clip390)" style="stroke:#000000; stroke-linecap:round; stroke-linejoin:round; stroke-width:4; stroke-opacity:1; fill:none" points="242.135,1423.18 242.135,47.2441 "/>
<polyline clip-path="url(#clip390)" style="stroke:#000000; stroke-linecap:round; stroke-linejoin:round; stroke-width:4; stroke-opacity:1; fill:none" points="242.135,1107.08 261.032,1107.08 "/>
<polyline clip-path="url(#clip390)" style="stroke:#000000; stroke-linecap:round; stroke-linejoin:round; stroke-width:4; stroke-opacity:1; fill:none" points="242.135,773.128 261.032,773.128 "/>
<polyline clip-path="url(#clip390)" style="stroke:#000000; stroke-linecap:round; stroke-linejoin:round; stroke-width:4; stroke-opacity:1; fill:none" points="242.135,439.177 261.032,439.177 "/>
<polyline clip-path="url(#clip390)" style="stroke:#000000; stroke-linecap:round; stroke-linejoin:round; stroke-width:4; stroke-opacity:1; fill:none" points="242.135,105.226 261.032,105.226 "/>
<path clip-path="url(#clip390)" d="M114.26 1107.53 L143.936 1107.53 L143.936 1111.47 L114.26 1111.47 L114.26 1107.53 Z" fill="#000000" fill-rule="nonzero" fill-opacity="1" /><path clip-path="url(#clip390)" d="M158.056 1120.42 L174.376 1120.42 L174.376 1124.36 L152.431 1124.36 L152.431 1120.42 Q155.093 1117.67 159.677 1113.04 Q164.283 1108.39 165.464 1107.04 Q167.709 1104.52 168.589 1102.79 Q169.491 1101.03 169.491 1099.34 Q169.491 1096.58 167.547 1094.85 Q165.626 1093.11 162.524 1093.11 Q160.325 1093.11 157.871 1093.87 Q155.44 1094.64 152.663 1096.19 L152.663 1091.47 Q155.487 1090.33 157.94 1089.75 Q160.394 1089.17 162.431 1089.17 Q167.802 1089.17 170.996 1091.86 Q174.19 1094.54 174.19 1099.04 Q174.19 1101.16 173.38 1103.09 Q172.593 1104.98 170.487 1107.58 Q169.908 1108.25 166.806 1111.47 Q163.704 1114.66 158.056 1120.42 Z" fill="#000000" fill-rule="nonzero" fill-opacity="1" /><path clip-path="url(#clip390)" d="M194.19 1092.88 Q190.579 1092.88 188.75 1096.44 Q186.945 1099.98 186.945 1107.11 Q186.945 1114.22 188.75 1117.79 Q190.579 1121.33 194.19 1121.33 Q197.825 1121.33 199.63 1117.79 Q201.459 1114.22 201.459 1107.11 Q201.459 1099.98 199.63 1096.44 Q197.825 1092.88 194.19 1092.88 M194.19 1089.17 Q200 1089.17 203.056 1093.78 Q206.135 1098.36 206.135 1107.11 Q206.135 1115.84 203.056 1120.45 Q200 1125.03 194.19 1125.03 Q188.38 1125.03 185.301 1120.45 Q182.246 1115.84 182.246 1107.11 Q182.246 1098.36 185.301 1093.78 Q188.38 1089.17 194.19 1089.17 Z" fill="#000000" fill-rule="nonzero" fill-opacity="1" /><path clip-path="url(#clip390)" d="M194.19 758.927 Q190.579 758.927 188.75 762.492 Q186.945 766.033 186.945 773.163 Q186.945 780.269 188.75 783.834 Q190.579 787.376 194.19 787.376 Q197.825 787.376 199.63 783.834 Q201.459 780.269 201.459 773.163 Q201.459 766.033 199.63 762.492 Q197.825 758.927 194.19 758.927 M194.19 755.223 Q200 755.223 203.056 759.83 Q206.135 764.413 206.135 773.163 Q206.135 781.89 203.056 786.496 Q200 791.079 194.19 791.079 Q188.38 791.079 185.301 786.496 Q182.246 781.89 182.246 773.163 Q182.246 764.413 185.301 759.83 Q188.38 755.223 194.19 755.223 Z" fill="#000000" fill-rule="nonzero" fill-opacity="1" /><path clip-path="url(#clip390)" d="M158.056 452.522 L174.376 452.522 L174.376 456.457 L152.431 456.457 L152.431 452.522 Q155.093 449.767 159.677 445.137 Q164.283 440.485 165.464 439.142 Q167.709 436.619 168.589 434.883 Q169.491 433.124 169.491 431.434 Q169.491 428.679 167.547 426.943 Q165.626 425.207 162.524 425.207 Q160.325 425.207 157.871 425.971 Q155.44 426.735 152.663 428.286 L152.663 423.563 Q155.487 422.429 157.94 421.85 Q160.394 421.272 162.431 421.272 Q167.802 421.272 170.996 423.957 Q174.19 426.642 174.19 431.133 Q174.19 433.262 173.38 435.184 Q172.593 437.082 170.487 439.674 Q169.908 440.346 166.806 443.563 Q163.704 446.758 158.056 452.522 Z" fill="#000000" fill-rule="nonzero" fill-opacity="1" /><path clip-path="url(#clip390)" d="M194.19 424.975 Q190.579 424.975 188.75 428.54 Q186.945 432.082 186.945 439.212 Q186.945 446.318 188.75 449.883 Q190.579 453.424 194.19 453.424 Q197.825 453.424 199.63 449.883 Q201.459 446.318 201.459 439.212 Q201.459 432.082 199.63 428.54 Q197.825 424.975 194.19 424.975 M194.19 421.272 Q200 421.272 203.056 425.878 Q206.135 430.462 206.135 439.212 Q206.135 447.938 203.056 452.545 Q200 457.128 194.19 457.128 Q188.38 457.128 185.301 452.545 Q182.246 447.938 182.246 439.212 Q182.246 430.462 185.301 425.878 Q188.38 421.272 194.19 421.272 Z" fill="#000000" fill-rule="nonzero" fill-opacity="1" /><path clip-path="url(#clip390)" d="M166.876 92.0196 L155.07 110.469 L166.876 110.469 L166.876 92.0196 M165.649 87.9455 L171.528 87.9455 L171.528 110.469 L176.459 110.469 L176.459 114.357 L171.528 114.357 L171.528 122.506 L166.876 122.506 L166.876 114.357 L151.274 114.357 L151.274 109.844 L165.649 87.9455 Z" fill="#000000" fill-rule="nonzero" fill-opacity="1" /><path clip-path="url(#clip390)" d="M194.19 91.0242 Q190.579 91.0242 188.75 94.589 Q186.945 98.1306 186.945 105.26 Q186.945 112.367 188.75 115.931 Q190.579 119.473 194.19 119.473 Q197.825 119.473 199.63 115.931 Q201.459 112.367 201.459 105.26 Q201.459 98.1306 199.63 94.589 Q197.825 91.0242 194.19 91.0242 M194.19 87.3205 Q200 87.3205 203.056 91.927 Q206.135 96.5103 206.135 105.26 Q206.135 113.987 203.056 118.593 Q200 123.177 194.19 123.177 Q188.38 123.177 185.301 118.593 Q182.246 113.987 182.246 105.26 Q182.246 96.5103 185.301 91.927 Q188.38 87.3205 194.19 87.3205 Z" fill="#000000" fill-rule="nonzero" fill-opacity="1" /><path clip-path="url(#clip390)" d="M67.3143 733.525 Q73.68 736.008 75.6216 738.363 Q77.5631 740.718 77.5631 744.665 L77.5631 749.344 L72.6615 749.344 L72.6615 745.906 Q72.6615 743.487 71.5157 742.151 Q70.3699 740.814 66.1048 739.191 L63.4312 738.14 L28.3562 752.559 L28.3562 746.352 L56.238 735.212 L28.3562 724.072 L28.3562 717.865 L67.3143 733.525 Z" fill="#000000" fill-rule="nonzero" fill-opacity="1" /><circle clip-path="url(#clip392)" cx="301.869" cy="756.43" r="14.4" fill="#009af9" fill-rule="evenodd" fill-opacity="1" stroke="#000000" stroke-opacity="1" stroke-width="3.2"/>
<circle clip-path="url(#clip392)" cx="342.505" cy="753.032" r="14.4" fill="#009af9" fill-rule="evenodd" fill-opacity="1" stroke="#000000" stroke-opacity="1" stroke-width="3.2"/>
<circle clip-path="url(#clip392)" cx="383.141" cy="749.691" r="14.4" fill="#009af9" fill-rule="evenodd" fill-opacity="1" stroke="#000000" stroke-opacity="1" stroke-width="3.2"/>
<circle clip-path="url(#clip392)" cx="423.777" cy="746.473" r="14.4" fill="#009af9" fill-rule="evenodd" fill-opacity="1" stroke="#000000" stroke-opacity="1" stroke-width="3.2"/>
<circle clip-path="url(#clip392)" cx="464.412" cy="743.449" r="14.4" fill="#009af9" fill-rule="evenodd" fill-opacity="1" stroke="#000000" stroke-opacity="1" stroke-width="3.2"/>
<circle clip-path="url(#clip392)" cx="505.048" cy="740.704" r="14.4" fill="#009af9" fill-rule="evenodd" fill-opacity="1" stroke="#000000" stroke-opacity="1" stroke-width="3.2"/>
<circle clip-path="url(#clip392)" cx="545.684" cy="738.327" r="14.4" fill="#009af9" fill-rule="evenodd" fill-opacity="1" stroke="#000000" stroke-opacity="1" stroke-width="3.2"/>
<circle clip-path="url(#clip392)" cx="586.32" cy="736.419" r="14.4" fill="#009af9" fill-rule="evenodd" fill-opacity="1" stroke="#000000" stroke-opacity="1" stroke-width="3.2"/>
<circle clip-path="url(#clip392)" cx="626.955" cy="735.091" r="14.4" fill="#009af9" fill-rule="evenodd" fill-opacity="1" stroke="#000000" stroke-opacity="1" stroke-width="3.2"/>
<circle clip-path="url(#clip392)" cx="667.591" cy="734.464" r="14.4" fill="#009af9" fill-rule="evenodd" fill-opacity="1" stroke="#000000" stroke-opacity="1" stroke-width="3.2"/>
<circle clip-path="url(#clip392)" cx="708.227" cy="734.668" r="14.4" fill="#009af9" fill-rule="evenodd" fill-opacity="1" stroke="#000000" stroke-opacity="1" stroke-width="3.2"/>
<circle clip-path="url(#clip392)" cx="748.863" cy="735.843" r="14.4" fill="#009af9" fill-rule="evenodd" fill-opacity="1" stroke="#000000" stroke-opacity="1" stroke-width="3.2"/>
<circle clip-path="url(#clip392)" cx="789.498" cy="738.138" r="14.4" fill="#009af9" fill-rule="evenodd" fill-opacity="1" stroke="#000000" stroke-opacity="1" stroke-width="3.2"/>
<circle clip-path="url(#clip392)" cx="830.134" cy="741.71" r="14.4" fill="#009af9" fill-rule="evenodd" fill-opacity="1" stroke="#000000" stroke-opacity="1" stroke-width="3.2"/>
<circle clip-path="url(#clip392)" cx="870.77" cy="746.723" r="14.4" fill="#009af9" fill-rule="evenodd" fill-opacity="1" stroke="#000000" stroke-opacity="1" stroke-width="3.2"/>
<circle clip-path="url(#clip392)" cx="911.406" cy="753.344" r="14.4" fill="#009af9" fill-rule="evenodd" fill-opacity="1" stroke="#000000" stroke-opacity="1" stroke-width="3.2"/>
<circle clip-path="url(#clip392)" cx="952.041" cy="761.745" r="14.4" fill="#009af9" fill-rule="evenodd" fill-opacity="1" stroke="#000000" stroke-opacity="1" stroke-width="3.2"/>
<circle clip-path="url(#clip392)" cx="992.677" cy="772.094" r="14.4" fill="#009af9" fill-rule="evenodd" fill-opacity="1" stroke="#000000" stroke-opacity="1" stroke-width="3.2"/>
<circle clip-path="url(#clip392)" cx="1033.31" cy="784.559" r="14.4" fill="#009af9" fill-rule="evenodd" fill-opacity="1" stroke="#000000" stroke-opacity="1" stroke-width="3.2"/>
<circle clip-path="url(#clip392)" cx="1073.95" cy="799.296" r="14.4" fill="#009af9" fill-rule="evenodd" fill-opacity="1" stroke="#000000" stroke-opacity="1" stroke-width="3.2"/>
<circle clip-path="url(#clip392)" cx="1114.58" cy="816.448" r="14.4" fill="#009af9" fill-rule="evenodd" fill-opacity="1" stroke="#000000" stroke-opacity="1" stroke-width="3.2"/>
<circle clip-path="url(#clip392)" cx="1155.22" cy="836.139" r="14.4" fill="#009af9" fill-rule="evenodd" fill-opacity="1" stroke="#000000" stroke-opacity="1" stroke-width="3.2"/>
<circle clip-path="url(#clip392)" cx="1195.86" cy="858.466" r="14.4" fill="#009af9" fill-rule="evenodd" fill-opacity="1" stroke="#000000" stroke-opacity="1" stroke-width="3.2"/>
<circle clip-path="url(#clip392)" cx="1236.49" cy="883.489" r="14.4" fill="#009af9" fill-rule="evenodd" fill-opacity="1" stroke="#000000" stroke-opacity="1" stroke-width="3.2"/>
<circle clip-path="url(#clip392)" cx="1277.13" cy="911.225" r="14.4" fill="#009af9" fill-rule="evenodd" fill-opacity="1" stroke="#000000" stroke-opacity="1" stroke-width="3.2"/>
<circle clip-path="url(#clip392)" cx="1317.76" cy="941.638" r="14.4" fill="#009af9" fill-rule="evenodd" fill-opacity="1" stroke="#000000" stroke-opacity="1" stroke-width="3.2"/>
<circle clip-path="url(#clip392)" cx="1358.4" cy="974.623" r="14.4" fill="#009af9" fill-rule="evenodd" fill-opacity="1" stroke="#000000" stroke-opacity="1" stroke-width="3.2"/>
<circle clip-path="url(#clip392)" cx="1399.03" cy="1010" r="14.4" fill="#009af9" fill-rule="evenodd" fill-opacity="1" stroke="#000000" stroke-opacity="1" stroke-width="3.2"/>
<circle clip-path="url(#clip392)" cx="1439.67" cy="1047.49" r="14.4" fill="#009af9" fill-rule="evenodd" fill-opacity="1" stroke="#000000" stroke-opacity="1" stroke-width="3.2"/>
<circle clip-path="url(#clip392)" cx="1480.31" cy="1086.72" r="14.4" fill="#009af9" fill-rule="evenodd" fill-opacity="1" stroke="#000000" stroke-opacity="1" stroke-width="3.2"/>
<circle clip-path="url(#clip392)" cx="1520.94" cy="1127.19" r="14.4" fill="#009af9" fill-rule="evenodd" fill-opacity="1" stroke="#000000" stroke-opacity="1" stroke-width="3.2"/>
<circle clip-path="url(#clip392)" cx="1561.58" cy="1168.26" r="14.4" fill="#009af9" fill-rule="evenodd" fill-opacity="1" stroke="#000000" stroke-opacity="1" stroke-width="3.2"/>
<circle clip-path="url(#clip392)" cx="1602.21" cy="1209.12" r="14.4" fill="#009af9" fill-rule="evenodd" fill-opacity="1" stroke="#000000" stroke-opacity="1" stroke-width="3.2"/>
<circle clip-path="url(#clip392)" cx="1642.85" cy="1248.83" r="14.4" fill="#009af9" fill-rule="evenodd" fill-opacity="1" stroke="#000000" stroke-opacity="1" stroke-width="3.2"/>
<circle clip-path="url(#clip392)" cx="1683.48" cy="1286.23" r="14.4" fill="#009af9" fill-rule="evenodd" fill-opacity="1" stroke="#000000" stroke-opacity="1" stroke-width="3.2"/>
<circle clip-path="url(#clip392)" cx="1724.12" cy="1319.95" r="14.4" fill="#009af9" fill-rule="evenodd" fill-opacity="1" stroke="#000000" stroke-opacity="1" stroke-width="3.2"/>
<circle clip-path="url(#clip392)" cx="1764.76" cy="1348.43" r="14.4" fill="#009af9" fill-rule="evenodd" fill-opacity="1" stroke="#000000" stroke-opacity="1" stroke-width="3.2"/>
<circle clip-path="url(#clip392)" cx="1805.39" cy="1369.85" r="14.4" fill="#009af9" fill-rule="evenodd" fill-opacity="1" stroke="#000000" stroke-opacity="1" stroke-width="3.2"/>
<circle clip-path="url(#clip392)" cx="1846.03" cy="1382.17" r="14.4" fill="#009af9" fill-rule="evenodd" fill-opacity="1" stroke="#000000" stroke-opacity="1" stroke-width="3.2"/>
<circle clip-path="url(#clip392)" cx="1886.66" cy="1383.07" r="14.4" fill="#009af9" fill-rule="evenodd" fill-opacity="1" stroke="#000000" stroke-opacity="1" stroke-width="3.2"/>
<circle clip-path="url(#clip392)" cx="1927.3" cy="1370" r="14.4" fill="#009af9" fill-rule="evenodd" fill-opacity="1" stroke="#000000" stroke-opacity="1" stroke-width="3.2"/>
<circle clip-path="url(#clip392)" cx="1967.94" cy="1340.13" r="14.4" fill="#009af9" fill-rule="evenodd" fill-opacity="1" stroke="#000000" stroke-opacity="1" stroke-width="3.2"/>
<circle clip-path="url(#clip392)" cx="2008.57" cy="1290.39" r="14.4" fill="#009af9" fill-rule="evenodd" fill-opacity="1" stroke="#000000" stroke-opacity="1" stroke-width="3.2"/>
<circle clip-path="url(#clip392)" cx="2049.21" cy="1217.47" r="14.4" fill="#009af9" fill-rule="evenodd" fill-opacity="1" stroke="#000000" stroke-opacity="1" stroke-width="3.2"/>
<circle clip-path="url(#clip392)" cx="2089.84" cy="1117.86" r="14.4" fill="#009af9" fill-rule="evenodd" fill-opacity="1" stroke="#000000" stroke-opacity="1" stroke-width="3.2"/>
<circle clip-path="url(#clip392)" cx="2130.48" cy="987.85" r="14.4" fill="#009af9" fill-rule="evenodd" fill-opacity="1" stroke="#000000" stroke-opacity="1" stroke-width="3.2"/>
<circle clip-path="url(#clip392)" cx="2171.11" cy="823.598" r="14.4" fill="#009af9" fill-rule="evenodd" fill-opacity="1" stroke="#000000" stroke-opacity="1" stroke-width="3.2"/>
<circle clip-path="url(#clip392)" cx="2211.75" cy="621.179" r="14.4" fill="#009af9" fill-rule="evenodd" fill-opacity="1" stroke="#000000" stroke-opacity="1" stroke-width="3.2"/>
<circle clip-path="url(#clip392)" cx="2252.39" cy="376.66" r="14.4" fill="#009af9" fill-rule="evenodd" fill-opacity="1" stroke="#000000" stroke-opacity="1" stroke-width="3.2"/>
<circle clip-path="url(#clip392)" cx="2293.02" cy="86.1857" r="14.4" fill="#009af9" fill-rule="evenodd" fill-opacity="1" stroke="#000000" stroke-opacity="1" stroke-width="3.2"/>
<polyline clip-path="url(#clip392)" style="stroke:#e26f46; stroke-linecap:round; stroke-linejoin:round; stroke-width:8; stroke-opacity:1; fill:none" points="301.869,756.43 321.982,754.761 342.095,753.066 362.207,751.401 382.32,749.758 402.432,748.144 422.545,746.568 442.658,745.039 462.77,743.567 482.883,742.162 502.996,740.834 523.108,739.596 543.221,738.458 563.334,737.434 583.446,736.536 603.559,735.778 623.672,735.174 643.784,734.739 663.897,734.488 684.01,734.438 704.122,734.606 724.235,735.007 744.347,735.66 764.46,736.583 784.573,737.795 804.685,739.315 824.798,741.163 844.911,743.358 865.023,745.92 885.136,748.871 905.249,752.231 925.361,756.02 945.474,760.259 965.587,764.97 985.699,770.171 1005.81,775.884 1025.92,782.128 1046.04,788.922 1066.15,796.284 1086.26,804.232 1106.38,812.782 1126.49,821.948 1146.6,831.745 1166.71,842.183 1186.83,853.273 1206.94,865.021 1227.05,877.433 1247.16,890.511 1267.28,904.253 1287.39,918.656 1307.5,933.71 1327.61,949.404 1347.73,965.72 1367.84,982.637 1387.95,1000.13 1408.06,1018.16 1428.18,1036.69 1448.29,1055.68 1468.4,1075.08 1488.52,1094.82 1508.63,1114.83 1528.74,1135.05 1548.85,1155.38 1568.97,1175.73 1589.08,1195.99 1609.19,1216.05 1629.3,1235.79 1649.42,1255.07 1669.53,1273.72 1689.64,1291.61 1709.75,1308.54 1729.87,1324.34 1749.98,1338.79 1770.09,1351.69 1790.21,1362.8 1810.32,1371.88 1830.43,1378.66 1850.54,1382.88 1870.66,1384.24 1890.77,1382.43 1910.88,1377.14 1930.99,1368.02 1951.11,1354.73 1971.22,1336.89 1991.33,1314.12 2011.44,1286.03 2031.56,1252.21 2051.67,1212.23 2071.78,1165.66 2091.89,1112.06 2112.01,1050.96 2132.12,981.904 2152.23,904.425 2172.35,818.044 2192.46,722.285 2212.57,616.669 2232.68,500.72 2252.8,373.962 2272.91,235.9 2293.02,86.1857 "/>
<path clip-path="url(#clip390)" d="M312.489 248.629 L1005.31 248.629 L1005.31 93.1086 L312.489 93.1086  Z" fill="#ffffff" fill-rule="evenodd" fill-opacity="1"/>
<polyline clip-path="url(#clip390)" style="stroke:#000000; stroke-linecap:round; stroke-linejoin:round; stroke-width:4; stroke-opacity:1; fill:none" points="312.489,248.629 1005.31,248.629 1005.31,93.1086 312.489,93.1086 312.489,248.629 "/>
<circle clip-path="url(#clip390)" cx="406.294" cy="144.949" r="20.48" fill="#009af9" fill-rule="evenodd" fill-opacity="1" stroke="#000000" stroke-opacity="1" stroke-width="4.55111"/>
<path clip-path="url(#clip390)" d="M507.507 128.942 L507.507 136.303 L516.28 136.303 L516.28 139.613 L507.507 139.613 L507.507 153.687 Q507.507 156.858 508.363 157.761 Q509.243 158.664 511.905 158.664 L516.28 158.664 L516.28 162.229 L511.905 162.229 Q506.974 162.229 505.099 160.4 Q503.224 158.548 503.224 153.687 L503.224 139.613 L500.099 139.613 L500.099 136.303 L503.224 136.303 L503.224 128.942 L507.507 128.942 Z" fill="#000000" fill-rule="nonzero" fill-opacity="1" /><path clip-path="url(#clip390)" d="M521.882 136.303 L526.141 136.303 L526.141 162.229 L521.882 162.229 L521.882 136.303 M521.882 126.21 L526.141 126.21 L526.141 131.604 L521.882 131.604 L521.882 126.21 Z" fill="#000000" fill-rule="nonzero" fill-opacity="1" /><path clip-path="url(#clip390)" d="M539.266 128.942 L539.266 136.303 L548.039 136.303 L548.039 139.613 L539.266 139.613 L539.266 153.687 Q539.266 156.858 540.122 157.761 Q541.002 158.664 543.664 158.664 L548.039 158.664 L548.039 162.229 L543.664 162.229 Q538.734 162.229 536.859 160.4 Q534.984 158.548 534.984 153.687 L534.984 139.613 L531.859 139.613 L531.859 136.303 L534.984 136.303 L534.984 128.942 L539.266 128.942 Z" fill="#000000" fill-rule="nonzero" fill-opacity="1" /><path clip-path="url(#clip390)" d="M553.641 136.303 L557.9 136.303 L557.9 162.229 L553.641 162.229 L553.641 136.303 M553.641 126.21 L557.9 126.21 L557.9 131.604 L553.641 131.604 L553.641 126.21 Z" fill="#000000" fill-rule="nonzero" fill-opacity="1" /><path clip-path="url(#clip390)" d="M566.65 126.21 L570.932 126.21 L570.932 147.483 L583.641 136.303 L589.08 136.303 L575.331 148.432 L589.659 162.229 L584.104 162.229 L570.932 149.567 L570.932 162.229 L566.65 162.229 L566.65 126.21 Z" fill="#000000" fill-rule="nonzero" fill-opacity="1" /><path clip-path="url(#clip390)" d="M626.395 140.238 L626.395 126.21 L630.654 126.21 L630.654 162.229 L626.395 162.229 L626.395 158.34 Q625.053 160.655 622.992 161.789 Q620.955 162.9 618.085 162.9 Q613.386 162.9 610.423 159.15 Q607.483 155.4 607.483 149.289 Q607.483 143.178 610.423 139.428 Q613.386 135.678 618.085 135.678 Q620.955 135.678 622.992 136.812 Q625.053 137.923 626.395 140.238 M611.881 149.289 Q611.881 153.988 613.803 156.673 Q615.747 159.335 619.127 159.335 Q622.506 159.335 624.451 156.673 Q626.395 153.988 626.395 149.289 Q626.395 144.59 624.451 141.928 Q622.506 139.243 619.127 139.243 Q615.747 139.243 613.803 141.928 Q611.881 144.59 611.881 149.289 Z" fill="#000000" fill-rule="nonzero" fill-opacity="1" /><path clip-path="url(#clip390)" d="M651.21 149.196 Q646.048 149.196 644.057 150.377 Q642.066 151.557 642.066 154.405 Q642.066 156.673 643.548 158.016 Q645.052 159.335 647.622 159.335 Q651.163 159.335 653.293 156.835 Q655.446 154.312 655.446 150.145 L655.446 149.196 L651.21 149.196 M659.705 147.437 L659.705 162.229 L655.446 162.229 L655.446 158.293 Q653.988 160.655 651.812 161.789 Q649.636 162.9 646.488 162.9 Q642.506 162.9 640.145 160.678 Q637.807 158.432 637.807 154.682 Q637.807 150.307 640.724 148.085 Q643.664 145.863 649.474 145.863 L655.446 145.863 L655.446 145.446 Q655.446 142.507 653.501 140.909 Q651.58 139.289 648.085 139.289 Q645.863 139.289 643.756 139.821 Q641.65 140.354 639.705 141.419 L639.705 137.483 Q642.043 136.581 644.242 136.141 Q646.441 135.678 648.525 135.678 Q654.15 135.678 656.927 138.594 Q659.705 141.511 659.705 147.437 Z" fill="#000000" fill-rule="nonzero" fill-opacity="1" /><path clip-path="url(#clip390)" d="M672.691 128.942 L672.691 136.303 L681.464 136.303 L681.464 139.613 L672.691 139.613 L672.691 153.687 Q672.691 156.858 673.548 157.761 Q674.427 158.664 677.089 158.664 L681.464 158.664 L681.464 162.229 L677.089 162.229 Q672.159 162.229 670.284 160.4 Q668.409 158.548 668.409 153.687 L668.409 139.613 L665.284 139.613 L665.284 136.303 L668.409 136.303 L668.409 128.942 L672.691 128.942 Z" fill="#000000" fill-rule="nonzero" fill-opacity="1" /><path clip-path="url(#clip390)" d="M698.848 149.196 Q693.686 149.196 691.696 150.377 Q689.705 151.557 689.705 154.405 Q689.705 156.673 691.186 158.016 Q692.691 159.335 695.26 159.335 Q698.802 159.335 700.932 156.835 Q703.085 154.312 703.085 150.145 L703.085 149.196 L698.848 149.196 M707.344 147.437 L707.344 162.229 L703.085 162.229 L703.085 158.293 Q701.626 160.655 699.45 161.789 Q697.274 162.9 694.126 162.9 Q690.145 162.9 687.784 160.678 Q685.446 158.432 685.446 154.682 Q685.446 150.307 688.362 148.085 Q691.302 145.863 697.112 145.863 L703.085 145.863 L703.085 145.446 Q703.085 142.507 701.14 140.909 Q699.219 139.289 695.723 139.289 Q693.501 139.289 691.395 139.821 Q689.288 140.354 687.344 141.419 L687.344 137.483 Q689.682 136.581 691.881 136.141 Q694.08 135.678 696.163 135.678 Q701.788 135.678 704.566 138.594 Q707.344 141.511 707.344 147.437 Z" fill="#000000" fill-rule="nonzero" fill-opacity="1" /><polyline clip-path="url(#clip390)" style="stroke:#e26f46; stroke-linecap:round; stroke-linejoin:round; stroke-width:8; stroke-opacity:1; fill:none" points="335.94,196.789 476.648,196.789 "/>
<path clip-path="url(#clip390)" d="M500.099 179.509 L504.775 179.509 L504.775 214.069 L500.099 214.069 L500.099 179.509 Z" fill="#000000" fill-rule="nonzero" fill-opacity="1" /><path clip-path="url(#clip390)" d="M535.447 198.421 L535.447 214.069 L531.187 214.069 L531.187 198.559 Q531.187 194.879 529.752 193.05 Q528.317 191.222 525.447 191.222 Q521.998 191.222 520.007 193.421 Q518.016 195.62 518.016 199.416 L518.016 214.069 L513.734 214.069 L513.734 188.143 L518.016 188.143 L518.016 192.171 Q519.544 189.833 521.604 188.675 Q523.687 187.518 526.396 187.518 Q530.863 187.518 533.155 190.296 Q535.447 193.05 535.447 198.421 Z" fill="#000000" fill-rule="nonzero" fill-opacity="1" /><path clip-path="url(#clip390)" d="M548.155 180.782 L548.155 188.143 L556.928 188.143 L556.928 191.453 L548.155 191.453 L548.155 205.527 Q548.155 208.698 549.011 209.601 Q549.891 210.504 552.553 210.504 L556.928 210.504 L556.928 214.069 L552.553 214.069 Q547.622 214.069 545.747 212.24 Q543.872 210.388 543.872 205.527 L543.872 191.453 L540.747 191.453 L540.747 188.143 L543.872 188.143 L543.872 180.782 L548.155 180.782 Z" fill="#000000" fill-rule="nonzero" fill-opacity="1" /><path clip-path="url(#clip390)" d="M584.706 200.041 L584.706 202.124 L565.122 202.124 Q565.4 206.522 567.761 208.837 Q570.145 211.129 574.381 211.129 Q576.835 211.129 579.127 210.527 Q581.442 209.925 583.71 208.721 L583.71 212.749 Q581.418 213.721 579.011 214.231 Q576.604 214.74 574.127 214.74 Q567.923 214.74 564.289 211.129 Q560.678 207.518 560.678 201.36 Q560.678 194.995 564.104 191.268 Q567.553 187.518 573.386 187.518 Q578.618 187.518 581.65 190.897 Q584.706 194.254 584.706 200.041 M580.446 198.791 Q580.4 195.296 578.479 193.212 Q576.581 191.129 573.432 191.129 Q569.868 191.129 567.715 193.143 Q565.585 195.157 565.261 198.814 L580.446 198.791 Z" fill="#000000" fill-rule="nonzero" fill-opacity="1" /><path clip-path="url(#clip390)" d="M606.719 192.124 Q606.002 191.708 605.145 191.522 Q604.312 191.314 603.293 191.314 Q599.682 191.314 597.738 193.675 Q595.817 196.013 595.817 200.411 L595.817 214.069 L591.534 214.069 L591.534 188.143 L595.817 188.143 L595.817 192.171 Q597.159 189.809 599.312 188.675 Q601.465 187.518 604.543 187.518 Q604.983 187.518 605.516 187.587 Q606.048 187.634 606.696 187.749 L606.719 192.124 Z" fill="#000000" fill-rule="nonzero" fill-opacity="1" /><path clip-path="url(#clip390)" d="M615.307 210.18 L615.307 223.93 L611.025 223.93 L611.025 188.143 L615.307 188.143 L615.307 192.078 Q616.65 189.763 618.687 188.652 Q620.747 187.518 623.594 187.518 Q628.316 187.518 631.256 191.268 Q634.219 195.018 634.219 201.129 Q634.219 207.24 631.256 210.99 Q628.316 214.74 623.594 214.74 Q620.747 214.74 618.687 213.629 Q616.65 212.495 615.307 210.18 M629.798 201.129 Q629.798 196.43 627.853 193.768 Q625.932 191.083 622.553 191.083 Q619.173 191.083 617.228 193.768 Q615.307 196.43 615.307 201.129 Q615.307 205.828 617.228 208.513 Q619.173 211.175 622.553 211.175 Q625.932 211.175 627.853 208.513 Q629.798 205.828 629.798 201.129 Z" fill="#000000" fill-rule="nonzero" fill-opacity="1" /><path clip-path="url(#clip390)" d="M651.326 191.129 Q647.9 191.129 645.909 193.814 Q643.918 196.476 643.918 201.129 Q643.918 205.782 645.886 208.467 Q647.876 211.129 651.326 211.129 Q654.728 211.129 656.719 208.444 Q658.71 205.758 658.71 201.129 Q658.71 196.522 656.719 193.837 Q654.728 191.129 651.326 191.129 M651.326 187.518 Q656.881 187.518 660.052 191.129 Q663.224 194.74 663.224 201.129 Q663.224 207.495 660.052 211.129 Q656.881 214.74 651.326 214.74 Q645.747 214.74 642.576 211.129 Q639.427 207.495 639.427 201.129 Q639.427 194.74 642.576 191.129 Q645.747 187.518 651.326 187.518 Z" fill="#000000" fill-rule="nonzero" fill-opacity="1" /><path clip-path="url(#clip390)" d="M670.284 178.05 L674.543 178.05 L674.543 214.069 L670.284 214.069 L670.284 178.05 Z" fill="#000000" fill-rule="nonzero" fill-opacity="1" /><path clip-path="url(#clip390)" d="M695.237 201.036 Q690.075 201.036 688.085 202.217 Q686.094 203.397 686.094 206.245 Q686.094 208.513 687.575 209.856 Q689.08 211.175 691.649 211.175 Q695.191 211.175 697.321 208.675 Q699.473 206.152 699.473 201.985 L699.473 201.036 L695.237 201.036 M703.733 199.277 L703.733 214.069 L699.473 214.069 L699.473 210.133 Q698.015 212.495 695.839 213.629 Q693.663 214.74 690.515 214.74 Q686.534 214.74 684.173 212.518 Q681.835 210.272 681.835 206.522 Q681.835 202.147 684.751 199.925 Q687.691 197.703 693.501 197.703 L699.473 197.703 L699.473 197.286 Q699.473 194.347 697.529 192.749 Q695.608 191.129 692.112 191.129 Q689.89 191.129 687.784 191.661 Q685.677 192.194 683.733 193.259 L683.733 189.323 Q686.071 188.421 688.27 187.981 Q690.469 187.518 692.552 187.518 Q698.177 187.518 700.955 190.434 Q703.733 193.351 703.733 199.277 Z" fill="#000000" fill-rule="nonzero" fill-opacity="1" /><path clip-path="url(#clip390)" d="M729.033 188.907 L729.033 192.934 Q727.228 192.009 725.283 191.546 Q723.339 191.083 721.256 191.083 Q718.084 191.083 716.487 192.055 Q714.913 193.027 714.913 194.971 Q714.913 196.453 716.047 197.309 Q717.182 198.143 720.608 198.907 L722.066 199.231 Q726.603 200.203 728.501 201.985 Q730.422 203.745 730.422 206.916 Q730.422 210.527 727.552 212.633 Q724.705 214.74 719.705 214.74 Q717.621 214.74 715.353 214.323 Q713.108 213.93 710.608 213.12 L710.608 208.721 Q712.969 209.948 715.26 210.573 Q717.552 211.175 719.797 211.175 Q722.807 211.175 724.427 210.157 Q726.047 209.115 726.047 207.24 Q726.047 205.504 724.867 204.578 Q723.709 203.652 719.751 202.796 L718.27 202.448 Q714.311 201.615 712.552 199.902 Q710.793 198.166 710.793 195.157 Q710.793 191.499 713.385 189.509 Q715.978 187.518 720.746 187.518 Q723.108 187.518 725.191 187.865 Q727.274 188.212 729.033 188.907 Z" fill="#000000" fill-rule="nonzero" fill-opacity="1" /><path clip-path="url(#clip390)" d="M737.205 188.143 L741.464 188.143 L741.464 214.069 L737.205 214.069 L737.205 188.143 M737.205 178.05 L741.464 178.05 L741.464 183.444 L737.205 183.444 L737.205 178.05 Z" fill="#000000" fill-rule="nonzero" fill-opacity="1" /><path clip-path="url(#clip390)" d="M765.63 179.509 L770.306 179.509 L770.306 210.133 L787.135 210.133 L787.135 214.069 L765.63 214.069 L765.63 179.509 Z" fill="#000000" fill-rule="nonzero" fill-opacity="1" /><path clip-path="url(#clip390)" d="M803.64 201.036 Q798.478 201.036 796.487 202.217 Q794.496 203.397 794.496 206.245 Q794.496 208.513 795.978 209.856 Q797.482 211.175 800.052 211.175 Q803.593 211.175 805.723 208.675 Q807.876 206.152 807.876 201.985 L807.876 201.036 L803.64 201.036 M812.135 199.277 L812.135 214.069 L807.876 214.069 L807.876 210.133 Q806.417 212.495 804.241 213.629 Q802.065 214.74 798.917 214.74 Q794.936 214.74 792.575 212.518 Q790.237 210.272 790.237 206.522 Q790.237 202.147 793.153 199.925 Q796.093 197.703 801.903 197.703 L807.876 197.703 L807.876 197.286 Q807.876 194.347 805.931 192.749 Q804.01 191.129 800.515 191.129 Q798.292 191.129 796.186 191.661 Q794.079 192.194 792.135 193.259 L792.135 189.323 Q794.473 188.421 796.672 187.981 Q798.871 187.518 800.954 187.518 Q806.579 187.518 809.357 190.434 Q812.135 193.351 812.135 199.277 Z" fill="#000000" fill-rule="nonzero" fill-opacity="1" /><path clip-path="url(#clip390)" d="M837.968 200.805 Q837.968 196.175 836.047 193.629 Q834.149 191.083 830.7 191.083 Q827.274 191.083 825.352 193.629 Q823.454 196.175 823.454 200.805 Q823.454 205.411 825.352 207.958 Q827.274 210.504 830.7 210.504 Q834.149 210.504 836.047 207.958 Q837.968 205.411 837.968 200.805 M842.227 210.851 Q842.227 217.471 839.287 220.689 Q836.348 223.93 830.283 223.93 Q828.038 223.93 826.047 223.582 Q824.056 223.258 822.181 222.564 L822.181 218.42 Q824.056 219.439 825.885 219.925 Q827.713 220.411 829.612 220.411 Q833.801 220.411 835.885 218.212 Q837.968 216.036 837.968 211.615 L837.968 209.508 Q836.649 211.8 834.588 212.934 Q832.528 214.069 829.658 214.069 Q824.889 214.069 821.973 210.434 Q819.056 206.8 819.056 200.805 Q819.056 194.786 821.973 191.152 Q824.889 187.518 829.658 187.518 Q832.528 187.518 834.588 188.652 Q836.649 189.786 837.968 192.078 L837.968 188.143 L842.227 188.143 L842.227 210.851 Z" fill="#000000" fill-rule="nonzero" fill-opacity="1" /><path clip-path="url(#clip390)" d="M866.023 192.124 Q865.306 191.708 864.449 191.522 Q863.616 191.314 862.598 191.314 Q858.986 191.314 857.042 193.675 Q855.121 196.013 855.121 200.411 L855.121 214.069 L850.838 214.069 L850.838 188.143 L855.121 188.143 L855.121 192.171 Q856.463 189.809 858.616 188.675 Q860.769 187.518 863.848 187.518 Q864.287 187.518 864.82 187.587 Q865.352 187.634 866 187.749 L866.023 192.124 Z" fill="#000000" fill-rule="nonzero" fill-opacity="1" /><path clip-path="url(#clip390)" d="M882.273 201.036 Q877.111 201.036 875.121 202.217 Q873.13 203.397 873.13 206.245 Q873.13 208.513 874.611 209.856 Q876.116 211.175 878.685 211.175 Q882.227 211.175 884.357 208.675 Q886.509 206.152 886.509 201.985 L886.509 201.036 L882.273 201.036 M890.769 199.277 L890.769 214.069 L886.509 214.069 L886.509 210.133 Q885.051 212.495 882.875 213.629 Q880.699 214.74 877.551 214.74 Q873.57 214.74 871.209 212.518 Q868.871 210.272 868.871 206.522 Q868.871 202.147 871.787 199.925 Q874.727 197.703 880.537 197.703 L886.509 197.703 L886.509 197.286 Q886.509 194.347 884.565 192.749 Q882.644 191.129 879.148 191.129 Q876.926 191.129 874.82 191.661 Q872.713 192.194 870.769 193.259 L870.769 189.323 Q873.107 188.421 875.306 187.981 Q877.505 187.518 879.588 187.518 Q885.213 187.518 887.991 190.434 Q890.769 193.351 890.769 199.277 Z" fill="#000000" fill-rule="nonzero" fill-opacity="1" /><path clip-path="url(#clip390)" d="M921.093 198.421 L921.093 214.069 L916.833 214.069 L916.833 198.559 Q916.833 194.879 915.398 193.05 Q913.963 191.222 911.093 191.222 Q907.644 191.222 905.653 193.421 Q903.662 195.62 903.662 199.416 L903.662 214.069 L899.38 214.069 L899.38 188.143 L903.662 188.143 L903.662 192.171 Q905.19 189.833 907.25 188.675 Q909.333 187.518 912.042 187.518 Q916.509 187.518 918.801 190.296 Q921.093 193.05 921.093 198.421 Z" fill="#000000" fill-rule="nonzero" fill-opacity="1" /><path clip-path="url(#clip390)" d="M946.648 200.805 Q946.648 196.175 944.727 193.629 Q942.829 191.083 939.38 191.083 Q935.954 191.083 934.032 193.629 Q932.134 196.175 932.134 200.805 Q932.134 205.411 934.032 207.958 Q935.954 210.504 939.38 210.504 Q942.829 210.504 944.727 207.958 Q946.648 205.411 946.648 200.805 M950.907 210.851 Q950.907 217.471 947.967 220.689 Q945.028 223.93 938.963 223.93 Q936.718 223.93 934.727 223.582 Q932.736 223.258 930.861 222.564 L930.861 218.42 Q932.736 219.439 934.565 219.925 Q936.393 220.411 938.292 220.411 Q942.481 220.411 944.565 218.212 Q946.648 216.036 946.648 211.615 L946.648 209.508 Q945.329 211.8 943.268 212.934 Q941.208 214.069 938.338 214.069 Q933.569 214.069 930.653 210.434 Q927.736 206.8 927.736 200.805 Q927.736 194.786 930.653 191.152 Q933.569 187.518 938.338 187.518 Q941.208 187.518 943.268 188.652 Q945.329 189.786 946.648 192.078 L946.648 188.143 L950.907 188.143 L950.907 210.851 Z" fill="#000000" fill-rule="nonzero" fill-opacity="1" /><path clip-path="url(#clip390)" d="M981.856 200.041 L981.856 202.124 L962.273 202.124 Q962.551 206.522 964.912 208.837 Q967.296 211.129 971.532 211.129 Q973.986 211.129 976.277 210.527 Q978.592 209.925 980.861 208.721 L980.861 212.749 Q978.569 213.721 976.162 214.231 Q973.754 214.74 971.278 214.74 Q965.074 214.74 961.44 211.129 Q957.829 207.518 957.829 201.36 Q957.829 194.995 961.254 191.268 Q964.703 187.518 970.537 187.518 Q975.768 187.518 978.801 190.897 Q981.856 194.254 981.856 200.041 M977.597 198.791 Q977.551 195.296 975.629 193.212 Q973.731 191.129 970.583 191.129 Q967.018 191.129 964.866 193.143 Q962.736 195.157 962.412 198.814 L977.597 198.791 Z" fill="#000000" fill-rule="nonzero" fill-opacity="1" /></svg>
