<?xml version="1.0" encoding="utf-8"?>
<svg xmlns="http://www.w3.org/2000/svg" xmlns:xlink="http://www.w3.org/1999/xlink" width="600" height="400" viewBox="0 0 2400 1600">
<defs>
  <clipPath id="clip840">
    <rect x="0" y="0" width="2400" height="1600"/>
  </clipPath>
</defs>
<path clip-path="url(#clip840)" d="M0 1600 L2400 1600 L2400 0 L0 0  Z" fill="#ffffff" fill-rule="evenodd" fill-opacity="1"/>
<defs>
  <clipPath id="clip841">
    <rect x="480" y="0" width="1681" height="1600"/>
  </clipPath>
</defs>
<path clip-path="url(#clip840)" d="M219.542 1423.18 L2352.76 1423.18 L2352.76 47.2441 L219.542 47.2441  Z" fill="#ffffff" fill-rule="evenodd" fill-opacity="1"/>
<defs>
  <clipPath id="clip842">
    <rect x="219" y="47" width="2134" height="1377"/>
  </clipPath>
</defs>
<polyline clip-path="url(#clip842)" style="stroke:#000000; stroke-linecap:round; stroke-linejoin:round; stroke-width:2; stroke-opacity:0.1; fill:none" points="279.916,1423.18 279.916,47.2441 "/>
<polyline clip-path="url(#clip842)" style="stroke:#000000; stroke-linecap:round; stroke-linejoin:round; stroke-width:2; stroke-opacity:0.1; fill:none" points="783.033,1423.18 783.033,47.2441 "/>
<polyline clip-path="url(#clip842)" style="stroke:#000000; stroke-linecap:round; stroke-linejoin:round; stroke-width:2; stroke-opacity:0.1; fill:none" points="1286.15,1423.18 1286.15,47.2441 "/>
<polyline clip-path="url(#clip842)" style="stroke:#000000; stroke-linecap:round; stroke-linejoin:round; stroke-width:2; stroke-opacity:0.1; fill:none" points="1789.27,1423.18 1789.27,47.2441 "/>
<polyline clip-path="url(#clip842)" style="stroke:#000000; stroke-linecap:round; stroke-linejoin:round; stroke-width:2; stroke-opacity:0.1; fill:none" points="2292.38,1423.18 2292.38,47.2441 "/>
<polyline clip-path="url(#clip840)" style="stroke:#000000; stroke-linecap:round; stroke-linejoin:round; stroke-width:4; stroke-opacity:1; fill:none" points="219.542,1423.18 2352.76,1423.18 "/>
<polyline clip-path="url(#clip840)" style="stroke:#000000; stroke-linecap:round; stroke-linejoin:round; stroke-width:4; stroke-opacity:1; fill:none" points="279.916,1423.18 279.916,1404.28 "/>
<polyline clip-path="url(#clip840)" style="stroke:#000000; stroke-linecap:round; stroke-linejoin:round; stroke-width:4; stroke-opacity:1; fill:none" points="783.033,1423.18 783.033,1404.28 "/>
<polyline clip-path="url(#clip840)" style="stroke:#000000; stroke-linecap:round; stroke-linejoin:round; stroke-width:4; stroke-opacity:1; fill:none" points="1286.15,1423.18 1286.15,1404.28 "/>
<polyline clip-path="url(#clip840)" style="stroke:#000000; stroke-linecap:round; stroke-linejoin:round; stroke-width:4; stroke-opacity:1; fill:none" points="1789.27,1423.18 1789.27,1404.28 "/>
<polyline clip-path="url(#clip840)" style="stroke:#000000; stroke-linecap:round; stroke-linejoin:round; stroke-width:4; stroke-opacity:1; fill:none" points="2292.38,1423.18 2292.38,1404.28 "/>
<path clip-path="url(#clip840)" d="M226.444 1468.75 L256.12 1468.75 L256.12 1472.69 L226.444 1472.69 L226.444 1468.75 Z" fill="#000000" fill-rule="nonzero" fill-opacity="1" /><path clip-path="url(#clip840)" d="M267.023 1481.64 L274.662 1481.64 L274.662 1455.28 L266.351 1456.95 L266.351 1452.69 L274.615 1451.02 L279.291 1451.02 L279.291 1481.64 L286.93 1481.64 L286.93 1485.58 L267.023 1485.58 L267.023 1481.64 Z" fill="#000000" fill-rule="nonzero" fill-opacity="1" /><path clip-path="url(#clip840)" d="M296.374 1479.7 L301.259 1479.7 L301.259 1485.58 L296.374 1485.58 L296.374 1479.7 Z" fill="#000000" fill-rule="nonzero" fill-opacity="1" /><path clip-path="url(#clip840)" d="M321.444 1454.1 Q317.833 1454.1 316.004 1457.66 Q314.198 1461.2 314.198 1468.33 Q314.198 1475.44 316.004 1479.01 Q317.833 1482.55 321.444 1482.55 Q325.078 1482.55 326.884 1479.01 Q328.712 1475.44 328.712 1468.33 Q328.712 1461.2 326.884 1457.66 Q325.078 1454.1 321.444 1454.1 M321.444 1450.39 Q327.254 1450.39 330.309 1455 Q333.388 1459.58 333.388 1468.33 Q333.388 1477.06 330.309 1481.67 Q327.254 1486.25 321.444 1486.25 Q315.634 1486.25 312.555 1481.67 Q309.499 1477.06 309.499 1468.33 Q309.499 1459.58 312.555 1455 Q315.634 1450.39 321.444 1450.39 Z" fill="#000000" fill-rule="nonzero" fill-opacity="1" /><path clip-path="url(#clip840)" d="M730.058 1468.75 L759.734 1468.75 L759.734 1472.69 L730.058 1472.69 L730.058 1468.75 Z" fill="#000000" fill-rule="nonzero" fill-opacity="1" /><path clip-path="url(#clip840)" d="M779.827 1454.1 Q776.216 1454.1 774.387 1457.66 Q772.581 1461.2 772.581 1468.33 Q772.581 1475.44 774.387 1479.01 Q776.216 1482.55 779.827 1482.55 Q783.461 1482.55 785.266 1479.01 Q787.095 1475.44 787.095 1468.33 Q787.095 1461.2 785.266 1457.66 Q783.461 1454.1 779.827 1454.1 M779.827 1450.39 Q785.637 1450.39 788.692 1455 Q791.771 1459.58 791.771 1468.33 Q791.771 1477.06 788.692 1481.67 Q785.637 1486.25 779.827 1486.25 Q774.016 1486.25 770.938 1481.67 Q767.882 1477.06 767.882 1468.33 Q767.882 1459.58 770.938 1455 Q774.016 1450.39 779.827 1450.39 Z" fill="#000000" fill-rule="nonzero" fill-opacity="1" /><path clip-path="url(#clip840)" d="M799.989 1479.7 L804.873 1479.7 L804.873 1485.58 L799.989 1485.58 L799.989 1479.7 Z" fill="#000000" fill-rule="nonzero" fill-opacity="1" /><path clip-path="url(#clip840)" d="M815.104 1451.02 L833.461 1451.02 L833.461 1454.96 L819.387 1454.96 L819.387 1463.43 Q820.405 1463.08 821.424 1462.92 Q822.442 1462.73 823.461 1462.73 Q829.248 1462.73 832.627 1465.9 Q836.007 1469.08 836.007 1474.49 Q836.007 1480.07 832.535 1483.17 Q829.062 1486.25 822.743 1486.25 Q820.567 1486.25 818.299 1485.88 Q816.053 1485.51 813.646 1484.77 L813.646 1480.07 Q815.729 1481.2 817.951 1481.76 Q820.174 1482.32 822.65 1482.32 Q826.655 1482.32 828.993 1480.21 Q831.331 1478.1 831.331 1474.49 Q831.331 1470.88 828.993 1468.77 Q826.655 1466.67 822.65 1466.67 Q820.775 1466.67 818.9 1467.08 Q817.049 1467.5 815.104 1468.38 L815.104 1451.02 Z" fill="#000000" fill-rule="nonzero" fill-opacity="1" /><path clip-path="url(#clip840)" d="M1263.53 1454.1 Q1259.92 1454.1 1258.09 1457.66 Q1256.29 1461.2 1256.29 1468.33 Q1256.29 1475.44 1258.09 1479.01 Q1259.92 1482.55 1263.53 1482.55 Q1267.17 1482.55 1268.97 1479.01 Q1270.8 1475.44 1270.8 1468.33 Q1270.8 1461.2 1268.97 1457.66 Q1267.17 1454.1 1263.53 1454.1 M1263.53 1450.39 Q1269.34 1450.39 1272.4 1455 Q1275.48 1459.58 1275.48 1468.33 Q1275.48 1477.06 1272.4 1481.67 Q1269.34 1486.25 1263.53 1486.25 Q1257.72 1486.25 1254.64 1481.67 Q1251.59 1477.06 1251.59 1468.33 Q1251.59 1459.58 1254.64 1455 Q1257.72 1450.39 1263.53 1450.39 Z" fill="#000000" fill-rule="nonzero" fill-opacity="1" /><path clip-path="url(#clip840)" d="M1283.7 1479.7 L1288.58 1479.7 L1288.58 1485.58 L1283.7 1485.58 L1283.7 1479.7 Z" fill="#000000" fill-rule="nonzero" fill-opacity="1" /><path clip-path="url(#clip840)" d="M1308.76 1454.1 Q1305.15 1454.1 1303.32 1457.66 Q1301.52 1461.2 1301.52 1468.33 Q1301.52 1475.44 1303.32 1479.01 Q1305.15 1482.55 1308.76 1482.55 Q1312.4 1482.55 1314.2 1479.01 Q1316.03 1475.44 1316.03 1468.33 Q1316.03 1461.2 1314.2 1457.66 Q1312.4 1454.1 1308.76 1454.1 M1308.76 1450.39 Q1314.57 1450.39 1317.63 1455 Q1320.71 1459.58 1320.71 1468.33 Q1320.71 1477.06 1317.63 1481.67 Q1314.57 1486.25 1308.76 1486.25 Q1302.95 1486.25 1299.88 1481.67 Q1296.82 1477.06 1296.82 1468.33 Q1296.82 1459.58 1299.88 1455 Q1302.95 1450.39 1308.76 1450.39 Z" fill="#000000" fill-rule="nonzero" fill-opacity="1" /><path clip-path="url(#clip840)" d="M1767.15 1454.1 Q1763.54 1454.1 1761.71 1457.66 Q1759.9 1461.2 1759.9 1468.33 Q1759.9 1475.44 1761.71 1479.01 Q1763.54 1482.55 1767.15 1482.55 Q1770.78 1482.55 1772.59 1479.01 Q1774.42 1475.44 1774.42 1468.33 Q1774.42 1461.2 1772.59 1457.66 Q1770.78 1454.1 1767.15 1454.1 M1767.15 1450.39 Q1772.96 1450.39 1776.01 1455 Q1779.09 1459.58 1779.09 1468.33 Q1779.09 1477.06 1776.01 1481.67 Q1772.96 1486.25 1767.15 1486.25 Q1761.34 1486.25 1758.26 1481.67 Q1755.2 1477.06 1755.2 1468.33 Q1755.2 1459.58 1758.26 1455 Q1761.34 1450.39 1767.15 1450.39 Z" fill="#000000" fill-rule="nonzero" fill-opacity="1" /><path clip-path="url(#clip840)" d="M1787.31 1479.7 L1792.19 1479.7 L1792.19 1485.58 L1787.31 1485.58 L1787.31 1479.7 Z" fill="#000000" fill-rule="nonzero" fill-opacity="1" /><path clip-path="url(#clip840)" d="M1802.43 1451.02 L1820.78 1451.02 L1820.78 1454.96 L1806.71 1454.96 L1806.71 1463.43 Q1807.73 1463.08 1808.74 1462.92 Q1809.76 1462.73 1810.78 1462.73 Q1816.57 1462.73 1819.95 1465.9 Q1823.33 1469.08 1823.33 1474.49 Q1823.33 1480.07 1819.86 1483.17 Q1816.38 1486.25 1810.06 1486.25 Q1807.89 1486.25 1805.62 1485.88 Q1803.37 1485.51 1800.97 1484.77 L1800.97 1480.07 Q1803.05 1481.2 1805.27 1481.76 Q1807.49 1482.32 1809.97 1482.32 Q1813.98 1482.32 1816.31 1480.21 Q1818.65 1478.1 1818.65 1474.49 Q1818.65 1470.88 1816.31 1468.77 Q1813.98 1466.67 1809.97 1466.67 Q1808.1 1466.67 1806.22 1467.08 Q1804.37 1467.5 1802.43 1468.38 L1802.43 1451.02 Z" fill="#000000" fill-rule="nonzero" fill-opacity="1" /><path clip-path="url(#clip840)" d="M2259.53 1481.64 L2267.17 1481.64 L2267.17 1455.28 L2258.86 1456.95 L2258.86 1452.69 L2267.13 1451.02 L2271.8 1451.02 L2271.8 1481.64 L2279.44 1481.64 L2279.44 1485.58 L2259.53 1485.58 L2259.53 1481.64 Z" fill="#000000" fill-rule="nonzero" fill-opacity="1" /><path clip-path="url(#clip840)" d="M2288.89 1479.7 L2293.77 1479.7 L2293.77 1485.58 L2288.89 1485.58 L2288.89 1479.7 Z" fill="#000000" fill-rule="nonzero" fill-opacity="1" /><path clip-path="url(#clip840)" d="M2313.96 1454.1 Q2310.34 1454.1 2308.52 1457.66 Q2306.71 1461.2 2306.71 1468.33 Q2306.71 1475.44 2308.52 1479.01 Q2310.34 1482.55 2313.96 1482.55 Q2317.59 1482.55 2319.4 1479.01 Q2321.22 1475.44 2321.22 1468.33 Q2321.22 1461.2 2319.4 1457.66 Q2317.59 1454.1 2313.96 1454.1 M2313.96 1450.39 Q2319.77 1450.39 2322.82 1455 Q2325.9 1459.58 2325.9 1468.33 Q2325.9 1477.06 2322.82 1481.67 Q2319.77 1486.25 2313.96 1486.25 Q2308.15 1486.25 2305.07 1481.67 Q2302.01 1477.06 2302.01 1468.33 Q2302.01 1459.58 2305.07 1455 Q2308.15 1450.39 2313.96 1450.39 Z" fill="#000000" fill-rule="nonzero" fill-opacity="1" /><path clip-path="url(#clip840)" d="M1302.76 1532.4 L1289.87 1549.74 L1303.43 1568.04 L1296.53 1568.04 L1286.15 1554.04 L1275.77 1568.04 L1268.87 1568.04 L1282.71 1549.39 L1270.04 1532.4 L1276.95 1532.4 L1286.4 1545.1 L1295.86 1532.4 L1302.76 1532.4 Z" fill="#000000" fill-rule="nonzero" fill-opacity="1" /><polyline clip-path="url(#clip842)" style="stroke:#000000; stroke-linecap:round; stroke-linejoin:round; stroke-width:2; stroke-opacity:0.1; fill:none" points="219.542,1261.31 2352.76,1261.31 "/>
<polyline clip-path="url(#clip842)" style="stroke:#000000; stroke-linecap:round; stroke-linejoin:round; stroke-width:2; stroke-opacity:0.1; fill:none" points="219.542,1018.49 2352.76,1018.49 "/>
<polyline clip-path="url(#clip842)" style="stroke:#000000; stroke-linecap:round; stroke-linejoin:round; stroke-width:2; stroke-opacity:0.1; fill:none" points="219.542,775.681 2352.76,775.681 "/>
<polyline clip-path="url(#clip842)" style="stroke:#000000; stroke-linecap:round; stroke-linejoin:round; stroke-width:2; stroke-opacity:0.1; fill:none" points="219.542,532.868 2352.76,532.868 "/>
<polyline clip-path="url(#clip842)" style="stroke:#000000; stroke-linecap:round; stroke-linejoin:round; stroke-width:2; stroke-opacity:0.1; fill:none" points="219.542,290.056 2352.76,290.056 "/>
<polyline clip-path="url(#clip840)" style="stroke:#000000; stroke-linecap:round; stroke-linejoin:round; stroke-width:4; stroke-opacity:1; fill:none" points="219.542,1423.18 219.542,47.2441 "/>
<polyline clip-path="url(#clip840)" style="stroke:#000000; stroke-linecap:round; stroke-linejoin:round; stroke-width:4; stroke-opacity:1; fill:none" points="219.542,1261.31 238.44,1261.31 "/>
<polyline clip-path="url(#clip840)" style="stroke:#000000; stroke-linecap:round; stroke-linejoin:round; stroke-width:4; stroke-opacity:1; fill:none" points="219.542,1018.49 238.44,1018.49 "/>
<polyline clip-path="url(#clip840)" style="stroke:#000000; stroke-linecap:round; stroke-linejoin:round; stroke-width:4; stroke-opacity:1; fill:none" points="219.542,775.681 238.44,775.681 "/>
<polyline clip-path="url(#clip840)" style="stroke:#000000; stroke-linecap:round; stroke-linejoin:round; stroke-width:4; stroke-opacity:1; fill:none" points="219.542,532.868 238.44,532.868 "/>
<polyline clip-path="url(#clip840)" style="stroke:#000000; stroke-linecap:round; stroke-linejoin:round; stroke-width:4; stroke-opacity:1; fill:none" points="219.542,290.056 238.44,290.056 "/>
<path clip-path="url(#clip840)" d="M126.367 1247.1 Q122.755 1247.1 120.927 1250.67 Q119.121 1254.21 119.121 1261.34 Q119.121 1268.45 120.927 1272.01 Q122.755 1275.55 126.367 1275.55 Q130.001 1275.55 131.806 1272.01 Q133.635 1268.45 133.635 1261.34 Q133.635 1254.21 131.806 1250.67 Q130.001 1247.1 126.367 1247.1 M126.367 1243.4 Q132.177 1243.4 135.232 1248.01 Q138.311 1252.59 138.311 1261.34 Q138.311 1270.07 135.232 1274.67 Q132.177 1279.26 126.367 1279.26 Q120.556 1279.26 117.478 1274.67 Q114.422 1270.07 114.422 1261.34 Q114.422 1252.59 117.478 1248.01 Q120.556 1243.4 126.367 1243.4 Z" fill="#000000" fill-rule="nonzero" fill-opacity="1" /><path clip-path="url(#clip840)" d="M146.529 1272.71 L151.413 1272.71 L151.413 1278.59 L146.529 1278.59 L146.529 1272.71 Z" fill="#000000" fill-rule="nonzero" fill-opacity="1" /><path clip-path="url(#clip840)" d="M171.598 1247.1 Q167.987 1247.1 166.158 1250.67 Q164.352 1254.21 164.352 1261.34 Q164.352 1268.45 166.158 1272.01 Q167.987 1275.55 171.598 1275.55 Q175.232 1275.55 177.038 1272.01 Q178.866 1268.45 178.866 1261.34 Q178.866 1254.21 177.038 1250.67 Q175.232 1247.1 171.598 1247.1 M171.598 1243.4 Q177.408 1243.4 180.464 1248.01 Q183.542 1252.59 183.542 1261.34 Q183.542 1270.07 180.464 1274.67 Q177.408 1279.26 171.598 1279.26 Q165.788 1279.26 162.709 1274.67 Q159.653 1270.07 159.653 1261.34 Q159.653 1252.59 162.709 1248.01 Q165.788 1243.4 171.598 1243.4 Z" fill="#000000" fill-rule="nonzero" fill-opacity="1" /><path clip-path="url(#clip840)" d="M127.015 1004.29 Q123.404 1004.29 121.575 1007.86 Q119.769 1011.4 119.769 1018.53 Q119.769 1025.63 121.575 1029.2 Q123.404 1032.74 127.015 1032.74 Q130.649 1032.74 132.455 1029.2 Q134.283 1025.63 134.283 1018.53 Q134.283 1011.4 132.455 1007.86 Q130.649 1004.29 127.015 1004.29 M127.015 1000.59 Q132.825 1000.59 135.88 1005.19 Q138.959 1009.78 138.959 1018.53 Q138.959 1027.25 135.88 1031.86 Q132.825 1036.44 127.015 1036.44 Q121.205 1036.44 118.126 1031.86 Q115.07 1027.25 115.07 1018.53 Q115.07 1009.78 118.126 1005.19 Q121.205 1000.59 127.015 1000.59 Z" fill="#000000" fill-rule="nonzero" fill-opacity="1" /><path clip-path="url(#clip840)" d="M147.177 1029.89 L152.061 1029.89 L152.061 1035.77 L147.177 1035.77 L147.177 1029.89 Z" fill="#000000" fill-rule="nonzero" fill-opacity="1" /><path clip-path="url(#clip840)" d="M176.413 1017.14 Q179.769 1017.86 181.644 1020.12 Q183.542 1022.39 183.542 1025.73 Q183.542 1030.84 180.024 1033.64 Q176.505 1036.44 170.024 1036.44 Q167.848 1036.44 165.533 1036 Q163.241 1035.59 160.788 1034.73 L160.788 1030.22 Q162.732 1031.35 165.047 1031.93 Q167.362 1032.51 169.885 1032.51 Q174.283 1032.51 176.575 1030.77 Q178.889 1029.04 178.889 1025.73 Q178.889 1022.67 176.737 1020.96 Q174.607 1019.22 170.788 1019.22 L166.76 1019.22 L166.76 1015.38 L170.973 1015.38 Q174.422 1015.38 176.251 1014.01 Q178.079 1012.62 178.079 1010.03 Q178.079 1007.37 176.181 1005.96 Q174.306 1004.52 170.788 1004.52 Q168.866 1004.52 166.667 1004.94 Q164.468 1005.36 161.829 1006.24 L161.829 1002.07 Q164.491 1001.33 166.806 1000.96 Q169.144 1000.59 171.204 1000.59 Q176.528 1000.59 179.63 1003.02 Q182.732 1005.43 182.732 1009.55 Q182.732 1012.42 181.089 1014.41 Q179.445 1016.37 176.413 1017.14 Z" fill="#000000" fill-rule="nonzero" fill-opacity="1" /><path clip-path="url(#clip840)" d="M126.205 761.479 Q122.593 761.479 120.765 765.044 Q118.959 768.586 118.959 775.715 Q118.959 782.822 120.765 786.387 Q122.593 789.928 126.205 789.928 Q129.839 789.928 131.644 786.387 Q133.473 782.822 133.473 775.715 Q133.473 768.586 131.644 765.044 Q129.839 761.479 126.205 761.479 M126.205 757.776 Q132.015 757.776 135.07 762.382 Q138.149 766.965 138.149 775.715 Q138.149 784.442 135.07 789.049 Q132.015 793.632 126.205 793.632 Q120.394 793.632 117.316 789.049 Q114.26 784.442 114.26 775.715 Q114.26 766.965 117.316 762.382 Q120.394 757.776 126.205 757.776 Z" fill="#000000" fill-rule="nonzero" fill-opacity="1" /><path clip-path="url(#clip840)" d="M146.366 787.081 L151.251 787.081 L151.251 792.961 L146.366 792.961 L146.366 787.081 Z" fill="#000000" fill-rule="nonzero" fill-opacity="1" /><path clip-path="url(#clip840)" d="M172.014 773.817 Q168.866 773.817 167.015 775.97 Q165.186 778.123 165.186 781.873 Q165.186 785.6 167.015 787.776 Q168.866 789.928 172.014 789.928 Q175.163 789.928 176.991 787.776 Q178.843 785.6 178.843 781.873 Q178.843 778.123 176.991 775.97 Q175.163 773.817 172.014 773.817 M181.297 759.165 L181.297 763.424 Q179.538 762.59 177.732 762.151 Q175.95 761.711 174.19 761.711 Q169.561 761.711 167.107 764.836 Q164.677 767.961 164.329 774.28 Q165.695 772.266 167.755 771.202 Q169.815 770.114 172.292 770.114 Q177.501 770.114 180.51 773.285 Q183.542 776.433 183.542 781.873 Q183.542 787.197 180.394 790.414 Q177.246 793.632 172.014 793.632 Q166.019 793.632 162.848 789.049 Q159.677 784.442 159.677 775.715 Q159.677 767.521 163.565 762.66 Q167.454 757.776 174.005 757.776 Q175.764 757.776 177.547 758.123 Q179.352 758.47 181.297 759.165 Z" fill="#000000" fill-rule="nonzero" fill-opacity="1" /><path clip-path="url(#clip840)" d="M126.552 518.667 Q122.941 518.667 121.112 522.232 Q119.306 525.774 119.306 532.903 Q119.306 540.01 121.112 543.574 Q122.941 547.116 126.552 547.116 Q130.186 547.116 131.992 543.574 Q133.82 540.01 133.82 532.903 Q133.82 525.774 131.992 522.232 Q130.186 518.667 126.552 518.667 M126.552 514.963 Q132.362 514.963 135.417 519.57 Q138.496 524.153 138.496 532.903 Q138.496 541.63 135.417 546.236 Q132.362 550.82 126.552 550.82 Q120.742 550.82 117.663 546.236 Q114.607 541.63 114.607 532.903 Q114.607 524.153 117.663 519.57 Q120.742 514.963 126.552 514.963 Z" fill="#000000" fill-rule="nonzero" fill-opacity="1" /><path clip-path="url(#clip840)" d="M146.714 544.269 L151.598 544.269 L151.598 550.148 L146.714 550.148 L146.714 544.269 Z" fill="#000000" fill-rule="nonzero" fill-opacity="1" /><path clip-path="url(#clip840)" d="M161.922 549.431 L161.922 545.172 Q163.681 546.005 165.487 546.445 Q167.292 546.885 169.028 546.885 Q173.658 546.885 176.089 543.783 Q178.542 540.658 178.889 534.315 Q177.547 536.306 175.487 537.371 Q173.427 538.436 170.927 538.436 Q165.741 538.436 162.709 535.311 Q159.7 532.162 159.7 526.723 Q159.7 521.399 162.848 518.181 Q165.996 514.963 171.227 514.963 Q177.223 514.963 180.371 519.57 Q183.542 524.153 183.542 532.903 Q183.542 541.074 179.653 545.959 Q175.788 550.82 169.237 550.82 Q167.477 550.82 165.672 550.473 Q163.866 550.125 161.922 549.431 M171.227 534.778 Q174.376 534.778 176.204 532.625 Q178.056 530.473 178.056 526.723 Q178.056 522.996 176.204 520.843 Q174.376 518.667 171.227 518.667 Q168.079 518.667 166.227 520.843 Q164.399 522.996 164.399 526.723 Q164.399 530.473 166.227 532.625 Q168.079 534.778 171.227 534.778 Z" fill="#000000" fill-rule="nonzero" fill-opacity="1" /><path clip-path="url(#clip840)" d="M118.774 303.401 L126.413 303.401 L126.413 277.036 L118.103 278.702 L118.103 274.443 L126.367 272.776 L131.042 272.776 L131.042 303.401 L138.681 303.401 L138.681 307.336 L118.774 307.336 L118.774 303.401 Z" fill="#000000" fill-rule="nonzero" fill-opacity="1" /><path clip-path="url(#clip840)" d="M148.126 301.457 L153.01 301.457 L153.01 307.336 L148.126 307.336 L148.126 301.457 Z" fill="#000000" fill-rule="nonzero" fill-opacity="1" /><path clip-path="url(#clip840)" d="M167.223 303.401 L183.542 303.401 L183.542 307.336 L161.598 307.336 L161.598 303.401 Q164.26 300.647 168.843 296.017 Q173.45 291.364 174.63 290.022 Q176.876 287.498 177.755 285.762 Q178.658 284.003 178.658 282.313 Q178.658 279.559 176.714 277.823 Q174.792 276.086 171.69 276.086 Q169.491 276.086 167.038 276.85 Q164.607 277.614 161.829 279.165 L161.829 274.443 Q164.653 273.309 167.107 272.73 Q169.561 272.151 171.598 272.151 Q176.968 272.151 180.163 274.836 Q183.357 277.522 183.357 282.012 Q183.357 284.142 182.547 286.063 Q181.76 287.961 179.653 290.554 Q179.075 291.225 175.973 294.443 Q172.871 297.637 167.223 303.401 Z" fill="#000000" fill-rule="nonzero" fill-opacity="1" /><path clip-path="url(#clip840)" d="M67.3143 733.525 Q73.68 736.008 75.6216 738.363 Q77.5631 740.718 77.5631 744.665 L77.5631 749.344 L72.6615 749.344 L72.6615 745.906 Q72.6615 743.487 71.5157 742.151 Q70.3699 740.814 66.1048 739.191 L63.4312 738.14 L28.3562 752.559 L28.3562 746.352 L56.238 735.212 L28.3562 724.072 L28.3562 717.865 L67.3143 733.525 Z" fill="#000000" fill-rule="nonzero" fill-opacity="1" /><circle clip-path="url(#clip842)" cx="300.041" cy="1228.94" r="14.4" fill="#009af9" fill-rule="evenodd" fill-opacity="1" stroke="#000000" stroke-opacity="1" stroke-width="3.2"/>
<circle clip-path="url(#clip842)" cx="320.165" cy="1227.64" r="14.4" fill="#009af9" fill-rule="evenodd" fill-opacity="1" stroke="#000000" stroke-opacity="1" stroke-width="3.2"/>
<circle clip-path="url(#clip842)" cx="340.29" cy="1226.25" r="14.4" fill="#009af9" fill-rule="evenodd" fill-opacity="1" stroke="#000000" stroke-opacity="1" stroke-width="3.2"/>
<circle clip-path="url(#clip842)" cx="360.415" cy="1224.78" r="14.4" fill="#009af9" fill-rule="evenodd" fill-opacity="1" stroke="#000000" stroke-opacity="1" stroke-width="3.2"/>
<circle clip-path="url(#clip842)" cx="380.539" cy="1223.22" r="14.4" fill="#009af9" fill-rule="evenodd" fill-opacity="1" stroke="#000000" stroke-opacity="1" stroke-width="3.2"/>
<circle clip-path="url(#clip842)" cx="400.664" cy="1221.55" r="14.4" fill="#009af9" fill-rule="evenodd" fill-opacity="1" stroke="#000000" stroke-opacity="1" stroke-width="3.2"/>
<circle clip-path="url(#clip842)" cx="420.789" cy="1219.78" r="14.4" fill="#009af9" fill-rule="evenodd" fill-opacity="1" stroke="#000000" stroke-opacity="1" stroke-width="3.2"/>
<circle clip-path="url(#clip842)" cx="440.913" cy="1217.88" r="14.4" fill="#009af9" fill-rule="evenodd" fill-opacity="1" stroke="#000000" stroke-opacity="1" stroke-width="3.2"/>
<circle clip-path="url(#clip842)" cx="461.038" cy="1215.86" r="14.4" fill="#009af9" fill-rule="evenodd" fill-opacity="1" stroke="#000000" stroke-opacity="1" stroke-width="3.2"/>
<circle clip-path="url(#clip842)" cx="481.163" cy="1213.69" r="14.4" fill="#009af9" fill-rule="evenodd" fill-opacity="1" stroke="#000000" stroke-opacity="1" stroke-width="3.2"/>
<circle clip-path="url(#clip842)" cx="501.287" cy="1211.37" r="14.4" fill="#009af9" fill-rule="evenodd" fill-opacity="1" stroke="#000000" stroke-opacity="1" stroke-width="3.2"/>
<circle clip-path="url(#clip842)" cx="521.412" cy="1208.88" r="14.4" fill="#009af9" fill-rule="evenodd" fill-opacity="1" stroke="#000000" stroke-opacity="1" stroke-width="3.2"/>
<circle clip-path="url(#clip842)" cx="541.537" cy="1206.21" r="14.4" fill="#009af9" fill-rule="evenodd" fill-opacity="1" stroke="#000000" stroke-opacity="1" stroke-width="3.2"/>
<circle clip-path="url(#clip842)" cx="561.661" cy="1203.33" r="14.4" fill="#009af9" fill-rule="evenodd" fill-opacity="1" stroke="#000000" stroke-opacity="1" stroke-width="3.2"/>
<circle clip-path="url(#clip842)" cx="581.786" cy="1200.22" r="14.4" fill="#009af9" fill-rule="evenodd" fill-opacity="1" stroke="#000000" stroke-opacity="1" stroke-width="3.2"/>
<circle clip-path="url(#clip842)" cx="601.911" cy="1196.86" r="14.4" fill="#009af9" fill-rule="evenodd" fill-opacity="1" stroke="#000000" stroke-opacity="1" stroke-width="3.2"/>
<circle clip-path="url(#clip842)" cx="622.035" cy="1193.23" r="14.4" fill="#009af9" fill-rule="evenodd" fill-opacity="1" stroke="#000000" stroke-opacity="1" stroke-width="3.2"/>
<circle clip-path="url(#clip842)" cx="642.16" cy="1189.3" r="14.4" fill="#009af9" fill-rule="evenodd" fill-opacity="1" stroke="#000000" stroke-opacity="1" stroke-width="3.2"/>
<circle clip-path="url(#clip842)" cx="662.285" cy="1185.02" r="14.4" fill="#009af9" fill-rule="evenodd" fill-opacity="1" stroke="#000000" stroke-opacity="1" stroke-width="3.2"/>
<circle clip-path="url(#clip842)" cx="682.409" cy="1180.37" r="14.4" fill="#009af9" fill-rule="evenodd" fill-opacity="1" stroke="#000000" stroke-opacity="1" stroke-width="3.2"/>
<circle clip-path="url(#clip842)" cx="702.534" cy="1175.29" r="14.4" fill="#009af9" fill-rule="evenodd" fill-opacity="1" stroke="#000000" stroke-opacity="1" stroke-width="3.2"/>
<circle clip-path="url(#clip842)" cx="722.659" cy="1169.75" r="14.4" fill="#009af9" fill-rule="evenodd" fill-opacity="1" stroke="#000000" stroke-opacity="1" stroke-width="3.2"/>
<circle clip-path="url(#clip842)" cx="742.783" cy="1163.67" r="14.4" fill="#009af9" fill-rule="evenodd" fill-opacity="1" stroke="#000000" stroke-opacity="1" stroke-width="3.2"/>
<circle clip-path="url(#clip842)" cx="762.908" cy="1157" r="14.4" fill="#009af9" fill-rule="evenodd" fill-opacity="1" stroke="#000000" stroke-opacity="1" stroke-width="3.2"/>
<circle clip-path="url(#clip842)" cx="783.033" cy="1149.67" r="14.4" fill="#009af9" fill-rule="evenodd" fill-opacity="1" stroke="#000000" stroke-opacity="1" stroke-width="3.2"/>
<circle clip-path="url(#clip842)" cx="803.157" cy="1141.58" r="14.4" fill="#009af9" fill-rule="evenodd" fill-opacity="1" stroke="#000000" stroke-opacity="1" stroke-width="3.2"/>
<circle clip-path="url(#clip842)" cx="823.282" cy="1132.63" r="14.4" fill="#009af9" fill-rule="evenodd" fill-opacity="1" stroke="#000000" stroke-opacity="1" stroke-width="3.2"/>
<circle clip-path="url(#clip842)" cx="843.407" cy="1122.71" r="14.4" fill="#009af9" fill-rule="evenodd" fill-opacity="1" stroke="#000000" stroke-opacity="1" stroke-width="3.2"/>
<circle clip-path="url(#clip842)" cx="863.531" cy="1111.7" r="14.4" fill="#009af9" fill-rule="evenodd" fill-opacity="1" stroke="#000000" stroke-opacity="1" stroke-width="3.2"/>
<circle clip-path="url(#clip842)" cx="883.656" cy="1099.43" r="14.4" fill="#009af9" fill-rule="evenodd" fill-opacity="1" stroke="#000000" stroke-opacity="1" stroke-width="3.2"/>
<circle clip-path="url(#clip842)" cx="903.781" cy="1085.74" r="14.4" fill="#009af9" fill-rule="evenodd" fill-opacity="1" stroke="#000000" stroke-opacity="1" stroke-width="3.2"/>
<circle clip-path="url(#clip842)" cx="923.905" cy="1070.41" r="14.4" fill="#009af9" fill-rule="evenodd" fill-opacity="1" stroke="#000000" stroke-opacity="1" stroke-width="3.2"/>
<circle clip-path="url(#clip842)" cx="944.03" cy="1053.24" r="14.4" fill="#009af9" fill-rule="evenodd" fill-opacity="1" stroke="#000000" stroke-opacity="1" stroke-width="3.2"/>
<circle clip-path="url(#clip842)" cx="964.155" cy="1033.95" r="14.4" fill="#009af9" fill-rule="evenodd" fill-opacity="1" stroke="#000000" stroke-opacity="1" stroke-width="3.2"/>
<circle clip-path="url(#clip842)" cx="984.279" cy="1012.27" r="14.4" fill="#009af9" fill-rule="evenodd" fill-opacity="1" stroke="#000000" stroke-opacity="1" stroke-width="3.2"/>
<circle clip-path="url(#clip842)" cx="1004.4" cy="987.868" r="14.4" fill="#009af9" fill-rule="evenodd" fill-opacity="1" stroke="#000000" stroke-opacity="1" stroke-width="3.2"/>
<circle clip-path="url(#clip842)" cx="1024.53" cy="960.423" r="14.4" fill="#009af9" fill-rule="evenodd" fill-opacity="1" stroke="#000000" stroke-opacity="1" stroke-width="3.2"/>
<circle clip-path="url(#clip842)" cx="1044.65" cy="929.594" r="14.4" fill="#009af9" fill-rule="evenodd" fill-opacity="1" stroke="#000000" stroke-opacity="1" stroke-width="3.2"/>
<circle clip-path="url(#clip842)" cx="1064.78" cy="895.072" r="14.4" fill="#009af9" fill-rule="evenodd" fill-opacity="1" stroke="#000000" stroke-opacity="1" stroke-width="3.2"/>
<circle clip-path="url(#clip842)" cx="1084.9" cy="856.618" r="14.4" fill="#009af9" fill-rule="evenodd" fill-opacity="1" stroke="#000000" stroke-opacity="1" stroke-width="3.2"/>
<circle clip-path="url(#clip842)" cx="1105.03" cy="814.137" r="14.4" fill="#009af9" fill-rule="evenodd" fill-opacity="1" stroke="#000000" stroke-opacity="1" stroke-width="3.2"/>
<circle clip-path="url(#clip842)" cx="1125.15" cy="767.784" r="14.4" fill="#009af9" fill-rule="evenodd" fill-opacity="1" stroke="#000000" stroke-opacity="1" stroke-width="3.2"/>
<circle clip-path="url(#clip842)" cx="1145.28" cy="718.101" r="14.4" fill="#009af9" fill-rule="evenodd" fill-opacity="1" stroke="#000000" stroke-opacity="1" stroke-width="3.2"/>
<circle clip-path="url(#clip842)" cx="1165.4" cy="666.177" r="14.4" fill="#009af9" fill-rule="evenodd" fill-opacity="1" stroke="#000000" stroke-opacity="1" stroke-width="3.2"/>
<circle clip-path="url(#clip842)" cx="1185.53" cy="613.806" r="14.4" fill="#009af9" fill-rule="evenodd" fill-opacity="1" stroke="#000000" stroke-opacity="1" stroke-width="3.2"/>
<circle clip-path="url(#clip842)" cx="1205.65" cy="563.569" r="14.4" fill="#009af9" fill-rule="evenodd" fill-opacity="1" stroke="#000000" stroke-opacity="1" stroke-width="3.2"/>
<circle clip-path="url(#clip842)" cx="1225.78" cy="518.76" r="14.4" fill="#009af9" fill-rule="evenodd" fill-opacity="1" stroke="#000000" stroke-opacity="1" stroke-width="3.2"/>
<circle clip-path="url(#clip842)" cx="1245.9" cy="483.061" r="14.4" fill="#009af9" fill-rule="evenodd" fill-opacity="1" stroke="#000000" stroke-opacity="1" stroke-width="3.2"/>
<circle clip-path="url(#clip842)" cx="1266.02" cy="459.945" r="14.4" fill="#009af9" fill-rule="evenodd" fill-opacity="1" stroke="#000000" stroke-opacity="1" stroke-width="3.2"/>
<circle clip-path="url(#clip842)" cx="1286.15" cy="451.931" r="14.4" fill="#009af9" fill-rule="evenodd" fill-opacity="1" stroke="#000000" stroke-opacity="1" stroke-width="3.2"/>
<circle clip-path="url(#clip842)" cx="1306.27" cy="459.945" r="14.4" fill="#009af9" fill-rule="evenodd" fill-opacity="1" stroke="#000000" stroke-opacity="1" stroke-width="3.2"/>
<circle clip-path="url(#clip842)" cx="1326.4" cy="483.061" r="14.4" fill="#009af9" fill-rule="evenodd" fill-opacity="1" stroke="#000000" stroke-opacity="1" stroke-width="3.2"/>
<circle clip-path="url(#clip842)" cx="1346.52" cy="518.76" r="14.4" fill="#009af9" fill-rule="evenodd" fill-opacity="1" stroke="#000000" stroke-opacity="1" stroke-width="3.2"/>
<circle clip-path="url(#clip842)" cx="1366.65" cy="563.569" r="14.4" fill="#009af9" fill-rule="evenodd" fill-opacity="1" stroke="#000000" stroke-opacity="1" stroke-width="3.2"/>
<circle clip-path="url(#clip842)" cx="1386.77" cy="613.806" r="14.4" fill="#009af9" fill-rule="evenodd" fill-opacity="1" stroke="#000000" stroke-opacity="1" stroke-width="3.2"/>
<circle clip-path="url(#clip842)" cx="1406.9" cy="666.177" r="14.4" fill="#009af9" fill-rule="evenodd" fill-opacity="1" stroke="#000000" stroke-opacity="1" stroke-width="3.2"/>
<circle clip-path="url(#clip842)" cx="1427.02" cy="718.101" r="14.4" fill="#009af9" fill-rule="evenodd" fill-opacity="1" stroke="#000000" stroke-opacity="1" stroke-width="3.2"/>
<circle clip-path="url(#clip842)" cx="1447.15" cy="767.784" r="14.4" fill="#009af9" fill-rule="evenodd" fill-opacity="1" stroke="#000000" stroke-opacity="1" stroke-width="3.2"/>
<circle clip-path="url(#clip842)" cx="1467.27" cy="814.137" r="14.4" fill="#009af9" fill-rule="evenodd" fill-opacity="1" stroke="#000000" stroke-opacity="1" stroke-width="3.2"/>
<circle clip-path="url(#clip842)" cx="1487.4" cy="856.618" r="14.4" fill="#009af9" fill-rule="evenodd" fill-opacity="1" stroke="#000000" stroke-opacity="1" stroke-width="3.2"/>
<circle clip-path="url(#clip842)" cx="1507.52" cy="895.072" r="14.4" fill="#009af9" fill-rule="evenodd" fill-opacity="1" stroke="#000000" stroke-opacity="1" stroke-width="3.2"/>
<circle clip-path="url(#clip842)" cx="1527.64" cy="929.594" r="14.4" fill="#009af9" fill-rule="evenodd" fill-opacity="1" stroke="#000000" stroke-opacity="1" stroke-width="3.2"/>
<circle clip-path="url(#clip842)" cx="1547.77" cy="960.423" r="14.4" fill="#009af9" fill-rule="evenodd" fill-opacity="1" stroke="#000000" stroke-opacity="1" stroke-width="3.2"/>
<circle clip-path="url(#clip842)" cx="1567.89" cy="987.868" r="14.4" fill="#009af9" fill-rule="evenodd" fill-opacity="1" stroke="#000000" stroke-opacity="1" stroke-width="3.2"/>
<circle clip-path="url(#clip842)" cx="1588.02" cy="1012.27" r="14.4" fill="#009af9" fill-rule="evenodd" fill-opacity="1" stroke="#000000" stroke-opacity="1" stroke-width="3.2"/>
<circle clip-path="url(#clip842)" cx="1608.14" cy="1033.95" r="14.4" fill="#009af9" fill-rule="evenodd" fill-opacity="1" stroke="#000000" stroke-opacity="1" stroke-width="3.2"/>
<circle clip-path="url(#clip842)" cx="1628.27" cy="1053.24" r="14.4" fill="#009af9" fill-rule="evenodd" fill-opacity="1" stroke="#000000" stroke-opacity="1" stroke-width="3.2"/>
<circle clip-path="url(#clip842)" cx="1648.39" cy="1070.41" r="14.4" fill="#009af9" fill-rule="evenodd" fill-opacity="1" stroke="#000000" stroke-opacity="1" stroke-width="3.2"/>
<circle clip-path="url(#clip842)" cx="1668.52" cy="1085.74" r="14.4" fill="#009af9" fill-rule="evenodd" fill-opacity="1" stroke="#000000" stroke-opacity="1" stroke-width="3.2"/>
<circle clip-path="url(#clip842)" cx="1688.64" cy="1099.43" r="14.4" fill="#009af9" fill-rule="evenodd" fill-opacity="1" stroke="#000000" stroke-opacity="1" stroke-width="3.2"/>
<circle clip-path="url(#clip842)" cx="1708.77" cy="1111.7" r="14.4" fill="#009af9" fill-rule="evenodd" fill-opacity="1" stroke="#000000" stroke-opacity="1" stroke-width="3.2"/>
<circle clip-path="url(#clip842)" cx="1728.89" cy="1122.71" r="14.4" fill="#009af9" fill-rule="evenodd" fill-opacity="1" stroke="#000000" stroke-opacity="1" stroke-width="3.2"/>
<circle clip-path="url(#clip842)" cx="1749.02" cy="1132.63" r="14.4" fill="#009af9" fill-rule="evenodd" fill-opacity="1" stroke="#000000" stroke-opacity="1" stroke-width="3.2"/>
<circle clip-path="url(#clip842)" cx="1769.14" cy="1141.58" r="14.4" fill="#009af9" fill-rule="evenodd" fill-opacity="1" stroke="#000000" stroke-opacity="1" stroke-width="3.2"/>
<circle clip-path="url(#clip842)" cx="1789.27" cy="1149.67" r="14.4" fill="#009af9" fill-rule="evenodd" fill-opacity="1" stroke="#000000" stroke-opacity="1" stroke-width="3.2"/>
<circle clip-path="url(#clip842)" cx="1809.39" cy="1157" r="14.4" fill="#009af9" fill-rule="evenodd" fill-opacity="1" stroke="#000000" stroke-opacity="1" stroke-width="3.2"/>
<circle clip-path="url(#clip842)" cx="1829.51" cy="1163.67" r="14.4" fill="#009af9" fill-rule="evenodd" fill-opacity="1" stroke="#000000" stroke-opacity="1" stroke-width="3.2"/>
<circle clip-path="url(#clip842)" cx="1849.64" cy="1169.75" r="14.4" fill="#009af9" fill-rule="evenodd" fill-opacity="1" stroke="#000000" stroke-opacity="1" stroke-width="3.2"/>
<circle clip-path="url(#clip842)" cx="1869.76" cy="1175.29" r="14.4" fill="#009af9" fill-rule="evenodd" fill-opacity="1" stroke="#000000" stroke-opacity="1" stroke-width="3.2"/>
<circle clip-path="url(#clip842)" cx="1889.89" cy="1180.37" r="14.4" fill="#009af9" fill-rule="evenodd" fill-opacity="1" stroke="#000000" stroke-opacity="1" stroke-width="3.2"/>
<circle clip-path="url(#clip842)" cx="1910.01" cy="1185.02" r="14.4" fill="#009af9" fill-rule="evenodd" fill-opacity="1" stroke="#000000" stroke-opacity="1" stroke-width="3.2"/>
<circle clip-path="url(#clip842)" cx="1930.14" cy="1189.3" r="14.4" fill="#009af9" fill-rule="evenodd" fill-opacity="1" stroke="#000000" stroke-opacity="1" stroke-width="3.2"/>
<circle clip-path="url(#clip842)" cx="1950.26" cy="1193.23" r="14.4" fill="#009af9" fill-rule="evenodd" fill-opacity="1" stroke="#000000" stroke-opacity="1" stroke-width="3.2"/>
<circle clip-path="url(#clip842)" cx="1970.39" cy="1196.86" r="14.4" fill="#009af9" fill-rule="evenodd" fill-opacity="1" stroke="#000000" stroke-opacity="1" stroke-width="3.2"/>
<circle clip-path="url(#clip842)" cx="1990.51" cy="1200.22" r="14.4" fill="#009af9" fill-rule="evenodd" fill-opacity="1" stroke="#000000" stroke-opacity="1" stroke-width="3.2"/>
<circle clip-path="url(#clip842)" cx="2010.64" cy="1203.33" r="14.4" fill="#009af9" fill-rule="evenodd" fill-opacity="1" stroke="#000000" stroke-opacity="1" stroke-width="3.2"/>
<circle clip-path="url(#clip842)" cx="2030.76" cy="1206.21" r="14.4" fill="#009af9" fill-rule="evenodd" fill-opacity="1" stroke="#000000" stroke-opacity="1" stroke-width="3.2"/>
<circle clip-path="url(#clip842)" cx="2050.89" cy="1208.88" r="14.4" fill="#009af9" fill-rule="evenodd" fill-opacity="1" stroke="#000000" stroke-opacity="1" stroke-width="3.2"/>
<circle clip-path="url(#clip842)" cx="2071.01" cy="1211.37" r="14.4" fill="#009af9" fill-rule="evenodd" fill-opacity="1" stroke="#000000" stroke-opacity="1" stroke-width="3.2"/>
<circle clip-path="url(#clip842)" cx="2091.14" cy="1213.69" r="14.4" fill="#009af9" fill-rule="evenodd" fill-opacity="1" stroke="#000000" stroke-opacity="1" stroke-width="3.2"/>
<circle clip-path="url(#clip842)" cx="2111.26" cy="1215.86" r="14.4" fill="#009af9" fill-rule="evenodd" fill-opacity="1" stroke="#000000" stroke-opacity="1" stroke-width="3.2"/>
<circle clip-path="url(#clip842)" cx="2131.38" cy="1217.88" r="14.4" fill="#009af9" fill-rule="evenodd" fill-opacity="1" stroke="#000000" stroke-opacity="1" stroke-width="3.2"/>
<circle clip-path="url(#clip842)" cx="2151.51" cy="1219.78" r="14.4" fill="#009af9" fill-rule="evenodd" fill-opacity="1" stroke="#000000" stroke-opacity="1" stroke-width="3.2"/>
<circle clip-path="url(#clip842)" cx="2171.63" cy="1221.55" r="14.4" fill="#009af9" fill-rule="evenodd" fill-opacity="1" stroke="#000000" stroke-opacity="1" stroke-width="3.2"/>
<circle clip-path="url(#clip842)" cx="2191.76" cy="1223.22" r="14.4" fill="#009af9" fill-rule="evenodd" fill-opacity="1" stroke="#000000" stroke-opacity="1" stroke-width="3.2"/>
<circle clip-path="url(#clip842)" cx="2211.88" cy="1224.78" r="14.4" fill="#009af9" fill-rule="evenodd" fill-opacity="1" stroke="#000000" stroke-opacity="1" stroke-width="3.2"/>
<circle clip-path="url(#clip842)" cx="2232.01" cy="1226.25" r="14.4" fill="#009af9" fill-rule="evenodd" fill-opacity="1" stroke="#000000" stroke-opacity="1" stroke-width="3.2"/>
<circle clip-path="url(#clip842)" cx="2252.13" cy="1227.64" r="14.4" fill="#009af9" fill-rule="evenodd" fill-opacity="1" stroke="#000000" stroke-opacity="1" stroke-width="3.2"/>
<circle clip-path="url(#clip842)" cx="2272.26" cy="1228.94" r="14.4" fill="#009af9" fill-rule="evenodd" fill-opacity="1" stroke="#000000" stroke-opacity="1" stroke-width="3.2"/>
<circle clip-path="url(#clip842)" cx="2292.38" cy="1230.18" r="14.4" fill="#009af9" fill-rule="evenodd" fill-opacity="1" stroke="#000000" stroke-opacity="1" stroke-width="3.2"/>
<polyline clip-path="url(#clip842)" style="stroke:#e26f46; stroke-linecap:round; stroke-linejoin:round; stroke-width:8; stroke-opacity:1; fill:none" points="279.916,4.48232e+09 281.931,4.1943e+06 283.945,4.1943e+06 285.96,4.1943e+06 287.974,4.1943e+06 289.989,4.1943e+06 292.003,4.1943e+06 294.018,4.1943e+06 296.032,4.1943e+06 298.046,4.1943e+06 300.061,-90870.7 302.075,-4.1943e+06 304.09,-4.1943e+06 306.104,-4.1943e+06 308.119,-4.1943e+06 310.133,-3.79843e+06 312.148,-2.47992e+06 314.162,-1.46036e+06 316.177,-739195 318.191,-270504 320.206,5232.71 322.22,144981 324.235,196211 326.249,195055 328.264,167030 330.278,128860 332.293,90567.3 334.307,57409 336.322,31481.2 338.336,12952.1 340.351,948.011 342.365,-5851.39 344.38,-8840.24 346.394,-9279.07 348.408,-8197.36 350.423,-6369.81 352.437,-4332.71 354.452,-2422.61 356.466,-820.751 358.481,402.932 360.495,1251.58 362.51,1771.34 364.524,2028.21 366.539,2092.93 368.553,2030.76 370.568,1896.57 372.582,1732.42 374.597,1568.09 376.611,1422.34 378.626,1304.92 380.64,1218.98 382.655,1163.03 384.669,1132.85 386.684,1122.91 388.698,1127.39 390.713,1140.92 392.727,1158.98 394.742,1178.03 396.756,1195.71 398.771,1210.5 400.785,1221.65 402.799,1229.11 404.814,1233.19 406.828,1234.47 408.843,1233.63 410.857,1231.39 412.872,1228.38 414.886,1225.14 416.901,1222.07 418.915,1219.45 420.93,1217.4 422.944,1216 424.959,1215.2 426.973,1214.9 428.988,1215.02 431.002,1215.4 433.017,1215.92 435.031,1216.48 437.046,1216.99 439.06,1217.37 441.075,1217.59 443.089,1217.65 445.104,1217.53 447.118,1217.26 449.133,1216.87 451.147,1216.4 453.161,1215.88 455.176,1215.35 457.19,1214.84 459.205,1214.37 461.219,1213.97 463.234,1213.64 465.248,1213.38 467.263,1213.2 469.277,1213.08 471.292,1213 473.306,1212.97 475.321,1212.96 477.335,1212.95 479.35,1212.93 481.364,1212.89 483.379,1212.82 485.393,1212.7 487.408,1212.55 489.422,1212.35 491.437,1212.11 493.451,1211.82 495.466,1211.51 497.48,1211.16 499.495,1210.8 501.509,1210.42 503.523,1210.04 505.538,1209.66 507.552,1209.3 509.567,1208.94 511.581,1208.61 513.596,1208.3 515.61,1208.01 517.625,1207.75 519.639,1207.51 521.654,1207.3 523.668,1207.1 525.683,1206.93 527.697,1206.76 529.712,1206.62 531.726,1206.48 533.741,1206.34 535.755,1206.21 537.77,1206.07 539.784,1205.93 541.799,1205.79 543.813,1205.64 545.828,1205.48 547.842,1205.31 549.857,1205.13 551.871,1204.95 553.885,1204.75 555.9,1204.55 557.914,1204.34 559.929,1204.12 561.943,1203.89 563.958,1203.66 565.972,1203.42 567.987,1203.17 570.001,1202.92 572.016,1202.67 574.03,1202.4 576.045,1202.13 578.059,1201.86 580.074,1201.57 582.088,1201.28 584.103,1200.98 586.117,1200.67 588.132,1200.35 590.146,1200.02 592.161,1199.68 594.175,1199.33 596.19,1198.97 598.204,1198.6 600.219,1198.21 602.233,1197.82 604.247,1197.41 606.262,1197 608.276,1196.58 610.291,1196.15 612.305,1195.72 614.32,1195.28 616.334,1194.83 618.349,1194.39 620.363,1193.94 622.378,1193.49 624.392,1193.05 626.407,1192.61 628.421,1192.17 630.436,1191.74 632.45,1191.31 634.465,1190.89 636.479,1190.48 638.494,1190.07 640.508,1189.67 642.523,1189.28 644.537,1188.89 646.552,1188.51 648.566,1188.14 650.581,1187.76 652.595,1187.4 654.609,1187.03 656.624,1186.67 658.638,1186.31 660.653,1185.94 662.667,1185.58 664.682,1185.21 666.696,1184.84 668.711,1184.46 670.725,1184.08 672.74,1183.69 674.754,1183.3 676.769,1182.89 678.783,1182.48 680.798,1182.06 682.812,1181.63 684.827,1181.19 686.841,1180.75 688.856,1180.29 690.87,1179.82 692.885,1179.35 694.899,1178.86 696.914,1178.37 698.928,1177.87 700.943,1177.37 702.957,1176.85 704.971,1176.33 706.986,1175.81 709,1175.28 711.015,1174.75 713.029,1174.21 715.044,1173.67 717.058,1173.12 719.073,1172.58 721.087,1172.03 723.102,1171.47 725.116,1170.92 727.131,1170.36 729.145,1169.8 731.16,1169.23 733.174,1168.67 735.189,1168.09 737.203,1167.52 739.218,1166.94 741.232,1166.35 743.247,1165.76 745.261,1165.16 747.276,1164.55 749.29,1163.94 751.305,1163.32 753.319,1162.69 755.334,1162.05 757.348,1161.39 759.362,1160.73 761.377,1160.06 763.391,1159.37 765.406,1158.67 767.42,1157.96 769.435,1157.24 771.449,1156.5 773.464,1155.75 775.478,1154.99 777.493,1154.21 779.507,1153.42 781.522,1152.62 783.536,1151.8 785.551,1150.97 787.565,1150.13 789.58,1149.28 791.594,1148.41 793.609,1147.54 795.623,1146.65 797.638,1145.75 799.652,1144.85 801.667,1143.94 803.681,1143.02 805.696,1142.09 807.71,1141.15 809.724,1140.21 811.739,1139.26 813.753,1138.31 815.768,1137.35 817.782,1136.39 819.797,1135.43 821.811,1134.46 823.826,1133.49 825.84,1132.51 827.855,1131.53 829.869,1130.55 831.884,1129.56 833.898,1128.58 835.913,1127.58 837.927,1126.59 839.942,1125.59 841.956,1124.59 843.971,1123.58 845.985,1122.57 848,1121.55 850.014,1120.52 852.029,1119.49 854.043,1118.46 856.058,1117.41 858.072,1116.35 860.086,1115.29 862.101,1114.21 864.115,1113.13 866.13,1112.03 868.144,1110.92 870.159,1109.8 872.173,1108.66 874.188,1107.51 876.202,1106.34 878.217,1105.15 880.231,1103.95 882.246,1102.73 884.26,1101.5 886.275,1100.24 888.289,1098.97 890.304,1097.67 892.318,1096.36 894.333,1095.02 896.347,1093.67 898.362,1092.29 900.376,1090.89 902.391,1089.47 904.405,1088.03 906.42,1086.57 908.434,1085.08 910.448,1083.58 912.463,1082.05 914.477,1080.5 916.492,1078.92 918.506,1077.33 920.521,1075.71 922.535,1074.07 924.55,1072.41 926.564,1070.73 928.579,1069.03 930.593,1067.3 932.608,1065.56 934.622,1063.79 936.637,1062 938.651,1060.19 940.666,1058.37 942.68,1056.52 944.695,1054.65 946.709,1052.76 948.724,1050.85 950.738,1048.92 952.753,1046.97 954.767,1045 956.782,1043.01 958.796,1041 960.81,1038.97 962.825,1036.91 964.839,1034.84 966.854,1032.75 968.868,1030.63 970.883,1028.49 972.897,1026.33 974.912,1024.15 976.926,1021.95 978.941,1019.72 980.955,1017.47 982.97,1015.19 984.984,1012.89 986.999,1010.57 989.013,1008.22 991.028,1005.84 993.042,1003.44 995.057,1001.01 997.071,998.549 999.086,996.062 1001.1,993.546 1003.11,991 1005.13,988.425 1007.14,985.818 1009.16,983.181 1011.17,980.511 1013.19,977.809 1015.2,975.074 1017.22,972.305 1019.23,969.502 1021.24,966.665 1023.26,963.793 1025.27,960.885 1027.29,957.941 1029.3,954.961 1031.32,951.945 1033.33,948.891 1035.35,945.8 1037.36,942.671 1039.38,939.504 1041.39,936.299 1043.4,933.056 1045.42,929.773 1047.43,926.452 1049.45,923.092 1051.46,919.693 1053.48,916.254 1055.49,912.776 1057.51,909.259 1059.52,905.702 1061.53,902.105 1063.55,898.47 1065.56,894.794 1067.58,891.079 1069.59,887.325 1071.61,883.531 1073.62,879.698 1075.64,875.826 1077.65,871.914 1079.66,867.963 1081.68,863.974 1083.69,859.945 1085.71,855.878 1087.72,851.772 1089.74,847.628 1091.75,843.445 1093.77,839.224 1095.78,834.965 1097.8,830.668 1099.81,826.334 1101.82,821.962 1103.84,817.553 1105.85,813.106 1107.87,808.623 1109.88,804.103 1111.9,799.547 1113.91,794.955 1115.93,790.328 1117.94,785.665 1119.95,780.967 1121.97,776.235 1123.98,771.468 1126,766.668 1128.01,761.835 1130.03,756.97 1132.04,752.073 1134.06,747.144 1136.07,742.186 1138.08,737.198 1140.1,732.181 1142.11,727.137 1144.13,722.066 1146.14,716.969 1148.16,711.849 1150.17,706.705 1152.19,701.539 1154.2,696.353 1156.22,691.149 1158.23,685.927 1160.24,680.69 1162.26,675.44 1164.27,670.178 1166.29,664.907 1168.3,659.628 1170.32,654.344 1172.33,649.057 1174.35,643.77 1176.36,638.486 1178.37,633.206 1180.39,627.934 1182.4,622.672 1184.42,617.424 1186.43,612.193 1188.45,606.981 1190.46,601.792 1192.48,596.63 1194.49,591.498 1196.5,586.399 1198.52,581.336 1200.53,576.314 1202.55,571.337 1204.56,566.407 1206.58,561.529 1208.59,556.707 1210.61,551.944 1212.62,547.245 1214.64,542.613 1216.65,538.053 1218.66,533.568 1220.68,529.162 1222.69,524.84 1224.71,520.605 1226.72,516.461 1228.74,512.412 1230.75,508.462 1232.77,504.615 1234.78,500.875 1236.79,497.244 1238.81,493.728 1240.82,490.329 1242.84,487.05 1244.85,483.896 1246.87,480.869 1248.88,477.972 1250.9,475.21 1252.91,472.583 1254.92,470.096 1256.94,467.75 1258.95,465.549 1260.97,463.494 1262.98,461.589 1265,459.833 1267.01,458.231 1269.03,456.783 1271.04,455.49 1273.05,454.355 1275.07,453.379 1277.08,452.561 1279.1,451.904 1281.11,451.407 1283.13,451.072 1285.14,450.898 1287.16,450.886 1289.17,451.035 1291.19,451.346 1293.2,451.817 1295.21,452.448 1297.23,453.239 1299.24,454.188 1301.26,455.294 1303.27,456.556 1305.29,457.972 1307.3,459.541 1309.32,461.261 1311.33,463.13 1313.34,465.145 1315.36,467.306 1317.37,469.608 1319.39,472.05 1321.4,474.629 1323.42,477.342 1325.43,480.187 1327.45,483.161 1329.46,486.259 1331.47,489.48 1333.49,492.82 1335.5,496.275 1337.52,499.843 1339.53,503.52 1341.55,507.301 1343.56,511.184 1345.58,515.166 1347.59,519.241 1349.61,523.407 1351.62,527.66 1353.63,531.996 1355.65,536.411 1357.66,540.902 1359.68,545.464 1361.69,550.095 1363.71,554.789 1365.72,559.545 1367.74,564.356 1369.75,569.221 1371.76,574.136 1373.78,579.096 1375.79,584.098 1377.81,589.14 1379.82,594.216 1381.84,599.324 1383.85,604.461 1385.87,609.623 1387.88,614.807 1389.89,620.01 1391.91,625.229 1393.92,630.461 1395.94,635.702 1397.95,640.951 1399.97,646.205 1401.98,651.46 1404,656.715 1406.01,661.967 1408.03,667.213 1410.04,672.451 1412.05,677.68 1414.07,682.897 1416.08,688.1 1418.1,693.288 1420.11,698.458 1422.13,703.609 1424.14,708.739 1426.16,713.847 1428.17,718.931 1430.18,723.991 1432.2,729.024 1434.21,734.03 1436.23,739.008 1438.24,743.956 1440.26,748.874 1442.27,753.762 1444.29,758.617 1446.3,763.44 1448.31,768.23 1450.33,772.986 1452.34,777.708 1454.36,782.395 1456.37,787.048 1458.39,791.665 1460.4,796.246 1462.42,800.791 1464.43,805.3 1466.45,809.773 1468.46,814.209 1470.47,818.608 1472.49,822.97 1474.5,827.295 1476.52,831.584 1478.53,835.835 1480.55,840.049 1482.56,844.225 1484.58,848.364 1486.59,852.466 1488.6,856.53 1490.62,860.557 1492.63,864.546 1494.65,868.498 1496.66,872.412 1498.68,876.288 1500.69,880.126 1502.71,883.927 1504.72,887.689 1506.73,891.414 1508.75,895.1 1510.76,898.748 1512.78,902.358 1514.79,905.93 1516.81,909.463 1518.82,912.957 1520.84,916.413 1522.85,919.829 1524.86,923.207 1526.88,926.546 1528.89,929.847 1530.91,933.108 1532.92,936.33 1534.94,939.512 1536.95,942.656 1538.97,945.761 1540.98,948.826 1543,951.853 1545.01,954.841 1547.02,957.79 1549.04,960.701 1551.05,963.573 1553.07,966.407 1555.08,969.203 1557.1,971.961 1559.11,974.683 1561.13,977.367 1563.14,980.015 1565.15,982.627 1567.17,985.203 1569.18,987.744 1571.2,990.251 1573.21,992.724 1575.23,995.163 1577.24,997.57 1579.26,999.945 1581.27,1002.29 1583.28,1004.6 1585.3,1006.88 1587.31,1009.14 1589.33,1011.36 1591.34,1013.56 1593.36,1015.73 1595.37,1017.88 1597.39,1019.99 1599.4,1022.09 1601.42,1024.16 1603.43,1026.21 1605.44,1028.23 1607.46,1030.24 1609.47,1032.22 1611.49,1034.19 1613.5,1036.13 1615.52,1038.05 1617.53,1039.96 1619.55,1041.85 1621.56,1043.72 1623.57,1045.57 1625.59,1047.41 1627.6,1049.23 1629.62,1051.04 1631.63,1052.83 1633.65,1054.6 1635.66,1056.36 1637.68,1058.1 1639.69,1059.83 1641.7,1061.55 1643.72,1063.25 1645.73,1064.93 1647.75,1066.6 1649.76,1068.25 1651.78,1069.89 1653.79,1071.52 1655.81,1073.12 1657.82,1074.72 1659.84,1076.29 1661.85,1077.85 1663.86,1079.4 1665.88,1080.92 1667.89,1082.43 1669.91,1083.93 1671.92,1085.4 1673.94,1086.86 1675.95,1088.3 1677.97,1089.73 1679.98,1091.13 1681.99,1092.52 1684.01,1093.89 1686.02,1095.24 1688.04,1096.58 1690.05,1097.89 1692.07,1099.19 1694.08,1100.47 1696.1,1101.74 1698.11,1102.99 1700.12,1104.21 1702.14,1105.43 1704.15,1106.62 1706.17,1107.8 1708.18,1108.97 1710.2,1110.12 1712.21,1111.25 1714.23,1112.37 1716.24,1113.48 1718.26,1114.57 1720.27,1115.65 1722.28,1116.72 1724.3,1117.77 1726.31,1118.82 1728.33,1119.85 1730.34,1120.87 1732.36,1121.88 1734.37,1122.89 1736.39,1123.88 1738.4,1124.86 1740.41,1125.84 1742.43,1126.8 1744.44,1127.76 1746.46,1128.71 1748.47,1129.65 1750.49,1130.59 1752.5,1131.51 1754.52,1132.43 1756.53,1133.35 1758.54,1134.25 1760.56,1135.15 1762.57,1136.04 1764.59,1136.92 1766.6,1137.79 1768.62,1138.66 1770.63,1139.52 1772.65,1140.37 1774.66,1141.21 1776.67,1142.04 1778.69,1142.86 1780.7,1143.68 1782.72,1144.48 1784.73,1145.28 1786.75,1146.06 1788.76,1146.84 1790.78,1147.61 1792.79,1148.36 1794.81,1149.11 1796.82,1149.85 1798.83,1150.58 1800.85,1151.3 1802.86,1152.01 1804.88,1152.72 1806.89,1153.42 1808.91,1154.1 1810.92,1154.79 1812.94,1155.46 1814.95,1156.13 1816.96,1156.8 1818.98,1157.46 1820.99,1158.11 1823.01,1158.77 1825.02,1159.42 1827.04,1160.06 1829.05,1160.71 1831.07,1161.36 1833.08,1162 1835.09,1162.65 1837.11,1163.3 1839.12,1163.95 1841.14,1164.6 1843.15,1165.25 1845.17,1165.91 1847.18,1166.57 1849.2,1167.23 1851.21,1167.9 1853.23,1168.56 1855.24,1169.23 1857.25,1169.91 1859.27,1170.58 1861.28,1171.25 1863.3,1171.92 1865.31,1172.6 1867.33,1173.27 1869.34,1173.93 1871.36,1174.59 1873.37,1175.25 1875.38,1175.9 1877.4,1176.54 1879.41,1177.18 1881.43,1177.8 1883.44,1178.41 1885.46,1179.01 1887.47,1179.59 1889.49,1180.15 1891.5,1180.7 1893.51,1181.23 1895.53,1181.74 1897.54,1182.23 1899.56,1182.7 1901.57,1183.15 1903.59,1183.58 1905.6,1183.99 1907.62,1184.37 1909.63,1184.74 1911.65,1185.08 1913.66,1185.41 1915.67,1185.71 1917.69,1186 1919.7,1186.28 1921.72,1186.54 1923.73,1186.79 1925.75,1187.03 1927.76,1187.26 1929.78,1187.49 1931.79,1187.72 1933.8,1187.95 1935.82,1188.18 1937.83,1188.42 1939.85,1188.67 1941.86,1188.93 1943.88,1189.21 1945.89,1189.5 1947.91,1189.81 1949.92,1190.14 1951.93,1190.5 1953.95,1190.88 1955.96,1191.28 1957.98,1191.71 1959.99,1192.16 1962.01,1192.64 1964.02,1193.15 1966.04,1193.67 1968.05,1194.22 1970.07,1194.79 1972.08,1195.38 1974.09,1195.98 1976.11,1196.6 1978.12,1197.22 1980.14,1197.84 1982.15,1198.47 1984.17,1199.09 1986.18,1199.7 1988.2,1200.3 1990.21,1200.89 1992.22,1201.45 1994.24,1201.98 1996.25,1202.49 1998.27,1202.97 2000.28,1203.41 2002.3,1203.82 2004.31,1204.18 2006.33,1204.51 2008.34,1204.8 2010.35,1205.05 2012.37,1205.27 2014.38,1205.45 2016.4,1205.6 2018.41,1205.72 2020.43,1205.82 2022.44,1205.89 2024.46,1205.95 2026.47,1206.01 2028.49,1206.06 2030.5,1206.11 2032.51,1206.17 2034.53,1206.25 2036.54,1206.34 2038.56,1206.47 2040.57,1206.62 2042.59,1206.8 2044.6,1207.03 2046.62,1207.29 2048.63,1207.59 2050.64,1207.93 2052.66,1208.32 2054.67,1208.74 2056.69,1209.19 2058.7,1209.68 2060.72,1210.19 2062.73,1210.72 2064.75,1211.26 2066.76,1211.8 2068.77,1212.35 2070.79,1212.88 2072.8,1213.39 2074.82,1213.87 2076.83,1214.31 2078.85,1214.7 2080.86,1215.05 2082.88,1215.33 2084.89,1215.55 2086.9,1215.71 2088.92,1215.8 2090.93,1215.82 2092.95,1215.77 2094.96,1215.66 2096.98,1215.5 2098.99,1215.29 2101.01,1215.04 2103.02,1214.78 2105.04,1214.5 2107.05,1214.23 2109.06,1213.98 2111.08,1213.78 2113.09,1213.63 2115.11,1213.56 2117.12,1213.58 2119.14,1213.7 2121.15,1213.94 2123.17,1214.28 2125.18,1214.74 2127.19,1215.3 2129.21,1215.96 2131.22,1216.68 2133.24,1217.44 2135.25,1218.19 2137.27,1218.91 2139.28,1219.54 2141.3,1220.03 2143.31,1220.35 2145.32,1220.45 2147.34,1220.31 2149.35,1219.92 2151.37,1219.3 2153.38,1218.48 2155.4,1217.54 2157.41,1216.57 2159.43,1215.71 2161.44,1215.13 2163.46,1215 2165.47,1215.5 2167.48,1216.8 2169.5,1219.05 2171.51,1222.3 2173.53,1226.52 2175.54,1231.55 2177.56,1237.08 2179.57,1242.59 2181.59,1247.41 2183.6,1250.64 2185.61,1251.31 2187.63,1248.29 2189.64,1240.57 2191.66,1227.34 2193.67,1208.24 2195.69,1183.51 2197.7,1154.42 2199.72,1123.45 2201.73,1094.52 2203.74,1073.21 2205.76,1066.63 2207.77,1083.21 2209.79,1132.05 2211.8,1221.92 2213.82,1359.25 2215.83,1546.51 2217.85,1778.67 2219.86,2040.21 2221.88,2301.54 2223.89,2515.21 2225.9,2613.83 2227.92,2509.25 2229.93,2095.69 2231.95,1257.47 2233.96,-114.915 2235.98,-2099.98 2237.99,-4707.93 2240.01,-7831.1 2242.02,-11177.5 2244.03,-14199.1 2246.05,-16009.9 2248.06,-15318.1 2250.08,-10389.8 2252.09,920.437 2254.11,21016.9 2256.12,52218.7 2258.14,96132.2 2260.15,152623 2262.16,218275 2264.18,284204 2266.19,333178 2268.21,336079 2270.22,248002 2272.24,4719.08 2274.25,-479047 2276.27,-1.30685e+06 2278.28,-2.58862e+06 2280.3,-4.1943e+06 2282.31,-4.1943e+06 2284.32,-4.1943e+06 2286.34,-4.1943e+06 2288.35,-4.1943e+06 2290.37,-4.1943e+06 2292.38,1227.5 "/>
<path clip-path="url(#clip840)" d="M1551.57 248.629 L2281.65 248.629 L2281.65 93.1086 L1551.57 93.1086  Z" fill="#ffffff" fill-rule="evenodd" fill-opacity="1"/>
<polyline clip-path="url(#clip840)" style="stroke:#000000; stroke-linecap:round; stroke-linejoin:round; stroke-width:4; stroke-opacity:1; fill:none" points="1551.57,248.629 2281.65,248.629 2281.65,93.1086 1551.57,93.1086 1551.57,248.629 "/>
<circle clip-path="url(#clip840)" cx="1646.38" cy="144.949" r="20.48" fill="#009af9" fill-rule="evenodd" fill-opacity="1" stroke="#000000" stroke-opacity="1" stroke-width="4.55111"/>
<path clip-path="url(#clip840)" d="M1748.6 128.942 L1748.6 136.303 L1757.37 136.303 L1757.37 139.613 L1748.6 139.613 L1748.6 153.687 Q1748.6 156.858 1749.45 157.761 Q1750.33 158.664 1753 158.664 L1757.37 158.664 L1757.37 162.229 L1753 162.229 Q1748.06 162.229 1746.19 160.4 Q1744.31 158.548 1744.31 153.687 L1744.31 139.613 L1741.19 139.613 L1741.19 136.303 L1744.31 136.303 L1744.31 128.942 L1748.6 128.942 Z" fill="#000000" fill-rule="nonzero" fill-opacity="1" /><path clip-path="url(#clip840)" d="M1762.97 136.303 L1767.23 136.303 L1767.23 162.229 L1762.97 162.229 L1762.97 136.303 M1762.97 126.21 L1767.23 126.21 L1767.23 131.604 L1762.97 131.604 L1762.97 126.21 Z" fill="#000000" fill-rule="nonzero" fill-opacity="1" /><path clip-path="url(#clip840)" d="M1780.36 128.942 L1780.36 136.303 L1789.13 136.303 L1789.13 139.613 L1780.36 139.613 L1780.36 153.687 Q1780.36 156.858 1781.21 157.761 Q1782.09 158.664 1784.75 158.664 L1789.13 158.664 L1789.13 162.229 L1784.75 162.229 Q1779.82 162.229 1777.95 160.4 Q1776.07 158.548 1776.07 153.687 L1776.07 139.613 L1772.95 139.613 L1772.95 136.303 L1776.07 136.303 L1776.07 128.942 L1780.36 128.942 Z" fill="#000000" fill-rule="nonzero" fill-opacity="1" /><path clip-path="url(#clip840)" d="M1794.73 136.303 L1798.99 136.303 L1798.99 162.229 L1794.73 162.229 L1794.73 136.303 M1794.73 126.21 L1798.99 126.21 L1798.99 131.604 L1794.73 131.604 L1794.73 126.21 Z" fill="#000000" fill-rule="nonzero" fill-opacity="1" /><path clip-path="url(#clip840)" d="M1807.74 126.21 L1812.02 126.21 L1812.02 147.483 L1824.73 136.303 L1830.17 136.303 L1816.42 148.432 L1830.75 162.229 L1825.19 162.229 L1812.02 149.567 L1812.02 162.229 L1807.74 162.229 L1807.74 126.21 Z" fill="#000000" fill-rule="nonzero" fill-opacity="1" /><path clip-path="url(#clip840)" d="M1867.49 140.238 L1867.49 126.21 L1871.74 126.21 L1871.74 162.229 L1867.49 162.229 L1867.49 158.34 Q1866.14 160.655 1864.08 161.789 Q1862.05 162.9 1859.18 162.9 Q1854.48 162.9 1851.51 159.15 Q1848.57 155.4 1848.57 149.289 Q1848.57 143.178 1851.51 139.428 Q1854.48 135.678 1859.18 135.678 Q1862.05 135.678 1864.08 136.812 Q1866.14 137.923 1867.49 140.238 M1852.97 149.289 Q1852.97 153.988 1854.89 156.673 Q1856.84 159.335 1860.22 159.335 Q1863.6 159.335 1865.54 156.673 Q1867.49 153.988 1867.49 149.289 Q1867.49 144.59 1865.54 141.928 Q1863.6 139.243 1860.22 139.243 Q1856.84 139.243 1854.89 141.928 Q1852.97 144.59 1852.97 149.289 Z" fill="#000000" fill-rule="nonzero" fill-opacity="1" /><path clip-path="url(#clip840)" d="M1892.3 149.196 Q1887.14 149.196 1885.15 150.377 Q1883.16 151.557 1883.16 154.405 Q1883.16 156.673 1884.64 158.016 Q1886.14 159.335 1888.71 159.335 Q1892.25 159.335 1894.38 156.835 Q1896.54 154.312 1896.54 150.145 L1896.54 149.196 L1892.3 149.196 M1900.8 147.437 L1900.8 162.229 L1896.54 162.229 L1896.54 158.293 Q1895.08 160.655 1892.9 161.789 Q1890.73 162.9 1887.58 162.9 Q1883.6 162.9 1881.24 160.678 Q1878.9 158.432 1878.9 154.682 Q1878.9 150.307 1881.81 148.085 Q1884.75 145.863 1890.56 145.863 L1896.54 145.863 L1896.54 145.446 Q1896.54 142.507 1894.59 140.909 Q1892.67 139.289 1889.18 139.289 Q1886.95 139.289 1884.85 139.821 Q1882.74 140.354 1880.8 141.419 L1880.8 137.483 Q1883.13 136.581 1885.33 136.141 Q1887.53 135.678 1889.62 135.678 Q1895.24 135.678 1898.02 138.594 Q1900.8 141.511 1900.8 147.437 Z" fill="#000000" fill-rule="nonzero" fill-opacity="1" /><path clip-path="url(#clip840)" d="M1913.78 128.942 L1913.78 136.303 L1922.55 136.303 L1922.55 139.613 L1913.78 139.613 L1913.78 153.687 Q1913.78 156.858 1914.64 157.761 Q1915.52 158.664 1918.18 158.664 L1922.55 158.664 L1922.55 162.229 L1918.18 162.229 Q1913.25 162.229 1911.37 160.4 Q1909.5 158.548 1909.5 153.687 L1909.5 139.613 L1906.37 139.613 L1906.37 136.303 L1909.5 136.303 L1909.5 128.942 L1913.78 128.942 Z" fill="#000000" fill-rule="nonzero" fill-opacity="1" /><path clip-path="url(#clip840)" d="M1939.94 149.196 Q1934.78 149.196 1932.79 150.377 Q1930.8 151.557 1930.8 154.405 Q1930.8 156.673 1932.28 158.016 Q1933.78 159.335 1936.35 159.335 Q1939.89 159.335 1942.02 156.835 Q1944.17 154.312 1944.17 150.145 L1944.17 149.196 L1939.94 149.196 M1948.43 147.437 L1948.43 162.229 L1944.17 162.229 L1944.17 158.293 Q1942.72 160.655 1940.54 161.789 Q1938.36 162.9 1935.22 162.9 Q1931.24 162.9 1928.87 160.678 Q1926.54 158.432 1926.54 154.682 Q1926.54 150.307 1929.45 148.085 Q1932.39 145.863 1938.2 145.863 L1944.17 145.863 L1944.17 145.446 Q1944.17 142.507 1942.23 140.909 Q1940.31 139.289 1936.81 139.289 Q1934.59 139.289 1932.49 139.821 Q1930.38 140.354 1928.43 141.419 L1928.43 137.483 Q1930.77 136.581 1932.97 136.141 Q1935.17 135.678 1937.25 135.678 Q1942.88 135.678 1945.66 138.594 Q1948.43 141.511 1948.43 147.437 Z" fill="#000000" fill-rule="nonzero" fill-opacity="1" /><polyline clip-path="url(#clip840)" style="stroke:#e26f46; stroke-linecap:round; stroke-linejoin:round; stroke-width:8; stroke-opacity:1; fill:none" points="1575.27,196.789 1717.49,196.789 "/>
<path clip-path="url(#clip840)" d="M1741.19 188.143 L1745.45 188.143 L1745.45 214.069 L1741.19 214.069 L1741.19 188.143 M1741.19 178.05 L1745.45 178.05 L1745.45 183.444 L1741.19 183.444 L1741.19 178.05 Z" fill="#000000" fill-rule="nonzero" fill-opacity="1" /><path clip-path="url(#clip840)" d="M1775.91 198.421 L1775.91 214.069 L1771.65 214.069 L1771.65 198.559 Q1771.65 194.879 1770.22 193.05 Q1768.78 191.222 1765.91 191.222 Q1762.46 191.222 1760.47 193.421 Q1758.48 195.62 1758.48 199.416 L1758.48 214.069 L1754.2 214.069 L1754.2 188.143 L1758.48 188.143 L1758.48 192.171 Q1760.01 189.833 1762.07 188.675 Q1764.15 187.518 1766.86 187.518 Q1771.33 187.518 1773.62 190.296 Q1775.91 193.05 1775.91 198.421 Z" fill="#000000" fill-rule="nonzero" fill-opacity="1" /><path clip-path="url(#clip840)" d="M1788.62 180.782 L1788.62 188.143 L1797.39 188.143 L1797.39 191.453 L1788.62 191.453 L1788.62 205.527 Q1788.62 208.698 1789.48 209.601 Q1790.36 210.504 1793.02 210.504 L1797.39 210.504 L1797.39 214.069 L1793.02 214.069 Q1788.09 214.069 1786.21 212.24 Q1784.34 210.388 1784.34 205.527 L1784.34 191.453 L1781.21 191.453 L1781.21 188.143 L1784.34 188.143 L1784.34 180.782 L1788.62 180.782 Z" fill="#000000" fill-rule="nonzero" fill-opacity="1" /><path clip-path="url(#clip840)" d="M1825.17 200.041 L1825.17 202.124 L1805.59 202.124 Q1805.87 206.522 1808.23 208.837 Q1810.61 211.129 1814.85 211.129 Q1817.3 211.129 1819.59 210.527 Q1821.91 209.925 1824.18 208.721 L1824.18 212.749 Q1821.88 213.721 1819.48 214.231 Q1817.07 214.74 1814.59 214.74 Q1808.39 214.74 1804.75 211.129 Q1801.14 207.518 1801.14 201.36 Q1801.14 194.995 1804.57 191.268 Q1808.02 187.518 1813.85 187.518 Q1819.08 187.518 1822.12 190.897 Q1825.17 194.254 1825.17 200.041 M1820.91 198.791 Q1820.87 195.296 1818.94 193.212 Q1817.05 191.129 1813.9 191.129 Q1810.33 191.129 1808.18 193.143 Q1806.05 195.157 1805.73 198.814 L1820.91 198.791 Z" fill="#000000" fill-rule="nonzero" fill-opacity="1" /><path clip-path="url(#clip840)" d="M1847.18 192.124 Q1846.47 191.708 1845.61 191.522 Q1844.78 191.314 1843.76 191.314 Q1840.15 191.314 1838.2 193.675 Q1836.28 196.013 1836.28 200.411 L1836.28 214.069 L1832 214.069 L1832 188.143 L1836.28 188.143 L1836.28 192.171 Q1837.62 189.809 1839.78 188.675 Q1841.93 187.518 1845.01 187.518 Q1845.45 187.518 1845.98 187.587 Q1846.51 187.634 1847.16 187.749 L1847.18 192.124 Z" fill="#000000" fill-rule="nonzero" fill-opacity="1" /><path clip-path="url(#clip840)" d="M1855.77 210.18 L1855.77 223.93 L1851.49 223.93 L1851.49 188.143 L1855.77 188.143 L1855.77 192.078 Q1857.12 189.763 1859.15 188.652 Q1861.21 187.518 1864.06 187.518 Q1868.78 187.518 1871.72 191.268 Q1874.68 195.018 1874.68 201.129 Q1874.68 207.24 1871.72 210.99 Q1868.78 214.74 1864.06 214.74 Q1861.21 214.74 1859.15 213.629 Q1857.12 212.495 1855.77 210.18 M1870.26 201.129 Q1870.26 196.43 1868.32 193.768 Q1866.4 191.083 1863.02 191.083 Q1859.64 191.083 1857.69 193.768 Q1855.77 196.43 1855.77 201.129 Q1855.77 205.828 1857.69 208.513 Q1859.64 211.175 1863.02 211.175 Q1866.4 211.175 1868.32 208.513 Q1870.26 205.828 1870.26 201.129 Z" fill="#000000" fill-rule="nonzero" fill-opacity="1" /><path clip-path="url(#clip840)" d="M1891.79 191.129 Q1888.37 191.129 1886.37 193.814 Q1884.38 196.476 1884.38 201.129 Q1884.38 205.782 1886.35 208.467 Q1888.34 211.129 1891.79 211.129 Q1895.19 211.129 1897.18 208.444 Q1899.18 205.758 1899.18 201.129 Q1899.18 196.522 1897.18 193.837 Q1895.19 191.129 1891.79 191.129 M1891.79 187.518 Q1897.35 187.518 1900.52 191.129 Q1903.69 194.74 1903.69 201.129 Q1903.69 207.495 1900.52 211.129 Q1897.35 214.74 1891.79 214.74 Q1886.21 214.74 1883.04 211.129 Q1879.89 207.495 1879.89 201.129 Q1879.89 194.74 1883.04 191.129 Q1886.21 187.518 1891.79 187.518 Z" fill="#000000" fill-rule="nonzero" fill-opacity="1" /><path clip-path="url(#clip840)" d="M1910.75 178.05 L1915.01 178.05 L1915.01 214.069 L1910.75 214.069 L1910.75 178.05 Z" fill="#000000" fill-rule="nonzero" fill-opacity="1" /><path clip-path="url(#clip840)" d="M1935.7 201.036 Q1930.54 201.036 1928.55 202.217 Q1926.56 203.397 1926.56 206.245 Q1926.56 208.513 1928.04 209.856 Q1929.55 211.175 1932.11 211.175 Q1935.66 211.175 1937.79 208.675 Q1939.94 206.152 1939.94 201.985 L1939.94 201.036 L1935.7 201.036 M1944.2 199.277 L1944.2 214.069 L1939.94 214.069 L1939.94 210.133 Q1938.48 212.495 1936.3 213.629 Q1934.13 214.74 1930.98 214.74 Q1927 214.74 1924.64 212.518 Q1922.3 210.272 1922.3 206.522 Q1922.3 202.147 1925.22 199.925 Q1928.16 197.703 1933.97 197.703 L1939.94 197.703 L1939.94 197.286 Q1939.94 194.347 1937.99 192.749 Q1936.07 191.129 1932.58 191.129 Q1930.36 191.129 1928.25 191.661 Q1926.14 192.194 1924.2 193.259 L1924.2 189.323 Q1926.54 188.421 1928.74 187.981 Q1930.93 187.518 1933.02 187.518 Q1938.64 187.518 1941.42 190.434 Q1944.2 193.351 1944.2 199.277 Z" fill="#000000" fill-rule="nonzero" fill-opacity="1" /><path clip-path="url(#clip840)" d="M1969.5 188.907 L1969.5 192.934 Q1967.69 192.009 1965.75 191.546 Q1963.8 191.083 1961.72 191.083 Q1958.55 191.083 1956.95 192.055 Q1955.38 193.027 1955.38 194.971 Q1955.38 196.453 1956.51 197.309 Q1957.65 198.143 1961.07 198.907 L1962.53 199.231 Q1967.07 200.203 1968.97 201.985 Q1970.89 203.745 1970.89 206.916 Q1970.89 210.527 1968.02 212.633 Q1965.17 214.74 1960.17 214.74 Q1958.09 214.74 1955.82 214.323 Q1953.57 213.93 1951.07 213.12 L1951.07 208.721 Q1953.43 209.948 1955.73 210.573 Q1958.02 211.175 1960.26 211.175 Q1963.27 211.175 1964.89 210.157 Q1966.51 209.115 1966.51 207.24 Q1966.51 205.504 1965.33 204.578 Q1964.17 203.652 1960.22 202.796 L1958.74 202.448 Q1954.78 201.615 1953.02 199.902 Q1951.26 198.166 1951.26 195.157 Q1951.26 191.499 1953.85 189.509 Q1956.44 187.518 1961.21 187.518 Q1963.57 187.518 1965.66 187.865 Q1967.74 188.212 1969.5 188.907 Z" fill="#000000" fill-rule="nonzero" fill-opacity="1" /><path clip-path="url(#clip840)" d="M1977.67 188.143 L1981.93 188.143 L1981.93 214.069 L1977.67 214.069 L1977.67 188.143 M1977.67 178.05 L1981.93 178.05 L1981.93 183.444 L1977.67 183.444 L1977.67 178.05 Z" fill="#000000" fill-rule="nonzero" fill-opacity="1" /><path clip-path="url(#clip840)" d="M2010.03 210.18 L2010.03 223.93 L2005.75 223.93 L2005.75 188.143 L2010.03 188.143 L2010.03 192.078 Q2011.37 189.763 2013.41 188.652 Q2015.47 187.518 2018.32 187.518 Q2023.04 187.518 2025.98 191.268 Q2028.94 195.018 2028.94 201.129 Q2028.94 207.24 2025.98 210.99 Q2023.04 214.74 2018.32 214.74 Q2015.47 214.74 2013.41 213.629 Q2011.37 212.495 2010.03 210.18 M2024.52 201.129 Q2024.52 196.43 2022.58 193.768 Q2020.66 191.083 2017.28 191.083 Q2013.9 191.083 2011.95 193.768 Q2010.03 196.43 2010.03 201.129 Q2010.03 205.828 2011.95 208.513 Q2013.9 211.175 2017.28 211.175 Q2020.66 211.175 2022.58 208.513 Q2024.52 205.828 2024.52 201.129 Z" fill="#000000" fill-rule="nonzero" fill-opacity="1" /><path clip-path="url(#clip840)" d="M2046.05 191.129 Q2042.62 191.129 2040.63 193.814 Q2038.64 196.476 2038.64 201.129 Q2038.64 205.782 2040.61 208.467 Q2042.6 211.129 2046.05 211.129 Q2049.45 211.129 2051.44 208.444 Q2053.43 205.758 2053.43 201.129 Q2053.43 196.522 2051.44 193.837 Q2049.45 191.129 2046.05 191.129 M2046.05 187.518 Q2051.6 187.518 2054.78 191.129 Q2057.95 194.74 2057.95 201.129 Q2057.95 207.495 2054.78 211.129 Q2051.6 214.74 2046.05 214.74 Q2040.47 214.74 2037.3 211.129 Q2034.15 207.495 2034.15 201.129 Q2034.15 194.74 2037.3 191.129 Q2040.47 187.518 2046.05 187.518 Z" fill="#000000" fill-rule="nonzero" fill-opacity="1" /><path clip-path="url(#clip840)" d="M2065.01 178.05 L2069.27 178.05 L2069.27 214.069 L2065.01 214.069 L2065.01 178.05 Z" fill="#000000" fill-rule="nonzero" fill-opacity="1" /><path clip-path="url(#clip840)" d="M2088.97 216.476 Q2087.16 221.106 2085.45 222.518 Q2083.73 223.93 2080.86 223.93 L2077.46 223.93 L2077.46 220.365 L2079.96 220.365 Q2081.72 220.365 2082.69 219.532 Q2083.66 218.698 2084.85 215.596 L2085.61 213.652 L2075.12 188.143 L2079.64 188.143 L2087.74 208.421 L2095.84 188.143 L2100.35 188.143 L2088.97 216.476 Z" fill="#000000" fill-rule="nonzero" fill-opacity="1" /><path clip-path="url(#clip840)" d="M2127.79 198.421 L2127.79 214.069 L2123.53 214.069 L2123.53 198.559 Q2123.53 194.879 2122.09 193.05 Q2120.66 191.222 2117.79 191.222 Q2114.34 191.222 2112.35 193.421 Q2110.35 195.62 2110.35 199.416 L2110.35 214.069 L2106.07 214.069 L2106.07 188.143 L2110.35 188.143 L2110.35 192.171 Q2111.88 189.833 2113.94 188.675 Q2116.03 187.518 2118.73 187.518 Q2123.2 187.518 2125.49 190.296 Q2127.79 193.05 2127.79 198.421 Z" fill="#000000" fill-rule="nonzero" fill-opacity="1" /><path clip-path="url(#clip840)" d="M2146.33 191.129 Q2142.9 191.129 2140.91 193.814 Q2138.92 196.476 2138.92 201.129 Q2138.92 205.782 2140.89 208.467 Q2142.88 211.129 2146.33 211.129 Q2149.73 211.129 2151.72 208.444 Q2153.71 205.758 2153.71 201.129 Q2153.71 196.522 2151.72 193.837 Q2149.73 191.129 2146.33 191.129 M2146.33 187.518 Q2151.88 187.518 2155.05 191.129 Q2158.22 194.74 2158.22 201.129 Q2158.22 207.495 2155.05 211.129 Q2151.88 214.74 2146.33 214.74 Q2140.75 214.74 2137.58 211.129 Q2134.43 207.495 2134.43 201.129 Q2134.43 194.74 2137.58 191.129 Q2140.75 187.518 2146.33 187.518 Z" fill="#000000" fill-rule="nonzero" fill-opacity="1" /><path clip-path="url(#clip840)" d="M2185.47 193.12 Q2187.07 190.249 2189.29 188.884 Q2191.51 187.518 2194.52 187.518 Q2198.57 187.518 2200.77 190.365 Q2202.97 193.189 2202.97 198.421 L2202.97 214.069 L2198.69 214.069 L2198.69 198.559 Q2198.69 194.833 2197.37 193.027 Q2196.05 191.222 2193.34 191.222 Q2190.03 191.222 2188.11 193.421 Q2186.19 195.62 2186.19 199.416 L2186.19 214.069 L2181.91 214.069 L2181.91 198.559 Q2181.91 194.809 2180.59 193.027 Q2179.27 191.222 2176.51 191.222 Q2173.25 191.222 2171.33 193.444 Q2169.41 195.643 2169.41 199.416 L2169.41 214.069 L2165.12 214.069 L2165.12 188.143 L2169.41 188.143 L2169.41 192.171 Q2170.86 189.786 2172.9 188.652 Q2174.94 187.518 2177.74 187.518 Q2180.56 187.518 2182.53 188.953 Q2184.52 190.388 2185.47 193.12 Z" fill="#000000" fill-rule="nonzero" fill-opacity="1" /><path clip-path="url(#clip840)" d="M2211.47 188.143 L2215.72 188.143 L2215.72 214.069 L2211.47 214.069 L2211.47 188.143 M2211.47 178.05 L2215.72 178.05 L2215.72 183.444 L2211.47 183.444 L2211.47 178.05 Z" fill="#000000" fill-rule="nonzero" fill-opacity="1" /><path clip-path="url(#clip840)" d="M2236.42 201.036 Q2231.26 201.036 2229.27 202.217 Q2227.28 203.397 2227.28 206.245 Q2227.28 208.513 2228.76 209.856 Q2230.26 211.175 2232.83 211.175 Q2236.37 211.175 2238.5 208.675 Q2240.65 206.152 2240.65 201.985 L2240.65 201.036 L2236.42 201.036 M2244.91 199.277 L2244.91 214.069 L2240.65 214.069 L2240.65 210.133 Q2239.2 212.495 2237.02 213.629 Q2234.84 214.74 2231.7 214.74 Q2227.72 214.74 2225.35 212.518 Q2223.02 210.272 2223.02 206.522 Q2223.02 202.147 2225.93 199.925 Q2228.87 197.703 2234.68 197.703 L2240.65 197.703 L2240.65 197.286 Q2240.65 194.347 2238.71 192.749 Q2236.79 191.129 2233.29 191.129 Q2231.07 191.129 2228.97 191.661 Q2226.86 192.194 2224.91 193.259 L2224.91 189.323 Q2227.25 188.421 2229.45 187.981 Q2231.65 187.518 2233.73 187.518 Q2239.36 187.518 2242.14 190.434 Q2244.91 193.351 2244.91 199.277 Z" fill="#000000" fill-rule="nonzero" fill-opacity="1" /><path clip-path="url(#clip840)" d="M2253.69 178.05 L2257.95 178.05 L2257.95 214.069 L2253.69 214.069 L2253.69 178.05 Z" fill="#000000" fill-rule="nonzero" fill-opacity="1" /></svg>
