<?xml version="1.0" encoding="utf-8"?>
<svg xmlns="http://www.w3.org/2000/svg" xmlns:xlink="http://www.w3.org/1999/xlink" width="600" height="400" viewBox="0 0 2400 1600">
<defs>
  <clipPath id="clip930">
    <rect x="0" y="0" width="2400" height="1600"/>
  </clipPath>
</defs>
<path clip-path="url(#clip930)" d="M0 1600 L2400 1600 L2400 0 L0 0  Z" fill="#ffffff" fill-rule="evenodd" fill-opacity="1"/>
<defs>
  <clipPath id="clip931">
    <rect x="480" y="0" width="1681" height="1600"/>
  </clipPath>
</defs>
<path clip-path="url(#clip930)" d="M219.542 1423.18 L2352.76 1423.18 L2352.76 47.2441 L219.542 47.2441  Z" fill="#ffffff" fill-rule="evenodd" fill-opacity="1"/>
<defs>
  <clipPath id="clip932">
    <rect x="219" y="47" width="2134" height="1377"/>
  </clipPath>
</defs>
<polyline clip-path="url(#clip932)" style="stroke:#000000; stroke-linecap:round; stroke-linejoin:round; stroke-width:2; stroke-opacity:0.1; fill:none" points="279.916,1423.18 279.916,47.2441 "/>
<polyline clip-path="url(#clip932)" style="stroke:#000000; stroke-linecap:round; stroke-linejoin:round; stroke-width:2; stroke-opacity:0.1; fill:none" points="783.033,1423.18 783.033,47.2441 "/>
<polyline clip-path="url(#clip932)" style="stroke:#000000; stroke-linecap:round; stroke-linejoin:round; stroke-width:2; stroke-opacity:0.1; fill:none" points="1286.15,1423.18 1286.15,47.2441 "/>
<polyline clip-path="url(#clip932)" style="stroke:#000000; stroke-linecap:round; stroke-linejoin:round; stroke-width:2; stroke-opacity:0.1; fill:none" points="1789.27,1423.18 1789.27,47.2441 "/>
<polyline clip-path="url(#clip932)" style="stroke:#000000; stroke-linecap:round; stroke-linejoin:round; stroke-width:2; stroke-opacity:0.1; fill:none" points="2292.38,1423.18 2292.38,47.2441 "/>
<polyline clip-path="url(#clip930)" style="stroke:#000000; stroke-linecap:round; stroke-linejoin:round; stroke-width:4; stroke-opacity:1; fill:none" points="219.542,1423.18 2352.76,1423.18 "/>
<polyline clip-path="url(#clip930)" style="stroke:#000000; stroke-linecap:round; stroke-linejoin:round; stroke-width:4; stroke-opacity:1; fill:none" points="279.916,1423.18 279.916,1404.28 "/>
<polyline clip-path="url(#clip930)" style="stroke:#000000; stroke-linecap:round; stroke-linejoin:round; stroke-width:4; stroke-opacity:1; fill:none" points="783.033,1423.18 783.033,1404.28 "/>
<polyline clip-path="url(#clip930)" style="stroke:#000000; stroke-linecap:round; stroke-linejoin:round; stroke-width:4; stroke-opacity:1; fill:none" points="1286.15,1423.18 1286.15,1404.28 "/>
<polyline clip-path="url(#clip930)" style="stroke:#000000; stroke-linecap:round; stroke-linejoin:round; stroke-width:4; stroke-opacity:1; fill:none" points="1789.27,1423.18 1789.27,1404.28 "/>
<polyline clip-path="url(#clip930)" style="stroke:#000000; stroke-linecap:round; stroke-linejoin:round; stroke-width:4; stroke-opacity:1; fill:none" points="2292.38,1423.18 2292.38,1404.28 "/>
<path clip-path="url(#clip930)" d="M226.444 1468.75 L256.12 1468.75 L256.12 1472.69 L226.444 1472.69 L226.444 1468.75 Z" fill="#000000" fill-rule="nonzero" fill-opacity="1" /><path clip-path="url(#clip930)" d="M267.023 1481.64 L274.662 1481.64 L274.662 1455.28 L266.351 1456.95 L266.351 1452.69 L274.615 1451.02 L279.291 1451.02 L279.291 1481.64 L286.93 1481.64 L286.93 1485.58 L267.023 1485.58 L267.023 1481.64 Z" fill="#000000" fill-rule="nonzero" fill-opacity="1" /><path clip-path="url(#clip930)" d="M296.374 1479.7 L301.259 1479.7 L301.259 1485.58 L296.374 1485.58 L296.374 1479.7 Z" fill="#000000" fill-rule="nonzero" fill-opacity="1" /><path clip-path="url(#clip930)" d="M321.444 1454.1 Q317.833 1454.1 316.004 1457.66 Q314.198 1461.2 314.198 1468.33 Q314.198 1475.44 316.004 1479.01 Q317.833 1482.55 321.444 1482.55 Q325.078 1482.55 326.884 1479.01 Q328.712 1475.44 328.712 1468.33 Q328.712 1461.2 326.884 1457.66 Q325.078 1454.1 321.444 1454.1 M321.444 1450.39 Q327.254 1450.39 330.309 1455 Q333.388 1459.58 333.388 1468.33 Q333.388 1477.06 330.309 1481.67 Q327.254 1486.25 321.444 1486.25 Q315.634 1486.25 312.555 1481.67 Q309.499 1477.06 309.499 1468.33 Q309.499 1459.58 312.555 1455 Q315.634 1450.39 321.444 1450.39 Z" fill="#000000" fill-rule="nonzero" fill-opacity="1" /><path clip-path="url(#clip930)" d="M730.058 1468.75 L759.734 1468.75 L759.734 1472.69 L730.058 1472.69 L730.058 1468.75 Z" fill="#000000" fill-rule="nonzero" fill-opacity="1" /><path clip-path="url(#clip930)" d="M779.827 1454.1 Q776.216 1454.1 774.387 1457.66 Q772.581 1461.2 772.581 1468.33 Q772.581 1475.44 774.387 1479.01 Q776.216 1482.55 779.827 1482.55 Q783.461 1482.55 785.266 1479.01 Q787.095 1475.44 787.095 1468.33 Q787.095 1461.2 785.266 1457.66 Q783.461 1454.1 779.827 1454.1 M779.827 1450.39 Q785.637 1450.39 788.692 1455 Q791.771 1459.58 791.771 1468.33 Q791.771 1477.06 788.692 1481.67 Q785.637 1486.25 779.827 1486.25 Q774.016 1486.25 770.938 1481.67 Q767.882 1477.06 767.882 1468.33 Q767.882 1459.58 770.938 1455 Q774.016 1450.39 779.827 1450.39 Z" fill="#000000" fill-rule="nonzero" fill-opacity="1" /><path clip-path="url(#clip930)" d="M799.989 1479.7 L804.873 1479.7 L804.873 1485.58 L799.989 1485.58 L799.989 1479.7 Z" fill="#000000" fill-rule="nonzero" fill-opacity="1" /><path clip-path="url(#clip930)" d="M815.104 1451.02 L833.461 1451.02 L833.461 1454.96 L819.387 1454.96 L819.387 1463.43 Q820.405 1463.08 821.424 1462.92 Q822.442 1462.73 823.461 1462.73 Q829.248 1462.73 832.627 1465.9 Q836.007 1469.08 836.007 1474.49 Q836.007 1480.07 832.535 1483.17 Q829.062 1486.25 822.743 1486.25 Q820.567 1486.25 818.299 1485.88 Q816.053 1485.51 813.646 1484.77 L813.646 1480.07 Q815.729 1481.2 817.951 1481.76 Q820.174 1482.32 822.65 1482.32 Q826.655 1482.32 828.993 1480.21 Q831.331 1478.1 831.331 1474.49 Q831.331 1470.88 828.993 1468.77 Q826.655 1466.67 822.65 1466.67 Q820.775 1466.67 818.9 1467.08 Q817.049 1467.5 815.104 1468.38 L815.104 1451.02 Z" fill="#000000" fill-rule="nonzero" fill-opacity="1" /><path clip-path="url(#clip930)" d="M1263.53 1454.1 Q1259.92 1454.1 1258.09 1457.66 Q1256.29 1461.2 1256.29 1468.33 Q1256.29 1475.44 1258.09 1479.01 Q1259.92 1482.55 1263.53 1482.55 Q1267.17 1482.55 1268.97 1479.01 Q1270.8 1475.44 1270.8 1468.33 Q1270.8 1461.2 1268.97 1457.66 Q1267.17 1454.1 1263.53 1454.1 M1263.53 1450.39 Q1269.34 1450.39 1272.4 1455 Q1275.48 1459.58 1275.48 1468.33 Q1275.48 1477.06 1272.4 1481.67 Q1269.34 1486.25 1263.53 1486.25 Q1257.72 1486.25 1254.64 1481.67 Q1251.59 1477.06 1251.59 1468.33 Q1251.59 1459.58 1254.64 1455 Q1257.72 1450.39 1263.53 1450.39 Z" fill="#000000" fill-rule="nonzero" fill-opacity="1" /><path clip-path="url(#clip930)" d="M1283.7 1479.7 L1288.58 1479.7 L1288.58 1485.58 L1283.7 1485.58 L1283.7 1479.7 Z" fill="#000000" fill-rule="nonzero" fill-opacity="1" /><path clip-path="url(#clip930)" d="M1308.76 1454.1 Q1305.15 1454.1 1303.32 1457.66 Q1301.52 1461.2 1301.52 1468.33 Q1301.52 1475.44 1303.32 1479.01 Q1305.15 1482.55 1308.76 1482.55 Q1312.4 1482.55 1314.2 1479.01 Q1316.03 1475.44 1316.03 1468.33 Q1316.03 1461.2 1314.2 1457.66 Q1312.4 1454.1 1308.76 1454.1 M1308.76 1450.39 Q1314.57 1450.39 1317.63 1455 Q1320.71 1459.58 1320.71 1468.33 Q1320.71 1477.06 1317.63 1481.67 Q1314.57 1486.25 1308.76 1486.25 Q1302.95 1486.25 1299.88 1481.67 Q1296.82 1477.06 1296.82 1468.33 Q1296.82 1459.58 1299.88 1455 Q1302.95 1450.39 1308.76 1450.39 Z" fill="#000000" fill-rule="nonzero" fill-opacity="1" /><path clip-path="url(#clip930)" d="M1767.15 1454.1 Q1763.54 1454.1 1761.71 1457.66 Q1759.9 1461.2 1759.9 1468.33 Q1759.9 1475.44 1761.71 1479.01 Q1763.54 1482.55 1767.15 1482.55 Q1770.78 1482.55 1772.59 1479.01 Q1774.42 1475.44 1774.42 1468.33 Q1774.42 1461.2 1772.59 1457.66 Q1770.78 1454.1 1767.15 1454.1 M1767.15 1450.39 Q1772.96 1450.39 1776.01 1455 Q1779.09 1459.58 1779.09 1468.33 Q1779.09 1477.06 1776.01 1481.67 Q1772.96 1486.25 1767.15 1486.25 Q1761.34 1486.25 1758.26 1481.67 Q1755.2 1477.06 1755.2 1468.33 Q1755.2 1459.58 1758.26 1455 Q1761.34 1450.39 1767.15 1450.39 Z" fill="#000000" fill-rule="nonzero" fill-opacity="1" /><path clip-path="url(#clip930)" d="M1787.31 1479.7 L1792.19 1479.7 L1792.19 1485.58 L1787.31 1485.58 L1787.31 1479.7 Z" fill="#000000" fill-rule="nonzero" fill-opacity="1" /><path clip-path="url(#clip930)" d="M1802.43 1451.02 L1820.78 1451.02 L1820.78 1454.96 L1806.71 1454.96 L1806.71 1463.43 Q1807.73 1463.08 1808.74 1462.92 Q1809.76 1462.73 1810.78 1462.73 Q1816.57 1462.73 1819.95 1465.9 Q1823.33 1469.08 1823.33 1474.49 Q1823.33 1480.07 1819.86 1483.17 Q1816.38 1486.25 1810.06 1486.25 Q1807.89 1486.25 1805.62 1485.88 Q1803.37 1485.51 1800.97 1484.77 L1800.97 1480.07 Q1803.05 1481.2 1805.27 1481.76 Q1807.49 1482.32 1809.97 1482.32 Q1813.98 1482.32 1816.31 1480.21 Q1818.65 1478.1 1818.65 1474.49 Q1818.65 1470.88 1816.31 1468.77 Q1813.98 1466.67 1809.97 1466.67 Q1808.1 1466.67 1806.22 1467.08 Q1804.37 1467.5 1802.43 1468.38 L1802.43 1451.02 Z" fill="#000000" fill-rule="nonzero" fill-opacity="1" /><path clip-path="url(#clip930)" d="M2259.53 1481.64 L2267.17 1481.64 L2267.17 1455.28 L2258.86 1456.95 L2258.86 1452.69 L2267.13 1451.02 L2271.8 1451.02 L2271.8 1481.64 L2279.44 1481.64 L2279.44 1485.58 L2259.53 1485.58 L2259.53 1481.64 Z" fill="#000000" fill-rule="nonzero" fill-opacity="1" /><path clip-path="url(#clip930)" d="M2288.89 1479.7 L2293.77 1479.7 L2293.77 1485.58 L2288.89 1485.58 L2288.89 1479.7 Z" fill="#000000" fill-rule="nonzero" fill-opacity="1" /><path clip-path="url(#clip930)" d="M2313.96 1454.1 Q2310.34 1454.1 2308.52 1457.66 Q2306.71 1461.2 2306.71 1468.33 Q2306.71 1475.44 2308.52 1479.01 Q2310.34 1482.55 2313.96 1482.55 Q2317.59 1482.55 2319.4 1479.01 Q2321.22 1475.44 2321.22 1468.33 Q2321.22 1461.2 2319.4 1457.66 Q2317.59 1454.1 2313.96 1454.1 M2313.96 1450.39 Q2319.77 1450.39 2322.82 1455 Q2325.9 1459.58 2325.9 1468.33 Q2325.9 1477.06 2322.82 1481.67 Q2319.77 1486.25 2313.96 1486.25 Q2308.15 1486.25 2305.07 1481.67 Q2302.01 1477.06 2302.01 1468.33 Q2302.01 1459.58 2305.07 1455 Q2308.15 1450.39 2313.96 1450.39 Z" fill="#000000" fill-rule="nonzero" fill-opacity="1" /><path clip-path="url(#clip930)" d="M1302.76 1532.4 L1289.87 1549.74 L1303.43 1568.04 L1296.53 1568.04 L1286.15 1554.04 L1275.77 1568.04 L1268.87 1568.04 L1282.71 1549.39 L1270.04 1532.4 L1276.95 1532.4 L1286.4 1545.1 L1295.86 1532.4 L1302.76 1532.4 Z" fill="#000000" fill-rule="nonzero" fill-opacity="1" /><polyline clip-path="url(#clip932)" style="stroke:#000000; stroke-linecap:round; stroke-linejoin:round; stroke-width:2; stroke-opacity:0.1; fill:none" points="219.542,1261.31 2352.76,1261.31 "/>
<polyline clip-path="url(#clip932)" style="stroke:#000000; stroke-linecap:round; stroke-linejoin:round; stroke-width:2; stroke-opacity:0.1; fill:none" points="219.542,1018.49 2352.76,1018.49 "/>
<polyline clip-path="url(#clip932)" style="stroke:#000000; stroke-linecap:round; stroke-linejoin:round; stroke-width:2; stroke-opacity:0.1; fill:none" points="219.542,775.681 2352.76,775.681 "/>
<polyline clip-path="url(#clip932)" style="stroke:#000000; stroke-linecap:round; stroke-linejoin:round; stroke-width:2; stroke-opacity:0.1; fill:none" points="219.542,532.868 2352.76,532.868 "/>
<polyline clip-path="url(#clip932)" style="stroke:#000000; stroke-linecap:round; stroke-linejoin:round; stroke-width:2; stroke-opacity:0.1; fill:none" points="219.542,290.056 2352.76,290.056 "/>
<polyline clip-path="url(#clip930)" style="stroke:#000000; stroke-linecap:round; stroke-linejoin:round; stroke-width:4; stroke-opacity:1; fill:none" points="219.542,1423.18 219.542,47.2441 "/>
<polyline clip-path="url(#clip930)" style="stroke:#000000; stroke-linecap:round; stroke-linejoin:round; stroke-width:4; stroke-opacity:1; fill:none" points="219.542,1261.31 238.44,1261.31 "/>
<polyline clip-path="url(#clip930)" style="stroke:#000000; stroke-linecap:round; stroke-linejoin:round; stroke-width:4; stroke-opacity:1; fill:none" points="219.542,1018.49 238.44,1018.49 "/>
<polyline clip-path="url(#clip930)" style="stroke:#000000; stroke-linecap:round; stroke-linejoin:round; stroke-width:4; stroke-opacity:1; fill:none" points="219.542,775.681 238.44,775.681 "/>
<polyline clip-path="url(#clip930)" style="stroke:#000000; stroke-linecap:round; stroke-linejoin:round; stroke-width:4; stroke-opacity:1; fill:none" points="219.542,532.868 238.44,532.868 "/>
<polyline clip-path="url(#clip930)" style="stroke:#000000; stroke-linecap:round; stroke-linejoin:round; stroke-width:4; stroke-opacity:1; fill:none" points="219.542,290.056 238.44,290.056 "/>
<path clip-path="url(#clip930)" d="M126.367 1247.1 Q122.755 1247.1 120.927 1250.67 Q119.121 1254.21 119.121 1261.34 Q119.121 1268.45 120.927 1272.01 Q122.755 1275.55 126.367 1275.55 Q130.001 1275.55 131.806 1272.01 Q133.635 1268.45 133.635 1261.34 Q133.635 1254.21 131.806 1250.67 Q130.001 1247.1 126.367 1247.1 M126.367 1243.4 Q132.177 1243.4 135.232 1248.01 Q138.311 1252.59 138.311 1261.34 Q138.311 1270.07 135.232 1274.67 Q132.177 1279.26 126.367 1279.26 Q120.556 1279.26 117.478 1274.67 Q114.422 1270.07 114.422 1261.34 Q114.422 1252.59 117.478 1248.01 Q120.556 1243.4 126.367 1243.4 Z" fill="#000000" fill-rule="nonzero" fill-opacity="1" /><path clip-path="url(#clip930)" d="M146.529 1272.71 L151.413 1272.71 L151.413 1278.59 L146.529 1278.59 L146.529 1272.71 Z" fill="#000000" fill-rule="nonzero" fill-opacity="1" /><path clip-path="url(#clip930)" d="M171.598 1247.1 Q167.987 1247.1 166.158 1250.67 Q164.352 1254.21 164.352 1261.34 Q164.352 1268.45 166.158 1272.01 Q167.987 1275.55 171.598 1275.55 Q175.232 1275.55 177.038 1272.01 Q178.866 1268.45 178.866 1261.34 Q178.866 1254.21 177.038 1250.67 Q175.232 1247.1 171.598 1247.1 M171.598 1243.4 Q177.408 1243.4 180.464 1248.01 Q183.542 1252.59 183.542 1261.34 Q183.542 1270.07 180.464 1274.67 Q177.408 1279.26 171.598 1279.26 Q165.788 1279.26 162.709 1274.67 Q159.653 1270.07 159.653 1261.34 Q159.653 1252.59 162.709 1248.01 Q165.788 1243.4 171.598 1243.4 Z" fill="#000000" fill-rule="nonzero" fill-opacity="1" /><path clip-path="url(#clip930)" d="M127.015 1004.29 Q123.404 1004.29 121.575 1007.86 Q119.769 1011.4 119.769 1018.53 Q119.769 1025.63 121.575 1029.2 Q123.404 1032.74 127.015 1032.74 Q130.649 1032.74 132.455 1029.2 Q134.283 1025.63 134.283 1018.53 Q134.283 1011.4 132.455 1007.86 Q130.649 1004.29 127.015 1004.29 M127.015 1000.59 Q132.825 1000.59 135.88 1005.19 Q138.959 1009.78 138.959 1018.53 Q138.959 1027.25 135.88 1031.86 Q132.825 1036.44 127.015 1036.44 Q121.205 1036.44 118.126 1031.86 Q115.07 1027.25 115.07 1018.53 Q115.07 1009.78 118.126 1005.19 Q121.205 1000.59 127.015 1000.59 Z" fill="#000000" fill-rule="nonzero" fill-opacity="1" /><path clip-path="url(#clip930)" d="M147.177 1029.89 L152.061 1029.89 L152.061 1035.77 L147.177 1035.77 L147.177 1029.89 Z" fill="#000000" fill-rule="nonzero" fill-opacity="1" /><path clip-path="url(#clip930)" d="M176.413 1017.14 Q179.769 1017.86 181.644 1020.12 Q183.542 1022.39 183.542 1025.73 Q183.542 1030.84 180.024 1033.64 Q176.505 1036.44 170.024 1036.44 Q167.848 1036.44 165.533 1036 Q163.241 1035.59 160.788 1034.73 L160.788 1030.22 Q162.732 1031.35 165.047 1031.93 Q167.362 1032.51 169.885 1032.51 Q174.283 1032.51 176.575 1030.77 Q178.889 1029.04 178.889 1025.73 Q178.889 1022.67 176.737 1020.96 Q174.607 1019.22 170.788 1019.22 L166.76 1019.22 L166.76 1015.38 L170.973 1015.38 Q174.422 1015.38 176.251 1014.01 Q178.079 1012.62 178.079 1010.03 Q178.079 1007.37 176.181 1005.96 Q174.306 1004.52 170.788 1004.52 Q168.866 1004.52 166.667 1004.94 Q164.468 1005.36 161.829 1006.24 L161.829 1002.07 Q164.491 1001.33 166.806 1000.96 Q169.144 1000.59 171.204 1000.59 Q176.528 1000.59 179.63 1003.02 Q182.732 1005.43 182.732 1009.55 Q182.732 1012.42 181.089 1014.41 Q179.445 1016.37 176.413 1017.14 Z" fill="#000000" fill-rule="nonzero" fill-opacity="1" /><path clip-path="url(#clip930)" d="M126.205 761.479 Q122.593 761.479 120.765 765.044 Q118.959 768.586 118.959 775.715 Q118.959 782.822 120.765 786.387 Q122.593 789.928 126.205 789.928 Q129.839 789.928 131.644 786.387 Q133.473 782.822 133.473 775.715 Q133.473 768.586 131.644 765.044 Q129.839 761.479 126.205 761.479 M126.205 757.776 Q132.015 757.776 135.07 762.382 Q138.149 766.965 138.149 775.715 Q138.149 784.442 135.07 789.049 Q132.015 793.632 126.205 793.632 Q120.394 793.632 117.316 789.049 Q114.26 784.442 114.26 775.715 Q114.26 766.965 117.316 762.382 Q120.394 757.776 126.205 757.776 Z" fill="#000000" fill-rule="nonzero" fill-opacity="1" /><path clip-path="url(#clip930)" d="M146.366 787.081 L151.251 787.081 L151.251 792.961 L146.366 792.961 L146.366 787.081 Z" fill="#000000" fill-rule="nonzero" fill-opacity="1" /><path clip-path="url(#clip930)" d="M172.014 773.817 Q168.866 773.817 167.015 775.97 Q165.186 778.123 165.186 781.873 Q165.186 785.6 167.015 787.776 Q168.866 789.928 172.014 789.928 Q175.163 789.928 176.991 787.776 Q178.843 785.6 178.843 781.873 Q178.843 778.123 176.991 775.97 Q175.163 773.817 172.014 773.817 M181.297 759.165 L181.297 763.424 Q179.538 762.59 177.732 762.151 Q175.95 761.711 174.19 761.711 Q169.561 761.711 167.107 764.836 Q164.677 767.961 164.329 774.28 Q165.695 772.266 167.755 771.202 Q169.815 770.114 172.292 770.114 Q177.501 770.114 180.51 773.285 Q183.542 776.433 183.542 781.873 Q183.542 787.197 180.394 790.414 Q177.246 793.632 172.014 793.632 Q166.019 793.632 162.848 789.049 Q159.677 784.442 159.677 775.715 Q159.677 767.521 163.565 762.66 Q167.454 757.776 174.005 757.776 Q175.764 757.776 177.547 758.123 Q179.352 758.47 181.297 759.165 Z" fill="#000000" fill-rule="nonzero" fill-opacity="1" /><path clip-path="url(#clip930)" d="M126.552 518.667 Q122.941 518.667 121.112 522.232 Q119.306 525.774 119.306 532.903 Q119.306 540.01 121.112 543.574 Q122.941 547.116 126.552 547.116 Q130.186 547.116 131.992 543.574 Q133.82 540.01 133.82 532.903 Q133.82 525.774 131.992 522.232 Q130.186 518.667 126.552 518.667 M126.552 514.963 Q132.362 514.963 135.417 519.57 Q138.496 524.153 138.496 532.903 Q138.496 541.63 135.417 546.236 Q132.362 550.82 126.552 550.82 Q120.742 550.82 117.663 546.236 Q114.607 541.63 114.607 532.903 Q114.607 524.153 117.663 519.57 Q120.742 514.963 126.552 514.963 Z" fill="#000000" fill-rule="nonzero" fill-opacity="1" /><path clip-path="url(#clip930)" d="M146.714 544.269 L151.598 544.269 L151.598 550.148 L146.714 550.148 L146.714 544.269 Z" fill="#000000" fill-rule="nonzero" fill-opacity="1" /><path clip-path="url(#clip930)" d="M161.922 549.431 L161.922 545.172 Q163.681 546.005 165.487 546.445 Q167.292 546.885 169.028 546.885 Q173.658 546.885 176.089 543.783 Q178.542 540.658 178.889 534.315 Q177.547 536.306 175.487 537.371 Q173.427 538.436 170.927 538.436 Q165.741 538.436 162.709 535.311 Q159.7 532.162 159.7 526.723 Q159.7 521.399 162.848 518.181 Q165.996 514.963 171.227 514.963 Q177.223 514.963 180.371 519.57 Q183.542 524.153 183.542 532.903 Q183.542 541.074 179.653 545.959 Q175.788 550.82 169.237 550.82 Q167.477 550.82 165.672 550.473 Q163.866 550.125 161.922 549.431 M171.227 534.778 Q174.376 534.778 176.204 532.625 Q178.056 530.473 178.056 526.723 Q178.056 522.996 176.204 520.843 Q174.376 518.667 171.227 518.667 Q168.079 518.667 166.227 520.843 Q164.399 522.996 164.399 526.723 Q164.399 530.473 166.227 532.625 Q168.079 534.778 171.227 534.778 Z" fill="#000000" fill-rule="nonzero" fill-opacity="1" /><path clip-path="url(#clip930)" d="M118.774 303.401 L126.413 303.401 L126.413 277.036 L118.103 278.702 L118.103 274.443 L126.367 272.776 L131.042 272.776 L131.042 303.401 L138.681 303.401 L138.681 307.336 L118.774 307.336 L118.774 303.401 Z" fill="#000000" fill-rule="nonzero" fill-opacity="1" /><path clip-path="url(#clip930)" d="M148.126 301.457 L153.01 301.457 L153.01 307.336 L148.126 307.336 L148.126 301.457 Z" fill="#000000" fill-rule="nonzero" fill-opacity="1" /><path clip-path="url(#clip930)" d="M167.223 303.401 L183.542 303.401 L183.542 307.336 L161.598 307.336 L161.598 303.401 Q164.26 300.647 168.843 296.017 Q173.45 291.364 174.63 290.022 Q176.876 287.498 177.755 285.762 Q178.658 284.003 178.658 282.313 Q178.658 279.559 176.714 277.823 Q174.792 276.086 171.69 276.086 Q169.491 276.086 167.038 276.85 Q164.607 277.614 161.829 279.165 L161.829 274.443 Q164.653 273.309 167.107 272.73 Q169.561 272.151 171.598 272.151 Q176.968 272.151 180.163 274.836 Q183.357 277.522 183.357 282.012 Q183.357 284.142 182.547 286.063 Q181.76 287.961 179.653 290.554 Q179.075 291.225 175.973 294.443 Q172.871 297.637 167.223 303.401 Z" fill="#000000" fill-rule="nonzero" fill-opacity="1" /><path clip-path="url(#clip930)" d="M67.3143 733.525 Q73.68 736.008 75.6216 738.363 Q77.5631 740.718 77.5631 744.665 L77.5631 749.344 L72.6615 749.344 L72.6615 745.906 Q72.6615 743.487 71.5157 742.151 Q70.3699 740.814 66.1048 739.191 L63.4312 738.14 L28.3562 752.559 L28.3562 746.352 L56.238 735.212 L28.3562 724.072 L28.3562 717.865 L67.3143 733.525 Z" fill="#000000" fill-rule="nonzero" fill-opacity="1" /><circle clip-path="url(#clip932)" cx="300.041" cy="1228.94" r="14.4" fill="#009af9" fill-rule="evenodd" fill-opacity="1" stroke="#000000" stroke-opacity="1" stroke-width="3.2"/>
<circle clip-path="url(#clip932)" cx="320.165" cy="1227.64" r="14.4" fill="#009af9" fill-rule="evenodd" fill-opacity="1" stroke="#000000" stroke-opacity="1" stroke-width="3.2"/>
<circle clip-path="url(#clip932)" cx="340.29" cy="1226.25" r="14.4" fill="#009af9" fill-rule="evenodd" fill-opacity="1" stroke="#000000" stroke-opacity="1" stroke-width="3.2"/>
<circle clip-path="url(#clip932)" cx="360.415" cy="1224.78" r="14.4" fill="#009af9" fill-rule="evenodd" fill-opacity="1" stroke="#000000" stroke-opacity="1" stroke-width="3.2"/>
<circle clip-path="url(#clip932)" cx="380.539" cy="1223.22" r="14.4" fill="#009af9" fill-rule="evenodd" fill-opacity="1" stroke="#000000" stroke-opacity="1" stroke-width="3.2"/>
<circle clip-path="url(#clip932)" cx="400.664" cy="1221.55" r="14.4" fill="#009af9" fill-rule="evenodd" fill-opacity="1" stroke="#000000" stroke-opacity="1" stroke-width="3.2"/>
<circle clip-path="url(#clip932)" cx="420.789" cy="1219.78" r="14.4" fill="#009af9" fill-rule="evenodd" fill-opacity="1" stroke="#000000" stroke-opacity="1" stroke-width="3.2"/>
<circle clip-path="url(#clip932)" cx="440.913" cy="1217.88" r="14.4" fill="#009af9" fill-rule="evenodd" fill-opacity="1" stroke="#000000" stroke-opacity="1" stroke-width="3.2"/>
<circle clip-path="url(#clip932)" cx="461.038" cy="1215.86" r="14.4" fill="#009af9" fill-rule="evenodd" fill-opacity="1" stroke="#000000" stroke-opacity="1" stroke-width="3.2"/>
<circle clip-path="url(#clip932)" cx="481.163" cy="1213.69" r="14.4" fill="#009af9" fill-rule="evenodd" fill-opacity="1" stroke="#000000" stroke-opacity="1" stroke-width="3.2"/>
<circle clip-path="url(#clip932)" cx="501.287" cy="1211.37" r="14.4" fill="#009af9" fill-rule="evenodd" fill-opacity="1" stroke="#000000" stroke-opacity="1" stroke-width="3.2"/>
<circle clip-path="url(#clip932)" cx="521.412" cy="1208.88" r="14.4" fill="#009af9" fill-rule="evenodd" fill-opacity="1" stroke="#000000" stroke-opacity="1" stroke-width="3.2"/>
<circle clip-path="url(#clip932)" cx="541.537" cy="1206.21" r="14.4" fill="#009af9" fill-rule="evenodd" fill-opacity="1" stroke="#000000" stroke-opacity="1" stroke-width="3.2"/>
<circle clip-path="url(#clip932)" cx="561.661" cy="1203.33" r="14.4" fill="#009af9" fill-rule="evenodd" fill-opacity="1" stroke="#000000" stroke-opacity="1" stroke-width="3.2"/>
<circle clip-path="url(#clip932)" cx="581.786" cy="1200.22" r="14.4" fill="#009af9" fill-rule="evenodd" fill-opacity="1" stroke="#000000" stroke-opacity="1" stroke-width="3.2"/>
<circle clip-path="url(#clip932)" cx="601.911" cy="1196.86" r="14.4" fill="#009af9" fill-rule="evenodd" fill-opacity="1" stroke="#000000" stroke-opacity="1" stroke-width="3.2"/>
<circle clip-path="url(#clip932)" cx="622.035" cy="1193.23" r="14.4" fill="#009af9" fill-rule="evenodd" fill-opacity="1" stroke="#000000" stroke-opacity="1" stroke-width="3.2"/>
<circle clip-path="url(#clip932)" cx="642.16" cy="1189.3" r="14.4" fill="#009af9" fill-rule="evenodd" fill-opacity="1" stroke="#000000" stroke-opacity="1" stroke-width="3.2"/>
<circle clip-path="url(#clip932)" cx="662.285" cy="1185.02" r="14.4" fill="#009af9" fill-rule="evenodd" fill-opacity="1" stroke="#000000" stroke-opacity="1" stroke-width="3.2"/>
<circle clip-path="url(#clip932)" cx="682.409" cy="1180.37" r="14.4" fill="#009af9" fill-rule="evenodd" fill-opacity="1" stroke="#000000" stroke-opacity="1" stroke-width="3.2"/>
<circle clip-path="url(#clip932)" cx="702.534" cy="1175.29" r="14.4" fill="#009af9" fill-rule="evenodd" fill-opacity="1" stroke="#000000" stroke-opacity="1" stroke-width="3.2"/>
<circle clip-path="url(#clip932)" cx="722.659" cy="1169.75" r="14.4" fill="#009af9" fill-rule="evenodd" fill-opacity="1" stroke="#000000" stroke-opacity="1" stroke-width="3.2"/>
<circle clip-path="url(#clip932)" cx="742.783" cy="1163.67" r="14.4" fill="#009af9" fill-rule="evenodd" fill-opacity="1" stroke="#000000" stroke-opacity="1" stroke-width="3.2"/>
<circle clip-path="url(#clip932)" cx="762.908" cy="1157" r="14.4" fill="#009af9" fill-rule="evenodd" fill-opacity="1" stroke="#000000" stroke-opacity="1" stroke-width="3.2"/>
<circle clip-path="url(#clip932)" cx="783.033" cy="1149.67" r="14.4" fill="#009af9" fill-rule="evenodd" fill-opacity="1" stroke="#000000" stroke-opacity="1" stroke-width="3.2"/>
<circle clip-path="url(#clip932)" cx="803.157" cy="1141.58" r="14.4" fill="#009af9" fill-rule="evenodd" fill-opacity="1" stroke="#000000" stroke-opacity="1" stroke-width="3.2"/>
<circle clip-path="url(#clip932)" cx="823.282" cy="1132.63" r="14.4" fill="#009af9" fill-rule="evenodd" fill-opacity="1" stroke="#000000" stroke-opacity="1" stroke-width="3.2"/>
<circle clip-path="url(#clip932)" cx="843.407" cy="1122.71" r="14.4" fill="#009af9" fill-rule="evenodd" fill-opacity="1" stroke="#000000" stroke-opacity="1" stroke-width="3.2"/>
<circle clip-path="url(#clip932)" cx="863.531" cy="1111.7" r="14.4" fill="#009af9" fill-rule="evenodd" fill-opacity="1" stroke="#000000" stroke-opacity="1" stroke-width="3.2"/>
<circle clip-path="url(#clip932)" cx="883.656" cy="1099.43" r="14.4" fill="#009af9" fill-rule="evenodd" fill-opacity="1" stroke="#000000" stroke-opacity="1" stroke-width="3.2"/>
<circle clip-path="url(#clip932)" cx="903.781" cy="1085.74" r="14.4" fill="#009af9" fill-rule="evenodd" fill-opacity="1" stroke="#000000" stroke-opacity="1" stroke-width="3.2"/>
<circle clip-path="url(#clip932)" cx="923.905" cy="1070.41" r="14.4" fill="#009af9" fill-rule="evenodd" fill-opacity="1" stroke="#000000" stroke-opacity="1" stroke-width="3.2"/>
<circle clip-path="url(#clip932)" cx="944.03" cy="1053.24" r="14.4" fill="#009af9" fill-rule="evenodd" fill-opacity="1" stroke="#000000" stroke-opacity="1" stroke-width="3.2"/>
<circle clip-path="url(#clip932)" cx="964.155" cy="1033.95" r="14.4" fill="#009af9" fill-rule="evenodd" fill-opacity="1" stroke="#000000" stroke-opacity="1" stroke-width="3.2"/>
<circle clip-path="url(#clip932)" cx="984.279" cy="1012.27" r="14.4" fill="#009af9" fill-rule="evenodd" fill-opacity="1" stroke="#000000" stroke-opacity="1" stroke-width="3.2"/>
<circle clip-path="url(#clip932)" cx="1004.4" cy="987.868" r="14.4" fill="#009af9" fill-rule="evenodd" fill-opacity="1" stroke="#000000" stroke-opacity="1" stroke-width="3.2"/>
<circle clip-path="url(#clip932)" cx="1024.53" cy="960.423" r="14.4" fill="#009af9" fill-rule="evenodd" fill-opacity="1" stroke="#000000" stroke-opacity="1" stroke-width="3.2"/>
<circle clip-path="url(#clip932)" cx="1044.65" cy="929.594" r="14.4" fill="#009af9" fill-rule="evenodd" fill-opacity="1" stroke="#000000" stroke-opacity="1" stroke-width="3.2"/>
<circle clip-path="url(#clip932)" cx="1064.78" cy="895.072" r="14.4" fill="#009af9" fill-rule="evenodd" fill-opacity="1" stroke="#000000" stroke-opacity="1" stroke-width="3.2"/>
<circle clip-path="url(#clip932)" cx="1084.9" cy="856.618" r="14.4" fill="#009af9" fill-rule="evenodd" fill-opacity="1" stroke="#000000" stroke-opacity="1" stroke-width="3.2"/>
<circle clip-path="url(#clip932)" cx="1105.03" cy="814.137" r="14.4" fill="#009af9" fill-rule="evenodd" fill-opacity="1" stroke="#000000" stroke-opacity="1" stroke-width="3.2"/>
<circle clip-path="url(#clip932)" cx="1125.15" cy="767.784" r="14.4" fill="#009af9" fill-rule="evenodd" fill-opacity="1" stroke="#000000" stroke-opacity="1" stroke-width="3.2"/>
<circle clip-path="url(#clip932)" cx="1145.28" cy="718.101" r="14.4" fill="#009af9" fill-rule="evenodd" fill-opacity="1" stroke="#000000" stroke-opacity="1" stroke-width="3.2"/>
<circle clip-path="url(#clip932)" cx="1165.4" cy="666.177" r="14.4" fill="#009af9" fill-rule="evenodd" fill-opacity="1" stroke="#000000" stroke-opacity="1" stroke-width="3.2"/>
<circle clip-path="url(#clip932)" cx="1185.53" cy="613.806" r="14.4" fill="#009af9" fill-rule="evenodd" fill-opacity="1" stroke="#000000" stroke-opacity="1" stroke-width="3.2"/>
<circle clip-path="url(#clip932)" cx="1205.65" cy="563.569" r="14.4" fill="#009af9" fill-rule="evenodd" fill-opacity="1" stroke="#000000" stroke-opacity="1" stroke-width="3.2"/>
<circle clip-path="url(#clip932)" cx="1225.78" cy="518.76" r="14.4" fill="#009af9" fill-rule="evenodd" fill-opacity="1" stroke="#000000" stroke-opacity="1" stroke-width="3.2"/>
<circle clip-path="url(#clip932)" cx="1245.9" cy="483.061" r="14.4" fill="#009af9" fill-rule="evenodd" fill-opacity="1" stroke="#000000" stroke-opacity="1" stroke-width="3.2"/>
<circle clip-path="url(#clip932)" cx="1266.02" cy="459.945" r="14.4" fill="#009af9" fill-rule="evenodd" fill-opacity="1" stroke="#000000" stroke-opacity="1" stroke-width="3.2"/>
<circle clip-path="url(#clip932)" cx="1286.15" cy="451.931" r="14.4" fill="#009af9" fill-rule="evenodd" fill-opacity="1" stroke="#000000" stroke-opacity="1" stroke-width="3.2"/>
<circle clip-path="url(#clip932)" cx="1306.27" cy="459.945" r="14.4" fill="#009af9" fill-rule="evenodd" fill-opacity="1" stroke="#000000" stroke-opacity="1" stroke-width="3.2"/>
<circle clip-path="url(#clip932)" cx="1326.4" cy="483.061" r="14.4" fill="#009af9" fill-rule="evenodd" fill-opacity="1" stroke="#000000" stroke-opacity="1" stroke-width="3.2"/>
<circle clip-path="url(#clip932)" cx="1346.52" cy="518.76" r="14.4" fill="#009af9" fill-rule="evenodd" fill-opacity="1" stroke="#000000" stroke-opacity="1" stroke-width="3.2"/>
<circle clip-path="url(#clip932)" cx="1366.65" cy="563.569" r="14.4" fill="#009af9" fill-rule="evenodd" fill-opacity="1" stroke="#000000" stroke-opacity="1" stroke-width="3.2"/>
<circle clip-path="url(#clip932)" cx="1386.77" cy="613.806" r="14.4" fill="#009af9" fill-rule="evenodd" fill-opacity="1" stroke="#000000" stroke-opacity="1" stroke-width="3.2"/>
<circle clip-path="url(#clip932)" cx="1406.9" cy="666.177" r="14.4" fill="#009af9" fill-rule="evenodd" fill-opacity="1" stroke="#000000" stroke-opacity="1" stroke-width="3.2"/>
<circle clip-path="url(#clip932)" cx="1427.02" cy="718.101" r="14.4" fill="#009af9" fill-rule="evenodd" fill-opacity="1" stroke="#000000" stroke-opacity="1" stroke-width="3.2"/>
<circle clip-path="url(#clip932)" cx="1447.15" cy="767.784" r="14.4" fill="#009af9" fill-rule="evenodd" fill-opacity="1" stroke="#000000" stroke-opacity="1" stroke-width="3.2"/>
<circle clip-path="url(#clip932)" cx="1467.27" cy="814.137" r="14.4" fill="#009af9" fill-rule="evenodd" fill-opacity="1" stroke="#000000" stroke-opacity="1" stroke-width="3.2"/>
<circle clip-path="url(#clip932)" cx="1487.4" cy="856.618" r="14.4" fill="#009af9" fill-rule="evenodd" fill-opacity="1" stroke="#000000" stroke-opacity="1" stroke-width="3.2"/>
<circle clip-path="url(#clip932)" cx="1507.52" cy="895.072" r="14.4" fill="#009af9" fill-rule="evenodd" fill-opacity="1" stroke="#000000" stroke-opacity="1" stroke-width="3.2"/>
<circle clip-path="url(#clip932)" cx="1527.64" cy="929.594" r="14.4" fill="#009af9" fill-rule="evenodd" fill-opacity="1" stroke="#000000" stroke-opacity="1" stroke-width="3.2"/>
<circle clip-path="url(#clip932)" cx="1547.77" cy="960.423" r="14.4" fill="#009af9" fill-rule="evenodd" fill-opacity="1" stroke="#000000" stroke-opacity="1" stroke-width="3.2"/>
<circle clip-path="url(#clip932)" cx="1567.89" cy="987.868" r="14.4" fill="#009af9" fill-rule="evenodd" fill-opacity="1" stroke="#000000" stroke-opacity="1" stroke-width="3.2"/>
<circle clip-path="url(#clip932)" cx="1588.02" cy="1012.27" r="14.4" fill="#009af9" fill-rule="evenodd" fill-opacity="1" stroke="#000000" stroke-opacity="1" stroke-width="3.2"/>
<circle clip-path="url(#clip932)" cx="1608.14" cy="1033.95" r="14.4" fill="#009af9" fill-rule="evenodd" fill-opacity="1" stroke="#000000" stroke-opacity="1" stroke-width="3.2"/>
<circle clip-path="url(#clip932)" cx="1628.27" cy="1053.24" r="14.4" fill="#009af9" fill-rule="evenodd" fill-opacity="1" stroke="#000000" stroke-opacity="1" stroke-width="3.2"/>
<circle clip-path="url(#clip932)" cx="1648.39" cy="1070.41" r="14.4" fill="#009af9" fill-rule="evenodd" fill-opacity="1" stroke="#000000" stroke-opacity="1" stroke-width="3.2"/>
<circle clip-path="url(#clip932)" cx="1668.52" cy="1085.74" r="14.4" fill="#009af9" fill-rule="evenodd" fill-opacity="1" stroke="#000000" stroke-opacity="1" stroke-width="3.2"/>
<circle clip-path="url(#clip932)" cx="1688.64" cy="1099.43" r="14.4" fill="#009af9" fill-rule="evenodd" fill-opacity="1" stroke="#000000" stroke-opacity="1" stroke-width="3.2"/>
<circle clip-path="url(#clip932)" cx="1708.77" cy="1111.7" r="14.4" fill="#009af9" fill-rule="evenodd" fill-opacity="1" stroke="#000000" stroke-opacity="1" stroke-width="3.2"/>
<circle clip-path="url(#clip932)" cx="1728.89" cy="1122.71" r="14.4" fill="#009af9" fill-rule="evenodd" fill-opacity="1" stroke="#000000" stroke-opacity="1" stroke-width="3.2"/>
<circle clip-path="url(#clip932)" cx="1749.02" cy="1132.63" r="14.4" fill="#009af9" fill-rule="evenodd" fill-opacity="1" stroke="#000000" stroke-opacity="1" stroke-width="3.2"/>
<circle clip-path="url(#clip932)" cx="1769.14" cy="1141.58" r="14.4" fill="#009af9" fill-rule="evenodd" fill-opacity="1" stroke="#000000" stroke-opacity="1" stroke-width="3.2"/>
<circle clip-path="url(#clip932)" cx="1789.27" cy="1149.67" r="14.4" fill="#009af9" fill-rule="evenodd" fill-opacity="1" stroke="#000000" stroke-opacity="1" stroke-width="3.2"/>
<circle clip-path="url(#clip932)" cx="1809.39" cy="1157" r="14.4" fill="#009af9" fill-rule="evenodd" fill-opacity="1" stroke="#000000" stroke-opacity="1" stroke-width="3.2"/>
<circle clip-path="url(#clip932)" cx="1829.51" cy="1163.67" r="14.4" fill="#009af9" fill-rule="evenodd" fill-opacity="1" stroke="#000000" stroke-opacity="1" stroke-width="3.2"/>
<circle clip-path="url(#clip932)" cx="1849.64" cy="1169.75" r="14.4" fill="#009af9" fill-rule="evenodd" fill-opacity="1" stroke="#000000" stroke-opacity="1" stroke-width="3.2"/>
<circle clip-path="url(#clip932)" cx="1869.76" cy="1175.29" r="14.4" fill="#009af9" fill-rule="evenodd" fill-opacity="1" stroke="#000000" stroke-opacity="1" stroke-width="3.2"/>
<circle clip-path="url(#clip932)" cx="1889.89" cy="1180.37" r="14.4" fill="#009af9" fill-rule="evenodd" fill-opacity="1" stroke="#000000" stroke-opacity="1" stroke-width="3.2"/>
<circle clip-path="url(#clip932)" cx="1910.01" cy="1185.02" r="14.4" fill="#009af9" fill-rule="evenodd" fill-opacity="1" stroke="#000000" stroke-opacity="1" stroke-width="3.2"/>
<circle clip-path="url(#clip932)" cx="1930.14" cy="1189.3" r="14.4" fill="#009af9" fill-rule="evenodd" fill-opacity="1" stroke="#000000" stroke-opacity="1" stroke-width="3.2"/>
<circle clip-path="url(#clip932)" cx="1950.26" cy="1193.23" r="14.4" fill="#009af9" fill-rule="evenodd" fill-opacity="1" stroke="#000000" stroke-opacity="1" stroke-width="3.2"/>
<circle clip-path="url(#clip932)" cx="1970.39" cy="1196.86" r="14.4" fill="#009af9" fill-rule="evenodd" fill-opacity="1" stroke="#000000" stroke-opacity="1" stroke-width="3.2"/>
<circle clip-path="url(#clip932)" cx="1990.51" cy="1200.22" r="14.4" fill="#009af9" fill-rule="evenodd" fill-opacity="1" stroke="#000000" stroke-opacity="1" stroke-width="3.2"/>
<circle clip-path="url(#clip932)" cx="2010.64" cy="1203.33" r="14.4" fill="#009af9" fill-rule="evenodd" fill-opacity="1" stroke="#000000" stroke-opacity="1" stroke-width="3.2"/>
<circle clip-path="url(#clip932)" cx="2030.76" cy="1206.21" r="14.4" fill="#009af9" fill-rule="evenodd" fill-opacity="1" stroke="#000000" stroke-opacity="1" stroke-width="3.2"/>
<circle clip-path="url(#clip932)" cx="2050.89" cy="1208.88" r="14.4" fill="#009af9" fill-rule="evenodd" fill-opacity="1" stroke="#000000" stroke-opacity="1" stroke-width="3.2"/>
<circle clip-path="url(#clip932)" cx="2071.01" cy="1211.37" r="14.4" fill="#009af9" fill-rule="evenodd" fill-opacity="1" stroke="#000000" stroke-opacity="1" stroke-width="3.2"/>
<circle clip-path="url(#clip932)" cx="2091.14" cy="1213.69" r="14.4" fill="#009af9" fill-rule="evenodd" fill-opacity="1" stroke="#000000" stroke-opacity="1" stroke-width="3.2"/>
<circle clip-path="url(#clip932)" cx="2111.26" cy="1215.86" r="14.4" fill="#009af9" fill-rule="evenodd" fill-opacity="1" stroke="#000000" stroke-opacity="1" stroke-width="3.2"/>
<circle clip-path="url(#clip932)" cx="2131.38" cy="1217.88" r="14.4" fill="#009af9" fill-rule="evenodd" fill-opacity="1" stroke="#000000" stroke-opacity="1" stroke-width="3.2"/>
<circle clip-path="url(#clip932)" cx="2151.51" cy="1219.78" r="14.4" fill="#009af9" fill-rule="evenodd" fill-opacity="1" stroke="#000000" stroke-opacity="1" stroke-width="3.2"/>
<circle clip-path="url(#clip932)" cx="2171.63" cy="1221.55" r="14.4" fill="#009af9" fill-rule="evenodd" fill-opacity="1" stroke="#000000" stroke-opacity="1" stroke-width="3.2"/>
<circle clip-path="url(#clip932)" cx="2191.76" cy="1223.22" r="14.4" fill="#009af9" fill-rule="evenodd" fill-opacity="1" stroke="#000000" stroke-opacity="1" stroke-width="3.2"/>
<circle clip-path="url(#clip932)" cx="2211.88" cy="1224.78" r="14.4" fill="#009af9" fill-rule="evenodd" fill-opacity="1" stroke="#000000" stroke-opacity="1" stroke-width="3.2"/>
<circle clip-path="url(#clip932)" cx="2232.01" cy="1226.25" r="14.4" fill="#009af9" fill-rule="evenodd" fill-opacity="1" stroke="#000000" stroke-opacity="1" stroke-width="3.2"/>
<circle clip-path="url(#clip932)" cx="2252.13" cy="1227.64" r="14.4" fill="#009af9" fill-rule="evenodd" fill-opacity="1" stroke="#000000" stroke-opacity="1" stroke-width="3.2"/>
<circle clip-path="url(#clip932)" cx="2272.26" cy="1228.94" r="14.4" fill="#009af9" fill-rule="evenodd" fill-opacity="1" stroke="#000000" stroke-opacity="1" stroke-width="3.2"/>
<circle clip-path="url(#clip932)" cx="2292.38" cy="1230.18" r="14.4" fill="#009af9" fill-rule="evenodd" fill-opacity="1" stroke="#000000" stroke-opacity="1" stroke-width="3.2"/>
<polyline clip-path="url(#clip932)" style="stroke:#e26f46; stroke-linecap:round; stroke-linejoin:round; stroke-width:8; stroke-opacity:1; fill:none" points="279.916,8.33187e+20 281.931,4.1943e+06 283.945,4.1943e+06 285.96,4.1943e+06 287.974,4.1943e+06 289.989,4.1943e+06 292.003,4.1943e+06 294.018,4.1943e+06 296.032,4.1943e+06 298.046,4.1943e+06 300.061,-4.1943e+06 302.075,-4.1943e+06 304.09,-4.1943e+06 306.104,-4.1943e+06 308.119,-4.1943e+06 310.133,-4.1943e+06 312.148,-4.1943e+06 314.162,-4.1943e+06 316.177,-4.1943e+06 318.191,-4.1943e+06 320.206,4.1943e+06 322.22,4.1943e+06 324.235,4.1943e+06 326.249,4.1943e+06 328.264,4.1943e+06 330.278,4.1943e+06 332.293,4.1943e+06 334.307,4.1943e+06 336.322,4.1943e+06 338.336,4.1943e+06 340.351,-4.1943e+06 342.365,-4.1943e+06 344.38,-4.1943e+06 346.394,-4.1943e+06 348.408,-4.1943e+06 350.423,-4.1943e+06 352.437,-4.1943e+06 354.452,-4.1943e+06 356.466,-4.1943e+06 358.481,-4.1943e+06 360.495,4.1943e+06 362.51,4.1943e+06 364.524,4.1943e+06 366.539,4.1943e+06 368.553,4.1943e+06 370.568,4.1943e+06 372.582,4.1943e+06 374.597,4.1943e+06 376.611,4.1943e+06 378.626,4.1943e+06 380.64,-4.1943e+06 382.655,-4.1943e+06 384.669,-4.1943e+06 386.684,-4.1943e+06 388.698,-4.1943e+06 390.713,-4.1943e+06 392.727,-4.1943e+06 394.742,-4.1943e+06 396.756,-4.1943e+06 398.771,-4.1943e+06 400.785,4.1943e+06 402.799,4.1943e+06 404.814,4.1943e+06 406.828,4.1943e+06 408.843,4.1943e+06 410.857,4.1943e+06 412.872,4.1943e+06 414.886,4.1943e+06 416.901,4.1943e+06 418.915,4.1943e+06 420.93,-4.1943e+06 422.944,-4.1943e+06 424.959,-4.1943e+06 426.973,-4.1943e+06 428.988,-4.1943e+06 431.002,-4.1943e+06 433.017,-4.1943e+06 435.031,-4.1943e+06 437.046,-4.1943e+06 439.06,-4.1943e+06 441.075,4.1943e+06 443.089,4.1943e+06 445.104,4.1943e+06 447.118,4.1943e+06 449.133,4.1943e+06 451.147,4.1943e+06 453.161,4.1943e+06 455.176,4.1943e+06 457.19,4.1943e+06 459.205,4.1943e+06 461.219,-516994 463.234,-4.1943e+06 465.248,-4.1943e+06 467.263,-4.1943e+06 469.277,-4.1943e+06 471.292,-4.1943e+06 473.306,-4.1943e+06 475.321,-2.87248e+06 477.335,-1.63022e+06 479.35,-645592 481.364,59423.8 483.379,503546 485.393,729616 487.408,789849 489.422,736302 491.437,616468 493.451,466871 495.466,315991 497.48,181589 499.495,73073.2 501.509,-6064.09 503.523,-57044.5 505.538,-83761.3 507.552,-91591.9 509.567,-86185.2 511.581,-72589.7 513.596,-55219.1 515.61,-37309.1 517.625,-21032.6 519.639,-7690.44 521.654,2212.99 523.668,8715.14 525.683,12221.4 527.697,13339.9 529.712,12725.7 531.726,11020.9 533.741,8781.87 535.755,6418.46 537.77,4239.17 539.784,2423.55 541.799,1054.29 543.813,138.899 545.828,-368.023 547.842,-540.446 549.857,-466.374 551.871,-231.483 553.885,87.1976 555.9,429.338 557.914,750.049 559.929,1020.93 561.943,1228.32 563.958,1369.24 565.972,1448.92 567.987,1477.44 570.001,1467.39 572.016,1431.52 574.03,1381.44 576.045,1326.9 578.059,1274.96 580.074,1230.38 582.088,1195.69 584.103,1171.64 586.117,1157.58 588.132,1152.04 590.146,1153.06 592.161,1158.57 594.175,1166.65 596.19,1175.66 598.204,1184.36 600.219,1191.85 602.233,1197.67 604.247,1201.65 606.262,1203.85 608.276,1204.51 610.291,1203.95 612.305,1202.54 614.32,1200.63 616.334,1198.52 618.349,1196.44 620.363,1194.56 622.378,1192.99 624.392,1191.76 626.407,1190.86 628.421,1190.26 630.436,1189.9 632.45,1189.71 634.465,1189.62 636.479,1189.57 638.494,1189.52 640.508,1189.42 642.523,1189.26 644.537,1189.03 646.552,1188.72 648.566,1188.35 650.581,1187.93 652.595,1187.46 654.609,1186.96 656.624,1186.45 658.638,1185.94 660.653,1185.43 662.667,1184.93 664.682,1184.44 666.696,1183.96 668.711,1183.49 670.725,1183.03 672.74,1182.58 674.754,1182.12 676.769,1181.67 678.783,1181.21 680.798,1180.74 682.812,1180.27 684.827,1179.79 686.841,1179.31 688.856,1178.81 690.87,1178.31 692.885,1177.8 694.899,1177.29 696.914,1176.77 698.928,1176.24 700.943,1175.71 702.957,1175.18 704.971,1174.64 706.986,1174.1 709,1173.56 711.015,1173.01 713.029,1172.46 715.044,1171.9 717.058,1171.34 719.073,1170.77 721.087,1170.2 723.102,1169.62 725.116,1169.04 727.131,1168.45 729.145,1167.85 731.16,1167.25 733.174,1166.64 735.189,1166.03 737.203,1165.41 739.218,1164.79 741.232,1164.16 743.247,1163.53 745.261,1162.88 747.276,1162.24 749.29,1161.58 751.305,1160.93 753.319,1160.26 755.334,1159.59 757.348,1158.91 759.362,1158.23 761.377,1157.53 763.391,1156.84 765.406,1156.13 767.42,1155.42 769.435,1154.7 771.449,1153.98 773.464,1153.24 775.478,1152.51 777.493,1151.76 779.507,1151 781.522,1150.24 783.536,1149.47 785.551,1148.7 787.565,1147.91 789.58,1147.12 791.594,1146.32 793.609,1145.51 795.623,1144.7 797.638,1143.88 799.652,1143.04 801.667,1142.2 803.681,1141.35 805.696,1140.5 807.71,1139.63 809.724,1138.75 811.739,1137.87 813.753,1136.98 815.768,1136.08 817.782,1135.16 819.797,1134.24 821.811,1133.31 823.826,1132.37 825.84,1131.42 827.855,1130.47 829.869,1129.5 831.884,1128.52 833.898,1127.53 835.913,1126.53 837.927,1125.52 839.942,1124.5 841.956,1123.46 843.971,1122.42 845.985,1121.37 848,1120.3 850.014,1119.23 852.029,1118.14 854.043,1117.04 856.058,1115.93 858.072,1114.8 860.086,1113.67 862.101,1112.52 864.115,1111.36 866.13,1110.19 868.144,1109 870.159,1107.8 872.173,1106.59 874.188,1105.37 876.202,1104.13 878.217,1102.88 880.231,1101.61 882.246,1100.33 884.26,1099.04 886.275,1097.73 888.289,1096.41 890.304,1095.07 892.318,1093.72 894.333,1092.35 896.347,1090.97 898.362,1089.57 900.376,1088.16 902.391,1086.73 904.405,1085.29 906.42,1083.82 908.434,1082.35 910.448,1080.85 912.463,1079.34 914.477,1077.81 916.492,1076.26 918.506,1074.7 920.521,1073.11 922.535,1071.51 924.55,1069.89 926.564,1068.26 928.579,1066.6 930.593,1064.92 932.608,1063.23 934.622,1061.52 936.637,1059.78 938.651,1058.03 940.666,1056.25 942.68,1054.45 944.695,1052.64 946.709,1050.8 948.724,1048.94 950.738,1047.06 952.753,1045.16 954.767,1043.23 956.782,1041.28 958.796,1039.31 960.81,1037.32 962.825,1035.3 964.839,1033.26 966.854,1031.19 968.868,1029.1 970.883,1026.98 972.897,1024.84 974.912,1022.68 976.926,1020.49 978.941,1018.27 980.955,1016.03 982.97,1013.76 984.984,1011.46 986.999,1009.14 989.013,1006.78 991.028,1004.4 993.042,1002 995.057,999.559 997.071,997.093 999.086,994.598 1001.1,992.073 1003.11,989.519 1005.13,986.934 1007.14,984.318 1009.16,981.672 1011.17,978.994 1013.19,976.284 1015.2,973.543 1017.22,970.769 1019.23,967.962 1021.24,965.123 1023.26,962.25 1025.27,959.343 1027.29,956.402 1029.3,953.427 1031.32,950.418 1033.33,947.373 1035.35,944.293 1037.36,941.177 1039.38,938.025 1041.39,934.837 1043.4,931.612 1045.42,928.351 1047.43,925.052 1049.45,921.716 1051.46,918.342 1053.48,914.93 1055.49,911.48 1057.51,907.991 1059.52,904.463 1061.53,900.897 1063.55,897.291 1065.56,893.646 1067.58,889.962 1069.59,886.237 1071.61,882.473 1073.62,878.668 1075.64,874.824 1077.65,870.939 1079.66,867.013 1081.68,863.048 1083.69,859.041 1085.71,854.994 1087.72,850.907 1089.74,846.779 1091.75,842.611 1093.77,838.402 1095.78,834.153 1097.8,829.864 1099.81,825.534 1101.82,821.165 1103.84,816.757 1105.85,812.309 1107.87,807.822 1109.88,803.296 1111.9,798.733 1113.91,794.131 1115.93,789.492 1117.94,784.816 1119.95,780.104 1121.97,775.357 1123.98,770.574 1126,765.757 1128.01,760.907 1130.03,756.024 1132.04,751.109 1134.06,746.163 1136.07,741.188 1138.08,736.183 1140.1,731.151 1142.11,726.093 1144.13,721.009 1146.14,715.902 1148.16,710.772 1150.17,705.622 1152.19,700.451 1154.2,695.263 1156.22,690.06 1158.23,684.841 1160.24,679.611 1162.26,674.369 1164.27,669.12 1166.29,663.864 1168.3,658.604 1170.32,653.342 1172.33,648.08 1174.35,642.821 1176.36,637.568 1178.37,632.322 1180.39,627.087 1182.4,621.866 1184.42,616.661 1186.43,611.475 1188.45,606.311 1190.46,601.172 1192.48,596.061 1194.49,590.983 1196.5,585.938 1198.52,580.932 1200.53,575.968 1202.55,571.049 1204.56,566.178 1206.58,561.359 1208.59,556.596 1210.61,551.892 1212.62,547.251 1214.64,542.678 1216.65,538.174 1218.66,533.745 1220.68,529.394 1222.69,525.125 1224.71,520.941 1226.72,516.847 1228.74,512.846 1230.75,508.942 1232.77,505.139 1234.78,501.44 1236.79,497.849 1238.81,494.37 1240.82,491.006 1242.84,487.76 1244.85,484.636 1246.87,481.637 1248.88,478.767 1250.9,476.028 1252.91,473.424 1254.92,470.957 1256.94,468.63 1258.95,466.446 1260.97,464.408 1262.98,462.516 1265,460.775 1267.01,459.185 1269.03,457.748 1271.04,456.467 1273.05,455.343 1275.07,454.377 1277.08,453.57 1279.1,452.923 1281.11,452.438 1283.13,452.114 1285.14,451.951 1287.16,451.951 1289.17,452.114 1291.19,452.438 1293.2,452.923 1295.21,453.57 1297.23,454.377 1299.24,455.343 1301.26,456.467 1303.27,457.748 1305.29,459.185 1307.3,460.775 1309.32,462.516 1311.33,464.408 1313.34,466.446 1315.36,468.63 1317.37,470.957 1319.39,473.424 1321.4,476.028 1323.42,478.767 1325.43,481.637 1327.45,484.636 1329.46,487.76 1331.47,491.006 1333.49,494.37 1335.5,497.849 1337.52,501.44 1339.53,505.139 1341.55,508.942 1343.56,512.846 1345.58,516.847 1347.59,520.941 1349.61,525.125 1351.62,529.394 1353.63,533.745 1355.65,538.174 1357.66,542.678 1359.68,547.251 1361.69,551.892 1363.71,556.596 1365.72,561.359 1367.74,566.178 1369.75,571.049 1371.76,575.968 1373.78,580.932 1375.79,585.938 1377.81,590.983 1379.82,596.061 1381.84,601.172 1383.85,606.311 1385.87,611.475 1387.88,616.661 1389.89,621.866 1391.91,627.087 1393.92,632.322 1395.94,637.568 1397.95,642.821 1399.97,648.08 1401.98,653.342 1404,658.604 1406.01,663.864 1408.03,669.12 1410.04,674.369 1412.05,679.611 1414.07,684.841 1416.08,690.06 1418.1,695.263 1420.11,700.451 1422.13,705.622 1424.14,710.772 1426.16,715.902 1428.17,721.009 1430.18,726.093 1432.2,731.151 1434.21,736.183 1436.23,741.188 1438.24,746.163 1440.26,751.109 1442.27,756.024 1444.29,760.907 1446.3,765.757 1448.31,770.574 1450.33,775.357 1452.34,780.104 1454.36,784.816 1456.37,789.492 1458.39,794.131 1460.4,798.733 1462.42,803.296 1464.43,807.822 1466.45,812.309 1468.46,816.757 1470.47,821.165 1472.49,825.534 1474.5,829.864 1476.52,834.153 1478.53,838.402 1480.55,842.611 1482.56,846.779 1484.58,850.907 1486.59,854.994 1488.6,859.041 1490.62,863.048 1492.63,867.013 1494.65,870.939 1496.66,874.824 1498.68,878.668 1500.69,882.473 1502.71,886.237 1504.72,889.962 1506.73,893.646 1508.75,897.291 1510.76,900.897 1512.78,904.463 1514.79,907.991 1516.81,911.48 1518.82,914.93 1520.84,918.342 1522.85,921.716 1524.86,925.052 1526.88,928.351 1528.89,931.612 1530.91,934.837 1532.92,938.025 1534.94,941.177 1536.95,944.293 1538.97,947.373 1540.98,950.418 1543,953.427 1545.01,956.402 1547.02,959.343 1549.04,962.25 1551.05,965.123 1553.07,967.962 1555.08,970.769 1557.1,973.543 1559.11,976.284 1561.13,978.994 1563.14,981.672 1565.15,984.318 1567.17,986.934 1569.18,989.519 1571.2,992.073 1573.21,994.598 1575.23,997.093 1577.24,999.559 1579.26,1002 1581.27,1004.4 1583.28,1006.78 1585.3,1009.14 1587.31,1011.46 1589.33,1013.76 1591.34,1016.03 1593.36,1018.27 1595.37,1020.49 1597.39,1022.68 1599.4,1024.84 1601.42,1026.98 1603.43,1029.1 1605.44,1031.19 1607.46,1033.26 1609.47,1035.3 1611.49,1037.32 1613.5,1039.31 1615.52,1041.28 1617.53,1043.23 1619.55,1045.16 1621.56,1047.06 1623.57,1048.94 1625.59,1050.8 1627.6,1052.64 1629.62,1054.45 1631.63,1056.25 1633.65,1058.03 1635.66,1059.78 1637.68,1061.52 1639.69,1063.23 1641.7,1064.92 1643.72,1066.6 1645.73,1068.26 1647.75,1069.89 1649.76,1071.51 1651.78,1073.11 1653.79,1074.7 1655.81,1076.26 1657.82,1077.81 1659.84,1079.34 1661.85,1080.85 1663.86,1082.35 1665.88,1083.82 1667.89,1085.29 1669.91,1086.73 1671.92,1088.16 1673.94,1089.57 1675.95,1090.97 1677.97,1092.35 1679.98,1093.72 1681.99,1095.07 1684.01,1096.41 1686.02,1097.73 1688.04,1099.04 1690.05,1100.33 1692.07,1101.61 1694.08,1102.88 1696.1,1104.13 1698.11,1105.37 1700.12,1106.59 1702.14,1107.8 1704.15,1109 1706.17,1110.19 1708.18,1111.36 1710.2,1112.52 1712.21,1113.67 1714.23,1114.8 1716.24,1115.93 1718.26,1117.04 1720.27,1118.14 1722.28,1119.23 1724.3,1120.3 1726.31,1121.37 1728.33,1122.42 1730.34,1123.46 1732.36,1124.5 1734.37,1125.52 1736.39,1126.53 1738.4,1127.53 1740.41,1128.52 1742.43,1129.5 1744.44,1130.47 1746.46,1131.42 1748.47,1132.37 1750.49,1133.31 1752.5,1134.24 1754.52,1135.16 1756.53,1136.08 1758.54,1136.98 1760.56,1137.87 1762.57,1138.75 1764.59,1139.63 1766.6,1140.5 1768.62,1141.35 1770.63,1142.2 1772.65,1143.04 1774.66,1143.88 1776.67,1144.7 1778.69,1145.51 1780.7,1146.32 1782.72,1147.12 1784.73,1147.91 1786.75,1148.7 1788.76,1149.47 1790.78,1150.24 1792.79,1151 1794.81,1151.76 1796.82,1152.51 1798.83,1153.24 1800.85,1153.98 1802.86,1154.7 1804.88,1155.42 1806.89,1156.13 1808.91,1156.84 1810.92,1157.53 1812.94,1158.23 1814.95,1158.91 1816.96,1159.59 1818.98,1160.26 1820.99,1160.93 1823.01,1161.58 1825.02,1162.24 1827.04,1162.88 1829.05,1163.53 1831.07,1164.16 1833.08,1164.79 1835.09,1165.41 1837.11,1166.03 1839.12,1166.64 1841.14,1167.25 1843.15,1167.85 1845.17,1168.45 1847.18,1169.03 1849.2,1169.62 1851.21,1170.2 1853.23,1170.77 1855.24,1171.34 1857.25,1171.9 1859.27,1172.46 1861.28,1173.01 1863.3,1173.56 1865.31,1174.11 1867.33,1174.65 1869.34,1175.18 1871.36,1175.71 1873.37,1176.24 1875.38,1176.76 1877.4,1177.27 1879.41,1177.79 1881.43,1178.29 1883.44,1178.8 1885.46,1179.29 1887.47,1179.78 1889.49,1180.27 1891.5,1180.75 1893.51,1181.23 1895.53,1181.7 1897.54,1182.17 1899.56,1182.64 1901.57,1183.1 1903.59,1183.56 1905.6,1184.02 1907.62,1184.48 1909.63,1184.93 1911.65,1185.39 1913.66,1185.85 1915.67,1186.3 1917.69,1186.75 1919.7,1187.19 1921.72,1187.63 1923.73,1188.05 1925.75,1188.46 1927.76,1188.85 1929.78,1189.23 1931.79,1189.59 1933.8,1189.94 1935.82,1190.28 1937.83,1190.61 1939.85,1190.95 1941.86,1191.31 1943.88,1191.69 1945.89,1192.12 1947.91,1192.6 1949.92,1193.14 1951.93,1193.73 1953.95,1194.37 1955.96,1195.04 1957.98,1195.72 1959.99,1196.34 1962.01,1196.88 1964.02,1197.26 1966.04,1197.43 1968.05,1197.34 1970.07,1196.96 1972.08,1196.26 1974.09,1195.31 1976.11,1194.17 1978.12,1192.99 1980.14,1191.99 1982.15,1191.42 1984.17,1191.59 1986.18,1192.81 1988.2,1195.37 1990.21,1199.47 1992.22,1205.17 1994.24,1212.32 1996.25,1220.5 1998.27,1228.96 2000.28,1236.6 2002.3,1242 2004.31,1243.46 2006.33,1239.16 2008.34,1227.42 2010.35,1206.94 2012.37,1177.16 2014.38,1138.76 2016.4,1093.92 2018.41,1046.81 2020.43,1003.68 2022.44,972.941 2024.46,964.925 2026.47,990.754 2028.49,1061.39 2030.5,1185.79 2032.51,1368.43 2034.53,1606.8 2036.54,1888.75 2038.56,2189.5 2040.57,2469.2 2042.59,2675.12 2044.6,2739.09 2046.62,2586.19 2048.63,2138.96 2050.64,1332.21 2052.66,125.948 2054.67,-1473.46 2056.69,-3392.22 2058.7,-5468.32 2060.72,-7444.42 2062.73,-8934.48 2064.75,-9463.77 2066.76,-8470.21 2068.77,-5357.25 2070.79,398.991 2072.8,9157.93 2074.82,20952.1 2076.83,35329.6 2078.85,51164 2080.86,66512.4 2082.88,78408.4 2084.89,83159.1 2086.9,76116.9 2088.92,52315.1 2090.93,7069.42 2092.95,-63168.2 2094.96,-159371 2096.98,-278667 2098.99,-412228 2101.01,-544452 2103.02,-650289 2105.04,-697172 2107.05,-642950 2109.06,-440993 2111.08,-45322.5 2113.09,582023 2115.11,1.45732e+06 2117.12,2.56223e+06 2119.14,3.82329e+06 2121.15,4.1943e+06 2123.17,4.1943e+06 2125.18,4.1943e+06 2127.19,4.1943e+06 2129.21,4.1943e+06 2131.22,411707 2133.24,-4.1943e+06 2135.25,-4.1943e+06 2137.27,-4.1943e+06 2139.28,-4.1943e+06 2141.3,-4.1943e+06 2143.31,-4.1943e+06 2145.32,-4.1943e+06 2147.34,-4.1943e+06 2149.35,-4.1943e+06 2151.37,-4.05343e+06 2153.38,4.1943e+06 2155.4,4.1943e+06 2157.41,4.1943e+06 2159.43,4.1943e+06 2161.44,4.1943e+06 2163.46,4.1943e+06 2165.47,4.1943e+06 2167.48,4.1943e+06 2169.5,4.1943e+06 2171.51,4.1943e+06 2173.53,-4.1943e+06 2175.54,-4.1943e+06 2177.56,-4.1943e+06 2179.57,-4.1943e+06 2181.59,-4.1943e+06 2183.6,-4.1943e+06 2185.61,-4.1943e+06 2187.63,-4.1943e+06 2189.64,-4.1943e+06 2191.66,-4.1943e+06 2193.67,4.1943e+06 2195.69,4.1943e+06 2197.7,4.1943e+06 2199.72,4.1943e+06 2201.73,4.1943e+06 2203.74,4.1943e+06 2205.76,4.1943e+06 2207.77,4.1943e+06 2209.79,4.1943e+06 2211.8,4.1943e+06 2213.82,-4.1943e+06 2215.83,-4.1943e+06 2217.85,-4.1943e+06 2219.86,-4.1943e+06 2221.88,-4.1943e+06 2223.89,-4.1943e+06 2225.9,-4.1943e+06 2227.92,-4.1943e+06 2229.93,-4.1943e+06 2231.95,-4.1943e+06 2233.96,4.1943e+06 2235.98,4.1943e+06 2237.99,4.1943e+06 2240.01,4.1943e+06 2242.02,4.1943e+06 2244.03,4.1943e+06 2246.05,4.1943e+06 2248.06,4.1943e+06 2250.08,4.1943e+06 2252.09,4.1943e+06 2254.11,-4.1943e+06 2256.12,-4.1943e+06 2258.14,-4.1943e+06 2260.15,-4.1943e+06 2262.16,-4.1943e+06 2264.18,-4.1943e+06 2266.19,-4.1943e+06 2268.21,-4.1943e+06 2270.22,-4.1943e+06 2272.24,-4.1943e+06 2274.25,4.1943e+06 2276.27,4.1943e+06 2278.28,4.1943e+06 2280.3,4.1943e+06 2282.31,4.1943e+06 2284.32,4.1943e+06 2286.34,4.1943e+06 2288.35,4.1943e+06 2290.37,4.1943e+06 2292.38,1230.18 "/>
<path clip-path="url(#clip930)" d="M1586.57 248.629 L2281.65 248.629 L2281.65 93.1086 L1586.57 93.1086  Z" fill="#ffffff" fill-rule="evenodd" fill-opacity="1"/>
<polyline clip-path="url(#clip930)" style="stroke:#000000; stroke-linecap:round; stroke-linejoin:round; stroke-width:4; stroke-opacity:1; fill:none" points="1586.57,248.629 2281.65,248.629 2281.65,93.1086 1586.57,93.1086 1586.57,248.629 "/>
<circle clip-path="url(#clip930)" cx="1681.38" cy="144.949" r="20.48" fill="#009af9" fill-rule="evenodd" fill-opacity="1" stroke="#000000" stroke-opacity="1" stroke-width="4.55111"/>
<path clip-path="url(#clip930)" d="M1783.6 128.942 L1783.6 136.303 L1792.37 136.303 L1792.37 139.613 L1783.6 139.613 L1783.6 153.687 Q1783.6 156.858 1784.45 157.761 Q1785.33 158.664 1788 158.664 L1792.37 158.664 L1792.37 162.229 L1788 162.229 Q1783.06 162.229 1781.19 160.4 Q1779.31 158.548 1779.31 153.687 L1779.31 139.613 L1776.19 139.613 L1776.19 136.303 L1779.31 136.303 L1779.31 128.942 L1783.6 128.942 Z" fill="#000000" fill-rule="nonzero" fill-opacity="1" /><path clip-path="url(#clip930)" d="M1797.97 136.303 L1802.23 136.303 L1802.23 162.229 L1797.97 162.229 L1797.97 136.303 M1797.97 126.21 L1802.23 126.21 L1802.23 131.604 L1797.97 131.604 L1797.97 126.21 Z" fill="#000000" fill-rule="nonzero" fill-opacity="1" /><path clip-path="url(#clip930)" d="M1815.36 128.942 L1815.36 136.303 L1824.13 136.303 L1824.13 139.613 L1815.36 139.613 L1815.36 153.687 Q1815.36 156.858 1816.21 157.761 Q1817.09 158.664 1819.75 158.664 L1824.13 158.664 L1824.13 162.229 L1819.75 162.229 Q1814.82 162.229 1812.95 160.4 Q1811.07 158.548 1811.07 153.687 L1811.07 139.613 L1807.95 139.613 L1807.95 136.303 L1811.07 136.303 L1811.07 128.942 L1815.36 128.942 Z" fill="#000000" fill-rule="nonzero" fill-opacity="1" /><path clip-path="url(#clip930)" d="M1829.73 136.303 L1833.99 136.303 L1833.99 162.229 L1829.73 162.229 L1829.73 136.303 M1829.73 126.21 L1833.99 126.21 L1833.99 131.604 L1829.73 131.604 L1829.73 126.21 Z" fill="#000000" fill-rule="nonzero" fill-opacity="1" /><path clip-path="url(#clip930)" d="M1842.74 126.21 L1847.02 126.21 L1847.02 147.483 L1859.73 136.303 L1865.17 136.303 L1851.42 148.432 L1865.75 162.229 L1860.19 162.229 L1847.02 149.567 L1847.02 162.229 L1842.74 162.229 L1842.74 126.21 Z" fill="#000000" fill-rule="nonzero" fill-opacity="1" /><path clip-path="url(#clip930)" d="M1902.49 140.238 L1902.49 126.21 L1906.74 126.21 L1906.74 162.229 L1902.49 162.229 L1902.49 158.34 Q1901.14 160.655 1899.08 161.789 Q1897.05 162.9 1894.18 162.9 Q1889.48 162.9 1886.51 159.15 Q1883.57 155.4 1883.57 149.289 Q1883.57 143.178 1886.51 139.428 Q1889.48 135.678 1894.18 135.678 Q1897.05 135.678 1899.08 136.812 Q1901.14 137.923 1902.49 140.238 M1887.97 149.289 Q1887.97 153.988 1889.89 156.673 Q1891.84 159.335 1895.22 159.335 Q1898.6 159.335 1900.54 156.673 Q1902.49 153.988 1902.49 149.289 Q1902.49 144.59 1900.54 141.928 Q1898.6 139.243 1895.22 139.243 Q1891.84 139.243 1889.89 141.928 Q1887.97 144.59 1887.97 149.289 Z" fill="#000000" fill-rule="nonzero" fill-opacity="1" /><path clip-path="url(#clip930)" d="M1927.3 149.196 Q1922.14 149.196 1920.15 150.377 Q1918.16 151.557 1918.16 154.405 Q1918.16 156.673 1919.64 158.016 Q1921.14 159.335 1923.71 159.335 Q1927.25 159.335 1929.38 156.835 Q1931.54 154.312 1931.54 150.145 L1931.54 149.196 L1927.3 149.196 M1935.8 147.437 L1935.8 162.229 L1931.54 162.229 L1931.54 158.293 Q1930.08 160.655 1927.9 161.789 Q1925.73 162.9 1922.58 162.9 Q1918.6 162.9 1916.24 160.678 Q1913.9 158.432 1913.9 154.682 Q1913.9 150.307 1916.81 148.085 Q1919.75 145.863 1925.56 145.863 L1931.54 145.863 L1931.54 145.446 Q1931.54 142.507 1929.59 140.909 Q1927.67 139.289 1924.18 139.289 Q1921.95 139.289 1919.85 139.821 Q1917.74 140.354 1915.8 141.419 L1915.8 137.483 Q1918.13 136.581 1920.33 136.141 Q1922.53 135.678 1924.61 135.678 Q1930.24 135.678 1933.02 138.594 Q1935.8 141.511 1935.8 147.437 Z" fill="#000000" fill-rule="nonzero" fill-opacity="1" /><path clip-path="url(#clip930)" d="M1948.78 128.942 L1948.78 136.303 L1957.55 136.303 L1957.55 139.613 L1948.78 139.613 L1948.78 153.687 Q1948.78 156.858 1949.64 157.761 Q1950.52 158.664 1953.18 158.664 L1957.55 158.664 L1957.55 162.229 L1953.18 162.229 Q1948.25 162.229 1946.37 160.4 Q1944.5 158.548 1944.5 153.687 L1944.5 139.613 L1941.37 139.613 L1941.37 136.303 L1944.5 136.303 L1944.5 128.942 L1948.78 128.942 Z" fill="#000000" fill-rule="nonzero" fill-opacity="1" /><path clip-path="url(#clip930)" d="M1974.94 149.196 Q1969.78 149.196 1967.79 150.377 Q1965.8 151.557 1965.8 154.405 Q1965.8 156.673 1967.28 158.016 Q1968.78 159.335 1971.35 159.335 Q1974.89 159.335 1977.02 156.835 Q1979.17 154.312 1979.17 150.145 L1979.17 149.196 L1974.94 149.196 M1983.43 147.437 L1983.43 162.229 L1979.17 162.229 L1979.17 158.293 Q1977.72 160.655 1975.54 161.789 Q1973.36 162.9 1970.22 162.9 Q1966.24 162.9 1963.87 160.678 Q1961.54 158.432 1961.54 154.682 Q1961.54 150.307 1964.45 148.085 Q1967.39 145.863 1973.2 145.863 L1979.17 145.863 L1979.17 145.446 Q1979.17 142.507 1977.23 140.909 Q1975.31 139.289 1971.81 139.289 Q1969.59 139.289 1967.49 139.821 Q1965.38 140.354 1963.43 141.419 L1963.43 137.483 Q1965.77 136.581 1967.97 136.141 Q1970.17 135.678 1972.25 135.678 Q1977.88 135.678 1980.66 138.594 Q1983.43 141.511 1983.43 147.437 Z" fill="#000000" fill-rule="nonzero" fill-opacity="1" /><polyline clip-path="url(#clip930)" style="stroke:#e26f46; stroke-linecap:round; stroke-linejoin:round; stroke-width:8; stroke-opacity:1; fill:none" points="1610.27,196.789 1752.49,196.789 "/>
<path clip-path="url(#clip930)" d="M1776.19 179.509 L1780.87 179.509 L1780.87 214.069 L1776.19 214.069 L1776.19 179.509 Z" fill="#000000" fill-rule="nonzero" fill-opacity="1" /><path clip-path="url(#clip930)" d="M1811.54 198.421 L1811.54 214.069 L1807.28 214.069 L1807.28 198.559 Q1807.28 194.879 1805.84 193.05 Q1804.41 191.222 1801.54 191.222 Q1798.09 191.222 1796.1 193.421 Q1794.11 195.62 1794.11 199.416 L1794.11 214.069 L1789.82 214.069 L1789.82 188.143 L1794.11 188.143 L1794.11 192.171 Q1795.63 189.833 1797.69 188.675 Q1799.78 187.518 1802.49 187.518 Q1806.95 187.518 1809.25 190.296 Q1811.54 193.05 1811.54 198.421 Z" fill="#000000" fill-rule="nonzero" fill-opacity="1" /><path clip-path="url(#clip930)" d="M1824.25 180.782 L1824.25 188.143 L1833.02 188.143 L1833.02 191.453 L1824.25 191.453 L1824.25 205.527 Q1824.25 208.698 1825.1 209.601 Q1825.98 210.504 1828.64 210.504 L1833.02 210.504 L1833.02 214.069 L1828.64 214.069 Q1823.71 214.069 1821.84 212.24 Q1819.96 210.388 1819.96 205.527 L1819.96 191.453 L1816.84 191.453 L1816.84 188.143 L1819.96 188.143 L1819.96 180.782 L1824.25 180.782 Z" fill="#000000" fill-rule="nonzero" fill-opacity="1" /><path clip-path="url(#clip930)" d="M1860.8 200.041 L1860.8 202.124 L1841.21 202.124 Q1841.49 206.522 1843.85 208.837 Q1846.24 211.129 1850.47 211.129 Q1852.93 211.129 1855.22 210.527 Q1857.53 209.925 1859.8 208.721 L1859.8 212.749 Q1857.51 213.721 1855.1 214.231 Q1852.69 214.74 1850.22 214.74 Q1844.01 214.74 1840.38 211.129 Q1836.77 207.518 1836.77 201.36 Q1836.77 194.995 1840.19 191.268 Q1843.64 187.518 1849.48 187.518 Q1854.71 187.518 1857.74 190.897 Q1860.8 194.254 1860.8 200.041 M1856.54 198.791 Q1856.49 195.296 1854.57 193.212 Q1852.67 191.129 1849.52 191.129 Q1845.96 191.129 1843.81 193.143 Q1841.68 195.157 1841.35 198.814 L1856.54 198.791 Z" fill="#000000" fill-rule="nonzero" fill-opacity="1" /><path clip-path="url(#clip930)" d="M1882.81 192.124 Q1882.09 191.708 1881.24 191.522 Q1880.4 191.314 1879.38 191.314 Q1875.77 191.314 1873.83 193.675 Q1871.91 196.013 1871.91 200.411 L1871.91 214.069 L1867.62 214.069 L1867.62 188.143 L1871.91 188.143 L1871.91 192.171 Q1873.25 189.809 1875.4 188.675 Q1877.55 187.518 1880.63 187.518 Q1881.07 187.518 1881.61 187.587 Q1882.14 187.634 1882.79 187.749 L1882.81 192.124 Z" fill="#000000" fill-rule="nonzero" fill-opacity="1" /><path clip-path="url(#clip930)" d="M1891.4 210.18 L1891.4 223.93 L1887.12 223.93 L1887.12 188.143 L1891.4 188.143 L1891.4 192.078 Q1892.74 189.763 1894.78 188.652 Q1896.84 187.518 1899.68 187.518 Q1904.41 187.518 1907.35 191.268 Q1910.31 195.018 1910.31 201.129 Q1910.31 207.24 1907.35 210.99 Q1904.41 214.74 1899.68 214.74 Q1896.84 214.74 1894.78 213.629 Q1892.74 212.495 1891.4 210.18 M1905.89 201.129 Q1905.89 196.43 1903.94 193.768 Q1902.02 191.083 1898.64 191.083 Q1895.26 191.083 1893.32 193.768 Q1891.4 196.43 1891.4 201.129 Q1891.4 205.828 1893.32 208.513 Q1895.26 211.175 1898.64 211.175 Q1902.02 211.175 1903.94 208.513 Q1905.89 205.828 1905.89 201.129 Z" fill="#000000" fill-rule="nonzero" fill-opacity="1" /><path clip-path="url(#clip930)" d="M1927.42 191.129 Q1923.99 191.129 1922 193.814 Q1920.01 196.476 1920.01 201.129 Q1920.01 205.782 1921.98 208.467 Q1923.97 211.129 1927.42 211.129 Q1930.82 211.129 1932.81 208.444 Q1934.8 205.758 1934.8 201.129 Q1934.8 196.522 1932.81 193.837 Q1930.82 191.129 1927.42 191.129 M1927.42 187.518 Q1932.97 187.518 1936.14 191.129 Q1939.31 194.74 1939.31 201.129 Q1939.31 207.495 1936.14 211.129 Q1932.97 214.74 1927.42 214.74 Q1921.84 214.74 1918.67 211.129 Q1915.52 207.495 1915.52 201.129 Q1915.52 194.74 1918.67 191.129 Q1921.84 187.518 1927.42 187.518 Z" fill="#000000" fill-rule="nonzero" fill-opacity="1" /><path clip-path="url(#clip930)" d="M1946.37 178.05 L1950.63 178.05 L1950.63 214.069 L1946.37 214.069 L1946.37 178.05 Z" fill="#000000" fill-rule="nonzero" fill-opacity="1" /><path clip-path="url(#clip930)" d="M1971.33 201.036 Q1966.17 201.036 1964.17 202.217 Q1962.18 203.397 1962.18 206.245 Q1962.18 208.513 1963.67 209.856 Q1965.17 211.175 1967.74 211.175 Q1971.28 211.175 1973.41 208.675 Q1975.56 206.152 1975.56 201.985 L1975.56 201.036 L1971.33 201.036 M1979.82 199.277 L1979.82 214.069 L1975.56 214.069 L1975.56 210.133 Q1974.11 212.495 1971.93 213.629 Q1969.75 214.74 1966.61 214.74 Q1962.62 214.74 1960.26 212.518 Q1957.92 210.272 1957.92 206.522 Q1957.92 202.147 1960.84 199.925 Q1963.78 197.703 1969.59 197.703 L1975.56 197.703 L1975.56 197.286 Q1975.56 194.347 1973.62 192.749 Q1971.7 191.129 1968.2 191.129 Q1965.98 191.129 1963.87 191.661 Q1961.77 192.194 1959.82 193.259 L1959.82 189.323 Q1962.16 188.421 1964.36 187.981 Q1966.56 187.518 1968.64 187.518 Q1974.27 187.518 1977.05 190.434 Q1979.82 193.351 1979.82 199.277 Z" fill="#000000" fill-rule="nonzero" fill-opacity="1" /><path clip-path="url(#clip930)" d="M2005.12 188.907 L2005.12 192.934 Q2003.32 192.009 2001.37 191.546 Q1999.43 191.083 1997.35 191.083 Q1994.17 191.083 1992.58 192.055 Q1991 193.027 1991 194.971 Q1991 196.453 1992.14 197.309 Q1993.27 198.143 1996.7 198.907 L1998.16 199.231 Q2002.69 200.203 2004.59 201.985 Q2006.51 203.745 2006.51 206.916 Q2006.51 210.527 2003.64 212.633 Q2000.8 214.74 1995.8 214.74 Q1993.71 214.74 1991.44 214.323 Q1989.2 213.93 1986.7 213.12 L1986.7 208.721 Q1989.06 209.948 1991.35 210.573 Q1993.64 211.175 1995.89 211.175 Q1998.9 211.175 2000.52 210.157 Q2002.14 209.115 2002.14 207.24 Q2002.14 205.504 2000.96 204.578 Q1999.8 203.652 1995.84 202.796 L1994.36 202.448 Q1990.4 201.615 1988.64 199.902 Q1986.88 198.166 1986.88 195.157 Q1986.88 191.499 1989.48 189.509 Q1992.07 187.518 1996.84 187.518 Q1999.2 187.518 2001.28 187.865 Q2003.36 188.212 2005.12 188.907 Z" fill="#000000" fill-rule="nonzero" fill-opacity="1" /><path clip-path="url(#clip930)" d="M2013.29 188.143 L2017.55 188.143 L2017.55 214.069 L2013.29 214.069 L2013.29 188.143 M2013.29 178.05 L2017.55 178.05 L2017.55 183.444 L2013.29 183.444 L2013.29 178.05 Z" fill="#000000" fill-rule="nonzero" fill-opacity="1" /><path clip-path="url(#clip930)" d="M2041.72 179.509 L2046.4 179.509 L2046.4 210.133 L2063.23 210.133 L2063.23 214.069 L2041.72 214.069 L2041.72 179.509 Z" fill="#000000" fill-rule="nonzero" fill-opacity="1" /><path clip-path="url(#clip930)" d="M2079.73 201.036 Q2074.57 201.036 2072.58 202.217 Q2070.59 203.397 2070.59 206.245 Q2070.59 208.513 2072.07 209.856 Q2073.57 211.175 2076.14 211.175 Q2079.68 211.175 2081.81 208.675 Q2083.97 206.152 2083.97 201.985 L2083.97 201.036 L2079.73 201.036 M2088.23 199.277 L2088.23 214.069 L2083.97 214.069 L2083.97 210.133 Q2082.51 212.495 2080.33 213.629 Q2078.16 214.74 2075.01 214.74 Q2071.03 214.74 2068.67 212.518 Q2066.33 210.272 2066.33 206.522 Q2066.33 202.147 2069.24 199.925 Q2072.18 197.703 2077.99 197.703 L2083.97 197.703 L2083.97 197.286 Q2083.97 194.347 2082.02 192.749 Q2080.1 191.129 2076.6 191.129 Q2074.38 191.129 2072.28 191.661 Q2070.17 192.194 2068.23 193.259 L2068.23 189.323 Q2070.56 188.421 2072.76 187.981 Q2074.96 187.518 2077.04 187.518 Q2082.67 187.518 2085.45 190.434 Q2088.23 193.351 2088.23 199.277 Z" fill="#000000" fill-rule="nonzero" fill-opacity="1" /><path clip-path="url(#clip930)" d="M2114.06 200.805 Q2114.06 196.175 2112.14 193.629 Q2110.24 191.083 2106.79 191.083 Q2103.36 191.083 2101.44 193.629 Q2099.54 196.175 2099.54 200.805 Q2099.54 205.411 2101.44 207.958 Q2103.36 210.504 2106.79 210.504 Q2110.24 210.504 2112.14 207.958 Q2114.06 205.411 2114.06 200.805 M2118.32 210.851 Q2118.32 217.471 2115.38 220.689 Q2112.44 223.93 2106.37 223.93 Q2104.13 223.93 2102.14 223.582 Q2100.15 223.258 2098.27 222.564 L2098.27 218.42 Q2100.15 219.439 2101.98 219.925 Q2103.8 220.411 2105.7 220.411 Q2109.89 220.411 2111.97 218.212 Q2114.06 216.036 2114.06 211.615 L2114.06 209.508 Q2112.74 211.8 2110.68 212.934 Q2108.62 214.069 2105.75 214.069 Q2100.98 214.069 2098.06 210.434 Q2095.15 206.8 2095.15 200.805 Q2095.15 194.786 2098.06 191.152 Q2100.98 187.518 2105.75 187.518 Q2108.62 187.518 2110.68 188.652 Q2112.74 189.786 2114.06 192.078 L2114.06 188.143 L2118.32 188.143 L2118.32 210.851 Z" fill="#000000" fill-rule="nonzero" fill-opacity="1" /><path clip-path="url(#clip930)" d="M2142.11 192.124 Q2141.4 191.708 2140.54 191.522 Q2139.71 191.314 2138.69 191.314 Q2135.08 191.314 2133.13 193.675 Q2131.21 196.013 2131.21 200.411 L2131.21 214.069 L2126.93 214.069 L2126.93 188.143 L2131.21 188.143 L2131.21 192.171 Q2132.55 189.809 2134.71 188.675 Q2136.86 187.518 2139.94 187.518 Q2140.38 187.518 2140.91 187.587 Q2141.44 187.634 2142.09 187.749 L2142.11 192.124 Z" fill="#000000" fill-rule="nonzero" fill-opacity="1" /><path clip-path="url(#clip930)" d="M2158.36 201.036 Q2153.2 201.036 2151.21 202.217 Q2149.22 203.397 2149.22 206.245 Q2149.22 208.513 2150.7 209.856 Q2152.21 211.175 2154.78 211.175 Q2158.32 211.175 2160.45 208.675 Q2162.6 206.152 2162.6 201.985 L2162.6 201.036 L2158.36 201.036 M2166.86 199.277 L2166.86 214.069 L2162.6 214.069 L2162.6 210.133 Q2161.14 212.495 2158.97 213.629 Q2156.79 214.74 2153.64 214.74 Q2149.66 214.74 2147.3 212.518 Q2144.96 210.272 2144.96 206.522 Q2144.96 202.147 2147.88 199.925 Q2150.82 197.703 2156.63 197.703 L2162.6 197.703 L2162.6 197.286 Q2162.6 194.347 2160.66 192.749 Q2158.73 191.129 2155.24 191.129 Q2153.02 191.129 2150.91 191.661 Q2148.8 192.194 2146.86 193.259 L2146.86 189.323 Q2149.2 188.421 2151.4 187.981 Q2153.6 187.518 2155.68 187.518 Q2161.3 187.518 2164.08 190.434 Q2166.86 193.351 2166.86 199.277 Z" fill="#000000" fill-rule="nonzero" fill-opacity="1" /><path clip-path="url(#clip930)" d="M2197.18 198.421 L2197.18 214.069 L2192.92 214.069 L2192.92 198.559 Q2192.92 194.879 2191.49 193.05 Q2190.05 191.222 2187.18 191.222 Q2183.73 191.222 2181.74 193.421 Q2179.75 195.62 2179.75 199.416 L2179.75 214.069 L2175.47 214.069 L2175.47 188.143 L2179.75 188.143 L2179.75 192.171 Q2181.28 189.833 2183.34 188.675 Q2185.42 187.518 2188.13 187.518 Q2192.6 187.518 2194.89 190.296 Q2197.18 193.05 2197.18 198.421 Z" fill="#000000" fill-rule="nonzero" fill-opacity="1" /><path clip-path="url(#clip930)" d="M2222.74 200.805 Q2222.74 196.175 2220.82 193.629 Q2218.92 191.083 2215.47 191.083 Q2212.04 191.083 2210.12 193.629 Q2208.22 196.175 2208.22 200.805 Q2208.22 205.411 2210.12 207.958 Q2212.04 210.504 2215.47 210.504 Q2218.92 210.504 2220.82 207.958 Q2222.74 205.411 2222.74 200.805 M2227 210.851 Q2227 217.471 2224.06 220.689 Q2221.12 223.93 2215.05 223.93 Q2212.81 223.93 2210.82 223.582 Q2208.83 223.258 2206.95 222.564 L2206.95 218.42 Q2208.83 219.439 2210.65 219.925 Q2212.48 220.411 2214.38 220.411 Q2218.57 220.411 2220.65 218.212 Q2222.74 216.036 2222.74 211.615 L2222.74 209.508 Q2221.42 211.8 2219.36 212.934 Q2217.3 214.069 2214.43 214.069 Q2209.66 214.069 2206.74 210.434 Q2203.83 206.8 2203.83 200.805 Q2203.83 194.786 2206.74 191.152 Q2209.66 187.518 2214.43 187.518 Q2217.3 187.518 2219.36 188.652 Q2221.42 189.786 2222.74 192.078 L2222.74 188.143 L2227 188.143 L2227 210.851 Z" fill="#000000" fill-rule="nonzero" fill-opacity="1" /><path clip-path="url(#clip930)" d="M2257.95 200.041 L2257.95 202.124 L2238.36 202.124 Q2238.64 206.522 2241 208.837 Q2243.39 211.129 2247.62 211.129 Q2250.08 211.129 2252.37 210.527 Q2254.68 209.925 2256.95 208.721 L2256.95 212.749 Q2254.66 213.721 2252.25 214.231 Q2249.84 214.74 2247.37 214.74 Q2241.16 214.74 2237.53 211.129 Q2233.92 207.518 2233.92 201.36 Q2233.92 194.995 2237.34 191.268 Q2240.79 187.518 2246.63 187.518 Q2251.86 187.518 2254.89 190.897 Q2257.95 194.254 2257.95 200.041 M2253.69 198.791 Q2253.64 195.296 2251.72 193.212 Q2249.82 191.129 2246.67 191.129 Q2243.11 191.129 2240.96 193.143 Q2238.83 195.157 2238.5 198.814 L2253.69 198.791 Z" fill="#000000" fill-rule="nonzero" fill-opacity="1" /></svg>
